<?xml version="1.0" encoding="UTF-8"?>
<svg id="Layer_2" data-name="Layer 2" xmlns="http://www.w3.org/2000/svg" viewBox="0 0 54 54">
  <defs>
    <style>
      .cls-1 {
        fill: none;
        stroke: #ffaf68;
        stroke-miterlimit: 10;
        stroke-width: 2px;
      }

      .cls-2 {
        fill: #ffaf68;
      }
    </style>
  </defs>
  <g id="Layer_1-2" data-name="Layer 1">
    <g>
      <circle class="cls-1" cx="27" cy="27" r="26"/>
      <path class="cls-2" d="m27,40.33l-1.29-1.16c-2.21-2.03-4.04-3.78-5.48-5.25-1.44-1.47-2.6-2.79-3.45-3.95-.86-1.16-1.46-2.21-1.8-3.15-.34-.94-.52-1.89-.52-2.85,0-1.88.63-3.46,1.9-4.72,1.26-1.26,2.83-1.89,4.69-1.89,1.19,0,2.29.28,3.31.85,1.01.56,1.9,1.38,2.65,2.45.88-1.13,1.81-1.96,2.79-2.49.98-.53,2.04-.8,3.17-.8,1.86,0,3.42.63,4.69,1.89,1.26,1.26,1.9,2.84,1.9,4.72,0,.96-.17,1.91-.52,2.85-.34.94-.95,1.99-1.8,3.15-.86,1.16-2.01,2.48-3.45,3.95-1.44,1.47-3.27,3.22-5.48,5.25l-1.29,1.16Zm0-2.48c2.12-1.94,3.86-3.61,5.22-5,1.37-1.39,2.45-2.61,3.26-3.65.8-1.05,1.37-1.98,1.69-2.8.32-.82.49-1.63.49-2.44,0-1.38-.44-2.52-1.32-3.41-.88-.89-2-1.33-3.38-1.33-1.08,0-2.07.33-2.99.99-.92.66-1.66,1.58-2.22,2.78h-1.54c-.54-1.17-1.27-2.09-2.19-2.76-.92-.67-1.91-1-2.99-1-1.38,0-2.5.44-3.38,1.33-.88.89-1.32,2.03-1.32,3.41,0,.81.16,1.63.49,2.45.32.83.89,1.77,1.69,2.82s1.9,2.27,3.28,3.65c1.38,1.38,3.11,3.03,5.21,4.95Z"/>
    </g>
  </g>
</svg>