<svg xmlns="http://www.w3.org/2000/svg" width="27.102" height="25.113" viewBox="0 0 27.102 25.113">
  <path id="favorite_FILL1_wght400_GRAD0_opsz48" d="M93-830.177l-1.332-1.2q-3.445-3.153-5.687-5.444a40.217,40.217,0,0,1-3.575-4.1,13.524,13.524,0,0,1-1.869-3.266A8.533,8.533,0,0,1,80-847.143a6.64,6.64,0,0,1,1.966-4.891A6.6,6.6,0,0,1,86.825-854a6.933,6.933,0,0,1,3.429.878A8.328,8.328,0,0,1,93-850.588a9.475,9.475,0,0,1,2.893-2.584A6.777,6.777,0,0,1,99.175-854a6.6,6.6,0,0,1,4.859,1.966A6.64,6.64,0,0,1,106-847.143a8.534,8.534,0,0,1-.536,2.958,13.524,13.524,0,0,1-1.869,3.266,40.218,40.218,0,0,1-3.575,4.1q-2.243,2.291-5.687,5.444Z" transform="translate(-79.449 854.55)" fill="none" stroke="#ffc338" stroke-width="1.1"/>
</svg>
