<svg width="30" height="30" viewBox="0 0 30 30" fill="none" xmlns="http://www.w3.org/2000/svg">
<circle cx="15" cy="15" r="14.5" stroke="#F4F4F4"/>
<path d="M14.5013 24.0144L14.5012 24.0144C14.3521 23.963 14.2231 23.8838 14.1099 23.7742L14.1013 23.7659L14.0924 23.7581L12.6414 22.4812C12.6413 22.4811 12.6412 22.4811 12.6412 22.481C10.8604 20.9092 9.27332 19.3675 7.87891 17.856C6.53927 16.404 5.89999 14.8858 5.89999 13.2914C5.89999 12.0337 6.33201 11.0025 7.19846 10.1637C8.06581 9.32399 9.13889 8.90002 10.4526 8.90002C11.1906 8.90002 11.9248 9.06422 12.6591 9.40027C13.3675 9.72443 14.017 10.2575 14.6032 11.0221L15 11.5395L15.3968 11.0221C15.983 10.2575 16.6325 9.72443 17.3409 9.40027C18.0752 9.06422 18.8094 8.90002 19.5474 8.90002C20.8611 8.90002 21.9342 9.32399 22.8015 10.1637C23.668 11.0025 24.1 12.0337 24.1 13.2914C24.1 14.9037 23.4495 16.4397 22.086 17.9096C20.6676 19.4388 19.0842 20.9671 17.3354 22.4945L17.3341 22.4956L15.8981 23.7579L15.889 23.7659L15.8804 23.7742C15.7684 23.8826 15.6388 23.9619 15.4863 24.0137L15.4863 24.0137C15.3123 24.0728 15.1476 24.1 14.9903 24.1C14.833 24.1 14.6707 24.0728 14.5013 24.0144Z" stroke="white"/>
</svg>
