<?xml version="1.0" standalone="no"?>
<!DOCTYPE svg PUBLIC "-//W3C//DTD SVG 1.1//EN" "http://www.w3.org/Graphics/SVG/1.1/DTD/svg11.dtd" >
<svg xmlns="http://www.w3.org/2000/svg" xmlns:xlink="http://www.w3.org/1999/xlink" version="1.1">
<metadata>
Created by FontForge 20160405 at Tue Sep 11 03:12:09 2018
 By www-data
Copyright (c) 2008 by (c) Summit Information Technologies Pvt. Ltd.. All rights reserved.
</metadata>
<defs>
<font id="ChanakyaUni" horiz-adv-x="0" >
  <font-face 
    font-family="ChanakyaUni"
    font-weight="400"
    font-stretch="normal"
    units-per-em="1000"
    panose-1="2 0 5 3 0 0 0 2 0 3"
    ascent="800"
    descent="-200"
    x-height="355"
    cap-height="525"
    bbox="-604 -546 1526 1473"
    underline-thickness="40"
    underline-position="-250"
    unicode-range="U+0020-25CC"
  />
<missing-glyph horiz-adv-x="500" 
d="M63 0v649h375v-649h-375zM125 63h250v524h-250v-524z" />
    <glyph glyph-name=".notdef" horiz-adv-x="500" 
d="M63 0v649h375v-649h-375zM125 63h250v524h-250v-524z" />
    <glyph glyph-name=".null" 
 />
    <glyph glyph-name="nonmarkingreturn" horiz-adv-x="270" 
 />
    <glyph glyph-name="space" unicode=" " horiz-adv-x="270" 
 />
    <glyph glyph-name="exclam" unicode="!" horiz-adv-x="334" 
d="M302 167l-52 30l-12 442l68 -38zM276 0l-59 58l59 58l59 -58z" />
    <glyph glyph-name="quotedbl" unicode="&#x22;" horiz-adv-x="282" 
d="M107 521q-1 -3 -1 -8.5t-1 -14.5l-23 -128h-15l-22 128q-1 9 -2 15t-1 7q0 13 10 20.5t23 7.5q12 0 22 -7t10 -20zM241 521q0 -3 -1 -8.5t-2 -14.5l-22 -128h-15l-22 128q-1 9 -2 15t-1 7q0 13 10 20.5t22 7.5q14 0 23.5 -7t9.5 -20z" />
    <glyph glyph-name="numbersign" unicode="#" horiz-adv-x="364" 
d="M331 401l-9 -48h-53l-28 -153h54l-10 -49h-53l-25 -138h-26l24 138h-82l-25 -138h-26l25 138h-54l8 49h54l28 153h-53l8 48h53l22 121h27l-22 -121h82l22 121h28l-22 -121h53zM242 353h-83l-27 -153h82z" />
    <glyph glyph-name="dollar" unicode="$" horiz-adv-x="380" 
d="M356 168q0 -66 -36.5 -109t-118.5 -58q2 -56 3 -72l-4 -3h-26l-4 3q1 6 1 23.5t1 46.5q-78 2 -138 29l-4 6q4 20 6.5 45t4.5 57l3 4h16l3 -4q1 -56 3 -64q45 -45 106 -45v205q-26 4 -42 7t-27 6.5t-19 8t-17 11.5q-37 30 -37 88q0 61 37.5 101t104.5 50q-1 18 -1 29
t-1 17l4 3h25l4 -3q-1 -2 -1 -13t-1 -32q83 -7 121 -29l2 -5q-7 -19 -8 -49l-2 -37l-4 -4h-14l-3 4q-1 17 -2.5 31.5t-3.5 27.5q-30 33 -86 35v-191q28 -4 46 -7.5t30.5 -7t21.5 -8t19 -12.5q20 -13 29 -35.5t9 -49.5zM172 477q-40 -4 -62.5 -29t-22.5 -72q0 -75 85 -84v185
zM298 140q0 39 -22 59.5t-75 28.5v-199q22 1 40 10t30.5 24t19.5 34.5t7 42.5z" />
    <glyph glyph-name="percent" unicode="%" horiz-adv-x="526" 
d="M525 160q0 -44 -11 -72.5t-26 -45.5t-32 -23.5t-29 -6.5t-27 5t-27.5 18.5t-21.5 38.5t-9 65t9.5 67.5t24.5 44t32.5 24t34.5 7.5q7 0 21 -2.5t27.5 -14.5t23.5 -36.5t10 -68.5zM168 12h-41l288 492h41zM242 382q0 -44 -11 -72.5t-26 -45.5t-32 -23.5t-29 -6.5t-27 5
t-27.5 18.5t-21.5 38.5t-9 65t9.5 67.5t24.5 44t32.5 24t34.5 7.5q7 0 21 -2.5t27.5 -14.5t23.5 -36.5t10 -68.5zM485 112q0 63 -19.5 91.5t-51.5 28.5q-14 0 -23 -13.5t-9 -41.5q0 -32 6 -54t15.5 -35.5t22 -19.5t25.5 -6q34 0 34 50zM202 334q0 63 -19.5 91.5t-51.5 28.5
q-14 0 -23 -13.5t-9 -41.5q0 -32 6 -54t15.5 -35.5t22 -19.5t25.5 -6q34 0 34 50z" />
    <glyph glyph-name="ampersand" unicode="&#x26;" horiz-adv-x="592" 
d="M571 55l-1 -6q-29 -20 -61 -47q-11 -2 -25 -2q-66 0 -135 57q-22 -17 -40.5 -28t-36 -17.5t-35 -9t-37.5 -2.5q-32 0 -60 10t-48 29t-31.5 46t-11.5 59q0 97 113 159q-12 27 -17 51.5t-5 47.5q0 15 1.5 24t7.5 19.5t20 23t38 33.5q25 21 55 21q67 0 67 -68
q0 -77 -105 -148q10 -21 28.5 -48t39.5 -53.5t42.5 -49.5t39.5 -37q36 42 36 88q0 22 -2.5 33.5t-11 16t-24.5 5.5t-43 2l-3 4l23 35q11 -2 27 -2.5t36 -0.5h30q21 0 44 1t43.5 1.5t30.5 0.5l3 -3q-3 -11 -4.5 -21.5t-3.5 -22.5l-3 -3q-42 7 -89 7h-5q-5 0 -6 -1
q1 -8 2.5 -15.5t1.5 -16.5q0 -62 -61 -125q67 -47 131 -47q13 0 38 13l5 -2zM326 76q-100 103 -152 199q-62 -43 -62 -106q0 -25 10 -48.5t26.5 -41t39 -28t48.5 -10.5q46 0 90 35zM279 435q0 18 -11 33t-29 15q-22 0 -34 -18.5t-12 -43.5q0 -35 18 -89q68 48 68 103z" />
    <glyph glyph-name="quotesingle" unicode="'" horiz-adv-x="158" 
d="M114 521q0 -3 -1 -8.5t-2 -14.5l-22 -128h-16l-22 128q-1 9 -2 15t-1 7q0 13 10.5 20.5t22.5 7.5q13 0 23 -7t10 -20z" />
    <glyph glyph-name="parenleft" unicode="(" horiz-adv-x="444" 
d="M294 -103q-47 34 -85.5 73t-66 84.5t-43 98t-15.5 112.5t15.5 112.5t43 98t66 84.5t85.5 73l21 -22q-89 -71 -127 -155.5t-38 -190.5q0 -107 38 -191.5t127 -154.5z" />
    <glyph glyph-name="parenright" unicode=")" horiz-adv-x="444" 
d="M354 265q0 -60 -15.5 -112.5t-43 -98t-66.5 -84.5t-85 -73l-21 22q89 70 127 154.5t38 191.5q0 106 -38 190.5t-127 155.5l21 22q46 -34 85 -73t66.5 -84.5t43 -98t15.5 -112.5z" />
    <glyph glyph-name="asterisk" unicode="*" horiz-adv-x="444" 
d="M399 411l-95 66l14 -139l-59 18l15 120l-113 -82l-12 58l109 48l-135 50l50 43l97 -71l-18 142l61 -26l-13 -114l112 87l9 -61l-108 -47l131 -54z" />
    <glyph glyph-name="plus" unicode="+" horiz-adv-x="444" 
d="M240 240v-148h-36v148h-145v36h145v148h36v-148h145v-36h-145z" />
    <glyph glyph-name="comma" unicode="," horiz-adv-x="222" 
d="M158 33q0 -12 -6 -26t-18.5 -32.5t-33 -43.5t-48.5 -58l-12 30q12 12 22.5 26t19 27t13.5 24t5 18q0 10 -9.5 24t-28.5 40l48 54q17 -16 32.5 -39t15.5 -44z" />
    <glyph glyph-name="hyphen" unicode="-" horiz-adv-x="280" 
d="M62 240v36h156v-36h-156z" />
    <glyph glyph-name="period" unicode="." horiz-adv-x="222" 
d="M106 0l-59 58l59 58l59 -58z" />
    <glyph glyph-name="slash" unicode="/" horiz-adv-x="260" 
d="M53 0l-35 14l199 516l35 -14z" />
    <glyph glyph-name="zero" unicode="0" horiz-adv-x="390" 
d="M370 290q0 -64 -12.5 -115.5t-36 -87.5t-56.5 -55.5t-74 -19.5q-29 0 -57 14.5t-50.5 43.5t-36 72.5t-13.5 102.5q0 66 13.5 120t37 92t55.5 58.5t69 20.5q32 0 61 -12.5t51.5 -41.5t35.5 -76t13 -116zM316 238q0 62 -11 106t-29 72t-40.5 41t-46.5 13q-48 0 -74.5 -41.5
t-26.5 -128.5q0 -57 10.5 -99t28.5 -69.5t42 -40.5t51 -13q42 0 69 39.5t27 120.5z" />
    <glyph glyph-name="one" unicode="1" horiz-adv-x="390" 
d="M220 -4q0 17 0.5 54.5t1 85.5t0.5 100t-0.5 98t-1 80.5t-1.5 47.5l-135 -71l-16 37l173 94l39 -30v-482z" />
    <glyph glyph-name="two" unicode="2" horiz-adv-x="390" 
d="M337 10l-306 -4l7 39q74 73 119.5 122.5t70 85t33 61t8.5 50.5t-10.5 43.5t-26 30.5t-34.5 18t-36 6q-23 0 -49.5 -13.5t-53.5 -42.5l-16 9l29 71q12 11 42.5 23.5t79.5 12.5q21 0 46 -10t46 -28t35 -43t14 -56t-12 -64.5t-38.5 -72t-67.5 -83t-98 -98.5l232 2z" />
    <glyph glyph-name="three" unicode="3" horiz-adv-x="390" 
d="M362 180q0 -32 -17.5 -64t-46.5 -58.5t-67 -43t-80 -16.5q-11 0 -28 3t-35 8.5t-34 13t-25 16.5l29 71q33 -27 69 -39.5t68 -12.5q19 0 39 8t36.5 21t27 30.5t10.5 35.5q0 35 -30 62t-78 37q-11 -6 -32.5 -11t-32.5 -5q-8 0 -12.5 5t-4.5 10t5.5 20.5t14.5 34.5l30 2.5
t33 1.5q5 0 9.5 -0.5t7.5 -0.5q20 20 33 42.5t13 35.5q0 16 -8 30t-21 24t-29.5 15.5t-33.5 5.5q-28 0 -57.5 -11.5t-46.5 -26.5l-13 6l27 67q23 10 52 17.5t49 7.5q28 0 52.5 -7t43 -21t29 -35t10.5 -49q0 -24 -16.5 -54t-42.5 -55q48 -15 75.5 -47t27.5 -74z" />
    <glyph glyph-name="four" unicode="4" horiz-adv-x="390" 
d="M363 135h-57l1 -128l-59 -21l-1 149l-235 -2l15 81l208 282l74 26l-3 -332h71zM246 449l-191 -259h190l2 257z" />
    <glyph glyph-name="five" unicode="5" horiz-adv-x="390" 
d="M357 197q0 -32 -17.5 -65t-46 -59.5t-64 -43.5t-70.5 -17q-15 0 -33 3t-35.5 8.5t-32.5 12t-24 14.5l25 63q32 -19 64 -30t59 -11q25 0 47 8t38.5 21.5t26 30.5t9.5 34q0 20 -11.5 38.5t-39 34t-72.5 26.5t-111 16l35 241h230l-16 -60h-181l-18 -121q70 -9 116 -23.5
t73 -33t38 -40.5t11 -47z" />
    <glyph glyph-name="six" unicode="6" horiz-adv-x="390" 
d="M363 177q0 -33 -14.5 -66.5t-39 -59.5t-56.5 -42.5t-67 -16.5q-30 0 -58.5 13.5t-51 38t-36 58.5t-13.5 75q0 44 16 90t40.5 89.5t53 80.5t53.5 63l100 23l4 -21q-39 -22 -72.5 -51t-59.5 -61.5t-43.5 -66t-23.5 -65.5l2 -2q9 9 23 20.5t31 21t37 16.5t40 7
q25 0 49.5 -11.5t43.5 -31t30.5 -46t11.5 -55.5zM309 144q0 24 -9.5 45.5t-26 37.5t-38.5 25t-47 9q-23 0 -52 -15t-49 -42q3 -74 39.5 -113t94.5 -39q47 0 67.5 25.5t20.5 66.5z" />
    <glyph glyph-name="seven" unicode="7" horiz-adv-x="390" 
d="M358 490l-204 -461l-69 -23l-16 6q10 18 30 54.5t43.5 81.5t48.5 93.5t47 92.5t37.5 78t20.5 50h-271l18 60h324z" />
    <glyph glyph-name="eight" unicode="8" horiz-adv-x="390" 
d="M357 145q0 -24 -12.5 -50t-34.5 -47.5t-52.5 -35t-66.5 -13.5q-32 0 -61 10.5t-50.5 29t-34 43.5t-12.5 55q0 38 26 73.5t77 55.5q-44 22 -70 50.5t-26 69.5q0 24 12.5 48.5t33.5 44t48 32t55 12.5q31 0 58.5 -9t47.5 -26t32 -41t12 -55q0 -32 -18.5 -63t-60.5 -53
q54 -24 75.5 -58.5t21.5 -72.5zM285 374q0 24 -11.5 43t-28.5 33t-37 21.5t-37 7.5q-34 0 -55.5 -19t-21.5 -54q0 -18 12.5 -34.5t33 -32t45.5 -29t50 -24.5q24 21 37 42t13 46zM297 127q0 15 -6.5 30t-21.5 30.5t-40.5 31t-64.5 31.5q-35 -13 -53 -38t-18 -58
q0 -19 10.5 -39t27 -36t36.5 -26t38 -10q51 0 71.5 23.5t20.5 60.5z" />
    <glyph glyph-name="nine" unicode="9" horiz-adv-x="390" 
d="M363 336q0 -44 -16 -90.5t-40.5 -89.5t-53 -80t-53.5 -62l-100 -23l-4 19q39 22 72.5 51t59.5 61.5t43.5 66.5t23.5 66l-2 2q-9 -9 -23 -20.5t-31 -21t-37 -16.5t-40 -7q-26 0 -50 11.5t-43 31t-30.5 46t-11.5 55.5q0 33 14.5 66.5t39 59.5t56.5 42.5t67 16.5
q30 0 58.5 -13.5t51 -38t36 -58.5t13.5 -75zM303 309q-3 74 -39.5 113t-94.5 39q-47 0 -67.5 -25.5t-20.5 -66.5q0 -24 9.5 -45.5t26 -37.5t38.5 -25t47 -9q23 0 52 15t49 42z" />
    <glyph glyph-name="colon" unicode=":" horiz-adv-x="278" 
d="M145 312l-65 65l64 64l65 -65zM145 48l-65 65l64 64l65 -65z" />
    <glyph glyph-name="semicolon" unicode=";" horiz-adv-x="222" 
d="M169 240l-59 58l59 58l59 -58zM217 33q0 -12 -6 -26t-18.5 -32.5t-33 -43.5t-48.5 -58l-12 30q12 12 22.5 26t19 27t13.5 24t5 18q0 10 -9.5 24t-28.5 40l48 54q17 -16 32.5 -39t15.5 -44z" />
    <glyph glyph-name="less" unicode="&#x3c;" horiz-adv-x="314" 
d="M-1 201v78l244 184v-78l-189 -148l193 -151v-74z" />
    <glyph glyph-name="equal" unicode="=" horiz-adv-x="444" 
d="M62 294v36h326v-36h-326zM62 186v36h326v-36h-326z" />
    <glyph glyph-name="greater" unicode="&#x3e;" horiz-adv-x="314" 
d="M66 0v74l193 151l-193 148v78l248 -184v-78z" />
    <glyph glyph-name="question" unicode="?" horiz-adv-x="519" 
d="M520 463q0 -31 -9 -55t-25 -46q-17 -23 -37 -49.5t-41 -53t-41 -51.5t-36 -43l-46 38q15 16 35.5 40.5t43 52t44 55.5t38.5 52q12 17 20.5 41t8.5 44q0 45 -29 72t-73 28q-14 0 -41.5 -6.5t-62.5 -29.5l-40 49q26 18 64 30.5t75 12.5q25 0 52 -14t49 -38.5t36.5 -57.5
t14.5 -71zM342 0l-59 58l59 58l59 -58z" />
    <glyph glyph-name="at" unicode="@" horiz-adv-x="519" 
d="M502 285q0 -32 -11 -64t-30 -58.5t-44 -42.5t-54 -16q-22 0 -37.5 12.5t-15.5 34.5v4q0 6 1 7l-4 1q-34 -55 -84 -55q-74 0 -74 92q0 35 11 66t29.5 54.5t43.5 37.5t53 14q41 0 56 -33l5 25l38 9l4 -4q-42 -158 -42 -209q0 -35 31 -35q16 0 33 11t30.5 31t22 50t8.5 68
q0 39 -12.5 69t-35 50t-54.5 30.5t-72 10.5q-45 0 -86 -17t-72 -48t-49 -74t-18 -95q0 -44 12 -79.5t36 -61.5t58.5 -40t80.5 -14q99 0 167 62l3 -3q-2 -4 -3.5 -8.5t-2.5 -8.5q-73 -62 -175 -62q-47 0 -87 15.5t-69.5 44t-46 68t-16.5 87.5q0 53 21 99t57 80t84 53.5
t104 19.5q44 0 82 -12.5t65.5 -36t43 -56.5t15.5 -73zM331 307q0 48 -41 48q-14 0 -30 -11.5t-30 -31.5t-23 -48.5t-9 -62.5q0 -72 41 -72q26 0 48 30.5t35 89.5q4 19 6.5 33t2.5 25z" />
    <glyph glyph-name="A" unicode="A" horiz-adv-x="591" 
d="M574 13l-3 -2q-18 1 -33 2t-26 1q-21 0 -53 -1t-77 -2l-3 2v20l3 2q26 2 43.5 3t17.5 13q0 11 -5 22l-45 110h-210l-39 -93q-11 -26 -11 -37q0 -17 60 -18l3 -2v-20l-3 -2q-46 2 -81 2q-40 0 -81 -2l-3 2v20l3 2q19 1 28.5 1t15.5 4.5t11.5 16.5t16.5 37l136 305
q4 8 17.5 41t37.5 90h24l175 -412q14 -34 22 -50.5t15 -23.5t16 -7.5t25 -1.5l3 -2v-20zM379 214l-90 218l-93 -218h183z" />
    <glyph glyph-name="B" unicode="B" horiz-adv-x="464" 
d="M427 179q0 -34 -14 -64.5t-41 -54t-65.5 -37t-88.5 -13.5l-35 2q-15 0 -33.5 0.5t-35.5 0.5q-13 0 -27.5 -0.5t-32.5 -2.5l-3 3v12l3 4q26 13 29 28v49q2 59 2 92v237q0 30 -4.5 46t-29.5 18l-27 3l-3 2v18l3 3q31 -2 55 -2.5t41 -0.5q4 0 39 2t102 2q70 0 105.5 -26.5
t35.5 -74.5q0 -47 -32.5 -79t-91.5 -45q43 -4 71.5 -13.5t45.5 -24.5t24.5 -36t7.5 -48zM350 168q0 31 -8 53t-27 36t-49 20t-73 6q-8 0 -18 -0.5t-21 -0.5l1 -234q15 -4 29 -5.5t28 -1.5q69 0 103.5 33.5t34.5 93.5zM328 410q0 86 -111 86q-40 0 -59 -5q-2 -17 -3 -45.5
t-1 -68.5v-66q3 -1 9 -1h32q133 0 133 100z" />
    <glyph glyph-name="C" unicode="C" horiz-adv-x="539" 
d="M519 75l-14 -34q-81 -41 -172 -41q-65 0 -118.5 19t-92.5 54t-60.5 84.5t-21.5 110.5q0 57 20.5 106.5t59 85t93.5 55.5t125 20q92 0 174 -34l2 -4q-9 -25 -16 -100l-2 -3h-17l-3 3l-3 62q-56 44 -142 44q-47 0 -86 -14.5t-67 -43t-43.5 -70t-15.5 -96.5q0 -52 17 -96
t49 -76t77 -50t101 -18q93 0 149 43z" />
    <glyph glyph-name="D" unicode="D" horiz-adv-x="588" 
d="M557 292q0 -49 -16.5 -95t-45.5 -82.5t-68.5 -62t-85.5 -34.5q-20 -4 -40.5 -6t-42.5 -2q-15 0 -52 1.5t-88 1.5q-13 0 -27.5 -0.5t-32.5 -2.5l-3 3v12l3 4q20 11 25 23.5t5 25.5q0 7 -0.5 14t-0.5 14q1 30 1.5 53.5t0.5 38.5v255q-1 15 -2.5 24t-5 13.5t-9.5 6t-16 2.5
l-28 3l-2 2v18l2 3l41 -3q18 -1 28 0l186 4q69 0 120.5 -17.5t85.5 -48.5t51 -74t17 -94zM480 279q0 216 -227 216q-49 0 -94 -8q-2 -60 -2 -134v-220l2 -83q38 -7 85 -7q120 0 178 61t58 175z" />
    <glyph glyph-name="E" unicode="E" horiz-adv-x="464" 
d="M434 134q-10 -40 -10 -121l-3 -2q-18 1 -63 1h-118l-114 1q-25 0 -56 -2l-2 2v13l2 3q27 13 30 28v49q2 61 2 92l-1 256q0 15 -2 23.5t-5 13t-9 6t-16 2.5l-28 3l-3 2v19l3 2l159 -2q118 0 211 2l2 -2q-9 -36 -14 -110l-1 -3h-18l-3 3v6q0 31 -5 59q-41 16 -124 16
q-14 0 -32 -1.5t-41 -2.5l-3 -198q24 -1 45.5 -1.5t43.5 -0.5q26 0 40.5 1t21.5 5t8.5 12t3.5 22l1 23l3 2h17l3 -2q-1 -6 -1 -11v-62q0 -5 -1 -8v-80l-1 -3h-17l-3 3l-5 42q-1 8 -4 13t-12 7.5t-28 4t-51 1.5q-11 0 -27 -0.5t-37 -1.5q-1 -15 -1.5 -40t-0.5 -61
q0 -38 0.5 -66t1.5 -46h66q79 0 79 -1q23 1 41.5 4t31.5 10q6 17 11 35.5t8 40.5l4 2h18z" />
    <glyph glyph-name="F" unicode="F" horiz-adv-x="423" 
d="M388 522q-7 -23 -11 -106l-3 -3h-17l-3 3q-1 6 -1 16t-3 24l-4 24q-33 13 -104 13q-15 0 -32 -1t-38 -3q-1 -15 -2.5 -49t-1.5 -89v-62l96 -1q18 0 28.5 0.5t16 5t8.5 12.5t4 23l3 20l2 3h18l3 -3l-2 -80q0 -2 -0.5 -4.5t-0.5 -5.5q0 -9 0.5 -20t1 -22.5t1 -20.5t0.5 -13
l-3 -3h-18l-2 3l-4 52q-3 8 -8 13t-15.5 7t-28 2.5t-45.5 0.5h-45q-7 0 -10 -1v-144q0 -36 2 -50t6 -19q9 -8 61 -10l3 -3v-18l-3 -3l-104 3q-6 0 -31.5 -0.5t-71.5 -2.5l-3 3v18l3 3q32 1 43.5 2.5t16.5 6.5q8 8 9 64l-1 346q0 17 -1 26.5t-7.5 14t-20.5 5.5t-39 3l-3 2v18
l3 3l203 -2h21q33 0 64.5 0.5t66.5 1.5z" />
    <glyph glyph-name="G" unicode="G" horiz-adv-x="580" 
d="M557 200l-2 -5l-18 -10q-7 -4 -9.5 -15.5t-2.5 -27.5q0 -23 0.5 -48t4.5 -53l-3 -3q-95 -38 -203 -38q-61 0 -113.5 17t-90.5 50.5t-60 82t-22 112.5q0 62 22.5 113t63.5 86.5t97.5 54.5t125.5 19q97 0 182 -34l2 -4q-3 -13 -7 -37.5t-8 -64.5l-3 -3h-16l-3 3l-2 39
q0 18 -2 21.5t-8 8.5q-19 15 -58 27t-88 12q-51 0 -91.5 -15t-69 -44t-44 -71t-15.5 -95q0 -55 17.5 -100t47.5 -77.5t72.5 -50t92.5 -17.5q68 0 112 22q3 7 3 47v40q0 20 -1.5 30.5t-10 14t-25 3.5t-46.5 1l-3 4v16l3 3l22 -1q17 -1 32 -1.5t28 -0.5h39q10 0 22.5 0.5
t31.5 2.5l4 -3v-11z" />
    <glyph glyph-name="H" unicode="H" horiz-adv-x="633" 
d="M615 13l-3 -3l-104 3q-6 0 -31.5 -0.5t-72.5 -2.5l-2 3v18l2 3q32 1 43.5 2.5t16.5 6.5q9 8 9 65v158q-106 2 -149 2q-45 0 -149 -2l1 -153q0 -36 1.5 -49.5t5.5 -19.5q9 -8 62 -10l3 -3v-18l-3 -3l-104 3q-6 0 -31.5 -0.5t-72.5 -2.5l-3 3v18l3 3q32 1 44 2.5t16 6.5
q9 8 9 65v314q-1 21 -1 32.5t-0.5 18.5t-2 10.5t-3.5 7.5q-9 8 -62 11l-3 2v18l3 3l104 -3q6 0 31.5 0.5t72.5 2.5l3 -3v-18l-3 -2q-21 -2 -34 -3t-20.5 -3t-10 -7.5t-3.5 -15.5l-2 -173q40 0 77.5 -0.5t73.5 -0.5q49 0 85.5 0.5t61.5 0.5v122q0 19 -0.5 31t-1.5 19.5
t-2.5 11.5t-3.5 7q-6 8 -61 11l-2 2v18l2 3l104 -3q6 0 31.5 0.5t72.5 2.5l3 -3v-18l-3 -2q-22 -2 -34.5 -3t-20 -3t-10.5 -7.5t-3 -15.5l-1 -360q1 -19 1 -31t0.5 -19.5t2 -11t4.5 -7.5q8 -8 61 -10l3 -3v-18z" />
    <glyph glyph-name="I" unicode="I" horiz-adv-x="257" 
d="M238 13l-2 -2h-10q-4 0 -15 0.5t-24.5 0.5t-28 0.5t-27.5 0.5q-11 0 -103 -2l-3 2v19l3 2q31 1 43 3t17 6q9 8 9 65l-1 349q-1 14 -1.5 22t-6 13t-19.5 7t-41 3l-3 2v19l3 2l45 -2q23 0 37.5 -0.5t20.5 -0.5t32 0.5t73 2.5l2 -2v-19l-2 -2q-29 -2 -43 -3t-19.5 -7
t-5.5 -19.5t-1 -38.5l-1 -321q1 -19 1.5 -30.5t0.5 -19.5t1.5 -11.5t4.5 -7.5q9 -8 62 -10l2 -2v-19z" />
    <glyph glyph-name="J" unicode="J" horiz-adv-x="253" 
d="M236 500l-3 -2q-21 -2 -34 -2.5t-20.5 -3t-10.5 -8t-3 -16.5l-1 -380q0 -55 -14.5 -97t-37 -69.5t-49 -41.5t-51.5 -14q-7 0 -15 2q1 9 1 17v22q0 6 -1 17l7 4q19 -14 39 -14q34 0 45 25q7 17 7 95l-1 384q0 20 -0.5 32.5t-1 19.5t-2 10.5t-4.5 7.5q-6 9 -60 10l-3 2v19
l3 2l103 -3q7 0 32 0.5t72 2.5l3 -2v-19z" />
    <glyph glyph-name="K" unicode="K" horiz-adv-x="552" 
d="M547 15l-3 -3q-10 0 -21 0.5t-22 0.5q-6 0 -21 -0.5t-38 -0.5q-56 54 -123 114.5t-145 134.5l1 -183q0 -15 2 -23.5t8 -13t19.5 -6t38.5 -1.5l3 -3v-18l-3 -3q1 0 -19.5 1.5t-65.5 1.5h-18q-7 0 -32 -0.5t-72 -2.5l-3 3v18l3 3q26 0 40 1t20.5 7t7.5 21t1 45v314
q-1 21 -1.5 32.5t-1 18.5t-1.5 10.5t-4 7.5q-8 8 -61 11l-3 2v18l3 3l45 -2q23 0 37.5 -0.5t21.5 -0.5q6 0 31.5 0.5t71.5 2.5l3 -3v-18l-3 -2q-16 -1 -26 -1.5t-16 -1.5t-9.5 -2t-6.5 -3q-10 -6 -10 -60l-1 -159q47 41 79 72t52 51l67 66q13 13 20 22t11 12v24l3 3
q14 -1 29.5 -1.5t30.5 -0.5h46q6 0 12 1l3 -3v-17l-2 -3q-23 0 -37.5 -3t-27.5 -10.5t-29 -22.5t-43 -38l-146 -135l217 -201l39 -37q23 -20 46 -21l3 -3v-15z" />
    <glyph glyph-name="L" unicode="L" horiz-adv-x="464" 
d="M438 136q-10 -46 -10 -123l-3 -3q-37 1 -180 2l-105 1q-18 0 -36 -0.5t-38 -2.5l-4 3v12l4 4q24 13 27 21l1 40q1 22 2 48.5t1 57.5l-1 261q-1 16 -2.5 24t-7.5 12.5t-20 5.5t-38 3l-3 2v18l3 3l103 -3q6 0 31.5 0.5t72.5 2.5l3 -3v-18l-3 -2q-24 -2 -37.5 -3t-20.5 -4.5
t-8.5 -11t-1.5 -22.5l-1 -270q0 -8 -0.5 -16.5t-0.5 -15.5q0 -17 1 -30t1 -21l1 -63h75q78 0 78 -1q43 3 74 14q0 3 3.5 14.5t7 24.5t6 24.5t2.5 14.5l3 4h18z" />
    <glyph glyph-name="M" unicode="M" horiz-adv-x="719" 
d="M702 12l-3 -2q-30 2 -55.5 2.5t-47.5 0.5q-15 0 -40 -0.5t-61 -2.5l-3 2v18l3 3q17 1 28.5 1t18.5 1.5t10.5 4t5.5 7.5q7 11 7 136v265l-126 -261q-25 -51 -45.5 -96.5t-36.5 -87.5h-14q-12 27 -20.5 45.5t-12.5 28.5l-173 360v-253q0 -126 6 -136q2 -4 5 -7t10 -4
t18.5 -2t30.5 -1l2 -3v-18l-3 -3l-23 2q-9 0 -17.5 0.5t-16.5 0.5h-27q-7 0 -28 -0.5t-59 -2.5l-3 3v17l3 4q18 0 29.5 0.5t17.5 1.5t9.5 4t5.5 8q7 10 7 136v165q0 125 -6 135q-2 6 -5 8.5t-10 4t-18 2t-30 1.5l-3 2v18l3 3q13 0 29.5 -0.5t38.5 -0.5q20 0 37.5 0.5
t31.5 0.5q15 -33 29 -65t29 -62l137 -281l124 258q26 54 42 91t26 59q17 0 34 -0.5t34 -0.5q16 0 34 0.5t38 0.5l3 -3v-18l-2 -2q-19 -1 -30.5 -1.5t-18 -1.5t-10 -3.5t-5.5 -7.5q-7 -11 -7 -136v-167q0 -125 6 -135q2 -5 5 -8t10 -4t18.5 -1.5t31.5 -1.5l2 -3v-18z" />
    <glyph glyph-name="N" unicode="N" horiz-adv-x="632" 
d="M608 503l-4 -2q-24 -2 -36.5 -2t-18 -11t-6 -38t-0.5 -83v-271q1 -3 1 -9v-89q-8 3 -23.5 7t-38.5 8l-103 124l-245 307v-278q0 -47 0.5 -73.5t4 -39.5t11.5 -16t22 -3h23l3 -4v-17l-3 -3q-9 2 -24.5 2.5t-36.5 0.5q-27 0 -50.5 -0.5t-43.5 -2.5l-3 4v16l3 4q24 0 36 1.5
t16 8.5q1 0 2.5 14.5t3 34t2.5 40t1 33.5v293q0 27 -14 34t-50 7l-3 3v17l3 3q50 -2 65 -2q37 0 60 2l116 -149l169 -213q16 -21 30.5 -38.5t32.5 -35.5v340q0 37 -5.5 52.5t-22.5 18.5l-34 3l-3 2v17l3 3q29 -2 84 -2q49 0 72 2l4 -3v-17z" />
    <glyph glyph-name="O" unicode="O" horiz-adv-x="597" 
d="M580 285q0 -66 -22 -118.5t-60.5 -89.5t-91.5 -57t-114 -20q-60 0 -108 20t-81.5 55t-51.5 83.5t-18 104.5q0 61 20.5 111.5t57.5 86.5t88 55t112 19q62 0 111.5 -17t84.5 -49.5t54 -79t19 -104.5zM504 260q0 57 -15 103t-42 77t-65 47.5t-85 16.5q-94 0 -141.5 -56
t-47.5 -161q0 -54 14.5 -100.5t41.5 -80.5t65.5 -53.5t85.5 -19.5q90 0 139.5 58.5t49.5 168.5z" />
    <glyph glyph-name="P" unicode="P" horiz-adv-x="459" 
d="M441 409q0 -32 -14 -60t-37.5 -49.5t-54.5 -33.5t-64 -12q-11 0 -24 1.5t-26 4.5l-7 22l4 3q14 -3 24.5 -4.5t19.5 -1.5q49 0 77 31.5t28 80.5q0 107 -120 107q-38 0 -72 -12q-2 -14 -2.5 -47.5t-0.5 -87.5v-238q0 -35 1 -49t6 -20q7 -8 61 -10l3 -3v-18l-3 -3l-104 3
q-6 0 -31 -0.5t-72 -2.5l-3 3v18l3 3q32 1 43.5 2.5t16.5 6.5q8 8 9 65l-1 349q0 15 -1.5 23t-7.5 12.5t-20 6t-39 3.5l-3 2v18l3 3q47 -2 75 -2.5t41 -0.5q9 0 27.5 0.5t38.5 1t38 1t28 0.5q78 0 119 -30t41 -86z" />
    <glyph glyph-name="Q" unicode="Q" horiz-adv-x="597" 
d="M580 282q0 -60 -19.5 -110.5t-55 -88.5t-84.5 -60q-45 -23 -98 -26q12 -2 27 -8q20 -6 43 -16q52 -22 88.5 -32t58.5 -10q15 0 36 7l4 -4v-11l-2 -4q-2 -2 -6 -4l-10 -6q-15 -10 -25.5 -16.5t-15.5 -11.5q-13 0 -23.5 1t-24.5 4.5t-33 9.5t-48 17q-46 16 -74 24t-40 8
q-14 0 -46 -18l-18 -10l-3 2v17l2 4q29 23 52 37t40 20q-93 0 -149.5 30.5t-90.5 97.5q-32 62 -32 140q0 59 20.5 108.5t57 84.5t88 54.5t112.5 19.5q60 0 109.5 -16.5t85 -48t55 -78.5t19.5 -107zM504 257q0 57 -15 103t-42 77t-65 47.5t-85 16.5q-92 0 -140.5 -55.5
t-48.5 -162.5q0 -54 14 -100.5t41 -80t65.5 -53t86.5 -19.5q90 0 139.5 58t49.5 169z" />
    <glyph glyph-name="R" unicode="R" horiz-adv-x="509" 
d="M505 15l-3 -4q-18 2 -42 2q-26 0 -56 -2q-12 14 -35 45t-51.5 69.5t-60 79t-59.5 73.5l4 11q3 -1 9 -1h20q63 0 98.5 29t35.5 84q0 47 -31 72t-88 25q-32 0 -71 -11q-6 -8 -6 -136l1 -238q0 -36 1 -49.5t6 -19.5q9 -8 62 -10l3 -3v-18l-3 -3q-9 1 -21 2q-11 0 -27 0.5
t-37 0.5h-19q-6 0 -31.5 -0.5t-72.5 -2.5l-2 3v18l2 3q32 1 44 2.5t16 6.5q9 8 9 65v314q0 19 -0.5 31.5t-1 19.5t-2 11t-3.5 7q-7 8 -62 11l-2 2v18l2 3q34 -2 59.5 -2.5t43.5 -0.5q22 0 60.5 1.5t87.5 1.5q157 0 157 -112q0 -52 -35.5 -89.5t-113.5 -52.5l141 -188l23 -28
q12 -14 22 -17.5t26 -3.5l3 -3v-16z" />
    <glyph glyph-name="S" unicode="S" horiz-adv-x="399" 
d="M382 180q0 -39 -17 -71.5t-46.5 -57t-68.5 -38t-83 -13.5q-79 0 -131 27l-2 4q1 12 2.5 38.5t2.5 68.5l3 2h17l3 -2q1 -23 2 -36.5t3 -21t6.5 -11.5t13.5 -10q35 -25 99 -25q28 0 53 7.5t42.5 23t27.5 36.5t10 50q0 21 -4.5 36.5t-17.5 27t-36.5 19.5t-61.5 14
q-42 7 -68.5 13.5t-43 16.5t-25.5 23t-16 34q-4 10 -6 21t-2 25q0 36 13 64.5t36 48.5t55 31t69 11q74 0 136 -31l2 -4q-7 -34 -9 -95l-3 -4h-19l-3 4q-1 25 -1 37v13q-3 9 -13 17.5t-24.5 15.5t-31.5 11.5t-34 4.5q-51 0 -81 -29.5t-30 -76.5q0 -23 7 -38t22 -25t38.5 -16
t57.5 -10q33 -5 56 -10t38.5 -12t26 -17t18.5 -24q18 -29 18 -67z" />
    <glyph glyph-name="T" unicode="T" horiz-adv-x="466" 
d="M452 521q-2 -16 -3 -44.5t-1 -68.5l-3 -3h-16l-3 3l-6 55q-2 10 -4 15t-9 7t-22 3t-41 1h-69l-1 -411q1 -16 2.5 -24.5t8 -12.5t19.5 -5.5t38 -1.5l3 -3v-18l-3 -3l-103 3q-7 0 -31.5 -0.5t-71.5 -2.5l-3 3v18l3 3q26 0 40 0.5t19.5 6.5t7 21t1.5 46l1 287q0 3 -0.5 26.5
t-2.5 67.5h-54q-36 0 -54.5 -0.5t-26.5 -4.5t-9 -14t-3 -29l-3 -33l-3 -3h-17l-2 3q-1 44 -2 72t-2 41l4 4q31 -2 83 -2.5t126 -0.5q75 0 127.5 0.5t81.5 2.5z" />
    <glyph glyph-name="U" unicode="U" horiz-adv-x="591" 
d="M578 505l-4 -3h-30q-12 0 -19.5 -2t-11.5 -9t-5 -21t-1 -37l-2 -81v-110q0 -40 -1 -67t-3.5 -45t-8 -30.5t-14.5 -23.5q-29 -40 -76 -58t-106 -18q-89 0 -139 32.5t-56 95.5q-2 14 -2.5 35t-0.5 50l-1 209q0 20 -0.5 32t-1 19t-1.5 10.5t-4 7.5q-10 9 -61 11l-3 2v19l3 2
l104 -3q6 0 31.5 0.5t71.5 2.5l3 -2v-19l-3 -2l-42 -3q-14 -1 -19.5 -7t-6 -19.5t-0.5 -38.5l-1 -198q0 -52 3 -82.5t9 -45.5q27 -61 137 -61q47 0 77.5 9.5t48 31.5t24.5 59.5t7 92.5v112q0 124 -6 134q-2 5 -5.5 8t-10 4t-18 2t-30.5 2l-3 3v17l3 3q28 -2 49 -2.5t37 -0.5
q13 0 34.5 0.5t50.5 2.5l4 -3v-17z" />
    <glyph glyph-name="V" unicode="V" horiz-adv-x="549" 
d="M536 504l-2 -2q-19 -1 -27 -2t-13 -7t-10 -21t-18 -43l-113 -278q-19 -46 -32.5 -82t-20.5 -62h-37q-4 13 -15.5 43t-29.5 79l-124 304q-21 51 -21 52q-11 14 -48 17l-3 3v16l3 3q55 -2 94 -2q35 0 95 2l4 -2v-20l-4 -3h-34q-26 -2 -26 -13q0 -15 32 -97l114 -285l94 237
q47 118 47 143q0 11 -27 15l-35 3l-3 2v18l3 2q64 -2 81 -2q13 0 74 2l2 -2v-18z" />
    <glyph glyph-name="W" unicode="W" horiz-adv-x="760" 
d="M747 505l-3 -2l-21 -2q-5 -2 -9 -3t-7.5 -5.5t-7 -13.5t-9.5 -27l-57 -188q-4 -8 -11 -34.5t-19 -73.5l-40 -150h-37q-21 61 -36.5 105.5t-26.5 74.5l-82 223l-72 -178l-63 -167l-20 -58h-36l-33 152l-70 298q-4 14 -6.5 22.5t-7.5 13t-15 6.5t-28 4l-2 3v16l2 4
q27 -2 50 -2.5t43 -0.5q15 0 37 0.5t51 2.5l3 -4v-16l-3 -3q-22 0 -39.5 -2t-17.5 -13q0 -13 5 -41t16 -73l57 -251l89 223q16 40 33.5 86t35.5 99h23q14 -47 29 -90.5t31 -86.5l85 -235l61 216q19 66 27 103.5t10 49.5q0 13 -26 15h-35l-3 4v16l3 3q31 -2 49.5 -2.5
t24.5 -0.5t24 0.5t51 2.5l3 -3v-17z" />
    <glyph glyph-name="X" unicode="X" horiz-adv-x="507" 
d="M492 15l-3 -3q-4 1 -9 1h-86q-4 0 -9 -1q-10 15 -20 31t-20 33l-95 163l-26 -37q-27 -37 -57.5 -84t-65.5 -106q-4 1 -12 1h-52q-6 0 -10 -1l-3 4v17l3 3q17 0 26 1t18 10t22 28t39 55l99 138l-64 108q-14 23 -27.5 43t-26 35.5t-23.5 24.5t-19 11q-1 1 -33 1l-4 3v15
l4 3l102 18q13 -9 31 -33.5t43 -66.5l61 -106l138 202q15 0 24.5 -0.5t12.5 -0.5q2 0 10 0.5t24 0.5l3 -3v-16l-3 -3l-27 -3q-9 -1 -17.5 -8.5t-20 -23.5t-33.5 -46l-94 -127l122 -199l21 -31q13 -19 19 -25t16 -6q4 0 8.5 0.5t10.5 0.5l3 -3v-18z" />
    <glyph glyph-name="Y" unicode="Y" horiz-adv-x="507" 
d="M493 515q-40 -45 -86 -113t-102 -169q-2 -9 -2 -21v-107q0 -28 1 -42.5t7.5 -20.5t20.5 -7t39 -1l3 -2v-19l-3 -2h-8q-5 0 -15.5 0.5t-24 0.5t-28.5 0.5t-27 0.5t-103 -2l-4 2v19l4 2q31 1 42 2t17 7q8 7 8 54l1 131q-4 11 -17.5 34t-35.5 59l-32 53q-26 42 -42 65.5
t-30 34.5t-26.5 14t-31.5 3l-3 3v15l3 3l103 18q14 -10 31 -33.5t38 -58.5t44 -79t48 -94l79 128l77 132q7 -1 14 -1.5t13 -0.5q4 0 10.5 0.5t15.5 1.5l2 -3v-7z" />
    <glyph glyph-name="Z" unicode="Z" horiz-adv-x="507" 
d="M483 503q-21 -25 -35 -42t-21 -26l-301 -387l146 -3q10 0 19 -0.5t18 -0.5q25 0 48 1t41.5 3.5t31 6.5t16.5 11l6 24l7 50l4 2h17l3 -2q-2 -12 -3 -43.5t-3 -83.5l-3 -3q-78 2 -137 2.5t-104 0.5q-31 0 -81 -0.5t-123 -2.5l-3 4v17l87 108l207 266q24 31 39.5 52.5
t23.5 33.5h-133q-91 0 -126 -7q-15 -3 -18.5 -7.5t-4.5 -20.5l-6 -48l-3 -3h-17l-3 3q1 13 1 24v58q0 18 -1 31l3 4q66 -2 110.5 -2.5t70.5 -0.5q43 0 98 0.5t126 2.5l3 -4v-18z" />
    <glyph glyph-name="bracketleft" unicode="[" horiz-adv-x="254" 
d="M220 -142l-4 -4q-1 1 -7.5 1.5t-16.5 0.5h-43q-30 0 -73 -2l-8 7q5 68 5 176l-1 376q-1 27 -2 52t-2 47l6 8q21 -1 38 -1h62q18 0 42 1l4 -2v-20l-2 -3h-17q-11 0 -23.5 -1.5t-23.5 -4.5t-14 -9q-7 -11 -8 -146l1 -370v-48q0 -17 6.5 -24.5t23.5 -9t53 -1.5l4 -4v-19z
" />
    <glyph glyph-name="backslash" unicode="\" horiz-adv-x="460" 
d="M346 -73l-2 -4h-36l-4 3l-195 621l3 4h35l4 -3z" />
    <glyph glyph-name="bracketright" unicode="]" horiz-adv-x="253" 
d="M180 -146q-44 2 -73 2q-15 0 -67 -2l-3 4v19l3 4h47q13 0 20.5 2.5t11 15.5t5 41.5t1.5 82.5l-2 352q-1 50 -2.5 75t-5.5 32q-3 4 -8.5 5t-14.5 2t-22.5 2t-31.5 4l-1 3v20l3 2q24 -1 42 -1h61q18 0 39 1l6 -8q-4 -41 -5 -312l1 -243q1 -23 1.5 -46.5t2.5 -49.5z" />
    <glyph glyph-name="asciicircum" unicode="^" horiz-adv-x="380" 
d="M360 263h-46l-119 225l-119 -225h-46l142 271h46z" />
    <glyph glyph-name="underscore" unicode="_" horiz-adv-x="380" 
d="M380 -124h-370v44h370v-44z" />
    <glyph glyph-name="grave" unicode="`" horiz-adv-x="253" 
d="M191 429l-1 -5l-11 -5l-4 1l-106 135l6 10h5l25 -4l14 -4q7 -2 14 -2h3z" />
    <glyph glyph-name="a" unicode="a" horiz-adv-x="390" 
d="M371 0l-3 -2q-27 2 -51 2q-25 0 -56 -2l-5 4v62l-81 -65q-26 -8 -46 -8q-45 0 -71.5 22.5t-26.5 66.5q0 80 79 112q17 7 53.5 14t93.5 16q0 102 -92 102q-7 0 -16 -1.5t-18.5 -4t-17 -5.5t-9.5 -6t-7 -14.5t-14 -32.5l-2 -2l-15 4l-3 4v47q67 50 132 50q61 0 94 -30
t33 -84l-1 -77v-114q0 -24 5 -29.5t20 -7.5l22 -2l3 -3v-16zM257 198q-42 -7 -67.5 -13t-36.5 -10q-55 -22 -55 -79q0 -59 60 -59q50 0 99 58v103z" />
    <glyph glyph-name="b" unicode="b" horiz-adv-x="431" 
d="M399 210q0 -52 -19 -91t-63 -72q-28 -21 -46 -33t-30.5 -17.5t-24.5 -7t-30 -1.5q-48 0 -93 31l-31 -28l-13 4q4 35 6 74t2 84l-2 275q0 18 -1.5 37.5t-4.5 41.5q-5 6 -54 6l-4 3v17l4 3q72 8 122 28l8 -5q-5 -43 -5 -175v-97q28 36 59.5 56t79.5 20q30 0 56 -10.5
t44.5 -30t29 -48t10.5 -64.5zM331 179q0 63 -28 99t-80 36q-16 0 -33 -5.5t-31 -15.5t-24.5 -23t-14.5 -29v-143q0 -9 0.5 -14.5t2 -10t5 -8t9.5 -7.5q35 -28 79 -28q27 0 48 11t36.5 30.5t23 47t7.5 60.5z" />
    <glyph glyph-name="c" unicode="c" horiz-adv-x="346" 
d="M331 41l-16 -25q-51 -28 -109 -28q-41 0 -73.5 12.5t-55 36t-35 56.5t-12.5 74q0 29 3.5 52t14 43t30.5 37.5t55 35.5q20 11 32.5 17t23 9t20.5 4.5t25 1.5q58 0 97 -23q-4 -22 -7 -45.5t-4 -50.5l-4 -3h-16l-3 3q-1 21 -2 32t-4.5 17t-10 9.5t-17.5 8.5q-24 13 -59 13
q-54 0 -79.5 -32.5t-25.5 -95.5q0 -37 9 -68.5t26.5 -54.5t43.5 -36t59 -13q34 0 86 23z" />
    <glyph glyph-name="d" unicode="d" horiz-adv-x="477" 
d="M450 0l-3 -3q-20 1 -36.5 2t-27.5 1t-25.5 -1t-33.5 -2l-4 4q1 18 1 31v36q-29 -21 -44.5 -36t-28 -24t-25 -13t-33.5 -4q-36 0 -65 12.5t-49.5 35.5t-32 55t-11.5 71q0 22 4.5 43.5t12.5 40.5t19.5 33.5t25.5 24.5q33 20 53 31.5t33 17t23.5 6.5t25.5 1q49 0 92 -23
l-1 144q0 20 -12 24.5t-48 4.5l-3 3v17l3 3q72 8 122 28l7 -5q-1 -22 -2.5 -65.5t-1.5 -109.5v-250q0 -91 7 -102q7 -10 55 -14l3 -3v-15zM321 275q-47 54 -110 54q-53 0 -82 -37t-29 -106q0 -32 8.5 -58.5t23.5 -46t37 -31t49 -11.5q45 0 74 31.5t29 94.5v110z" />
    <glyph glyph-name="e" unicode="e" horiz-adv-x="374" 
d="M348 218q0 -7 -0.5 -12.5t-1.5 -10.5l-4 -4q-37 -10 -128 -10h-121q0 -71 36 -112t99 -41q43 0 103 34l6 -6l-13 -27q-64 -41 -126 -41q-40 0 -73 12t-56.5 35t-36.5 57t-13 77q0 37 6.5 65.5t21.5 50.5t38 39t57 30q29 12 62 12q34 0 60.5 -11.5t45 -31.5t28.5 -47
t10 -58zM278 224q0 116 -89 116q-96 0 -96 -129q12 -1 42 -2.5t78 -1.5q53 0 65 3v14z" />
    <glyph glyph-name="f" unicode="f" horiz-adv-x="260" 
d="M263 496l-9 -3q-22 19 -50 19q-18 0 -29.5 -5t-18 -16t-9 -29.5t-2.5 -45.5v-79h41q32 0 60 2l3 -4l-6 -33l-4 -4h-94v-153q0 -19 -0.5 -34t-0.5 -27q0 -25 2.5 -37.5t10 -18.5t22 -7t40.5 -2l3 -3v-16l-3 -3q-7 0 -21.5 0.5t-30.5 1t-31 1t-22 0.5q-20 0 -43.5 -1
t-48.5 -2l-3 3v16l3 3q19 2 32 2.5t18 6.5q1 2 2.5 16t3.5 33.5t2.5 39.5t0.5 34v147l-48 -3l-4 3v10l3 3l49 26v23q0 35 4 57.5t14 41t27.5 36t44.5 42.5q29 28 61 28q10 0 31 -7v-62z" />
    <glyph glyph-name="g" unicode="g" horiz-adv-x="434" 
d="M423 330q-8 -13 -12.5 -20t-6.5 -11h-71q10 -20 10 -44q0 -30 -13.5 -55t-36 -43t-51 -28t-59.5 -10h-18q-35 -28 -35 -44q0 -18 16.5 -24.5t62.5 -6.5l85 2q55 0 83 -25.5t28 -70.5q0 -40 -19 -71t-49 -53t-69 -33t-79 -11q-35 0 -64.5 7.5t-51.5 22.5t-34 36.5
t-12 49.5q0 31 21 63l68 38q-15 5 -25 9t-16 9t-7.5 11t-1.5 16q0 14 10 34l60 44q-91 24 -91 104q0 38 17 64.5t42.5 43t56 24.5t58.5 8q47 0 91 -31q35 0 62.5 0.5t47.5 1.5zM343 -78q0 23 -7 37t-22.5 21.5t-41 10t-62.5 2.5h-39q-40 -2 -62.5 -28.5t-22.5 -61.5
q0 -44 32.5 -70.5t85.5 -26.5q28 0 53.5 9t44.5 25t30 37t11 45zM278 236q0 21 -6.5 39.5t-17.5 32.5t-27 22.5t-35 8.5q-40 0 -60.5 -25t-20.5 -66q0 -48 22 -76t62 -28t61.5 24.5t21.5 67.5z" />
    <glyph glyph-name="h" unicode="h" horiz-adv-x="454" 
d="M446 0l-3 -3q-24 1 -40.5 2t-24.5 1q-4 0 -18 -1t-38 -2l-5 4q5 50 5 129v50q0 28 -0.5 44t-1.5 26t-4 16t-9 15q-22 34 -71 34q-15 0 -31.5 -5t-30.5 -13.5t-24.5 -20t-14.5 -23.5q-2 -10 -2 -40v-147q0 -25 5.5 -35t17.5 -10t36 -2l3 -3v-16l-2 -3q-25 1 -47.5 2
t-44.5 1t-44.5 -1t-47.5 -2l-4 3v16l4 3q18 2 31 2.5t19 6.5q2 2 3.5 16t3 33.5t2.5 39.5t1 34l-2 278q0 18 -1 37.5t-4 40.5q-5 6 -55 6l-3 3v17l3 3q73 8 122 28l7 -5q-1 -22 -2 -65.5t-1 -109.5v-94q14 12 27 25t28 23.5t33 17.5t43 7q26 0 48.5 -6.5t39 -22t25.5 -41
t9 -62.5v-67q0 1 -0.5 -9.5t-0.5 -26.5q0 -14 0.5 -31t1.5 -31.5t3 -25.5t6 -14q9 -7 47 -7l3 -3v-16z" />
    <glyph glyph-name="i" unicode="i" horiz-adv-x="227" 
d="M153 490q0 -17 -12.5 -29.5t-30.5 -12.5t-31 12.5t-13 29.5q0 18 13 31t31 13t30.5 -12.5t12.5 -31.5zM208 0l-3 -3q-24 1 -46.5 2t-45.5 1q-22 0 -44.5 -1t-46.5 -2l-4 3v16l4 3q18 2 31 2.5t19 6.5q1 2 2.5 16t3.5 33.5t2.5 39.5t0.5 34v75q0 24 -1 42t-3 32
q-1 10 -26 11l-32 1l-3 3v16l3 4q73 8 123 28l7 -5q-2 -25 -3 -56t-1 -71v-86q0 -53 0.5 -78.5t6 -35.5t17.5 -10t35 -2l4 -3v-16z" />
    <glyph glyph-name="j" unicode="j" horiz-adv-x="183" 
d="M129 358q-1 -22 -2.5 -51t-0.5 -65v-215q0 -58 -9 -103.5t-27 -77t-44 -48t-58 -16.5h-8l-4 21l3 5q1 -1 8 -1h5q16 0 29 8t21.5 30t14 60t5.5 99v260q0 25 -5 35.5t-24 11.5l-33 1l-3 3v16l3 4q73 8 122 28zM135 490q0 -17 -12.5 -29.5t-30.5 -12.5t-30.5 12.5
t-12.5 29.5q0 19 12.5 31.5t30.5 12.5t30.5 -12.5t12.5 -31.5z" />
    <glyph glyph-name="k" unicode="k" horiz-adv-x="434" 
d="M424 14q-14 -2 -72 -23l-51 45l-62 63l-97 91v-45q0 -53 0.5 -78.5t6 -35.5t17.5 -10t35 -2l3 -3v-16l-3 -3q-24 1 -46.5 2t-44.5 1q-23 0 -45.5 -1t-46.5 -2l-3 3v16l3 3q19 2 32 3t19 6q1 2 2.5 16t3 33.5t2.5 39.5t1 34l-2 278q0 18 -1.5 37.5t-4.5 40.5q-4 6 -54 6
l-3 3v17l3 3q73 8 123 28l7 -5q-2 -22 -3 -65.5t-1 -109.5v-179q22 12 54.5 39.5t76.5 69.5q43 39 44 42h74l4 -3v-14l-3 -4q-12 -1 -22 -3t-24.5 -10t-37.5 -25t-60 -48l-37 -31q30 -35 68 -72.5t84 -79.5q15 -13 23.5 -20t14 -10.5t11 -4.5t12.5 -1v-16z" />
    <glyph glyph-name="l" unicode="l" horiz-adv-x="227" 
d="M208 0l-3 -3q-24 1 -46.5 2t-44.5 1q-23 0 -45.5 -1t-46.5 -2l-3 3v16l3 3q19 2 32 3t19 6q1 2 2.5 16t3 33.5t2.5 39.5t1 34l-2 278q0 18 -1.5 37.5t-4.5 40.5q-5 6 -54 6l-4 3v17l3 3q74 8 124 28l7 -5q-2 -22 -3 -65.5t-1 -109.5v-239q0 -53 0.5 -78.5t5.5 -35.5
t17.5 -10t35.5 -2l3 -3v-16z" />
    <glyph glyph-name="m" unicode="m" horiz-adv-x="689" 
d="M671 0l-3 -3q-25 1 -41 2t-25 1q-5 0 -18.5 -1t-35.5 -2l-6 4q3 25 4.5 57t1.5 72v46q0 32 -1.5 53t-5 34t-10 21t-16.5 16q-22 16 -50 16q-15 0 -30 -5t-27.5 -14.5t-20.5 -22.5t-9 -29q-1 -1 -1 -43v-48q0 -57 0.5 -84.5t5.5 -38t17.5 -10.5t36.5 -2l3 -3v-16l-3 -3
q-24 1 -47 2t-45 1q-21 0 -44 -1t-48 -2l-3 3v16l3 3q20 2 33 3t18 6q2 2 3.5 16t3 33.5t2.5 39.5t1 34v43q0 61 -18 91.5t-63 30.5q-16 0 -32 -5t-29 -15.5t-20.5 -25t-7.5 -34.5v-167q0 -27 5 -37.5t17.5 -10.5t36.5 -2l3 -3v-16l-3 -3q-24 1 -47 2t-44 1q-23 0 -45.5 -1
t-47.5 -2l-3 3v16l3 3q20 2 33 3t18 6q2 2 3.5 16t3 33.5t2.5 39.5t1 34v75q0 24 -1.5 42t-2.5 32q-2 10 -26 11l-32 1l-3 3v16l2 4q73 8 123 28l7 -5q-1 -12 -1.5 -27t-1.5 -33l56 51q7 4 25 9t37 5q80 0 109 -71l40 39q20 18 41 25t44 7q43 0 75.5 -24.5t37.5 -76.5
q1 -6 1.5 -20.5t0.5 -37.5v-40v-25l2 -70q1 -18 2 -28.5t6 -15t15.5 -5.5t31.5 -1l3 -3v-16z" />
    <glyph glyph-name="n" unicode="n" horiz-adv-x="454" 
d="M446 0l-3 -3q-24 1 -40.5 2t-24.5 1q-5 0 -19 -1t-37 -2l-5 4q4 25 5 57t1 72v50q0 28 -0.5 44t-1.5 26t-4 16t-9 15q-23 34 -72 34q-18 0 -36 -6t-32 -16t-23 -21t-10 -21q-1 -5 -1.5 -14.5t-0.5 -25.5v-66q0 -53 0.5 -78.5t6 -35.5t17.5 -10t36 -2l3 -3v-16l-3 -3
q-24 1 -46.5 2t-45.5 1q-21 0 -44 -1t-47 -2l-4 3v16l4 3q18 2 31 2.5t19 6.5q2 2 3.5 16t3 33.5t2 39.5t0.5 34v75q0 24 -1 42t-2 32q-2 10 -26 11l-32 1l-3 3v16l3 4q72 8 122 28l7 -5q-1 -13 -1.5 -30t-1.5 -37q14 12 27 24.5t28 23t32.5 17.5t42.5 7q27 0 49 -6.5
t38.5 -21.5t25.5 -41t9 -63v-67q0 -3 0.5 -26.5t1.5 -68.5q1 -18 2.5 -28t6.5 -14.5t15.5 -6t30.5 -1.5l3 -3v-16z" />
    <glyph glyph-name="o" unicode="o" horiz-adv-x="426" 
d="M400 185q0 -42 -15 -79t-41.5 -63.5t-62.5 -42t-78 -15.5q-37 0 -69.5 14.5t-56.5 40t-37.5 60t-13.5 75.5q0 38 13 72.5t37.5 61t60.5 41.5t82 15q40 0 73 -13t57.5 -37t37.5 -57t13 -73zM326 155q0 42 -8 76t-24 58.5t-39 37.5t-52 13q-52 0 -79 -36.5t-27 -103.5
q0 -41 9 -75.5t25 -59t39 -39t53 -14.5q52 0 77.5 39.5t25.5 103.5z" />
    <glyph glyph-name="p" unicode="p" horiz-adv-x="469" 
d="M438 210q0 -17 -4.5 -37t-12 -40t-18 -37t-22.5 -27q-3 -3 -11 -8t-19.5 -12t-25 -15.5t-25.5 -17.5q-19 -14 -34 -20t-43 -6q-40 0 -79 20v-81q0 -53 0.5 -79t6 -36t17.5 -10t36 -1l3 -3v-16l-3 -3q-25 1 -47.5 2t-44.5 1t-44.5 -1t-46.5 -2l-4 3v16l4 3q16 0 30.5 2
t19.5 6q1 1 3 16t3.5 36t2.5 41.5t1 33.5v324q0 30 -4.5 41.5t-25.5 12.5l-32 1l-3 3v16l3 3q72 9 122 28l7 -4q-1 -22 -2.5 -41t-1.5 -36q57 53 63 56q32 21 79 21q34 0 62 -11t48 -31.5t31 -49t11 -61.5zM370 184q0 28 -8.5 52.5t-24.5 42t-38 27.5t-49 10q-18 0 -36.5 -7
t-33.5 -18t-25 -24.5t-11 -25.5v-165q43 -45 100 -45q29 0 52.5 12t40 32t25 48t8.5 61z" />
    <glyph glyph-name="q" unicode="q" horiz-adv-x="437" 
d="M435 -216l-3 -3q-24 1 -46.5 2t-45.5 1q-20 0 -43 -1t-48 -2l-3 3v16l3 3q16 0 30.5 2t19.5 6q1 1 2.5 16t3.5 36t3 41.5t1 33.5v113l-82 -50q-4 -3 -15.5 -6.5t-30.5 -3.5q-33 0 -60.5 13t-47.5 36t-31.5 54.5t-11.5 68.5t6.5 62t21.5 44.5t39.5 36.5t62.5 38
q33 19 79 19q50 0 100 -26l39 25l14 -9q-14 -36 -17 -78.5t-3 -105.5v-240q0 -52 0.5 -78t6 -36t17.5 -10.5t35 -1.5l4 -3v-16zM310 284q0 5 -1 8q-40 40 -97 40q-26 0 -47 -10.5t-35.5 -29.5t-23 -45t-8.5 -57q0 -41 10.5 -70.5t28 -48t38.5 -27.5t42 -9q51 0 93 51v198z
" />
    <glyph glyph-name="r" unicode="r" horiz-adv-x="308" 
d="M292 352q-3 -25 -4 -47.5t-2 -42.5h-17q-16 35 -49 35q-35 -2 -53 -28t-18 -73v-104q0 -31 2 -46t9.5 -20.5t22 -5.5t40.5 -1l4 -3v-16l-4 -3q-25 1 -52 2t-54 1q-22 0 -44.5 -1t-46.5 -2l-3 3v16l3 3q19 2 32 3t18 6q2 2 3.5 16t3 33.5t2.5 39.5t1 34v75q0 11 0.5 20.5
t0.5 17.5q0 21 -5.5 33.5t-25.5 13.5l-32 1l-4 3v16l3 4q74 8 124 28l7 -5q-2 -11 -2.5 -30.5t-1.5 -48.5l29 37q22 29 41 38t39 9q11 0 31 -6z" />
    <glyph glyph-name="s" unicode="s" horiz-adv-x="331" 
d="M306 115q0 -28 -12.5 -51.5t-33.5 -40.5t-49.5 -26.5t-59.5 -9.5q-59 0 -121 17l-2 5l4 25q2 9 2 27.5t1 46.5l3 4h17l3 -4q1 -18 2 -31t5 -23t13.5 -17t27.5 -14q14 -4 27 -7t27 -3q38 0 63.5 20.5t25.5 53.5q0 13 -5 22.5t-16 17.5t-30 14t-48 13q-24 5 -37.5 8
t-21.5 6.5t-13.5 7t-12.5 9.5q-30 25 -30 69q0 25 10.5 46t29.5 35.5t45.5 23t56.5 8.5q51 0 101 -21l4 -5q-2 -8 -3 -28t-1 -52l-3 -4h-15l-4 4q-2 23 -9.5 38.5t-20 24t-28 12t-34.5 3.5q-34 0 -54 -16t-20 -45q0 -23 12.5 -36t37.5 -19l41 -11q39 -9 63.5 -18t38 -20
t18.5 -25.5t5 -33.5z" />
    <glyph glyph-name="t" unicode="t" horiz-adv-x="254" 
d="M248 335l-7 -32l-3 -3h-98l-2 -156q0 -11 -0.5 -19.5t-0.5 -14.5q0 -41 11.5 -56t38.5 -15q25 0 48 13l9 -14q-2 -1 -9 -8.5t-18.5 -16t-26 -15.5t-30.5 -7q-86 0 -86 83q0 4 0.5 13.5t0.5 19.5t0.5 19t0.5 14v157h-16q-9 0 -18.5 -0.5t-20.5 -0.5l-4 3v10l3 4
q18 6 32.5 12t25.5 13q0 99 -2 115q19 7 35 14.5t29 15.5l9 -8q-2 -12 -3.5 -46.5t-5.5 -93.5h41q44 0 65 3z" />
    <glyph glyph-name="u" unicode="u" horiz-adv-x="470" 
d="M448 0l-3 -3q-27 1 -45 2t-26 1q-24 0 -54 -2l-3 2l3 66q-11 -8 -23 -21.5t-28 -26t-37.5 -21.5t-50.5 -9q-30 0 -51 7t-34 21t-19 38t-6 58v114q0 24 -1 42t-3 32q-1 10 -26 11l-32 1l-3 3v16l3 4q73 8 123 28l7 -5q-2 -25 -3 -56t-1 -71v-88q0 -35 4.5 -56t14 -32.5
t24 -15.5t33.5 -4q18 0 35 5.5t31 14.5t25 21.5t16 26.5q1 4 2 13.5t1 25.5l1 84q0 24 -1 42t-3 32q-1 10 -26 11l-31 1l-4 3v16l3 4q73 8 123 28l7 -5q-2 -25 -3 -56t-1 -71v-67q0 -4 1 -35t1 -85q2 -9 3.5 -13.5t6 -7.5t13 -3.5t23.5 -0.5h11l3 -3v-16z" />
    <glyph glyph-name="v" unicode="v" horiz-adv-x="441" 
d="M424 335l-3 -3q-21 -1 -29 -6t-15 -18q-9 -17 -19.5 -37.5t-21.5 -44.5l-36 -78q-4 -8 -20.5 -46t-45.5 -109h-40l-23 60l-106 247q-6 11 -10 17.5t-9 9.5t-12 3.5t-19 1.5l-3 3v17l3 3q52 -2 84 -2q45 0 89 2l3 -3v-17l-3 -3q-33 -1 -42.5 -4t-9.5 -13q0 -5 3 -17.5
t12 -31.5l83 -202l38 87l31 78q29 71 29 88q0 13 -50 15l-4 3v17l4 3q47 -2 71 -2q20 0 68 2l3 -3v-17z" />
    <glyph glyph-name="w" unicode="w" horiz-adv-x="651" 
d="M633 336l-3 -3q-14 -2 -21.5 -3t-14.5 -7.5t-15 -23.5l-22 -49l-55 -132l-27 -70q-6 -17 -10.5 -30.5t-7.5 -24.5h-36l-105 266l-79 -174l-37 -92h-37l-51 170q-7 24 -18.5 59.5t-27.5 82.5q-4 9 -6.5 13.5t-7.5 7t-13.5 4t-24.5 3.5l-3 3v16l4 3q26 -2 84 -2q62 0 94 2
l3 -3v-16l-3 -3q-18 -1 -29 -1.5t-17.5 -2t-8.5 -5t-2 -9.5q0 -4 2.5 -15.5t8.5 -31.5l36 -122l21 -66q4 10 11 26.5t18 39.5l56 125q11 25 20 47t17 42h19l34 -92l78 -194l29 75q26 69 38.5 109.5t12.5 53.5q0 5 -1.5 9t-7 6.5t-16 3.5t-28.5 2l-3 3v16l3 3q45 -2 74 -2
q38 0 72 2l3 -3v-16z" />
    <glyph glyph-name="x" unicode="x" horiz-adv-x="402" 
d="M382 0l-3 -2q-28 2 -43 2q-5 0 -49 -2q-13 17 -28.5 38.5t-33.5 48.5l-39 59q-20 -22 -46 -58.5t-60 -87.5q-25 2 -31 2q-7 0 -33 -2l-2 3v15l3 3q12 0 21 3.5t18.5 11.5t21 22.5t29.5 36.5l61 75l-32 49q-39 56 -64 84t-42 28q-8 0 -9 -1l-4 3l-2 15l2 4q20 3 41.5 6.5
t44.5 8.5q13 -12 33 -37t45 -65l28 -45l24 31q11 14 30.5 41t47.5 67q17 -2 29 -2q9 0 27 2l3 -2v-16l-3 -3q-10 -1 -18 -4.5t-16.5 -11t-20 -20t-26.5 -31.5l-59 -74l14 -22q17 -27 36 -54.5t36.5 -49.5t33 -36t27.5 -14h5l3 -3v-16z" />
    <glyph glyph-name="y" unicode="y" horiz-adv-x="434" 
d="M418 335l-3 -3q-24 -1 -38 -16q-8 -9 -24 -41.5t-43 -91.5l-38 -82l-88 -206q-16 -36 -30 -58.5t-29 -35t-30 -16.5t-33 -4q-25 0 -45 12q6 16 11.5 31t8.5 28h9q19 -20 40 -20q33 0 67 58q7 13 37 87q-7 18 -14 37.5t-15 39.5l-61 150q-21 52 -33.5 80.5t-18.5 33.5
q-8 11 -39 16l-3 3v15l3 3q43 -2 90 -2q54 0 84 2l3 -3v-15l-3 -3l-25 -3q-18 -1 -22.5 -5.5t-4.5 -10.5q0 -22 34 -105l25 -59q12 -30 21 -52t15 -35l20 44l63 155q8 20 11.5 32.5t3.5 17.5q0 11 -11.5 13t-21.5 4l-16 2l-3 3v17l3 3q32 -2 76 -2q39 0 64 2l3 -3v-17z" />
    <glyph glyph-name="z" unicode="z" horiz-adv-x="390" 
d="M363 105q-5 -36 -7.5 -61.5t-2.5 -43.5l-4 -3q-58 1 -100.5 2t-72.5 1q-26 0 -64.5 -1t-91.5 -2l-3 3l-3 15q23 24 46 50.5t48 57.5l84 105q22 27 40.5 50.5t33.5 47.5h-90q-85 0 -92 -8q-2 -2 -11 -49l-3 -12l-3 -4h-15l-3 4q2 30 2.5 47.5t0.5 22.5v18q0 5 -1 8l4 3
q71 -2 127.5 -2.5t98.5 -0.5q22 0 40 0.5t31 2.5l3 -3v-19q-13 -14 -33.5 -39t-48.5 -61l-100 -126q-24 -30 -39 -50.5t-23 -30.5h103q44 0 67 1t33.5 8t13.5 22l11 47l3 3h17z" />
    <glyph glyph-name="braceleft" unicode="{" horiz-adv-x="253" 
d="M221 -118q-35 0 -57.5 5t-35 18.5t-17 35.5t-4.5 57v125q0 47 -16 67t-41 20v9q57 0 57 84v136q0 32 6 53t20 34t35.5 18t52.5 5v-9q-60 0 -60 -88v-138q0 -46 -14 -68t-48 -32q17 -5 29 -12.5t19 -19t10.5 -29t3.5 -41.5v-134q0 -49 13.5 -68t46.5 -19v-9z" />
    <glyph glyph-name="bar" unicode="|" horiz-adv-x="380" 
d="M215 14h-41v542h41v-542z" />
    <glyph glyph-name="braceright" unicode="}" horiz-adv-x="253" 
d="M211 210q-31 0 -44.5 -20t-13.5 -67v-125q0 -35 -4.5 -57t-17.5 -35.5t-35 -18.5t-57 -5v9q60 0 60 87v134q0 24 3 41.5t10.5 29t19.5 19t29 12.5q-33 10 -47.5 31t-14.5 69v138q0 88 -60 88v9q33 0 55 -5.5t35 -18.5t18.5 -34t5.5 -52v-136q0 -84 58 -84v-9z" />
    <glyph glyph-name="asciitilde" unicode="~" horiz-adv-x="380" 
d="M360 269q-37 -72 -90 -72q-9 0 -34 7.5t-65 24.5q-35 14 -47 14q-10 0 -18 -3t-15.5 -9.5t-16.5 -18.5t-21 -29l-23 26q27 43 47 59.5t45 16.5q10 0 31.5 -7t44.5 -16t43 -16t27 -7q39 0 69 55z" />
    <glyph glyph-name="multiply" unicode="&#xd7;" horiz-adv-x="480" 
d="M413 409l-142 -142l142 -142l-32 -32l-141 142l-142 -142l-32 32l142 142l-142 142l32 31l142 -141l141 141z" />
    <glyph glyph-name="divide" unicode="&#xf7;" horiz-adv-x="481" 
d="M303 386l-64 -64l-65 65l64 64zM462 244h-445v45h445v-45zM303 122l-64 -64l-65 65l64 64z" />
    <glyph glyph-name="HIN_CHANDRABINDU" unicode="&#x901;" 
d="M-39 745l-63 -64l-63 64l63 64zM73 686q-57 -103 -151 -103q-26 0 -52.5 9.5t-51 27t-46 41.5t-36.5 53l31 24q55 -91 133 -91q30 0 63 24t51 61z" />
    <glyph glyph-name="HIN_ANUSVAR" unicode="&#x902;" 
d="M-8 660l-64 -64l-65 65l64 64z" />
    <glyph glyph-name="HIN_VISARGA" unicode="&#x903;" horiz-adv-x="278" 
d="M209 326l-64 -64l-65 65l64 64zM209 62l-65 -64l-64 65l64 64z" />
    <glyph glyph-name="HIN_SHORT_A" unicode="&#x904;" horiz-adv-x="610" 
d="M640 466h-76v-466l-62 35l4 196q-33 -11 -65 -11q-39 0 -80 29l-2 -2q15 -23 15 -51q0 -55 -37.5 -87.5t-97.5 -32.5q-120 0 -208 192l27 16q68 -152 165 -152q21 0 39 8t31 21.5t20 31t7 37.5q0 56 -53 73q-77 -30 -86 -30q-4 0 -11.5 7t-15 15.5t-13 16.5t-5.5 10
q0 8 2 11t8 4.5t17 2t30 3.5t29 4t16.5 2.5t11.5 5.5t14 13q23 25 23 56q0 62 -60 62q-12 0 -31 -6.5t-37 -15t-31.5 -15.5t-13.5 -8q-5 0 -9.5 5.5t-9 14t-8.5 17.5t-7 17q68 35 111 35q22 0 48.5 -12t49 -31.5t37.5 -44t15 -48.5q0 -21 -13.5 -42t-33.5 -30
q67 -52 126 -52q8 0 21 3.5t26 8.5t23.5 11.5t13.5 11.5v161h-121l-30 56h164q-4 11 -11 28t-17 40q-17 26 -87 26h-43q-35 0 -59.5 5.5t-42 20t-30 39t-23.5 62.5l25 15q7 -32 27 -50t57 -18h28q8 0 14.5 0.5t12.5 0.5q48 0 76.5 -12t46 -34t28.5 -53t23 -70h68z" />
    <glyph glyph-name="HIN_A" unicode="&#x905;" horiz-adv-x="610" 
d="M640 466h-76v-466l-62 35l4 196q-33 -11 -65 -11q-39 0 -80 29l-2 -2q15 -23 15 -51q0 -55 -37.5 -87.5t-97.5 -32.5q-120 0 -208 192l27 16q68 -152 165 -152q21 0 39 8t31 21.5t20 31t7 37.5q0 56 -53 73q-77 -30 -86 -30q-4 0 -11.5 7t-15 15.5t-13 16.5t-5.5 10
q0 8 2 11t8 4.5t17 2t30 3.5t29 4t16.5 2.5t11.5 5.5t14 13q23 25 23 56q0 62 -60 62q-12 0 -31 -6.5t-37 -15t-31.5 -15.5t-13.5 -8q-5 0 -9.5 5.5t-9 14t-8.5 17.5t-7 17q68 35 111 35q22 0 48.5 -12t49 -31.5t37.5 -44t15 -48.5q0 -21 -13.5 -42t-33.5 -30
q67 -52 126 -52q8 0 21 3.5t26 8.5t23.5 11.5t13.5 11.5v161h-121l-30 56h257z" />
    <glyph glyph-name="HIN_AA" unicode="&#x906;" horiz-adv-x="795" 
d="M828 466h-76v-466l-61 35v431h-127v-466l-62 35l4 196q-33 -11 -65 -11q-39 0 -80 29l-2 -2q15 -23 15 -51q0 -55 -37.5 -87.5t-97.5 -32.5q-120 0 -208 192l27 16q68 -152 165 -152q21 0 39 8t31 21.5t20 31t7 37.5q0 56 -53 73q-77 -30 -86 -30q-4 0 -11.5 7t-15 15.5
t-13 16.5t-5.5 10q0 8 2 11t8 4.5t17 2t30 3.5t29 4t16.5 2.5t11.5 5.5t14 13q23 25 23 56q0 62 -60 62q-12 0 -31 -6.5t-37 -15t-31.5 -15.5t-13.5 -8q-5 0 -9.5 5.5t-9 14t-8.5 17.5t-7 17q68 35 111 35q22 0 48.5 -12t49 -31.5t37.5 -44t15 -48.5q0 -21 -13.5 -42
t-33.5 -30q67 -52 126 -52q8 0 21 3.5t26 8.5t23.5 11.5t13.5 11.5v161h-121l-30 56h445z" />
    <glyph glyph-name="HIN_I" unicode="&#x907;" horiz-adv-x="348" 
d="M377 466h-82v-103q0 -13 -19 -13h-128q-43 0 -43 -29q0 -26 15 -48t36 -22q5 0 17.5 3t26 7t26 7t17.5 3q13 0 28 -11.5t28 -28t21 -35t8 -31.5q0 -92 -130 -120l117 -122l-29 -26q-97 127 -125 138q-23 4 -38.5 7t-22.5 7q-14 8 -24 29.5t-10 42.5q0 8 10.5 18.5
t27.5 10.5q7 0 17 -8.5t20 -19t18.5 -19t11.5 -8.5q19 0 39 6.5t36.5 18.5t26.5 28t10 35q0 38 -28 38q-3 0 -15 -3t-25.5 -7t-26.5 -7t-19 -3q-19 0 -38.5 15t-35 37.5t-25.5 48.5t-10 49q0 49 57 49h124v66h-243l-30 56h379z" />
    <glyph glyph-name="HIN_II" unicode="&#x908;" horiz-adv-x="343" 
d="M377 466h-82v-103q0 -13 -19 -13h-128q-43 0 -43 -29q0 -26 15 -48t36 -22q5 0 17.5 3t26 7t26 7t17.5 3q13 0 28 -11.5t28 -28t21 -35t8 -31.5q0 -92 -130 -120l117 -122l-29 -26q-97 127 -125 138q-23 4 -38.5 7t-22.5 7q-14 8 -24 29.5t-10 42.5q0 8 10.5 18.5
t27.5 10.5q7 0 17 -8.5t20 -19t18.5 -19t11.5 -8.5q19 0 39 6.5t36.5 18.5t26.5 28t10 35q0 38 -28 38q-3 0 -15 -3t-25.5 -7t-26.5 -7t-19 -3q-19 0 -38.5 15t-35 37.5t-25.5 48.5t-10 49q0 49 57 49h124v66h-243l-30 56h269q-53 95 -53 145q0 17 7 32.5t18 27t26 18.5
t31 7q61 0 86 -94l-19 -6q-24 50 -54 50q-21 0 -35.5 -19.5t-14.5 -45.5q0 -46 34 -115h84z" />
    <glyph glyph-name="HIN_U" unicode="&#x909;" horiz-adv-x="450" 
d="M480 466h-160q51 -77 51 -117q0 -17 -22.5 -34.5t-52.5 -24.5v-2q116 -50 116 -133q0 -26 -10 -47.5t-27.5 -37.5t-40.5 -25t-49 -9q-33 0 -65 14.5t-61.5 40.5t-54.5 63t-44 81l34 16q24 -47 44 -79t39.5 -51t40.5 -27t47 -8q18 0 34 7.5t28 19.5t18.5 28t6.5 33
q0 68 -108 95q-24 -10 -60 -10q-13 0 -22 9.5t-15 20.5t-9 20t-3 8q0 16 21 16q47 0 76 -10q85 10 85 61q0 43 -50 82h-276l-30 56h489z" />
    <glyph glyph-name="HIN_UU" unicode="&#x90a;" horiz-adv-x="603" 
d="M633 466h-313q51 -77 51 -118q0 -17 -22.5 -34.5t-52.5 -24.5v-2q28 -7 61 -33q24 20 42 33t33 21t28.5 11t28.5 3q16 0 33 -11t30.5 -30t22.5 -44t9 -53q0 -72 -51 -138l-56 25q12 17 24 39t21.5 44t15.5 40.5t6 27.5q0 23 -14.5 36.5t-33.5 13.5q-8 0 -21.5 -5.5
t-28.5 -13.5t-29 -17.5t-23 -18.5q18 -20 18 -62q0 -26 -10 -47.5t-27.5 -37.5t-40.5 -25t-49 -9q-33 0 -65 14.5t-61.5 40.5t-54.5 63t-44 81l34 16q24 -47 44 -79t39.5 -51t40.5 -27t47 -8q18 0 34 7.5t28 19.5t18.5 28t6.5 33q0 68 -108 95q-24 -10 -60 -10
q-13 0 -22 9.5t-15 20.5t-9 20t-3 8q0 16 21 16q47 0 76 -10q85 10 85 61q0 43 -50 82h-267l-30 56h633z" />
    <glyph glyph-name="HIN_R" unicode="&#x90b;" horiz-adv-x="673" 
d="M708 4q-53 -36 -102 -36q-27 0 -54.5 11t-50 28.5t-36.5 40t-14 45.5q0 45 98 89q23 11 23 18q0 14 -26 64q-6 -5 -17.5 -10.5t-24 -10.5t-24 -8.5t-17.5 -3.5q-31 0 -72 19v-250l-62 35v174l-186 -133l-47 41l226 151q-82 58 -120 58q-15 0 -40 -4.5t-60 -12.5l-42 55
q97 18 123 18q43 0 74 -25l74 -59v168h-331l-30 56h708l30 -56h-317v-184q13 -7 41 -7q37 0 92 46q-17 46 -17 50q0 8 7.5 14.5t15.5 6.5q1 0 18 -4.5t37 -13t37 -20t17 -25.5q0 -12 -51 -43q50 -95 50 -109q0 -20 -73 -51q-18 -8 -30 -14.5t-18.5 -13t-9 -15t-2.5 -20.5
q0 -21 18 -36t47 -15q53 0 90 37z" />
    <glyph glyph-name="HIN_L" unicode="&#x90c;" horiz-adv-x="589" 
d="M624 466h-189v-93q23 -5 44 -17t37.5 -28.5t26 -35.5t9.5 -38q0 -53 -46 -92q-98 -84 -98 -122q0 -42 42 -42q55 0 105 71l45 -40q-48 -61 -117 -61q-26 0 -50 8t-43 20.5t-30.5 28.5t-11.5 31q0 11 2.5 19.5t11.5 20t25 27.5t43 42q19 18 31 31.5t19 26t9.5 25.5t2.5 30
q0 60 -57 60q-16 0 -30.5 -8t-30.5 -26t-34.5 -47t-41.5 -71l-51 28q5 14 13 28.5t18 29.5q-13 23 -36 41t-41 18q-35 0 -58 -26t-23 -64q0 -84 108 -187l-33 -28q-26 28 -50.5 62t-43.5 67.5t-30 63t-11 48.5q0 23 8.5 45t23.5 38.5t35 26.5t43 10q22 0 40 -7.5t32.5 -20
t27.5 -28t26 -31.5q36 56 79 69v97h-376l-30 56h625z" />
    <glyph glyph-name="HIN_CHANDRA_E" unicode="&#x90d;" horiz-adv-x="432" 
d="M481 -55q0 -18 -33 -64l-51 45q18 22 18 33q0 12 -26 29l-266 163q-31 19 -31 66v249h-93l-30 56h464l30 -56h-91v-257q0 -41 -36 -41q-41 0 -74 9l-34 50l34 -3h22q28 0 28 19v223h-160v-256q0 -31 13 -38l263 -166q53 -33 53 -61zM389 671q-8 -20 -22.5 -37.5t-33 -31
t-39 -21t-40.5 -7.5q-46 0 -90 32t-69 86l24 12q53 -80 113 -80q32 0 60 24.5t45 64.5z" />
    <glyph glyph-name="HIN_SHORT_E" unicode="&#x90e;" horiz-adv-x="432" 
d="M481 -55q0 -18 -33 -64l-51 45q18 22 18 33q0 12 -26 29l-266 163q-31 19 -31 66v249h-93l-30 56h378q-4 11 -11 28t-17 40q-17 26 -87 26h-43q-35 0 -59.5 5.5t-42 20t-30 39t-23.5 62.5l25 15q7 -32 27 -50t57 -18h28q8 0 14.5 0.5t12.5 0.5q48 0 76.5 -12t46 -34
t28.5 -53t23 -70h61l30 -56h-91v-257q0 -41 -36 -41q-41 0 -74 9l-34 50q21 -2 34.5 -2.5t22.5 -0.5q27 0 27 19v223h-160v-256q0 -31 13 -38l263 -166q53 -33 53 -61z" />
    <glyph glyph-name="HIN_E" unicode="&#x90f;" horiz-adv-x="432" 
d="M481 -55q0 -18 -33 -64l-51 45q18 22 18 33q0 12 -26 29l-266 163q-31 19 -31 66v249h-93l-30 56h464l30 -56h-91v-257q0 -41 -36 -41q-41 0 -74 9l-34 50q21 -2 34.5 -2.5t22.5 -0.5q27 0 27 19v223h-160v-256q0 -31 13 -38l263 -166q53 -33 53 -61z" />
    <glyph glyph-name="HIN_AI" unicode="&#x910;" horiz-adv-x="432" 
d="M481 -55q0 -18 -33 -64l-51 45q18 22 18 33q0 12 -26 29l-266 163q-31 19 -31 66v249h-93l-30 56h333q-29 45 -49 73t-35.5 44t-28 22t-25.5 6q-8 -2 -19 -5.5t-31 -8.5q-2 2 -9 14t-14.5 26t-13.5 26.5t-6 15.5q0 14 49 14q23 0 46 -13t48.5 -40.5t54 -70.5t62.5 -103
h102l30 -56h-91v-257q0 -41 -36 -41q-41 0 -74 9l-34 50l34 -3h22q28 0 28 19v223h-160v-256q0 -31 13 -38l263 -166q53 -33 53 -61z" />
    <glyph glyph-name="HIN_CHANDRA_O" unicode="&#x911;" horiz-adv-x="794" 
d="M828 466h-76v-466l-61 35v431h-127v-466l-62 35l4 196q-33 -11 -65 -11q-39 0 -80 29l-2 -2q15 -23 15 -51q0 -55 -37.5 -87.5t-97.5 -32.5q-120 0 -208 192l27 16q68 -152 165 -152q21 0 39 8t31 21.5t20 31t7 37.5q0 56 -53 73q-77 -30 -86 -30q-4 0 -11.5 7t-15 15.5
t-13 16.5t-5.5 10q0 8 2 11t8 4.5t17 2t30 3.5t29 4t16.5 2.5t11.5 5.5t14 13q23 25 23 56q0 62 -60 62q-12 0 -31 -6.5t-37 -15t-31.5 -15.5t-13.5 -8q-5 0 -9.5 5.5t-9 14t-8.5 17.5t-7 17q68 35 111 35q22 0 48.5 -12t49 -31.5t37.5 -44t15 -48.5q0 -21 -13.5 -42
t-33.5 -30q67 -52 126 -52q8 0 21 3.5t26 8.5t23.5 11.5t13.5 11.5v161h-121l-30 56h445zM769 671q-8 -20 -22.5 -37.5t-33 -31t-39 -21t-40.5 -7.5q-46 0 -90 32t-69 86l24 12q53 -80 113 -80q32 0 60 24.5t45 64.5z" />
    <glyph glyph-name="HIN_SHORT_O" unicode="&#x912;" horiz-adv-x="793" 
d="M828 466h-76v-466l-61 35v431h-127v-466l-62 35l4 196q-33 -11 -65 -11q-39 0 -80 29l-2 -2q15 -23 15 -51q0 -55 -37.5 -87.5t-97.5 -32.5q-120 0 -208 192l27 16q68 -152 165 -152q21 0 39 8t31 21.5t20 31t7 37.5q0 56 -53 73q-77 -30 -86 -30q-4 0 -11.5 7t-15 15.5
t-13 16.5t-5.5 10q0 8 2 11t8 4.5t17 2t30 3.5t29 4t16.5 2.5t11.5 5.5t14 13q23 25 23 56q0 62 -60 62q-12 0 -31 -6.5t-37 -15t-31.5 -15.5t-13.5 -8q-5 0 -9.5 5.5t-9 14t-8.5 17.5t-7 17q68 35 111 35q22 0 48.5 -12t49 -31.5t37.5 -44t15 -48.5q0 -21 -13.5 -42
t-33.5 -30q67 -52 126 -52q8 0 21 3.5t26 8.5t23.5 11.5t13.5 11.5v161h-121l-30 56h364q-4 11 -11 28t-17 40q-17 26 -87 26h-43q-35 0 -59.5 5.5t-42 20t-30 39t-23.5 62.5l25 15q7 -32 27 -50t57 -18h28q8 0 14.5 0.5t12.5 0.5q48 0 76.5 -12t46 -34t28.5 -53t23 -70h56z
" />
    <glyph glyph-name="HIN_O" unicode="&#x913;" horiz-adv-x="821" 
d="M856 466h-93v-466l-61 35v431h-138v-466l-62 35l4 196q-33 -11 -65 -11q-39 0 -80 29l-2 -2q15 -23 15 -51q0 -55 -37.5 -87.5t-97.5 -32.5q-120 0 -208 192l27 16q68 -152 165 -152q21 0 39 8t31 21.5t20 31t7 37.5q0 56 -53 73q-77 -30 -86 -30q-4 0 -11.5 7t-15 15.5
t-13 16.5t-5.5 10q0 8 2 11t8 4.5t17 2t30 3.5t29 4t16.5 2.5t11.5 5.5t14 13q23 25 23 56q0 62 -60 62q-12 0 -31 -6.5t-37 -15t-31.5 -15.5t-13.5 -8q-5 0 -9.5 5.5t-9 14t-8.5 17.5t-7 17q68 35 111 35q22 0 48.5 -12t49 -31.5t37.5 -44t15 -48.5q0 -21 -13.5 -42
t-33.5 -30q67 -52 126 -52q8 0 21 3.5t26 8.5t23.5 11.5t13.5 11.5v161h-121l-30 56h358q-17 23 -37 48.5t-40.5 46.5t-40.5 35t-37 14q-8 -2 -19 -5.5t-31 -8.5q-2 2 -9 14t-14.5 26t-13.5 26.5t-6 15.5q0 14 49 14q27 0 53.5 -19t54.5 -50.5t58.5 -72.5t63.5 -84h84z" />
    <glyph glyph-name="HIN_AU" unicode="&#x914;" horiz-adv-x="821" 
d="M856 466h-93v-466l-61 35v431h-138v-466l-62 35l4 196q-33 -11 -65 -11q-39 0 -80 29l-2 -2q15 -23 15 -51q0 -55 -37.5 -87.5t-97.5 -32.5q-120 0 -208 192l27 16q68 -152 165 -152q21 0 39 8t31 21.5t20 31t7 37.5q0 56 -53 73q-77 -30 -86 -30q-4 0 -11.5 7t-15 15.5
t-13 16.5t-5.5 10q0 8 2 11t8 4.5t17 2t30 3.5t29 4t16.5 2.5t11.5 5.5t14 13q23 25 23 56q0 62 -60 62q-12 0 -31 -6.5t-37 -15t-31.5 -15.5t-13.5 -8q-5 0 -9.5 5.5t-9 14t-8.5 17.5t-7 17q68 35 111 35q22 0 48.5 -12t49 -31.5t37.5 -44t15 -48.5q0 -21 -13.5 -42
t-33.5 -30q67 -52 126 -52q8 0 21 3.5t26 8.5t23.5 11.5t13.5 11.5v161h-121l-30 56h306q-10 5 -28.5 18.5t-38 28t-37.5 25.5t-28 11q-17 0 -44 -15q-4 7 -10.5 21.5t-12.5 29.5t-10.5 27t-4.5 14q0 11 16 11q34 0 81 -38l67 -54q24 -20 42 -41t40 -38h44q-18 52 -31.5 83
t-27 48t-30 22.5t-40.5 5.5q-5 27 -8 48t-3 34q0 12 12 12q36 0 74 -54q14 -20 33 -70t44 -129h68z" />
    <glyph glyph-name="HIN_KA" unicode="&#x915;" horiz-adv-x="619" 
d="M654 466h-285v-172q55 45 94 45q21 0 41 -12t35.5 -33t24.5 -49t9 -61q0 -52 -53 -135l-51 46q59 80 59 139q0 22 -14.5 35.5t-35.5 13.5q-39 0 -109 -60v-223l-62 35l4 148q-71 -44 -110 -44q-29 0 -55 11.5t-45.5 31t-31 45.5t-11.5 55q0 42 31 71.5t85 29.5
q28 0 46.5 -5.5t32.5 -16t26.5 -26t27.5 -34.5h2v165h-310l-30 56h655zM310 256q-29 39 -55.5 55t-68.5 16q-35 0 -59 -22t-24 -56q0 -27 18.5 -43.5t46.5 -16.5q54 0 142 67z" />
    <glyph glyph-name="HIN_KHA" unicode="&#x916;" horiz-adv-x="630" 
d="M665 466h-76v-466l-60 35l2 55q-101 -74 -186 -74q-31 0 -67.5 14t-73 42.5t-70.5 70.5t-59 98q-15 31 -15 40q0 7 8 16.5t13 9.5q2 0 59 -20q15 22 15 85q0 25 -1 48.5t-3 45.5h-153l-30 56h667zM530 274q-29 40 -55.5 56t-68.5 16q-35 0 -59 -22t-24 -56
q0 -27 18.5 -43.5t46.5 -16.5q53 0 142 66zM529 202q-68 -44 -108 -44q-29 0 -55 11.5t-45.5 31t-31 45.5t-11.5 55q0 42 31 71.5t85 29.5q24 0 40.5 -3.5t31 -12.5t28.5 -25t33 -41h2v146h-319q1 -66 3 -101t2 -59q0 -67 -70 -118q36 -55 86 -88.5t99 -33.5q22 0 41.5 3.5
t42 13t50 27t65.5 45.5v47z" />
    <glyph glyph-name="HIN_GA" unicode="&#x917;" horiz-adv-x="438" 
d="M473 466h-76v-466l-61 35v431h-146v-253q0 -16 -10 -27t-24 -11q-2 0 -17 11.5t-32.5 28.5t-31.5 35t-14 32q0 8 6 15t11 7h46q6 0 6 10v152h-130l-30 56h473z" />
    <glyph glyph-name="HIN_GHA" unicode="&#x918;" horiz-adv-x="483" 
d="M518 466h-76v-466l-61 35l1 173q-68 -68 -150 -68q-24 0 -49.5 10t-47 27t-35 39.5t-13.5 46.5q0 48 59 81q-86 53 -86 100v22h-61l-30 56h519zM383 466h-239q-18 -17 -18 -47q0 -34 51 -65h15q57 0 86 -20q18 -47 18 -48q0 -8 -11 -8q-1 0 -12.5 2.5t-25 5.5t-25 5.5
t-12.5 2.5q-69 0 -69 -55q0 -26 16 -44.5t41 -18.5q73 0 185 103v187z" />
    <glyph glyph-name="HIN_NGA" unicode="&#x919;" horiz-adv-x="620" 
d="M655 466h-252v-106q0 -21 -20 -21h-134q-49 0 -49 -44q0 -31 9 -44t35 -13q1 0 5.5 0.5t12.5 1.5l39 6q21 3 39.5 6t20.5 3q24 0 44 -14.5t34.5 -34.5t22 -40t7.5 -30q0 -26 -10.5 -47t-28.5 -36.5t-42.5 -24t-52.5 -8.5q-69 0 -140.5 50.5t-134.5 138.5l28 21
q29 -42 55.5 -71.5t53 -48t55.5 -26.5t64 -8q22 0 41.5 6.5t34.5 18t23.5 26.5t8.5 32q0 40 -28 40q-3 0 -23 -2.5t-43 -6t-41.5 -6t-19.5 -2.5q-29 0 -48 12.5t-45 48.5q-30 42 -30 77q0 29 21 52t54 23h122v71h-343l-30 56h655zM562 296l-59 -58l-59 58l59 58z" />
    <glyph glyph-name="HIN_CHA" unicode="&#x91a;" horiz-adv-x="534" 
d="M569 466h-76v-466l-62 35l4 142q-53 -51 -117 -51q-33 0 -61 9.5t-49 26t-32.5 38.5t-11.5 48q0 32 23 61h-97l-30 56h324l30 -53h-3q-4 0 -9 0.5t-13 0.5h-31q-80 0 -100 -11q-16 -9 -28 -31t-12 -46q0 -63 62 -63q50 0 153 91v213h-433l-30 56h569z" />
    <glyph glyph-name="HIN_CHHA" unicode="&#x91b;" horiz-adv-x="538" 
d="M573 466h-116v-77q67 -46 67 -134q0 -50 -23 -94t-59 -76t-79.5 -50.5t-84.5 -18.5q-29 0 -58.5 10t-53.5 27.5t-39.5 40t-15.5 47.5q0 31 35 61q-86 56 -86 98t30 66t78 24q28 0 43 -4t24 -12t13.5 -20.5t11.5 -30.5q-39 11 -63 11q-83 0 -83 -54q0 -11 6 -20t15 -15.5
t20.5 -10.5t22.5 -4q2 0 19 4.5t34 4.5q31 0 44 -7q25 -43 25 -50q0 -6 -5 -6l-5 1q-6 2 -19 4t-25 2q-15 0 -29.5 -6t-26 -16.5t-18.5 -24t-7 -28.5q0 -23 22 -35.5t52 -12.5q25 0 54.5 8.5t57 22t50.5 31.5t34 37l-72 52q-57 46 -57 100q0 38 24.5 65t66.5 33v57h-397
l-30 56h573zM479 282q0 35 -17.5 60.5t-42.5 25.5q-23 0 -38 -21.5t-15 -50.5q0 -73 85 -110q28 43 28 96z" />
    <glyph glyph-name="HIN_JA" unicode="&#x91c;" horiz-adv-x="534" 
d="M569 466h-76v-466l-62 35v281h-140q22 -23 36 -40t22.5 -31t11.5 -27t3 -28q0 -18 -8 -33t-20.5 -26t-29 -17.5t-33.5 -6.5q-30 0 -56 11t-51 37t-50.5 69t-55.5 106l33 14q13 -31 30.5 -62.5t37.5 -57t43.5 -41.5t48.5 -16q53 0 53 56q0 62 -114 128l8 21h233v94h-432
l-30 56h568z" />
    <glyph glyph-name="HIN_JHA" unicode="&#x91d;" horiz-adv-x="513" 
d="M548 466h-76v-466l-61 35l1 211q-35 -24 -76 -24q-14 0 -32 5l-2 -1q26 -38 26 -61q0 -92 -130 -120l117 -122l-29 -26q-97 127 -125 138q-23 4 -38.5 7t-22.5 7q-14 8 -24 29.5t-10 42.5q0 8 10.5 18.5t27.5 10.5q7 0 17 -8.5t20 -19t18.5 -19t11.5 -8.5q19 0 39 6.5
t36.5 18.5t26.5 28t10 35q0 38 -28 38q-3 0 -15 -3t-25.5 -7t-26.5 -7t-19 -3q-19 0 -38.5 15t-35 37.5t-25.5 48.5t-10 49q0 49 57 49h124v66h-242l-30 56h549zM413 466h-118v-103q0 -13 -19 -13h-128q-43 0 -43 -29q0 -26 15 -48t36 -22q5 0 17.5 3t26 7t26 7t17.5 3
q16 0 25 -6.5t16 -6.5q53 0 129 55v153z" />
    <glyph glyph-name="HIN_NYA" unicode="&#x91e;" horiz-adv-x="553" 
d="M588 466h-76v-466l-61 35l1 193q-20 -3 -36.5 -5t-29.5 -2h-7q-23 -90 -117 -90q-104 0 -202 137l25 22q12 -21 29.5 -39.5t37 -32.5t40.5 -22.5t39 -8.5q43 0 72.5 27t29.5 70q0 20 -11 37.5t-27 17.5q-6 0 -17 -5.5t-23 -13.5t-23 -17.5t-17 -18.5l-50 51q40 40 95 40
q48 0 82 -26.5t45 -71.5q46 5 65 12v177h-453l-30 56h589z" />
    <glyph glyph-name="HIN_TTA" unicode="&#x91f;" horiz-adv-x="399" 
d="M434 466h-106q3 -84 3 -116q0 -35 -7 -47.5t-26 -18.5q-18 -5 -49.5 -12.5t-76.5 -15.5q-58 -10 -58 -70q0 -18 8 -35t21 -30t30.5 -20.5t35.5 -7.5q74 0 178 52l26 -54q-83 -48 -165 -48q-36 0 -70 15t-60.5 40t-42 57t-15.5 66q0 30 14 48.5t39.5 30t59.5 19t75 15.5
q13 2 18 14.5t5 52.5q0 41 -3 65h-269l-30 56h435z" />
    <glyph glyph-name="HIN_TTHA" unicode="&#x920;" horiz-adv-x="453" 
d="M488 466h-121q23 -32 23 -78q0 -42 -49 -84q98 -59 98 -130q0 -30 -14.5 -57t-37.5 -47.5t-53 -32t-61 -11.5q-39 0 -77 16t-68.5 43.5t-49 63t-18.5 74.5q0 110 202 110q29 0 48.5 19t19.5 51q0 27 -14 63h-316l-30 56h488zM385 193q0 36 -22.5 63t-58.5 27
q-40 0 -74.5 -6t-60 -17t-40.5 -27t-15 -36q0 -55 36.5 -88t97.5 -33q24 0 48.5 9t44 24.5t32 37t12.5 46.5z" />
    <glyph glyph-name="HIN_DDA" unicode="&#x921;" horiz-adv-x="512" 
d="M543 466h-122v-106q0 -21 -20 -21h-152q-49 0 -49 -44q0 -31 9 -44t35 -13q2 0 20.5 2.5t41 6t42.5 6t25 2.5q24 0 44 -14.5t34.5 -34.5t22 -40t7.5 -30q0 -26 -10.5 -47t-28.5 -36.5t-42.5 -24t-52.5 -8.5q-155 0 -287 189l28 21q30 -43 56.5 -72.5t54 -47.5t59 -26
t70.5 -8q22 0 41.5 6.5t34.5 18t23.5 26.5t8.5 32q0 40 -28 40q-11 0 -36.5 -3t-58.5 -8l-44 -6q-29 0 -48 12.5t-45 48.5q-30 42 -30 77q0 29 21 52t54 23h140v71h-360l-30 56h542z" />
    <glyph glyph-name="HIN_DDHA" unicode="&#x922;" horiz-adv-x="456" 
d="M491 466h-113v-115q0 -20 -20 -20q-51 0 -153 -3q-91 -3 -91 -111q0 -26 9 -49t25 -41t37.5 -29.5t46.5 -14.5q-20 35 -20 80q0 104 103 104q23 0 43 -10.5t35 -29t23.5 -43.5t8.5 -54q0 -24 -10.5 -44t-28.5 -34.5t-43 -23t-53 -8.5q-60 0 -129 54q-101 78 -101 195
q0 38 14 61t41.5 36t68 17t93.5 4h41v79h-320l-30 56h493zM390 158q0 22 -18 37.5t-44 15.5q-35 0 -53.5 -28.5t-18.5 -80.5q0 -9 3.5 -17.5t16.5 -8.5q22 0 42.5 6.5t36.5 18t25.5 26t9.5 31.5z" />
    <glyph glyph-name="HIN_NNA" unicode="&#x923;" horiz-adv-x="533" 
d="M568 466h-76v-466l-61 35v431h-99v-224q0 -36 -29.5 -59t-68.5 -23q-19 0 -43.5 12.5t-46.5 31t-37 41t-15 43.5v178h-93l-30 56h569zM272 466h-120v-209q0 -11 5 -21t12.5 -17t16.5 -11t18 -4q68 0 68 74v188z" />
    <glyph glyph-name="HIN_TA" unicode="&#x924;" horiz-adv-x="410" 
d="M445 466h-76v-466l-62 35v282h-103q-90 0 -90 -81q0 -67 108 -196l-32 -26q-130 160 -130 256q0 48 29 75.5t77 27.5h143v93h-309l-30 56h445z" />
    <glyph glyph-name="HIN_THA" unicode="&#x925;" horiz-adv-x="492" 
d="M527 466h-76v-466l-61 35l3 155q-11 -11 -26 -21t-32 -18t-34 -12.5t-32 -4.5q-87 0 -154 64q-49 46 -49 56q0 2 15 9t34.5 16.5t39 19.5t29.5 18q-124 37 -124 110q0 19 7.5 37.5t20 33t30 23.5t37.5 9q24 0 49.5 -10.5t46 -28t34 -41t13.5 -48.5q0 -94 -141 -164
q7 -60 74 -60q18 0 40 7.5t43.5 20t41.5 29.5t35 36v195h-59l-30 56h195zM238 416q0 33 -14.5 51.5t-35.5 18.5q-24 0 -43 -18.5t-19 -42.5q0 -30 24.5 -52.5t59.5 -31.5q28 24 28 75z" />
    <glyph glyph-name="HIN_DA" unicode="&#x926;" horiz-adv-x="410" 
d="M445 466h-83v-115q0 -17 -20 -17q-170 0 -196 -20q-32 -26 -32 -72q0 -23 10 -43.5t28 -37t42 -26t52 -9.5q15 0 35 5q-23 32 -23 54q0 28 28 28q9 0 24.5 -6t29.5 -16t24.5 -21.5t10.5 -21.5q0 -40 -31 -55q11 -23 28.5 -55.5t42.5 -74.5l-34 -19q-22 42 -38.5 74.5
t-29.5 58.5q-13 -7 -50 -7q-34 0 -70 18.5t-65.5 48.5t-48.5 68t-19 77q0 57 40.5 82.5t131.5 25.5h70v76h-303l-30 56h446z" />
    <glyph glyph-name="HIN_DHA" unicode="&#x927;" horiz-adv-x="456" 
d="M491 466h-76v-466l-62 35l4 154q-68 -62 -131 -62q-29 0 -57.5 11t-51.5 29t-37.5 41t-14.5 47q0 50 52 72q-30 18 -48.5 33t-29 30t-14 31t-3.5 36q0 33 23.5 56t55.5 23q42 0 68 -24.5t26 -62.5q0 -32 -21.5 -54.5t-56.5 -27.5q15 -20 49 -20q5 0 23 1t30 1q29 0 37 -3
q24 -32 24 -47q0 -11 -17 -11q-13 0 -34.5 2.5t-31.5 2.5q-78 0 -78 -68q0 -26 21.5 -44t50.5 -18q74 0 164 97v206h-75l-30 56h211zM160 444q0 18 -12 30t-29 12q-20 0 -31.5 -13.5t-11.5 -30.5q0 -32 23 -55q61 4 61 57z" />
    <glyph glyph-name="HIN_NA" unicode="&#x928;" horiz-adv-x="412" 
d="M447 466h-76v-466l-61 35v243h-131q-22 0 -22 -10v-53q0 -21 -18 -21q-7 0 -20 15.5t-26 35t-23 37.5t-10 23q0 16 14 22.5t54 6.5h184v132h-313l-30 56h448z" />
    <glyph glyph-name="HIN_NA_NUKTA" unicode="&#x929;" horiz-adv-x="416" 
d="M447 466h-76v-466l-61 35v243h-131q-22 0 -22 -10v-53q0 -21 -18 -21q-7 0 -20 15.5t-26 35t-23 37.5t-10 23q0 16 14 22.5t54 6.5h184v132h-313l-30 56h448zM165 58l-59 -58l-59 58l59 58z" />
    <glyph glyph-name="HIN_PA" unicode="&#x92a;" horiz-adv-x="416" 
d="M451 466h-76v-466l-62 35l4 165q-40 -22 -83 -22q-19 0 -43.5 12.5t-46.5 31t-37 41t-15 43.5v160h-93l-30 56h452zM315 466h-163v-162q0 -76 53 -76q42 0 110 41v197z" />
    <glyph glyph-name="HIN_PHA" unicode="&#x92b;" horiz-adv-x="629" 
d="M664 466h-296v-166q68 53 118 53q21 0 41 -12t35.5 -33t24.5 -49t9 -61q0 -52 -53 -135l-51 46q59 80 59 139q0 22 -14.5 35.5t-35.5 13.5q-9 0 -26 -6t-36 -16t-38 -22t-33 -24v-229l-62 35l4 165q-43 -22 -76 -22q-19 0 -43.5 12.5t-46.5 31t-37 41t-15 43.5v160h-93
l-30 56h665zM308 466h-156v-162q0 -76 53 -76q50 0 103 41v197z" />
    <glyph glyph-name="HIN_BA" unicode="&#x92c;" horiz-adv-x="469" 
d="M504 466h-76v-466l-62 35l1 158q-52 -67 -137 -67q-34 0 -65 12.5t-54 33.5t-37 47.5t-14 55.5q0 22 11.5 42.5t32 36.5t49.5 25.5t64 9.5q86 0 149 -89h2v166h-370l-30 56h506zM332 261q0 39 -22.5 61.5t-54.5 22.5q-39 0 -62 -10l89 -139q50 26 50 65zM164 320
q-10 -5 -19 -14.5t-16 -20.5t-11 -23t-4 -22q0 -70 81 -70q23 0 58 11z" />
    <glyph glyph-name="HIN_BHA" unicode="&#x92d;" horiz-adv-x="480" 
d="M515 466h-75v-466l-62 35v183h-154v-51q0 -17 -18 -17q-5 0 -22 12t-35.5 28t-33 32t-14.5 24q0 22 19 22h44l3 57q-137 41 -137 121q0 38 21 61t58 23q54 0 84.5 -40.5t30.5 -112.5v-109h156v198h-75l-30 56h210zM174 420q0 66 -42 66q-19 0 -30.5 -16.5t-11.5 -36.5
q0 -13 7 -25.5t18 -22.5t26 -16.5t30 -7.5q3 30 3 59z" />
    <glyph glyph-name="HIN_MA" unicode="&#x92e;" horiz-adv-x="466" 
d="M501 466h-76v-466l-62 35v177h-180v-46q0 -25 -20 -25q-6 0 -23 14t-35 32.5t-31.5 35.5t-13.5 23q0 22 19 22h44v198h-123l-30 56h501zM365 268v198h-182v-198h182z" />
    <glyph glyph-name="HIN_YA" unicode="&#x92f;" horiz-adv-x="457" 
d="M492 466h-76v-466l-62 35l4 166q-49 -49 -108 -49q-146 0 -190 164q58 11 92.5 33.5t34.5 50.5q0 17 -28 66h-159l-30 56h492zM356 466h-151q36 -68 36 -102q0 -56 -112 -93q0 -75 67 -75q69 0 160 76v194z" />
    <glyph glyph-name="HIN_RA" unicode="&#x930;" horiz-adv-x="307" 
d="M342 466h-119v-172q0 -24 -10.5 -41t-22.5 -28.5t-22.5 -18.5t-10.5 -12t161 -169l-27 -32q-48 49 -90 94t-73.5 82.5t-49.5 65t-18 41.5q0 12 9 23t19 11l9 -5q7 -3 15.5 -7t16.5 -8t13.5 -6.5t7.5 -2.5q13 0 13 125q0 11 -1 26t-3 34h-159l-30 56h342z" />
    <glyph glyph-name="HIN_RA_NUKTA" unicode="&#x931;" horiz-adv-x="311" 
d="M342 466h-119v-172q0 -24 -10.5 -41t-22.5 -28.5t-22.5 -18.5t-10.5 -12t161 -169l-27 -32q-48 49 -90 94t-73.5 82.5t-49.5 65t-18 41.5q0 12 9 23t19 11l9 -5q7 -3 15.5 -7t16.5 -8t13.5 -6.5t7.5 -2.5q13 0 13 125q0 11 -1 26t-3 34h-159l-30 56h342zM158 67l-58 -58
l-58 58l58 58z" />
    <glyph glyph-name="HIN_LA" unicode="&#x932;" horiz-adv-x="561" 
d="M596 466h-76v-466l-62 35l4 267q-23 17 -45 17q-17 0 -31 -6t-28 -19.5t-28 -36t-31 -55.5l-46 33q7 16 24 42q-6 10 -15.5 20t-20 17.5t-21 12t-19.5 4.5q-35 0 -58 -26t-23 -64q0 -62 42.5 -113t138.5 -105l-25 -30q-216 139 -216 274q0 23 8.5 45t23.5 38.5t35 26.5
t43 10q22 0 40 -8t32.5 -20.5t26.5 -27t23 -27.5q48 65 97 65q34 0 71 -31v128h-459l-30 56h595z" />
    <glyph glyph-name="HIN_LLA" unicode="&#x933;" horiz-adv-x="597" 
d="M632 466h-114v-128q28 -18 46.5 -54t18.5 -74q0 -27 -12 -53.5t-32 -47t-45 -33t-51 -12.5q-56 0 -119 68q-27 -38 -54 -55t-70 -17q-27 0 -52.5 12.5t-45 33.5t-31 49t-11.5 58q0 28 10.5 54t29 45.5t43.5 31t54 11.5q25 0 43.5 -6.5t33.5 -17.5t26.5 -24.5t23.5 -28.5
q40 82 134 82v106h-459l-30 56h633zM538 246q0 32 -20.5 52t-53.5 20q-69 0 -126 -159q31 -45 80 -45q21 0 42 10.5t38.5 28.5t28.5 42t11 51zM311 249q-30 56 -90 56q-23 0 -43.5 -11t-37 -28.5t-26 -39.5t-9.5 -44q0 -78 73 -78q22 0 39 7t32 23.5t29.5 44.5t32.5 70z" />
    <glyph glyph-name="HIN_LLA_NUKTA" unicode="&#x934;" horiz-adv-x="601" 
d="M632 466h-114v-88q28 -18 46.5 -54t18.5 -74q0 -27 -12 -53.5t-32 -47t-45 -33t-51 -12.5q-56 0 -119 68q-27 -38 -54 -55t-70 -17q-27 0 -52.5 12.5t-45 33.5t-31 49t-11.5 58q0 28 10.5 54t29 45.5t43.5 31t54 11.5q25 0 43.5 -6.5t33.5 -17.5t26.5 -24.5t23.5 -28.5
q40 82 134 82v66h-459l-30 56h633zM386 27l-58 -58l-58 58l58 58zM538 286q0 32 -20.5 52t-53.5 20q-69 0 -126 -159q31 -45 80 -45q21 0 42 10.5t38.5 28.5t28.5 42t11 51zM311 289q-30 56 -90 56q-23 0 -43.5 -11t-37 -28.5t-26 -39.5t-9.5 -44q0 -78 73 -78q22 0 39 7
t32 23.5t29.5 44.5t32.5 70z" />
    <glyph glyph-name="HIN_VA" unicode="&#x935;" horiz-adv-x="462" 
d="M497 466h-76v-466l-62 35l4 160q-77 -65 -148 -65q-27 0 -55 12.5t-50 33.5t-36 48t-14 56q0 54 37 84t103 30q29 0 49 -3.5t37.5 -13t34 -27.5t38.5 -48h2v164h-361l-30 56h497zM360 272q-71 66 -140 66q-49 0 -77.5 -24.5t-28.5 -55.5q0 -84 79 -84q17 0 38.5 7.5
t44 21t44.5 31.5t40 38z" />
    <glyph glyph-name="HIN_SHA" unicode="&#x936;" horiz-adv-x="533" 
d="M568 466h-76v-466l-61 35v431h-140q47 -65 47 -111q0 -129 -145 -201l115 -144l-40 -31l-94 142q-9 13 -28 18t-38 12.5t-33.5 22t-14.5 47.5q0 20 10.5 28t30.5 8q15 -1 55 -55q67 21 103 81q-171 45 -171 135q0 22 17 48h-106l-30 56h569zM278 366q0 51 -18.5 81.5
t-51.5 30.5q-26 0 -40 -20.5t-14 -49.5q0 -66 115 -96q9 28 9 54z" />
    <glyph glyph-name="HIN_SHHA" unicode="&#x937;" horiz-adv-x="427" 
d="M462 466h-76v-466l-62 35l4 162q-59 -44 -108 -44q-20 0 -42.5 11t-42 29t-32.5 40.5t-13 45.5v187h-91l-30 56h463zM326 285v181h-182zM150 419v-159q0 -63 43 -63q31 0 64 17.5t55 43.5z" />
    <glyph glyph-name="HIN_SA" unicode="&#x938;" horiz-adv-x="517" 
d="M552 466h-76v-466l-62 35l4 188q-53 -18 -79 -18q-67 0 -118 54l-13 -13q-2 -2 -6 -4l-25 -21q-12 -10 -21.5 -18t-9.5 -9q0 -2 158 -166l-28 -28q-66 75 -108 123t-61 71q-47 59 -47 82q0 12 9 23t19 11l9 -5q7 -3 15.5 -7t16.5 -8t13.5 -6.5t7.5 -2.5q13 0 13 125
q0 11 -1 26t-3 34h-159l-30 56h552zM416 466h-193v-172q55 -33 97 -33q50 0 96 37v168z" />
    <glyph glyph-name="HIN_HA" unicode="&#x939;" horiz-adv-x="407" 
d="M445 466h-131v-104q0 -20 -19 -20h-175q-15 0 -29 -11.5t-14 -28.5q0 -31 33 -53q47 32 112 32q21 0 44 -11t42.5 -28.5t32.5 -38.5t13 -41q0 -67 -85 -91l-33 51q64 12 64 59q0 12 -5.5 22t-14.5 17.5t-20 12t-22 4.5q-24 0 -46 -10t-39 -25.5t-27 -35t-10 -38.5
q0 -20 14.5 -42t41 -43t63.5 -40t82 -34l-7 -23q-56 13 -103 33.5t-81 46.5t-53 56t-19 62q0 48 34 82q-56 56 -56 99q0 73 76 73h146v68h-283l-30 56h474z" />
    <glyph glyph-name="HIN_NUKTA" unicode="&#x93c;" 
d="M-33 -115l-64 -64l-65 65l64 64z" />
    <glyph glyph-name="HIN_AVAGRAH" unicode="&#x93d;" horiz-adv-x="424" 
d="M369 466h-163q-28 0 -28 -31q0 -20 80 -91q101 -90 101 -160q0 -26 -11 -49t-29 -41t-42 -28.5t-50 -10.5q-21 0 -45 10.5t-47 28t-42.5 39.5t-31.5 45l26 19q19 -26 33.5 -43t27.5 -26.5t27 -13t32 -3.5q17 0 33.5 7.5t29.5 20.5t21 30t8 37q0 51 -75 122
q-112 105 -112 134q0 60 71 60h156z" />
    <glyph glyph-name="HIN_MATRA_A" unicode="&#x93e;" horiz-adv-x="181" 
d="M212 466h-76v-466l-61 35v431h-75l-30 56h212z" />
    <glyph glyph-name="HIN_MATRA_I1" unicode="&#x93f;" horiz-adv-x="181" 
d="M486 520q-153 150 -253 150q-120 0 -120 -100q0 -32 9 -48h61l30 -56h-77v-466l-61 35v431h-75l-30 56h121q-31 40 -31 81q0 117 141 117q31 0 67 -11.5t73 -33t74 -52t71 -67.5v-36z" />
    <glyph glyph-name="HIN_MATRA_II" unicode="&#x940;" horiz-adv-x="179" 
d="M212 466h-76v-466l-61 35v431h-75l-30 56h120q-10 75 -43.5 116.5t-81.5 41.5q-61 0 -61 -87v-8l-22 -8q-3 3 -7 10t-7.5 15.5t-6 17.5t-2.5 16q0 46 29 73t74 27q60 0 102.5 -55.5t55.5 -158.5h62z" />
    <glyph glyph-name="HIN_MATRA_U" unicode="&#x941;" 
d="M41 -82q0 -42 -31 -70t-82 -28q-122 0 -274 131l19 25q37 -32 65 -52.5t54 -32.5t52.5 -16.5t60.5 -4.5q17 0 33.5 6t29 16.5t20.5 23t8 26.5q0 34 -46 43q-38 -42 -54 -42q-3 0 -11 7t-15.5 16t-13.5 18t-6 14q0 7 20.5 17t45.5 10q24 0 46.5 -8.5t40 -23.5t28 -34.5
t10.5 -40.5z" />
    <glyph glyph-name="HIN_MATRA_UU" unicode="&#x942;" 
d="M147 -206q-55 57 -91 93t-55 51q-46 37 -88 37q-21 0 -39 -19t-18 -52q0 -40 38 -40q39 0 82 34l31 -49q-24 -14 -46 -19.5t-46 -5.5q-18 0 -36.5 10t-33.5 25.5t-24.5 33.5t-9.5 34q0 43 28 70.5t67 27.5q18 0 34.5 -6t43 -27t70 -62t116.5 -111z" />
    <glyph glyph-name="HIN_MATRA_R" unicode="&#x943;" 
d="M-2 -159q-36 -15 -80 -15q-29 0 -56.5 11t-49.5 27.5t-35 37t-13 38.5q0 48 36.5 73t99.5 33l56 -47q-6 0 -29.5 -4.5t-50 -14t-47 -25.5t-20.5 -38q0 -41 66 -41q46 0 87 21z" />
    <glyph glyph-name="HIN_MATRA_RR" unicode="&#x944;" 
d="M36 -280q-29 -12 -84 -12q-29 0 -54.5 9.5t-45 25t-31 34.5t-11.5 39q0 33 20 53q-13 7 -24.5 18t-20 23t-13.5 24.5t-5 22.5q0 19 5 33t19 24.5t39.5 18t67.5 13.5l56 -47q-27 -3 -52.5 -7.5t-45.5 -12t-32 -18.5t-12 -27q0 -35 54 -35q43 0 91 18q7 -12 17 -27t23 -32
q-27 -3 -52.5 -7.5t-45.5 -12t-32 -18.5t-12 -27q0 -35 54 -35q43 0 91 18z" />
    <glyph glyph-name="HIN_MATRA_CHANDRA" unicode="&#x945;" 
d="M61 671q-8 -20 -22.5 -37.5t-33 -31t-39 -21t-40.5 -7.5q-46 0 -90 32t-69 86l24 12q53 -80 113 -80q32 0 60 24.5t45 64.5z" />
    <glyph glyph-name="HIN_MATRA_SHORT_E" unicode="&#x946;" 
d="M-85 510q-5 12 -12 32.5t-21 47.5q-14 26 -86 26h-44q-35 0 -59 5.5t-42 20t-30.5 39t-23.5 62.5l26 15q7 -32 26.5 -50t57.5 -18h28q8 0 14.5 0.5t12.5 0.5q98 0 128 -52q17 -29 28.5 -59.5t18.5 -61.5z" />
    <glyph glyph-name="HIN_MATRA_E" unicode="&#x947;" 
d="M-82 505q-27 45 -48.5 76t-39 50t-32.5 27.5t-28 8.5q-8 -2 -19 -5.5t-31 -8.5q-2 2 -9 14.5t-14.5 26.5t-13.5 26.5t-6 14.5q0 14 49 14q51 0 102.5 -60t111.5 -172z" />
    <glyph glyph-name="HIN_MATRA_AI" unicode="&#x948;" 
d="M-40 487l-47 -4q-17 18 -51.5 43.5t-85.5 59.5q-28 19 -39 19q-17 0 -44 -15q-4 7 -10.5 21.5t-12.5 30t-10.5 27.5t-4.5 13q0 11 16 11q21 0 47.5 -16t50.5 -35t41 -35t19 -16h1l-1 2q55 -50 93 -96h12l-24 67q-12 34 -23.5 56.5t-24 36t-28.5 19t-38 5.5q-5 26 -7.5 46
t-3.5 33q0 15 12 15q36 0 74 -54q27 -38 84 -222z" />
    <glyph glyph-name="HIN_MATRA_CHANDRA_O" unicode="&#x949;" horiz-adv-x="177" 
d="M241 671q-8 -20 -23 -37.5t-33 -31t-38.5 -21t-40.5 -7.5q-46 0 -90 32t-69 86l24 12q53 -80 113 -80q32 0 60 24.5t45 64.5zM210 466h-76v-466l-61 35v431h-75l-30 56h212z" />
    <glyph glyph-name="HIN_MATRA_SHORT_O" unicode="&#x94a;" horiz-adv-x="181" 
d="M212 466h-76v-466l-61 35v431h-75l-30 56h128q-5 13 -12 29.5t-17 38.5q-17 26 -87 26h-43q-34 0 -58.5 5.5t-42.5 20t-31 39t-24 62.5l26 15q7 -33 27 -50.5t57 -17.5h28q8 0 14.5 0.5t12.5 0.5q98 0 128 -52q16 -28 27.5 -57t19.5 -60h59z" />
    <glyph glyph-name="HIN_MATRA_O" unicode="&#x94b;" horiz-adv-x="180" 
d="M212 466h-76v-466l-61 35v431h-77l-30 56h126q-17 23 -37 48.5t-40.5 46.5t-40.5 35t-37 14q-8 -2 -19 -5.5t-31 -8.5q-2 2 -9 14.5t-14.5 26.5t-13.5 26.5t-6 14.5q0 14 49 14q27 0 53.5 -19t54.5 -50.5t58.5 -72.5t63.5 -84h57z" />
    <glyph glyph-name="HIN_MATRA_AU" unicode="&#x94c;" horiz-adv-x="215" 
d="M212 466h-76v-466l-61 35v431h-75l-30 56h82q-10 5 -28.5 18.5t-38 28t-37.5 25.5t-28 11q-17 0 -44 -15q-4 7 -10.5 21.5t-12.5 29.5t-10.5 27t-4.5 14q0 11 16 11q34 0 81 -38l67 -54q24 -20 42 -41t40 -38h24q-18 52 -31.5 83t-27 48t-30 22.5t-40.5 5.5q-5 27 -8 48
t-3 34q0 12 12 12q36 0 74 -54q14 -20 33 -70t44 -129h51z" />
    <glyph glyph-name="HIN_HALANT" unicode="&#x94d;" 
d="M145 -191l-17 -19q-27 29 -53.5 55.5t-50.5 46t-45 31t-37 11.5q-42 0 -51 -4q-40 46 -40 62q0 8 37 8q28 0 51.5 -8t46 -24t46.5 -39.5t53 -54.5z" />
    <glyph glyph-name="OM" unicode="&#x950;" horiz-adv-x="849" 
d="M831 277q0 -57 -31 -90.5t-77 -33.5q-55 0 -113 78q-62 -108 -121 -108q-50 0 -111 82h-4v-12q0 -52 -37.5 -84.5t-97.5 -32.5q-120 0 -208 192l27 16q68 -152 165 -152q21 0 39 8t31 21.5t20 31t7 37.5q0 56 -53 73q-77 -30 -86 -30q-4 0 -11.5 7t-15 15.5t-13 16.5
t-5.5 10q0 8 2 11t8 4.5t17 2t30 3.5t29 4t16.5 2.5t11.5 5.5t14 13q23 25 23 56q0 62 -60 62q-12 0 -31 -6.5t-37 -15t-31.5 -15.5t-13.5 -8q-5 0 -9.5 5.5t-9 14t-8.5 17.5t-7 17q68 35 111 35q22 0 48.5 -12t49 -31.5t37.5 -44t15 -48.5q0 -21 -13.5 -42t-33.5 -30
q13 -7 44 -35.5t80 -82.5q22 -25 46 -25q56 0 116 116t134 116q22 0 43 -11t37.5 -30t26.5 -43t10 -50zM693 596q-8 -24 -24 -47t-36.5 -40.5t-44 -28t-47.5 -10.5q-91 0 -187 149l26 17q71 -110 144 -110q77 0 122 100zM786 306q0 24 -13 42.5t-31 18.5q-17 0 -31 -5
t-27.5 -17.5t-27 -33.5t-29.5 -52q26 -50 77 -50q15 0 29.5 8.5t26 22t19 31t7.5 35.5zM563 641l-50 -49l-50 49l50 49z" />
    <glyph glyph-name="HIN_UDATTA" unicode="&#x951;" 
d="M-48 557h-50v216h50v-216z" />
    <glyph glyph-name="HIN_ANUDATTA" unicode="&#x952;" 
d="M-36 -95h-254l-36 57h254z" />
    <glyph glyph-name="HIN_GRAVE" unicode="&#x953;" 
d="M-44 557h-69l-173 172h69z" />
    <glyph glyph-name="HIN_ACUTE" unicode="&#x954;" 
d="M132 729l-173 -172h-69l173 172h69z" />
    <glyph glyph-name="HIN_KA_NUKTA" unicode="&#x958;" horiz-adv-x="629" 
d="M664 466h-295v-172q55 45 94 45q21 0 41 -12t35.5 -33t24.5 -49t9 -61q0 -52 -53 -135l-51 46q59 80 59 139q0 22 -14.5 35.5t-35.5 13.5q-39 0 -109 -60v-223l-62 35l4 148q-71 -44 -110 -44q-29 0 -55 11.5t-45.5 31t-31 45.5t-11.5 55q0 42 31 71.5t85 29.5
q28 0 46.5 -5t33 -15.5t26.5 -25.5t27 -36h2v165h-310l-30 56h665zM154 68l-58 -58l-58 58l58 58zM310 256q-29 39 -55.5 55t-68.5 16q-35 0 -59 -22t-24 -56q0 -27 18.5 -43.5t46.5 -16.5q54 0 142 67z" />
    <glyph glyph-name="HIN_KHA_NUKTA" unicode="&#x959;" horiz-adv-x="630" 
d="M665 466h-76v-466l-60 35l2 55q-101 -74 -186 -74q-31 0 -67.5 14t-73 42.5t-70.5 70.5t-59 98q-15 31 -15 40q0 7 8 16.5t13 9.5q2 0 59 -20q15 22 15 85q0 25 -1 48.5t-3 45.5h-153l-30 56h667zM128 67l-58 -58l-58 58l58 58zM530 274q-29 40 -55.5 56t-68.5 16
q-35 0 -59 -22t-24 -56q0 -27 18.5 -43.5t46.5 -16.5q53 0 142 66zM529 202q-68 -44 -108 -44q-29 0 -55 11.5t-45.5 31t-31 45.5t-11.5 55q0 42 31 71.5t85 29.5q24 0 40.5 -3.5t31 -12.5t28.5 -25t33 -41h2v146h-319q1 -66 3 -101t2 -59q0 -67 -70 -118q36 -55 86 -88.5
t99 -33.5q22 0 41.5 3.5t42 13t50 27t65.5 45.5v47z" />
    <glyph glyph-name="HIN_GA_NUKTA" unicode="&#x95a;" horiz-adv-x="437" 
d="M472 466h-76v-466l-61 35v431h-146v-233q0 -16 -10 -27t-24 -11q-2 0 -17 11.5t-32.5 28.5t-31.5 35t-14 32q0 8 6 15t11 7h46q6 0 6 10v132h-130l-30 56h473zM168 77l-58 -58l-58 58l58 58z" />
    <glyph glyph-name="HIN_JA_NUKTA" unicode="&#x95b;" horiz-adv-x="585" 
d="M616 466h-76v-466l-61 35v281h-190q18 -18 28 -29.5t15 -22t6.5 -22.5t1.5 -30t-8 -33t-20.5 -26t-29 -17.5t-33.5 -6.5q-29 0 -51.5 9t-44.5 31.5t-44.5 61.5t-50.5 99l33 14q36 -87 68.5 -121t69.5 -34q53 0 53 56q0 15 -4 27t-14 24t-28 25t-46 30l8 21h283v94h-482
l-30 56h617zM424 67l-58 -58l-58 58l58 58z" />
    <glyph glyph-name="HIN_DDA_NUKTA" unicode="&#x95c;" horiz-adv-x="522" 
d="M553 466h-132v-106q0 -21 -20 -21h-152q-49 0 -49 -44q0 -24 12.5 -40.5t31.5 -16.5q2 0 20.5 2.5t41 6t42.5 6t25 2.5q24 0 44 -14.5t34.5 -34.5t22 -40t7.5 -30q0 -26 -10.5 -47t-28.5 -36.5t-42.5 -24t-52.5 -8.5q-155 0 -287 189l28 21q30 -43 56.5 -72.5t54 -47.5
t59 -26t70.5 -8q22 0 41.5 6.5t34.5 18t23.5 26.5t8.5 32q0 40 -28 40q-11 0 -36.5 -3t-58.5 -8l-44 -6q-29 0 -48 12.5t-45 48.5q-30 42 -30 77q0 29 21 52t54 23h140v71h-360l-30 56h552zM377 -95l-64 -64l-65 65l64 64z" />
    <glyph glyph-name="HIN_DDHA_NUKTA" unicode="&#x95d;" horiz-adv-x="460" 
d="M491 466h-113v-115q0 -20 -20 -20q-51 0 -153 -3q-91 -3 -91 -111q0 -26 9 -49t25 -41t37.5 -29.5t46.5 -14.5q-20 35 -20 80q0 104 103 104q23 0 43 -10.5t35 -29t23.5 -43.5t8.5 -54q0 -24 -10.5 -44t-28.5 -34.5t-43 -23t-53 -8.5q-60 0 -129 54q-101 78 -101 195
q0 38 14 61t41.5 36t68 17t93.5 4h41v79h-320l-30 56h493zM347 -95l-64 -64l-65 65l64 64zM390 158q0 22 -18 37.5t-44 15.5q-35 0 -53.5 -28.5t-18.5 -80.5q0 -9 3.5 -17.5t16.5 -8.5q22 0 42.5 6.5t36.5 18t25.5 26t9.5 31.5z" />
    <glyph glyph-name="HIN_PHA_NUKTA" unicode="&#x95e;" horiz-adv-x="629" 
d="M664 466h-296v-166q68 53 118 53q21 0 41 -12t35.5 -33t24.5 -49t9 -61q0 -52 -53 -135l-51 46q59 80 59 139q0 22 -14.5 35.5t-35.5 13.5q-9 0 -26 -6t-36 -16t-38 -22t-33 -24v-229l-62 35l4 165q-43 -22 -76 -22q-19 0 -43.5 12.5t-46.5 31t-37 41t-15 43.5v160h-93
l-30 56h665zM198 67l-58 -58l-58 58l58 58zM308 466h-156v-162q0 -76 53 -76q50 0 103 41v197z" />
    <glyph glyph-name="HIN_YA_NUKTA" unicode="&#x95f;" horiz-adv-x="461" 
d="M492 466h-76v-466l-62 35l4 166q-49 -49 -108 -49q-146 0 -190 164q58 11 92.5 33.5t34.5 50.5q0 17 -28 66h-159l-30 56h492zM178 67l-58 -58l-58 58l58 58zM356 466h-151q36 -68 36 -102q0 -56 -112 -93q0 -75 67 -75q69 0 160 76v194z" />
    <glyph glyph-name="HIN_RR" unicode="&#x960;" horiz-adv-x="653" 
d="M688 466h-313v-184q7 2 18 7t22 12t20 13.5t12 11.5v10q-1 1 -1 14q0 49 20 49q6 0 21 -6t30.5 -14.5t27.5 -18t12 -16.5q0 -16 -61 -50l71 -92q-113 -45 -113 -88q0 -20 8.5 -26.5t32.5 -6.5q20 0 52 30l50 -50q-51 -29 -75 -56.5t-24 -48.5q0 -31 38 -31
q27 0 53.5 14.5t46.5 37.5l42 -51q-47 -47 -107 -47q-25 0 -49 10t-43 26t-30.5 34.5t-11.5 35.5q0 40 45 66q-24 9 -40 16.5t-25.5 16.5t-13 21t-3.5 30q0 54 97 97l-31 46q-23 -26 -91 -26v-252l-62 35v174l-171 -123l-47 41l211 141q-82 58 -120 58q-39 0 -85 -15l-42 55
q63 16 108 16q18 0 31 -2.5t27.5 -11.5t35 -25.5t54.5 -44.5v168h-316l-30 56h689z" />
    <glyph glyph-name="HIN_LL" unicode="&#x961;" horiz-adv-x="593" 
d="M693 -105q-48 -61 -117 -61q-26 0 -50 8t-43 20.5t-30.5 28.5t-11.5 31q0 23 21 47q-23 3 -43.5 12t-36 21t-25 26t-9.5 28q0 11 2.5 19.5t11.5 20t25 27.5t43 42q19 18 31 32.5t19 28t9.5 26t2.5 26.5q0 60 -57 60q-16 0 -30.5 -8t-30.5 -26t-34.5 -47t-41.5 -71l-51 28
q5 14 13 28.5t18 29.5q-13 23 -36 41t-41 18q-35 0 -58 -26t-23 -64q0 -84 108 -187l-33 -28q-26 28 -50.5 62t-43.5 67.5t-30 63t-11 48.5q0 23 8.5 45t23.5 38.5t35 26.5t43 10q22 0 40 -7.5t32.5 -20t27.5 -28t26 -31.5q36 56 79 69v97h-376l-30 56h625l30 -56h-189v-93
q23 -5 44 -17t37.5 -28.5t26 -35.5t9.5 -38q0 -53 -46 -92q-98 -84 -98 -122q0 -42 42 -42q55 0 105 71l45 -40q-25 -29 -43.5 -49.5t-31 -34.5t-18.5 -23t-6 -16q0 -42 42 -42q55 0 105 71z" />
    <glyph glyph-name="HIN_MATRA_ll" unicode="&#x962;" 
d="M146 -304q-19 -10 -67 -10q-22 0 -42.5 7.5t-36.5 20t-25.5 28t-9.5 31.5q0 30 23 50l56 37q26 17 35.5 31t9.5 27q0 33 -32 33q-12 0 -27.5 -7t-32 -19t-32 -28t-27.5 -35l-45 33q5 7 11.5 15t14.5 18q-17 13 -32 21t-33 8q-51 0 -51 -47q0 -3 3 -14.5t11 -27
t22.5 -32.5t37.5 -30l-17 -17q-107 77 -107 136q0 30 23 51t57 21q15 0 26.5 -1.5t23 -6t25 -13.5t32.5 -24l35 27q25 15 54 15q18 0 35.5 -9.5t31 -24.5t21.5 -33.5t8 -36.5q0 -59 -99 -108q-25 -12 -25 -28q0 -28 44 -28q34 0 72 15z" />
    <glyph glyph-name="HIN_MATRA_lll" unicode="&#x963;" 
d="M216 -350q-29 -26 -69 -26q-24 0 -45.5 7t-37 18.5t-25 26t-9.5 29.5q0 12 1 13q-38 9 -59 33.5t-21 47.5q0 10 1.5 17.5t9.5 15.5t24.5 18.5t46.5 26.5q29 15 39 27t10 29q0 18 -23 18q-13 0 -28.5 -6.5t-32 -18t-32.5 -28t-29 -36.5l-45 33q5 7 11.5 15t14.5 18
q-17 13 -32 21t-34 8q-50 0 -50 -47q0 -2 3 -13.5t11 -27t22.5 -32.5t37.5 -31l-17 -17q-107 77 -107 136q0 30 23 51t56 21q15 0 26.5 -1.5t23.5 -6t25.5 -13.5t32.5 -24l35 27q25 15 54 15q18 0 34.5 -7.5t28.5 -20t19 -29.5t7 -35q0 -14 -4 -25t-15.5 -22.5t-32 -23.5
t-54.5 -28q-24 -12 -24 -27q0 -24 38 -24q13 -1 42 13l37 19l35 -48q-12 -1 -24.5 -6t-23.5 -12.5t-18 -16t-7 -15.5q0 -24 34 -24t87 33z" />
    <glyph glyph-name="HIN_DANDA" unicode="&#x964;" horiz-adv-x="297" 
d="M296 -4l-60 38v487l60 -38v-487z" />
    <glyph glyph-name="HIN_DOUBLE DANDA" unicode="&#x965;" horiz-adv-x="470" 
d="M469 -4l-60 38v487l60 -38v-487zM299 -4l-60 38v487l60 -38v-487z" />
    <glyph glyph-name="HIN_ZERO" unicode="&#x966;" horiz-adv-x="421" 
d="M356 261q0 -27 -13.5 -55.5t-35.5 -52t-48.5 -38.5t-51.5 -15q-30 0 -56 11t-45 30t-30 45.5t-11 57.5q0 30 14 59t36 52t49 37t53 14q27 0 52 -12t44.5 -32t31 -46.5t11.5 -54.5zM302 236q0 22 -9 43.5t-23.5 38.5t-34 27.5t-40.5 10.5q-76 0 -76 -85q0 -27 9.5 -49.5
t26.5 -38.5t39 -24.5t48 -8.5q25 0 42.5 24t17.5 62z" />
    <glyph glyph-name="HIN_ONE" unicode="&#x967;" horiz-adv-x="376" 
d="M347 -40q0 -29 -23 -49l-66 41q23 17 23 30q0 -1 -3.5 10t-21.5 35t-56.5 62t-108.5 92q31 28 55.5 55.5t43.5 53.5q-117 61 -117 125q0 20 8.5 39.5t22.5 34.5t32 24t38 9q21 0 44.5 -13.5t43 -33t32.5 -42t13 -41.5q0 -40 -32 -87l-111 -139q95 -78 139 -125t44 -81z
M247 413q0 26 -14.5 42.5t-37.5 16.5q-9 0 -20 -6t-20.5 -16.5t-15.5 -23.5t-6 -27q0 -37 74 -84q7 7 14 19.5t13 26.5t9.5 28t3.5 24z" />
    <glyph glyph-name="HIN_TWO" unicode="&#x968;" horiz-adv-x="391" 
d="M351 -52l-36 -22l-143 244q-49 0 -68.5 17.5t-19.5 54.5t11 48t30 11q5 0 56 -59q54 11 85.5 51t31.5 93q0 88 -80 88q-56 0 -146 -35l-47 54q78 37 169 37q26 0 52.5 -14.5t48 -38t35 -54t13.5 -61.5q0 -64 -34.5 -112t-92.5 -70z" />
    <glyph glyph-name="HIN_THREE" unicode="&#x969;" horiz-adv-x="401" 
d="M375 198q0 -23 -10 -44.5t-27 -39t-39 -29.5t-47 -16l91 -125l-31 -25l-78 116q-12 18 -26 25t-47 11q-49 6 -49 65q0 52 36 52q16 0 61 -61q52 2 82 27.5t30 65.5q0 13 -6 26.5t-15 24.5t-20.5 18t-22.5 7q0 -1 -12 -3t-29 -4.5t-36 -4t-32 -1.5q-17 0 -27.5 7t-16.5 16
t-8.5 18t-2.5 13q0 12 42 12q5 0 19.5 -1t29.5 -2.5t26.5 -2.5t10.5 -1q9 0 20 6.5t20.5 16.5t16 23t6.5 27q0 51 -79 51q-29 0 -61.5 -1t-69.5 -3l-32 58q17 1 49 1.5t80 0.5q38 0 69 -13t52.5 -33.5t33.5 -44.5t12 -45q0 -18 -12.5 -40.5t-29.5 -33.5q25 -22 40.5 -38
t24 -28.5t11.5 -23.5t3 -24z" />
    <glyph glyph-name="HIN_FOUR" unicode="&#x96a;" horiz-adv-x="493" 
d="M460 462l-160 -167q117 -93 117 -137q0 -20 -10.5 -38t-28 -31.5t-41.5 -21t-51 -7.5q-26 0 -49 9t-40.5 25t-28 38t-10.5 48q0 58 74 129q-4 4 -18 16t-34.5 28.5t-44.5 35.5t-46.5 37t-42 33t-30.5 23l33 30l205 -179l182 191zM351 171q0 40 -74 99q-74 -74 -74 -114
q0 -22 19.5 -37t41.5 -15q16 0 31.5 6.5t28 16t20 21.5t7.5 23z" />
    <glyph glyph-name="HIN_FIVE" unicode="&#x96b;" horiz-adv-x="464" 
d="M440 -63l-41 -18l-99 257q-47 -36 -89 -36q-27 0 -57 16t-55.5 40.5t-42 54t-16.5 56.5q0 89 39 215l63 -48q-48 -135 -48 -196q0 -36 26.5 -59t64.5 -23q9 0 22 3.5t25 9.5t22.5 13.5t15.5 15.5q-15 40 -15 64q0 29 30 29q6 0 17 -7.5t22.5 -17.5t19.5 -20.5t8 -16.5
q0 -30 -25 -64z" />
    <glyph glyph-name="HIN_SIX" unicode="&#x96c;" horiz-adv-x="444" 
d="M412 -58l-34 -16l-68 138q-5 -1 -10.5 -1.5t-13.5 -0.5q-40 0 -79 15t-70 39t-50.5 54t-19.5 60q0 22 14 46.5t32 35.5q-71 62 -71 118q0 92 160 92q40 0 90 -9l27 -56q-56 9 -92 9q-70 0 -97.5 -16.5t-27.5 -50.5q0 -13 6 -25t15 -21t20.5 -14.5t22.5 -5.5q3 0 13.5 1.5
t25.5 4t31.5 4t30.5 1.5q16 0 26.5 -7.5t17 -17t9 -19.5t2.5 -14q0 -16 -42 -16q1 0 -11.5 1t-28.5 2.5t-30.5 3t-16.5 1.5q-10 0 -21.5 -7t-21.5 -18t-16.5 -25t-6.5 -27q0 -18 7.5 -34t21 -28t32 -19.5t41.5 -7.5q29 0 46 11q-12 19 -12 54q0 5 9 11.5t15 6.5t19.5 -7
t27.5 -16.5t24.5 -19.5t10.5 -17q0 -33 -29 -53z" />
    <glyph glyph-name="HIN_SEVEN" unicode="&#x96d;" horiz-adv-x="470" 
d="M443 269q0 -47 -12.5 -85t-34 -66t-52 -43t-66.5 -15q-55 0 -99.5 31.5t-77.5 91.5t-53.5 145.5t-27.5 193.5l32 13q33 -409 223 -409q115 0 123 140q-23 -20 -58 -20q-24 0 -47.5 10.5t-42 29t-30 43.5t-11.5 55q0 18 6.5 33.5t17.5 27t25.5 18.5t31.5 7q16 0 34.5 -7.5
t36.5 -20t34 -28t26 -31.5q22 -37 22 -114zM391 335q-10 85 -60 85q-31 0 -49.5 -20t-18.5 -52q0 -29 16 -47.5t42 -18.5q44 0 70 53z" />
    <glyph glyph-name="HIN_EIGHT" unicode="&#x96e;" horiz-adv-x="444" 
d="M416 128q-89 -102 -188 -102q-36 0 -69.5 12t-59.5 32t-41.5 45t-15.5 51q0 20 18 50.5t54 75t88.5 104.5t121.5 140l28 -60l-239 -293q-10 -12 -13.5 -22.5t-3.5 -20.5q0 -13 10 -25.5t25.5 -22.5t33.5 -16t34 -6q65 0 175 104z" />
    <glyph glyph-name="HIN_NINE" unicode="&#x96f;" horiz-adv-x="417" 
d="M387 11q0 -33 -53 -78l-56 44q49 37 49 52t-18 38l-211 232q-26 29 -40.5 52.5t-14.5 44.5q0 28 11 52.5t30.5 42.5t45.5 28.5t55 10.5q25 0 49.5 -11.5t44 -29.5t31.5 -40.5t12 -44.5q0 -24 -12.5 -47.5t-33.5 -41.5t-48.5 -29.5t-56.5 -11.5q-3 0 -6 0.5t-6 0.5
q14 -17 57 -62t116 -117q55 -55 55 -85zM262 434q0 46 -50 46q-46 0 -77.5 -29.5t-31.5 -78.5q0 -7 1 -16.5t4 -17.5t9 -14t15 -6q27 0 51 8.5t41.5 24t27.5 36.5t10 47z" />
    <glyph glyph-name="HIN_ABBREVIATION" unicode="&#x970;" horiz-adv-x="222" 
d="M188 87q0 -17 -6.5 -32.5t-17.5 -27.5t-25.5 -19.5t-30.5 -7.5q-32 0 -54.5 21.5t-22.5 56.5q0 17 6.5 33t18 28t26 19t31.5 7q32 0 53.5 -22t21.5 -56zM152 75q0 19 -15 35.5t-34 16.5q-35 0 -35 -37q0 -24 16.5 -39t39.5 -15q28 0 28 39z" />
    <glyph glyph-name="glyph788" unicode="&#x978;" horiz-adv-x="420" 
d="M268 475l-66 -64l-60 64l66 64zM378 416q-61 -103 -157 -103q-52 0 -101 36.5t-79 94.5l33 24q49 -91 128 -91q31 0 64.5 24t52.5 61zM366 16l-18 -17q-18 25 -37.5 49.5t-39 43.5t-39 31t-37.5 12q-45 0 -52 -4q-36 51 -38 62q3 8 38 8q58 0 107 -40q16 -14 66 -78z" />
    <glyph glyph-name="glyph789" unicode="&#x97a;" horiz-adv-x="443" 
d="M478 466h-70v-466l-62 39l4 95q-11 -8 -26 -16t-30 -14t-29 -9.5t-23 -3.5q-67 0 -114 38.5t-59 101.5q27 0 51 4.5t41.5 12t28 18.5t10.5 25q0 29 -38 46t-98 17h-151l-7 56h144q45 0 79.5 -11.5t58 -31t35.5 -45.5t12 -54q0 -63 -85 -79q11 -62 57 -62q19 0 39 7
t38.5 19.5t35 29t28.5 35.5v248h-504l-30 56h634z" />
    <glyph glyph-name="HIN_GA_STRESS" unicode="&#x97b;" horiz-adv-x="442" 
d="M473 466h-76v-466l-61 35v431h-146v-253q0 -16 -10 -27t-24 -11q-2 0 -17 11.5t-32.5 28.5t-31.5 35t-14 32q0 8 6 15t11 7h46q6 0 6 10v152h-130l-30 56h473zM415 -111h-322l-36 57h322z" />
    <glyph glyph-name="HIN_JA_STRESS" unicode="&#x97c;" horiz-adv-x="538" 
d="M569 466h-76v-466l-62 35v281h-140q22 -23 36 -40t22.5 -31t11.5 -27t3 -28q0 -18 -8 -33t-20.5 -26t-29 -17.5t-33.5 -6.5q-30 0 -56 11t-51 37t-50.5 69t-55.5 106l33 14q13 -31 30.5 -62.5t37.5 -57t43.5 -41.5t48.5 -16q53 0 53 56q0 62 -114 128l8 21h233v94h-432
l-30 56h568zM505 -111h-402l-36 57h402z" />
    <glyph glyph-name="HIN_STOP" unicode="&#x97d;" horiz-adv-x="444" 
d="M389 401q0 -63 -48.5 -121.5t-136.5 -109.5v-159l-57 -27l1 188q40 27 70 55.5t49.5 55.5t29.5 51.5t10 43.5q0 26 -10 47.5t-27.5 37t-40.5 24t-49 8.5q-11 0 -23.5 -1t-24.5 -6t-23.5 -15.5t-20.5 -29.5l-18 -36l-3 -2l-17 2l-1 2l37 110q56 35 120 35q40 0 73.5 -10.5
t58 -30.5t38 -48t13.5 -64z" />
    <glyph glyph-name="HIN_DDA_STRESS" unicode="&#x97e;" horiz-adv-x="522" 
d="M553 466h-132v-106q0 -21 -20 -21h-152q-49 0 -49 -44q0 -31 9 -44t35 -13q2 0 20.5 2.5t41 6t42.5 6t25 2.5q24 0 44 -14.5t34.5 -34.5t22 -40t7.5 -30q0 -26 -10.5 -47t-28.5 -36.5t-42.5 -24t-52.5 -8.5q-155 0 -287 189l28 21q30 -43 56.5 -72.5t54 -47.5t59 -26
t70.5 -8q22 0 41.5 6.5t34.5 18t23.5 26.5t8.5 32q0 40 -28 40q-11 0 -36.5 -3t-58.5 -8l-44 -6q-29 0 -48 12.5t-45 48.5q-30 42 -30 77q0 29 21 52t54 23h140v71h-360l-30 56h552zM495 -111h-352l-36 57h352z" />
    <glyph glyph-name="HIN_BA_STRESS" unicode="&#x97f;" horiz-adv-x="473" 
d="M504 466h-76v-466l-62 35l1 158q-52 -67 -137 -67q-34 0 -65 12.5t-54 33.5t-37 47.5t-14 55.5q0 22 11.5 42.5t32 36.5t49.5 25.5t64 9.5q86 0 149 -89h2v166h-370l-30 56h506zM445 -111h-322l-36 57h322zM332 261q0 39 -22.5 61.5t-54.5 22.5q-39 0 -62 -10l89 -139
q50 26 50 65zM164 320q-10 -5 -19 -14.5t-16 -20.5t-11 -23t-4 -22q0 -70 81 -70q23 0 58 11z" />
    <glyph glyph-name="ZEROWITHCHAR" unicode="&#x200b;" horiz-adv-x="20" 
d="M64 466h-64l-30 56h64z" />
    <glyph glyph-name="NON-JOINER" unicode="&#x200c;" 
d="M18 -134h-36v907h36v-907z" />
    <glyph glyph-name="JOINER" unicode="&#x200d;" 
d="M107 668l-24 -23l-65 66v-845h-36v845l-65 -66l-24 23l84 83l-84 82l24 24l83 -84l83 84l24 -24l-84 -82z" />
    <glyph glyph-name="endash" unicode="&#x2013;" horiz-adv-x="480" 
d="M462 244h-445v45h445v-45z" />
    <glyph glyph-name="emdash" unicode="&#x2014;" horiz-adv-x="813" 
d="M783 244h-763v45h763v-45z" />
    <glyph glyph-name="quoteleft" unicode="&#x2018;" horiz-adv-x="278" 
d="M123 528l-51 -99l-51 48q-21 19 -21 37q0 33 72 203l32 -39q-26 -90 -26 -98q0 -17 13 -27z" />
    <glyph glyph-name="quoteright" unicode="&#x2019;" horiz-adv-x="280" 
d="M280 619q0 -34 -72 -203l-32 39q26 90 26 98q0 17 -13 27l-32 25l51 99l51 -48q21 -20 21 -37z" />
    <glyph glyph-name="quotedblleft" unicode="&#x201c;" horiz-adv-x="454" 
d="M303 528l-51 -99l-51 48q-21 19 -21 37q0 33 72 203l32 -39q-26 -90 -26 -98q0 -17 13 -27zM123 528l-51 -99l-51 48q-21 19 -21 37q0 33 72 203l32 -39q-26 -90 -26 -98q0 -17 13 -27z" />
    <glyph glyph-name="quotedblright" unicode="&#x201d;" horiz-adv-x="450" 
d="M450 619q0 -34 -72 -203l-32 39q26 90 26 98q0 17 -13 27l-32 25l51 99l51 -48q21 -20 21 -37zM280 619q0 -34 -72 -203l-32 39q26 90 26 98q0 17 -13 27l-32 25l51 99l51 -48q21 -20 21 -37z" />
    <glyph glyph-name="bullet" unicode="&#x2022;" horiz-adv-x="523" 
d="M442 253q0 -38 -14.5 -71t-39 -58t-58 -39.5t-71.5 -14.5t-71.5 14.5t-58 39t-39 58t-14.5 71.5t14.5 71.5t39.5 58t58 39t71 14.5q37 0 70.5 -14.5t58.5 -39.5t39.5 -58.5t14.5 -70.5z" />
    <glyph glyph-name="RUPEES" unicode="&#x20b9;" horiz-adv-x="409" 
d="M130 208l127 -185l-30 -23l-165 211q-6 0 -12 1t-13 2l-25 56q8 -1 20 -2t25.5 -1.5l27 -1t22.5 -0.5q48 0 80 19t40 63h-202l-25 56h224q-3 10 -8 21t-14.5 20.5t-23.5 15.5t-33 6h-120l-25 56h362l27 -56h-172q14 -12 25 -28t19 -35h101l27 -56h-117q0 -26 -7.5 -50.5
t-23 -44t-41 -31.5t-61.5 -13h-9z" />
    <glyph glyph-name="CIRCLE" unicode="&#x25cc;" horiz-adv-x="423" 
d="M352 346q-20 33 -54 54l30 41q42 -27 67 -66zM248 423q-11 4 -38 4t-38 -4l-9 50q12 2 24 3.5t23 1.5t23 -1.5t24 -3.5zM424 265q0 -23 -6 -47l-50 8q4 11 4 38q0 28 -4 39l50 8q6 -24 6 -46zM395 154q-26 -41 -67 -67l-30 42q35 21 54 55zM122 400q-35 -21 -54 -54
l-42 29q25 40 66 66zM2 218q-2 11 -3.5 22.5t-1.5 24.5q0 12 1.5 23.5t3.5 22.5l50 -8q-4 -11 -4 -39q0 -27 4 -38zM257 56q-12 -2 -24 -3.5t-23 -1.5t-23 1.5t-24 3.5l9 51q11 -2 20.5 -3.5t17.5 -1.5t17.5 1.5t20.5 3.5zM92 87q-39 25 -66 67l42 30q19 -34 54 -55z" />
    <glyph glyph-name="NULL" 
 />
    <glyph glyph-name="glyph45" horiz-adv-x="550" 
d="M286 1462h-22l11 11zM286 -535v-11l-22 11h22z" />
    <glyph glyph-name="HIN_II_ANUSVAR" horiz-adv-x="343" 
d="M367 598l-50 -49l-50 49l50 49zM377 466h-82v-103q0 -13 -19 -13h-128q-43 0 -43 -29q0 -26 15 -48t36 -22q5 0 17.5 3t26 7t26 7t17.5 3q13 0 28 -11.5t28 -28t21 -35t8 -31.5q0 -92 -130 -120l117 -122l-29 -26q-97 127 -125 138q-23 4 -38.5 7t-22.5 7q-14 8 -24 29.5
t-10 42.5q0 8 10.5 18.5t27.5 10.5q7 0 17 -8.5t20 -19t18.5 -19t11.5 -8.5q19 0 39 6.5t36.5 18.5t26.5 28t10 35q0 38 -28 38q-3 0 -15 -3t-25.5 -7t-26.5 -7t-19 -3q-19 0 -38.5 15t-35 37.5t-25.5 48.5t-10 49q0 49 57 49h124v66h-243l-30 56h269q-53 95 -53 145
q0 37 23 61t59 24q69 0 100 -82l-17 -11q-31 43 -66 43q-25 0 -39.5 -19.5t-14.5 -45.5q0 -46 34 -115h84z" />
    <glyph glyph-name="HIN_CHANDRA_E_ANUSVAR" horiz-adv-x="432" 
d="M481 -55q0 -18 -33 -64l-51 45q18 22 18 33q0 12 -26 29l-266 163q-31 19 -31 66v249h-93l-30 56h464l30 -56h-91v-257q0 -41 -36 -41q-41 0 -74 9l-34 50l34 -3h22q28 0 28 19v223h-160v-256q0 -31 13 -38l263 -166q53 -33 53 -61zM309 671q-8 -20 -22.5 -37.5t-33 -31
t-39 -21t-40.5 -7.5q-23 0 -46.5 8.5t-44.5 24.5t-38.5 37.5t-29.5 47.5l24 12q53 -80 113 -80q32 0 60.5 25.5t44.5 63.5zM452 660l-64 -64l-65 65l64 64z" />
    <glyph glyph-name="HIN_SHORT_E_ANUSVAR" horiz-adv-x="432" 
d="M481 -55q0 -18 -33 -64l-51 45q18 22 18 33q0 12 -26 29l-266 163q-31 19 -31 66v249h-93l-30 56h344q-4 11 -11 28t-17 40q-17 26 -87 26h-43q-34 0 -58.5 5.5t-42.5 20t-31 39t-24 62.5l26 15q7 -32 27 -50t57 -18h28q8 0 14.5 0.5t12.5 0.5q48 0 76.5 -12t46 -34
t28.5 -53t23 -70h95l30 -56h-91v-257q0 -41 -36 -41q-41 0 -74 9l-34 50q21 -2 34.5 -2.5t22.5 -0.5q27 0 27 19v223h-160v-256q0 -31 13 -38l263 -166q53 -33 53 -61zM439 660l-64 -64l-65 65l64 64z" />
    <glyph glyph-name="HIN_E_ANUSVAR" horiz-adv-x="432" 
d="M481 -55q0 -18 -33 -64l-51 45q18 22 18 33q0 12 -26 29l-266 163q-31 19 -31 66v249h-93l-30 56h464l30 -56h-91v-257q0 -41 -36 -41q-41 0 -74 9l-34 50l34 -3h22q28 0 28 19v223h-160v-256q0 -31 13 -38l263 -166q53 -33 53 -61zM392 660l-64 -64l-65 65l64 64z" />
    <glyph glyph-name="HIN_AI_ANUSVAR" horiz-adv-x="432" 
d="M481 -55q0 -18 -33 -64l-51 45q18 22 18 33q0 12 -26 29l-266 163q-31 19 -31 66v249h-93l-30 56h333q-29 45 -49 73t-35.5 44t-28 22t-25.5 6q-8 -2 -19 -5.5t-31 -8.5q-2 2 -9 14t-14.5 26t-13.5 26.5t-6 15.5q0 14 49 14q23 0 46 -13t48.5 -40.5t54 -70.5t62.5 -103
h102l30 -56h-91v-257q0 -41 -36 -41q-41 0 -74 9l-34 50l34 -3h22q28 0 28 19v223h-160v-256q0 -31 13 -38l263 -166q53 -33 53 -61zM439 660l-64 -64l-65 65l64 64z" />
    <glyph glyph-name="HIN_CHANDRA_O_ANUSVAR" horiz-adv-x="786" 
d="M821 466h-76v-466l-61 35v431h-120v-466l-62 35l4 196q-33 -11 -65 -11q-39 0 -80 29l-2 -2q15 -23 15 -51q0 -55 -37.5 -87.5t-97.5 -32.5q-120 0 -208 192l27 16q68 -152 165 -152q21 0 39 8t31 21.5t20 31t7 37.5q0 56 -53 73q-77 -30 -86 -30q-4 0 -11.5 7t-15 15.5
t-13 16.5t-5.5 10q0 8 2 11t8 4.5t17 2t30 3.5t29 4t16.5 2.5t11.5 5.5t14 13q23 25 23 56q0 62 -60 62q-12 0 -31 -6.5t-37 -15t-31.5 -15.5t-13.5 -8q-5 0 -9.5 5.5t-9 14t-8.5 17.5t-7 17q68 35 111 35q22 0 48.5 -12t49 -31.5t37.5 -44t15 -48.5q0 -21 -13.5 -42
t-33.5 -30q67 -52 126 -52q8 0 21 3.5t26 8.5t23.5 11.5t13.5 11.5v161h-121l-30 56h438zM695 671q-8 -20 -22.5 -37.5t-33 -31t-39 -21t-40.5 -7.5q-23 0 -46.5 9t-44.5 25t-38.5 37.5t-29.5 46.5l24 12q53 -80 113 -80q32 0 60 24.5t45 64.5zM838 660l-64 -64l-65 65
l64 64z" />
    <glyph glyph-name="HIN_SHORT_O_ANUSVAR" horiz-adv-x="793" 
d="M828 466h-82v-466l-55 35v431h-127v-466l-62 35l4 196q-33 -11 -65 -11q-39 0 -80 29l-2 -2q15 -23 15 -51q0 -55 -37.5 -87.5t-97.5 -32.5q-120 0 -208 192l27 16q68 -152 165 -152q21 0 39 8t31 21.5t20 31t7 37.5q0 56 -53 73q-77 -30 -86 -30q-4 0 -11.5 7t-15 15.5
t-13 16.5t-5.5 10q0 8 2 11t8 4.5t17 2t30 3.5t29 4t16.5 2.5t11.5 5.5t14 13q23 25 23 56q0 62 -60 62q-12 0 -31 -6.5t-37 -15t-31.5 -15.5t-13.5 -8q-5 0 -9.5 5.5t-9 14t-8.5 17.5t-7 17q68 35 111 35q22 0 48.5 -12t49 -31.5t37.5 -44t15 -48.5q0 -21 -13.5 -42
t-33.5 -30q67 -52 126 -52q8 0 21 3.5t26 8.5t23.5 11.5t13.5 11.5v161h-121l-30 56h332q-4 11 -11 28t-17 40q-17 26 -87 26h-43q-35 0 -59.5 5.5t-42 20t-30 39t-23.5 62.5l25 15q7 -32 27 -50t57 -18h28q8 0 14.5 0.5t12.5 0.5q48 0 76.5 -12t46 -34t28.5 -53t23 -70h88z
M811 660l-64 -64l-65 65l64 64z" />
    <glyph glyph-name="HIN_O_ANUSVAR" horiz-adv-x="821" 
d="M856 466h-93v-466l-61 35v431h-138v-466l-62 35l4 196q-33 -11 -65 -11q-39 0 -80 29l-2 -2q15 -23 15 -51q0 -55 -37.5 -87.5t-97.5 -32.5q-120 0 -208 192l27 16q68 -152 165 -152q21 0 39 8t31 21.5t20 31t7 37.5q0 56 -53 73q-77 -30 -86 -30q-4 0 -11.5 7t-15 15.5
t-13 16.5t-5.5 10q0 8 2 11t8 4.5t17 2t30 3.5t29 4t16.5 2.5t11.5 5.5t14 13q23 25 23 56q0 62 -60 62q-12 0 -31 -6.5t-37 -15t-31.5 -15.5t-13.5 -8q-5 0 -9.5 5.5t-9 14t-8.5 17.5t-7 17q68 35 111 35q22 0 48.5 -12t49 -31.5t37.5 -44t15 -48.5q0 -21 -13.5 -42
t-33.5 -30q67 -52 126 -52q8 0 21 3.5t26 8.5t23.5 11.5t13.5 11.5v161h-121l-30 56h347q-17 23 -37 48.5t-40.5 46.5t-40.5 35t-37 14q-8 -2 -19 -5.5t-31 -8.5q-2 2 -9 14t-14.5 26t-13.5 26.5t-6 15.5q0 14 49 14q27 0 53.5 -19t54.5 -50.5t58.5 -72.5t63.5 -84h95z
M810 660l-64 -64l-65 65l64 64z" />
    <glyph glyph-name="HIN_AU_ANUSVAR" horiz-adv-x="821" 
d="M856 466h-93v-466l-61 35v431h-138v-466l-62 35l4 196q-33 -11 -65 -11q-39 0 -80 29l-2 -2q15 -23 15 -51q0 -55 -37.5 -87.5t-97.5 -32.5q-120 0 -208 192l27 16q68 -152 165 -152q21 0 39 8t31 21.5t20 31t7 37.5q0 56 -53 73q-77 -30 -86 -30q-4 0 -11.5 7t-15 15.5
t-13 16.5t-5.5 10q0 8 2 11t8 4.5t17 2t30 3.5t29 4t16.5 2.5t11.5 5.5t14 13q23 25 23 56q0 62 -60 62q-12 0 -31 -6.5t-37 -15t-31.5 -15.5t-13.5 -8q-5 0 -9 5q-5 6 -9.5 14t-8.5 17.5t-7 17.5q68 35 111 35q22 0 48.5 -12t49 -31.5t37.5 -44t15 -48.5q0 -21 -13.5 -42
t-33.5 -30q67 -52 126 -52q8 0 21 3.5t26 8.5t23.5 11.5t13.5 11.5v161h-121l-30 56h285q-10 5 -28.5 18.5t-38 28t-37.5 25.5t-28 11q-17 0 -44 -15q-4 7 -10.5 21.5t-12.5 29.5t-10.5 27t-4.5 14q0 11 16 11q34 0 81 -38l67 -54q24 -20 42 -41t40 -38h44q-18 52 -31.5 83
t-27 48t-30 22.5t-40.5 5.5q-5 27 -8 48t-3 34q0 12 12 12q36 0 74 -54q14 -20 33 -70t44 -129h89zM848 660l-64 -64l-65 65l64 64z" />
    <glyph glyph-name="HIN_A_ANUSVAR" horiz-adv-x="605" 
d="M640 466h-76v-466l-62 35l4 196q-33 -11 -65 -11q-39 0 -80 29l-2 -2q15 -23 15 -51q0 -55 -37.5 -87.5t-97.5 -32.5q-120 0 -208 192l27 16q68 -152 165 -152q21 0 39 8t31 21.5t20 31t7 37.5q0 56 -53 73q-77 -30 -86 -30q-4 0 -11.5 7t-15 15.5t-13 16.5t-5.5 10
q0 8 2 11t8 4.5t17 2t30 3.5t29 4t16.5 2.5t11.5 5.5t14 13q23 25 23 56q0 62 -60 62q-12 0 -31 -6.5t-37 -15t-31.5 -15.5t-13.5 -8q-5 0 -9.5 5.5t-9 14t-8.5 17.5t-7 17q68 35 111 35q22 0 48.5 -12t49 -31.5t37.5 -44t15 -48.5q0 -21 -13.5 -42t-33.5 -30
q67 -52 126 -52q8 0 21 3.5t26 8.5t23.5 11.5t13.5 11.5v161h-121l-30 56h257zM602 660l-64 -64l-65 65l64 64z" />
    <glyph glyph-name="HIN_A_CHANDRA" horiz-adv-x="607" 
d="M640 466h-76v-466l-62 35l4 196q-33 -11 -65 -11q-39 0 -80 29l-2 -2q15 -23 15 -51q0 -55 -37.5 -87.5t-97.5 -32.5q-120 0 -208 192l27 16q68 -152 165 -152q21 0 39 8t31 21.5t20 31t7 37.5q0 56 -53 73q-77 -30 -86 -30q-4 0 -11.5 7t-15 15.5t-13 16.5t-5.5 10
q0 8 2 11t8 4.5t17 2t30 3.5t29 4t16.5 2.5t11.5 5.5t14 13q23 25 23 56q0 62 -60 62q-12 0 -31 -6.5t-37 -15t-31.5 -15.5t-13.5 -8q-5 0 -9.5 5.5t-9 14t-8.5 17.5t-7 17q68 35 111 35q22 0 48.5 -12t49 -31.5t37.5 -44t15 -48.5q0 -21 -13.5 -42t-33.5 -30
q67 -52 126 -52q8 0 21 3.5t26 8.5t23.5 11.5t13.5 11.5v161h-121l-30 56h257zM692 686q-55 -103 -151 -103q-25 0 -51.5 9.5t-51.5 27t-46.5 41.5t-36.5 53l31 24q55 -91 133 -91q30 0 63 24t51 61zM580 745l-63 -64l-63 64l63 64z" />
    <glyph glyph-name="HIN_A_VISARG" horiz-adv-x="765" 
d="M800 466h-236v-466l-62 35l4 196q-33 -11 -65 -11q-39 0 -80 29l-2 -2q15 -23 15 -51q0 -55 -37.5 -87.5t-97.5 -32.5q-120 0 -208 192l27 16q68 -152 165 -152q21 0 39 8t31 21.5t20 31t7 37.5q0 56 -53 73q-77 -30 -86 -30q-4 0 -11.5 7t-15 15.5t-13 16.5t-5.5 10
q0 8 2 11t8 4.5t17 2t30 3.5t29 4t16.5 2.5t11.5 5.5t14 13q23 25 23 56q0 62 -60 62q-12 0 -31 -6.5t-37 -15t-31.5 -15.5t-13.5 -8q-5 0 -9.5 5.5t-9 14t-8.5 17.5t-7 17q68 35 111 35q22 0 48.5 -12t49 -31.5t37.5 -44t15 -48.5q0 -21 -13.5 -42t-33.5 -30
q67 -52 126 -52q8 0 21 3.5t26 8.5t23.5 11.5t13.5 11.5v161h-121l-30 56h417zM749 102l-65 -64l-64 65l64 64zM749 366l-64 -64l-65 65l64 64z" />
    <glyph glyph-name="HIN_MARATHI_LA" horiz-adv-x="554" 
d="M589 466h-120v-97q13 -4 25.5 -14.5t21.5 -25t14.5 -32t5.5 -35.5q0 -48 -36.5 -99t-95.5 -88l-39 45q24 13 46.5 32t40.5 40t28.5 42t10.5 39q0 28 -15.5 47t-34.5 19q-79 0 -150 -134l-44 35q4 10 9.5 21t13.5 23q-3 7 -11 15.5t-18.5 15.5t-21 11.5t-18.5 4.5
q-35 0 -58 -26t-23 -64q0 -62 42.5 -113t138.5 -105l-25 -30q-216 139 -216 274q0 23 8.5 45t23.5 38.5t35 26.5t43 10q20 0 34 -4.5t26.5 -13.5t26 -23.5t32.5 -35.5q47 61 120 71v85h-411l-30 56h591z" />
    <glyph glyph-name="HIN_MARATHI_SHA" horiz-adv-x="557" 
d="M592 466h-76v-466l-61 35v431h-219v-35q15 0 33.5 -10t34 -25t26 -32t10.5 -31q0 -25 -11.5 -51.5t-32 -50.5t-47.5 -44t-57 -32l116 -145l-40 -31l-94 142q-9 13 -28 18t-38.5 12.5t-33.5 22t-14 47.5q0 20 10.5 28t30.5 8q15 -1 55 -55q136 54 136 129q0 61 -56 61
q-40 0 -113 -45l-35 53q17 12 43 21t52 14v31h-184l-30 56h593z" />
    <glyph glyph-name="HIN_HALF_KA" horiz-adv-x="381" 
d="M466 243q-23 15 -48 15q-33 0 -79 -33v-225l-62 35l4 148q-71 -44 -110 -44q-29 0 -55 11.5t-45.5 31t-31 45.5t-11.5 55q0 42 31 71.5t85 29.5q24 0 40.5 -3.5t31 -12.5t28.5 -25t33 -41h2v165h-283l-30 56h419l30 -56h-76v-176q33 24 72 24q28 0 55 -12v-59zM280 256
q-29 39 -55.5 55t-68.5 16q-35 0 -59 -22t-24 -56q0 -27 18.5 -43.5t46.5 -16.5q54 0 142 67z" />
    <glyph glyph-name="HIN_HALF_KHA" horiz-adv-x="475" 
d="M537 273q0 -22 -10.5 -42.5t-27 -36t-37 -25t-40.5 -9.5q-29 0 -56.5 10.5t-48.5 29.5t-33.5 43.5t-12.5 53.5q0 21 9.5 39t26.5 32t41 22t53 8q24 0 48.5 -11.5t44 -29.5t31.5 -40.5t12 -43.5zM580 110q-40 -26 -71.5 -43t-59 -27.5t-53.5 -15t-54 -4.5q-105 0 -217 138
q-13 16 -25.5 35t-22 37t-15 31.5t-5.5 19.5q0 7 8 16.5t13 9.5q2 0 59 -20q15 22 15 85q0 25 -1 48.5t-3 45.5h-149l-30 56h506l30 -56h-298q1 -66 3 -101t2 -59q0 -69 -70 -115q28 -36 52.5 -59t49.5 -37t53 -19.5t63 -5.5q73 0 195 86zM502 293q0 55 -80 55
q-21 0 -40 -7.5t-34 -19.5t-23.5 -27t-8.5 -29q0 -55 72 -55q22 0 42.5 7t36.5 18.5t25.5 26.5t9.5 31z" />
    <glyph glyph-name="HIN_HALF_GA" horiz-adv-x="264" 
d="M299 466h-110v-253q0 -16 -10 -27t-24 -11q-2 0 -17 11.5t-32.5 28.5t-31.5 35t-14 32q0 8 6 15t11 7h46q6 0 6 10v152h-129l-30 56h299z" />
    <glyph glyph-name="HIN_HALF_GHA" horiz-adv-x="308" 
d="M391 218q-72 -78 -159 -78q-24 0 -49.5 10t-47 27t-35 39.5t-13.5 46.5q0 48 59 81q-86 53 -86 100v22h-61l-30 56h343l30 -56h-198q-18 -17 -18 -47q0 -34 51 -65h15q57 0 86 -20q18 -47 18 -48q0 -8 -11 -8q-1 0 -12.5 2.5t-25 5.5t-25 5.5t-12.5 2.5q-69 0 -69 -55
q0 -26 16 -44.5t41 -18.5q74 0 193 111v-69z" />
    <glyph glyph-name="HIN_HALF_NGA" horiz-adv-x="620" 
d="M655 466h-252v-106q0 -21 -20 -21h-134q-49 0 -49 -44q0 -31 9 -44t35 -13q1 0 5.5 0.5t12.5 1.5l39 6q21 3 39.5 6t20.5 3q24 0 44 -14.5t34.5 -34.5t22 -40t7.5 -30q0 -26 -10.5 -47t-28.5 -36.5t-42.5 -24t-52.5 -8.5q-69 0 -140.5 50.5t-134.5 138.5l28 21
q29 -42 55.5 -71.5t53 -48t55.5 -26.5t64 -8q22 0 41.5 6.5t34.5 18t23.5 26.5t8.5 32q0 40 -28 40q-3 0 -23 -2.5t-43 -6t-41.5 -6t-19.5 -2.5q-29 0 -48 12.5t-45 48.5q-30 42 -30 77q0 29 21 52t54 23h122v71h-343l-30 56h655zM539 -207q-27 29 -53.5 55t-50.5 46
t-45 31.5t-37 11.5q-42 0 -51 -4q-40 46 -40 62q0 8 37 8q32 0 60.5 -12t58 -35.5t63 -59.5t75.5 -84zM562 296l-59 -58l-59 58l59 58z" />
    <glyph glyph-name="HIN_HALF_CHA" horiz-adv-x="366" 
d="M399 466h-399l-30 56h399zM449 191q-68 -65 -132 -65q-33 0 -61 9.5t-49 26t-32.5 38.5t-11.5 48q0 32 23 61h-97l-30 56h324l30 -53h-3q-4 0 -9 0.5t-13 0.5h-31q-80 0 -100 -11q-16 -9 -28 -31t-12 -46q0 -63 62 -63q45 0 170 102v-73z" />
    <glyph glyph-name="HIN_HALF_CHHA" horiz-adv-x="542" 
d="M573 466h-116v-77q67 -46 67 -134q0 -50 -23 -94t-59 -76t-79.5 -50.5t-84.5 -18.5q-29 0 -58.5 10t-53.5 27.5t-39.5 40t-15.5 47.5q0 31 35 61q-86 56 -86 98t30 66t78 24q28 0 43 -4t24 -12t13.5 -20.5t11.5 -30.5q-39 11 -63 11q-83 0 -83 -54q0 -11 6 -20t15 -15.5
t20.5 -10.5t22.5 -4q2 0 19 4.5t34 4.5q31 0 44 -7q25 -43 25 -50q0 -6 -5 -6l-5 1q-6 2 -19 4t-25 2q-15 0 -29.5 -6t-26 -16.5t-18.5 -24t-7 -28.5q0 -23 22 -35.5t52 -12.5q25 0 54.5 8.5t57 22t50.5 31.5t34 37l-72 52q-57 46 -57 100q0 38 24.5 65t66.5 33v57h-397
l-30 56h573zM479 282q0 35 -17.5 60.5t-42.5 25.5q-23 0 -38 -21.5t-15 -50.5q0 -73 85 -110q28 43 28 96zM543 -207q-28 29 -55 55t-51.5 46t-46 31.5t-37.5 11.5q-42 0 -51 -4q-40 46 -40 62q0 8 37 8q32 0 60.5 -12t58 -35.5t63 -59.5t75.5 -84z" />
    <glyph glyph-name="HIN_HALF_JA" horiz-adv-x="397" 
d="M431 466h-434l-30 56h434zM465 294h-212v-2q51 -35 51 -90q0 -17 -8 -32t-20.5 -26t-29 -17t-33.5 -6q-116 0 -195 208l33 14q12 -44 28.5 -75.5t35.5 -51.5t38.5 -29.5t36.5 -9.5q25 0 39.5 16.5t14.5 41.5q0 8 -6 19.5t-16 24t-24 25t-29 21.5l7 19h289v-50z" />
    <glyph glyph-name="HIN_HALF_JHA" horiz-adv-x="342" 
d="M429 260q-41 -38 -93 -38q-14 0 -32 5l-2 -1q26 -38 26 -61q0 -92 -130 -120l117 -122l-29 -26q-97 127 -125 138q-23 4 -38.5 7t-22.5 7q-14 8 -24 29.5t-10 42.5q0 8 10.5 18.5t27.5 10.5q7 0 17 -8.5t20 -19t18.5 -19t11.5 -8.5q19 0 39 6.5t36.5 18.5t26.5 28t10 35
q0 38 -28 38q-3 0 -15 -3t-25.5 -7t-26.5 -7t-19 -3q-19 0 -38.5 15t-35 37.5t-25.5 48.5t-10 49q0 49 57 49h124v66h-242l-30 56h378l30 -56h-82v-103q0 -13 -19 -13h-128q-43 0 -43 -29q0 -26 15 -48t36 -22q5 0 17.5 3t26 7t26 7t17.5 3q16 0 25 -6.5t16 -6.5
q57 0 145 67v-65z" />
    <glyph glyph-name="HIN_HALF_NYA" horiz-adv-x="377" 
d="M412 466h-413l-30 56h413zM462 230q-45 -9 -75 -9h-8q-23 -90 -117 -90q-104 0 -202 137l25 22q12 -21 29.5 -39.5t37 -32.5t40.5 -22.5t39 -8.5q43 0 72.5 27t29.5 70q0 20 -11 37.5t-27 17.5q-6 0 -17 -5.5t-23 -13.5t-23 -17.5t-17 -18.5l-50 51q40 40 95 40
q48 0 82 -26.5t45 -71.5q59 6 75 16v-63z" />
    <glyph glyph-name="HIN_HALF_TTA" horiz-adv-x="403" 
d="M434 466h-106q3 -84 3 -116q0 -35 -7 -47.5t-26 -18.5q-18 -5 -49.5 -12.5t-76.5 -15.5q-58 -10 -58 -70q0 -18 8 -35t21 -30t30.5 -20.5t35.5 -7.5q74 0 178 52l26 -54q-83 -48 -165 -48q-36 0 -70 15t-60.5 40t-42 57t-15.5 66q0 30 14 48.5t39.5 30t59.5 19t75 15.5
q13 2 18 14.5t5 52.5q0 41 -3 65h-269l-30 56h435zM459 -207q-27 29 -53.5 55t-50.5 46t-45 31.5t-37 11.5q-42 0 -51 -4q-40 46 -40 62q0 8 37 8q32 0 60.5 -12t58 -35.5t63 -59.5t75.5 -84z" />
    <glyph glyph-name="HIN_HALF_TTHA" horiz-adv-x="457" 
d="M488 466h-121q23 -32 23 -78q0 -42 -49 -84q98 -59 98 -130q0 -30 -14.5 -57t-37.5 -47.5t-53 -32t-61 -11.5q-39 0 -77 16t-68.5 43.5t-49 63t-18.5 74.5q0 110 202 110q29 0 48.5 19t19.5 51q0 27 -14 63h-316l-30 56h488zM458 -207q-19 29 -41 55t-44 46t-43 31.5
t-37 11.5q-42 0 -51 -4q-40 46 -40 62q0 8 37 8q32 0 60.5 -12t58 -35.5t63 -59.5t75.5 -84zM385 193q0 36 -22.5 63t-58.5 27q-40 0 -74.5 -6t-60 -17t-40.5 -27t-15 -36q0 -55 36.5 -88t97.5 -33q24 0 48.5 9t44 24.5t32 37t12.5 46.5z" />
    <glyph glyph-name="HIN_HALF_DDA" horiz-adv-x="522" 
d="M553 466h-132v-106q0 -21 -20 -21h-152q-49 0 -49 -44q0 -31 9 -44t35 -13q2 0 20.5 2.5t41 6t42.5 6t25 2.5q24 0 44 -14.5t34.5 -34.5t22 -40t7.5 -30q0 -26 -10.5 -47t-28.5 -36.5t-42.5 -24t-52.5 -8.5q-155 0 -287 189l28 21q30 -43 56.5 -72.5t54 -47.5t59 -26
t70.5 -8q22 0 41.5 6.5t34.5 18t23.5 26.5t8.5 32q0 40 -28 40q-11 0 -36.5 -3t-58.5 -8l-44 -6q-29 0 -48 12.5t-45 48.5q-30 42 -30 77q0 29 21 52t54 23h140v71h-360l-30 56h552zM523 -207q-21 29 -44 55t-45.5 46t-43.5 31.5t-37 11.5q-42 0 -51 -4q-40 46 -40 62
q0 8 37 8q32 0 60.5 -12t58 -35.5t63 -59.5t75.5 -84z" />
    <glyph glyph-name="HIN_HALF_DDHA" horiz-adv-x="460" 
d="M491 466h-113v-115q0 -20 -20 -20q-51 0 -153 -3q-91 -3 -91 -111q0 -26 9 -49t25 -41t37.5 -29.5t46.5 -14.5q-20 35 -20 80q0 104 103 104q23 0 43 -10.5t35 -29t23.5 -43.5t8.5 -54q0 -24 -10.5 -44t-28.5 -34.5t-43 -23t-53 -8.5q-60 0 -129 54q-101 78 -101 195
q0 38 14 61t41.5 36t68 17t93.5 4h41v79h-320l-30 56h493zM461 -207q-20 29 -42.5 55t-45 46t-43.5 31.5t-37 11.5q-42 0 -51 -4q-40 46 -40 62q0 8 37 8q32 0 60.5 -12t58 -35.5t63 -59.5t75.5 -84zM390 158q0 22 -18 37.5t-44 15.5q-35 0 -53.5 -28.5t-18.5 -80.5
q0 -9 3.5 -17.5t16.5 -8.5q22 0 42.5 6.5t36.5 18t25.5 26t9.5 31.5z" />
    <glyph glyph-name="HIN_HALF_NNA" horiz-adv-x="369" 
d="M404 466h-72v-224q0 -36 -29.5 -59t-68.5 -23q-19 0 -43.5 12.5t-46.5 31t-37 41t-15 43.5v178h-93l-30 56h405zM272 466h-120v-209q0 -11 5 -21t12.5 -17t16.5 -11t18 -4q68 0 68 74v188z" />
    <glyph glyph-name="HIN_HALF_TA" horiz-adv-x="243" 
d="M281 466h-281l-30 56h281zM327 317h-123q-90 0 -90 -81q0 -66 108 -198l-32 -26q-130 163 -130 258q0 48 29 75.5t77 27.5h161v-56z" />
    <glyph glyph-name="HIN_HALF_THA" horiz-adv-x="390" 
d="M410 210q-76 -76 -141 -76q-87 0 -154 64q-49 46 -49 56q0 2 15 9t34.5 16.5t39 19.5t29.5 18q-124 37 -124 110q0 19 7.5 37.5t20 33t30 23.5t37.5 9q24 0 49.5 -10.5t46 -28t34 -41t13.5 -48.5q0 -94 -141 -164q9 -60 74 -60q87 0 179 113v-81zM238 416
q0 33 -14.5 51.5t-35.5 18.5q-24 0 -43 -18.5t-19 -42.5q0 -30 24.5 -52.5t59.5 -31.5q28 24 28 75z" />
    <glyph glyph-name="HIN_HALF_DA" horiz-adv-x="414" 
d="M445 466h-83v-115q0 -17 -20 -17q-170 0 -196 -20q-32 -26 -32 -72q0 -23 10 -43.5t28 -37t42 -26t52 -9.5q15 0 35 5q-23 32 -23 54q0 28 28 28q9 0 24.5 -6t29.5 -16t24.5 -21.5t10.5 -21.5q0 -40 -31 -55q11 -23 28.5 -55.5t42.5 -74.5l-34 -19q-22 42 -38.5 74.5
t-29.5 58.5q-13 -7 -50 -7q-34 0 -70 18.5t-65.5 48.5t-48.5 68t-19 77q0 57 40.5 82.5t131.5 25.5h70v76h-303l-30 56h446zM459 -207q-27 29 -53.5 55t-50.5 46t-45 31.5t-37 11.5q-42 0 -51 -4q-40 46 -40 62q0 8 37 8q32 0 60.5 -12t58 -35.5t63 -59.5t75.5 -84z" />
    <glyph glyph-name="HIN_HALF_DHA" horiz-adv-x="328" 
d="M361 466h-46l-30 56h46zM413 207q-77 -80 -149 -80q-29 0 -57.5 11t-51.5 29t-37.5 41t-14.5 47q0 50 52 72q-30 18 -48.5 33t-29 30t-14 31t-3.5 36q0 33 23.5 56t55.5 23q42 0 68 -24.5t26 -62.5q0 -32 -21.5 -54.5t-56.5 -27.5q15 -20 49 -20q5 0 23 1t30 1
q29 0 37 -3q24 -32 24 -47q0 -11 -17 -11q-13 0 -34.5 2.5t-31.5 2.5q-78 0 -78 -68q0 -26 21.5 -44t50.5 -18q68 0 184 114v-70zM198 444q0 18 -12 30t-29 12q-20 0 -31.5 -13.5t-11.5 -30.5q0 -32 23 -55q61 4 61 57z" />
    <glyph glyph-name="HIN_HALF_NA" horiz-adv-x="246" 
d="M277 466h-277l-30 56h277zM332 255h-153q-18 0 -18 -10v-53q0 -21 -22 -21q-7 0 -20 15.5t-26 35t-23 37.5t-10 23q0 16 14 22.5t54 6.5h204v-56z" />
    <glyph glyph-name="HIN_HALF_PA" horiz-adv-x="252" 
d="M337 214q-57 -36 -103 -36q-19 0 -43.5 12.5t-46.5 31t-37 41t-15 43.5v160h-94l-30 56h285l30 -56h-131v-162q0 -76 53 -76q44 0 132 55v-69z" />
    <glyph glyph-name="HIN_HALF_PHA" horiz-adv-x="414" 
d="M493 245q-17 14 -51 14q-35 0 -75 -30v-229l-61 35l4 165q-43 -22 -76 -22q-19 0 -43.5 12.5t-46.5 31t-37 41t-15 43.5v160h-92l-30 56h446l30 -56h-78v-173q31 22 64 22q38 0 61 -20v-50zM308 466h-156v-162q0 -76 53 -76q50 0 103 41v197z" />
    <glyph glyph-name="HIN_HALF_BA" horiz-adv-x="343" 
d="M376 466h-378l-30 56h378zM382 249q0 -27 -12 -50t-32.5 -39t-48.5 -25t-59 -9q-34 0 -65 12.5t-54 33.5t-37 47.5t-14 55.5q0 22 11.5 42.5t32 36.5t49.5 25.5t64 9.5q33 0 63 -13.5t52.5 -34.5t36 -45.5t13.5 -46.5zM332 261q0 39 -22.5 61.5t-54.5 22.5q-39 0 -62 -10
l89 -139q50 26 50 65zM164 320q-10 -5 -19 -14.5t-16 -20.5t-11 -23t-4 -22q0 -70 81 -70q23 0 58 11z" />
    <glyph glyph-name="HIN_HALF_BHA" horiz-adv-x="346" 
d="M376 466h-43l-30 56h43zM427 218h-173v-51q0 -17 -18 -17q-5 0 -22 12t-35.5 28t-33 32t-14.5 24q0 22 19 22h44l3 57q-137 41 -137 121q0 38 21 61t58 23q54 0 84.5 -40.5t30.5 -112.5v-109h173v-50zM204 420q0 66 -42 66q-19 0 -30.5 -16.5t-11.5 -36.5q0 -13 7 -25.5
t18 -22.5t26 -16.5t30 -7.5q3 30 3 59z" />
    <glyph glyph-name="HIN_HALF_MA" horiz-adv-x="302" 
d="M385 212h-202v-46q0 -25 -20 -25q-6 0 -23 14t-35 32.5t-31.5 35.5t-13.5 23q0 22 19 22h44v198h-123l-30 56h333l30 -56h-150v-198h202v-56z" />
    <glyph glyph-name="HIN_HALF_YA" horiz-adv-x="300" 
d="M377 215q-72 -63 -127 -63q-146 0 -190 164q58 11 92.5 33.5t34.5 50.5q0 17 -28 66h-160l-30 56h331l30 -56h-125q36 -68 36 -102q0 -56 -112 -93q0 -75 67 -75q88 0 181 93v-74z" />
    <glyph glyph-name="HIN_HALF_MRATHI_YA" horiz-adv-x="443" 
d="M478 466h-70v-466l-62 39l4 95q-11 -8 -26 -16t-30 -14t-29 -9.5t-23 -3.5q-67 0 -114 38.5t-59 101.5q27 0 51 4.5t41.5 12t28 18.5t10.5 25q0 29 -38 46t-98 17h-151l-7 56h144q45 0 79.5 -11.5t58 -31t35.5 -45.5t12 -54q0 -63 -85 -79q11 -62 57 -62q19 0 39 7
t38.5 19.5t35 29t28.5 35.5v248h-504l-30 56h634z" />
    <glyph glyph-name="HIN_HALF_RA" horiz-adv-x="311" 
d="M342 466h-119v-172q0 -24 -10.5 -41t-22.5 -28.5t-22.5 -18.5t-10.5 -12t161 -169l-27 -32q-48 49 -90 94t-73.5 82.5t-49.5 65t-18 41.5q0 12 9 23t19 11l9 -5q7 -3 15.5 -7t16.5 -8t13.5 -6.5t7.5 -2.5q13 0 13 125q0 11 -1 26t-3 34h-159l-30 56h342zM419 -207
q-27 29 -53.5 55t-50.5 46t-45 31.5t-37 11.5q-42 0 -51 -4q-40 46 -40 62q0 8 37 8q32 0 60.5 -12t58 -35.5t63 -59.5t75.5 -84z" />
    <glyph glyph-name="HIN_HALF_LA" horiz-adv-x="408" 
d="M441 466h-439l-30 56h439zM473 277q-30 42 -56 42q-17 0 -31 -6t-28 -19.5t-28 -36t-31 -55.5l-46 33q7 16 24 42q-6 10 -15.5 20t-20 17.5t-21 12t-19.5 4.5q-35 0 -58 -26t-23 -64q0 -62 42.5 -113t138.5 -105l-25 -30q-216 139 -216 274q0 23 8.5 45t23.5 38.5
t35 26.5t43 10q22 0 40 -8t32.5 -20.5t26.5 -27t23 -27.5q48 65 97 65q38 0 84 -46v-46z" />
    <glyph glyph-name="HIN_HALF_MARATHI_LA" horiz-adv-x="555" 
d="M589 466h-120v-97q13 -4 25.5 -14.5t21.5 -25t14.5 -32t5.5 -35.5q0 -48 -36.5 -99t-95.5 -88l-39 45q24 13 46.5 32t40.5 40t28.5 42t10.5 39q0 28 -15.5 47t-34.5 19q-79 0 -150 -134l-44 35q4 10 9.5 21t13.5 23q-3 7 -11 15.5t-18.5 15.5t-21 11.5t-18.5 4.5
q-35 0 -58 -26t-23 -64q0 -62 42.5 -113t138.5 -105l-25 -30q-216 139 -216 274q0 23 8.5 45t23.5 38.5t35 26.5t43 10q20 0 34 -4.5t26.5 -13.5t26 -23.5t32.5 -35.5q47 61 120 71v85h-411l-30 56h591zM629 -177q-27 29 -53.5 55t-50.5 46t-45 31.5t-37 11.5q-42 0 -51 -4
q-40 46 -40 62q0 8 37 8q32 0 60.5 -12t58 -35.5t63 -59.5t75.5 -84z" />
    <glyph glyph-name="HIN_HALF_LLA" horiz-adv-x="598" 
d="M633 466h-634l-30 56h634zM583 210q0 -27 -12 -53.5t-32 -47t-45 -33t-51 -12.5q-56 0 -119 68q-27 -38 -54 -55t-70 -17q-27 0 -52.5 12.5t-45 33.5t-31 49t-11.5 58q0 28 10.5 54t29 45.5t43.5 31t54 11.5q25 0 43.5 -6.5t33.5 -17.5t26.5 -24.5t23.5 -28.5
q40 82 132 82q27 0 50 -13t40 -34t27 -48t10 -55zM538 246q0 32 -20.5 52t-53.5 20q-69 0 -126 -159q31 -45 80 -45q21 0 42 10.5t38.5 28.5t28.5 42t11 51zM311 249q-30 56 -90 56q-23 0 -43.5 -11t-37 -28.5t-26 -39.5t-9.5 -44q0 -78 73 -78q22 0 39 7t32 23.5t29.5 44.5
t32.5 70z" />
    <glyph glyph-name="HIN_HALF_VA" horiz-adv-x="297" 
d="M328 466h-328l-30 56h328zM375 205q-86 -75 -160 -75q-27 0 -55 12.5t-50 33.5t-36 48t-14 56q0 54 37 84t103 30q25 0 43 -3t32.5 -9.5t27 -17t25.5 -25.5l47 -58v-76zM360 272q-71 66 -140 66q-49 0 -77.5 -24.5t-28.5 -55.5q0 -84 79 -84q17 0 38.5 7.5t44 21
t44.5 31.5t40 38z" />
    <glyph glyph-name="HIN_HALF_SHA" horiz-adv-x="369" 
d="M403 466h-112q47 -65 47 -111q0 -129 -145 -201l115 -144l-40 -31l-94 142q-9 13 -28 18t-38 12.5t-33.5 22t-14.5 47.5q0 20 10.5 28t30.5 8q15 -1 55 -55q67 21 103 81q-171 45 -171 135q0 22 17 48h-106l-30 56h404zM278 366q0 51 -18.5 81.5t-51.5 30.5
q-26 0 -40 -20.5t-14 -49.5q0 -66 115 -96q9 28 9 54z" />
    <glyph glyph-name="HIN_HALF_MARATHI_SHA" horiz-adv-x="408" 
d="M443 466h-207v-35q15 0 33.5 -10t34 -25t26 -32t10.5 -31q0 -25 -11.5 -51.5t-32 -50.5t-47.5 -44t-57 -32l116 -145l-40 -31l-94 142q-9 13 -28 18t-38 12.5t-33.5 22t-14.5 47.5q0 20 10.5 28t30.5 8q15 -1 55 -55q136 54 136 129q0 61 -56 61q-40 0 -113 -45l-35 53
q17 12 43 21t52 14v31h-184l-30 56h445z" />
    <glyph glyph-name="HIN_HALF_SHHA" horiz-adv-x="264" 
d="M346 213q-10 -12 -26 -23t-33.5 -19.5t-34.5 -13t-30 -4.5q-20 0 -42.5 11t-42 29t-32.5 40.5t-13 45.5v187h-93l-30 56h295l30 -56h-148l185 -184l15 17v-86zM152 419v-159q0 -63 43 -63q31 0 64 17.5t55 43.5z" />
    <glyph glyph-name="HIN_HALF_SA" horiz-adv-x="353" 
d="M427 236q-49 -31 -88 -31q-67 0 -118 54q-21 -23 -35.5 -34.5t-23 -16.5t-12.5 -7t-4 -7q0 -2 158 -166l-28 -28q-66 75 -108 123t-61 71q-47 59 -47 82q0 12 9 23t19 11l9 -5q7 -3 15.5 -7t16.5 -8t13.5 -6.5t7.5 -2.5q13 0 13 125q0 11 -1 26t-3 34h-159l-30 56h385
l30 -56h-162v-172q55 -33 97 -33q47 0 107 42v-67z" />
    <glyph glyph-name="HIN_HALF_HA" horiz-adv-x="333" 
d="M360 200q-30 37 -112 37q-24 0 -46 -10t-39 -25.5t-27 -35.5t-10 -40q0 -24 10.5 -43.5t34.5 -37t63 -33.5t95 -32l-9 -34q-56 13 -102.5 34t-80 48t-52.5 57t-19 61q0 48 32 80q-56 56 -56 99q0 73 76 73h121v68h-237l-30 56h363l30 -56h-66v-104q0 -20 -19 -20h-150
q-15 0 -29 -11.5t-14 -28.5q0 -31 33 -53q47 32 112 32q22 0 45 -4t43.5 -11.5t37 -17t25.5 -21.5z" />
    <glyph glyph-name="HIN_KA_HALANT" horiz-adv-x="621" 
d="M656 466h-295v-172q55 45 94 45q21 0 41 -12t35.5 -33t24.5 -49t9 -61q0 -52 -53 -135l-51 46q59 80 59 139q0 22 -14.5 35.5t-35.5 13.5q-39 0 -109 -60v-223l-62 35l4 148q-71 -44 -110 -44q-29 0 -55 11.5t-45.5 31t-31 45.5t-11.5 55q0 42 31 71.5t85 29.5
q28 0 46.5 -5.5t32.5 -16t26.5 -26t27.5 -34.5h2v165h-310l-30 56h665zM539 -213q-27 29 -53.5 55t-50.5 46t-45 31.5t-37 11.5q-42 0 -51 -4q-40 46 -40 62q0 8 37 8q32 0 60.5 -12t58 -35.5t63 -59.5t75.5 -84zM302 256q-29 39 -55.5 55t-68.5 16q-35 0 -59 -22t-24 -56
q0 -27 18.5 -43.5t46.5 -16.5q54 0 142 67z" />
    <glyph glyph-name="HIN_KHA_HALANT" horiz-adv-x="634" 
d="M665 466h-76v-466l-60 35l2 55q-101 -74 -186 -74q-31 0 -67.5 14t-73 42.5t-70.5 70.5t-59 98q-15 31 -15 40q0 7 8 16.5t13 9.5q2 0 59 -20q15 22 15 85q0 25 -1 48.5t-3 45.5h-153l-30 56h667zM739 -207q-27 29 -53.5 55t-50.5 46t-45 31.5t-37 11.5q-42 0 -51 -4
q-40 46 -40 62q0 8 37 8q32 0 60.5 -12t58 -35.5t63 -59.5t75.5 -84zM530 274q-29 40 -55.5 56t-68.5 16q-35 0 -59 -22t-24 -56q0 -27 18.5 -43.5t46.5 -16.5q53 0 142 66zM529 202q-68 -44 -108 -44q-29 0 -55 11.5t-45.5 31t-31 45.5t-11.5 55q0 42 31 71.5t85 29.5
q24 0 40.5 -3.5t31 -12.5t28.5 -25t33 -41h2v146h-319q1 -66 3 -101t2 -59q0 -67 -70 -118q36 -55 86 -88.5t99 -33.5q22 0 41.5 3.5t42 13t50 27t65.5 45.5v47z" />
    <glyph glyph-name="HIN_GA_HALANT" horiz-adv-x="442" 
d="M473 466h-76v-466l-61 35v431h-146v-253q0 -16 -10 -27t-24 -11q-2 0 -17 11.5t-32.5 28.5t-31.5 35t-14 32q0 8 6 15t11 7h46q6 0 6 10v152h-130l-30 56h473zM539 -207q-27 29 -53.5 55t-50.5 46t-45 31.5t-37 11.5q-42 0 -51 -4q-40 46 -40 62q0 8 37 8q32 0 60.5 -12
t58 -35.5t63 -59.5t75.5 -84z" />
    <glyph glyph-name="HIN_GHA_HALANT" horiz-adv-x="487" 
d="M518 466h-76v-466l-61 35l1 173q-68 -68 -150 -68q-24 0 -49.5 10t-47 27t-35 39.5t-13.5 46.5q0 48 59 81q-86 53 -86 100v22h-61l-30 56h519zM579 -207q-27 29 -53.5 55t-50.5 46t-45 31.5t-37 11.5q-42 0 -51 -4q-40 46 -40 62q0 8 37 8q32 0 60.5 -12t58 -35.5
t63 -59.5t75.5 -84zM383 466h-239q-18 -17 -18 -47q0 -34 51 -65h15q57 0 86 -20q18 -47 18 -48q0 -8 -11 -8q-1 0 -12.5 2.5t-25 5.5t-25 5.5t-12.5 2.5q-69 0 -69 -55q0 -26 16 -44.5t41 -18.5q73 0 185 103v187z" />
    <glyph glyph-name="HIN_NGA_HALANT" horiz-adv-x="620" 
d="M655 466h-252v-106q0 -21 -20 -21h-134q-49 0 -49 -44q0 -31 9 -44t35 -13q1 0 5.5 0.5t12.5 1.5l39 6q21 3 39.5 6t20.5 3q24 0 44 -14.5t34.5 -34.5t22 -40t7.5 -30q0 -26 -10.5 -47t-28.5 -36.5t-42.5 -24t-52.5 -8.5q-69 0 -140.5 50.5t-134.5 138.5l28 21
q29 -42 55.5 -71.5t53 -48t55.5 -26.5t64 -8q22 0 41.5 6.5t34.5 18t23.5 26.5t8.5 32q0 40 -28 40q-3 0 -23 -2.5t-43 -6t-41.5 -6t-19.5 -2.5q-29 0 -48 12.5t-45 48.5q-30 42 -30 77q0 29 21 52t54 23h122v71h-343l-30 56h655zM539 -207q-27 29 -53.5 55t-50.5 46
t-45 31.5t-37 11.5q-42 0 -51 -4q-40 46 -40 62q0 8 37 8q32 0 60.5 -12t58 -35.5t63 -59.5t75.5 -84zM562 296l-59 -58l-59 58l59 58z" />
    <glyph glyph-name="HIN_CHA_HALANT" horiz-adv-x="538" 
d="M569 466h-76v-466l-62 35l4 142q-53 -51 -117 -51q-33 0 -61 9.5t-49 26t-32.5 38.5t-11.5 48q0 32 23 61h-97l-30 56h324l30 -53h-3q-4 0 -9 0.5t-13 0.5h-31q-80 0 -100 -11q-16 -9 -28 -31t-12 -46q0 -63 62 -63q50 0 153 91v213h-433l-30 56h569zM639 -207
q-27 29 -53.5 55t-50.5 46t-45 31.5t-37 11.5q-42 0 -51 -4q-40 46 -40 62q0 8 37 8q32 0 60.5 -12t58 -35.5t63 -59.5t75.5 -84z" />
    <glyph glyph-name="HIN_CHHA_HALANT" horiz-adv-x="538" 
d="M573 466h-116v-77q67 -46 67 -134q0 -50 -23 -94t-59 -76t-79.5 -50.5t-84.5 -18.5q-29 0 -58.5 10t-53.5 27.5t-39.5 40t-15.5 47.5q0 31 35 61q-86 56 -86 98t30 66t78 24q28 0 43 -4t24 -12t13.5 -20.5t11.5 -30.5q-39 11 -63 11q-83 0 -83 -54q0 -11 6 -20t15 -15.5
t20.5 -10.5t22.5 -4q2 0 19 4.5t34 4.5q31 0 44 -7q25 -43 25 -50q0 -6 -5 -6l-5 1q-6 2 -19 4t-25 2q-15 0 -29.5 -6t-26 -16.5t-18.5 -24t-7 -28.5q0 -23 22 -35.5t52 -12.5q25 0 54.5 8.5t57 22t50.5 31.5t34 37l-72 52q-57 46 -57 100q0 38 24.5 65t66.5 33v57h-397
l-30 56h573zM479 282q0 35 -17.5 60.5t-42.5 25.5q-23 0 -38 -21.5t-15 -50.5q0 -73 85 -110q28 43 28 96zM543 -207q-28 29 -55 55t-51.5 46t-46 31.5t-37.5 11.5q-42 0 -51 -4q-40 46 -40 62q0 8 37 8q32 0 60.5 -12t58 -35.5t63 -59.5t75.5 -84z" />
    <glyph glyph-name="HIN_JA_HALANT" horiz-adv-x="538" 
d="M569 466h-76v-466l-62 35v281h-140q22 -23 36 -40t22.5 -31t11.5 -27t3 -28q0 -18 -8 -33t-20.5 -26t-29 -17.5t-33.5 -6.5q-30 0 -56 11t-51 37t-50.5 69t-55.5 106l33 14q13 -31 30.5 -62.5t37.5 -57t43.5 -41.5t48.5 -16q53 0 53 56q0 62 -114 128l8 21h233v94h-432
l-30 56h568zM639 -207q-27 29 -53.5 55t-50.5 46t-45 31.5t-37 11.5q-42 0 -51 -4q-40 46 -40 62q0 8 37 8q32 0 60.5 -12t58 -35.5t63 -59.5t75.5 -84z" />
    <glyph glyph-name="HIN_JHA_HALANT" horiz-adv-x="515" 
d="M548 466h-76v-466l-61 35l1 211q-35 -24 -76 -24q-14 0 -32 5l-2 -1q26 -38 26 -61q0 -92 -130 -120l117 -122l-29 -26q-97 127 -125 138q-23 4 -38.5 7t-22.5 7q-14 8 -24 29.5t-10 42.5q0 8 10.5 18.5t27.5 10.5q7 0 17 -8.5t20 -19t18.5 -19t11.5 -8.5q19 0 39 6.5
t36.5 18.5t26.5 28t10 35q0 38 -28 38q-3 0 -15 -3t-25.5 -7t-26.5 -7t-19 -3q-19 0 -38.5 15t-35 37.5t-25.5 48.5t-10 49q0 49 57 49h124v66h-242l-30 56h549zM619 -207q-27 29 -53.5 55t-50.5 46t-45 31.5t-37 11.5q-42 0 -51 -4q-40 46 -40 62q0 8 37 8q32 0 60.5 -12
t58 -35.5t63 -59.5t75.5 -84zM413 466h-118v-103q0 -13 -19 -13h-128q-43 0 -43 -29q0 -26 15 -48t36 -22q5 0 17.5 3t26 7t26 7t17.5 3q16 0 25 -6.5t16 -6.5q53 0 129 55v153z" />
    <glyph glyph-name="HIN_NYA_HALANT" horiz-adv-x="557" 
d="M588 466h-76v-466l-61 35l1 193q-20 -3 -36.5 -5t-29.5 -2h-7q-23 -90 -117 -90q-104 0 -202 137l25 22q12 -21 29.5 -39.5t37 -32.5t40.5 -22.5t39 -8.5q43 0 72.5 27t29.5 70q0 20 -11 37.5t-27 17.5q-6 0 -17 -5.5t-23 -13.5t-23 -17.5t-17 -18.5l-50 51q40 40 95 40
q48 0 82 -26.5t45 -71.5q46 5 65 12v177h-453l-30 56h589zM639 -207q-27 29 -53.5 55t-50.5 46t-45 31.5t-37 11.5q-42 0 -51 -4q-40 46 -40 62q0 8 37 8q32 0 60.5 -12t58 -35.5t63 -59.5t75.5 -84z" />
    <glyph glyph-name="HIN_TTA_HALANT" horiz-adv-x="403" 
d="M434 466h-106q3 -84 3 -116q0 -35 -7 -47.5t-26 -18.5q-18 -5 -49.5 -12.5t-76.5 -15.5q-58 -10 -58 -70q0 -18 8 -35t21 -30t30.5 -20.5t35.5 -7.5q74 0 178 52l26 -54q-83 -48 -165 -48q-36 0 -70 15t-60.5 40t-42 57t-15.5 66q0 30 14 48.5t39.5 30t59.5 19t75 15.5
q13 2 18 14.5t5 52.5q0 41 -3 65h-269l-30 56h435zM459 -207q-27 29 -53.5 55t-50.5 46t-45 31.5t-37 11.5q-42 0 -51 -4q-40 46 -40 62q0 8 37 8q32 0 60.5 -12t58 -35.5t63 -59.5t75.5 -84z" />
    <glyph glyph-name="HIN_TTHA_HALANT" horiz-adv-x="457" 
d="M488 466h-121q23 -32 23 -78q0 -42 -49 -84q98 -59 98 -130q0 -30 -14.5 -57t-37.5 -47.5t-53 -32t-61 -11.5q-39 0 -77 16t-68.5 43.5t-49 63t-18.5 74.5q0 110 202 110q29 0 48.5 19t19.5 51q0 27 -14 63h-316l-30 56h488zM458 -207q-19 29 -41 55t-44 46t-43 31.5
t-37 11.5q-42 0 -51 -4q-40 46 -40 62q0 8 37 8q32 0 60.5 -12t58 -35.5t63 -59.5t75.5 -84zM385 193q0 36 -22.5 63t-58.5 27q-40 0 -74.5 -6t-60 -17t-40.5 -27t-15 -36q0 -55 36.5 -88t97.5 -33q24 0 48.5 9t44 24.5t32 37t12.5 46.5z" />
    <glyph glyph-name="HIN_DDA_HALANT" horiz-adv-x="522" 
d="M553 466h-132v-106q0 -21 -20 -21h-152q-49 0 -49 -44q0 -31 9 -44t35 -13q2 0 20.5 2.5t41 6t42.5 6t25 2.5q24 0 44 -14.5t34.5 -34.5t22 -40t7.5 -30q0 -26 -10.5 -47t-28.5 -36.5t-42.5 -24t-52.5 -8.5q-155 0 -287 189l28 21q30 -43 56.5 -72.5t54 -47.5t59 -26
t70.5 -8q22 0 41.5 6.5t34.5 18t23.5 26.5t8.5 32q0 40 -28 40q-11 0 -36.5 -3t-58.5 -8l-44 -6q-29 0 -48 12.5t-45 48.5q-30 42 -30 77q0 29 21 52t54 23h140v71h-360l-30 56h552zM523 -207q-21 29 -44 55t-45.5 46t-43.5 31.5t-37 11.5q-42 0 -51 -4q-40 46 -40 62
q0 8 37 8q32 0 60.5 -12t58 -35.5t63 -59.5t75.5 -84z" />
    <glyph glyph-name="HIN_DDHA_HALANT" horiz-adv-x="460" 
d="M491 466h-113v-115q0 -20 -20 -20q-51 0 -153 -3q-91 -3 -91 -111q0 -26 9 -49t25 -41t37.5 -29.5t46.5 -14.5q-20 35 -20 80q0 104 103 104q23 0 43 -10.5t35 -29t23.5 -43.5t8.5 -54q0 -24 -10.5 -44t-28.5 -34.5t-43 -23t-53 -8.5q-60 0 -129 54q-101 78 -101 195
q0 38 14 61t41.5 36t68 17t93.5 4h41v79h-320l-30 56h493zM461 -207q-20 29 -42.5 55t-45 46t-43.5 31.5t-37 11.5q-42 0 -51 -4q-40 46 -40 62q0 8 37 8q32 0 60.5 -12t58 -35.5t63 -59.5t75.5 -84zM390 158q0 22 -18 37.5t-44 15.5q-35 0 -53.5 -28.5t-18.5 -80.5
q0 -9 3.5 -17.5t16.5 -8.5q22 0 42.5 6.5t36.5 18t25.5 26t9.5 31.5z" />
    <glyph glyph-name="HIN_NNA_HALANT" horiz-adv-x="537" 
d="M568 466h-76v-466l-61 35v431h-99v-224q0 -36 -29.5 -59t-68.5 -23q-19 0 -43.5 12.5t-46.5 31t-37 41t-15 43.5v178h-93l-30 56h569zM639 -207q-27 29 -53.5 55t-50.5 46t-45 31.5t-37 11.5q-42 0 -51 -4q-40 46 -40 62q0 8 37 8q32 0 60.5 -12t58 -35.5t63 -59.5
t75.5 -84zM272 466h-120v-209q0 -11 5 -21t12.5 -17t16.5 -11t18 -4q68 0 68 74v188z" />
    <glyph glyph-name="HIN_TA_HALANT" horiz-adv-x="414" 
d="M445 466h-76v-466l-62 35v282h-103q-90 0 -90 -81q0 -67 108 -196l-32 -26q-130 160 -130 256q0 48 29 75.5t77 27.5h143v93h-309l-30 56h445zM539 -207q-27 29 -53.5 55t-50.5 46t-45 31.5t-37 11.5q-42 0 -51 -4q-40 46 -40 62q0 8 37 8q32 0 60.5 -12t58 -35.5
t63 -59.5t75.5 -84z" />
    <glyph glyph-name="HIN_THA_HALANT" horiz-adv-x="496" 
d="M527 466h-76v-466l-61 35l3 155q-11 -11 -26 -21t-32 -18t-34 -12.5t-32 -4.5q-87 0 -154 64q-49 46 -49 56q0 2 15 9t34.5 16.5t39 19.5t29.5 18q-124 37 -124 110q0 19 7.5 37.5t20 33t30 23.5t37.5 9q24 0 49.5 -10.5t46 -28t34 -41t13.5 -48.5q0 -94 -141 -164
q7 -60 74 -60q18 0 40 7.5t43.5 20t41.5 29.5t35 36v195h-59l-30 56h195zM589 -207q-27 29 -53.5 55t-50.5 46t-45 31.5t-37 11.5q-42 0 -51 -4q-40 46 -40 62q0 8 37 8q32 0 60.5 -12t58 -35.5t63 -59.5t75.5 -84zM238 416q0 33 -14.5 51.5t-35.5 18.5q-24 0 -43 -18.5
t-19 -42.5q0 -30 24.5 -52.5t59.5 -31.5q28 24 28 75z" />
    <glyph glyph-name="HIN_DA_HALANT" horiz-adv-x="414" 
d="M445 466h-83v-115q0 -17 -20 -17q-170 0 -196 -20q-32 -26 -32 -72q0 -23 10 -43.5t28 -37t42 -26t52 -9.5q15 0 35 5q-23 32 -23 54q0 28 28 28q9 0 24.5 -6t29.5 -16t24.5 -21.5t10.5 -21.5q0 -40 -31 -55q11 -23 28.5 -55.5t42.5 -74.5l-34 -19q-22 42 -38.5 74.5
t-29.5 58.5q-13 -7 -50 -7q-34 0 -70 18.5t-65.5 48.5t-48.5 68t-19 77q0 57 40.5 82.5t131.5 25.5h70v76h-303l-30 56h446zM459 -207q-27 29 -53.5 55t-50.5 46t-45 31.5t-37 11.5q-42 0 -51 -4q-40 46 -40 62q0 8 37 8q32 0 60.5 -12t58 -35.5t63 -59.5t75.5 -84z" />
    <glyph glyph-name="HIN_DHA_HALANT" horiz-adv-x="460" 
d="M491 466h-76v-466l-62 35l4 154q-68 -62 -131 -62q-29 0 -57.5 11t-51.5 29t-37.5 41t-14.5 47q0 50 52 72q-30 18 -48.5 33t-29 30t-14 31t-3.5 36q0 33 23.5 56t55.5 23q42 0 68 -24.5t26 -62.5q0 -32 -21.5 -54.5t-56.5 -27.5q15 -20 49 -20q5 0 23 1t30 1q29 0 37 -3
q24 -32 24 -47q0 -11 -17 -11q-13 0 -34.5 2.5t-31.5 2.5q-78 0 -78 -68q0 -26 21.5 -44t50.5 -18q74 0 164 97v206h-75l-30 56h211zM539 -207q-27 29 -53.5 55t-50.5 46t-45 31.5t-37 11.5q-42 0 -51 -4q-40 46 -40 62q0 8 37 8q32 0 60.5 -12t58 -35.5t63 -59.5t75.5 -84z
M160 444q0 18 -12 30t-29 12q-20 0 -31.5 -13.5t-11.5 -30.5q0 -32 23 -55q61 4 61 57z" />
    <glyph glyph-name="HIN_NA_HALANT" horiz-adv-x="416" 
d="M447 466h-76v-466l-61 35v243h-131q-22 0 -22 -10v-53q0 -21 -18 -21q-7 0 -20 15.5t-26 35t-23 37.5t-10 23q0 16 14 22.5t54 6.5h184v132h-313l-30 56h448zM539 -207q-27 29 -53.5 55t-50.5 46t-45 31.5t-37 11.5q-42 0 -51 -4q-40 46 -40 62q0 8 37 8q32 0 60.5 -12
t58 -35.5t63 -59.5t75.5 -84z" />
    <glyph glyph-name="HIN_PA_HALANT" horiz-adv-x="420" 
d="M451 466h-76v-466l-62 35l4 165q-40 -22 -83 -22q-19 0 -43.5 12.5t-46.5 31t-37 41t-15 43.5v160h-93l-30 56h452zM539 -207q-27 29 -53.5 55t-50.5 46t-45 31.5t-37 11.5q-42 0 -51 -4q-40 46 -40 62q0 8 37 8q32 0 60.5 -12t58 -35.5t63 -59.5t75.5 -84zM315 466h-163
v-162q0 -76 53 -76q42 0 110 41v197z" />
    <glyph glyph-name="HIN_PHA_HALANT" horiz-adv-x="629" 
d="M664 466h-296v-166q68 53 118 53q21 0 41 -12t35.5 -33t24.5 -49t9 -61q0 -52 -53 -135l-51 46q59 80 59 139q0 22 -14.5 35.5t-35.5 13.5q-9 0 -26 -6t-36 -16t-38 -22t-33 -24v-229l-62 35l4 165q-43 -22 -76 -22q-19 0 -43.5 12.5t-46.5 31t-37 41t-15 43.5v160h-93
l-30 56h665zM539 -207q-27 29 -53.5 55t-50.5 46t-45 31.5t-37 11.5q-42 0 -51 -4q-40 46 -40 62q0 8 37 8q32 0 60.5 -12t58 -35.5t63 -59.5t75.5 -84zM308 466h-156v-162q0 -76 53 -76q50 0 103 41v197z" />
    <glyph glyph-name="HIN_BA_HALANT" horiz-adv-x="473" 
d="M504 466h-76v-466l-62 35l1 158q-52 -67 -137 -67q-34 0 -65 12.5t-54 33.5t-37 47.5t-14 55.5q0 22 11.5 42.5t32 36.5t49.5 25.5t64 9.5q86 0 149 -89h2v166h-370l-30 56h506zM569 -207q-27 29 -53.5 55t-50.5 46t-45 31.5t-37 11.5q-42 0 -51 -4q-40 46 -40 62
q0 8 37 8q32 0 60.5 -12t58 -35.5t63 -59.5t75.5 -84zM332 261q0 39 -22.5 61.5t-54.5 22.5q-39 0 -62 -10l89 -139q50 26 50 65zM164 320q-10 -5 -19 -14.5t-16 -20.5t-11 -23t-4 -22q0 -70 81 -70q23 0 58 11z" />
    <glyph glyph-name="HIN_BHA_HALANT" horiz-adv-x="484" 
d="M515 466h-75v-466l-62 35v183h-154v-51q0 -17 -18 -17q-5 0 -22 12t-35.5 28t-33 32t-14.5 24q0 22 19 22h44l3 57q-137 41 -137 121q0 38 21 61t58 23q54 0 84.5 -40.5t30.5 -112.5v-109h156v198h-75l-30 56h210zM569 -207q-27 29 -53.5 55t-50.5 46t-45 31.5t-37 11.5
q-42 0 -51 -4q-40 46 -40 62q0 8 37 8q32 0 60.5 -12t58 -35.5t63 -59.5t75.5 -84zM174 420q0 66 -42 66q-19 0 -30.5 -16.5t-11.5 -36.5q0 -13 7 -25.5t18 -22.5t26 -16.5t30 -7.5q3 30 3 59z" />
    <glyph glyph-name="HIN_MA_HALANT" horiz-adv-x="470" 
d="M501 466h-76v-466l-62 35v177h-180v-46q0 -25 -20 -25q-6 0 -23 14t-35 32.5t-31.5 35.5t-13.5 23q0 22 19 22h44v198h-123l-30 56h501zM549 -207q-27 29 -53.5 55t-50.5 46t-45 31.5t-37 11.5q-42 0 -51 -4q-40 46 -40 62q0 8 37 8q32 0 60.5 -12t58 -35.5t63 -59.5
t75.5 -84zM365 268v198h-182v-198h182z" />
    <glyph glyph-name="HIN_YA_HALANT" horiz-adv-x="461" 
d="M492 466h-76v-466l-62 35l4 166q-49 -49 -108 -49q-146 0 -190 164q58 11 92.5 33.5t34.5 50.5q0 17 -28 66h-159l-30 56h492zM539 -207q-27 29 -53.5 55t-50.5 46t-45 31.5t-37 11.5q-42 0 -51 -4q-40 46 -40 62q0 8 37 8q32 0 60.5 -12t58 -35.5t63 -59.5t75.5 -84z
M356 466h-151q36 -68 36 -102q0 -56 -112 -93q0 -75 67 -75q69 0 160 76v194z" />
    <glyph glyph-name="HIN_RA_HALANT" horiz-adv-x="311" 
d="M342 466h-119v-172q0 -24 -10.5 -41t-22.5 -28.5t-22.5 -18.5t-10.5 -12t161 -169l-27 -32q-48 49 -90 94t-73.5 82.5t-49.5 65t-18 41.5q0 12 9 23t19 11l9 -5q7 -3 15.5 -7t16.5 -8t13.5 -6.5t7.5 -2.5q13 0 13 125q0 11 -1 26t-3 34h-159l-30 56h342zM419 -207
q-27 29 -53.5 55t-50.5 46t-45 31.5t-37 11.5q-42 0 -51 -4q-40 46 -40 62q0 8 37 8q32 0 60.5 -12t58 -35.5t63 -59.5t75.5 -84z" />
    <glyph glyph-name="HIN_LA_HALANT" horiz-adv-x="565" 
d="M596 466h-76v-466l-62 35l4 267q-23 17 -45 17q-17 0 -31 -6t-28 -19.5t-28 -36t-31 -55.5l-46 33q7 16 24 42q-6 10 -15.5 20t-20 17.5t-21 12t-19.5 4.5q-35 0 -58 -26t-23 -64q0 -62 42.5 -113t138.5 -105l-25 -30q-216 139 -216 274q0 23 8.5 45t23.5 38.5t35 26.5
t43 10q22 0 40 -8t32.5 -20.5t26.5 -27t23 -27.5q48 65 97 65q34 0 71 -31v128h-459l-30 56h595zM649 -207q-27 29 -53.5 55t-50.5 46t-45 31.5t-37 11.5q-42 0 -51 -4q-40 46 -40 62q0 8 37 8q32 0 60.5 -12t58 -35.5t63 -59.5t75.5 -84z" />
    <glyph glyph-name="HIN_MARATHI_LA_HALANT" horiz-adv-x="553" 
d="M589 466h-120v-97q13 -4 25.5 -14.5t21.5 -25t14.5 -32t5.5 -35.5q0 -48 -36.5 -99t-95.5 -88l-39 45q24 13 46.5 32t40.5 40t28.5 42t10.5 39q0 28 -15.5 47t-34.5 19q-79 0 -150 -134l-44 35q4 10 9.5 21t13.5 23q-3 7 -11 15.5t-18.5 15.5t-21 11.5t-18.5 4.5
q-35 0 -58 -26t-23 -64q0 -62 42.5 -113t138.5 -105l-25 -30q-216 139 -216 274q0 23 8.5 45t23.5 38.5t35 26.5t43 10q20 0 34 -4.5t26.5 -13.5t26 -23.5t32.5 -35.5q47 61 120 71v85h-411l-30 56h591zM629 -177q-27 29 -53.5 55t-50.5 46t-45 31.5t-37 11.5q-42 0 -51 -4
q-40 46 -40 62q0 8 37 8q32 0 60.5 -12t58 -35.5t63 -59.5t75.5 -84z" />
    <glyph glyph-name="HIN_LLA_HALANT" horiz-adv-x="601" 
d="M632 466h-114v-128q28 -18 46.5 -54t18.5 -74q0 -27 -12 -53.5t-32 -47t-45 -33t-51 -12.5q-56 0 -119 68q-27 -38 -54 -55t-70 -17q-27 0 -52.5 12.5t-45 33.5t-31 49t-11.5 58q0 28 10.5 54t29 45.5t43.5 31t54 11.5q25 0 43.5 -6.5t33.5 -17.5t26.5 -24.5t23.5 -28.5
q40 82 134 82v106h-459l-30 56h633zM602 -207q-39 29 -72 55t-60 46t-49 31.5t-38 11.5q-42 0 -51 -4q-40 46 -40 62q0 8 37 8q32 0 60.5 -12t58 -35.5t63 -59.5t75.5 -84zM538 246q0 32 -20.5 52t-53.5 20q-69 0 -126 -159q31 -45 80 -45q21 0 42 10.5t38.5 28.5t28.5 42
t11 51zM311 249q-30 56 -90 56q-23 0 -43.5 -11t-37 -28.5t-26 -39.5t-9.5 -44q0 -78 73 -78q22 0 39 7t32 23.5t29.5 44.5t32.5 70z" />
    <glyph glyph-name="HIN_VA_HALANT" horiz-adv-x="464" 
d="M497 466h-76v-466l-62 35l4 160q-77 -65 -148 -65q-27 0 -55 12.5t-50 33.5t-36 48t-14 56q0 54 37 84t103 30q29 0 49 -3.5t37.5 -13t34 -27.5t38.5 -48h2v164h-361l-30 56h497zM539 -207q-27 29 -53.5 55t-50.5 46t-45 31.5t-37 11.5q-42 0 -51 -4q-40 46 -40 62
q0 8 37 8q32 0 60.5 -12t58 -35.5t63 -59.5t75.5 -84zM360 272q-71 66 -140 66q-49 0 -77.5 -24.5t-28.5 -55.5q0 -84 79 -84q17 0 38.5 7.5t44 21t44.5 31.5t40 38z" />
    <glyph glyph-name="HIN_SHA_HALANT" horiz-adv-x="537" 
d="M568 466h-76v-466l-61 35v431h-140q47 -65 47 -111q0 -129 -145 -201l115 -144l-40 -31l-94 142q-9 13 -28 18t-38.5 12.5t-33.5 22t-14 47.5q0 20 10.5 28t30.5 8q15 -1 55 -55q67 21 103 81q-171 45 -171 135q0 22 17 48h-106l-30 56h569zM629 -207q-27 29 -53.5 55
t-50.5 46t-45 31.5t-37 11.5q-42 0 -51 -4q-40 46 -40 62q0 8 37 8q32 0 60.5 -12t58 -35.5t63 -59.5t75.5 -84zM278 366q0 51 -18.5 81.5t-51.5 30.5q-26 0 -40 -20.5t-14 -49.5q0 -66 115 -96q9 28 9 54z" />
    <glyph glyph-name="HIN_SHHA_HALANT" horiz-adv-x="431" 
d="M462 466h-76v-466l-62 35l4 162q-59 -44 -108 -44q-20 0 -42.5 11t-42 29t-32.5 40.5t-13 45.5v187h-91l-30 56h463zM539 -207q-27 29 -53.5 55t-50.5 46t-45 31.5t-37 11.5q-42 0 -51 -4q-40 46 -40 62q0 8 37 8q32 0 60.5 -12t58 -35.5t63 -59.5t75.5 -84zM326 285v181
h-182zM150 419v-159q0 -63 43 -63q31 0 64 17.5t55 43.5z" />
    <glyph glyph-name="HIN_SA_HALANT" horiz-adv-x="521" 
d="M552 466h-76v-466l-62 35l4 188q-53 -18 -79 -18q-67 0 -118 54l-13 -13q-2 -2 -6 -4l-25 -21q-12 -10 -21.5 -18t-9.5 -9q0 -2 158 -166l-28 -28q-66 75 -108 123t-61 71q-47 59 -47 82q0 12 9 23t19 11l9 -5q7 -3 15.5 -7t16.5 -8t13.5 -6.5t7.5 -2.5q13 0 13 125
q0 11 -1 26t-3 34h-159l-30 56h552zM416 466h-193v-172q55 -33 97 -33q50 0 96 37v168zM640 -193l-17 -19q-27 29 -53.5 55.5t-50.5 46t-45 31t-37 11.5q-42 0 -51 -4q-40 46 -40 62q0 8 37 8q28 0 51 -8t45.5 -24t46.5 -39.5t54 -54.5z" />
    <glyph glyph-name="HIN_HA_HALANT" horiz-adv-x="411" 
d="M442 466h-128v-104q0 -20 -19 -20h-175q-15 0 -29 -11.5t-14 -28.5q0 -31 33 -53q47 32 112 32q21 0 44 -11t42.5 -28.5t32.5 -38.5t13 -41q0 -67 -85 -91l-33 51q64 12 64 59q0 12 -5.5 22t-14.5 17.5t-20 12t-22 4.5q-24 0 -46 -10t-39 -25.5t-27 -35t-10 -38.5
q0 -20 14.5 -42t41 -43t63.5 -40t82 -34l-7 -23q-56 13 -103 33.5t-81 46.5t-53 56t-19 62q0 48 34 82q-56 56 -56 99q0 73 76 73h146v68h-283l-30 56h471zM444 -245l-32 -19q-21 29 -44.5 55.5t-46 46t-43.5 31t-37 11.5q-42 0 -51 -4q-40 46 -40 62q0 8 37 8q28 0 51.5 -8
t46 -24t46.5 -39.5t53 -54.5z" />
    <glyph glyph-name="HIN_HALF_KA_NUKTA" horiz-adv-x="386" 
d="M469 243q-23 15 -48 15q-33 0 -79 -33v-225l-62 35l4 148q-71 -44 -110 -44q-29 0 -55 11.5t-45.5 31t-31 45.5t-11.5 55q0 42 31 71.5t85 29.5q24 0 40.5 -3.5t31 -12.5t28.5 -25t33 -41h2v165h-283l-30 56h419l30 -56h-76v-176q33 24 72 24q28 0 55 -12v-59zM130 57
l-58 -58l-58 58l58 58zM283 256q-29 39 -55.5 55t-68.5 16q-35 0 -59 -22t-24 -56q0 -27 18.5 -43.5t46.5 -16.5q54 0 142 67z" />
    <glyph glyph-name="HIN_HALF_KHA_NUKTA" horiz-adv-x="475" 
d="M540 273q0 -22 -10.5 -42.5t-27 -36t-37 -25t-40.5 -9.5q-29 0 -56.5 10.5t-48.5 29.5t-33.5 43.5t-12.5 53.5q0 21 9.5 39t26.5 32t41 22t53 8q24 0 48.5 -11.5t44 -29.5t31.5 -40.5t12 -43.5zM583 110q-40 -26 -71.5 -43t-59 -27.5t-53.5 -15t-54 -4.5q-105 0 -217 138
q-13 16 -25.5 35t-22 37t-15 31.5t-5.5 19.5q0 7 8 16.5t13 9.5q2 0 59 -20q15 22 15 85q0 25 -1 48.5t-3 45.5h-149l-30 56h506l30 -56h-298q1 -66 3 -101t2 -59q0 -69 -70 -115q28 -36 52.5 -59t49.5 -37t53 -19.5t63 -5.5q73 0 195 86zM138 57l-58 -58l-58 58l58 58z
M505 293q0 55 -80 55q-21 0 -40 -7.5t-34 -19.5t-23.5 -27t-8.5 -29q0 -55 72 -55q22 0 42.5 7t36.5 18.5t25.5 26.5t9.5 31z" />
    <glyph glyph-name="HIN_HALF_GA_NUKTA" horiz-adv-x="268" 
d="M299 466h-110v-253q0 -16 -10 -27t-24 -11q-2 0 -17 11.5t-32.5 28.5t-31.5 35t-14 32q0 8 6 15t11 7h46q6 0 6 10v152h-129l-30 56h299zM158 57l-58 -58l-58 58l58 58z" />
    <glyph glyph-name="HIN_HALF_JA_NUKTA" horiz-adv-x="467" 
d="M555 466h-554l-30 56h554zM479 316h-188q18 -18 28 -29.5t15 -22t6.5 -22.5t1.5 -30t-8 -33t-20.5 -26t-29 -17.5t-33.5 -6.5q-29 0 -51.5 9t-44.5 31.5t-44.5 61.5t-50.5 99l33 14q36 -87 68.5 -121t69.5 -34q53 0 53 56q0 15 -4 27t-14 24t-28 25t-46 30l8 21h279v-56z
M416 57l-58 -58l-58 58l58 58z" />
    <glyph glyph-name="HIN_HALF_PHA_NUKTA" horiz-adv-x="414" 
d="M493 245q-17 14 -51 14q-35 0 -75 -30v-229l-61 35l4 165q-43 -22 -76 -22q-19 0 -43.5 12.5t-46.5 31t-37 41t-15 43.5v160h-92l-30 56h446l30 -56h-78v-173q31 22 64 22q38 0 61 -20v-50zM158 57l-58 -58l-58 58l58 58zM308 466h-156v-162q0 -76 53 -76q50 0 103 41
v197z" />
    <glyph glyph-name="HIN_HALF_YA_NUKTA" horiz-adv-x="298" 
d="M377 215q-72 -63 -127 -63q-146 0 -190 164q58 11 92.5 33.5t34.5 50.5q0 17 -28 66h-160l-30 56h331l30 -56h-125q36 -68 36 -102q0 -56 -112 -93q0 -75 67 -75q88 0 181 93v-74zM158 57l-58 -58l-58 58l58 58z" />
    <glyph glyph-name="HIN_KA_RA" horiz-adv-x="631" 
d="M666 466h-295v-172q55 45 94 45q21 0 41 -12t35.5 -33t24.5 -49t9 -61q0 -52 -53 -135l-51 46q59 80 59 139q0 22 -14.5 35.5t-35.5 13.5q-39 0 -109 -60v-223l-62 35v151l-201 -189l-50 40q113 81 134 102q-27 2 -51 14.5t-42 32t-28.5 44.5t-10.5 52q0 42 31 71.5
t85 29.5q28 0 46.5 -5t33 -15.5t26.5 -25.5t27 -36h2v165h-310l-30 56h665zM312 256q-29 39 -55.5 55t-68.5 16q-35 0 -59 -22t-24 -56q0 -27 18.5 -43.5t46.5 -16.5q54 0 142 67z" />
    <glyph glyph-name="HIN_KA_RA1" horiz-adv-x="667" 
d="M702 466h-310v-145q33 34 111 34q21 0 40.5 -13t35 -34t24.5 -47t9 -52q0 -87 -104 -188l-52 46q111 97 111 179q0 25 -17.5 40.5t-41.5 15.5q-70 0 -116 -46v-256l-62 35v174l-186 -133l-47 41l226 151q-82 58 -120 58q-15 0 -40 -4.5t-60 -12.5l-42 55q97 18 123 18
q43 0 74 -25l74 -59v168h-333l-30 56h703z" />
    <glyph glyph-name="HIN_KHA_RA" horiz-adv-x="634" 
d="M665 466h-76v-466l-60 35v100l-286 -174l-53 43l153 73l-2 2q-2 -1 -11 -1h-10q-37 0 -73 10.5t-68.5 32t-59.5 53.5t-46 76q-6 14 -9.5 20.5t-3.5 10.5q0 7 8 16.5t13 9.5q2 0 59 -20q15 22 15 85q0 25 -1 48.5t-3 45.5h-153l-30 56h667zM529 230q-68 -44 -108 -44
q-29 0 -55 10.5t-45.5 28.5t-31 42.5t-11.5 53.5q0 22 8.5 42t23.5 35t36.5 23.5t47.5 8.5q24 0 40.5 -3.5t31 -12.5t28.5 -25t33 -41h2v118h-319l5 -160q0 -60 -68 -105q74 -86 181 -86q84 0 201 63v52zM530 302q-29 40 -55.5 56t-68.5 16q-35 0 -59 -22t-24 -56
q0 -27 18.5 -43.5t46.5 -16.5q53 0 142 66z" />
    <glyph glyph-name="HIN_GA_RA" horiz-adv-x="441" 
d="M473 466h-76v-466l-61 35v147l-231 -183l-52 46l286 191v230h-149v-223q0 -16 -10 -27t-24 -11q-2 0 -17 11.5t-32.5 28.5t-31.5 35t-14 32q0 8 6 15t11 7h46q6 0 6 10v122h-130l-30 56h473z" />
    <glyph glyph-name="HIN_GHA_RA" horiz-adv-x="487" 
d="M518 466h-76v-466l-61 35q0 26 0.5 67t1.5 101l-270 -189l-44 39l141 89q-25 5 -47 17t-39 28.5t-27 36t-10 39.5q0 48 59 81q-86 53 -86 100v22h-61l-30 56h519zM383 466h-239q-18 -17 -18 -47q0 -34 51 -65h15q57 0 86 -20q18 -47 18 -48q0 -8 -11 -8q-1 0 -12.5 2.5
t-25 5.5t-25 5.5t-12.5 2.5q-69 0 -69 -55q0 -26 16 -44.5t41 -18.5q73 0 185 103v187z" />
    <glyph glyph-name="HIN_NGA_RA" horiz-adv-x="620" 
d="M655 466h-252v-106q0 -21 -20 -21h-134q-49 0 -49 -44q0 -31 9 -44t35 -13q1 0 5.5 0.5t12.5 1.5l39 6q21 3 39.5 6t20.5 3q24 0 44 -14.5t34.5 -34.5t22 -40t7.5 -30q0 -26 -10.5 -47t-28.5 -36.5t-42.5 -24t-52.5 -8.5q-69 0 -140.5 50.5t-134.5 138.5l28 21
q29 -42 55.5 -71.5t53 -48t55.5 -26.5t64 -8q22 0 41.5 6.5t34.5 18t23.5 26.5t8.5 32q0 40 -28 40q-3 0 -23 -2.5t-43 -6t-41.5 -6t-19.5 -2.5q-29 0 -48 12.5t-45 48.5q-30 42 -30 77q0 29 21 52t54 23h122v71h-343l-30 56h655zM449 -141l-28 -24l-76 114l-115 -80l-43 42
l153 104zM562 296l-59 -58l-54 58l54 58z" />
    <glyph glyph-name="HIN_CHA_RA" horiz-adv-x="538" 
d="M569 466h-76v-466l-62 35v141l-250 -174l-49 44l143 84q-49 10 -80 44t-31 74q0 32 23 61h-97l-30 56h324l30 -53h-3q-4 0 -9 0.5t-13 0.5h-31q-80 0 -100 -11q-16 -9 -28 -31t-12 -46q0 -63 62 -63q50 0 153 91v213h-433l-30 56h569z" />
    <glyph glyph-name="HIN_JA_RA" horiz-adv-x="538" 
d="M569 466h-76v-466l-62 35v86l-261 -124l-44 47l308 125v177h-143q59 -68 59 -111q0 -39 -26 -62t-59 -23q-112 0 -205 210l33 14q55 -162 146 -162q23 0 38 16t15 40q0 55 -100 113l8 21h233v64h-432l-30 56h568z" />
    <glyph glyph-name="HIN_JHA_RA" horiz-adv-x="572" 
d="M603 466h-76v-464l-62 35v91l-129 -130l-44 39l177 151v20q-44 39 -77 39q-65 0 -90 -21q26 -35 26 -61q0 -92 -130 -120l117 -122l-29 -26q-97 127 -125 138q-23 4 -38.5 7t-22.5 7q-14 8 -24 29.5t-10 42.5q0 8 10.5 18.5t27.5 10.5q7 0 17 -8.5t20 -19t18.5 -19
t11.5 -8.5q19 0 39 6.5t36.5 18.5t26.5 28t10 35q0 38 -28 38q-3 0 -15 -3t-25.5 -7t-26.5 -7t-19 -3q-19 0 -38.5 15t-35 37.5t-25.5 48.5t-10 49q0 49 57 49h124v66h-241l-30 56h603zM467 466h-172v-103q0 -13 -19 -13h-128q-43 0 -43 -29q0 -26 15 -48t36 -22q5 0 17.5 3
t26 7t26 7t17.5 3q22 0 31 -9q43 31 85 31q28 0 55.5 -15t52.5 -42v230z" />
    <glyph glyph-name="HIN_TA_RA" horiz-adv-x="447" 
d="M478 466h-76v-466l-61 35v180l-197 -139l-47 41l226 151q-82 58 -120 58q-44 0 -110 -31l-42 55q94 32 133 32q21 0 38 -6.5t34.5 -18t37.5 -27.5t48 -35l1 171h-344l-30 56h479z" />
    <glyph glyph-name="HIN_TA_RA1" horiz-adv-x="448" 
d="M479 466h-76v-466l-62 35v223l-128 -121l-44 56l176 124h-141q-90 0 -90 -81q0 -67 108 -196l-32 -26q-130 160 -130 256q0 48 29 75.5t77 27.5h177v93h-343l-30 56h479z" />
    <glyph glyph-name="HIN_THA_RA" horiz-adv-x="496" 
d="M527 466h-76v-466l-61 35v152l-17 -11q-14 -10 -37 -26.5t-49 -35t-53 -37.5t-49 -34t-37 -24.5t-18 -9.5l-52 54l138 77q-25 6 -51.5 23t-48.5 36t-36 35t-14 20q0 2 15 9t34.5 16.5t39 19.5t29.5 18q-124 37 -124 110q0 19 7.5 37.5t20 33t30 23.5t37.5 9
q24 0 49.5 -10.5t46 -28t34 -41t13.5 -48.5q0 -94 -141 -164q7 -60 74 -60q18 0 40 7.5t43.5 20t41.5 29.5t35 36v195h-59l-30 56h195zM238 416q0 33 -14.5 51.5t-35.5 18.5q-24 0 -43 -18.5t-19 -42.5q0 -30 24.5 -52.5t59.5 -31.5q28 24 28 75z" />
    <glyph glyph-name="HIN_DA_RA" horiz-adv-x="400" 
d="M431 466h-101v-103q0 -17 -20 -17h-99q-97 0 -97 -73q0 -21 9.5 -39.5t25 -31.5t35.5 -20.5t41 -7.5q28 0 29 1q-18 46 -18 50q0 9 8 16t17 7q6 0 20 -6.5t28.5 -16t26 -20t11.5 -18.5q0 -26 -32 -43q7 -26 84 -156l-37 -21l-85 159l-193 -152l-44 39l175 121
q-33 6 -61 22.5t-49 39t-33 49t-12 53.5q0 104 149 104h61v64h-273l-30 56h434z" />
    <glyph glyph-name="HIN_DHA_RA" horiz-adv-x="498" 
d="M529 466h-76v-466l-62 35l4 153q-33 -26 -93 -71.5t-151 -114.5l-50 53l125 77q-25 7 -47.5 19.5t-39 29t-26.5 35.5t-10 39q0 50 52 72q-30 18 -48.5 33t-29 30t-14 31t-3.5 36q0 33 23.5 56t55.5 23q42 0 68 -24.5t26 -62.5q0 -32 -21.5 -54.5t-56.5 -27.5
q15 -20 49 -20q5 0 23 1t30 1q29 0 37 -3q24 -32 24 -47q0 -11 -17 -11q-13 0 -34.5 2.5t-31.5 2.5q-78 0 -78 -68q0 -26 21.5 -44t50.5 -18q74 0 164 97v206h-75l-30 56h211zM198 444q0 18 -12 30t-29 12q-20 0 -31.5 -13.5t-11.5 -30.5q0 -32 23 -55q61 4 61 57z" />
    <glyph glyph-name="HIN_NA_RA" horiz-adv-x="416" 
d="M447 466h-76v-466l-61 35v152l-186 -186l-52 47l240 188v52h-133q-22 0 -22 -10v-53q0 -21 -18 -21q-7 0 -20 15.5t-26 35t-23 37.5t-10 23q0 16 14 22.5t54 6.5h184v122h-313l-30 56h448z" />
    <glyph glyph-name="HIN_PA_RA" horiz-adv-x="420" 
d="M451 466h-76v-466l-62 35v157l-197 -183l-44 46l194 151l-61 19q-113 35 -113 111v130h-93l-30 56h452zM315 226v240h-163v-132q0 -61 53 -76z" />
    <glyph glyph-name="HIN_PHA_RA" horiz-adv-x="629" 
d="M664 466h-296v-166q68 53 118 53q21 0 41 -12t35.5 -33t24.5 -49t9 -61q0 -52 -53 -135l-51 46q59 80 59 139q0 22 -14.5 35.5t-35.5 13.5q-9 0 -26 -6t-36 -16t-38 -22t-33 -24v-229l-62 35v160l-197 -186l-44 46l187 157l-47 16q-57 20 -85 46.5t-28 64.5v127h-100
l-30 56h672zM308 261v205h-156v-129q0 -59 53 -76l73 -24z" />
    <glyph glyph-name="HIN_BA_RA" horiz-adv-x="473" 
d="M504 466h-76v-466l-62 35v163l-240 -198l-44 39l130 98q-30 3 -57.5 16t-48.5 33.5t-33.5 46t-12.5 52.5q0 22 11.5 42.5t32 36.5t49.5 25.5t64 9.5q86 0 149 -89h2v156h-370l-30 56h506zM332 271q0 39 -22.5 61.5t-54.5 22.5q-39 0 -62 -10l89 -139q50 26 50 65z
M164 330q-10 -5 -19 -14.5t-16 -20.5t-11 -23t-4 -22q0 -70 81 -70q23 0 58 11z" />
    <glyph glyph-name="HIN_BHA_RA" horiz-adv-x="514" 
d="M545 466h-75v-466l-62 35v144l-225 -178l-44 39l271 188h-156v-51q0 -17 -18 -17q-5 0 -22 12t-35.5 28t-33 32t-14.5 24q0 22 19 22h44l3 57q-137 41 -137 121q0 74 79 74q115 0 115 -143v-109h156v188h-75l-30 56h210zM204 420q0 66 -42 66t-42 -43q0 -13 6.5 -25.5
t18 -22.5t26 -16.5t30.5 -7.5q3 30 3 49z" />
    <glyph glyph-name="HIN_MA_RA" horiz-adv-x="470" 
d="M501 466h-76v-466l-62 35v146l-227 -181l-44 39l271 193h-180v-46q0 -25 -20 -25q-6 0 -23 14t-35 32.5t-31.5 35.5t-13.5 23q0 22 19 22h44v178h-123l-30 56h501zM365 288v178h-182v-178h182z" />
    <glyph glyph-name="HIN_YA_RA" horiz-adv-x="461" 
d="M492 466h-76v-466l-62 35v163l-228 -197l-44 39l150 113q-131 10 -172 163q58 11 92.5 33.5t34.5 50.5q0 17 -28 66h-159l-30 56h492zM356 466h-151q36 -68 36 -102q0 -56 -112 -93q0 -75 67 -75q69 0 160 76v194z" />
    <glyph glyph-name="HIN_LA_RA" horiz-adv-x="565" 
d="M596 466h-76v-466l-62 35v191l-171 -160l-44 39l218 171l1 36q-23 17 -45 17q-17 0 -31 -6t-28 -19.5t-28 -36t-31 -55.5l-46 33q7 16 24 42q-6 10 -15.5 20t-20 17.5t-21 12t-19.5 4.5q-35 0 -58 -26t-23 -64q0 -125 181 -228l-25 -30q-50 32 -90 68t-68 72.5t-43 73.5
t-15 70q0 23 8.5 45t23.5 38.5t35 26.5t43 10q22 0 40 -8t32.5 -20.5t26.5 -27t23 -27.5q48 65 97 65q34 0 71 -31v118h-459l-30 56h595z" />
    <glyph glyph-name="HIN_VA_RA" horiz-adv-x="466" 
d="M497 466h-76v-466l-62 35v168l-231 -195l-47 46l123 87q-27 2 -52.5 15.5t-46 34t-33 46.5t-12.5 53q0 54 37 84t103 30q29 0 49 -3.5t37.5 -13t34 -27.5t38.5 -48h2v154h-361l-30 56h497zM360 282q-71 66 -140 66q-49 0 -77.5 -24.5t-28.5 -55.5q0 -84 79 -84
q17 0 38.5 7.5t44 21t44.5 31.5t40 38z" />
    <glyph glyph-name="HIN_SHA_RA" horiz-adv-x="521" 
d="M552 466h-76v-466l-61 35v188l-253 -195l-48 39l243 182q-18 4 -129 45q-28 -19 -66 -43.5t-89 -55.5l-49 40q37 19 73 41t73 48q-96 48 -96 113q0 19 8.5 36t23 29.5t34 20t40.5 7.5q19 0 40.5 -11.5t40.5 -29.5t31.5 -40t12.5 -43q0 -56 -50 -86q42 -15 82.5 -27
t78.5 -22l1 195h-77l-30 56h212zM260 424q0 26 -13 44t-36 18q-15 0 -28.5 -5.5t-24.5 -15t-17.5 -22.5t-6.5 -28q0 -43 71 -72q55 31 55 81z" />
    <glyph glyph-name="HIN_SHHA_RA" horiz-adv-x="433" 
d="M464 466h-76v-466l-62 35v171l-198 -209l-44 39l137 127q-20 1 -42.5 12.5t-42 29t-32 39.5t-12.5 45v177h-91l-30 56h463zM328 295v171h-182zM152 419v-149q0 -63 43 -63q31 0 64 17.5t55 43.5z" />
    <glyph glyph-name="HIN_SA_RA" horiz-adv-x="517" 
d="M552 466h-76v-466l-62 35l2 128l-109 -86l-44 39l154 106q-50 -17 -78 -17q-67 0 -118 54l-13 -13q-3 -3 -6 -4l-25 -21q-12 -10 -21.5 -18t-9.5 -9q0 -2 158 -166l-28 -28q-66 75 -108 123t-61 71q-47 59 -47 82q0 12 9 23t19 11l9 -5q7 -3 15.5 -7t16.5 -8t13.5 -6.5
t7.5 -2.5q13 0 13 125q0 11 -1 26t-3 34h-159l-30 56h552zM416 466h-193v-172q55 -33 97 -33q50 0 96 37v168z" />
    <glyph glyph-name="HIN_HA_RA" horiz-adv-x="434" 
d="M465 466h-107v-104q0 -20 -19 -20h-191q-15 0 -29 -11.5t-14 -28.5q0 -31 33 -53q43 37 127 37q41 0 72.5 -16t53 -40t32.5 -53t11 -55q0 -16 -3.5 -29.5t-14 -27t-28.5 -29t-47 -35.5l-48 36q96 66 96 113q0 21 -8 29l-134 -97l-49 35l150 103q-22 22 -75 22
q-24 0 -47.5 -11t-42 -29t-30 -41t-11.5 -48q0 -29 10.5 -52.5t35.5 -45.5t66.5 -44t104.5 -48l-21 -33q-140 64 -201 123t-61 122q0 10 3 22.5t8.5 25t12.5 24t16 19.5q-56 56 -56 99q0 73 76 73h162v68h-297l-30 56h464z" />
    <glyph glyph-name="HIN_HA_R" horiz-adv-x="400" 
d="M435 466h-99v-104q0 -20 -19 -20h-169q-15 0 -29 -11.5t-14 -28.5q0 -31 33 -53q46 34 130 34q13 0 23 -1.5t19 -6.5t18.5 -14t21.5 -24q27 -35 27 -51q0 -8 -13.5 -22t-29.5 -27.5t-29.5 -24.5t-13.5 -13q0 -27 35 -27q28 0 64 21l22 -46q-16 -11 -30.5 -15t-30.5 -4
q-21 0 -42 9.5t-38.5 23.5t-28.5 30t-11 30q0 20 66 61q27 16 27 30q0 11 -11 16t-28 5q-26 0 -51 -9.5t-45 -25.5t-32.5 -36t-12.5 -42q0 -96 219 -169l-14 -32q-75 30 -125.5 57t-81.5 54t-44.5 56t-13.5 63q0 45 32 77q-56 56 -56 99q0 73 76 73h140v68h-276l-30 56h435z
" />
    <glyph glyph-name="HIN_CHHA_RA" horiz-adv-x="542" 
d="M573 466h-116v-77q67 -46 67 -134q0 -40 -16.5 -78t-44 -69.5t-63 -54t-73.5 -31.5l99 -142l-28 -24l-76 114l-115 -80l-43 42l124 84h-10q-29 0 -58.5 10t-53.5 27.5t-39.5 40t-15.5 47.5q0 31 35 61q-86 56 -86 98t30 66t78 24q28 0 43 -4t24 -12t13.5 -20.5
t11.5 -30.5q-39 11 -63 11q-83 0 -83 -54q0 -11 6 -20t15 -15.5t20.5 -10.5t22.5 -4q2 0 19 4.5t34 4.5q31 0 44 -7q25 -43 25 -50q0 -6 -5 -6l-5 1q-6 2 -19 4t-25 2q-15 0 -29.5 -6t-26 -16.5t-18.5 -24t-7 -28.5q0 -23 22 -35.5t52 -12.5q25 0 54.5 8.5t57 22t50.5 31.5
t34 37l-72 52q-57 46 -57 100q0 38 24.5 65t66.5 33v57h-397l-30 56h573zM479 282q0 35 -17.5 60.5t-42.5 25.5q-23 0 -38 -21.5t-15 -50.5q0 -73 85 -110q28 43 28 96z" />
    <glyph glyph-name="HIN_TTA_RA" horiz-adv-x="404" 
d="M434 466h-106q3 -84 3 -116q0 -35 -7 -47.5t-26 -18.5q-18 -5 -49.5 -12.5t-76.5 -15.5q-58 -10 -58 -70q0 -18 8 -35t21 -30t30.5 -20.5t35.5 -7.5q74 0 178 52l26 -54q-34 -20 -68 -31.5t-68 -15.5l107 -152l-28 -24l-76 114l-115 -80l-43 42l146 99h-20q-36 0 -70 15
t-60.5 40t-42 57t-15.5 66q0 30 14 48.5t39.5 30t59.5 19t75 15.5q13 2 18 14.5t5 52.5q0 41 -3 65h-269l-30 56h435z" />
    <glyph glyph-name="HIN_TTHA_RA" horiz-adv-x="457" 
d="M488 466h-121q23 -32 23 -78q0 -42 -49 -84q98 -59 98 -130q0 -29 -13 -54.5t-34 -46t-48.5 -33t-56.5 -14.5l107 -152l-28 -24l-76 114l-115 -80l-43 42l147 100h-6q-39 0 -77 16t-68.5 43.5t-49 63t-18.5 74.5q0 110 202 110q29 0 48.5 19t19.5 51q0 27 -14 63h-316
l-30 56h488zM385 193q0 36 -22.5 63t-58.5 27q-40 0 -74.5 -6t-60 -17t-40.5 -27t-15 -36q0 -55 36.5 -88t97.5 -33q24 0 48.5 9t44 24.5t32 37t12.5 46.5z" />
    <glyph glyph-name="HIN_DDA_RA" horiz-adv-x="518" 
d="M553 466h-132v-106q0 -21 -20 -21h-152q-49 0 -49 -44q0 -31 9 -44t35 -13q2 0 20.5 2.5t41 6t42.5 6t25 2.5q24 0 44 -14.5t34.5 -34.5t22 -40t7.5 -30q0 -48 -34.5 -80t-88.5 -36l107 -153l-28 -24l-76 114l-115 -80l-43 42l148 101h-4q-155 0 -287 189l28 21
q30 -43 56.5 -72.5t54 -47.5t59 -26t70.5 -8q22 0 41.5 6.5t34.5 18t23.5 26.5t8.5 32q0 40 -28 40q-11 0 -36.5 -3t-58.5 -8l-44 -6q-29 0 -48 12.5t-45 48.5q-30 42 -30 77q0 29 21 52t54 23h140v71h-360l-30 56h552z" />
    <glyph glyph-name="HIN_DDHA_RA" horiz-adv-x="460" 
d="M491 466h-113v-115q0 -20 -20 -20q-51 0 -153 -3q-91 -3 -91 -111q0 -26 9 -49t25 -41t37.5 -29.5t46.5 -14.5q-20 35 -20 80q0 104 103 104q23 0 43 -10.5t35 -29t23.5 -43.5t8.5 -54q0 -23 -10 -43t-28 -35t-42 -23.5t-52 -8.5l107 -153l-28 -24l-76 114l-115 -80
l-43 42l148 101q-41 1 -81 23t-72.5 57.5t-52.5 79.5t-20 89q0 38 14 61t41.5 36t68 17t93.5 4h41v79h-320l-30 56h493zM390 158q0 22 -18 37.5t-44 15.5q-35 0 -53.5 -28.5t-18.5 -80.5q0 -9 3.5 -17.5t16.5 -8.5q22 0 42.5 6.5t36.5 18t25.5 26t9.5 31.5z" />
    <glyph glyph-name="HIN_LLA_RA" horiz-adv-x="601" 
d="M632 466h-114v-128q28 -18 46.5 -54t18.5 -74q0 -27 -12 -53.5t-32 -47t-45 -33t-51 -12.5q-56 0 -119 68q-27 -38 -54 -55t-70 -17q-27 0 -52.5 12.5t-45 33.5t-31 49t-11.5 58q0 28 10.5 54t29 45.5t43.5 31t54 11.5q25 0 43.5 -6.5t33.5 -17.5t26.5 -24.5t23.5 -28.5
q40 82 134 82v106h-459l-30 56h633zM467 -121l-28 -24l-76 114l-115 -80l-43 42l153 104zM538 246q0 32 -20.5 52t-53.5 20q-69 0 -126 -159q31 -45 80 -45q21 0 42 10.5t38.5 28.5t28.5 42t11 51zM311 249q-30 56 -90 56q-23 0 -43.5 -11t-37 -28.5t-26 -39.5t-9.5 -44
q0 -78 73 -78q22 0 39 7t32 23.5t29.5 44.5t32.5 70z" />
    <glyph glyph-name="HIN_CHHA_RA_U" horiz-adv-x="542" 
d="M487 -246q0 -42 -31 -70t-82 -28q-122 0 -274 131l19 25q37 -32 65 -52.5t54 -32.5t52.5 -16.5t60.5 -4.5q17 0 33.5 6t29 16.5t20.5 23t8 26.5q0 36 -46 43q-38 -42 -54 -42q-3 0 -11 7t-15.5 16t-13.5 18t-6 14q0 7 20.5 17t45.5 10q20 0 46 -8l-72 108l-115 -80
l-43 42l144 98q-11 -2 -22 -3.5t-22 -1.5q-29 0 -58.5 10t-53.5 27.5t-39.5 40t-15.5 47.5q0 31 35 61q-86 56 -86 98t30 66t78 24q28 0 43 -4t24 -12t13.5 -20.5t11.5 -30.5q-39 11 -63 11q-83 0 -83 -54q0 -11 6 -20t15 -15.5t20.5 -10.5t22.5 -4q2 0 19 4.5t34 4.5
q31 0 44 -7q25 -43 25 -50q0 -6 -5 -6l-5 1q-6 2 -19 4t-25 2q-15 0 -29.5 -6t-26 -16.5t-18.5 -24t-7 -28.5q0 -23 22 -35.5t52 -12.5q25 0 54.5 8.5t57 22t50.5 31.5t34 37l-72 52q-57 46 -57 100q0 38 24.5 65t66.5 33v57h-397l-30 56h573l30 -56h-116v-77
q67 -46 67 -134q0 -42 -16.5 -79.5t-43 -67.5t-61 -51.5t-70.5 -32.5l107 -153l-25 -21q30 -13 51 -40t21 -56zM479 282q0 35 -17.5 60.5t-42.5 25.5q-23 0 -38 -21.5t-15 -50.5q0 -73 85 -110q28 43 28 96z" />
    <glyph glyph-name="HIN_TTA_RA_U" horiz-adv-x="403" 
d="M434 466h-106q3 -84 3 -116q0 -35 -7 -47.5t-26 -18.5q-18 -5 -49.5 -12.5t-76.5 -15.5q-58 -10 -58 -70q0 -18 8 -35t21 -30t30.5 -20.5t35.5 -7.5q74 0 178 52l26 -54q-63 -36 -124 -45l106 -152l9 -24l-113 114l-115 -80l-43 42l145 98q-5 -1 -15 -1h-15q-36 0 -70 15
t-60.5 40t-42 57t-15.5 66q0 30 14 48.5t39.5 30t59.5 19t75 15.5q13 2 18 14.5t5 52.5q0 41 -3 65h-269l-30 56h435zM428 -213q0 -42 -31 -70t-82 -28q-122 0 -274 131l19 25q37 -32 65 -52.5t54 -32.5t52.5 -16.5t60.5 -4.5q17 0 33.5 6t29 16t20.5 23t8 27q0 34 -46 43
q-38 -42 -54 -42q-4 0 -11.5 7t-15 16t-13.5 18t-6 14q0 7 20.5 17t45.5 10q24 0 46.5 -8.5t40 -23.5t28 -34.5t10.5 -40.5z" />
    <glyph glyph-name="HIN_TTHA_RA_U" horiz-adv-x="457" 
d="M440 -236q0 -20 -8.5 -37.5t-23.5 -31t-36 -21.5t-45 -8q-122 0 -274 131l19 25q37 -32 65 -52.5t54 -32.5t52.5 -16.5t60.5 -4.5q18 0 34.5 6.5t29 17t20 23.5t7.5 25q0 34 -46 43q-38 -42 -54 -42q-5 0 -12.5 7t-15 16t-13 18t-5.5 14q0 7 20 17t46 10q20 0 46 -8
l19 -9l-76 114l-115 -80l-43 42l142 96h-15q-39 0 -77 16t-68.5 43.5t-49 63t-18.5 74.5q0 110 202 110q29 0 48.5 19t19.5 51q0 27 -14 63h-316l-30 56h488l30 -56h-121q23 -32 23 -78q0 -42 -49 -84q98 -59 98 -130q0 -27 -11.5 -51t-30 -43.5t-43 -33t-51.5 -18.5
l105 -150l-28 -24q26 -15 43 -39.5t17 -50.5zM385 193q0 36 -22.5 63t-58.5 27q-40 0 -74.5 -6t-60 -17t-40.5 -27t-15 -36q0 -55 36.5 -88t97.5 -33q24 0 48.5 9t44 24.5t32 37t12.5 46.5z" />
    <glyph glyph-name="HIN_DDA_RA_U" horiz-adv-x="522" 
d="M488 -242q0 -42 -31 -70t-82 -28q-122 0 -274 131l19 25q37 -32 65 -52.5t54 -32.5t52.5 -16.5t60.5 -4.5q17 0 33.5 6t29 16.5t20.5 23t8 26.5q0 34 -46 43q-38 -42 -54 -42q-3 0 -11 7t-15.5 16t-13.5 18t-6 14q0 7 20.5 17t45.5 10q35 0 67 -18l-74 111l-115 -80
l-43 42l147 100q-155 1 -285 189l28 21q30 -43 56.5 -72.5t54 -47.5t59 -26t70.5 -8q22 0 41.5 6.5t34.5 18t23.5 26.5t8.5 32q0 40 -28 40q-11 0 -36.5 -3t-58.5 -8l-44 -6q-29 0 -48 12.5t-45 48.5q-30 42 -30 77q0 29 21 52t54 23h140v71h-360l-30 56h552l30 -56h-132
v-106q0 -21 -20 -21h-152q-49 0 -49 -44q0 -31 9 -44t35 -13q2 0 20.5 2.5t41 6t42.5 6t25 2.5q24 0 44 -14.5t34.5 -34.5t22 -40t7.5 -30q0 -51 -36 -82t-91 -34l106 -152l-27 -23q24 -12 39.5 -38t15.5 -49z" />
    <glyph glyph-name="HIN_DDHA_RA_U" horiz-adv-x="460" 
d="M443 -248q0 -20 -8.5 -37.5t-23.5 -31t-36 -21.5t-45 -8q-122 0 -274 131l19 25q37 -32 65 -52.5t54 -32.5t52.5 -16.5t60.5 -4.5q17 0 33.5 6t29 16.5t20.5 23t8 26.5q0 36 -46 43q-38 -42 -54 -42q-3 0 -11 7t-15.5 16t-13.5 18t-6 14q0 8 20.5 17.5t45.5 9.5
q11 0 23.5 -1.5t23.5 -6.5l13 -6l-74 111l-115 -80l-43 42l150 102h-6q-60 0 -129 54q-101 78 -101 195q0 38 14 61t41.5 36t68 17t93.5 4h41v79h-320l-30 56h493l30 -56h-113v-115q0 -20 -20 -20q-51 0 -153 -3q-91 -3 -91 -111q0 -26 9 -49t25 -41t37.5 -29.5t46.5 -14.5
q-20 35 -20 80q0 104 103 104q23 0 43 -10.5t35 -29t23.5 -43.5t8.5 -54q0 -45 -35.5 -75.5t-89.5 -34.5l108 -154l-27 -22q28 -16 45 -39.5t17 -52.5zM390 158q0 22 -18 37.5t-44 15.5q-35 0 -53.5 -28.5t-18.5 -80.5q0 -9 3.5 -17.5t16.5 -8.5q22 0 42.5 6.5t36.5 18
t25.5 26t9.5 31.5z" />
    <glyph glyph-name="HIN_LLA_RA_U" horiz-adv-x="601" 
d="M632 466h-114v-128q28 -18 46.5 -54t18.5 -74q0 -27 -12 -53.5t-32 -47t-45 -33t-51 -12.5q-56 0 -119 68q-27 -38 -54 -55t-70 -17q-27 0 -52.5 12.5t-45 33.5t-31 49t-11.5 58q0 28 10.5 54t29 45.5t43.5 31t54 11.5q25 0 43.5 -6.5t33.5 -17.5t26.5 -24.5t23.5 -28.5
q40 82 134 82v106h-459l-30 56h633zM524 -211q0 -20 -8.5 -37.5t-23.5 -31t-36 -21.5t-45 -8q-122 0 -274 131l19 25q37 -32 65 -52.5t54 -32.5t52.5 -16.5t60.5 -4.5q17 0 33.5 6t29 16.5t20.5 23t8 26.5q0 36 -46 43q-38 -42 -54 -42q-5 0 -12.5 7t-15 16t-13 18t-5.5 14
q0 8 20.5 17.5t45.5 9.5q15 0 37 -5l-66 99l-115 -80l-43 42l153 104l109 -156l-19 -16q30 -14 49.5 -39t19.5 -56zM311 249q-30 56 -90 56q-23 0 -43.5 -11t-37 -28.5t-26 -39.5t-9.5 -44q0 -78 73 -78q22 0 39 7t32 23.5t29.5 44.5t32.5 70zM538 246q0 32 -20.5 52
t-53.5 20q-69 0 -126 -159q31 -45 80 -45q21 0 42 10.5t38.5 28.5t28.5 42t11 51z" />
    <glyph glyph-name="HIN_CHHA_RA_UU" horiz-adv-x="542" 
d="M550 -313q-33 35 -59.5 59t-50.5 39t-47 21.5t-48 6.5q-23 0 -40 -12t-17 -29q0 -19 12.5 -31t26.5 -12q30 0 70 31l28 -43q-18 -11 -34.5 -20t-42.5 -9q-18 0 -36.5 9t-33.5 23.5t-25 31.5t-10 33q0 78 95 78q25 0 65 -17l-75 112l-115 -80l-43 42l147 100
q-15 -4 -39 -4q-29 0 -58.5 10t-53.5 27.5t-39.5 40t-15.5 47.5q0 31 35 61q-86 56 -86 98t30 66t78 24q28 0 43 -4t24 -12t13.5 -20.5t11.5 -30.5q-39 11 -63 11q-83 0 -83 -54q0 -11 6 -20t15 -15.5t20.5 -10.5t22.5 -4q2 0 19 4.5t34 4.5q31 0 44 -7q25 -43 25 -50
q0 -6 -5 -6l-5 1q-6 2 -19 4t-25 2q-15 0 -29.5 -6t-26 -16.5t-18.5 -24t-7 -28.5q0 -23 22 -35.5t52 -12.5q25 0 54.5 8.5t57 22t50.5 31.5t34 37l-72 52q-57 46 -57 100q0 38 24.5 65t66.5 33v57h-397l-30 56h573l30 -56h-116v-77q67 -46 67 -134q0 -43 -17.5 -81.5
t-46 -69.5t-64 -52.5t-72.5 -30.5l108 -153l-27 -23q70 -35 168 -133zM479 282q0 35 -17.5 60.5t-42.5 25.5q-23 0 -38 -21.5t-15 -50.5q0 -73 85 -110q28 43 28 96z" />
    <glyph glyph-name="HIN_TTA_RA_UU" horiz-adv-x="400" 
d="M503 -285q-33 35 -59.5 59t-50.5 39t-47 21.5t-48 6.5q-23 0 -40 -11.5t-17 -29.5t13 -30.5t26 -12.5q29 0 70 32l28 -44q-16 -11 -31.5 -19.5t-36.5 -8.5q-20 0 -40 8t-36.5 21.5t-27 31t-10.5 35.5q0 78 95 78q30 0 62 -16l-71 107l-115 -80l-43 42l147 100
q-4 -1 -12 -1h-11q-36 0 -70 15t-60.5 40t-42 57t-15.5 66q0 30 14 48.5t39.5 30t59.5 19t75 15.5q13 2 18 14.5t5 52.5q0 41 -3 65h-269l-30 56h435l30 -56h-106q3 -84 3 -116q0 -35 -7 -47.5t-26 -18.5q-18 -5 -49.5 -12.5t-76.5 -15.5q-58 -10 -58 -70q0 -18 8 -35
t21 -30t30.5 -20.5t35.5 -7.5q74 0 178 52l26 -54q-68 -39 -134 -46l107 -153l-25 -21q34 -17 75 -49.5t90 -81.5z" />
    <glyph glyph-name="HIN_TTHA_RA_UU" horiz-adv-x="457" 
d="M488 466h-121q23 -32 23 -78q0 -42 -49 -84q98 -59 98 -130q0 -29 -12.5 -54.5t-33.5 -45t-48 -32t-56 -16.5l106 -151l-28 -24l-76 114l-115 -80l-43 42l145 99h-5q-39 0 -77 16t-68.5 43.5t-49 63t-18.5 74.5q0 110 202 110q29 0 48.5 19t19.5 51q0 27 -14 63h-316
l-30 56h488zM385 193q0 36 -22.5 63t-58.5 27q-40 0 -74.5 -6t-60 -17t-40.5 -27t-15 -36q0 -55 36.5 -88t97.5 -33q24 0 48.5 9t44 24.5t32 37t12.5 46.5zM510 -313q-33 35 -59.5 59t-50.5 39t-47 21.5t-48 6.5q-23 0 -40 -12t-17 -29q0 -19 12.5 -31t26.5 -12q30 0 70 31
l28 -43q-18 -11 -34.5 -20t-42.5 -9q-18 0 -36.5 9t-33.5 23.5t-25 31.5t-10 33q0 78 95 78q84 0 235 -151z" />
    <glyph glyph-name="HIN_DDA_RA_UU" horiz-adv-x="522" 
d="M559 -304q-32 34 -58 58t-50 39t-47.5 21.5t-50.5 6.5q-23 0 -40 -11.5t-17 -29.5t13 -30t26 -12q31 0 71 31l27 -44q-18 -10 -34 -19t-42 -9q-18 0 -37 9t-34.5 23.5t-25 31.5t-9.5 32q0 78 95 78q34 0 74 -22l-73 110l-115 -80l-43 42l146 99q-148 8 -275 189l28 21
q30 -43 56.5 -72.5t54 -47.5t59 -26t70.5 -8q22 0 41.5 6.5t34.5 18t23.5 26.5t8.5 32q0 40 -28 40q-11 0 -36.5 -3t-58.5 -8l-44 -6q-29 0 -48 12.5t-45 48.5q-30 42 -30 77q0 29 21 52t54 23h140v71h-360l-30 56h552l30 -56h-132v-106q0 -21 -20 -21h-152q-49 0 -49 -44
q0 -31 9 -44t35 -13q2 0 20.5 2.5t41 6t42.5 6t25 2.5q24 0 44 -14.5t34.5 -34.5t22 -40t7.5 -30q0 -26 -10.5 -47t-28.5 -36.5t-42.5 -24t-52.5 -8.5h-2l106 -151l-26 -22q32 -17 71.5 -48.5t85.5 -77.5z" />
    <glyph glyph-name="HIN_DDHA_RA_UU" horiz-adv-x="458" 
d="M491 466h-113v-115q0 -20 -20 -20q-51 0 -153 -3q-91 -3 -91 -111q0 -26 9 -49t25 -41t37.5 -29.5t46.5 -14.5q-20 35 -20 80q0 104 103 104q23 0 43 -10.5t35 -29t23.5 -43.5t8.5 -54q0 -24 -10.5 -44t-28.5 -34.5t-43 -23t-53 -8.5h-3l106 -151l-28 -24l-76 114
l-115 -80l-43 42l146 99q-54 4 -116 54q-101 78 -101 195q0 38 14 61t41.5 36t68 17t93.5 4h41v79h-320l-30 56h493zM510 -313q-33 35 -59.5 59t-50.5 39t-47 21.5t-48 6.5q-23 0 -40 -12t-17 -29q0 -19 12.5 -31t26.5 -12q30 0 70 31l28 -43q-18 -11 -34.5 -20t-42.5 -9
q-18 0 -36.5 9t-33.5 23.5t-25 31.5t-10 33q0 78 95 78q84 0 235 -151zM390 158q0 22 -18 37.5t-44 15.5q-35 0 -53.5 -28.5t-18.5 -80.5q0 -9 3.5 -17.5t16.5 -8.5q22 0 42.5 6.5t36.5 18t25.5 26t9.5 31.5z" />
    <glyph glyph-name="HIN_LLA_RA_UU" horiz-adv-x="601" 
d="M632 466h-114v-128q28 -18 46.5 -54t18.5 -74q0 -27 -12 -53.5t-32 -47t-45 -33t-51 -12.5q-56 0 -119 68q-27 -38 -54 -55t-70 -17q-27 0 -52.5 12.5t-45 33.5t-31 49t-11.5 58q0 28 10.5 54t29 45.5t43.5 31t54 11.5q25 0 43.5 -6.5t33.5 -17.5t26.5 -24.5t23.5 -28.5
q40 82 134 82v106h-459l-30 56h633zM583 -284q-33 35 -59.5 59t-50.5 39t-47 21.5t-48 6.5q-23 0 -40 -12t-17 -29q0 -19 12.5 -31t26.5 -12q30 0 70 31l28 -43q-18 -11 -34.5 -20t-42.5 -9q-18 0 -36.5 9t-33.5 23.5t-25 31.5t-10 33q0 78 95 78q24 0 53 -12l-74 111
l-115 -80l-43 42l153 104l109 -156l-27 -22q73 -32 179 -138zM311 249q-30 56 -90 56q-23 0 -43.5 -11t-37 -28.5t-26 -39.5t-9.5 -44q0 -78 73 -78q22 0 39 7t32 23.5t29.5 44.5t32.5 70zM538 246q0 32 -20.5 52t-53.5 20q-69 0 -126 -159q31 -45 80 -45q21 0 42 10.5
t38.5 28.5t28.5 42t11 51z" />
    <glyph glyph-name="HIN_HALF_KA_RA" horiz-adv-x="381" 
d="M498 243q-23 15 -48 15q-33 0 -79 -33v-225l-62 35v148l-202 -187l-48 41l131 103q-27 2 -50.5 14.5t-41.5 32t-28 44t-10 51.5q0 42 31 71.5t85 29.5q24 0 40.5 -3.5t31 -12.5t28.5 -25t33 -41h2v165h-315l-30 56h419l30 -56h-44v-176q33 24 72 24q28 0 55 -12v-59z
M312 256q-29 39 -55.5 55t-68.5 16q-35 0 -59 -22t-24 -56q0 -27 18.5 -43.5t46.5 -16.5q54 0 142 67z" />
    <glyph glyph-name="HIN_HALF_KHA_RA" horiz-adv-x="472" 
d="M243 -39l-53 43l153 73l-2 2q-1 -1 -11 -1h-10q-75 0 -140 42t-108 130q-12 25 -12 31q0 7 8 16.5t13 9.5q1 0 59 -20q15 22 15 85q0 25 -1 48.5t-3 45.5h-153l-30 56h506l30 -56q-6 -1 -12 -1h-12h-257q-8 0 -13 1l5 -160q0 -60 -68 -105q74 -86 181 -86q84 0 201 63
q-1 -2 -1 -8v-17q0 -17 1 -18zM529 301v-71q-68 -44 -108 -44q-29 0 -55 10.5t-45.5 28.5t-31 42.5t-11.5 53.5q0 22 8.5 42t23.5 35t36.5 23.5t47.5 8.5q24 0 40.5 -3.5t31 -12.5t28.5 -25t33 -41h3v-46zM527 302q-15 21 -29 35t-28 22.5t-29.5 11.5t-34.5 3q-35 0 -59 -22
t-24 -56q0 -27 18.5 -43.5t46.5 -16.5q26 0 60 17t79 49z" />
    <glyph glyph-name="HIN_HALF_GA_RA" horiz-adv-x="268" 
d="M299 466h-110v-223q0 -16 -10 -27t-24 -11q-2 0 -17 11.5t-32.5 28.5t-31.5 35t-14 32q0 8 6 15t11 7h46q6 0 6 10v122h-129l-30 56h299zM338 186l-233 -187l-52 46l285 190v-49z" />
    <glyph glyph-name="HIN_HALF_GHA_RA" horiz-adv-x="308" 
d="M391 208l-278 -194l-45 39q57 36 92 58.5t49 30.5q-23 4 -44.5 15.5t-39 28t-28 36.5t-10.5 41q0 48 59 81q-86 53 -86 100v22h-61l-30 56h343l30 -56h-198q-18 -17 -18 -47q0 -34 51 -65h15q57 0 86 -20q18 -47 18 -48q0 -8 -11 -8q-1 0 -12.5 2.5t-25 5.5t-25 5.5
t-12.5 2.5q-69 0 -69 -55q0 -26 16 -44.5t41 -18.5q74 0 193 111v-79z" />
    <glyph glyph-name="HIN_HALF_CHA_RA" horiz-adv-x="366" 
d="M181 2l-49 44l141 84q-48 12 -79 44t-31 74q0 32 23 61h-97l-30 56h324l30 -53h-3q-4 0 -9 0.5t-13 0.5h-31q-80 0 -100 -11q-16 -9 -28 -31t-12 -46q0 -63 62 -63q45 0 170 105v-69q0 -4 1 -9zM399 466h-399l-30 56h399z" />
    <glyph glyph-name="HIN_HALF_JA_RA" horiz-adv-x="375" 
d="M409 466h-408l-30 56h408zM433 346h-142q59 -68 59 -111q0 -39 -26 -62t-59 -23q-112 0 -205 210l33 14q55 -162 146 -162q23 0 38 16t15 40q0 55 -100 113l8 21h233v-56zM434 121l-264 -124l-44 47l308 125v-48z" />
    <glyph glyph-name="HIN_HALF_JHA_RA" horiz-adv-x="347" 
d="M439 268q-1 -1 -1 -11v-20q0 -5 1 -8q-34 25 -67 25q-27 0 -68 -32q24 -32 24 -57q0 -92 -130 -120l117 -122l-29 -26q-97 127 -125 138q-23 4 -38.5 7t-22.5 7q-14 8 -24 29.5t-10 42.5q0 8 10.5 18.5t27.5 10.5q7 0 17 -8.5t20 -19t18.5 -19t11.5 -8.5q19 0 39 6.5
t36.5 18.5t26.5 28t10 35q0 38 -28 38q-3 0 -15 -3t-25.5 -7t-26.5 -7t-19 -3q-19 0 -38.5 15t-35 37.5t-25.5 48.5t-10 49q0 49 57 49h124v66h-241l-30 56h380l30 -56h-85v-103q0 -13 -19 -13h-128q-43 0 -43 -29q0 -26 15 -48t36 -22q5 0 17.5 3t26 7t26 7t17.5 3
q18 0 26 -8q50 38 84 38q3 0 25 -5zM439 180v-78l-130 -115l-44 39z" />
    <glyph glyph-name="HIN_HALF_NYA_RA" horiz-adv-x="377" 
d="M412 466h-413l-30 56h413zM462 260q-45 -9 -75 -9h-8q-23 -90 -117 -90q-104 0 -202 137l25 22q12 -21 29.5 -39.5t37 -32.5t40.5 -22.5t39 -8.5q43 0 72.5 27t29.5 70q0 20 -11 37.5t-27 17.5q-6 0 -17 -5.5t-23 -13.5t-23 -17.5t-17 -18.5l-50 51q40 40 95 40
q48 0 82 -26.5t45 -71.5q59 6 75 16v-63zM462 140l-217 -142l-44 39l261 152v-49z" />
    <glyph glyph-name="HIN_HALF_NNA_RA" horiz-adv-x="373" 
d="M404 466h-72v-174q0 -36 -29.5 -59t-68.5 -23q-19 0 -43.5 12.5t-46.5 31t-37 41t-15 43.5v128h-93l-30 56h405zM371 174l-217 -173l-44 39l261 183v-49zM272 466h-120v-159q0 -11 5 -21t12.5 -17t16.5 -11t18 -4q68 0 68 74v138z" />
    <glyph glyph-name="HIN_HALF_TA_RA" horiz-adv-x="267" 
d="M299 466h-300l-30 56h300zM353 223l-209 -147l-47 41l226 151q-82 58 -120 58q-30 0 -101 -31l-42 55q96 32 124 32q22 0 39 -6t35 -18t40.5 -30t54.5 -41v-64z" />
    <glyph glyph-name="HIN_HALF_TA_RA1" horiz-adv-x="243" 
d="M281 466h-281l-30 56h281zM327 222l-123 -96l-44 39l167 106v-49zM327 317h-123q-90 0 -90 -81q0 -66 108 -198l-32 -26q-130 163 -130 258q0 48 29 75.5t77 27.5h161v-56z" />
    <glyph glyph-name="HIN_HALF_THA_RA" horiz-adv-x="390" 
d="M422 466h-90l-30 56h90zM410 202q0 -2 -279 -192l-53 52l137 78q-25 6 -51.5 23t-48 36t-35.5 35t-14 20q0 2 15 9t34.5 16.5t39 19.5t29.5 18q-124 37 -124 110q0 19 7.5 37.5t20 33t30 23.5t37.5 9q24 0 49.5 -10.5t46 -28t34 -41t13.5 -48.5q0 -94 -141 -164
q9 -60 74 -60q87 0 179 113v-89zM238 416q0 33 -14.5 51.5t-35.5 18.5q-24 0 -43 -18.5t-19 -42.5q0 -30 24.5 -52.5t59.5 -31.5q28 24 28 75z" />
    <glyph glyph-name="HIN_HALF_DHA_RA" horiz-adv-x="328" 
d="M361 466h-46l-30 56h46zM413 203q-71 -56 -261 -201l-52 53l123 78q-26 7 -47.5 19.5t-38 29t-25.5 35.5t-9 38q0 50 52 72q-30 18 -48.5 33t-29 30t-14 31t-3.5 36q0 33 23.5 56t55.5 23q42 0 68 -24.5t26 -62.5q0 -32 -21.5 -54.5t-56.5 -27.5q15 -20 49 -20q5 0 23 1
t30 1q29 0 37 -3q24 -32 24 -47q0 -11 -17 -11q-13 0 -34.5 2.5t-31.5 2.5q-78 0 -78 -68q0 -26 21.5 -44t50.5 -18q68 0 184 114v-74zM198 444q0 18 -12 30t-29 12q-20 0 -31.5 -13.5t-11.5 -30.5q0 -32 23 -55q61 4 61 57z" />
    <glyph glyph-name="HIN_HALF_NA_RA" horiz-adv-x="246" 
d="M277 466h-277l-30 56h277zM332 288h-157q-18 0 -18 -10v-53q0 -21 -18 -21q-7 0 -20 15.5t-26 35t-23 37.5t-10 23q0 16 14 22.5t54 6.5h204v-56zM331 206l-207 -205l-51 48l258 203v-46z" />
    <glyph glyph-name="HIN_HALF_PA_RA" horiz-adv-x="252" 
d="M315 226v-35q-10 -9 -59 -54.5t-140 -127.5l-44 46l194 151l-61 19q-113 35 -113 111v130h-93l-30 56h288l30 -56h-135v-132q0 -61 53 -76z" />
    <glyph glyph-name="HIN_HALF_PHA_RA" horiz-adv-x="414" 
d="M493 245q-17 14 -51 14q-33 0 -74 -29v-230l-61 35v164l-198 -190l-44 46l187 164l-47 16q-57 20 -85 46.5t-28 64.5v120h-100l-30 56h457l30 -56h-81v-173q31 22 64 22q38 0 61 -20v-50zM308 466h-156v-122q0 -59 53 -76l73 -24l30 21v201z" />
    <glyph glyph-name="HIN_HALF_BA_RA" horiz-adv-x="343" 
d="M376 466h-378l-30 56h378zM382 249q0 -51 -39 -85l-239 -163l-44 39l144 88q-31 4 -57.5 18.5t-45.5 35t-30 45t-11 48.5q0 22 11.5 42.5t32 36.5t49.5 25.5t64 9.5q33 0 63 -13.5t52.5 -34.5t36 -45.5t13.5 -46.5zM332 261q0 39 -22.5 61.5t-54.5 22.5q-39 0 -62 -10
l89 -139q50 26 50 65zM164 320q-10 -5 -19 -14.5t-16 -20.5t-11 -23t-4 -22q0 -70 81 -70q23 0 58 11z" />
    <glyph glyph-name="HIN_HALF_BHA_RA" horiz-adv-x="346" 
d="M376 466h-43l-30 56h43zM410 278v-99l-227 -178l-44 39l267 188h-152v-51q0 -17 -18 -17q-5 0 -22 12t-35.5 28t-33 32t-14.5 24q0 22 19 22h44l3 57q-137 41 -137 121q0 74 79 74q115 0 115 -143v-109h156zM204 420q0 66 -42 66t-42 -43q0 -13 6.5 -25.5t18 -22.5
t26 -16.5t30.5 -7.5q3 30 3 49z" />
    <glyph glyph-name="HIN_HALF_MA_RA" horiz-adv-x="302" 
d="M381 288v-94l-246 -194l-44 39l272 193h-180v-46q0 -25 -20 -25q-6 0 -23 14t-35 32.5t-31.5 35.5t-13.5 23q0 22 19 22h44v178h-123l-30 56h333l30 -56h-150v-178h198z" />
    <glyph glyph-name="HIN_HALF_YA_RA" horiz-adv-x="300" 
d="M377 215q-127 -105 -190.5 -158t-68.5 -58l-44 39l153 115q-126 13 -167 163q58 11 92.5 33.5t34.5 50.5q0 17 -28 66h-160l-30 56h331l30 -56h-125q36 -68 36 -102q0 -56 -112 -93q0 -75 67 -75q88 0 181 93v-74z" />
    <glyph glyph-name="HIN_HALF_YA_RA1" horiz-adv-x="445" 
d="M478 466h-70v-466l-62 39v114l-228 -154l-44 39l130 78q-54 10 -89.5 47t-45.5 89q27 0 51 4.5t41.5 12t28 18.5t10.5 25q0 13 -5 21t-20 12.5t-41.5 6.5t-69.5 2h-151l-7 56h144q34 0 58 -2t40.5 -6.5t28.5 -13.5t23 -22q35 -44 35 -67q0 -70 -85 -89q11 -62 57 -62
q19 0 39 7t38.5 19.5t35 29t28.5 35.5v227h-504l-30 56h634z" />
    <glyph glyph-name="HIN_HALF_LA_RA" horiz-adv-x="408" 
d="M441 466h-440l-30 56h440zM473 244l-186 -178l-44 39l227 186q-29 38 -53 38q-17 0 -31 -6t-27.5 -20t-28 -36.5t-31.5 -54.5l-46 33q7 15 24 42q-6 10 -15.5 20t-20 17.5t-21 12t-19.5 4.5q-35 0 -58 -26t-23 -64q0 -125 181 -228l-25 -30q-50 32 -90 68t-68 72.5
t-43 73.5t-15 70q0 23 8.5 45t23.5 38.5t35 26.5t43 10q22 0 40 -8t32.5 -20.5t26.5 -27t23 -27.5q48 65 97 65q38 0 84 -46v-89z" />
    <glyph glyph-name="HIN_HALF_VA_RA" horiz-adv-x="297" 
d="M333 466h-333l-30 56h333zM363 312v-109l-235 -195l-47 46l123 87q-27 2 -52.5 15.5t-46 34t-33 46.5t-12.5 53q0 54 37 84t103 30q29 0 49 -3.5t37.5 -13t34 -27.5t38.5 -48h4zM360 282q-71 66 -140 66q-49 0 -77.5 -24.5t-28.5 -55.5q0 -84 79 -84q17 0 38.5 7.5t44 21
t44.5 31.5t40 38z" />
    <glyph glyph-name="HIN_TTA_VA" horiz-adv-x="403" 
d="M434 466h-106v-66l3 2q-2 -56 -33 -66q-42 -5 -126 -18q-58 -10 -58 -66q0 -36 28.5 -56.5t71.5 -20.5q63 0 173 51l26 -54q-5 -3 -13.5 -7.5t-19.5 -9.5v-203l-55 34l1 54q-7 -6 -19.5 -12t-27 -11t-29 -8t-24.5 -3q-26 0 -51 7.5t-44.5 21t-32 31.5t-12.5 40
q0 47 30 70q-56 50 -56 107q0 25 10.5 41.5t33.5 27.5t58.5 18.5t85.5 15.5q14 2 19 13t5 31v3q0 4 -1 7l-3 26h-269l-30 56h435zM324 134q-35 -9 -76 -9q-50 0 -75 13q-18 -4 -31 -18.5t-13 -28.5q0 -41 69 -41q94 0 126 84z" />
    <glyph glyph-name="HIN_HALF_SHHA_RA" horiz-adv-x="264" 
d="M346 309v-85l-212 -223l-44 39q63 58 96.5 88.5t37.5 35.5q-1 0 -2 -0.5t-3 -0.5q-19 0 -41 11t-41 29t-32 40.5t-13 45.5v177h-93l-30 56h295l30 -56h-148l185 -174zM152 419v-149q0 -63 43 -63q31 0 64 17.5t55 43.5z" />
    <glyph glyph-name="HIN_HALF_SA_RA" horiz-adv-x="330" 
d="M416 221v-58l-109 -86l-44 39l153 105q-51 -16 -77 -16q-67 0 -118 54l-13 -13q-3 -3 -6 -4l-25 -21q-12 -10 -21.5 -18t-9.5 -9q0 -2 158 -166l-28 -28q-66 75 -108 123t-61 71q-47 59 -47 82q0 12 9 23t19 11l9 -5q7 -3 15.5 -7t16.5 -8t13.5 -6.5t7.5 -2.5
q13 0 13 125q0 11 -1 26t-3 34h-159l-30 56h452l30 -56h-229v-172q55 -33 97 -33q50 0 96 37v-77l1 1z" />
    <glyph glyph-name="HIN_HALF_SHA_RA" horiz-adv-x="444" 
d="M474 466h-74l-30 56h74zM453 224l-255 -196l-48 39l243 182q-18 4 -129 45q-28 -19 -66 -43.5t-89 -55.5l-49 40q37 19 73 41t73 48q-96 48 -96 113q0 19 8.5 36t23 29.5t34 20t40.5 7.5q19 0 40.5 -11.5t40.5 -29.5t31.5 -40t12.5 -43q0 -56 -50 -86q42 -16 82.5 -28
t79.5 -21v-47zM296 424q0 26 -13 44t-36 18q-15 0 -28.5 -5.5t-24.5 -15t-17.5 -22.5t-6.5 -28q0 -43 71 -72q55 31 55 81z" />
    <glyph glyph-name="HIN_SHA_R" horiz-adv-x="538" 
d="M569 466h-76v-464q-27 -3 -53 -7.5t-46 -12t-32 -18.5t-12 -27q0 -35 54 -35q43 0 91 18l36 -56q-29 -12 -84 -12q-29 0 -54.5 9.5t-45 25t-31 34.5t-11.5 39q0 19 5 33t18.5 24t37.5 17.5t62 13.5l6 184q-40 8 -170 54q-28 -19 -66 -43.5t-89 -55.5l-49 40q37 19 73 41
t73 48q-96 48 -96 113q0 19 8.5 36t23 29.5t34 20t40.5 7.5q19 0 40.5 -11.5t40.5 -29.5t31.5 -40t12.5 -43q0 -56 -50 -86q7 -4 27.5 -11t43.5 -14.5t43.5 -13t27.5 -5.5v198h-53l-30 56h189zM296 416q0 26 -13 44t-36 18q-15 0 -28.5 -5.5t-24.5 -15t-17.5 -22.5t-6.5 -28
q0 -43 71 -72q55 31 55 81z" />
    <glyph glyph-name="HIN_HALF_HA_RA" horiz-adv-x="333" 
d="M360 200q-7 10 -20 18l-119 -153l-44 39l123 129q-12 4 -52 4q-24 0 -46 -10t-39 -25.5t-27 -35.5t-10 -40q0 -24 10.5 -43.5t34.5 -37t63 -33.5t95 -32l-9 -34q-56 13 -102.5 34t-80 48t-52.5 57t-19 61q0 48 32 80q-56 56 -56 99q0 73 76 73h121v68h-237l-30 56h363
l30 -56h-66v-104q0 -20 -19 -20h-150q-15 0 -29 -11.5t-14 -28.5q0 -31 33 -53q47 32 112 32q22 0 45 -4t43.5 -11.5t37 -17t25.5 -21.5z" />
    <glyph glyph-name="HIN_KA_KA" horiz-adv-x="610" 
d="M665 466h-305v-102q55 39 97 39q14 0 32.5 -12.5t34.5 -31t27 -39.5t11 -38q0 -27 -15 -61l-52 38q13 25 13 58q0 36 -34 36q-8 0 -23 -5t-32 -13t-33 -17.5t-26 -18.5v-90q49 34 93 34q15 0 34.5 -11.5t37 -29t29.5 -39t12 -42.5q0 -55 -42 -116l-47 44q35 50 35 95
q0 49 -39 49q-11 0 -26 -4t-31.5 -10.5t-31.5 -14.5t-24 -15v-149l-64 35l4 90q-76 -46 -122 -46q-16 0 -35 10t-35 25t-27 32.5t-11 33.5q0 42 33 68q-17 14 -30 39.5t-13 45.5q0 39 30.5 68.5t81.5 29.5q48 0 72 -15l29 -27q7 -8 13.5 -16.5t11.5 -18.5h2v112h-300l-30 56
h665zM300 326q-52 55 -116 55q-36 0 -57.5 -21.5t-21.5 -49.5q0 -18 14.5 -32.5t31.5 -14.5q16 0 27 1.5t25.5 7.5t36.5 18.5t60 35.5zM300 264q-80 -51 -120 -51l-36 8q-29 -27 -29 -55q0 -15 15.5 -26t29.5 -11q46 0 140 55v80z" />
    <glyph glyph-name="HIN_KA_CHA" horiz-adv-x="630" 
d="M665 466h-295v-122q55 45 94 45q20 0 41 -13.5t37.5 -37t27 -53.5t10.5 -63q0 -46 -65 -147l-51 46q71 98 71 151q0 24 -18 42.5t-38 18.5q-39 0 -109 -60v-273l-57 31q-55 -31 -96 -31q-19 0 -36 6t-30 16t-21 23t-8 27q0 5 5 23l-51 -12l-30 41l209 44l33 -38
q-59 -8 -90.5 -20t-31.5 -46q0 -36 34 -36q10 0 24.5 4.5t29.5 13t29.5 19t25.5 22.5l3 146q-71 -44 -110 -44q-29 0 -55 11.5t-45.5 31t-31 45.5t-11.5 55q0 42 31 71.5t85 29.5q28 0 46.5 -5.5t32.5 -16t26.5 -26t27.5 -34.5h2v115h-310l-30 56h665zM311 306
q-29 39 -55.5 55t-68.5 16q-35 0 -59 -22t-24 -56q0 -27 18.5 -43.5t46.5 -16.5q54 0 142 67z" />
    <glyph glyph-name="HIN_KA_TA" horiz-adv-x="670" 
d="M705 466h-290v-134q61 23 90 23q21 0 40.5 -13t35 -34t24.5 -47t9 -52q0 -87 -104 -188l-52 46q111 97 111 179q0 53 -59 53q-55 0 -95 -33v-266l-62 35v267h-38q-128 0 -128 -98q0 -15 8.5 -33.5t23 -37t33 -35t39.5 -28.5l-22 -30q-30 23 -55 48.5t-43 50.5t-28 47.5
t-10 39.5q0 45 33 74v2h-80l-26 50h295v114h-356l-30 56h706z" />
    <glyph glyph-name="HIN_KA_NA" horiz-adv-x="621" 
d="M656 466h-295v-172q55 45 94 45q21 0 41 -12t35.5 -33t24.5 -49t9 -61q0 -52 -53 -135l-51 46q59 80 59 139q0 22 -14.5 35.5t-35.5 13.5q-39 0 -109 -60v-223l-62 35l5 148q0 1 -149 -116q26 -35 26 -44q0 -24 -21 -24q-14 0 -33 3.5t-35.5 9.5t-28 14t-11.5 16
q0 22 19 32l98 67q-26 4 -47.5 17t-37.5 32t-25 42.5t-9 49.5q0 42 31 71.5t85 29.5q28 0 46.5 -5t33 -15.5t26.5 -25.5t27 -36h2v165h-310l-30 56h665zM302 256q-29 39 -55.5 55t-68.5 16q-35 0 -59 -22t-24 -56q0 -27 18.5 -43.5t46.5 -16.5q54 0 142 67z" />
    <glyph glyph-name="HIN_KA_LA" horiz-adv-x="610" 
d="M645 466h-285v-102q55 39 97 39q14 0 32.5 -12.5t34.5 -31t27 -39.5t11 -38q0 -39 -42 -81l-52 38q40 40 40 78q0 36 -34 36q-8 0 -23 -5t-32 -13t-33 -17.5t-26 -18.5v-109q31 18 58 18q18 0 37.5 -10t36 -25t27 -34t10.5 -37q0 -32 -41 -61l-76 -44l-48 45l72 39
q50 32 50 56q0 27 -34 27q-14 0 -32.5 -6.5t-38.5 -18.5t-38.5 -28t-31.5 -35l-50 37q7 16 27 36q-20 12 -46 12q-29 0 -47.5 -16t-18.5 -42q0 -41 77 -88l-17 -17q-35 18 -58 33t-36.5 29t-19 28.5t-5.5 31.5q0 45 25.5 63t77.5 18q10 0 16.5 -1t14.5 -3.5t19 -8t30 -14.5
v90q-80 -51 -120 -51q-26 0 -47.5 13t-38 31.5t-25.5 39t-9 36.5q0 39 30.5 68.5t81.5 29.5q48 0 72 -15l29 -27q7 -8 13.5 -16.5t11.5 -18.5h2v112h-300l-30 56h645zM300 326q-52 55 -116 55q-36 0 -57.5 -21.5t-21.5 -49.5q0 -18 14.5 -32.5t31.5 -14.5q16 0 27 1.5
t25.5 7.5t36.5 18.5t60 35.5z" />
    <glyph glyph-name="HIN_KA_VA" horiz-adv-x="631" 
d="M666 466h-295v-139q55 45 94 45q21 0 41 -12t35.5 -33t24.5 -49t9 -61q0 -52 -53 -135l-51 46q59 80 59 139q0 22 -14.5 35.5t-35.5 13.5q-39 0 -109 -60v-256l-62 35v27q-6 -9 -19.5 -18.5t-31 -17.5t-36 -13t-33.5 -5q-27 0 -50.5 8.5t-41 23.5t-28 34t-10.5 40
q0 28 18 53t41 32l-35 39q-23 32 -23 77q0 42 31 71.5t85 29.5q28 0 46.5 -5.5t32.5 -16t26.5 -26t27.5 -34.5h2v132h-310l-30 56h665zM312 289q-29 39 -55.5 55t-68.5 16q-35 0 -59 -22t-24 -56q0 -27 18.5 -43.5t46.5 -16.5q54 0 142 67zM311 141q0 72 1 74
q-23 -15 -36 -23.5t-23 -12.5t-20.5 -5t-26.5 -2q-42 -4 -69.5 -29.5t-27.5 -55.5q0 -20 10.5 -27.5t45.5 -7.5q14 0 32.5 7t38.5 19.5t39.5 28.5t35.5 34z" />
    <glyph glyph-name="HIN_KHA_NA" horiz-adv-x="634" 
d="M665 466h-76v-466l-60 35v102l-309 -60l13 -37l7 -26q-3 -17 -17 -17q-3 0 -20.5 8.5t-37 21.5t-35.5 28t-16 28q0 12 9 19.5t20 9.5l85 16q-42 18 -84 59.5t-72 102.5q-12 25 -12 31q0 7 8 16.5t13 9.5q2 0 59 -20q15 22 15 85q0 5 -1 18.5t-3 35.5h-153l-30 56h667z
M530 302q-29 40 -55.5 56t-68.5 16q-35 0 -59 -22t-24 -56q0 -27 18.5 -43.5t46.5 -16.5q53 0 142 66zM529 230q-68 -44 -108 -44q-29 0 -55 10.5t-45.5 28.5t-31 42.5t-11.5 53.5q0 22 8.5 42t23.5 35t36.5 23.5t47.5 8.5q24 0 40.5 -3.5t31 -12.5t28.5 -25t33 -41h2v118
h-319l3 -73q1 -16 1.5 -27.5t0.5 -19.5q0 -59 -63 -101q73 -99 176 -99q91 22 141 32.5t59 10.5h1v41z" />
    <glyph glyph-name="HIN_NGA_KA" horiz-adv-x="603" 
d="M584 310l-59 -58l-59 58l59 58zM638 466h-196v-96q0 -26 -23 -26h-144q-22 0 -41 -13.5t-19 -28.5q0 -41 20 -41q3 0 25 3t47.5 6.5t47.5 6.5t25 3q18 0 37 -10.5t34 -26.5t24.5 -34.5t9.5 -34.5q0 -20 -10.5 -37.5t-27.5 -31t-40.5 -21t-48.5 -7.5v-103q42 39 86 39
q18 0 36 -13t32 -33t23 -44.5t9 -47.5q0 -46 -30 -94l-52 45q37 58 37 89q0 19 -12 33.5t-25 14.5q-31 0 -104 -52v-164l-55 41l2 80q-36 -36 -90 -36q-23 0 -46.5 10.5t-43 28t-31.5 40t-12 45.5q0 45 29.5 71t83.5 26q55 0 108 -75h2v99q-132 32 -245 196l27 21
q33 -45 63 -76.5t59 -51.5t59 -29.5t63 -9.5q22 0 42 5.5t35 15t23.5 22.5t8.5 27q0 33 -40 33q-4 0 -21.5 -3t-38.5 -6.5t-39.5 -6.5t-23.5 -3q-19 0 -38 10.5t-34.5 28t-25 41t-9.5 49.5q0 24 19.5 42t50.5 18h142v66h-377l-30 56h633zM308 -61q-53 62 -110 62
q-30 0 -50.5 -20.5t-20.5 -52.5q0 -21 17 -36.5t38 -15.5q63 0 126 63z" />
    <glyph glyph-name="HIN_NGA_KA_TA" horiz-adv-x="603" 
d="M584 320l-59 -58l-59 58l59 58zM638 466h-196v-86q0 -26 -23 -26h-144q-22 0 -41 -13.5t-19 -28.5q0 -41 20 -41q3 0 25 3t47.5 6.5t47.5 6.5t25 3q18 0 37 -10.5t34 -26.5t24.5 -34.5t9.5 -34.5q0 -83 -114 -102v-50q31 16 64 16q15 0 29.5 -9.5t26 -24.5t18 -34
t6.5 -38q0 -67 -76 -137l-37 33q80 71 80 125q0 40 -43 40q-39 0 -68 -23v-194l-55 30v194h-23q-87 0 -87 -71q0 -10 5.5 -23.5t15.5 -27.5t22 -26.5t26 -20.5l-15 -22q-21 16 -39.5 34.5t-32 36.5t-21 34.5t-7.5 29.5q0 34 24 55l-60 1l-19 37h213v32q-18 1 -39.5 9
t-42.5 19.5t-39 25.5t-30 28q-29 25 -55.5 55.5t-51.5 66.5l27 21q33 -45 63 -76.5t59 -51.5t59 -29.5t63 -9.5q22 0 42 5.5t35 15t23.5 22.5t8.5 27q0 33 -40 33q-4 0 -21.5 -3t-38.5 -6.5t-39.5 -6.5t-23.5 -3q-19 0 -38 10.5t-34.5 28t-25 41t-9.5 49.5q0 24 19.5 42
t50.5 18h142v56h-383l-30 56h639z" />
    <glyph glyph-name="HIN_NGA_KHA" horiz-adv-x="603" 
d="M584 310l-59 -58l-59 58l59 58zM638 466h-195v-96q0 -26 -23 -26h-143q-22 0 -41 -13.5t-19 -28.5q0 -10 6.5 -22.5t14.5 -12.5q3 0 25 3t47.5 6.5t47.5 6.5t25 3q18 0 37 -10.5t34 -26.5t24.5 -34.5t9.5 -34.5t-13 -41v-382l-54 35q-79 -32 -139 -32q-49 0 -109.5 45.5
t-114.5 138.5q-20 35 -20 38q0 26 23 26q12 0 23 -4l29 -5q12 28 12 108q0 77 -9 106l-54 69l27 21q33 -45 63 -76.5t59 -51.5t59 -29.5t63 -9.5q23 0 43 5.5t35 15t23.5 21.5t8.5 25q0 33 -40 33q-4 0 -21.5 -3t-38.5 -6.5t-39.5 -6.5t-23.5 -3q-19 0 -38 10.5t-34.5 27.5
t-25.5 39t-10 46t19.5 42t50.5 18h141v66h-380l-30 56h635zM416 -43q-38 45 -86 45q-78 0 -78 -68q0 -33 38 -33q12 0 28.5 4.5t34 12t34.5 18t29 21.5zM421 98q-33 -12 -80 -12q-82 0 -170 73q4 -51 6 -75.5t2 -25.5q0 -51 -13 -83.5t-48 -63.5q32 -45 76.5 -73t87.5 -28
q15 0 35.5 4.5t41 11t36.5 14t22 13.5v40q-44 -36 -95 -36q-23 0 -43.5 9.5t-36.5 24.5t-25.5 34.5t-9.5 39.5q0 39 32 64t77 25q16 0 27 -1.5t21.5 -8.5t23.5 -20t33 -36v110z" />
    <glyph glyph-name="HIN_NGA_GA" horiz-adv-x="603" 
d="M584 310l-59 -58l-59 58l59 58zM638 466h-196v-96q0 -26 -23 -26h-144q-22 0 -41 -13.5t-19 -28.5q0 -41 20 -41q3 0 25 3t47.5 6.5t47.5 6.5t25 3q18 0 37 -10.5t34 -26.5t24.5 -34.5t9.5 -34.5q0 -26 -21 -57v-316l-61 35l2 244q-23 -9 -55 -9q-56 0 -87 18v-147
q0 -49 -32 -49q-9 0 -24 10t-29.5 24.5t-25.5 29.5t-11 25q0 21 19 21h35q14 0 14 14v101q-14 9 -35.5 28t-43 41.5t-41 45.5t-29.5 40l27 21q33 -45 63 -76.5t59 -51.5t59 -29.5t63 -9.5q22 0 42 5.5t35 15t23.5 22.5t8.5 27q0 33 -40 33q-4 0 -21.5 -3t-38.5 -6.5
t-39.5 -6.5t-23.5 -3q-19 0 -38 10.5t-34.5 28t-25 41t-9.5 49.5q0 24 19.5 42t50.5 18h142v66h-382l-30 56h638z" />
    <glyph glyph-name="HIN_NGA_GHA" horiz-adv-x="603" 
d="M638 466h-196v-96q0 -26 -23 -26h-144q-22 0 -41 -13.5t-19 -28.5q0 -41 20 -41q3 0 25 3t47.5 6.5t47.5 6.5t25 3q18 0 37 -10.5t34 -26.5t24.5 -34.5t9.5 -34.5q0 -37 -17 -46v-364l-58 35l6 65q-10 -8 -26.5 -16t-34.5 -14.5t-34.5 -10.5t-26.5 -4q-24 0 -49.5 9.5
t-46.5 25.5t-34.5 36.5t-13.5 43.5q0 43 52 67q-12 7 -24 18t-21 23t-14.5 24.5t-5.5 22.5q0 32 30 62q-29 25 -55.5 55.5t-51.5 66.5l27 21q33 -45 63 -76.5t59 -51.5t59 -29.5t63 -9.5q22 0 42 5.5t35 15t23.5 22.5t8.5 27q0 33 -40 33q-4 0 -21.5 -3t-38.5 -6.5
t-39.5 -6.5t-23.5 -3q-19 0 -38 10.5t-34.5 28t-25 41t-9.5 49.5q0 24 19.5 42t50.5 18h142v66h-383l-30 56h639zM414 85q-45 -14 -75 -14q-11 0 -26.5 3.5t-31.5 9.5t-30 12.5t-23 12.5q-24 -11 -24 -42q0 -34 34 -56q13 3 26 3q34 0 54 -9q26 -44 26 -51q0 -4 -4 -5l-8 2
l-44 6q-4 1 -11 1h-7q-32 0 -49 -17t-17 -39q0 -39 51 -39q76 0 159 77v145zM584 310l-59 -58l-59 58l59 58z" />
    <glyph glyph-name="HIN_HALF_CHA_CHA" horiz-adv-x="522" 
d="M556 466h-560l-30 56h560zM598 170q-56 -44 -106 -44q-69 0 -117 42q-53 -42 -100 -42q-33 0 -61 9.5t-49 26t-32.5 38.5t-11.5 48q0 32 23 61h-97l-26 50h521l30 -51h-122q-12 0 -23 -7.5t-19.5 -19t-13 -26.5t-4.5 -30q0 -63 62 -63q53 0 144 91zM228 309
q-10 0 -19.5 -8.5t-17 -21t-12 -27.5t-4.5 -27q0 -63 64 -63q46 0 101 55q-2 12 -3 20t-1 12q0 25 26 60h-134z" />
    <glyph glyph-name="HIN_CHA_CHA" horiz-adv-x="704" 
d="M736 466h-76v-466l-61 35l1 132q-56 -41 -103 -41q-69 0 -117 42q-53 -42 -100 -42q-33 0 -61 9.5t-49 26t-32.5 38.5t-11.5 48q0 32 23 61h-77l-26 50h501l30 -51h-122q-12 0 -23 -7.5t-19.5 -19t-13 -26.5t-4.5 -30q0 -63 62 -63q53 0 143 90l1 214h-600l-30 56h735z
M233 309q-10 0 -19.5 -8.5t-17 -21t-12 -27.5t-4.5 -27q0 -63 64 -63q46 0 101 55q-2 12 -3 20t-1 12q0 25 26 60h-134z" />
    <glyph glyph-name="HIN_CHA_NA" horiz-adv-x="538" 
d="M569 466h-76v-466l-62 35v170l-178 -139q26 -35 26 -44q0 -24 -21 -24q-14 0 -32.5 3.5t-35 9.5t-28.5 14t-12 16q0 22 19 32l124 84q-27 3 -51 14t-41 27.5t-27 37t-10 42.5q0 32 23 61h-97l-30 56h304l30 -53h-7q-6 0 -8 1h-21q-80 0 -100 -11q-16 -9 -28 -31t-12 -46
q0 -63 62 -63q50 0 153 91v183h-433l-30 56h569z" />
    <glyph glyph-name="HIN_CHA_VA" horiz-adv-x="538" 
d="M569 466h-76v-466l-62 35l1 25q-8 -10 -23 -19t-32.5 -16.5t-35 -12t-30.5 -4.5q-27 0 -50.5 8.5t-41 23.5t-28 34t-10.5 40q0 42 35 71q-52 37 -52 93q0 32 23 61h-97l-30 56h324l30 -53h-3q-4 0 -9 0.5t-13 0.5h-31q-80 0 -100 -11q-16 -9 -28 -31t-12 -46
q0 -63 62 -63q50 0 153 91v183h-433l-30 56h569zM435 207q-53 -51 -117 -51q-20 0 -36 3q-51 -26 -51 -72q0 -20 10.5 -27.5t45.5 -7.5q12 0 31 7t39.5 19t40.5 28t35 34z" />
    <glyph glyph-name="HIN_CHHA_VA" horiz-adv-x="532" 
d="M564 466h-123v-42q74 -47 74 -130q0 -89 -90 -158v-224l-56 28q-26 -20 -114 -20q-26 0 -53.5 12t-50 30.5t-37 41.5t-14.5 46q0 57 62 78q-57 37 -57 86q0 32 28 44q-73 31 -73 81q0 16 9 31.5t24 27t34 18.5t39 7q43 0 56 -7l30 -55q-29 12 -59 12q-34 0 -56.5 -16.5
t-22.5 -41.5q0 -23 42 -35q34 15 84 15q5 0 10 -0.5t10 -1.5q23 -35 23 -48q0 -3 -21 -4t-45.5 -5t-45.5 -15t-21 -33q0 -20 21 -33.5t56 -13.5q23 0 51.5 6t55.5 16.5t50 24t35 28.5q-33 18 -54.5 32.5t-34 29t-17.5 29t-5 32.5q0 15 6.5 31.5t17.5 30t26 22t32 8.5v35
h-392l-30 56h566zM369 111q-67 -23 -110 -23q-105 0 -105 -60q0 -64 79 -64q77 0 135 46v85q0 8 1 16zM470 336q0 24 -15 40t-39 16q-9 0 -18.5 -5.5t-17.5 -14.5t-13 -20t-5 -21q0 -61 76 -92q32 44 32 97z" />
    <glyph glyph-name="HIN_JA_JA" horiz-adv-x="538" 
d="M569 466h-76v-466l-62 35v118h-140l32 -35q12 -20 12 -40q0 -35 -24.5 -55.5t-58.5 -20.5q-58 0 -106.5 43t-85.5 122l33 14q10 -25 25 -46.5t32.5 -37.5t35.5 -25.5t35 -9.5q56 0 56 49q0 41 -105 77l8 21h37q-92 22 -157 161l33 14q10 -26 24.5 -47.5t31.5 -37.5
t35 -25t36 -9q30 0 43.5 13t13.5 36t-25 42l-60 35l8 21h233v54h-432l-30 56h568zM433 210v146h-142q16 -18 24.5 -28t13 -17.5t5.5 -14t1 -15.5q0 -55 -54 -71h152z" />
    <glyph glyph-name="HIN_JA_NA" horiz-adv-x="538" 
d="M569 466h-76v-466l-62 35q1 35 1.5 60t0.5 40l-175 -70q26 -35 26 -44q0 -24 -21 -24q-14 0 -32.5 3.5t-35 9.5t-28.5 14t-12 16q0 23 19 32l260 113v161h-143q59 -68 59 -111q0 -39 -26 -62t-59 -23q-112 0 -205 210l33 14q55 -162 146 -162q23 0 38 16t15 40
q0 55 -100 113l8 21h233v64h-432l-30 56h568z" />
    <glyph glyph-name="HIN_JA_VA" horiz-adv-x="538" 
d="M569 466h-76v-466l-62 35v9q-71 -41 -136 -41q-28 0 -52 8.5t-41.5 22.5t-27.5 32.5t-10 38.5q0 39 29 61t77 22q40 0 78.5 -15t83.5 -38l1 221h-142q16 -18 24.5 -28t13 -17.5t5.5 -14t1 -15.5q0 -35 -24.5 -55.5t-58.5 -20.5q-58 0 -106.5 42t-85.5 123l33 14
q10 -26 24.5 -47.5t31.5 -37.5t35 -25t36 -9q30 0 43.5 13t13.5 36t-25 42l-60 35l8 21h233v54h-432l-30 56h568zM417 105q-12 6 -40 17t-62 11q-45 0 -74 -16t-29 -43q0 -24 37 -24t83 14.5t85 40.5z" />
    <glyph glyph-name="HIN_NYA_CHA" horiz-adv-x="574" 
d="M603 466h-76v-466l-69 52q-71 -59 -142 -59q-23 0 -44 7t-37 19.5t-26 28.5t-10 34q0 7 5 29l-94 -22l-37 51l315 68l41 -48q-40 -5 -72.5 -10.5t-55.5 -15t-35.5 -24.5t-12.5 -38q0 -43 43 -43q18 0 40.5 9t46 25t45.5 36t39 43v159h-6q-7 0 -10 -1h-19q-12 0 -25.5 2
t-27.5 4q-23 -89 -116 -89q-97 0 -203 117l24 24q24 -26 44.5 -43.5t39 -28t37 -15t39.5 -4.5q13 0 28 6.5t28 17t21 24.5t8 28q0 53 -35 53q-40 0 -90 -56l-46 50q42 42 103 42q19 0 38.5 -7t35.5 -18.5t27 -26.5t13 -30q2 -1 10 -1h11q38 0 71 15v102h-468l-30 56h604z
" />
    <glyph glyph-name="HIN_NYA_JA" horiz-adv-x="574" 
d="M603 466h-76v-466l-62 35v138l-145 -43q56 -38 56 -82q0 -15 -7 -29.5t-19 -26t-29 -18t-36 -6.5q-98 0 -210 172l30 22q88 -144 166 -144q17 0 32 15.5t15 30.5q0 49 -80 75v21l229 66v75h-6q-7 0 -10 -1h-19q-12 0 -25.5 2t-27.5 4q-23 -89 -116 -89q-97 0 -203 117
l24 24q24 -26 44.5 -43.5t39 -28t37 -15t39.5 -4.5q13 0 28 6.5t28 17t21 24.5t8 28q0 53 -35 53q-40 0 -90 -56l-46 50q42 42 103 42q19 0 38.5 -7t35.5 -18.5t27 -26.5t13 -30q2 -1 10 -1h11q38 0 71 15v102h-467l-30 56h603z" />
    <glyph glyph-name="HIN_TTA_TTA" horiz-adv-x="438" 
d="M470 466h-122v-90q0 -25 -22 -25h-67q-32 0 -60 -2.5t-49 -10.5t-33 -24t-12 -44q0 -63 110 -63q15 0 35.5 4t42 10.5t41.5 14.5t35 17l30 -50q-33 -23 -75 -33v-87q0 -25 -22 -25h-47q-27 0 -54 -2t-48.5 -9.5t-34.5 -22t-13 -39.5q0 -65 110 -65q69 0 154 46l30 -50
q-67 -46 -168 -46q-33 0 -64 12t-55 31.5t-38 44t-14 48.5q0 82 75 96q16 3 135 9v47h-16q-3 -1 -13 -1h-10q-35 0 -66 12.5t-54.5 33t-37 46.5t-13.5 52q0 45 23 69.5t61 24.5q4 0 19.5 1t36.5 2.5t46 3t48 2.5v62h-296l-30 56h472z" />
    <glyph glyph-name="HIN_TTA_TTHA" horiz-adv-x="435" 
d="M468 466h-120v-90q0 -11 -1.5 -16t-10.5 -7.5t-28.5 -3t-55.5 -3.5q-41 -3 -67.5 -5t-42.5 -8.5t-22.5 -22t-6.5 -46.5q0 -63 110 -63q15 0 35.5 4t42 10.5t41.5 14.5t35 17l30 -50q-37 -31 -100 -40v-74q16 -8 34 -22.5t32 -31t23.5 -32.5t9.5 -27q0 -51 -40 -82.5
t-109 -31.5q-39 0 -74.5 13t-63 34.5t-43.5 49t-16 56.5q0 26 8 41.5t28 24t53.5 12.5t84.5 7q19 1 19 15v42q-38 0 -72 11.5t-59 30t-39.5 43t-14.5 51.5q0 51 19 74t51 31t72.5 7.5t84.5 4.5l-1 62h-295l-30 56h469zM352 -22q0 30 -16 48t-42 18q-20 0 -51 -2.5t-74 -7.5
q-64 -7 -64 -57q0 -32 36 -51.5t97 -19.5q24 0 44.5 6t36 15.5t24.5 22.5t9 28z" />
    <glyph glyph-name="HIN_DDA_TTA" horiz-adv-x="528" 
d="M568 466h-127v-86q0 -26 -23 -26h-156q-48 0 -48 -36q0 -31 20 -31q3 0 25 4.5t47.5 10t47.5 10t25 4.5q18 0 37 -10t34 -25.5t24.5 -33.5t9.5 -34q0 -18 -8.5 -34t-21 -28t-27 -19t-26.5 -7v-64q0 -25 -22 -25h-38q-29 0 -57.5 -1.5t-51 -8t-36.5 -19.5t-14 -35
q0 -65 110 -65q69 0 154 46l30 -50q-73 -46 -168 -46q-33 0 -64 12t-55 31.5t-38 44t-14 48.5q0 73 75 87q16 3 135 9v33h-15q-37 0 -69.5 8.5t-65 29t-66 54.5t-72.5 85l27 21q26 -39 52 -67t55.5 -45.5t63 -26t73.5 -8.5q109 0 109 63q0 30 -40 30q-3 0 -21 -4.5t-39 -10
t-39.5 -10t-23.5 -4.5q-21 0 -40.5 9t-34 25t-23.5 37.5t-9 47.5q0 20 19.5 37t50.5 17h142v56h-385l-30 56h572z" />
    <glyph glyph-name="HIN_DDA_DDA" horiz-adv-x="446" 
d="M478 466h-106v-83q0 -19 -18 -19h-137q-30 0 -30 -22q0 -32 35 -32q3 0 16 1.5t29 4t32.5 4t27.5 1.5q12 0 26.5 -10.5t27.5 -25.5t22 -31t9 -28q0 -57 -41 -74v-91q0 -19 -18 -19h-137q-30 0 -30 -22q0 -33 33 -33q4 0 17 2t29 4l33 4q8 1 15.5 1.5t12.5 0.5
q12 0 26.5 -10.5t27.5 -25.5t22 -31t9 -28q0 -45 -36 -68.5t-91 -23.5q-29 0 -64 18t-67.5 44.5t-58 56.5t-35.5 53l25 17q76 -129 191 -129q40 0 65.5 13.5t25.5 32.5q0 25 -30 25q-6 0 -17.5 -1.5t-25 -4t-27.5 -4t-24 -1.5q-16 0 -34.5 12t-34.5 29.5t-26.5 36.5
t-10.5 34q0 48 66 48h109v42h-26q-23 0 -51 13.5t-55 32t-48.5 38t-30.5 30.5q-14 17 -24.5 29.5t-15.5 28.5l25 17q76 -129 191 -129q39 0 65.5 14t26.5 33q0 24 -31 24q-6 0 -17.5 -1.5t-25 -4t-27.5 -4t-24 -1.5q-15 0 -33.5 12t-34.5 29.5t-27 37t-11 33.5q0 48 66 48
h109v52h-338l-30 56h504z" />
    <glyph glyph-name="HIN_DDA_DDHA" horiz-adv-x="443" 
d="M478 466h-106v-77q0 -19 -18 -19h-127q-40 0 -40 -32t26 -32q3 0 17 1.5t32 4t36 4t29 1.5q12 0 27 -11t27.5 -27t21.5 -32.5t9 -28.5q0 -70 -84 -86v-59q0 -19 -9.5 -22t-27.5 -3q-31 0 -63 -1t-58.5 -7t-43 -18t-16.5 -33q0 -37 31 -65t79 -35q-3 9 -3 25
q0 45 22.5 70.5t57.5 25.5q16 0 32 -7t28 -19t19.5 -29t7.5 -36q0 -42 -28 -65t-73 -23q-36 0 -75 15.5t-70.5 40.5t-52 57.5t-20.5 65.5q0 68 75 82l134 9v29q-31 8 -60 24.5t-52 34.5t-39.5 33.5t-22.5 21.5q-14 15 -24.5 29t-15.5 29l25 17q22 -36 43 -61t43.5 -40
t48 -21.5t56.5 -6.5q91 0 91 48q0 23 -30 23q-6 0 -17.5 -1.5t-25 -4t-27.5 -4t-24 -1.5q-15 0 -33 13.5t-34.5 32.5t-27.5 40t-11 36q0 48 66 48h109v46h-313l-30 56h479zM358 -77q0 31 -54 31q-56 0 -61 -71q5 -1 13.5 -1.5t20.5 -0.5q16 0 30.5 3.5t26 9.5t18 13.5
t6.5 15.5z" />
    <glyph glyph-name="HIN_DDHA_DDHA" horiz-adv-x="421" 
d="M456 466h-132v-73q0 -19 -9 -22t-29 -3q-31 0 -63 -1t-58.5 -7t-43 -18t-16.5 -33q0 -38 33 -66t87 -35q-3 9 -3 25q0 91 80 91q16 0 32 -6.5t28 -17.5t19.5 -27t7.5 -35q0 -58 -51 -82v-67q0 -19 -9.5 -22t-27.5 -3q-31 0 -63 -1t-58.5 -7t-43 -18t-16.5 -33
q0 -34 29 -59.5t81 -33.5q-3 9 -3 25q0 91 80 91q16 0 32 -6.5t28 -17.5t19.5 -27t7.5 -35q0 -42 -28 -66.5t-73 -24.5q-37 0 -75.5 15t-70 39.5t-52 56t-20.5 64.5q0 68 75 82l134 9v30q-41 1 -81.5 17t-72 41.5t-51 58t-19.5 66.5q0 68 75 82q16 3 135 9v45h-286l-30 56
h472zM363 238q0 30 -54 30q-26 0 -42.5 -18.5t-18.5 -47.5q11 -2 19.5 -3.5t14.5 -1.5q32 0 56.5 13t24.5 28zM368 -58q0 30 -54 30q-23 0 -41 -17.5t-20 -48.5q11 -2 19.5 -3.5t14.5 -1.5q32 0 56.5 13t24.5 28z" />
    <glyph glyph-name="HIN_TA_TA" horiz-adv-x="497" 
d="M528 466h-76v-466l-61 35v273h-119q-18 0 -32.5 -8t-25 -21.5t-16 -30t-5.5 -33.5q0 -20 9 -43t24.5 -46.5t37.5 -46t48 -41.5l-31 -26q-26 25 -51.5 57t-45.5 63.5t-32.5 59.5t-12.5 45q0 42 29 69v2h-78l-30 56h333v102h-394l-30 56h529z" />
    <glyph glyph-name="HIN_HALF_TA_TA" horiz-adv-x="306" 
d="M357 466h-358l-30 56h358zM402 308h-130q-18 0 -32.5 -8t-25 -21.5t-16 -30t-5.5 -33.5q0 -20 9 -43t24.5 -46.5t37.5 -46t48 -41.5l-31 -26q-26 25 -51.5 57t-45.5 63.5t-32.5 59.5t-12.5 45q0 42 29 69v2h-78l-30 56h342v-56z" />
    <glyph glyph-name="HIN_DA_GA" horiz-adv-x="400" 
d="M431 466h-101v-103q0 -17 -20 -17h-99q-97 0 -97 -73q0 -21 9.5 -39.5t25 -31.5t35.5 -20.5t41 -7.5q28 0 29 1q-18 46 -18 50q0 9 8 16t17 7q6 0 20 -6.5t28.5 -16t26 -20t11.5 -18.5q0 -26 -32 -43q4 -12 23 -47.5t54 -95.5l-37 -21l-78 146h-6q-20 0 -39 5t-43 11
v-126q0 -16 -10.5 -27t-23.5 -11q-5 0 -20 11t-32 25.5t-30 29t-13 21.5q0 8 6 15t11 7h46q6 0 6 10v79q-29 22 -49 53t-20 69q0 104 149 104h61v64h-273l-30 56h434z" />
    <glyph glyph-name="HIN_DA_GHA" horiz-adv-x="489" 
d="M521 466h-101v-103q0 -17 -20 -17h-99q-97 0 -97 -73q0 -21 9.5 -39.5t25 -31.5t35.5 -20.5t41 -7.5q28 0 29 1q-18 46 -18 50q0 9 8 16t17 7q6 0 20 -6.5t28.5 -16t26 -20t11.5 -18.5q0 -26 -32 -43q7 -26 84 -156l-37 -21q-2 5 -16.5 32t-41.5 78q-66 -88 -157 -88
q-24 0 -44.5 6t-36 16.5t-24.5 24.5t-9 31q0 25 14 42q-20 0 -37.5 7t-30.5 18.5t-20.5 26t-7.5 29.5q0 35 28.5 64t80.5 38v6q0 104 149 104h61v64h-363l-30 56h524zM353 126q-63 3 -115 34t-75 82q-68 -17 -68 -58q0 -22 18 -36.5t39 -14.5q20 20 50 26q38 -33 38 -37
q0 -2 -10 -5.5t-21.5 -9.5t-21.5 -15.5t-10 -24.5q0 -48 43 -48q15 0 33.5 8.5t36.5 23.5t34.5 34.5t28.5 40.5z" />
    <glyph glyph-name="HIN_DA_DA" horiz-adv-x="382" 
d="M426 -97l-35 -22l-73 152q-46 -11 -49 -11q-34 0 -65 12.5t-55 32.5t-38.5 45t-14.5 50q0 44 29 59q-10 6 -21.5 19.5t-21 29.5t-16 31t-6.5 24q0 73 76 73h141v68h-278l-30 56h413l30 -56h-75v-104q0 -20 -19 -20h-170q-15 0 -29 -11.5t-14 -28.5q0 -41 51 -57
q69 26 109 26q12 0 21 -7.5t14 -16.5t7.5 -16.5t2.5 -8.5q0 -17 -62 -17q-11 0 -44 3q-48 -18 -48 -67q0 -75 81 -75q25 0 50 13q-20 29 -20 48q0 8 8.5 14.5t16.5 6.5q7 0 22 -7.5t29.5 -17t25.5 -19.5t11 -16q0 -28 -34 -44z" />
    <glyph glyph-name="HIN_DA_DHA" horiz-adv-x="574" 
d="M606 466h-101v-103q0 -17 -20 -17h-99q-97 0 -97 -73q0 -21 9.5 -39.5t25 -31.5t35.5 -20.5t41 -7.5q28 0 29 1q-18 46 -18 50q0 9 8 16t17 7q6 0 20 -6.5t28.5 -16t26 -20t11.5 -18.5q0 -26 -32 -43q7 -26 84 -156l-37 -21l-76 144q-67 -91 -163 -91q-24 0 -44.5 6
t-36 16.5t-24.5 24.5t-9 31q0 8 5 28q-18 -3 -43 -3q-27 0 -50.5 7.5t-41 20.5t-27 30.5t-9.5 38.5q0 35 25.5 57t67.5 22q14 0 27 -6.5t22.5 -17t15.5 -25t6 -30.5q0 -39 -29 -59v-2q17 0 27 1.5t19 4t19.5 7t28.5 10.5q38 -33 38 -37q-2 0 -12 -6q-35 -20 -35 -41
q0 -48 43 -48q23 0 56 22.5t61 59.5q-72 16 -117.5 60.5t-45.5 105.5q0 104 149 104h61v64h-448l-30 56h609zM147 219q0 15 -11 25.5t-21 10.5q-15 0 -29 -11t-14 -28q0 -20 17 -35t37 -16q21 25 21 54z" />
    <glyph glyph-name="HIN_DA_NA" horiz-adv-x="400" 
d="M431 466h-101v-103q0 -17 -20 -17h-99q-97 0 -97 -73q0 -20 9 -36t24.5 -27t36 -17t44.5 -6q28 0 29 1q-18 46 -18 50q0 9 8 16t17 7q6 0 20.5 -7t29 -16.5t25.5 -20t11 -17.5q0 -26 -32 -43l42 -86q20 -42 31 -63t11 -22l-37 -21l-55 121l-164 -31l12 -37q3 -10 5 -16
t2 -9q0 -9 -5 -13.5t-11 -4.5q-3 0 -21 8.5t-37.5 21.5t-35.5 28t-16 28q0 12 9.5 19.5t20.5 9.5l218 39l-6 10q-47 3 -87.5 17t-70 35.5t-46.5 49t-17 57.5q0 104 149 104h61v64h-273l-30 56h434z" />
    <glyph glyph-name="HIN_DA_BA" horiz-adv-x="469" 
d="M501 466h-101v-103q0 -17 -20 -17h-99q-97 0 -97 -73q0 -21 9.5 -39.5t25 -31.5t35.5 -20.5t41 -7.5q28 0 29 1q-18 46 -18 50q0 9 8 16t17 7q6 0 20 -6.5t28.5 -16t26 -20t11.5 -18.5q0 -26 -32 -43q7 -26 84 -156l-37 -21l-85 159q-1 -1 -8 -1l-4 -24
q-6 -22 -21.5 -40.5t-35.5 -32.5t-43 -22t-45 -8q-26 0 -51.5 9.5t-45.5 25.5t-32.5 37t-12.5 44q0 51 25.5 73.5t79.5 32.5q-23 35 -23 78q0 104 149 104h61v64h-343l-30 56h504zM289 133q-53 12 -90 40h-7q-17 0 -27 -6l66 -107q10 3 20.5 11t19 18.5t13.5 21.5t5 20v2z
M135 154q-42 -21 -42 -67q0 -21 20 -35t49 -14q10 0 37 8z" />
    <glyph glyph-name="HIN_DA_BHA" horiz-adv-x="618" 
d="M650 466h-73v-103q0 -17 -20 -17q-168 0 -194 -20q-32 -26 -32 -72q0 -24 9.5 -45.5t27 -37t41.5 -24.5t54 -9q15 0 35 5q-23 32 -23 54q0 28 28 28q9 0 24.5 -6t29.5 -16t24.5 -21.5t10.5 -21.5q0 -40 -31 -55q20 -35 40 -66.5t39 -57.5l-34 -19q-7 13 -25.5 41
t-47.5 73l-229 -72q-5 -2 -5 -8q0 -3 3 -9l14 -28q0 -6 -7.5 -13.5t-13.5 -7.5q-5 0 -23 7t-37 17t-34 20.5t-15 17.5q0 16 17 25l32 9l-14 68q-2 -1 -11 -1h-12q-140 0 -140 94q0 31 24.5 52.5t58.5 21.5q19 0 37.5 -8t34 -22t27.5 -33.5t18 -41.5l32 -114l127 45
q-34 18 -60 42.5t-44 51t-27 54t-9 51.5q0 57 40.5 82.5t131.5 25.5h68v64h-518l-30 56h651zM213 132q-2 13 -5 30.5t-10 33t-18 26.5t-28 11q-9 0 -18.5 -11.5t-9.5 -28.5q0 -24 22.5 -42.5t56.5 -18.5h10z" />
    <glyph glyph-name="HIN_DA_MA" horiz-adv-x="526" 
d="M557 466h-76v-466l-62 35v59h-119v-20q0 -38 -26 -38q-5 0 -18 11.5t-26.5 27t-24 30.5t-10.5 23q0 16 18 16h34v32q0 32 -33 32q-8 0 -21 -3t-34 -3q-20 0 -38 13t-31.5 33.5t-21.5 44.5t-8 46t17 39t44 17h112q17 0 17 17v54h-250l-30 56h557zM421 144v322h-117v-104
q0 -17 -27 -17h-125q-18 0 -32.5 -13t-14.5 -29q0 -49 43 -49q3 0 15 1t27 2.5t28.5 3t19.5 1.5q65 0 65 -64v-54h118z" />
    <glyph glyph-name="HIN_DA_VA" horiz-adv-x="469" 
d="M501 466h-101v-103q0 -17 -20 -17h-99q-97 0 -97 -73q0 -21 9.5 -39.5t25 -31.5t35.5 -20.5t41 -7.5q28 0 29 1q-18 46 -18 50q0 9 8 16t17 7q6 0 20 -6.5t28.5 -16t26 -20t11.5 -18.5q0 -26 -32 -43q7 -26 84 -156l-37 -21l-85 159q-1 -1 -8 -1q-4 -26 -17.5 -49
t-33.5 -40.5t-45 -27.5t-53 -10q-26 0 -51.5 9.5t-45.5 25.5t-32.5 37t-12.5 44q0 51 25.5 73.5t79.5 32.5q-23 35 -23 78q0 104 149 104h61v64h-343l-30 56h504zM289 133q-53 12 -90 40h-10q-16 0 -33 -7.5t-31 -19.5t-23 -27.5t-9 -31.5q0 -21 20 -35t49 -14q19 0 40.5 8
t39.5 20.5t31 29.5t16 35v2z" />
    <glyph glyph-name="HIN_DA_YA" horiz-adv-x="526" 
d="M555 466h-76v-466l-62 35l2 85q-14 -16 -35 -30.5t-43.5 -26t-45 -18t-39.5 -6.5q-26 0 -51.5 11t-46.5 28.5t-34 39.5t-13 45q0 42 36 66q-16 7 -31.5 20t-28 29.5t-20 34t-7.5 34.5q0 51 62 51h119v68h-241l-30 56h555zM419 466h-118v-104q0 -20 -19 -20h-108
q-38 0 -49 -8.5t-11 -29.5q0 -22 23.5 -38t55.5 -16q6 0 34 3.5t58 3.5q7 0 13.5 -6t12 -14.5t9 -17t3.5 -13.5q0 -16 -17 -16q-28 0 -54 5.5t-33 5.5q-54 0 -54 -61q0 -26 16 -41.5t39 -15.5q94 0 199 109v274z" />
    <glyph glyph-name="HIN_DA_R" horiz-adv-x="400" 
d="M431 466h-101v-103q0 -17 -20 -17h-99q-97 0 -97 -73q0 -21 9.5 -39.5t25 -31.5t35.5 -20.5t41 -7.5q28 0 29 1q-18 46 -18 50q0 9 8 16t17 7q6 0 20 -6.5t28.5 -16t26 -20t11.5 -18.5q0 -26 -32 -43q7 -20 27.5 -56.5t54.5 -90.5h-9q-22 0 -46.5 -3.5t-44.5 -11
t-33.5 -19.5t-13.5 -28q0 -35 54 -35q43 0 91 18l36 -56q-29 -12 -84 -12q-29 0 -55 10t-45.5 25.5t-30.5 34.5t-11 38t5 32.5t18.5 23.5t36 17.5t58.5 13.5q-12 19 -45 81q-23 0 -59.5 9t-72 29.5t-61 53.5t-25.5 80q0 104 149 104h61v64h-273l-30 56h434z" />
    <glyph glyph-name="HIN_NA_NA" horiz-adv-x="440" 
d="M472 466h-76v-466l-61 35v202l-163 -90q16 -32 16 -61q0 -5 -7 -12.5t-12 -7.5q-8 0 -23.5 7.5t-31 18t-27 22.5t-11.5 21q0 21 25 34l193 102q-62 56 -138 56h-20q-12 0 -15 -1q0 -9 0.5 -16t0.5 -13q0 -40 -30 -40q-6 0 -17.5 11.5t-22.5 26.5t-19.5 29.5t-8.5 19.5
q0 43 81 43q120 0 214 -103l17 9v173h-342l-30 56h478z" />
    <glyph glyph-name="HIN_HALF_NA_NA" horiz-adv-x="265" 
d="M339 239l-167 -92q16 -32 16 -61q0 -5 -7 -12.5t-12 -7.5q-8 0 -23.5 7.5t-31 18t-27 22.5t-11.5 21q0 21 25 34l193 102q-62 56 -138 56h-20q-12 0 -15 -1q0 -9 0.5 -16t0.5 -13q0 -40 -30 -40q-6 0 -17.5 11.5t-22.5 26.5t-19.5 29.5t-8.5 19.5q0 43 81 43
q120 0 214 -103l20 10v-55zM300 466h-306l-30 56h306z" />
    <glyph glyph-name="HIN_PHA_NA" horiz-adv-x="633" 
d="M664 466h-296v-166q68 53 118 53q21 0 41 -12t35.5 -33t24.5 -49t9 -61q0 -52 -53 -135l-51 46q59 80 59 139q0 22 -14.5 35.5t-35.5 13.5q-9 0 -26 -6t-36 -16t-38 -22t-33 -24v-229l-62 35v165l-3 -4l-140 -111q26 -35 26 -44q0 -24 -21 -24q-14 0 -32.5 3.5t-35 9.5
t-28.5 14t-12 16q0 22 19 32l131 91q-21 7 -42.5 20.5t-38 30.5t-27 35.5t-10.5 36.5v160h-93l-30 56h665zM308 466h-156v-162q0 -76 53 -76q50 0 103 41v197z" />
    <glyph glyph-name="HIN_PA_TA" horiz-adv-x="413" 
d="M445 466h-76v-466l-62 35v228h-103q-27 0 -43.5 -3t-25.5 -10t-12 -19.5t-3 -30.5q0 -36 102 -160l-32 -26q-123 151 -123 205q0 71 50 89q-25 25 -25 58v100h-91l-31 56h445zM309 319v147h-157v-102q0 -30 7 -45h150z" />
    <glyph glyph-name="HIN_MARATHI_LA_LA" horiz-adv-x="534" 
d="M567 466h-120v-63q57 -42 57 -106q0 -44 -47 -82q47 -42 47 -97q0 -18 -4.5 -31.5t-17 -27t-36 -30t-61.5 -40.5l-45 50q121 64 121 114q0 17 -12 27.5t-31 10.5q-14 0 -31.5 -8t-36.5 -22t-37 -33.5t-33 -42.5l-54 40l31 40l-28 20q-26 15 -50 15q-27 0 -44 -15.5
t-17 -41.5q0 -5 4 -19.5t14.5 -33t27.5 -38t43 -34.5l-20 -20q-129 91 -129 163q0 55 53 78q-53 56 -53 101q0 36 27 61.5t69 25.5q18 0 32 -2t28 -7.5t30 -16.5t39 -29q23 20 47.5 34.5t56.5 16.5v42h-389l-30 57h569zM461 332q0 17 -12 27.5t-31 10.5q-14 0 -31.5 -8
t-36.5 -22t-37 -33.5t-33 -42.5l-54 40l31 40l-28 20q-26 15 -50 15q-27 0 -44 -15.5t-17 -41.5q0 -13 5 -28.5t29 -45.5h2q18 0 32 -2t28 -7.5t30 -16.5t39 -29l40 32q29 17 63 19q75 46 75 88z" />
    <glyph glyph-name="HIN_TTHA_VA" horiz-adv-x="424" 
d="M455 466h-88q0 -2 5.5 -14t5.5 -37q0 -62 -47 -85q75 -39 75 -110q0 -48 -47 -84l1 -212l-55 34l1 43q-13 -13 -40.5 -23.5t-49.5 -10.5q-32 0 -57.5 9t-44 24.5t-28.5 36.5t-10 45q0 27 25 64q-41 35 -41 83q0 40 16 62.5t43 35.5t63 20t75 17q36 9 49.5 23.5t13.5 36.5
q0 11 -16 42h-307l-30 56h458zM346 248q0 46 -56 66q-14 -6 -44.5 -13t-76.5 -15q-64 -12 -64 -79q0 -25 25 -44t73 -19q28 0 53.5 8t45.5 21.5t32 32.5t12 42zM304 109q-29 -9 -62 -9q-38 0 -85 14q-36 -23 -36 -57q0 -46 57 -46q21 0 42 7.5t38.5 21t30 31t15.5 38.5z" />
    <glyph glyph-name="HIN_SHH_TTHA_RA" horiz-adv-x="423" 
d="M455 466h-88q12 -56 12 -100q0 -51 -18 -89.5t-57 -65.5q48 -17 75 -48t27 -64q0 -22 -11 -42.5t-30.5 -37t-46 -27t-57.5 -12.5l100 -143l-28 -24l-76 114l-115 -80l-43 42l132 90q-36 1 -67 11.5t-54.5 27.5t-36.5 40t-13 50q0 66 83 95q-65 38 -65 105v158h-81l-30 56
h458zM346 127q0 45 -72 68q-26 -12 -55.5 -23t-55 -23t-42 -27t-16.5 -36q0 -63 98 -63q28 0 53.5 8t45.5 21.5t32 32.5t12 42zM319 377q0 44 -15 89h-156l147 -183q24 30 24 94zM140 427h-2v-139q0 -27 7 -41.5t31 -32.5q73 22 98 47z" />
    <glyph glyph-name="HIN_SHORT_A_ANUSVAR" horiz-adv-x="610" 
d="M640 466h-76v-466l-62 35l4 196q-33 -11 -65 -11q-39 0 -80 29l-2 -2q15 -23 15 -51q0 -55 -37.5 -87.5t-97.5 -32.5q-120 0 -208 192l27 16q68 -152 165 -152q21 0 39 8t31 21.5t20 31t7 37.5q0 56 -53 73q-77 -30 -86 -30q-4 0 -11.5 7t-15 15.5t-13 16.5t-5.5 10
q0 8 2 11t8 4.5t17 2t30 3.5t29 4t16.5 2.5t11.5 5.5t14 13q23 25 23 56q0 62 -60 62q-12 0 -31 -6.5t-37 -15t-31.5 -15.5t-13.5 -8q-5 0 -9.5 5.5t-9 14t-8.5 17.5t-7 17q68 35 111 35q22 0 48.5 -12t49 -31.5t37.5 -44t15 -48.5q0 -21 -13.5 -42t-33.5 -30
q67 -52 126 -52q8 0 21 3.5t26 8.5t23.5 11.5t13.5 11.5v161h-121l-30 56h168q-4 11 -10.5 28t-18.5 40q-14 26 -87 26h-43q-35 0 -59 5.5t-42 20t-30.5 39t-23.5 62.5l26 15q7 -32 26.5 -50t57.5 -18h28q8 0 14.5 0.5t11.5 0.5q48 0 76.5 -12t46.5 -34t29 -53.5t23 -69.5
h64zM647 660l-64 -64l-65 65l64 64z" />
    <glyph glyph-name="HIN_SHA_CHA" horiz-adv-x="549" 
d="M580 466h-76v-466l-62 35l4 52l-4 2q-9 -15 -25.5 -29t-36.5 -24.5t-41.5 -16.5t-40.5 -6q-26 0 -48.5 7t-39.5 20t-27 30.5t-10 38.5q0 2 0.5 4.5t0.5 4.5l-68 -24l-44 44l266 91l36 -46q-77 -16 -108.5 -39t-31.5 -65q0 -13 12.5 -24t26.5 -11q42 0 90.5 33t90.5 85v76
q-85 19 -167 56q-29 -17 -73.5 -37t-105.5 -42l-39 47q52 17 92 32.5t69 29.5q-96 45 -96 105q0 19 8.5 36t22.5 29.5t33 20t40 7.5q19 0 40.5 -11.5t40.5 -29.5t31.5 -40t12.5 -43q0 -42 -47 -80q38 -14 72.5 -24.5t65.5 -16.5v189h-59l-30 56h195zM308 416q0 26 -13 44
t-36 18q-29 0 -52 -20.5t-23 -50.5q0 -37 67 -64q57 33 57 73z" />
    <glyph glyph-name="HIN_SHA_LA" horiz-adv-x="886" 
d="M916 466h-76v-466l-62 35l4 267q-23 17 -45 17q-17 0 -31 -6t-28 -19.5t-28 -36t-31 -55.5l-46 33q7 16 24 42q-6 10 -15.5 20t-20 17.5t-21 12t-19.5 4.5q-35 0 -58 -26t-23 -64q0 -62 42.5 -113t138.5 -105l-25 -30q-198 128 -215 253q-38 11 -67.5 21.5t-49.5 18.5
q-28 -19 -66 -43.5t-89 -55.5l-49 40q37 19 73 41t73 48q-96 48 -96 113q0 19 8.5 36t23 29.5t34 20t40.5 7.5q19 0 40.5 -11.5t40.5 -29.5t31.5 -40t12.5 -43q0 -56 -50 -86q11 -5 33.5 -13t56.5 -18q6 46 36.5 76t72.5 30q22 0 40 -8t32.5 -20.5t26.5 -27t23 -27.5
q48 65 97 65q34 0 71 -31v128h-399l-30 56h535zM296 416q0 26 -13 44t-36 18q-15 0 -28.5 -5.5t-24.5 -15t-17.5 -22.5t-6.5 -28q0 -43 71 -72q55 31 55 81z" />
    <glyph glyph-name="HIN_SHA_LA1" horiz-adv-x="877" 
d="M909 466h-120v-97q13 -4 25.5 -14.5t21.5 -25t14.5 -32t5.5 -35.5q0 -48 -36.5 -99t-95.5 -88l-39 45q24 13 46.5 32t40.5 40t28.5 42t10.5 39q0 28 -15.5 47t-34.5 19q-79 0 -150 -134l-44 35q4 10 9.5 21t13.5 23q-3 7 -11 15.5t-18.5 15.5t-21 11.5t-18.5 4.5
q-35 0 -58 -26t-23 -64q0 -62 42.5 -113t138.5 -105l-25 -30q-198 128 -215 253q-38 11 -67.5 21.5t-49.5 18.5q-28 -19 -66 -43.5t-89 -55.5l-49 40q37 19 73 41t73 48q-96 48 -96 113q0 19 8.5 36t23 29.5t34 20t40.5 7.5q19 0 40.5 -11.5t40.5 -29.5t31.5 -40t12.5 -43
q0 -56 -50 -86q11 -5 33.5 -13t56.5 -18q6 46 36.5 76t72.5 30q20 0 34 -4.5t26.5 -13.5t26 -23.5t32.5 -35.5q47 61 120 71v85h-341l-30 56h521zM296 416q0 26 -13 44t-36 18q-15 0 -28.5 -5.5t-24.5 -15t-17.5 -22.5t-6.5 -28q0 -43 71 -72q55 31 55 81z" />
    <glyph glyph-name="HIN_SHA_VA" horiz-adv-x="554" 
d="M585 466h-76v-466l-62 35l2 52q-56 -47 -120 -47q-27 0 -51.5 9.5t-43 25.5t-30 36t-11.5 41q0 19 9 37.5t25.5 32.5t39.5 22.5t50 8.5q5 0 9.5 -0.5t9.5 -0.5l2 2q-14 8 -34.5 18.5t-49.5 24.5q-32 -17 -70.5 -33.5t-83.5 -33.5l-39 47q42 13 76 26t62 27q-72 40 -72 99
q0 19 8.5 36t23 29.5t34 20t40.5 7.5t41.5 -10.5t36.5 -27.5t26 -38t10 -42q0 -53 -63 -86q14 -6 38 -20.5t49.5 -31t47 -33t30.5 -26.5v259h-57l-30 56h193zM302 432q0 46 -47 46q-12 0 -24 -6.5t-21.5 -17t-16 -23.5t-6.5 -26q0 -41 43 -59q31 15 51.5 39t20.5 47z
M453 171q-52 37 -112 37q-20 0 -37.5 -7t-31 -19t-21.5 -27t-8 -30q0 -49 62 -49q77 0 148 95z" />
    </font>
</defs>
</svg>
