<?xml version="1.0" standalone="no"?>
<!DOCTYPE svg PUBLIC "-//W3C//DTD SVG 1.1//EN" "http://www.w3.org/Graphics/SVG/1.1/DTD/svg11.dtd" >
<svg xmlns="http://www.w3.org/2000/svg" xmlns:xlink="http://www.w3.org/1999/xlink" version="1.1">
<metadata>
Created by FontForge 20160405 at Tue Sep 11 03:11:28 2018
 By www-data
Copyright (c) 2009 by (c) Summit Information Technologies Pvt. Ltd.. All rights reserved.
</metadata>
<defs>
<font id="ChanakyaUni-BoldItalic" horiz-adv-x="0" >
  <font-face 
    font-family="ChanakyaUni"
    font-weight="700"
    font-style="italic"
    font-stretch="normal"
    units-per-em="1000"
    panose-1="2 0 8 3 0 0 0 2 0 4"
    ascent="800"
    descent="-200"
    x-height="369"
    cap-height="537"
    bbox="-599.235 -546 1762 1473"
    underline-thickness="40"
    underline-position="-250"
    unicode-range="U+0020-25CC"
  />
<missing-glyph horiz-adv-x="500" 
d="M63 0l161 649h375l-161 -649h-375zM140 63h250l131 524h-250z" />
    <glyph glyph-name=".notdef" horiz-adv-x="500" 
d="M63 0l161 649h375l-161 -649h-375zM140 63h250l131 524h-250z" />
    <glyph glyph-name=".null" 
 />
    <glyph glyph-name="nonmarkingreturn" horiz-adv-x="270" 
 />
    <glyph glyph-name="space" unicode=" " horiz-adv-x="270" 
 />
    <glyph glyph-name="exclam" unicode="!" horiz-adv-x="300" 
d="M286 181l-65 56l105 440l78 -63zM207 -7l-57 76l93 75l57 -76z" />
    <glyph glyph-name="quotedbl" unicode="&#x22;" horiz-adv-x="301" 
d="M390 523q-2 -9 -8 -18l-59 -134h-25l10 110q4 43 4 42q4 16 18 27.5t31 11.5q16 0 24.5 -11.5t4.5 -27.5zM257 523q-2 -9 -8 -18l-59 -134h-24l8 110q4 43 5 42q4 16 18 27.5t31 11.5q16 0 24.5 -11.5t4.5 -27.5z" />
    <glyph glyph-name="numbersign" unicode="#" horiz-adv-x="375" 
d="M444 408l-25 -58h-55l-66 -152h54l-25 -58h-55l-55 -126h-28l55 126h-85l-54 -126h-28l55 126h-56l26 58h55l67 152h-55l24 58h55l49 110h28l-49 -110h85l49 110h27l-48 -110h55zM337 350h-86l-66 -152h85z" />
    <glyph glyph-name="dollar" unicode="$" horiz-adv-x="390" 
d="M412 178q-18 -72 -71 -119.5t-128 -57.5l-18 -73l-5 -4h-28l-3 4l17 71q-75 0 -135 30l-1 5q9 21 17.5 49.5t18.5 64.5l5 3h22l3 -4l-6 -27q-4 -21 1.5 -35.5t17 -24.5t29.5 -14.5t38 -5.5l46 184q-40 7 -65.5 19.5t-38 30t-14.5 40t5 50.5q16 65 64.5 108t123.5 53
l10 37l5 4h28l3 -4l-9 -36q37 -1 66 -8.5t51 -18.5l1 -5q-4 -11 -11 -29t-15 -43l-9 -32l-5 -4h-24l-3 4q3 15 5 24t3.5 15t1.5 10.5v8.5q-14 34 -72 37l-41 -167q40 -6 67 -17t41.5 -27.5t17 -40t-5.5 -55.5zM297 483q-72 -17 -89 -84q-15 -61 50 -74zM320 138
q17 68 -53 80l-44 -176q36 10 62 35t35 61z" />
    <glyph glyph-name="percent" unicode="%" horiz-adv-x="524" 
d="M535 148q-11 -44 -28.5 -72.5t-37 -45.5t-38 -23.5t-30.5 -6.5t-25.5 5t-23.5 18.5t-12.5 38.5t7.5 65t26.5 67.5t35.5 44t38.5 24t36.5 7.5q7 0 20 -2.5t23.5 -14.5t14.5 -36.5t-7 -68.5zM126 0h-60l484 510h60zM325 388q-11 -44 -29 -72.5t-37.5 -45.5t-38 -23.5
t-30.5 -6.5t-25.5 5t-23 18.5t-12 38.5t7.5 65t26.5 67.5t35.5 44t38.5 24t36.5 7.5q7 0 20 -2.5t23.5 -14.5t14.5 -36.5t-7 -68.5zM482 109q10 41 -2 66t-45 25q-14 0 -22.5 -11.5t-13.5 -28.5q-11 -46 2 -68t39 -22q20 0 28.5 10.5t13.5 28.5zM272 349q10 41 -2 66t-45 25
q-14 0 -22.5 -11.5t-13.5 -28.5q-11 -46 2 -68t39 -22q20 0 28.5 10.5t13.5 28.5z" />
    <glyph glyph-name="ampersand" unicode="&#x26;" horiz-adv-x="650" 
d="M659 85l-3 -6q-23 -17 -45 -35.5t-43 -39.5q-33 -6 -44 -6q-70 0 -126 55q-81 -55 -172 -55q-37 0 -66.5 11t-48 31t-24.5 48t3 62q24 96 157 152q-12 53 1 104q8 32 24 47l46 41l34 29q11 7 34 15t44 8q40 0 57.5 -22.5t8.5 -61.5q-19 -74 -160 -150q44 -110 115 -178
q34 40 42 74q8 30 -1 56h-66l-3 4q7 8 16 20l21 28q56 -2 80 -2q55 0 94.5 1.5t64.5 4.5l4 -3q-11 -18 -18 -31.5t-10 -23.5l-4 -4q-25 2 -51.5 3t-56.5 2q0 -10 -1 -17.5t-3 -14.5q-14 -56 -80 -117q43 -37 109 -37q17 0 62 27l5 -2zM424 445q6 22 -3 37.5t-31 15.5
q-23 0 -40.5 -16.5t-22.5 -39.5q-11 -44 2 -98q82 48 95 101zM371 75q-78 85 -117 196q-49 -26 -62 -75q-7 -28 -2 -53.5t18 -46t34.5 -32.5t48.5 -12q36 0 80 23z" />
    <glyph glyph-name="quotesingle" unicode="'" horiz-adv-x="177" 
d="M260 523q-1 -5 -8 -18l-58 -134h-25l8 110q4 43 5 42q4 16 18 27.5t31 11.5q16 0 24.5 -11.5t4.5 -27.5z" />
    <glyph glyph-name="parenleft" unicode="(" horiz-adv-x="500" 
d="M192 -117q-92 82 -124.5 175t-1.5 217q27 109 105 199.5t212 172.5l26 -31q-59 -43 -99 -81t-67.5 -77.5t-45.5 -83.5t-31 -99q-15 -62 -20.5 -110.5t1.5 -89.5t28 -79.5t59 -81.5z" />
    <glyph glyph-name="parenright" unicode=")" horiz-adv-x="500" 
d="M568 275q-15 -62 -42.5 -115.5t-67 -101.5t-92.5 -91t-120 -84l-26 31q58 43 98.5 81.5t68.5 79.5t47 89.5t34 110.5q13 55 17.5 99t-3 83.5t-29 77.5t-58.5 81l42 31q94 -82 126 -172.5t5 -199.5z" />
    <glyph glyph-name="asterisk" unicode="*" horiz-adv-x="500" 
d="M539 412l-65 76l-2 -2l-10 -150l-75 34l58 118l-1 2l-144 -101l10 89l131 34l1 2l-144 48l85 55l71 -86l2 2l11 155l76 -34l-61 -122l2 -2l145 105l-15 -90l-127 -32v-2l140 -49z" />
    <glyph glyph-name="plus" unicode="+" horiz-adv-x="426" 
d="M303 236l-34 -139h-50l34 139h-134l13 50h134l34 139h50l-34 -139h134l-13 -50h-134z" />
    <glyph glyph-name="comma" unicode="," horiz-adv-x="278" 
d="M223 65q-5 -21 -46 -64l-127 -132l-17 42q8 7 22 22.5t27.5 32t24 31t11.5 19.5q1 4 1 8t-3 11.5t-10 19t-19 29.5l100 73q13 -21 21 -34.5t12 -23.5t4.5 -17.5t-1.5 -16.5z" />
    <glyph glyph-name="hyphen" unicode="-" horiz-adv-x="328" 
d="M118 234l12 50h208l-12 -50h-208z" />
    <glyph glyph-name="period" unicode="." horiz-adv-x="192" 
d="M98 5l-57 76l93 75l57 -76z" />
    <glyph glyph-name="slash" unicode="/" horiz-adv-x="480" 
d="M113 0h-60l484 510h60z" />
    <glyph glyph-name="zero" unicode="0" horiz-adv-x="444" 
d="M481 296q-22 -88 -57.5 -145t-74.5 -90.5t-76 -47t-61 -13.5t-51.5 9.5t-46.5 37.5t-24 77.5t15 130.5q20 80 52.5 134.5t70.5 88t77 48t72 14.5q9 0 24.5 -2t32 -9.5t31.5 -23t23.5 -42.5t8 -68t-15.5 -99zM386 217q29 121 3.5 178t-91.5 57q-30 0 -56.5 -29.5
t-43.5 -98.5q-16 -64 -15 -108t14 -71t35.5 -39t49.5 -12q40 0 63.5 27t40.5 96z" />
    <glyph glyph-name="one" unicode="1" horiz-adv-x="444" 
d="M235 0l111 448q-9 -3 -30.5 -12t-45 -20.5t-43.5 -21.5t-26 -14l-18 49l235 111l35 -31l-120 -481z" />
    <glyph glyph-name="two" unicode="2" horiz-adv-x="444" 
d="M382 8l-334 -2l44 90q52 23 98 55t81.5 66t58.5 67t29 60q7 27 3.5 47t-14 33.5t-27 20.5t-37.5 7q-27 0 -58 -13t-48 -29l-15 14l61 84q10 5 25 11t31.5 10.5t31.5 7.5t25 3q32 0 60.5 -9.5t47.5 -29t26 -49.5t-3 -72q-8 -31 -31 -66.5t-59 -71.5t-83.5 -72t-104.5 -68
l1 -3l235 4z" />
    <glyph glyph-name="three" unicode="3" horiz-adv-x="444" 
d="M451 203q-9 -34 -39 -70t-70 -65.5t-84 -48.5t-80 -19t-70.5 14.5t-53.5 37.5l62 101q10 -12 27 -25t36.5 -23.5t38.5 -17.5t34 -7q18 0 35 7t31 18.5t23.5 26.5t13.5 30q7 29 -10 50.5t-55 32.5q-16 -6 -34 -11t-28 -5q-24 0 -30 6.5t2 21.5q10 18 21 37.5t19 32.5
q14 5 29.5 7.5t29.5 2.5q11 0 20.5 -1t15.5 -1q14 7 23 18.5t11 23.5q9 36 -15 57.5t-70 21.5q-26 0 -50.5 -9t-56.5 -29l-13 6l55 85q18 7 37.5 13t39 10t37.5 6t32 2q23 0 44 -9t36 -24t22 -35t2 -42q-3 -11 -11 -25.5t-19.5 -29.5t-25.5 -29t-28 -24q43 -14 59.5 -47.5
t6.5 -71.5z" />
    <glyph glyph-name="four" unicode="4" horiz-adv-x="444" 
d="M444 141h-56l-29 -114l-98 -27l35 141h-248l38 82l274 286l127 31l-79 -319h77zM372 448h-2l-217 -227h163z" />
    <glyph glyph-name="five" unicode="5" horiz-adv-x="444" 
d="M453 196q-8 -30 -36.5 -64.5t-68 -64t-84 -48.5t-84.5 -19q-35 0 -68.5 13.5t-57.5 36.5l63 98q14 -13 32 -25t36 -21.5t34 -15.5t26 -6q46 0 75 20t37 54q10 39 -41.5 71t-173.5 40l107 263h267l-49 -94h-195l-31 -81q131 -11 180 -50t32 -107z" />
    <glyph glyph-name="six" unicode="6" horiz-adv-x="444" 
d="M451 205q-9 -36 -35 -72.5t-61 -66t-75 -48t-77 -18.5q-38 0 -65.5 14t-43 39.5t-18.5 61.5t8 79q9 36 25.5 73t45.5 77t73 85t108 97l108 21l4 -22q-25 -15 -56.5 -36t-64.5 -49t-64.5 -65t-56.5 -83l2 -2q24 19 43.5 30.5t35.5 17.5t30.5 8t29.5 2q27 0 50 -9.5
t37.5 -28t19.5 -45t-3 -60.5zM362 155q6 25 1 44.5t-18.5 33t-35 20.5t-48.5 7q-15 0 -36 -7.5t-39 -19.5q-11 -38 -9 -67t14 -48t31.5 -28.5t44.5 -9.5q30 0 58.5 20.5t36.5 54.5z" />
    <glyph glyph-name="seven" unicode="7" horiz-adv-x="444" 
d="M517 472q-15 -18 -37.5 -50t-50 -72t-57.5 -84.5t-58.5 -88t-54.5 -82.5t-44 -68l-106 -34l-15 7q21 27 48.5 62t57 74t59.5 80t58 80.5t52.5 74.5t41.5 63h-271l50 94h350z" />
    <glyph glyph-name="eight" unicode="8" horiz-adv-x="444" 
d="M451 162q-8 -32 -30 -61.5t-53.5 -52t-70.5 -35.5t-81 -13q-36 0 -64 10.5t-46 29t-24.5 44t1.5 55.5q10 38 40.5 71t84.5 55q-38 26 -52 55.5t-7 58.5q7 27 27.5 56t50.5 52t66 38t74 15q34 0 62 -9.5t46.5 -26.5t25.5 -41t0 -53q-9 -35 -35 -62.5t-77 -55.5
q42 -26 56.5 -60.5t5.5 -69.5zM399 372q6 22 1 42.5t-17.5 36t-30.5 24.5t-38 9q-25 0 -43 -17.5t-23 -36.5q-7 -27 15.5 -55.5t90.5 -60.5q10 9 20 19q8 8 15.5 18t9.5 21zM354 120q4 16 1.5 31.5t-14.5 30.5t-34.5 30.5t-58.5 31.5q-29 -10 -44 -29t-20 -40
q-6 -25 -0.5 -46.5t19 -37.5t33 -25.5t40.5 -9.5q10 0 22.5 5.5t23.5 14.5t20 20.5t12 23.5z" />
    <glyph glyph-name="nine" unicode="9" horiz-adv-x="444" 
d="M496 346q-9 -36 -25.5 -73t-45.5 -77t-73 -85t-108 -97l-108 -21l-5 22q25 15 56.5 36t64.5 49t64.5 64.5t56.5 83.5l-1 2q-25 -19 -44 -30.5t-35.5 -17.5t-31 -8t-29.5 -2q-27 0 -50 9.5t-37.5 28t-19.5 45t4 60.5q9 36 35 72.5t61 66t75 48t77 18.5q38 0 65.5 -14
t43 -39.5t18 -61.5t-7.5 -79zM394 307q10 38 8 67t-14 48t-31.5 28.5t-44.5 9.5q-30 0 -58 -20.5t-37 -54.5q-12 -51 17.5 -78t83.5 -27q15 0 36.5 7.5t39.5 19.5z" />
    <glyph glyph-name="colon" unicode=":" horiz-adv-x="278" 
d="M224 311l-57 76l94 75l57 -76zM149 59l-57 76l94 75l57 -76z" />
    <glyph glyph-name="semicolon" unicode=";" horiz-adv-x="278" 
d="M256 251l-57 76l94 75l57 -76zM285 65q-5 -21 -46 -64l-127 -132l-17 42q8 7 22 22.5t27.5 32t24 31t11.5 19.5q1 4 1 8t-3 11.5t-10 19t-19 29.5l100 73q13 -21 21 -34.5t12 -23.5t4.5 -17.5t-1.5 -16.5z" />
    <glyph glyph-name="less" unicode="&#x3c;" horiz-adv-x="314" 
d="M47 189l19 78l295 188l-26 -104l-190 -124l128 -123l-25 -104z" />
    <glyph glyph-name="equal" unicode="=" horiz-adv-x="426" 
d="M137 295l13 50h318l-13 -50h-318zM108 177l12 50h318l-12 -50h-318z" />
    <glyph glyph-name="greater" unicode="&#x3e;" horiz-adv-x="314" 
d="M66 0l25 104l190 123l-128 124l26 104l201 -188l-19 -78z" />
    <glyph glyph-name="question" unicode="?" horiz-adv-x="549" 
d="M669 484q-7 -27 -18 -51t-37.5 -56.5t-74.5 -78.5t-129 -118l-47 67q66 58 110.5 100.5t73 75t43 56.5t19.5 45q8 30 -2.5 43t-25.5 13q-23 0 -66.5 -19t-100.5 -51l-42 77q58 30 108 49.5t81 19.5q25 0 48 -14.5t39 -38.5t22.5 -55t-1.5 -64zM368 -7l-57 76l93 75
l57 -76z" />
    <glyph glyph-name="at" unicode="@" horiz-adv-x="544" 
d="M609 290q-8 -33 -29 -66.5t-48.5 -60t-60.5 -43.5t-65 -17q-34 0 -44.5 15.5t-2.5 47.5q-55 -59 -101 -59q-90 0 -65 98q9 37 29 69.5t46.5 57t58.5 38.5t66 14q38 0 50 -24l7 15l55 10l7 -8q-84 -162 -99 -221q-7 -28 13 -28q15 0 34 11t37 32t34.5 51.5t25.5 68.5
q19 75 -15.5 118t-123.5 43q-46 0 -90.5 -18.5t-82 -49.5t-65 -72.5t-39.5 -88.5q-11 -44 -8 -80.5t20 -63.5t48 -42t76 -15q100 0 191 65l6 -5q-6 -9 -14 -22q-95 -64 -199 -64q-53 0 -94.5 15t-67 43t-33.5 68t5 92q13 51 46.5 98.5t81 83.5t107 57.5t125.5 21.5
q47 0 84.5 -13t61.5 -37.5t33 -58.5t-1 -76zM414 318q11 43 -22 43q-41 0 -93 -82q-25 -38 -34 -72q-16 -66 20 -66q51 0 108 121q15 33 21 56z" />
    <glyph glyph-name="A" unicode="A" horiz-adv-x="606" 
d="M592 15l-5 -4l-98 3q-68 0 -128 -3l-3 4l6 23l5 4l32 2q22 2 25 15v12.5t-1 22.5l-12 78q-24 1 -51 1h-89q-21 0 -50 -1l-28 -46q-16 -25 -24 -41t-10 -23q-3 -12 7 -15.5t43 -4.5l3 -3l-6 -24l-5 -4q-68 3 -87 3q-15 0 -76 -3l-3 3l6 25l5 3q49 4 92 65l63 106l157 242
q3 3 12 18t27 44l15 23h53l81 -463q3 -23 11.5 -28.5t21.5 -5.5h14l3 -4zM375 409l-124 -195h34h87h35z" />
    <glyph glyph-name="B" unicode="B" horiz-adv-x="514" 
d="M517 181q-9 -34 -29.5 -64.5t-53 -54.5t-76 -37.5t-97.5 -13.5q-7 0 -14 0.5t-15 0.5l-107 2q-28 0 -55 -3l-3 4l3 11l3 4q18 10 25.5 14t11.5 9.5t6 16t9 32.5l85 336q5 23 7 35.5t-3 19.5t-16.5 9t-32.5 3l-2 4l7 25l4 4q31 -3 113 -3q10 0 30.5 0.5t43.5 1.5t43 1h32
q80 0 109 -26.5t17 -77.5q-12 -45 -50.5 -78.5t-116.5 -49.5q151 -8 122 -125zM400 170q28 111 -88 111h-17q-8 0 -19 -1l-43 -172q-3 -14 -6 -27.5t-5 -26.5q14 -3 42 -3q53 0 87.5 31.5t48.5 87.5zM445 416q21 82 -64 82q-35 0 -49 -3q-6 -20 -11 -38t-9 -34l-25 -102
q3 -1 12 -1h22q52 0 83 27t41 69z" />
    <glyph glyph-name="C" unicode="C" horiz-adv-x="563" 
d="M559 78l-27 -37q-89 -43 -185 -43q-68 0 -118.5 18.5t-80.5 54.5t-38 87.5t9 118.5q15 62 49.5 111.5t83 84.5t110 54t131.5 19q86 0 168 -33l4 -6q-12 -25 -23.5 -55t-22.5 -65l-4 -4h-22l-3 5q6 22 8.5 37.5t3.5 24.5q-34 52 -120 52q-45 0 -85 -14.5t-71.5 -42
t-54.5 -67t-35 -88.5q-12 -48 -10 -92t21.5 -77t56.5 -52.5t94 -19.5q73 0 153 38z" />
    <glyph glyph-name="D" unicode="D" horiz-adv-x="648" 
d="M689 306q-17 -67 -53.5 -121t-88 -92.5t-116.5 -60t-138 -21.5l-155 3q-18 0 -34 -1.5t-30 -1.5l-3 4l3 11l3 4q13 8 20.5 11.5t11.5 7t6.5 8.5t4.5 15l31 113l63 253q5 23 7 35.5t-3 19.5t-16.5 9t-32.5 3l-3 4l7 25l5 4q38 -3 73 -3q16 0 47 0.5t66.5 1.5t67 1h46.5
q138 0 189.5 -56t21.5 -176zM570 288q15 58 12.5 98t-23.5 64.5t-59 36t-95 11.5q-35 0 -68 -5q-6 -21 -17 -58.5t-24 -93.5l-52 -211q-15 -60 -15 -72q26 -6 65 -6q217 0 276 236z" />
    <glyph glyph-name="E" unicode="E" horiz-adv-x="473" 
d="M478 138q-11 -28 -20.5 -58t-18.5 -65l-4 -4l-298 3q-40 0 -68 -3l-3 4l3 11l4 4q17 9 24.5 13.5t11.5 10t6 15.5t9 32l83 329q7 28 9 42.5t-2.5 21t-16.5 8t-33 3.5l-2 4l7 25l3 3q19 -1 48 -1.5t68 -0.5q36 0 101 0.5t165 1.5l4 -3l-39 -109l-5 -4h-21l-3 4q13 52 9 57
q-6 12 -100 12q-33 0 -66 -3q-6 -20 -14 -46.5t-17 -61.5l-19 -77q16 -1 27 -1.5t19 -0.5l50 1q19 0 27.5 0.5t13.5 5.5t8.5 16l10.5 33l4 4h23l3 -4q-6 -21 -11 -39.5t-10 -36.5q-4 -18 -8.5 -38.5t-9.5 -43.5l-5 -4h-25l-3 4q5 22 7 35t-2.5 19t-15 8t-30.5 2
q-17 0 -40.5 -0.5t-43.5 -1.5l-28 -114q-6 -24 -11.5 -47.5t-10.5 -46.5h50q51 0 79.5 1t43.5 4.5t20.5 10.5t11.5 19l21 46l5 5h22z" />
    <glyph glyph-name="F" unicode="F" horiz-adv-x="435" 
d="M539 534l-15 -42q-6 -7 -7.5 -16.5t-5.5 -20.5l-9 -29l-5 -5h-22l-3 4q12 51 10 57q-6 12 -101 12q-16 0 -49 -3q-7 -18 -16 -51.5t-22 -84.5l-12 -49l49 -2q10 -1 25.5 0.5t37.5 1.5q12 0 17.5 10t15.5 44l5 4h23l2 -4q-6 -21 -11 -40l-18 -75q-5 -20 -10 -43l-4 -3h-25
l-3 3q7 28 7 41t-8.5 18t-27.5 5h-52h-17.5t-15.5 -1l-23 -89q-16 -64 -21.5 -94t6.5 -35q1 -1 52 -3l3 -4l-6 -25l-5 -4l-165 3q-28 0 -73 -3l-3 4l6 25l5 4q23 1 34 1.5t16.5 2.5t7.5 5.5t3 8.5q12 27 33 114l66 262q5 23 7 35.5t-3 19.5t-16.5 9t-32.5 3l-3 4l7 25l5 4
q35 -3 114 -3q51 0 251 3z" />
    <glyph glyph-name="G" unicode="G" horiz-adv-x="650" 
d="M664 201l-5 -4q-13 -3 -21 -8.5t-13.5 -14t-9 -21.5t-7.5 -31l-4 -15q-1 -5 -1 -9q-3 -12 -5 -23q-3 -15 -6 -31q-131 -46 -235 -46q-69 0 -119 19.5t-79.5 55.5t-38 87t7.5 114q15 59 46.5 109t80 86t112.5 56.5t143 20.5q117 0 190 -38l2 -6q-11 -17 -21.5 -45
t-23.5 -69l-5 -4h-23l-2 4q11 43 10 60q-7 12 -20.5 22t-31 17t-38.5 11t-44 4q-46 0 -87 -14t-75 -42t-59 -69t-38 -95q-13 -52 -9 -96t23 -76.5t52 -50.5t78 -18t99 21q3 8 7.5 25t9 34.5t7.5 30.5l5 13q1 9 0 13t-8 6.5t-22 4t-44 3.5l-3 3l6 23l5 4h24.5h27t25.5 -0.5
t21 -0.5h62q21 0 55 1l3 -4z" />
    <glyph glyph-name="H" unicode="H" horiz-adv-x="650" 
d="M629 15l-5 -4q-36 3 -113 3q-80 0 -115 -3l-3 4l6 25l5 4q23 1 34 1.5t16 2.5t7 5.5t4 8.5q11 26 33 114l23 90q-9 0 -39 0.5t-82 0.5q-48 0 -78 -0.5t-45 -0.5l-23 -90q-5 -21 -9.5 -37.5t-7.5 -28.5q-6 -24 -7.5 -37t3.5 -19t17 -7.5t32 -2.5l3 -4l-6 -25l-4 -4
q-37 3 -114 3q-80 0 -115 -3l-2 4l6 25l4 4q23 1 34 1.5t16.5 2.5t7 5.5t3.5 8.5q11 26 33 114l66 262q5 23 7 35.5t-3 19.5t-16.5 9t-32.5 3l-2 4l7 25l4 4q35 -3 113 -3q81 0 116 3l2 -4l-7 -26l-5 -3q-21 -1 -31.5 -2t-16.5 -3t-8 -4.5t-4 -7.5q-12 -28 -34 -115l-15 -62
q20 -1 47.5 -1h61.5h88.5t46.5 1l32 127q5 23 7 35.5t-3 19.5t-16.5 9t-32.5 3l-3 4l7 25l5 4q35 -3 113 -3q81 0 115 3l3 -4l-7 -26l-5 -3q-21 -1 -32.5 -2t-16.5 -3t-7 -4.5t-4 -7.5q-11 -28 -33 -115l-49 -197q-5 -21 -9.5 -37.5t-7.5 -29.5q-6 -23 -7.5 -36t3.5 -19
t17 -7.5t31 -2.5l3 -4z" />
    <glyph glyph-name="I" unicode="I" horiz-adv-x="303" 
d="M277 15l-5 -4q-36 3 -114 3q-77 0 -115 -3l-2 4l6 25l5 4q21 1 32 1.5t16.5 2.5t7.5 5t5 8q10 27 32 115l66 263q6 23 7.5 36t-3.5 19t-16.5 7.5t-31.5 3.5l-3 4l7 25l4 3q17 -1 45 -1.5t69 -0.5q39 0 67.5 0.5t46.5 1.5l4 -3l-7 -25l-5 -4q-21 -2 -32.5 -2.5t-16.5 -2.5
t-7.5 -5t-3.5 -8q-12 -28 -34 -114l-49 -197q-5 -21 -9.5 -36.5t-7.5 -28.5q-6 -23 -7 -36t4 -19.5t16.5 -8.5t31.5 -3l3 -4z" />
    <glyph glyph-name="J" unicode="J" horiz-adv-x="303" 
d="M407 504l-5 -3q-20 -2 -31.5 -2.5t-16.5 -2.5t-7.5 -5t-4.5 -8q-11 -28 -33 -115l-69 -276q-9 -38 -20.5 -67.5t-27.5 -53.5t-36.5 -44t-48.5 -40q-63 -45 -108 -45q-16 0 -30 5q5 14 9.5 31t10.5 38l10 6q21 -28 44 -28q28 0 41.5 27t25.5 75l92 372q16 63 22 94.5
t-7 34.5q-1 0 -13.5 1l-37.5 3l-3 4l7 25l4 3q51 -3 122 -3q81 0 114 3l4 -3z" />
    <glyph glyph-name="K" unicode="K" horiz-adv-x="601" 
d="M593 15l-5 -4q-60 3 -83 3q-21 0 -66 -3q-4 18 -26 53l-78 126q-25 40 -59 75l-23 -89q-5 -21 -9 -37.5t-7 -28.5q-6 -24 -7.5 -37t3 -19t16.5 -7.5t32 -2.5l3 -4l-6 -25l-4 -4q-37 3 -113 3q-80 0 -116 -3l-3 4l6 25l5 4q23 1 34 1.5t16.5 2.5t7 5.5t3.5 8.5
q11 26 33 114l66 262q5 23 7 35.5t-3 19.5t-16.5 9t-32.5 3l-3 4l7 25l5 4q35 -3 114 -3q80 0 115 3l2 -4l-7 -26l-5 -3q-21 -1 -31.5 -2t-16.5 -3t-8 -4.5t-4 -7.5q-12 -28 -34 -115l-22 -92q42 32 73 55.5t50 39.5l66 55q16 14 38.5 32.5t50.5 44.5l7 26l5 4q28 -3 55 -3
q33 0 77 3l3 -4l-6 -24l-5 -3q-26 0 -43 -4.5t-38 -16.5t-49 -34t-76 -58l-93 -72l36 -63l59 -97q28 -46 43.5 -70t25.5 -34.5t18 -11.5t19 -2l3 -4z" />
    <glyph glyph-name="L" unicode="L" horiz-adv-x="473" 
d="M478 138q-11 -28 -20.5 -58t-18.5 -65l-4 -4l-298 3q-40 0 -68 -3l-3 4l3 11l4 4q17 10 24.5 14t11.5 9.5t6 16t9 32.5l85 336q6 24 7.5 37t-3.5 19.5t-16.5 8t-32.5 2.5l-2 4l7 25l4 4q38 -3 111 -3q77 0 118 3l2 -4l-7 -26l-4 -3q-22 -1 -33 -2t-16.5 -3t-7 -4.5
t-3.5 -7.5q-12 -28 -34 -115l-55 -223q-6 -24 -11.5 -47.5t-10.5 -46.5h50q51 0 79.5 1t43.5 4.5t20.5 10.5t11.5 19l21 47l5 4h22z" />
    <glyph glyph-name="M" unicode="M" horiz-adv-x="780" 
d="M757 15l-5 -4q-37 3 -114 3q-80 0 -115 -3l-2 3l6 26l5 4q21 1 32.5 1.5t16.5 2.5t7 5t5 8q10 27 32 115l63 251l-125 -169l-179 -253h-25q-6 23 -10.5 51.5t-12.5 64.5l-71 313l-65 -258q-5 -21 -9.5 -36.5t-7.5 -28.5q-6 -23 -7 -36t4 -19.5t16.5 -8.5t31.5 -3l3 -4
l-6 -26l-5 -3q-42 3 -79 3q-42 0 -86 -3l-3 3l6 26l5 4q22 1 32.5 1.5t16.5 2.5t7.5 5t4.5 8q11 27 33 115l66 263q6 23 7 36t-3.5 19t-16 7.5t-32.5 3.5l-3 4l7 25l4 3q19 -1 43.5 -1.5t53.5 -0.5q23 0 42.5 0.5t37.5 1.5q2 -11 5.5 -31t9.5 -48l67 -298l85 115l136 190
q11 16 22.5 33.5t26.5 38.5q20 -1 34.5 -1.5t21.5 -0.5q37 0 64.5 0.5t47.5 1.5l4 -3l-7 -26l-5 -3q-21 -2 -32.5 -2.5t-16.5 -2.5t-7.5 -5t-3.5 -8q-12 -28 -34 -114l-49 -197q-5 -21 -9.5 -36.5t-7.5 -28.5q-6 -23 -7 -36t4 -19.5t16.5 -8.5t31.5 -3l3 -4z" />
    <glyph glyph-name="N" unicode="N" horiz-adv-x="650" 
d="M752 509l-5 -4q-22 -2 -33 -2.5t-16.5 -2.5t-7.5 -5t-3 -8q-12 -28 -34 -115l-37 -150q-42 -167 -49 -217l-6 -3l-62 9q-37 56 -95.5 157.5t-141.5 249.5l-61 -242q-5 -21 -9.5 -37t-7.5 -29q-6 -23 -7 -35.5t3.5 -19.5t16 -9t31.5 -3l3 -3l-6 -26l-5 -3q-41 3 -78 3
q-44 0 -86 -3l-3 3l6 26l5 3q20 1 31.5 2t17 3t7.5 5t5 8q10 27 32 115l66 263q6 23 7.5 36t-3.5 19t-16.5 7.5t-31.5 3.5l-3 4l7 25l4 3q17 -1 34 -1.5t33 -0.5q25 0 45.5 0.5t36.5 1.5q89 -178 220 -382l71 284q6 23 7 36t-3.5 19t-16 7.5t-32.5 3.5l-3 4l7 25l4 3
q21 -1 41 -1.5t38 -0.5q23 0 44.5 0.5t41.5 1.5l4 -3z" />
    <glyph glyph-name="O" unicode="O" horiz-adv-x="650" 
d="M686 288q-16 -67 -50 -121t-81 -91.5t-106 -57.5t-127 -20q-63 0 -109 18t-72.5 52.5t-33 84.5t9.5 114q16 63 47.5 115t76.5 88t104 56t131 20q64 0 110.5 -17.5t74 -50.5t34.5 -81t-9 -109zM568 269q27 112 -1.5 172.5t-111.5 60.5q-82 0 -136.5 -54t-80.5 -158
q-31 -122 -3 -186t113 -64q80 0 136 59t84 170z" />
    <glyph glyph-name="P" unicode="P" horiz-adv-x="476" 
d="M561 421q-8 -35 -29 -65t-49 -51.5t-62 -33.5t-70 -12q-22 0 -44 5q1 6 -1 12l-5 15l10 8q11 -5 28 -5q40 0 68 28t39 73q26 103 -67 103q-11 0 -46 -4q-5 -6 -34 -121l-49 -197q-6 -24 -11 -42t-8 -32q-5 -20 -6 -32t5 -17t19.5 -6.5t35.5 -2.5l3 -4l-6 -25l-4 -4
q-51 3 -121 3q-80 0 -115 -3l-3 4l6 25l5 4q23 1 33.5 1.5t16 2.5t7 5.5t4.5 8.5q11 26 33 114l66 262q5 23 7 35.5t-3 19.5t-16.5 9t-32.5 3l-3 4l7 25l5 4q36 -3 111 -3h38q22 0 52 1l68 2q148 0 118 -117z" />
    <glyph glyph-name="Q" unicode="Q" horiz-adv-x="650" 
d="M685 284q-16 -66 -48.5 -120t-79 -91.5t-106 -58t-130.5 -20.5h-11h-12q15 -4 42 -12t64 -22l53 -20q41 -17 69 -17q19 0 64 17l2 -3l-5 -20l-3 -5q-39 -20 -61 -32t-28 -17q-21 0 -54.5 8t-77.5 25q-44 16 -76.5 24t-54.5 8q-19 0 -78 -32l-6 2l-1 16l3 6q8 6 27 17.5
t40.5 23t40.5 21.5t29 14q-55 3 -93.5 24t-61 55.5t-26.5 82.5t10 106q17 66 50.5 118t80 88t104.5 54t124 18q62 0 108.5 -16t74 -48.5t35.5 -81t-8 -112.5zM567 265q28 113 -1 173.5t-112 60.5q-82 0 -136.5 -54.5t-80.5 -158.5q-30 -121 -2 -185t113 -64q80 0 135.5 58.5
t83.5 169.5z" />
    <glyph glyph-name="R" unicode="R" horiz-adv-x="557" 
d="M549 15l-5 -4q-31 0 -50.5 1.5t-25.5 1.5q-19 0 -61 -3q-1 4 -1.5 11.5t-4.5 19.5l-54 153l-25 63q-3 5 -7.5 10.5t-9.5 11.5l8 13h13q21 0 42.5 6t39 19t31.5 34t22 50q12 48 -8 72t-80 24q-24 0 -37 -4q-7 -18 -15 -49t-19 -75l-49 -194q-5 -21 -9.5 -37.5t-7.5 -29.5
q-6 -23 -7.5 -36t3.5 -19t17 -7.5t31 -2.5l3 -4l-6 -25l-5 -4q-36 3 -113 3q-79 0 -115 -3l-3 4l6 25l5 4q23 1 34 1.5t16 2.5t7 5.5t4 8.5q11 26 33 114l66 262q5 23 7 35.5t-3 19.5t-16.5 9t-32.5 3l-3 4l7 25l5 4q35 -3 113 -3q33 0 57.5 0.5t43 1.5t32.5 1h26
q43 0 71.5 -6t43 -19t17.5 -33.5t-4 -48.5q-25 -101 -150 -143l24 -63l36 -88q12 -31 20 -50t15 -29t14 -13t17 -3l3 -3z" />
    <glyph glyph-name="S" unicode="S" horiz-adv-x="477" 
d="M483 185q-11 -43 -35.5 -77t-60 -59t-79.5 -38t-95 -13q-75 0 -143 35l-3 8q19 39 40 121l5 4h23l3 -4l-2 -8q-3 -11 -5 -24.5t-5 -30.5q5 -13 15.5 -23.5t25.5 -18.5t32 -12.5t36 -4.5q52 0 91.5 29t51.5 77q9 36 -9.5 56t-73.5 28q-49 8 -78 18t-42 21q-39 33 -21 108
q10 39 32 70.5t54 53t72 33.5t87 12q86 0 133 -28v-9q-9 -23 -18.5 -49t-18.5 -57l-5 -4h-24l-2 4q6 27 7 42.5t-1.5 24t-11 13t-22.5 10.5q-13 5 -27 7.5t-27 2.5q-48 0 -83.5 -24.5t-46.5 -65.5q-4 -19 -3.5 -33t10.5 -24t33 -17t65 -14l42 -7q59 -11 78 -44.5t6 -88.5z
" />
    <glyph glyph-name="T" unicode="T" horiz-adv-x="520" 
d="M638 535q-5 -13 -10.5 -27.5t-8.5 -29.5l-17 -62l-4 -3h-24l-3 3q6 27 8.5 41.5t1 21t-5.5 7.5t-13 3q-3 1 -20.5 1h-49.5h-49q-3 -6 -9 -32l-71 -282q-5 -21 -9.5 -37.5t-7.5 -28.5q-6 -24 -7.5 -37t3.5 -19t17 -7.5t32 -2.5l3 -4l-6 -25l-5 -4q-37 3 -114 3
q-79 0 -114 -3l-3 4l6 25l5 4q22 1 33.5 1.5t16.5 2.5t7 5.5t4 8.5q11 26 33 114l71 282q6 26 7 32h-54h-52.5t-26.5 -3.5t-12 -10l-9 -19.5q-4 -11 -7.5 -21t-5.5 -20l-4 -3h-24l-3 3l15 64q4 14 5.5 27.5t4.5 27.5l4 4q11 -1 49.5 -2.5t108.5 -1.5h151q64 0 104.5 1.5
t56.5 2.5z" />
    <glyph glyph-name="U" unicode="U" horiz-adv-x="606" 
d="M713 509l-5 -4q-45 0 -55 -24q-10 -23 -42 -149l-28 -114q-16 -64 -42 -106t-60 -67.5t-75 -36t-86 -10.5q-185 0 -185 110q1 37 34 169l40 162q6 23 7.5 36t-3.5 19t-16.5 7.5t-32.5 3.5l-2 4l7 25l3 3q19 -1 47 -1.5t68 -0.5t68 0.5t45 1.5l4 -3l-7 -25l-5 -4
q-21 -2 -32 -2.5t-16.5 -2.5t-7.5 -5t-4 -8q-12 -28 -34 -114l-19 -77q-35 -143 -30 -172q7 -31 33.5 -46.5t76.5 -15.5q37 0 65.5 8.5t50 29t37.5 53.5t28 81l19 77q42 167 39 177q-1 14 -55 17l-2 4l7 25l3 3q16 -1 33 -1.5t34 -0.5q13 0 37 0.5t61 1.5l4 -3z" />
    <glyph glyph-name="V" unicode="V" horiz-adv-x="607" 
d="M720 508l-4 -3q-18 -3 -28 -4.5t-19 -9.5t-21 -26t-36 -53l-122 -184q-53 -81 -87.5 -135t-52.5 -84h-57l-67 413q-5 29 -8 45.5t-8.5 24.5t-16 10t-30.5 3l-3 4l6 24l6 5q39 -3 98 -3q73 0 136 3l1 -5l-6 -25l-4 -3q-55 -2 -59 -19q-2 -5 -0.5 -22.5t6.5 -48.5l42 -277
l134 208q6 9 19.5 32t27.5 47l36 61q2 8 -2.5 12t-12.5 5t-18.5 1t-20.5 1l-3 3l7 26l5 4q41 -3 86 -3q32 0 80 3l2 -5z" />
    <glyph glyph-name="W" unicode="W" horiz-adv-x="780" 
d="M903 510l-5 -4q-15 -1 -25.5 -3t-19 -9.5t-19.5 -24t-26 -46t-37 -74t-56 -110.5l-66 -129q-21 -40 -32.5 -65t-15.5 -36h-57l-7 51q-7 65 -14 121t-15 106l-13 92l-154 -229l-92 -141h-53l14 425q1 29 0 43.5t-5.5 20.5t-13.5 7t-24 1l-2 4l6 24l5 4q64 -3 98 -3
q39 0 118 3l3 -4l-6 -24l-5 -4q-31 -1 -42 -4t-14 -16q-2 -8 -5 -47l-5 -68l-7 -195l76 113q10 13 26.5 38.5t41.5 62.5l100 154h34q6 -54 18 -143.5t33 -219.5l132 263q15 30 17 40q4 16 -13 19l-39 3l-2 4l6 24l5 4q61 -3 73 -3l87 3l3 -4z" />
    <glyph glyph-name="X" unicode="X" horiz-adv-x="520" 
d="M510 17l-4 -4l-90 1h-23q-12 0 -28 -1q-9 14 -21 61l-42 142l-40 -42q-39 -40 -74 -80t-69 -81q-9 1 -17 1h-47q-13 0 -21 -1l-2 4l5 23l5 5q18 1 26.5 2t17.5 7t22 19t37 38l66 66l26.5 26.5t52.5 53.5l-41 128q-18 58 -34 81t-32 23q-4 0 -9.5 -0.5t-13.5 -1.5l-4 4
l2 20l4 6q29 5 64 12.5t80 16.5q8 -7 14 -15t12 -20.5t12 -33t15 -52.5l24 -78l66 71q39 43 66.5 73t39.5 46q8 -1 15.5 -1.5t14.5 -0.5q13 0 25.5 0.5t25.5 1.5l2 -4l-6 -24l-4 -4q-16 0 -26 -2t-24.5 -13.5t-40 -37t-70.5 -71.5l-72 -75l75 -232q12 -30 43 -30l2 -4z" />
    <glyph glyph-name="Y" unicode="Y" horiz-adv-x="521" 
d="M643 520q-16 -17 -38.5 -41.5t-48 -52t-51.5 -56.5t-47.5 -54.5t-36.5 -45.5t-19 -29q-5 -10 -9 -28l-10 -37q-26 -106 -24 -121q3 -9 52 -11l3 -4l-6 -25l-5 -4q-37 3 -114 3q-80 0 -115 -3l-2 3l6 26l5 4l30 2q12 1 19.5 4t13.5 15t13 38t18 73l11 44q6 22 -34 126
q-16 40 -27.5 66.5t-20.5 42.5t-15.5 23.5t-11.5 9.5q-4 3 -27 3l-3 5l5 21l5 4q48 9 78.5 15t44.5 10q10 -8 19.5 -18t19 -28t19 -46t20.5 -70l25 -97q29 36 58.5 70.5t59.5 71.5l60 73l26 35h54l3 -4z" />
    <glyph glyph-name="Z" unicode="Z" horiz-adv-x="520" 
d="M523 142q-12 -33 -23 -64.5t-20 -62.5l-5 -4q-77 2 -134 2.5t-96 0.5q-30 0 -80.5 -0.5t-126.5 -2.5l-3 4l7 26q18 18 46 45.5t66 68.5l169 179q26 28 61 67.5t81 89.5l-93 -1h-71.5t-41 -2t-20.5 -6t-10 -12l-22 -52l-6 -4h-22l-3 4q7 20 11.5 37.5t8.5 33.5l4 16
q3 11 7 29l5 4q50 -3 224 -3q41 0 180 3l3 -4l-6 -23l-153 -159l-150 -161q-13 -14 -43 -47t-76 -86h24h36q189 0 202 10q2 2 14.5 22t25.5 53l5 3h22z" />
    <glyph glyph-name="bracketleft" unicode="[" horiz-adv-x="261" 
d="M223 -67l-4 -4q-59 2 -80 2q-16 0 -39 -0.5t-52 -2.5l-5 7q8 21 12 36.5t10 34.5t12.5 44t17.5 65l47 184l10 38q5 21 11 49l18 80l23 96q52 -2 90 -2q11 0 31.5 0.5t51.5 1.5l2 -4l-6 -22l-4 -4q-60 -2 -69 -7q-7 -4 -12 -12t-10 -23.5t-12 -41.5t-17 -66l-68 -273
l-20 -78q-6 -26 -9 -41q-2 -15 4 -21.5t22.5 -8t47.5 -2.5l2 -4z" />
    <glyph glyph-name="backslash" unicode="\" horiz-adv-x="230" 
d="M231 -10h-49l-5 3l-32 581h49l5 -4z" />
    <glyph glyph-name="bracketright" unicode="]" horiz-adv-x="259" 
d="M183 -72q-30 2 -52.5 2.5t-38.5 0.5q-22 0 -80 -2l-3 4l5 21l5 4l48 2q27 3 38 26q3 8 11 38t23 85l52 204l4 18l12 51q27 116 27 128q0 7 -2 10.5t-9 6t-21.5 3.5t-39.5 2l-3 4l6 22l5 4q28 -1 48.5 -1.5t31.5 -0.5q39 0 92 2l3 -4l-23 -92l-27 -80q-8 -28 -13 -49
l-37 -145l-47 -211q-1 -3 -3 -14.5t-6 -31.5z" />
    <glyph glyph-name="asciicircum" unicode="^" horiz-adv-x="390" 
d="M444 266h-73l-54 204l-156 -204h-73l213 281h70z" />
    <glyph glyph-name="underscore" unicode="_" horiz-adv-x="390" 
d="M357 -129h-379l12 45h379z" />
    <glyph glyph-name="grave" unicode="`" horiz-adv-x="260" 
d="M314 441l-23 -11l-87 142l12 10l79 -10l21 -126z" />
    <glyph glyph-name="a" unicode="a" horiz-adv-x="400" 
d="M382 2l-5 -4q-16 1 -35 1.5t-40 0.5q-16 0 -32.5 -0.5t-32.5 -1.5l-3 4l17 52l-90 -57q-7 -5 -18.5 -7t-24.5 -2q-90 0 -66 98q18 72 97 104q18 7 54 15.5t90 16.5q24 96 -56 96q-31 0 -51 -12l-24 -36l-6 -3l-19 5l-1 6l13 45q30 19 50.5 30t36.5 17t30 8t30 2
q70 0 94 -31t7 -99q-3 -10 -8 -28.5t-10 -37.5t-9.5 -34.5t-5.5 -19.5q-10 -41 -14.5 -61.5t-2 -29t12 -9t25.5 -1.5l2 -5zM285 190q-35 -8 -58.5 -15.5t-37.5 -16.5t-21.5 -21t-11.5 -27q-13 -53 33 -53q41 0 72 37z" />
    <glyph glyph-name="b" unicode="b" horiz-adv-x="489" 
d="M503 225q-13 -51 -39 -91t-69 -69l-101 -61q-36 -21 -81 -21q-47 0 -90 32l-44 -29l-15 6q39 125 62 217l38 153q4 16 20 95q6 25 8 37t-2 17.5t-14 6l-30 1.5l-3 5l6 22l5 4q39 4 78 12t80 20l8 -4q-42 -147 -62 -227l-10 -41l57 40q41 28 88 28q68 0 98 -39t12 -114z
M392 181q13 55 -3.5 90.5t-62.5 35.5q-22 0 -47.5 -11t-41.5 -29l-46 -184q18 -44 70 -44q46 0 80 38.5t51 103.5z" />
    <glyph glyph-name="c" unicode="c" horiz-adv-x="355" 
d="M348 50l-27 -40q-58 -27 -112 -27q-87 0 -120.5 49.5t-11.5 137.5q7 28 16 50.5t22.5 40.5t31 33t41.5 29q31 18 48.5 28.5t24.5 13.5q35 13 74 13q49 0 84 -16l2 -8q-2 -4 -5.5 -12t-9.5 -23l-10 -26l-18 -53l-4 -4h-24l-3 4q7 36 8 49q-11 30 -59 30q-83 0 -110 -107
q-20 -80 2.5 -125t84.5 -45q35 0 70 16z" />
    <glyph glyph-name="d" unicode="d" horiz-adv-x="489" 
d="M469 1l-5 -3q-38 2 -68 2t-80 -2l-3 2q3 10 7 26t9 38q-8 -6 -23.5 -18t-32 -23t-29 -20t-14.5 -11q-12 -6 -43 -6q-33 0 -57.5 14t-37.5 38t-16 57t7 72q8 30 16.5 52.5t22 40.5t33 34t48.5 34q30 18 48 28t31 15.5t24 6.5t26 1q42 0 72 -17l5 21q14 58 21.5 86.5
t4.5 39t-14.5 10t-33.5 0.5l-3 5l6 22l5 4q39 4 78 12t81 20l7 -4q-4 -14 -11.5 -41t-17.5 -64.5t-22.5 -84.5t-26.5 -102l-32 -126q-27 -110 -25 -120q3 -10 45 -14l3 -4zM383 278q-28 50 -79 50q-41 0 -67.5 -32.5t-41.5 -92.5q-7 -29 -8 -55t5.5 -44.5t21 -29.5t37.5 -11
q12 0 26 4t26.5 11t22.5 16t16 20q0 2 23 91z" />
    <glyph glyph-name="e" unicode="e" horiz-adv-x="400" 
d="M424 210q-1 -4 -4 -11l-5 -5q-41 -10 -96 -13t-137 -3q-7 -29 -3.5 -54t16 -43t33 -28t46.5 -10q34 0 96 26l6 -11l-26 -39q-67 -36 -133 -36q-90 0 -125.5 49.5t-12.5 141.5q27 109 89 149q86 55 151 55q73 0 100 -40.5t7 -118.5zM327 230q26 104 -40 104
q-69 0 -95 -104l-2 -8q10 -2 30 -3t50 -1q15 0 28.5 1t26.5 3z" />
    <glyph glyph-name="f" unicode="f" horiz-adv-x="311" 
d="M429 498l-15 -8q-14 20 -43 20q-19 0 -30.5 -4t-20 -16t-15.5 -32.5t-15 -52.5l-13 -55h36q14 0 31 1t39 3l4 -4l-20 -45l-5 -4h-55q-6 0 -12 0.5t-11 0.5q-6 0 -10.5 -0.5t-8.5 -0.5l-18 -70q-44 -178 -42 -189q4 -10 21.5 -11t41.5 -2l3 -4l-6 -24l-5 -3h-29
q-20 1 -42 1.5t-47 0.5q-70 0 -108 -2l-3 3l6 24l5 4q18 1 29 2t17.5 3.5t9.5 7t5 12.5q6 25 18.5 69.5t28.5 107.5l18 70h-11q-5 -2 -10 -2h-38l-3 3l3 13l4 5l41 18q0 1 4.5 2.5t9 3.5t8.5 5t6 8l1 5q6 25 10.5 41.5t10 27.5t12.5 20.5t18 19.5l93 72q5 4 13.5 11
t20.5 13.5t26 11.5t29 5q20 0 33 -6z" />
    <glyph glyph-name="g" unicode="g" horiz-adv-x="445" 
d="M429 -27q-11 -43 -36.5 -78t-62.5 -59.5t-82.5 -37t-95.5 -12.5q-40 0 -70 7.5t-49.5 22t-27 35t-1.5 47.5q9 34 29 52q-1 -1 6.5 3.5t20 11.5t26.5 14t26 12q-50 10 -40 52q2 8 5 15.5t8.5 15.5t15 15.5t23.5 15.5l39 24q-77 29 -56 113q8 32 27 58t46.5 44.5t62 28.5
t74.5 10q76 0 112 -33q8 -1 13.5 -1.5t9.5 -0.5q7 0 22.5 1t43.5 1l3 -4l-14 -40l-5 -4h-58q1 -15 -5 -38q-7 -31 -26 -57.5t-45.5 -45.5t-60.5 -29t-73 -10h-15t-19 1q-28 -13 -33 -34q-3 -9 0 -14t12 -7t25 -2.5t40 -0.5q6 0 18 0.5t25.5 0.5h25.5h18q35 0 57 -5.5
t33.5 -16.5t12.5 -29t-5 -42zM329 -71q4 17 3.5 28t-8 17.5t-22.5 9t-39 3.5l-73 1h-14q-8 0 -22 -1q-61 -33 -72 -76q-10 -41 16.5 -63t79.5 -22q57 0 98 27.5t53 75.5zM337 246q25 99 -41 99q-65 0 -87 -86q-25 -101 43 -101q63 0 85 88z" />
    <glyph glyph-name="h" unicode="h" horiz-adv-x="489" 
d="M472 2l-5 -4q-42 2 -72 2q-28 0 -80 -2l-3 3q14 44 23.5 77.5t15.5 56.5l19 77q24 95 -44 95q-34 0 -59 -21.5t-33 -55.5l-12 -47q-19 -78 -30 -129q-2 -8 -1 -12.5t5.5 -7t15.5 -3.5t29 -2l3 -4l-6 -24l-5 -3q-36 2 -105 2q-70 0 -108 -2l-3 3l6 24l5 4q18 1 29 2
t17.5 3.5t9 7t5.5 12.5q8 25 19.5 69.5t27.5 107.5l33 131q10 41 18 74.5t12 58.5q1 8 0.5 12.5t-5.5 7t-15 3t-28 1.5l-3 5l6 22l5 4q40 4 79 12t81 20l7 -4q-13 -51 -31 -113.5t-36 -132.5l-5 -22l83 58q24 10 59 10q118 0 86 -127q-2 -9 -6.5 -25.5t-10 -35.5t-10 -35.5
t-6.5 -24.5q-10 -40 -14.5 -60.5t-2 -29.5t13 -9.5t29.5 -1.5l3 -4z" />
    <glyph glyph-name="i" unicode="i" horiz-adv-x="266" 
d="M244 1l-5 -3q-37 2 -105 2q-71 0 -109 -2l-3 3l6 24l5 4q18 1 29 2t18 3.5t10 7t5 12.5q6 23 12.5 46.5t13.5 49.5l17 68q10 42 14.5 63t2 29t-14 8.5t-33.5 1.5l-3 4l6 22l5 4q39 4 78.5 12t80.5 20l7 -4q-23 -72 -35 -120l-31 -125q-7 -28 -17 -79q-2 -8 -1 -12.5
t5.5 -7t15.5 -3.5t29 -2l3 -4zM317 511q-6 -25 -28 -43t-47 -18q-24 0 -37.5 18t-7.5 43t28 43t47 18t38 -18t7 -43z" />
    <glyph glyph-name="j" unicode="j" horiz-adv-x="266" 
d="M280 378q-12 -26 -35 -120l-45 -182q-18 -74 -38 -123.5t-42.5 -82t-47 -50.5t-52.5 -28q-26 -9 -48 -9q-4 0 -7.5 0.5t-7.5 1.5l-1 28l5 5h6h6q39 0 62 41q22 37 62 199l40 160q10 39 14.5 59.5t2 29.5t-14 10.5t-34.5 2.5l-3 4l6 22l5 4q40 4 79 12t81 20zM316 511
q-6 -25 -28 -43t-47 -18t-38 18t-7 43t28 43t47 18t38 -18t7 -43z" />
    <glyph glyph-name="k" unicode="k" horiz-adv-x="489" 
d="M481 1l-5 -3q-14 0 -30 0.5t-34 0.5t-34.5 -0.5t-34.5 -0.5q-1 4 -8 18t-17.5 32t-22 39.5t-24.5 40.5t-24 35t-19 24l-30 -133q-2 -8 -1.5 -12.5t5 -7t16 -3.5t29.5 -2l3 -4l-6 -24l-5 -3q-37 2 -105 2q-71 0 -109 -2l-3 3l6 24l5 4q18 1 29 2t18 3.5t10 7t5 12.5
q6 23 16 60t23 90l40 158q20 81 31 133q2 8 1 12.5t-6.5 7t-15 3t-27.5 1.5l-3 5l6 22l5 4q39 4 78.5 12t80.5 20l7 -4q-13 -51 -31 -113.5t-36 -132.5l-32 -128l47 32q15 10 37 27t52 42l51 43q7 6 12 11t11 10q15 -1 29 -1h49q12 0 23 1l3 -3l-6 -24l-5 -4l-29 -2
q-8 -1 -15 -2.5t-14 -5t-18 -10.5t-27 -19l-95 -67l60 -98q21 -38 35.5 -59t23.5 -31t15 -12t13 -2l3 -5z" />
    <glyph glyph-name="l" unicode="l" horiz-adv-x="266" 
d="M244 1l-5 -3q-37 2 -105 2q-71 0 -109 -2l-3 3l6 24l5 4q18 1 29 2t18 3.5t10 7t5 12.5q6 23 16 60t23 90l40 158q20 81 31 133q2 8 1 12.5t-6.5 7t-15 3t-27.5 1.5l-3 5l6 22l5 4q39 4 78.5 12t80.5 20l7 -4q-13 -51 -31 -113.5t-36 -132.5l-25 -101q-31 -126 -41 -177
q-2 -8 -1 -12.5t5.5 -7t15.5 -3.5t29 -2l3 -4z" />
    <glyph glyph-name="m" unicode="m" horiz-adv-x="711" 
d="M694 2l-5 -4q-23 2 -80 2q-48 0 -69 -2l-4 7q15 49 26 84.5t16 57.5l9 35q9 37 13 62t0.5 40t-14.5 21t-32 6q-28 0 -52 -15.5t-30 -42.5l-30 -117l-14 -62q-5 -23 -4.5 -29.5t9.5 -10.5l37 -4l3 -4l-6 -24l-6 -4q-46 2 -95 2q-60 0 -103 -2l-4 4l6 23l5 5h22t15 5t12 17
t13 37l32 126q14 56 4.5 76t-43.5 20q-37 0 -58.5 -20t-28.5 -50l-22 -85q-5 -22 -9.5 -39.5t-7.5 -30.5q-5 -19 -6 -29.5t2.5 -16.5t13.5 -8t27 -2l3 -4l-6 -24l-5 -4q-32 2 -98 2q-70 0 -108 -2l-3 3l6 24l5 4q18 1 28.5 2t17.5 3.5t10 7t5 12.5q6 23 13 46.5t14 49.5
l17 68q9 36 13 56t4 29.5t-3.5 11.5t-11.5 3q-6 1 -34 2l-3 4l6 22l5 4q37 4 75.5 12t80.5 20l8 -4l-16 -63l83 56q24 9 47 9q46 0 67 -15t27 -51l85 57q21 10 48 10q56 0 80 -29.5t6 -100.5l-32 -121q-10 -40 -14.5 -61t-1.5 -29.5t13 -9t30 -0.5l3 -5z" />
    <glyph glyph-name="n" unicode="n" horiz-adv-x="489" 
d="M472 2l-5 -4q-42 2 -72 2q-28 0 -80 -2l-3 3q14 44 23.5 77.5t15.5 56.5l19 77q24 95 -44 95q-15 0 -28.5 -4.5t-26.5 -14t-22 -21.5t-12 -26l-19 -73q-25 -102 -26 -124q0 -14 42 -14l3 -4l-6 -24l-5 -4q-32 2 -98 2q-70 0 -108 -2l-3 3l6 24l5 4q18 1 29 2t17.5 3.5
t9 7t5.5 12.5q8 25 15.5 52.5t14.5 55.5l14 56q9 36 13 56t4 29.5t-4 11.5t-11 3q-5 0 -34 2l-3 4l6 22l5 4q37 4 75.5 12t80.5 20l8 -4l-17 -66l81 56q24 10 59 10q118 0 86 -127q-2 -9 -6.5 -25.5t-10 -35.5t-10 -35.5t-6.5 -24.5q-10 -40 -14.5 -60.5t-2 -29.5t13 -9.5
t29.5 -1.5l3 -4z" />
    <glyph glyph-name="o" unicode="o" horiz-adv-x="445" 
d="M461 194q-26 -103 -90.5 -157t-158.5 -54q-92 0 -125 51.5t-9 148.5q26 102 87 151.5t158 49.5q185 0 138 -190zM345 162q45 181 -42 181q-77 0 -112 -141q-45 -180 42 -180q39 0 66 32.5t46 107.5z" />
    <glyph glyph-name="p" unicode="p" horiz-adv-x="489" 
d="M507 226q-11 -42 -26 -71t-38.5 -52.5t-57 -46t-82.5 -54.5q-24 -15 -62 -15q-37 0 -64 13l-37 -147q-3 -11 -4 -17t4.5 -9t18.5 -4t37 -4l4 -3l-7 -25l-5 -4q-25 2 -55 2.5t-64 0.5q-24 0 -48 -0.5t-50 -2.5l-3 4l6 24l5 4q31 1 39.5 4t13.5 10q3 9 10.5 33t17.5 65
l73 287l3 13q3 12 6 26.5t6 27.5t2 18q0 6 -1.5 9t-6.5 4.5t-14.5 2t-26.5 1.5l-3 4l6 22l5 4q40 4 79 12t81 20l7 -4q-2 -9 -7.5 -26t-13.5 -42q13 8 33 22t47 32q21 14 62 14q71 0 100 -38t10 -114zM395 178q16 65 -1 98t-60 33q-48 0 -90 -39l-49 -194q27 -38 69 -38
q47 0 80.5 36t50.5 104z" />
    <glyph glyph-name="q" unicode="q" horiz-adv-x="489" 
d="M417 -209l-5 -4q-28 2 -52.5 2.5t-45.5 0.5t-50.5 -0.5t-69.5 -2.5l-3 4l7 25l4 3q24 2 37.5 2.5t20.5 4t10 9.5t6 18l51 204q-28 -19 -47.5 -32.5t-33.5 -22.5t-27.5 -14t-30.5 -5q-73 0 -100 48t-6 133q8 31 18 55t25 43.5t37 36.5t55 35q40 20 69 32t58 12
q54 0 108 -33l48 33l16 -8l-16 -40q-20 -46 -49 -164l-44 -175q-12 -49 -19 -80t-11 -49.5t-3.5 -26t2.5 -9.5q4 -5 44 -7l3 -4zM383 283q-21 46 -75 46q-84 0 -118 -133q-15 -63 -0.5 -100.5t58.5 -37.5q49 0 90 46z" />
    <glyph glyph-name="r" unicode="r" horiz-adv-x="311" 
d="M384 308q-2 -6 -4.5 -16t-6.5 -23l-18 -5q-12 26 -44 26q-11 0 -23 -3.5t-22 -11t-18.5 -20.5t-13.5 -31l-22 -91q-8 -29 -17 -79q-5 -20 17 -24l39 -1l3 -3l-6 -24l-5 -4q-57 2 -113 2q-70 0 -108 -2l-3 3l6 24l5 4q19 1 29.5 2t17 3.5t9.5 7t5 12.5q8 25 16 52.5
t15 55.5l14 56q9 36 12.5 56t3.5 29.5t-3.5 11.5t-11.5 3q-4 0 -33 2l-3 4l6 22l5 4q37 4 75.5 12t80.5 20l8 -4l-20 -77q11 10 29 26.5t45 38.5q19 16 48 16q16 0 26 -4z" />
    <glyph glyph-name="s" unicode="s" horiz-adv-x="355" 
d="M358 122q-8 -32 -27.5 -58t-46.5 -44t-61 -27.5t-72 -9.5q-51 0 -110 23l-4 6l19 56l13 49l7 5h23l4 -5q-6 -22 -8 -34.5t-2 -16.5q22 -43 76 -43q32 0 58 15.5t34 46.5q3 14 2 23.5t-9 15.5t-23.5 11t-38.5 11q-36 8 -56.5 17.5t-30.5 22t-11 29.5t5 40q8 30 25 53.5
t42.5 40t56 25t66.5 8.5q61 0 99 -21l1 -7q-4 -8 -11 -30.5t-18 -58.5l-5 -4h-22l-3 4q2 13 3.5 25t1.5 20q-17 32 -64 32q-29 0 -53 -15t-30 -40q-3 -13 -1 -21t11 -14t25.5 -10.5t41.5 -10.5q36 -7 58 -16.5t31 -22.5t9.5 -30t-5.5 -40z" />
    <glyph glyph-name="t" unicode="t" horiz-adv-x="266" 
d="M272 51q-2 -2 -10.5 -9t-19.5 -15.5t-22 -16.5l-18 -15q-24 -6 -39 -6q-29 0 -47 7t-25.5 21.5t-5.5 37t9 53.5l50 191h-48l-3 3l2 10l5 6q10 5 24 13t33 19l13 53q4 17 7.5 34.5t6.5 36.5q53 15 110 40l7 -8q-11 -24 -16.5 -45.5t-11.5 -41.5l-20 -67h12q43 0 74 2l4 -4
l-17 -45l-5 -4h-80l-34 -133q-9 -37 -14 -59t-4 -33.5t10 -15t28 -3.5q12 0 40 9z" />
    <glyph glyph-name="u" unicode="u" horiz-adv-x="489" 
d="M469 2l-4 -4q-30 1 -48 1.5t-26 0.5q-5 0 -16 -0.5t-22.5 -0.5t-22 -0.5t-16.5 -0.5l-2 3q6 16 10 31.5t8 29.5q-12 -8 -33.5 -24t-53.5 -40q-25 -11 -57 -11q-54 0 -76.5 29.5t-9.5 82.5q1 5 4 14.5t5.5 20t5.5 20t4 14.5l13 50q9 36 13.5 56t4 30t-5.5 13t-15 3h-29
l-3 4l6 22l5 4q39 4 78.5 12t80.5 20l8 -4q-12 -34 -20.5 -63t-15.5 -57l-19 -76q-7 -29 -11 -48t-4.5 -30.5t2 -18.5t9.5 -12q11 -12 36 -12q41 0 65 24.5t34 63.5l17 69q11 44 15 65t0.5 29t-15 7.5t-31.5 0.5l-4 4l6 22l6 4q39 4 78 12t81 20l7 -4q-20 -60 -35 -120
l-31 -124q-10 -39 -16 -59.5t-4.5 -30t12.5 -11.5t35 -3l3 -4z" />
    <glyph glyph-name="v" unicode="v" horiz-adv-x="445" 
d="M522 341l-5 -4q-17 -1 -26.5 -3.5t-18 -11t-19.5 -25t-32 -47.5l-118 -172q-4 -7 -55 -84h-68l-42 302q-4 26 -12 34t-28 8l-3 4l6 23l5 4q17 -1 43 -1.5t60 -0.5q31 0 54 0.5t42 1.5l3 -4l-6 -23l-5 -4q-47 -1 -51 -15q-2 -10 14 -137q5 -36 8 -56.5t5 -28.5
q24 37 49 75t45 70t32.5 53t13.5 24q2 9 -6 11t-37 4l-3 4l6 23l5 4q14 -1 31.5 -1.5t38.5 -0.5q22 0 41 0.5t36 1.5l3 -4z" />
    <glyph glyph-name="w" unicode="w" horiz-adv-x="666" 
d="M741 342l-6 -4q-19 -2 -28 -3t-18.5 -12t-25 -38t-46.5 -80l-79 -136q-5 -8 -10 -17.5t-11 -21.5l-20 -36h-65l-16 104l-26 145q-42 -57 -79.5 -111.5t-70.5 -105.5l-22 -32h-63v67l-7 205q-1 29 -1 44t-5 20.5t-14 6l-27 1.5l-3 4l6 23l5 4q14 -1 39 -1.5t61 -0.5
t62.5 0.5t45.5 1.5l3 -4l-6 -23l-5 -4q-31 0 -42 -4.5t-14 -13.5q-1 -6 -1 -20l2 -180l180 258h40l45 -258l69 117q19 33 29 53t13 31q1 6 -2.5 9.5t-11 4.5t-15.5 1.5t-17 1.5l-4 4l6 23l6 4q14 -1 34.5 -1.5t46.5 -0.5q18 0 35.5 0.5t34.5 1.5l4 -4z" />
    <glyph glyph-name="x" unicode="x" horiz-adv-x="400" 
d="M386 3l-5 -4q-10 1 -24 1h-75q-15 0 -21 -1l-29 81l-16 53q-34 -34 -65 -66.5t-62 -67.5q-5 1 -14 1h-41q-8 0 -13 -1l-4 4l6 23l6 4q24 2 39 12l35 31q17 16 42 40.5t58 56.5l-43 121q-6 13 -9.5 20t-7.5 11t-8 4.5t-11 0.5q-1 0 -5 -0.5t-11 -0.5l-4 4v20l5 6
q35 6 64.5 12t54.5 13q23 -23 58 -131q20 19 41.5 41.5t46.5 49.5l28 31q12 -1 22 -1.5t18 -0.5t15.5 0.5t15.5 1.5l4 -5l-5 -22l-5 -4q-15 -1 -22 -2t-17 -8t-28 -24.5t-56 -52.5l-44 -40l31 -100q9 -30 14 -46t11 -23.5t13 -9.5t20 -5l3 -4z" />
    <glyph glyph-name="y" unicode="y" horiz-adv-x="445" 
d="M521 341l-4 -3q-12 0 -19 -1t-14 -7.5t-18 -21t-30 -42.5q-40 -56 -73 -104t-61 -92l-102 -155q-23 -37 -44.5 -61.5t-42.5 -40t-41.5 -22.5t-43.5 -7q-26 0 -52 14q7 13 15 32.5t17 44.5l11 3q13 -29 48 -29q41 0 96 80l25 37l-45 329q-3 15 -5.5 23.5t-7.5 12t-12.5 5
t-19.5 2.5l-3 4l6 23l5 4q12 -1 35.5 -1.5t59.5 -0.5q33 0 59.5 0.5t48.5 1.5l2 -4l-6 -23l-4 -4q-45 0 -49 -16q-1 -4 0 -22t5 -50l19 -150l55 82q81 121 86 141q4 15 -42 15l-3 4l6 23l6 4q10 -1 29 -1.5t46 -0.5q16 0 32 0.5t33 1.5l3 -4z" />
    <glyph glyph-name="z" unicode="z" horiz-adv-x="400" 
d="M399 120q-14 -41 -23.5 -70.5t-13.5 -49.5l-4 -2q-125 2 -185 2q-49 0 -156 -2l-3 3l5 22q51 45 293 302h-45q-39 0 -60 -1t-31.5 -3.5t-14 -8t-5.5 -14.5q-2 -4 -5.5 -12t-8.5 -20l-2 -5l-5 -4h-23l-3 4q11 36 16 55.5t7 25.5l3 12l2 12l5 4q6 -2 9.5 -2.5t10.5 -0.5h34
q13 0 32.5 -0.5t47.5 -0.5h57q20 0 117 3l3 -4l-6 -24l-95 -95q-18 -19 -37.5 -40t-45.5 -47l-70 -74q-14 -15 -23.5 -25t-15.5 -18l41 -1h27q21 0 43 1.5t41.5 4.5t24.5 9q3 4 30 64l5 4h24z" />
    <glyph glyph-name="braceleft" unicode="{" horiz-adv-x="242" 
d="M208 -79l-26 -1q-68 0 -90 24.5t-9 78.5l35 138q9 38 1.5 55.5t-27.5 19.5l-27 4l4 14l29 4q25 4 39 21t24 55l34 137q13 54 47 78.5t103 24.5h9h17l-4 -15q-24 -2 -40 -8t-26.5 -16.5t-17 -25.5t-11.5 -35l-32 -128q-12 -46 -34 -68t-67 -31q41 -9 52 -31t0 -66
l-33 -130q-4 -20 -5 -35t5 -25t18.5 -16t34.5 -9z" />
    <glyph glyph-name="bar" unicode="|" horiz-adv-x="390" 
d="M232 14h-59l139 556h59z" />
    <glyph glyph-name="braceright" unicode="}" horiz-adv-x="242" 
d="M301 240l-29 -4q-25 -4 -39 -21.5t-23 -53.5l-35 -138q-13 -55 -47 -79t-102 -24h-9q-7 0 -17 1l3 14q23 3 39 9t27 16t18 25t11 35l33 130q11 44 33 66t67 31q-41 9 -52 31t1 68l32 128q5 20 5.5 35t-5 25.5t-18.5 16.5t-35 8l4 15h26q68 0 90 -24t8 -79l-34 -137
q-10 -39 -2.5 -56.5t27.5 -19.5l27 -4z" />
    <glyph glyph-name="asciitilde" unicode="~" horiz-adv-x="390" 
d="M435 234q-61 -88 -122 -88q-25 -1 -55 16l-50 26q-10 6 -18 8t-14 3q-30 0 -84 -67l-27 42q67 93 127 93q12 -1 25.5 -4.5t29.5 -11.5l50 -26q20 -11 32 -11q29 0 79 62z" />
    <glyph glyph-name="multiply" unicode="&#xd7;" horiz-adv-x="426" 
d="M411 155l-61 -49l-80 106l-132 -106l-38 49l133 106l-79 105l61 50l80 -106l132 106l37 -49l-132 -106z" />
    <glyph glyph-name="divide" unicode="&#xf7;" horiz-adv-x="444" 
d="M399 386l-98 -78l-59 79l97 78zM455 230h-346l14 56h346zM333 122l-98 -78l-59 79l98 78z" />
    <glyph glyph-name="uni0901" unicode="&#x901;" 
d="M136 745l-79 -64l-47 64l79 64zM234 686q-81 -103 -177 -103q-25 0 -48.5 9.5t-44.5 27t-36.5 41.5t-22.5 53l37 24q32 -91 109 -91q30 0 69 24t66 61z" />
    <glyph glyph-name="uni0902" unicode="&#x902;" 
d="M137 660l-94 -75l-56 76l93 75z" />
    <glyph glyph-name="uni0903" unicode="&#x903;" horiz-adv-x="278" 
d="M303 326l-94 -75l-57 76l94 75zM228 74l-83 -75l-68 76l94 75z" />
    <glyph glyph-name="glyph47" unicode="&#x904;" horiz-adv-x="642" 
d="M806 444h-104l-112 -451l-80 63l41 143q-18 -5 -37 -5q-5 0 -15.5 3.5t-23 8.5t-23.5 10.5t-16 9.5l-3 -2q4 -28 -3 -56q-6 -25 -22.5 -47.5t-41 -39.5t-54.5 -27t-63 -10q-31 0 -59 14.5t-51.5 41t-41.5 62.5t-28 80l41 22q33 -140 122 -140q22 0 44 6.5t38.5 17.5
t29 26t16.5 32q10 40 -2 72q-27 -14 -57.5 -25t-64.5 -18q-40 58 -36 76q2 9 28 13q147 21 166 98q5 20 -5.5 28t-35.5 8q-43 0 -154 -41l-25 88q97 35 142 35q31 0 60 -16.5t50.5 -41t31.5 -54t3 -56.5q-10 -41 -61 -71q27 -37 68 -37q16 0 34.5 5t35 13t28 18t13.5 20
l31 124h-66l-27 84h138l-8 43q-8 36 -79 36q-6 0 -18 -0.5t-26 -1t-26 -1t-18 -0.5q-35 0 -57.5 8t-36 25.5t-19 45t-7.5 66.5l34 18q-3 -42 17.5 -61.5t66.5 -19.5q17 0 42 2t42 2q32 0 53 -6t34.5 -19.5t20.5 -35t11 -51.5l5 -50h91z" />
    <glyph glyph-name="glyph2" unicode="&#x905;" horiz-adv-x="642" 
d="M802 444h-100l-112 -451l-80 63l41 143q-18 -5 -37 -5q-5 0 -15.5 3.5t-23 8.5t-23.5 10.5t-16 9.5l-3 -2q4 -28 -3 -56q-6 -25 -22.5 -47.5t-41 -39.5t-54.5 -27t-63 -10q-31 0 -59 14.5t-51.5 41t-41.5 62.5t-28 80l41 22q33 -140 122 -140q22 0 44 6.5t38.5 17.5
t29 26t16.5 32q10 40 -2 72q-27 -14 -57.5 -25t-64.5 -18q-40 58 -36 76q2 9 28 13q147 21 166 98q5 20 -5.5 28t-35.5 8q-43 0 -154 -41l-25 88q97 35 142 35q31 0 60 -16.5t50.5 -41t31.5 -54t3 -56.5q-10 -41 -61 -71q27 -37 68 -37q16 0 34.5 5t35 13t28 18t13.5 20
l31 124h-66l-27 84h256z" />
    <glyph glyph-name="glyph3" unicode="&#x906;" horiz-adv-x="875" 
d="M1034 444h-121l-112 -451l-81 63l97 388h-115l-112 -451l-80 63l41 143q-18 -5 -37 -5q-5 0 -15.5 3.5t-23 8.5t-23.5 10.5t-16 9.5l-3 -2q4 -28 -3 -56q-6 -25 -22.5 -47.5t-41 -39.5t-54.5 -27t-63 -10q-31 0 -59 14.5t-51.5 41t-41.5 62.5t-28 80l41 22
q33 -140 122 -140q22 0 44 6.5t38.5 17.5t29 26t16.5 32q10 40 -2 72q-27 -14 -57.5 -25t-64.5 -18q-40 58 -36 76q2 9 28 13q147 21 166 98q5 20 -5.5 28t-35.5 8q-43 0 -154 -41l-25 88q97 35 142 35q31 0 60 -16.5t50.5 -41t31.5 -54t3 -56.5q-10 -41 -61 -71
q27 -37 68 -37q16 0 34.5 5t35 13t28 18t13.5 20l31 124h-66l-27 84h488z" />
    <glyph glyph-name="glyph4" unicode="&#x907;" horiz-adv-x="390" 
d="M549 444h-106l-28 -113q-6 -24 -23 -24h-164q-18 0 -34 -14.5t-21 -34.5q-7 -29 12 -29q-2 0 18.5 4t46 9.5t47.5 9.5t23 4q30 0 45 -20t22 -45.5t6.5 -49.5t-2.5 -31q-5 -18 -26.5 -40t-51 -41.5t-64 -33.5t-65.5 -17l54 -148l-47 -25q-11 37 -24 77.5t-27 85.5
q-2 4 -12.5 7t-23.5 7.5t-25 11.5t-18 19q-18 35 -10 65q10 40 57 40q25 0 44 -63q28 1 58 11t56 25t44.5 32.5t21.5 32.5q4 16 -13 16q-1 0 -16 -4t-34 -9.5t-38 -9.5t-26 -4q-20 0 -37.5 16t-30 40t-17.5 52t0 51q10 38 32.5 60.5t50.5 22.5h140l14 57h-252l-29 84h444z
" />
    <glyph glyph-name="glyph51" unicode="&#x908;" horiz-adv-x="390" 
d="M549 444h-106l-28 -113q-6 -24 -23 -24h-164q-18 0 -34 -14.5t-21 -34.5q-7 -29 12 -29q-2 0 18.5 4t46 9.5t47.5 9.5t23 4q30 0 45 -20t22 -45.5t6.5 -49.5t-2.5 -31q-5 -18 -26.5 -40t-51 -41.5t-64 -33.5t-65.5 -17l54 -148l-47 -25q-11 37 -24 77.5t-27 85.5
q-2 4 -12.5 7t-23.5 7.5t-25 11.5t-18 19q-18 35 -10 65q10 40 57 40q25 0 44 -63q28 1 58 11t56 25t44.5 32.5t21.5 32.5q4 16 -13 16q-1 0 -16 -4t-34 -9.5t-38 -9.5t-26 -4q-20 0 -37.5 16t-30 40t-17.5 52t0 51q10 38 32.5 60.5t50.5 22.5h140l14 57h-252l-29 84h311
q-40 98 -29 143q11 43 46 70.5t75 27.5q82 0 64 -136l-33 -10q0 62 -39 62q-19 0 -33 -15t-19 -35q-9 -36 11 -107h90z" />
    <glyph glyph-name="glyph7" unicode="&#x909;" horiz-adv-x="448" 
d="M610 444h-167q41 -70 32 -104q-10 -40 -75 -67q23 -17 37.5 -31.5t21.5 -29t7.5 -30t-3.5 -33.5q-7 -26 -24 -48.5t-40 -39t-50.5 -26t-55.5 -9.5q-69 0 -115 44.5t-78 149.5l42 25q13 -41 26.5 -68t29 -43t34.5 -22t43 -6q19 0 37.5 6.5t33.5 18t25.5 25.5t14.5 29
q10 41 -40 70q-50 -19 -90 -19q-20 0 -29 11.5t-19 34.5q-10 22 -7 31q6 24 26 24l74 -7q40 7 71 24.5t36 35.5q4 18 -25 54h-274l-29 84h501z" />
    <glyph glyph-name="glyph8" unicode="&#x90a;" horiz-adv-x="620" 
d="M781 444h-338q41 -70 32 -104q-10 -40 -75 -67l27 -21q15 12 34 23.5t37.5 20.5t34 14.5t25.5 5.5q22 0 41 -15.5t31 -39t16.5 -52t-2.5 -53.5q-3 -12 -12.5 -31.5t-22.5 -41t-27 -42t-26 -35.5l-67 62q13 13 27.5 32.5t28.5 40t24 38.5t12 27q10 40 -11 40
q-4 0 -18.5 -7t-31.5 -17t-32 -20t-20 -17q1 -9 -5 -36q-7 -26 -24 -48.5t-40 -39t-50.5 -26t-55.5 -9.5q-69 0 -115 44.5t-78 149.5l42 25q13 -41 26.5 -68t29 -43t34.5 -22t43 -6q19 0 37.5 6.5t33.5 18t25.5 25.5t14.5 29q10 41 -40 70q-50 -19 -90 -19q-18 0 -29 11
t-17 25t-8 26.5t-1 14.5q6 24 27 24q8 0 26.5 -1.5t46.5 -5.5q40 7 71 24.5t36 35.5q4 18 -25 54h-273l-29 84h671z" />
    <glyph glyph-name="glyph28" unicode="&#x90b;" horiz-adv-x="718" 
d="M878 444h-357l-39 -159q10 -4 41 -4q9 0 22 4t25.5 9.5t22.5 11.5q8 5 10 10q-1 0 -1 7q-1 8 -2 18l-1 20q-1 9 -1 11q3 10 15 18.5t23 8.5q-1 0 18 -6t42 -16t40.5 -24t13.5 -29q-2 -8 -16.5 -21t-28.5 -18l15 -61q11 -41 7 -59q-5 -17 -86 -47q-27 -10 -43 -17.5
t-26 -14.5t-14.5 -14.5t-6.5 -17.5q-4 -14 6.5 -25t27.5 -11q12 0 31 4.5t39.5 12t39.5 16.5t32 19l22 -82q-11 -8 -27 -15t-34 -12.5t-34 -9t-28 -3.5q-29 0 -55 13t-45 34t-27.5 46.5t-2.5 50.5q5 19 14 33t25.5 26t41.5 23.5t61 25.5l-7 46q-41 -21 -81 -21q-39 0 -78 23
l-63 -255l-79 63l31 124l-212 -130l-53 62l257 149q-27 38 -86 38q-39 0 -100 -30l-35 78q73 36 126 36q61 0 132 -95l39 156h-319l-29 84h768z" />
    <glyph glyph-name="glyph30" unicode="&#x90c;" horiz-adv-x="604" 
d="M764 444h-194l-18 -75q22 -6 40 -21t29 -35t14.5 -42.5t-1.5 -43.5q-3 -11 -11.5 -23.5t-29 -32.5t-56 -49.5t-90.5 -74.5q-22 -18 -26 -32q-7 -29 28 -29q48 0 127 76l63 -52q-88 -80 -168 -80q-22 0 -45 12t-41.5 29.5t-29 38t-6.5 37.5q9 36 50 68q157 120 167 160
q10 41 -29 41q-53 0 -186 -156l-69 46q8 11 21 27.5t32 39.5q-12 32 -53 32q-35 0 -64.5 -28t-40.5 -70q-4 -17 0 -41.5t13 -50t22 -48.5t28 -37l-41 -30q-25 30 -44.5 64.5t-31.5 68t-16.5 64t1.5 52.5q7 29 23.5 54.5t38 44.5t46.5 30t50 11q58 0 100 -81q57 50 94 62
l18 74h-368l-29 84h654z" />
    <glyph glyph-name="glyph9" unicode="&#x90d;" horiz-adv-x="474" 
d="M634 444h-131l-63 -255q-10 -37 -24 -50.5t-39 -13.5q-34 0 -76 18l-22 66q14 -4 24 -4h15q34 0 46 49l47 190h-139l-66 -264q-11 -45 60 -96l191 -136q37 -27 27 -65q-1 -7 -7.5 -17.5t-14.5 -21.5t-17.5 -21t-18.5 -17l-68 60q22 22 26 40q3 11 -1 22t-15 19l-234 164
q-31 25 -22 59l68 274h-72l-29 84h526zM618 696q-87 -113 -183 -113q-103 0 -136 128l38 27q26 -85 92 -85q31 0 70.5 25.5t69.5 68.5z" />
    <glyph glyph-name="glyph10" unicode="&#x90e;" horiz-adv-x="474" 
d="M634 444h-131l-63 -255q-10 -37 -24 -50.5t-39 -13.5q-34 0 -76 18l-22 66q14 -4 24 -4h15q34 0 46 49l47 190h-139l-66 -264q-11 -45 60 -96l191 -136q37 -27 27 -65q-1 -7 -7.5 -17.5t-14.5 -21.5t-17.5 -21t-18.5 -17l-68 60q22 22 26 40q3 11 -1 22t-15 19l-234 164
q-31 25 -22 59l68 274h-72l-29 84h386q-4 19 -7 34t-11 25t-23.5 15t-45.5 5q-6 0 -18 -0.5t-26 -1t-26 -1t-18 -0.5q-35 0 -57.5 8t-36 25.5t-19 45t-7.5 66.5l34 18q-3 -42 17.5 -61.5t66.5 -19.5q17 0 42 2t42 2q36 0 57.5 -5t34.5 -22t19.5 -49t12.5 -86h109z" />
    <glyph glyph-name="glyph11" unicode="&#x90f;" horiz-adv-x="474" 
d="M634 444h-131l-63 -255q-10 -37 -24 -50.5t-39 -13.5q-34 0 -76 18l-22 66q14 -4 24 -4h15q34 0 46 49l47 190h-139l-66 -264q-11 -45 60 -96l191 -136q37 -27 27 -65q-1 -7 -7.5 -17.5t-14.5 -21.5t-17.5 -21t-18.5 -17l-68 60q22 22 26 40q3 11 -1 22t-15 19l-234 164
q-31 25 -22 59l68 274h-72l-29 84h526z" />
    <glyph glyph-name="glyph12" unicode="&#x910;" horiz-adv-x="474" 
d="M634 444h-131l-63 -255q-10 -37 -24 -50.5t-39 -13.5q-34 0 -76 18l-22 66q14 -4 24 -4h15q34 0 46 49l47 190h-139l-66 -264q-11 -45 60 -96l191 -136q37 -27 27 -65q-1 -7 -7.5 -17.5t-14.5 -21.5t-17.5 -21t-18.5 -17l-68 60q22 22 26 40q3 11 -1 22t-15 19l-234 164
q-31 25 -22 59l68 274h-72l-29 84h395q-25 60 -47 97t-56 37q-31 0 -61 -10q-24 76 -21 89q5 21 59 21q43 0 75 -37q16 -19 38 -67.5t50 -129.5h94z" />
    <glyph glyph-name="glyph17" unicode="&#x911;" horiz-adv-x="872" 
d="M971 696q-87 -113 -183 -113q-103 0 -136 128l38 27q26 -85 92 -85q31 0 70.5 25.5t69.5 68.5zM1034 444h-121l-112 -451l-81 63l97 388h-115l-112 -451l-80 63l41 143q-18 -5 -37 -5q-5 0 -15.5 3.5t-23 8.5t-23.5 10.5t-16 9.5l-3 -2q4 -28 -3 -56q-6 -25 -22.5 -47.5
t-41 -39.5t-54.5 -27t-63 -10q-31 0 -59 14.5t-51.5 41t-41.5 62.5t-28 80l41 22q33 -140 122 -140q22 0 44 6.5t38.5 17.5t29 26t16.5 32q10 40 -2 72q-27 -14 -57.5 -25t-64.5 -18q-40 58 -36 76q2 9 28 13q147 21 166 98q5 20 -5.5 28t-35.5 8q-43 0 -154 -41l-25 88
q97 35 142 35q31 0 60 -16.5t50.5 -41t31.5 -54t3 -56.5q-10 -41 -61 -71q27 -37 68 -37q16 0 34.5 5t35 13t28 18t13.5 20l31 124h-66l-27 84h488z" />
    <glyph glyph-name="glyph18" unicode="&#x912;" horiz-adv-x="872" 
d="M1034 444h-121l-112 -451l-81 63l97 388h-115l-112 -451l-80 63l41 143q-18 -5 -37 -5q-5 0 -15.5 3.5t-23 8.5t-23.5 10.5t-16 9.5l-3 -2q4 -28 -3 -56q-6 -25 -22.5 -47.5t-41 -39.5t-54.5 -27t-63 -10q-31 0 -59 14.5t-51.5 41t-41.5 62.5t-28 80l41 22
q33 -140 122 -140q22 0 44 6.5t38.5 17.5t29 26t16.5 32q10 40 -2 72q-27 -14 -57.5 -25t-64.5 -18q-40 58 -36 76q2 9 28 13q147 21 166 98q5 20 -5.5 28t-35.5 8q-43 0 -154 -41l-25 88q97 35 142 35q31 0 60 -16.5t50.5 -41t31.5 -54t3 -56.5q-10 -41 -61 -71
q27 -37 68 -37q16 0 34.5 5t35 13t28 18t13.5 20l31 124h-66l-27 84h358q-4 19 -7 34t-11 25t-23.5 15t-45.5 5q-6 0 -18 -0.5t-26 -1t-26 -1t-18 -0.5q-35 0 -57.5 8t-36 25.5t-19 45t-7.5 66.5l34 18q-3 -42 17.5 -61.5t66.5 -19.5q17 0 42 2t42 2q36 0 57.5 -5t34.5 -22
t19.5 -49t12.5 -86h99z" />
    <glyph glyph-name="glyph19" unicode="&#x913;" horiz-adv-x="868" 
d="M1027 444h-121l-112 -451l-81 63l97 388h-108l-112 -451l-80 63l41 143q-18 -5 -37 -5q-5 0 -15.5 3.5t-23 8.5t-23.5 10.5t-16 9.5l-3 -2q4 -28 -3 -56q-6 -25 -22.5 -47.5t-41 -39.5t-54.5 -27t-63 -10q-31 0 -59 14.5t-51.5 41t-41.5 62.5t-28 80l41 22
q33 -140 122 -140q22 0 44 6.5t38.5 17.5t29 26t16.5 32q10 40 -2 72q-27 -14 -57.5 -25t-64.5 -18q-40 58 -36 76q2 9 28 13q147 21 166 98q5 20 -5.5 28t-35.5 8q-43 0 -154 -41l-25 88q97 35 142 35q31 0 60 -16.5t50.5 -41t31.5 -54t3 -56.5q-10 -41 -61 -71
q27 -37 68 -37q16 0 34.5 5t35 13t28 18t13.5 20l31 124h-66l-27 84h323q-10 17 -23 33l-24 34q-9 11 -18 23t-19 21.5t-20.5 16t-24.5 6.5q-31 0 -61 -10q-24 76 -21 89q5 21 59 21q27 0 52.5 -17.5t49 -49t46 -74t44.5 -93.5h118z" />
    <glyph glyph-name="glyph20" unicode="&#x914;" horiz-adv-x="870" 
d="M1029 444h-121l-112 -451l-81 63l97 388h-110l-112 -451l-80 63l41 143q-18 -5 -37 -5q-5 0 -15.5 3.5t-23 8.5t-23.5 10.5t-16 9.5l-3 -2q4 -28 -3 -56q-6 -25 -22.5 -47.5t-41 -39.5t-54.5 -27t-63 -10q-31 0 -59 14.5t-51.5 41t-41.5 62.5t-28 80l41 22
q33 -140 122 -140q22 0 44 6.5t38.5 17.5t29 26t16.5 32q10 40 -2 72q-27 -14 -57.5 -25t-64.5 -18q-40 58 -36 76q2 9 28 13q147 21 166 98q5 20 -5.5 28t-35.5 8q-43 0 -154 -41l-25 88q97 35 142 35q31 0 60 -16.5t50.5 -41t31.5 -54t3 -56.5q-10 -41 -61 -71
q27 -37 68 -37q16 0 34.5 5t35 13t28 18t13.5 20l31 124h-66l-27 84h285q-55 53 -98 53q-28 0 -47 -6q-12 75 -7 95q4 19 29 19q21 0 46.5 -19t48.5 -45t41 -53.5t26 -43.5h30q-1 7 -3.5 28t-6.5 44t-10.5 43t-16.5 25q-2 3 -51 8q2 37 3 54.5t1 16.5q3 12 6.5 14.5
t15.5 2.5q23 0 37.5 -2.5t23 -9t14 -18t9.5 -29.5q10 -38 13 -177h94z" />
    <glyph glyph-name="glyph32" unicode="&#x915;" horiz-adv-x="672" 
d="M832 444h-298l-37 -149q9 6 23 13t29.5 13.5t30.5 10.5t24 4q25 0 46 -13.5t34 -37t16.5 -54t-5.5 -63.5q-3 -15 -13 -36.5t-23 -44t-28 -43.5t-29 -36l-68 62q16 19 34 43t33 47t26 41.5t14 27.5q3 12 -4.5 21.5t-18.5 9.5q-8 0 -29 -9t-44.5 -21t-45 -25t-30.5 -21
l-50 -203l-82 63l29 88q-63 -46 -117 -46q-31 0 -59.5 14.5t-49 37.5t-30.5 51.5t-3 57.5q7 28 24 53t41 43.5t54 29.5t63 11q25 0 43.5 -4.5t31 -16t21.5 -30t16 -46.5h2l39 157h-334l-29 84h724zM391 236q-13 29 -40.5 46.5t-52.5 17.5q-17 0 -35.5 -8t-34.5 -21.5
t-28.5 -30.5t-16.5 -35q-6 -24 1.5 -39.5t22.5 -15.5q7 0 32 10t54.5 23.5t57 28.5t40.5 24z" />
    <glyph glyph-name="glyph33" unicode="&#x916;" horiz-adv-x="724" 
d="M886 444h-100l-112 -451l-84 63q-133 -69 -224 -69q-124 0 -240 222q-20 35 -15 53q1 6 6 12.5t11.5 12.5t12.5 10t11 4q3 0 10 -3t15 -6.5t15.5 -6.5t9.5 -3q11 0 15 18l36 144h-144l-29 84h777zM656 278q-38 50 -108 50q-18 0 -36 -7t-33.5 -18.5t-26.5 -26t-15 -29.5
q-9 -38 27 -38q9 0 36.5 8t58.5 19.5t59 23t38 18.5zM635 193q-14 -8 -36 -16.5t-44.5 -15.5t-42.5 -11.5t-31 -4.5q-27 0 -49.5 11t-37 30.5t-20 44.5t2.5 54q6 24 22.5 45.5t40 38t50.5 26t54 9.5q19 0 32 -2t24.5 -7t21.5 -15t22 -26l19 -26h2l29 116h-349l-40 -160
q-4 -18 -11 -32t-19 -27t-29 -25t-41 -26q56 -107 174 -107q18 0 49.5 7t66 18.5t69 25.5t59.5 29z" />
    <glyph glyph-name="glyph34" unicode="&#x917;" horiz-adv-x="488" 
d="M648 444h-100l-112 -451l-81 63l97 388h-123l-62 -250q-12 -46 -44 -46q-9 0 -28 15.5t-38 36.5t-32 43t-10 35q2 7 13.5 15.5t20.5 8.5h53l35 142h-128l-29 84h539z" />
    <glyph glyph-name="glyph35" unicode="&#x918;" horiz-adv-x="546" 
d="M708 444h-121l-112 -451l-81 63l28 104q-98 -76 -168 -76q-29 0 -54.5 16t-42.5 41t-24.5 54t-0.5 55q14 56 90 83v2q-85 30 -68 102l2 7h-47l-29 84h599zM498 444h-228q-16 -9 -25 -44q-9 -37 26 -56q17 3 30.5 5t24.5 2q4 0 9.5 -10t10 -22.5t7.5 -24.5t2 -15
q-3 -12 -20 -12q-135 0 -152 -68q-3 -14 12 -24.5t47 -10.5q76 0 210 94z" />
    <glyph glyph-name="glyph36" unicode="&#x919;" horiz-adv-x="625" 
d="M813 444h-303l-28 -112q-6 -24 -23 -24h-127q-58 0 -70 -51q-7 -27 20 -28l22 3q23 4 51 8.5t50 7.5l23 4q12 0 21 -2t16 -8t14 -17.5t14 -30.5q21 -56 15 -81q-6 -23 -22.5 -44.5t-39 -38.5t-49.5 -27t-54 -10q-38 0 -70.5 8.5t-62.5 28.5t-60 52t-64 80l41 28
q77 -117 189 -117q24 0 48 7t44.5 18.5t35 26t18.5 28.5q3 15 -20 15q-4 0 -23.5 -3.5t-43 -8t-44 -8t-26.5 -3.5q-21 0 -42.5 17.5t-37.5 43t-24 54t-2 51.5q19 77 108 77h103l14 56h-315l-29 84h704zM676 271l-94 -75l-57 76l94 75z" />
    <glyph glyph-name="glyph37" unicode="&#x91a;" horiz-adv-x="596" 
d="M757 444h-100l-112 -451l-80 63l30 97q-108 -79 -175 -79q-29 0 -55 13.5t-44 35t-26 47.5t-2 50q9 36 32 61h-59l-29 84h336l29 -84h-77q-26 0 -45.5 -2.5t-34.5 -8.5t-28 -16t-26 -25q-26 -28 -33 -55q-8 -30 27 -30q88 0 237 125l43 175h-456l-29 84h648z" />
    <glyph glyph-name="glyph38" unicode="&#x91b;" horiz-adv-x="566" 
d="M726 444h-147l-14 -57q12 -11 22.5 -28t17.5 -36t9.5 -38.5t-1.5 -34.5q-13 -50 -48.5 -96.5t-83 -82t-101 -57t-102.5 -21.5q-32 0 -62.5 14t-53.5 35.5t-34.5 47.5t-4.5 51q9 38 48 64q-10 9 -19.5 23.5t-16.5 30t-10 31t0 27.5q9 36 45.5 61.5t85.5 25.5q11 0 21 -1.5
t21 -3.5l22 -81q-20 6 -58 6q-26 0 -46 -13.5t-26 -34.5q-6 -24 23 -45q9 5 32.5 10.5t44.5 5.5q12 0 15 -1l17 -88q-119 0 -134 -58q-9 -37 52 -37q23 0 52 7t57.5 18.5t54.5 26.5t44 32q-109 66 -90 145q10 39 42 69t81 36l12 47h-385l-29 84h618zM542 286q14 55 -18 55
q-25 0 -49 -22.5t-31 -51.5q-12 -48 32 -91q8 7 18.5 21t20 30t17 32t10.5 27z" />
    <glyph glyph-name="glyph39" unicode="&#x91c;" horiz-adv-x="590" 
d="M750 444h-100l-112 -451l-80 63l57 228h-137q51 -84 41 -127q-9 -33 -41 -55.5t-74 -22.5q-140 0 -179 244l40 19q37 -169 113 -169q24 0 42 12t22 29q10 40 -53 132l14 22h236l19 76h-449l-29 84h641z" />
    <glyph glyph-name="glyph40" unicode="&#x91d;" horiz-adv-x="628" 
d="M792 444h-121l-112 -451l-81 63l39 141q-33 -15 -60 -15q-24 0 -81 25h-2q30 -47 18 -97q-5 -18 -26.5 -40t-51 -41.5t-64 -33.5t-65.5 -17l46 -122l-48 -25q-7 28 -17 60t-21 67q-4 8 -16.5 11.5t-26.5 7t-26 10t-16 21.5q-7 37 0 68q4 13 16 23t25 10q46 0 52 -54
q28 1 58 11t56 25t44.5 32.5t21.5 32.5q4 16 -13 16q-1 0 -16 -4t-34 -9.5t-38 -9.5t-26 -4q-20 0 -37.5 16t-30 40t-17.5 52t0 51q10 38 32.5 60.5t50.5 22.5h140l14 57h-248l-29 84h682zM582 444h-138l-28 -113q-6 -24 -23 -24h-164q-18 0 -34 -14.5t-21 -34.5
q-7 -29 12 -29q-2 0 18.5 4t46 9.5t47.5 9.5t23 4q12 0 18.5 -2.5t11 -5t8.5 -5t11 -2.5q19 0 41.5 4.5t46.5 13t47 20.5t43 27z" />
    <glyph glyph-name="glyph41" unicode="&#x91e;" horiz-adv-x="630" 
d="M791 444h-121l-112 -451l-81 63l37 138q-18 -2 -31 -3t-24 -1q-4 0 -7 0.5t-6 0.5q-22 -49 -66 -78t-95 -29q-111 0 -178 162l38 24q27 -58 54 -82t67 -24q22 0 44 8.5t40 22.5t31 32t17 37q6 22 -1.5 36t-20.5 14q-34 0 -98 -61l-46 83q59 42 103 42q24 0 44.5 -9
t36.5 -24t26.5 -35.5t14.5 -44.5q14 1 34 5t47 12l43 162h-472l-29 84h682z" />
    <glyph glyph-name="glyph42" unicode="&#x91f;" horiz-adv-x="480" 
d="M642 444h-179l-30 -122q-3 -11 -6 -18t-14.5 -12.5t-34.5 -11.5t-64 -15q-42 -9 -68.5 -17.5t-43 -19.5t-25.5 -25.5t-14 -35.5q-16 -64 66 -64q76 0 209 82l23 -88q-20 -13 -44 -24.5t-49 -20.5t-48 -14t-39 -5q-47 0 -85 15.5t-61.5 42.5t-33 62t0.5 74q24 96 165 120
q49 8 67.5 15.5t22.5 23.5l14 58h-261l-29 84h532z" />
    <glyph glyph-name="glyph43" unicode="&#x920;" horiz-adv-x="484" 
d="M645 444h-170q0 -46 -4 -60q-8 -32 -36 -69q80 -74 62 -145q-9 -34 -29 -62t-48.5 -48.5t-64.5 -32t-76 -11.5q-44 0 -80.5 19t-61 49.5t-34.5 69t0 76.5q33 132 219 132q52 0 63 45q0 2 1.5 11.5t3.5 25.5h-284l-29 84h539zM419 202q21 84 -60 84q-91 0 -134.5 -24
t-57.5 -81q-12 -45 9.5 -70t66.5 -25q29 0 58 9.5t53.5 25.5t41.5 37t23 44z" />
    <glyph glyph-name="glyph44" unicode="&#x921;" horiz-adv-x="526" 
d="M688 444h-136l-28 -112q-6 -24 -23 -24h-168q-58 0 -70 -51q-7 -27 20 -28l11 2q12 2 29 4.5t37 5.5t38 5.5t29.5 4t12.5 1.5q12 0 21 -2t16 -8t14 -17.5t14 -30.5q21 -56 15 -81q-6 -23 -22.5 -44.5t-39 -38.5t-49.5 -27t-54 -10q-43 0 -77.5 8.5t-65.5 28t-61 52
t-64 80.5l41 28q77 -117 186 -117q24 0 48 7t44.5 18.5t35 26t18.5 28.5q3 15 -20 15q-4 0 -23 -3.5t-42.5 -8t-44 -8t-26.5 -3.5q-21 0 -42 17.5t-36.5 43t-23.5 54t-2 51.5q19 77 108 77h144l14 56h-357l-29 84h579z" />
    <glyph glyph-name="ch173" unicode="&#x922;" horiz-adv-x="482" 
d="M642 444h-129l-29 -118q-6 -24 -23 -24h-163q-22 0 -43 -9t-38 -23.5t-29.5 -34t-17.5 -40.5q-10 -40 4 -64t61 -40q2 26 4 46.5t6 35.5q4 19 16 36.5t30 30.5t39.5 21t45.5 8q50 0 71.5 -20.5t28.5 -72.5q6 -39 1 -59q-6 -21 -22 -41t-38.5 -35.5t-50.5 -25t-57 -9.5
q-51 0 -92.5 22t-69 57.5t-38.5 80.5t1 91q6 27 23 50t40 39.5t52 26t61 9.5h126l15 62h-318l-29 84h533zM433 167q7 26 -46 26q-15 0 -32 -7.5t-32 -20.5t-26 -30t-16 -36q-2 -10 -0.5 -12t11.5 -2q22 0 45.5 7.5t43.5 19.5t34.5 26.5t17.5 28.5z" />
    <glyph glyph-name="ch174" unicode="&#x923;" horiz-adv-x="666" 
d="M826 444h-121l-112 -451l-81 63l97 388h-127l-63 -252q-4 -18 -17.5 -35.5t-32 -31t-41 -21.5t-45.5 -8q-26 0 -54 16.5t-51.5 42t-36 54.5t-6.5 55l45 180h-71l-29 84h717zM390 444h-118l-55 -222q-12 -46 36 -46q29 0 55 20.5t34 55.5z" />
    <glyph glyph-name="ch175" unicode="&#x924;" horiz-adv-x="458" 
d="M618 444h-100l-112 -451l-80 63l57 225h-96q-85 0 -107 -88q-17 -66 42 -165l-43 -28q-28 59 -44 98t-23.5 67.5t-7 50t5.5 44.5q12 45 56.5 75t108.5 30h132l19 79h-317l-29 84h509z" />
    <glyph glyph-name="glyph48" unicode="&#x925;" horiz-adv-x="554" 
d="M714 444h-101l-112 -451l-80 63l25 77q-104 -71 -166 -71q-48 0 -89 32t-75 89q-7 14 -12.5 21.5t-4.5 11.5q1 3 13.5 7.5t32.5 12t43.5 17.5t45.5 23q-100 69 -84 134q6 25 21 46.5t35.5 37.5t45 25t50.5 9q28 0 53.5 -17t42.5 -42.5t24 -56.5t1 -59q-24 -96 -203 -172
q-3 -5 -4.5 -9t-1.5 -7q-9 -33 34 -33q19 0 48 10.5t60.5 27.5t62.5 38.5t54 43.5l48 192h-61l-29 84h254zM359 402q12 50 -40 50q-29 0 -53 -21t-32 -50q-11 -45 43 -80q66 37 82 101z" />
    <glyph glyph-name="glyph49" unicode="&#x926;" horiz-adv-x="464" 
d="M628 444h-129l-34 -138q-6 -24 -23 -24h-170q-36 0 -64 -23.5t-38 -65.5q-12 -45 5 -70t49 -25q11 0 23 3t23.5 7.5t18.5 10t9 11.5q1 6 -2.5 20.5t-0.5 28.5q2 9 15.5 17.5t27.5 8.5q12 0 27.5 -10.5t29.5 -25t23 -31t6 -28.5q-7 -27 -64 -57l45 -134l-51 -23l-37 140
q-13 -8 -53 -8q-45 0 -79.5 17t-55.5 47.5t-26.5 72t6.5 90.5q27 107 151 107h133l20 82h-309l-29 84h524z" />
    <glyph glyph-name="glyph50" unicode="&#x927;" horiz-adv-x="536" 
d="M696 444h-100l-112 -451l-80 63l27 86q-100 -69 -180 -69q-30 0 -58 13.5t-47 35t-28 48t-2 52.5q17 67 112 90l1 2q-20 6 -36.5 17.5t-27 26.5t-14.5 32.5t1 35.5q10 43 49.5 72.5t90.5 29.5q22 0 40 -7.5t30 -21t16 -31t-1 -38.5q-9 -34 -44.5 -57t-77.5 -23
q-3 0 -5.5 0.5t-5.5 0.5q-3 -11 3.5 -14.5t19.5 -4.5t32.5 -1.5t44.5 -5.5l26 -83q-35 3 -46 3q-66 0 -106 -16.5t-46 -42.5q-9 -37 72 -37q18 0 43.5 8t54 21.5t58 31t55.5 36.5l49 198h-33l-29 84h225zM332 428q5 19 -6 31.5t-31 12.5q-22 0 -41 -16.5t-25 -39.5
q-6 -24 3.5 -30.5t30.5 -6.5q25 0 44.5 14t24.5 35z" />
    <glyph glyph-name="ch179" unicode="&#x928;" horiz-adv-x="456" 
d="M616 444h-100l-112 -451l-80 63l53 210h-115q-18 0 -23 -19l-9 -36q-6 -23 -37 -23q-10 0 -23 16t-24 38t-17 44.5t-3 36.5q2 9 12.5 18t20.5 9h242l23 94h-317l-29 84h509z" />
    <glyph glyph-name="glyph146" unicode="&#x929;" horiz-adv-x="456" 
d="M616 444h-100l-112 -451l-80 63l53 210h-115q-18 0 -23 -19l-9 -36q-6 -23 -37 -23q-10 0 -23 16t-24 38t-17 44.5t-3 36.5q2 9 12.5 18t20.5 9h242l23 94h-317l-29 84h509zM208 71l-93 -75l-58 76l94 75z" />
    <glyph glyph-name="glyph52" unicode="&#x92a;" horiz-adv-x="458" 
d="M628 444h-110l-112 -451l-80 63l33 109q-47 -40 -100 -40q-23 0 -47.5 13t-43.5 33.5t-29 44.5t-4 47l45 181h-71l-29 84h519zM426 444h-154l-54 -217q-8 -32 21 -32q10 0 27 6t37.5 17t41 25.5t39.5 32.5z" />
    <glyph glyph-name="glyph53" unicode="&#x92b;" horiz-adv-x="664" 
d="M825 444h-307l-32 -129q9 6 23 13t29.5 13.5t30.5 10.5t24 4q25 0 46 -13.5t34 -37t16.5 -54t-5.5 -63.5q-23 -92 -93 -160l-68 62q88 85 107 159q3 12 -4.5 21.5t-18.5 9.5q-8 0 -29 -9t-44.5 -21t-45 -25t-30.5 -21l-52 -211l-80 63l33 109q-47 -40 -100 -40
q-23 0 -47.5 13t-43.5 33.5t-29 44.5t-4 47l45 181h-67l-29 84h712zM426 444h-154l-54 -217q-8 -32 21 -32q10 0 27 6t37.5 17t41 25.5t39.5 32.5z" />
    <glyph glyph-name="glyph54" unicode="&#x92c;" horiz-adv-x="520" 
d="M680 444h-100l-112 -451l-80 63l26 84q-83 -51 -162 -51q-39 0 -69 15t-48.5 39.5t-24.5 57t3 68.5q6 27 24 51t44 42t58.5 28.5t69.5 10.5q29 0 51 -4.5t39 -14t29.5 -26t22.5 -40.5h5l32 128h-374l-29 84h566zM415 272q6 24 -11.5 41.5t-50.5 17.5q-35 0 -58 -10
l44 -133q63 31 76 84zM248 301q-27 -11 -50 -36.5t-29 -48.5q-15 -63 60 -63q32 0 64 13z" />
    <glyph glyph-name="glyph55" unicode="&#x92d;" horiz-adv-x="592" 
d="M753 444h-101l-112 -451l-80 63l29 115h-166q-12 -42 -22 -56.5t-26 -14.5q-12 0 -29.5 15t-33.5 35.5t-26.5 41.5t-7.5 34q7 30 36 30h50l13 32q-150 37 -125 139q5 21 17 39t29 32t38.5 22t45.5 8q31 0 54 -13t35.5 -35.5t15.5 -52t-6 -63.5q-15 -61 -30 -109h162
l47 189h-41l-29 84h234zM315 412q8 30 0.5 45t-23.5 15q-8 0 -18 -5.5t-19.5 -14t-16.5 -19.5t-10 -23q-16 -64 63 -78z" />
    <glyph glyph-name="glyph56" unicode="&#x92e;" horiz-adv-x="492" 
d="M652 444h-100l-112 -451l-80 63l30 118h-155l-11 -45q-6 -22 -32 -22q-11 0 -27 16t-30 37.5t-23.5 43.5t-6.5 34q5 22 30 22h29l46 184h-100l-29 84h542zM414 258l46 186h-158l-46 -186h158z" />
    <glyph glyph-name="glyph57" unicode="&#x92f;" horiz-adv-x="508" 
d="M668 444h-100l-112 -451l-80 63l28 92q-78 -46 -138 -46q-33 0 -60 16.5t-45 45.5t-27.5 69t-8.5 87q15 2 38.5 8t46.5 14.5t40.5 19t20.5 22.5q7 28 -6 60h-157l-29 84h560zM476 444h-154q19 -107 13 -130q-7 -28 -93 -47q-44 -11 -51 -39q-11 -46 55 -46q13 0 37 7
t51 18t53 24.5t43 25.5z" />
    <glyph glyph-name="glyph58" unicode="&#x930;" horiz-adv-x="356" 
d="M518 444h-169l-44 -176q-12 -51 -89 -98q16 -42 93 -148l-45 -35l-116 207q-21 37 -27.5 58t-4.5 31q2 9 15 19.5t22 10.5q6 0 15 -4t18 -8.5t16.5 -8.5t10.5 -4q11 0 16 18l34 138h-154l-29 84h409z" />
    <glyph glyph-name="glyph149" unicode="&#x931;" horiz-adv-x="356" 
d="M518 444h-169l-44 -176q-12 -51 -89 -98q16 -42 93 -148l-45 -35l-116 207q-21 37 -27.5 58t-4.5 31q2 9 15 19.5t22 10.5q6 0 15 -4t18 -8.5t16.5 -8.5t10.5 -4q11 0 16 18l34 138h-154l-29 84h409zM177 57l-94 -75l-57 76l94 75z" />
    <glyph glyph-name="glyph105" unicode="&#x932;" horiz-adv-x="612" 
d="M772 444h-99l-112 -451l-80 63l64 233q-11 3 -22 3q-86 0 -159 -120l-62 50q5 11 13 24t20 27q-12 32 -53 32q-35 0 -64.5 -27.5t-39.5 -67.5q-5 -21 -3.5 -40.5t12 -41t31.5 -46.5t52 -58l-54 -37q-134 160 -108 265q7 27 23.5 52t38 44t46.5 30t50 11q58 0 100 -81
q61 60 110 60q18 0 42 -11.5t35 -26.5l28 114h-473l-29 84h664z" />
    <glyph glyph-name="glyph61" unicode="&#x933;" horiz-adv-x="612" 
d="M771 444h-157l-21 -85q82 -41 53 -157q-9 -35 -29 -65.5t-46.5 -53.5t-56.5 -36.5t-58 -13.5q-36 0 -58 18t-42 63q-62 -81 -138 -81q-32 0 -58.5 15t-43 39.5t-22 56.5t3.5 66q9 35 28.5 65t45.5 51.5t57 33.5t63 12q78 0 104 -74q58 63 107 69l19 77h-415l-29 84h664z
M586 243q15 60 -36 60q-59 0 -166 -154q22 -36 65 -36q21 0 42.5 11t40.5 29t33.5 41.5t20.5 48.5zM370 267q-3 4 -10 8.5t-15.5 8t-17.5 6t-17 2.5q-22 0 -46 -11.5t-46 -29.5t-39 -40.5t-22 -44.5q-16 -63 47 -63q15 0 30.5 8.5t35 28t44 50.5t56.5 77z" />
    <glyph glyph-name="glyph150" unicode="&#x934;" horiz-adv-x="608" 
d="M771 444h-157l-21 -85q82 -41 53 -157q-9 -35 -29 -65.5t-46.5 -53.5t-56.5 -36.5t-58 -13.5q-36 0 -58 18t-42 63q-62 -81 -138 -81q-32 0 -58.5 15t-43 39.5t-22 56.5t3.5 66q9 35 28.5 65t45.5 51.5t57 33.5t63 12q78 0 104 -74q58 63 107 69l19 77h-415l-29 84h664z
M393 -47l-94 -75l-57 76l94 75zM586 243q15 60 -36 60q-59 0 -166 -154q22 -36 65 -36q21 0 42.5 11t40.5 29t33.5 41.5t20.5 48.5zM370 267q-3 4 -10 8.5t-15.5 8t-17.5 6t-17 2.5q-22 0 -46 -11.5t-46 -29.5t-39 -40.5t-22 -44.5q-16 -63 47 -63q15 0 30.5 8.5t35 28
t44 50.5t56.5 77z" />
    <glyph glyph-name="glyph62" unicode="&#x935;" horiz-adv-x="506" 
d="M666 444h-99l-112 -451l-80 63l28 92q-93 -58 -152 -58q-33 0 -62 16t-49 41t-28 56t-1 61q7 27 25.5 51t44.5 42t58.5 28.5t67.5 10.5q30 0 50 -6t34.5 -17t25.5 -28t24 -38l34 137h-366l-29 84h557zM430 257q-48 55 -128 55q-20 0 -38.5 -8t-34.5 -21.5t-27.5 -31.5
t-16.5 -37q-14 -54 36 -54q13 0 37 7.5t52.5 19.5t59 27t57.5 31z" />
    <glyph glyph-name="glyph63" unicode="&#x936;" horiz-adv-x="628" 
d="M790 444h-121l-112 -451l-81 63l97 388h-151q42 -59 28 -116q-8 -33 -29.5 -67.5t-53.5 -66.5t-72 -60t-85 -49l58 -130l-47 -25q-13 29 -23.5 59t-19.5 59q-5 19 -28 19q-25 0 -40.5 4.5t-22.5 17.5t-6 35t10 58q4 15 20 26.5t33 11.5t30 -45q5 -14 14 -14q32 0 109 70
q-85 35 -117.5 69t-22.5 77q10 38 46 67h-94l-29 84h681zM372 360q11 42 1 67t-39 25q-24 0 -45.5 -19t-29.5 -51q-19 -74 62 -119q36 34 51 97z" />
    <glyph glyph-name="glyph65" unicode="&#x937;" horiz-adv-x="468" 
d="M627 444h-100l-112 -451l-80 63l32 105q-66 -43 -110 -43q-23 0 -47.5 13t-43 33.5t-28.5 44.5t-5 47l47 188h-71l-29 84h518zM396 286l39 158h-163l-2 -10zM255 374l-39 -154q-8 -32 21 -32q40 0 127 63z" />
    <glyph glyph-name="glyph66" unicode="&#x938;" horiz-adv-x="554" 
d="M715 444h-100l-112 -451l-80 63l40 138q-39 -19 -96 -19q-33 0 -79 50q-24 -28 -87 -71q12 -25 35.5 -63t58.5 -89l-48 -36l-112 218q-29 58 -20 94q3 14 18.5 24.5t28.5 10.5q4 0 11 -4.5t15 -10t13.5 -10t7.5 -4.5q5 0 8 12l37 148h-145l-29 84h606zM523 444h-177
l-43 -175q26 -10 71 -10q6 0 23 3.5t36 9t34 10.5t18 8z" />
    <glyph glyph-name="glyph67" unicode="&#x939;" horiz-adv-x="444" 
d="M605 444h-171l-28 -113q-6 -24 -23 -24h-130q-57 0 -67 -42q-6 -24 8 -35q50 28 111 28q22 0 36.5 -2t25 -8.5t19 -19t18.5 -32.5q21 -44 14 -74q-5 -20 -16.5 -38.5t-27.5 -33t-33 -23.5t-32 -9l-34 79q72 21 85 75q2 7 -5 14.5t-18 7.5q-27 0 -55 -9t-51 -23.5t-40 -34
t-22 -40.5q-6 -26 0.5 -47t28 -38t58.5 -31.5t91 -28.5l-29 -38q-63 14 -110.5 35t-78 48t-43 58t-3.5 65q12 50 70 96q-9 10 -15.5 25t-10.5 31t-5 31.5t1 25.5q17 68 105 68h106l14 57h-244l-29 84h501z" />
    <glyph glyph-name="uni093C" unicode="&#x93c;" 
d="M-61 -115l-80 -64l-49 65l80 64z" />
    <glyph glyph-name="uni093D" unicode="&#x93d;" horiz-adv-x="400" 
d="M511 444h-134q-25 0 -44.5 -13t-24.5 -31q-5 -22 44 -92q66 -91 53 -143q-7 -26 -23 -49.5t-37.5 -42t-46.5 -29.5t-50 -11q-107 0 -156 152l38 22q14 -30 23.5 -48.5t19.5 -28.5t21.5 -13.5t28.5 -3.5q16 0 32.5 6t30 15.5t24 22.5t13.5 27q14 55 -36 129
q-25 36 -38.5 56.5t-19.5 32.5t-5.5 20.5t3.5 21.5q4 15 17 30t32 27t43 19.5t49 7.5h114z" />
    <glyph glyph-name="uni093E" unicode="&#x93e;" horiz-adv-x="230" 
d="M393 444h-121l-112 -451l-81 63l97 388h-66l-29 84h283z" />
    <glyph glyph-name="uni093F" unicode="&#x93f;" horiz-adv-x="232" 
d="M612 552q-25 25 -48.5 46.5t-49 37t-54 24.5t-62.5 9q-51 0 -84.5 -30.5t-45.5 -79.5q-6 -24 -6 -31h99l29 -84h-121l-112 -451l-81 63l97 388h-58l-29 84h127q-19 48 -5 102t60 86.5t110 32.5q73 0 133.5 -41.5t127.5 -122.5z" />
    <glyph glyph-name="uni0940" unicode="&#x940;" horiz-adv-x="232" 
d="M390 444h-121l-112 -451l-81 63l97 388h-64l-29 84h141q8 33 5.5 60.5t-12.5 48t-26.5 31.5t-37.5 11q-31 0 -56.5 -19.5t-32.5 -47.5q-2 -9 -3.5 -17t-2.5 -15l-55 -6q-25 34 -14 77q5 21 19 39.5t35 33t46 23t51 8.5q75 0 108.5 -59t17.5 -168h98z" />
    <glyph glyph-name="uni0941" unicode="&#x941;" 
d="M-22 -121q-5 -22 -20.5 -41.5t-36 -34.5t-46.5 -23.5t-51 -8.5q-113 0 -235 143l36 29q21 -27 43.5 -48.5t44.5 -36.5t43 -23t39 -8q21 0 43 7.5t41.5 19.5t33 26t17.5 28q9 37 -12 37q-22 0 -90 -59l-52 61q57 48 111 48q23 0 42 -10.5t32 -27t18 -37t-1 -41.5z" />
    <glyph glyph-name="uni0942" unicode="&#x942;" 
d="M28 -222q-28 47 -48.5 78.5t-37.5 50.5t-32.5 27t-33.5 8q-15 0 -31.5 -7t-31 -18.5t-25.5 -26t-15 -28.5q-9 -38 13 -38q4 0 15.5 7.5t25.5 18t26.5 21.5t19.5 19l34 -68q-56 -48 -106 -48q-22 0 -41 10t-32 26.5t-18 38t1 44.5q11 46 49.5 75.5t89.5 29.5
q101 0 217 -192z" />
    <glyph glyph-name="uni0943" unicode="&#x943;" 
d="M-25 -145q-60 -23 -103 -23q-37 0 -65.5 10.5t-47 29.5t-25 43.5t0.5 53.5q4 17 15 30.5t30.5 24.5t49 20.5t71.5 19.5l58 -65q-167 -27 -178 -70q-3 -13 11.5 -23t42.5 -10q32 0 101 24z" />
    <glyph glyph-name="uni0944" unicode="&#x944;" 
d="M-13 -299q-54 -20 -85 -20q-38 0 -67.5 10t-48.5 26.5t-27 39t-2 46.5q11 43 37 63q-13 4 -24 13t-19 20t-11.5 23t-0.5 22q7 30 21.5 49t35 30.5t44.5 17.5t50 9l58 -64q-28 -3 -54.5 -7.5t-48.5 -12t-36.5 -18.5t-18.5 -27q-6 -25 48 -25q44 0 95 18q1 0 14 -37l12 -35
q-25 -2 -51 -6t-47.5 -11.5t-37 -18.5t-18.5 -26q-6 -21 56 -21q43 0 96 18z" />
    <glyph glyph-name="uni0945" unicode="&#x945;" 
d="M230 696q-87 -113 -183 -113q-101 0 -135 128l38 27q27 -85 91 -85q32 0 71 25.5t69 68.5z" />
    <glyph glyph-name="uni0946" unicode="&#x946;" 
d="M22 491q-2 11 -6 31t-10 49q-6 36 -77 36q-6 0 -18 -0.5t-26 -1t-26 -1t-18 -0.5q-36 0 -58.5 8t-35.5 25.5t-18.5 45t-7.5 66.5l34 18q-3 -42 17.5 -61.5t65.5 -19.5q17 0 42 2t42 2q32 0 53.5 -6t34.5 -19.5t20 -35t11 -51.5q3 -34 5.5 -53.5t3.5 -24.5z" />
    <glyph glyph-name="uni0947" unicode="&#x947;" 
d="M13 503q-29 78 -53.5 118.5t-58.5 40.5q-31 0 -61 -10q-24 76 -21 89q5 21 59 21q44 0 77 -36q31 -35 89 -209z" />
    <glyph glyph-name="uni0948" unicode="&#x948;" 
d="M-3 488q-79 113 -139 113q-28 0 -47 -6q-12 75 -7 95q4 19 29 19q27 0 51 -24q104 -106 124 -181h23l-7 75q-7 40 -12 62.5t-12 33.5t-22 14.5t-41 6.5q2 37 3 54.5t1 16.5q3 12 6.5 14.5t15.5 2.5q22 0 35.5 -2.5t22.5 -9t15 -18t10 -29.5t9 -77t11 -161z" />
    <glyph glyph-name="uni0949" unicode="&#x949;" horiz-adv-x="230" 
d="M434 696q-87 -113 -183 -113q-103 0 -136 128l38 27q26 -85 92 -85q31 0 70.5 25.5t69.5 68.5zM393 444h-121l-112 -451l-81 63l97 388h-66l-29 84h283z" />
    <glyph glyph-name="uni094A" unicode="&#x94a;" horiz-adv-x="230" 
d="M393 444h-121l-112 -451l-81 63l97 388h-66l-29 84h163q-2 19 -4 34.5t-11.5 27t-29.5 17.5t-59 6h-50q-44 0 -70.5 7t-42 24t-21.5 45t-7 70l34 19q-1 -39 16.5 -59.5t60.5 -20.5q4 0 13 0.5t19.5 0.5t20.5 0.5t16 0.5q46 0 73.5 -9.5t42.5 -30.5t21 -53.5t8 -78.5h90z
" />
    <glyph glyph-name="uni094B" unicode="&#x94b;" horiz-adv-x="230" 
d="M390 444h-121l-112 -451l-81 63l97 388h-58l-29 84h117q-10 17 -23 33l-24 34q-9 11 -18 23t-19 21.5t-20.5 16t-24.5 6.5q-31 0 -61 -10q-23 76 -20 89q5 21 58 21q27 0 52.5 -17.5t49 -49t46 -74t44.5 -93.5h118z" />
    <glyph glyph-name="uni094C" unicode="&#x94c;" horiz-adv-x="230" 
d="M390 444h-121l-112 -451l-81 63l97 388h-58l-29 84h77q-55 53 -98 53q-28 0 -47 -6q-12 75 -7 95q4 19 29 19q21 0 46.5 -19t48.5 -45t41 -53.5t26 -43.5h30q-1 7 -3.5 28t-6.5 44t-10.5 43t-16.5 25q-2 3 -51 8q2 37 3 54.5t1 16.5q3 12 6.5 14.5t15.5 2.5
q23 0 37.5 -2.5t23 -9t14 -18t9.5 -29.5q10 -38 13 -177h94z" />
    <glyph glyph-name="uni094D" unicode="&#x94d;" 
d="M68 -221q-18 27 -36.5 51.5t-36.5 43.5t-39 30t-43 11t-70 -9q-27 68 -31 94q31 3 52 3q72 0 108 -40q26 -29 59.5 -66.5t75.5 -85.5z" />
    <glyph glyph-name="glyph46" unicode="&#x950;" horiz-adv-x="932" 
d="M757 646l-79 -64l-47 64l79 64zM841 565q-80 -103 -176 -103q-25 0 -49.5 9.5t-45 27t-36 41.5t-23.5 53l37 24q33 -91 111 -91q30 0 69 24t66 61zM969 254q-8 -30 -24.5 -57t-38.5 -48t-48 -33t-51 -12q-73 0 -115 100q-41 -48 -81 -75t-63 -27q-36 0 -81 64
q-6 -25 -23 -47.5t-41 -39.5t-54 -27t-63 -10q-31 0 -59.5 14.5t-52 41t-41.5 62.5t-28 80l42 22q33 -140 122 -140q22 0 43.5 6.5t38.5 17.5t29 26t16 32q10 40 -2 72q-26 -14 -57 -25t-64 -18q-41 58 -36 76q2 9 28 13q146 21 165 98q10 38 -35 38q-6 0 -27.5 -5
t-47 -11.5t-49.5 -14t-35 -12.5l-25 88q97 35 142 35q31 0 59.5 -16.5t50 -41t31.5 -54t4 -56.5q-10 -41 -62 -71q6 -18 18.5 -37t27.5 -35t30 -26t26 -10q38 0 154 131q100 115 175 115q31 0 54.5 -14t37.5 -38.5t17 -58t-7 -72.5zM917 303q17 70 -33 70q-24 0 -67.5 -38
t-90.5 -100q26 -47 71 -47q38 0 73 32.5t47 82.5z" />
    <glyph glyph-name="uni0951" unicode="&#x951;" 
d="M94 562h-73l51 205h73z" />
    <glyph glyph-name="uni0952" unicode="&#x952;" 
d="M-39 -92h-262l-18 66h262z" />
    <glyph glyph-name="uni0953" unicode="&#x953;" 
d="M90 581h-93l-129 177h99z" />
    <glyph glyph-name="uni0954" unicode="&#x954;" 
d="M316 758l-218 -177h-94l212 177h100z" />
    <glyph glyph-name="glyph140" unicode="&#x958;" horiz-adv-x="670" 
d="M832 444h-298l-37 -149q9 6 23 13t29.5 13.5t30.5 10.5t24 4q25 0 46 -13.5t34 -37t16.5 -54t-5.5 -63.5q-3 -15 -13 -36.5t-23 -44t-28 -43.5t-29 -36l-68 62q16 19 34 43t33 47t26 41.5t14 27.5q3 12 -4.5 21.5t-18.5 9.5q-8 0 -29 -9t-44.5 -21t-45 -25t-30.5 -21
l-50 -203l-82 63l29 88q-63 -46 -117 -46q-31 0 -59.5 14.5t-49 37.5t-30.5 51.5t-3 57.5q7 28 24 53t41 43.5t54 29.5t63 11q25 0 43.5 -4.5t31 -16t21.5 -30t16 -46.5h2l39 157h-334l-29 84h724zM167 57l-94 -75l-57 76l94 75zM391 236q-13 29 -40.5 46.5t-52.5 17.5
q-17 0 -35.5 -8t-34.5 -21.5t-28.5 -30.5t-16.5 -35q-6 -24 1.5 -39.5t22.5 -15.5q7 0 32 10t54.5 23.5t57 28.5t40.5 24z" />
    <glyph glyph-name="glyph141" unicode="&#x959;" horiz-adv-x="724" 
d="M886 444h-100l-112 -451l-84 63q-133 -69 -224 -69q-124 0 -240 222q-20 35 -15 53q1 6 6 12.5t11.5 12.5t12.5 10t11 4q3 0 10 -3t15 -6.5t15.5 -6.5t9.5 -3q11 0 15 18l36 144h-144l-29 84h777zM167 57l-94 -75l-57 76l94 75zM656 278q-38 50 -108 50q-18 0 -36 -7
t-33.5 -18.5t-26.5 -26t-15 -29.5q-9 -38 27 -38q9 0 36.5 8t58.5 19.5t59 23t38 18.5zM635 193q-14 -8 -36 -16.5t-44.5 -15.5t-42.5 -11.5t-31 -4.5q-27 0 -49.5 11t-37 30.5t-20 44.5t2.5 54q6 24 22.5 45.5t40 38t50.5 26t54 9.5q19 0 32 -2t24.5 -7t21.5 -15t22 -26
l19 -26h2l29 116h-349l-40 -160q-4 -18 -11 -32t-19 -27t-29 -25t-41 -26q56 -107 174 -107q18 0 49.5 7t66 18.5t69 25.5t59.5 29z" />
    <glyph glyph-name="glyph142" unicode="&#x95a;" horiz-adv-x="488" 
d="M648 444h-100l-112 -451l-81 63l97 388h-123l-57 -230q-12 -46 -44 -46q-9 0 -28 15.5t-38 36.5t-32 43t-10 35q2 7 13.5 15.5t20.5 8.5h53l30 122h-128l-29 84h539zM204 77l-94 -75l-57 76l94 75z" />
    <glyph glyph-name="glyph143" unicode="&#x95b;" horiz-adv-x="590" 
d="M750 444h-100l-112 -451l-80 63l57 228h-137q42 -55 30 -100q-8 -33 -41.5 -55.5t-72.5 -22.5q-64 0 -108 57t-61 160l40 19q27 -142 102 -142q52 0 64 46q7 30 -42 100l14 22h236l19 76h-449l-29 84h641zM425 19l-93 -75l-58 76l94 75z" />
    <glyph glyph-name="glyph144" unicode="&#x95c;" horiz-adv-x="526" 
d="M688 444h-136l-28 -112q-6 -24 -23 -24h-168q-58 0 -70 -51q-7 -27 20 -28l11 2q12 2 29 4.5t37 5.5t38 5.5t29.5 4t12.5 1.5q12 0 21 -2t16 -8t14 -17.5t14 -30.5q21 -56 15 -81q-6 -23 -22.5 -44.5t-39 -38.5t-49.5 -27t-54 -10q-43 0 -77.5 8.5t-65.5 28t-61 52
t-64 80.5l41 28q77 -117 186 -117q24 0 48 7t44.5 18.5t35 26t18.5 28.5q3 15 -20 15q-4 0 -23 -3.5t-42.5 -8t-44 -8t-26.5 -3.5q-21 0 -42 17.5t-36.5 43t-23.5 54t-2 51.5q19 77 108 77h144l14 56h-357l-29 84h579zM406 -113l-93 -75l-57 76l93 75z" />
    <glyph glyph-name="glyph145" unicode="&#x95d;" horiz-adv-x="480" 
d="M642 444h-129l-29 -118q-6 -24 -23 -24h-163q-22 0 -43 -9t-38 -23.5t-29.5 -34t-17.5 -40.5q-10 -40 4 -64t61 -40q2 26 4 46.5t6 35.5q4 19 16 36.5t30 30.5t39.5 21t45.5 8q50 0 71.5 -20.5t28.5 -72.5q6 -39 1 -59q-6 -21 -22 -41t-38.5 -35.5t-50.5 -25t-57 -9.5
q-51 0 -92.5 22t-69 57.5t-38.5 80.5t1 91q6 27 23 50t40 39.5t52 26t61 9.5h126l15 62h-318l-29 84h533zM369 -101l-93 -75l-57 76l93 75zM433 167q7 26 -46 26q-15 0 -32 -7.5t-32 -20.5t-26 -30t-16 -36q-2 -10 -0.5 -12t11.5 -2q22 0 45.5 7.5t43.5 19.5t34.5 26.5
t17.5 28.5z" />
    <glyph glyph-name="glyph147" unicode="&#x95e;" horiz-adv-x="666" 
d="M825 444h-307l-32 -129q9 6 23 13t29.5 13.5t30.5 10.5t24 4q25 0 46 -13.5t34 -37t16.5 -54t-5.5 -63.5q-3 -15 -13 -36.5t-23 -44t-28 -43.5t-29 -36l-68 62q16 19 34 43t33 47t26 41.5t14 27.5q3 12 -4.5 21.5t-18.5 9.5q-8 0 -29 -9t-44.5 -21t-45 -25t-30.5 -21
l-52 -211l-80 63l33 109q-47 -40 -100 -40q-23 0 -47.5 13t-43.5 33.5t-29 44.5t-4 47l45 181h-67l-29 84h712zM201 51l-93 -75l-58 76l94 75zM426 444h-154l-54 -217q-8 -32 21 -32q10 0 27 6t37.5 17t41 25.5t39.5 32.5z" />
    <glyph glyph-name="glyph148" unicode="&#x95f;" horiz-adv-x="508" 
d="M668 444h-100l-112 -451l-80 63l28 92q-78 -46 -138 -46q-33 0 -60 16.5t-45 45.5t-27.5 69t-8.5 87q15 2 38.5 8t46.5 14.5t40.5 19t20.5 22.5q7 28 -6 60h-157l-29 84h560zM196 47l-93 -75l-58 76l94 75zM476 444h-154q19 -107 13 -130q-7 -28 -93 -47q-44 -11 -51 -39
q-11 -46 55 -46q13 0 37 7t51 18t53 24.5t43 25.5z" />
    <glyph glyph-name="glyph29" unicode="&#x960;" horiz-adv-x="732" 
d="M786 -150q-45 -20 -70.5 -31t-43.5 -16t-32.5 -6t-38.5 -1q-21 0 -42 9.5t-36 25t-22.5 36t-1.5 43.5q11 42 54 65q-16 3 -29 11.5t-22 21t-12 27.5t1 30q16 67 116 109l-45 54q-14 -2 -25.5 -3.5t-20.5 -1.5q-5 0 -10 0.5t-9 1.5l-58 -232l-80 63l31 124l-241 -130
l-53 62l287 149q-6 7 -18.5 14t-29 12t-34.5 8.5t-34 3.5q-39 0 -100 -30l-35 78q73 36 126 36q91 0 162 -95l39 156h-350l-29 84h782l29 -84h-340l-43 -172q38 0 69 46l10 41q7 29 41 29q3 0 17.5 -5.5t30 -15t26 -23t6.5 -29.5q-3 -14 -28 -33t-59 -31l80 -115
q-141 -50 -152 -94q-7 -27 26 -27q45 0 118 46l37 -75q-156 -47 -165 -86q-9 -36 39 -36q54 0 137 60z" />
    <glyph glyph-name="glyph31" unicode="&#x961;" horiz-adv-x="593" 
d="M646 -166q-45 -20 -70.5 -31t-43.5 -16t-32.5 -6t-38.5 -1q-21 0 -42 9.5t-36 25t-22.5 36t-1.5 43.5q11 42 54 65q-13 3 -26 13t-23 24t-15 30.5t-1 33.5q11 42 49 66q157 102 169 149q10 41 -29 41q-53 0 -186 -156l-69 46q8 11 21 27.5t32 39.5q-12 32 -53 32
q-35 0 -64.5 -28t-40.5 -70q-4 -17 0 -41.5t13 -50t22 -48.5t28 -37l-41 -30q-25 30 -44.5 64.5t-31.5 68t-16.5 64t1.5 52.5q7 29 23.5 54.5t38 44.5t46.5 30t50 11q58 0 100 -81q57 50 94 62l18 74h-368l-29 84h654l29 -84h-194l-18 -75q22 -6 40 -21t29 -35t14.5 -42.5
t-1.5 -43.5q-14 -56 -182 -165q-28 -18 -34 -44q-4 -18 22 -18q46 0 113 45l37 -75q-159 -46 -171 -92q-9 -36 39 -36q54 0 143 66z" />
    <glyph glyph-name="uni0962" unicode="&#x962;" 
d="M101 -298q-66 -39 -105 -39q-30 0 -51.5 11t-33.5 28.5t-16 38t1 39.5q8 35 48 59l70 37q26 14 39 28.5t17 27.5q6 27 -27 27q-10 0 -26.5 -8.5t-35.5 -22t-36 -29t-28 -29.5l-47 45l22 23q-27 16 -54 16q-26 0 -50.5 -15.5t-30.5 -39.5q-12 -51 51 -96l-32 -21
q-27 22 -45.5 40t-28 34t-12 31.5t2.5 32.5q10 42 43.5 66.5t81.5 24.5q15 0 25 -1t19.5 -5.5t22 -13.5t34.5 -25q7 8 20.5 16.5t29.5 16t32 12.5t28 5q22 0 39.5 -11t29.5 -27t16.5 -35.5t0.5 -35.5q-4 -18 -11.5 -32t-22 -27t-38 -27t-58.5 -32q-36 -18 -42 -43
q-6 -26 41 -26q15 0 42.5 12.5t47.5 29.5z" />
    <glyph glyph-name="uni0963" unicode="&#x963;" 
d="M62 -400q-65 -39 -106 -39q-25 0 -45.5 9t-35 24t-20.5 33.5t-1 38.5q4 17 15 28q-41 36 -31 75q3 12 8.5 21.5t15.5 17.5t27 15.5t44 15.5q94 28 102 60q8 29 -23 29q-10 0 -27.5 -9.5t-37 -23t-37.5 -29t-28 -28.5l-47 44q3 2 7.5 6t9.5 10q-27 16 -54 16
q-26 0 -50.5 -15.5t-30.5 -39.5q-12 -51 51 -96l-32 -21q-27 22 -45.5 40t-28 34t-12 31.5t2.5 32.5q10 42 43.5 66.5t81.5 24.5q15 0 25 -1t20 -5.5t22 -13.5t34 -25q7 9 21 18t30 17t32.5 13t28.5 5q21 0 39 -9.5t30 -24.5t17 -33t1 -34q-16 -65 -104 -89q-82 -22 -85 -37
q-7 -26 41 -26q15 0 42.5 12.5t48.5 29.5l28 -60q-36 -21 -61.5 -29.5t-43.5 -13t-28.5 -8t-12.5 -13.5q-7 -26 40 -26q15 0 42.5 12.5t48.5 29.5z" />
    <glyph glyph-name="uni0964" unicode="&#x964;" horiz-adv-x="342" 
d="M340 -7l-77 63l121 484l76 -63z" />
    <glyph glyph-name="uni0965" unicode="&#x965;" horiz-adv-x="560" 
d="M558 -7l-77 63l121 484l76 -63zM340 -7l-77 63l121 484l76 -63z" />
    <glyph glyph-name="uni0966" unicode="&#x966;" horiz-adv-x="500" 
d="M504 262q-9 -35 -34 -68.5t-59 -60t-71.5 -43t-71.5 -16.5q-31 0 -58.5 12t-46 33t-26 50t1.5 64q10 41 37 77t61 63t70.5 43t65.5 16q36 0 64 -13t46 -35.5t24 -53.5t-3 -68zM401 219q6 25 2.5 50t-15.5 44t-32 31t-46 12q-27 0 -48.5 -19t-30.5 -54q-7 -27 0 -51
t22 -42.5t35 -29t38 -10.5q24 0 45.5 17.5t29.5 51.5z" />
    <glyph glyph-name="uni0967" unicode="&#x967;" horiz-adv-x="500" 
d="M397 -34q-5 -17 -23.5 -35.5t-41.5 -26.5l-73 62q43 17 47 36q2 9 -1.5 20.5t-11.5 22.5l-114 149q10 7 24 16.5t28 19.5t27.5 20.5t23.5 18.5q-54 48 -75 86t-14 64q6 24 20.5 45.5t35.5 38.5t46.5 27t52.5 10q35 0 63.5 -16t47.5 -41.5t26 -56t0 -60.5
q-5 -18 -15.5 -36t-33.5 -41.5t-63 -56t-103 -79.5q45 -50 71 -82t39.5 -52.5t16 -32t0.5 -20.5zM418 421q7 26 -4 40.5t-34 14.5q-12 0 -27 -7t-28.5 -18.5t-24 -27t-14.5 -32.5q-5 -19 5 -42t31 -48q15 10 31 25t29.5 32t23 33.5t12.5 29.5z" />
    <glyph glyph-name="uni0968" unicode="&#x968;" horiz-adv-x="500" 
d="M518 344q-14 -57 -58 -99.5t-128 -70.5l73 -210l-51 -28l-68 208q-3 15 -21 18q-11 2 -29.5 5t-29.5 5q-14 2 -17.5 17.5t2.5 39.5q11 48 29.5 67.5t37.5 19.5q11 0 22.5 -12t24.5 -43q27 6 52 18t46 29.5t36 38t20 42.5q5 20 3.5 34t-8 23t-16.5 13.5t-21 4.5t-33.5 -6
t-49.5 -15t-55.5 -20t-52.5 -21l-42 90q59 23 107.5 35.5t81.5 12.5q38 0 69.5 -15.5t51.5 -42t27 -62.5t-3 -76z" />
    <glyph glyph-name="uni0969" unicode="&#x969;" horiz-adv-x="500" 
d="M483 174q-11 -45 -54.5 -82.5t-108.5 -51.5l58 -121l-55 -28l-51 130q-5 14 -18 16q-3 0 -12.5 2t-20 4.5t-19.5 5t-13 4.5q-14 7 -19.5 19.5t2.5 44.5q10 41 23.5 53t30.5 12q20 0 28 -11.5t18 -42.5q9 -4 20 -5.5t19 -1.5q15 0 31.5 7.5t31.5 20t26 28t15 30.5
q3 11 -5.5 29.5t-16.5 28.5q-9 -3 -28.5 -6.5t-41.5 -7t-43.5 -6t-33.5 -2.5t-20.5 3.5t-10.5 11.5q-8 26 -13 44t-3 26t13 15.5t37 7.5q27 0 62.5 -2.5t60.5 -6.5q25 13 41.5 30t20.5 33q5 21 -7 30t-44 9h-172l-21 84h168q43 0 72 -17.5t45 -43.5t20 -55.5t-2 -53.5
t-21.5 -43.5t-32.5 -28.5q32 -33 41.5 -59.5t2.5 -52.5z" />
    <glyph glyph-name="uni096A" unicode="&#x96a;" horiz-adv-x="500" 
d="M606 445q-23 -18 -50.5 -38.5t-54 -41.5t-50.5 -41t-41 -36q33 -34 52 -56.5t28 -39.5t9.5 -31.5t-3.5 -31.5q-5 -19 -19.5 -37.5t-36 -33t-48.5 -23.5t-56 -9q-33 0 -61.5 14t-48.5 36t-28.5 50t-1.5 57q3 10 8 21t17 26t31.5 34t51.5 45l-176 174l65 45l156 -182
l234 194zM405 166q4 15 -4 35t-35 49q-55 -43 -78 -69.5t-28 -44.5t6 -32t33 -14q17 0 34 6t31.5 16.5t25.5 24t15 29.5z" />
    <glyph glyph-name="uni096B" unicode="&#x96b;" horiz-adv-x="500" 
d="M394 -79l-36 222q-19 -10 -46 -16t-54 -6q-26 0 -55.5 16t-53 45t-34.5 68t1 86q6 22 16 49t22 53.5t24 50.5t21 39l76 -78q-13 -23 -27.5 -51t-28 -54.5t-23 -48t-11.5 -31.5q-9 -35 7.5 -51.5t47.5 -16.5q20 0 50 14t50 36q-2 17 -4 32t0 21q1 5 6.5 11t12 11t13.5 8.5
t13 3.5q20 0 37 -9t37 -29q14 -15 17 -24.5t0 -19.5q-2 -8 -8.5 -19t-16 -21.5t-20.5 -20.5t-21 -17l49 -230z" />
    <glyph glyph-name="uni096C" unicode="&#x96c;" horiz-adv-x="500" 
d="M386 -86l-33 137q-19 -2 -40 0t-41.5 8.5t-39.5 16t-34 22.5q-36 29 -55.5 67t-11.5 69q7 28 25 47t45 33q-31 30 -45 59.5t-6 61.5q11 42 53.5 67.5t114.5 25.5h26t35 -1l38 -2t34 -3l8 -91q-8 2 -23 4.5t-33.5 4.5t-38 3t-36.5 1q-51 0 -77 -15t-33 -40q-5 -19 6 -32
t42 -18q11 3 27 5.5l32 5t29.5 4t19.5 1.5q29 0 40.5 -4t15.5 -15q6 -18 7 -38.5t-1 -29.5q-2 -7 -14 -14t-30 -7q-8 0 -23 1.5t-32.5 4t-34.5 5t-28 5.5q-23 -13 -39.5 -32t-21.5 -38q-4 -14 -1 -27.5t9.5 -25t16.5 -18.5t21 -7q22 -2 39 3.5t35 17.5q-2 9 -2.5 21.5
t1.5 22.5q1 4 6 8.5t11.5 8.5t13 6.5t10.5 2.5q12 0 27 -7t27.5 -18t20 -24.5t4.5 -25.5q-5 -20 -20.5 -35.5t-32.5 -23.5l39 -134z" />
    <glyph glyph-name="uni096D" unicode="&#x96d;" horiz-adv-x="500" 
d="M553 263q-27 -110 -94 -170t-158 -60q-46 0 -83 24t-58.5 81.5t-23.5 153t23 238.5l46 10q-21 -108 -22.5 -187t13.5 -130.5t44.5 -76.5t71.5 -25q57 0 98 32t61 86q-11 -5 -29 -11.5t-37 -6.5q-26 0 -51 11t-43 30.5t-26 47.5t0 61q6 24 20 46.5t32.5 40.5t40.5 28.5
t44 10.5q34 0 64.5 -15t50 -44t25.5 -73t-9 -102zM495 346q10 40 -1.5 57.5t-33.5 17.5q-17 0 -33 -8t-29.5 -20.5t-22.5 -28.5t-13 -31q-7 -26 1.5 -41t24.5 -15q10 0 26.5 5t33 14t30 22t17.5 28z" />
    <glyph glyph-name="uni096E" unicode="&#x96e;" horiz-adv-x="500" 
d="M479 119q-32 -30 -60.5 -51.5t-57 -35t-58.5 -20t-64 -6.5q-28 0 -59 13t-56 35.5t-38 52.5t-5 63q3 11 12.5 26.5t24.5 28.5l342 315l15 -103l-265 -248q-32 -29 -45.5 -43.5t-16.5 -25.5q-5 -18 13 -34t57 -16q42 0 102.5 34.5t126.5 102.5l32 -88v0z" />
    <glyph glyph-name="uni096F" unicode="&#x96f;" horiz-adv-x="500" 
d="M434 11q-9 -37 -76 -81l-67 68q22 13 35.5 24t15.5 21q2 9 -1.5 20t-11.5 26q-4 7 -14.5 25t-25 41.5t-30.5 49.5t-30.5 49.5t-25.5 40.5t-15 23q-14 20 -18.5 41t2.5 47q7 29 26 53.5t45 42.5t58 28t66 10q29 0 57 -13.5t48 -36t29.5 -52t1.5 -61.5q-7 -30 -27.5 -55
t-46 -42.5t-53 -27.5t-48.5 -10q-10 0 -18 0.5t-12 2.5l-3 -2l116 -158q13 -17 20.5 -36t2.5 -38zM423 423q5 20 -5.5 30.5t-28.5 10.5q-23 0 -45.5 -10t-41.5 -25t-32.5 -33.5t-17.5 -35.5q-3 -13 -1.5 -28.5t5.5 -25.5q33 3 61 14t50 27.5t36.5 36t19.5 39.5z" />
    <glyph glyph-name="uni0970" unicode="&#x970;" horiz-adv-x="238" 
d="M315 302q-6 -24 -21 -46t-35 -38.5t-44.5 -26t-49.5 -9.5t-44 9.5t-31.5 26t-16.5 38t2 46.5t21 47t35.5 38t45 25.5t48.5 9.5q25 0 44 -9.5t31.5 -26t16.5 -38t-2 -46.5zM255 302q6 25 -7 42.5t-38 17.5t-47 -17.5t-28 -42.5t7 -42.5t38 -17.5t47 17.5t28 42.5z" />
    <glyph glyph-name="uni20A8.003" unicode="&#x978;" horiz-adv-x="430" 
d="M364 463l-79 -64l-47 64l79 64zM461 404q-80 -103 -176 -103q-25 0 -49.5 9.5t-45 27t-36 41.5t-23.5 53l37 24q33 -91 111 -91q30 0 68.5 24t66.5 61zM357 2q-5 9 -15.5 28t-26 38.5t-33.5 34t-39 14.5q-22 0 -42 -13q-1 5 -9 28t-21 66q31 3 52 3q46 0 98 -75
q3 -4 18 -30t42 -77z" />
    <glyph glyph-name="uni20A8.004" unicode="&#x97a;" horiz-adv-x="427" 
d="M586 444h-100l-112 -451l-78 63l12 36q-50 -40 -98 -40q-32 0 -58 12t-44 34t-26.5 52t-5.5 65q27 4 51.5 11.5t43.5 16.5t31 19t15 19q13 53 -65 53h-186l-22 78h185q34 0 62.5 -15t47 -39.5t25 -55.5t-1.5 -62q-14 -58 -84 -78q-18 -5 -23 -25q-3 -11 6 -20t26 -9
q13 0 31 8t38 21.5t41 32.5t39 40l58 234h-490l-29 84h682z" />
    <glyph glyph-name="uni097B" unicode="&#x97b;" horiz-adv-x="488" 
d="M648 444h-100l-112 -451l-81 63l97 388h-123l-62 -250q-12 -46 -44 -46q-9 0 -28 15.5t-38 36.5t-32 43t-10 35q2 7 13.5 15.5t20.5 8.5h53l35 142h-128l-29 84h539zM403 -127h-322l-14 87h322z" />
    <glyph glyph-name="uni097C" unicode="&#x97c;" horiz-adv-x="590" 
d="M750 444h-100l-112 -451l-80 63l57 228h-137q51 -84 41 -127q-9 -33 -41 -55.5t-74 -22.5q-140 0 -179 244l40 19q37 -169 113 -169q24 0 42 12t22 29q10 40 -53 132l14 22h236l19 76h-449l-29 84h641zM423 -127h-322l-14 87h322z" />
    <glyph glyph-name="uni097D" unicode="&#x97d;" horiz-adv-x="549" 
d="M669 484q-8 -32 -21.5 -59t-42.5 -60t-75 -76.5t-120 -108.5l-47 67q66 59 110.5 101.5t73 74t43 55.5t19.5 46q14 56 -28 56q-44 0 -167 -70l-42 77q132 69 189 69q25 0 48.5 -15t39.5 -39t22 -55t-2 -63zM461 68l-93 -75l-57 76l93 75z" />
    <glyph glyph-name="uni097E" unicode="&#x97e;" horiz-adv-x="526" 
d="M688 444h-136l-28 -112q-6 -24 -23 -24h-168q-58 0 -70 -51q-7 -27 20 -28l11 2q12 2 29 4.5t37 5.5t38 5.5t29.5 4t12.5 1.5q12 0 21 -2t16 -8t14 -17.5t14 -30.5q21 -56 15 -81q-6 -23 -22.5 -44.5t-39 -38.5t-49.5 -27t-54 -10q-43 0 -77.5 8.5t-65.5 28t-61 52
t-64 80.5l41 28q77 -117 186 -117q24 0 48 7t44.5 18.5t35 26t18.5 28.5q3 15 -20 15q-4 0 -23 -3.5t-42.5 -8t-44 -8t-26.5 -3.5q-21 0 -42 17.5t-36.5 43t-23.5 54t-2 51.5q19 77 108 77h144l14 56h-357l-29 84h579zM403 -127h-322l-14 87h322z" />
    <glyph glyph-name="uni097F" unicode="&#x97f;" horiz-adv-x="520" 
d="M680 444h-100l-112 -451l-80 63l26 84q-83 -51 -162 -51q-39 0 -69 15t-48.5 39.5t-24.5 57t3 68.5q6 27 24 51t44 42t58.5 28.5t69.5 10.5q29 0 51 -4.5t39 -14t29.5 -26t22.5 -40.5h5l32 128h-374l-29 84h566zM403 -127h-322l-14 87h322zM415 272q6 24 -11.5 41.5
t-50.5 17.5q-35 0 -58 -10l44 -133q63 31 76 84zM248 301q-27 -11 -50 -36.5t-29 -48.5q-15 -63 60 -63q32 0 64 13z" />
    <glyph glyph-name="uni200B.001" unicode="&#x200b;" horiz-adv-x="20" 
d="M180 466h-64l-16 56h64z" />
    <glyph glyph-name="afii61664" unicode="&#x200c;" 
d="M-15 -134h-36l225 907h36z" />
    <glyph glyph-name="afii301" unicode="&#x200d;" 
d="M273 668l-30 -23l-48 66l-210 -845h-36l210 845l-82 -66l-18 23l105 83l-64 82l30 24l62 -84l104 84l18 -24l-104 -82z" />
    <glyph glyph-name="endash" unicode="&#x2013;" horiz-adv-x="426" 
d="M444 215h-343l21 84h343z" />
    <glyph glyph-name="emdash" unicode="&#x2014;" horiz-adv-x="985" 
d="M904 191h-783l21 84h783z" />
    <glyph glyph-name="quoteleft" unicode="&#x2018;" horiz-adv-x="278" 
d="M250 528l-76 -99l-39 48q-16 19 -11 37q8 33 122 203l23 -39q-48 -86 -51 -98q-4 -17 6 -27z" />
    <glyph glyph-name="quoteright" unicode="&#x2019;" horiz-adv-x="278" 
d="M432 619q-9 -34 -123 -203l-22 39q47 86 50 98q5 17 -6 27l-26 25l76 99l39 -48q16 -20 12 -37z" />
    <glyph glyph-name="quotedblleft" unicode="&#x201c;" horiz-adv-x="391" 
d="M389 528l-76 -99l-39 48q-16 19 -11 37q8 33 122 203l23 -39q-48 -86 -51 -98q-4 -17 6 -27zM250 528l-76 -99l-39 48q-16 19 -11 37q8 33 122 203l23 -39q-48 -86 -51 -98q-4 -17 6 -27z" />
    <glyph glyph-name="quotedblright" unicode="&#x201d;" horiz-adv-x="433" 
d="M587 619q-9 -34 -123 -203l-22 39q47 86 50 98q5 17 -6 27l-26 25l76 99l39 -48q16 -20 12 -37zM437 619q-9 -34 -123 -203l-22 39q47 86 50 98q5 17 -6 27l-26 25l76 99l39 -48q16 -20 12 -37z" />
    <glyph glyph-name="bullet" unicode="&#x2022;" horiz-adv-x="523" 
d="M505 253q-10 -38 -32.5 -71t-53.5 -58t-68 -39.5t-75 -14.5t-68 14.5t-48.5 39t-24.5 58t4 71.5q9 38 32 71.5t54 58t67.5 39t74.5 14.5q37 0 67 -14.5t49 -39.5t25 -58.5t-3 -70.5z" />
    <glyph glyph-name="uni20A8.001" unicode="&#x20b9;" horiz-adv-x="446" 
d="M384 336q-8 -25 -21.5 -48.5t-33.5 -42.5t-47.5 -32t-62.5 -16l80 -167l-57 -35l-120 205l-26 3l-17 77q11 -1 27 -2.5t32 -2.5t30.5 -1.5t23.5 -0.5q41 0 73 15.5t50 47.5h-197l-16 75h229q-3 17 -14.5 31t-40.5 14h-128l-17 71h387l21 -71h-162q6 -10 10 -21.5t6 -23.5
h96l19 -75h-124z" />
    <glyph glyph-name="uni25CC" unicode="&#x25cc;" horiz-adv-x="423" 
d="M438 346q-12 33 -41 54l40 41q35 -26 51 -66zM353 423q-14 4 -37 4t-39 -4l3 50q13 2 25.5 3.5t23.5 1.5t22.5 -1.5t22.5 -3.5zM490 265q-6 -23 -18 -47l-48 8q8 15 13 38q6 24 6 39l52 8q0 -24 -5 -46zM433 154q-36 -41 -84 -67l-19 42q40 21 67 55zM221 400
q-40 -21 -67 -54l-35 29q35 40 82 66zM56 218q1 11 2 22.5t5 24.5q3 12 7 23.5t9 22.5l48 -8q-8 -15 -14 -39q-5 -23 -5 -38zM270 56q-12 -2 -24.5 -3.5t-23.5 -1.5t-22.5 1.5t-23.5 3.5l22 51q21 -5 37 -5t39 5zM113 87q-33 26 -49 67l49 30q11 -34 41 -55z" />
    <glyph glyph-name="NULL" 
 />
    <glyph glyph-name="glyph45" horiz-adv-x="550" 
d="M650 1462h-22l14 11zM152 -535l-3 -11l-19 11h22z" />
    <glyph glyph-name="glyph6" horiz-adv-x="390" 
d="M577 613l-72 -59l-45 59l73 59zM549 444h-106l-28 -113q-6 -24 -23 -24h-164q-18 0 -34 -14.5t-21 -34.5q-7 -29 12 -29q-2 0 18.5 4t46 9.5t47.5 9.5t23 4q30 0 45 -20t22 -45.5t6.5 -49.5t-2.5 -31q-5 -18 -26.5 -40t-51 -41.5t-64 -33.5t-65.5 -17l54 -148l-47 -25
q-11 37 -24 77.5t-27 85.5q-2 4 -12.5 7t-23.5 7.5t-25 11.5t-18 19q-18 35 -10 65q10 40 57 40q25 0 44 -63q28 1 58 11t56 25t44.5 32.5t21.5 32.5q4 16 -13 16q-1 0 -16 -4t-34 -9.5t-38 -9.5t-26 -4q-20 0 -37.5 16t-30 40t-17.5 52t0 51q10 38 32.5 60.5t50.5 22.5h140
l14 57h-252l-29 84h311q-40 98 -29 143q11 46 45.5 75.5t88.5 29.5q22 0 36.5 -3t25.5 -10t19 -19t17 -30l-11 -42q-25 27 -62 27q-33 0 -60 -23t-35 -58q-9 -35 8 -90h90z" />
    <glyph glyph-name="glyph13" horiz-adv-x="474" 
d="M634 444h-131l-63 -255q-10 -37 -24 -50.5t-39 -13.5q-34 0 -76 18l-22 66q14 -4 24 -4h15q34 0 46 49l47 190h-139l-66 -264q-11 -45 60 -96l191 -136q37 -27 27 -65q-1 -7 -7.5 -17.5t-14.5 -21.5t-17.5 -21t-18.5 -17l-68 60q22 22 26 40q3 11 -1 22t-15 19l-234 164
q-31 25 -22 59l68 274h-72l-29 84h526zM494 696q-87 -113 -183 -113q-103 0 -136 128l38 27q26 -85 92 -85q31 0 70.5 25.5t69.5 68.5zM647 660l-94 -75l-57 76l94 75z" />
    <glyph glyph-name="glyph14" horiz-adv-x="474" 
d="M634 444h-131l-63 -255q-10 -37 -24 -50.5t-39 -13.5q-34 0 -76 18l-22 66q14 -4 24 -4h15q34 0 46 49l47 190h-139l-66 -264q-11 -45 60 -96l191 -136q37 -27 27 -65q-1 -7 -7.5 -17.5t-14.5 -21.5t-17.5 -21t-18.5 -17l-68 60q22 22 26 40q3 11 -1 22t-15 19l-234 164
q-31 25 -22 59l68 274h-72l-29 84h391q-4 19 -7 34t-11 25t-23.5 15t-45.5 5q-6 0 -18 -0.5t-26 -1t-26 -1t-18 -0.5q-35 0 -57.5 8t-36 25.5t-19 45t-7.5 66.5l34 18q-3 -42 17.5 -61.5t66.5 -19.5q17 0 42 2t42 2q36 0 57.5 -5t34.5 -22t19.5 -49t12.5 -86h104zM658 660
l-94 -75l-57 76l94 75z" />
    <glyph glyph-name="glyph15" horiz-adv-x="474" 
d="M634 444h-131l-63 -255q-10 -37 -24 -50.5t-39 -13.5q-34 0 -76 18l-22 66q14 -4 24 -4h15q34 0 46 49l47 190h-139l-66 -264q-11 -45 60 -96l191 -136q37 -27 27 -65q-1 -7 -7.5 -17.5t-14.5 -21.5t-17.5 -21t-18.5 -17l-68 60q22 22 26 40q3 11 -1 22t-15 19l-234 164
q-31 25 -22 59l68 274h-72l-29 84h526zM585 660l-94 -75l-57 76l94 75z" />
    <glyph glyph-name="glyph16" horiz-adv-x="474" 
d="M634 444h-131l-63 -255q-10 -37 -24 -50.5t-39 -13.5q-34 0 -76 18l-22 66q14 -4 24 -4h15q34 0 46 49l47 190h-139l-66 -264q-11 -45 60 -96l191 -136q37 -27 27 -65q-1 -7 -7.5 -17.5t-14.5 -21.5t-17.5 -21t-18.5 -17l-68 60q22 22 26 40q3 11 -1 22t-15 19l-234 164
q-31 25 -22 59l68 274h-72l-29 84h395q-25 60 -47 97t-56 37q-31 0 -61 -10q-24 76 -21 89q5 21 59 21q43 0 75 -37q16 -19 38 -67.5t50 -129.5h94zM653 660l-89 -71l-54 72l89 71z" />
    <glyph glyph-name="glyph21" horiz-adv-x="874" 
d="M1041 660l-94 -75l-57 76l94 75zM880 696q-87 -113 -183 -113q-103 0 -136 128l38 27q26 -85 92 -85q31 0 70.5 25.5t69.5 68.5zM1034 444h-121l-112 -451l-81 63l97 388h-115l-112 -451l-80 63l41 143q-18 -5 -37 -5q-5 0 -15.5 3.5t-23 8.5t-23.5 10.5t-16 9.5l-3 -2
q4 -28 -3 -56q-6 -25 -22.5 -47.5t-41 -39.5t-54.5 -27t-63 -10q-31 0 -59 14.5t-51.5 41t-41.5 62.5t-28 80l41 22q33 -140 122 -140q22 0 44 6.5t38.5 17.5t29 26t16.5 32q10 40 -2 72q-27 -14 -57.5 -25t-64.5 -18q-40 58 -36 76q2 9 28 13q147 21 166 98q5 20 -5.5 28
t-35.5 8q-43 0 -154 -41l-25 88q97 35 142 35q31 0 60 -16.5t50.5 -41t31.5 -54t3 -56.5q-10 -41 -61 -71q27 -37 68 -37q16 0 34.5 5t35 13t28 18t13.5 20l31 124h-66l-27 84h488z" />
    <glyph glyph-name="glyph22" horiz-adv-x="872" 
d="M1047 660l-94 -75l-57 76l94 75zM1034 444h-117l-112 -451l-85 63l97 388h-115l-112 -451l-80 63l41 143q-18 -5 -37 -5q-5 0 -15.5 3.5t-23 8.5t-23.5 10.5t-16 9.5l-3 -2q4 -28 -3 -56q-6 -25 -22.5 -47.5t-41 -39.5t-54.5 -27t-63 -10q-31 0 -59 14.5t-51.5 41
t-41.5 62.5t-28 80l41 22q33 -140 122 -140q22 0 44 6.5t38.5 17.5t29 26t16.5 32q10 40 -2 72q-27 -14 -57.5 -25t-64.5 -18q-40 58 -36 76q2 9 28 13q147 21 166 98q5 20 -5.5 28t-35.5 8q-43 0 -154 -41l-25 88q97 35 142 35q31 0 60 -16.5t50.5 -41t31.5 -54t3 -56.5
q-10 -41 -61 -71q27 -37 68 -37q16 0 34.5 5t35 13t28 18t13.5 20l31 124h-66l-27 84h328q-4 19 -7 34t-11 25t-23.5 15t-45.5 5q-6 0 -18 -0.5t-26 -1t-26 -1t-18 -0.5q-35 0 -57.5 8t-36 25.5t-19 45t-7.5 66.5l34 18q-3 -42 17.5 -61.5t66.5 -19.5q17 0 42 2t42 2
q36 0 57.5 -5t34.5 -22t19.5 -49t12.5 -86h129z" />
    <glyph glyph-name="glyph23" horiz-adv-x="868" 
d="M1016 660l-94 -75l-57 76l94 75zM1027 444h-121l-112 -451l-81 63l97 388h-108l-112 -451l-80 63l41 143q-18 -5 -37 -5q-5 0 -15.5 3.5t-23 8.5t-23.5 10.5t-16 9.5l-3 -2q4 -28 -3 -56q-6 -25 -22.5 -47.5t-41 -39.5t-54.5 -27t-63 -10q-31 0 -59 14.5t-51.5 41
t-41.5 62.5t-28 80l41 22q33 -140 122 -140q22 0 44 6.5t38.5 17.5t29 26t16.5 32q10 40 -2 72q-27 -14 -57.5 -25t-64.5 -18q-40 58 -36 76q2 9 28 13q147 21 166 98q5 20 -5.5 28t-35.5 8q-43 0 -154 -41l-25 88q97 35 142 35q31 0 60 -16.5t50.5 -41t31.5 -54t3 -56.5
q-10 -41 -61 -71q27 -37 68 -37q16 0 34.5 5t35 13t28 18t13.5 20l31 124h-66l-27 84h323q-8 14 -27 41t-49 67q-19 26 -53 26q-31 0 -61 -10q-24 76 -21 89q5 21 59 21q27 0 52.5 -17.5t49 -49t46 -74t44.5 -93.5h118z" />
    <glyph glyph-name="glyph24" horiz-adv-x="870" 
d="M1060 660l-89 -71l-54 72l89 71zM1029 444h-121l-112 -451l-81 63l97 388h-110l-112 -451l-80 63l41 143q-18 -5 -37 -5q-5 0 -15.5 3.5t-23 8.5t-23.5 10.5t-16 9.5l-3 -2q4 -28 -3 -56q-6 -25 -22.5 -47.5t-41 -39.5t-54.5 -27t-63 -10q-31 0 -59 14.5t-51.5 41
t-41.5 62.5t-28 80l41 22q33 -140 122 -140q22 0 44 6.5t38.5 17.5t29 26t16.5 32q10 40 -2 72q-27 -14 -57.5 -25t-64.5 -18q-40 58 -36 76q2 9 28 13q147 21 166 98q5 20 -5.5 28t-35.5 8q-43 0 -154 -41l-25 88q97 35 142 35q31 0 60 -16.5t50.5 -41t31.5 -54t3 -56.5
q-10 -41 -61 -71q27 -37 68 -37q16 0 34.5 5t35 13t28 18t13.5 20l31 124h-66l-27 84h285q-55 53 -98 53q-28 0 -47 -6q-12 75 -7 95q4 19 29 19q21 0 46.5 -19t48.5 -45t41 -53.5t26 -43.5h30q-1 7 -3.5 28t-6.5 44t-10.5 43t-16.5 25q-2 3 -51 8q2 37 3 54.5t1 16.5
q3 12 6.5 14.5t15.5 2.5q23 0 37.5 -2.5t23 -9t14 -18t9.5 -29.5q10 -38 13 -177h94z" />
    <glyph glyph-name="glyph25" horiz-adv-x="642" 
d="M772 660l-94 -75l-57 76l94 75zM802 444h-100l-112 -451l-80 63l41 143q-18 -5 -37 -5q-5 0 -15.5 3.5t-23 8.5t-23.5 10.5t-16 9.5l-3 -2q4 -28 -3 -56q-6 -25 -22.5 -47.5t-41 -39.5t-54.5 -27t-63 -10q-31 0 -59 14.5t-51.5 41t-41.5 62.5t-28 80l41 22
q33 -140 122 -140q22 0 44 6.5t38.5 17.5t29 26t16.5 32q10 40 -2 72q-27 -14 -57.5 -25t-64.5 -18q-40 58 -36 76q2 9 28 13q147 21 166 98q5 20 -5.5 28t-35.5 8q-43 0 -154 -41l-25 88q97 35 142 35q31 0 60 -16.5t50.5 -41t31.5 -54t3 -56.5q-10 -41 -61 -71
q27 -37 68 -37q16 0 34.5 5t35 13t28 18t13.5 20l31 124h-66l-27 84h256z" />
    <glyph glyph-name="glyph26" horiz-adv-x="642" 
d="M768 745l-79 -64l-47 64l79 64zM866 686q-81 -103 -177 -103q-25 0 -49 9.5t-45 27t-36.5 41.5t-22.5 53l37 24q32 -91 110 -91q30 0 69 24t66 61zM802 444h-100l-112 -451l-80 63l41 143q-18 -5 -37 -5q-5 0 -15.5 3.5t-23 8.5t-23.5 10.5t-16 9.5l-3 -2q4 -28 -3 -56
q-6 -25 -22.5 -47.5t-41 -39.5t-54.5 -27t-63 -10q-31 0 -59 14.5t-51.5 41t-41.5 62.5t-28 80l41 22q33 -140 122 -140q22 0 44 6.5t38.5 17.5t29 26t16.5 32q10 40 -2 72q-27 -14 -57.5 -25t-64.5 -18q-40 58 -36 76q2 9 28 13q147 21 166 98q5 20 -5.5 28t-35.5 8
q-43 0 -154 -41l-25 88q97 35 142 35q31 0 60 -16.5t50.5 -41t31.5 -54t3 -56.5q-10 -41 -61 -71q27 -37 68 -37q16 0 34.5 5t35 13t28 18t13.5 20l31 124h-66l-27 84h256z" />
    <glyph glyph-name="glyph27" horiz-adv-x="822" 
d="M891 326l-94 -75l-57 76l94 75zM816 74l-83 -75l-68 76l94 75zM982 444h-280l-112 -451l-80 63l41 143q-18 -5 -37 -5q-5 0 -15.5 3.5t-23 8.5t-23.5 10.5t-16 9.5l-3 -2q4 -28 -3 -56q-6 -25 -22.5 -47.5t-41 -39.5t-54.5 -27t-63 -10q-31 0 -59 14.5t-51.5 41
t-41.5 62.5t-28 80l41 22q33 -140 122 -140q22 0 44 6.5t38.5 17.5t29 26t16.5 32q10 40 -2 72q-27 -14 -57.5 -25t-64.5 -18q-40 58 -36 76q2 9 28 13q147 21 166 98q5 20 -5.5 28t-35.5 8q-43 0 -154 -41l-25 88q97 35 142 35q31 0 60 -16.5t50.5 -41t31.5 -54t3 -56.5
q-10 -41 -61 -71q27 -37 68 -37q16 0 34.5 5t35 13t28 18t13.5 20l31 124h-66l-27 84h436z" />
    <glyph glyph-name="glyph106" horiz-adv-x="596" 
d="M758 444h-179l-17 -69q49 -12 69 -56t6 -101q-13 -51 -55.5 -102t-102.5 -86l-56 64q29 18 56 41t48 46.5t34.5 46t17.5 40.5q7 25 -2.5 39t-26.5 14q-19 0 -41.5 -12t-46.5 -33.5t-47.5 -50.5t-42.5 -62l-63 50q6 11 14.5 24.5t19.5 27.5q-23 40 -61 40
q-35 0 -64.5 -27.5t-39.5 -67.5q-5 -21 -3.5 -40.5t12 -41t31.5 -46.5t52 -58l-54 -37q-134 160 -108 265q7 27 23.5 52t38 44t46.5 30t50 11q56 0 110 -86q46 54 92 62l19 79h-381l-29 84h652z" />
    <glyph glyph-name="glyph64" horiz-adv-x="618" 
d="M780 444h-121l-112 -451l-81 63l97 388h-201l-12 -47q16 -3 30.5 -15.5t25 -30t15.5 -38t0 -39.5q-35 -139 -211 -189l58 -130l-47 -25q-13 29 -23.5 59t-19.5 59q-5 19 -28 19q-25 0 -40.5 4.5t-22.5 17.5t-6 35t10 58q4 15 20 26.5t33 11.5t30 -45q5 -14 14 -14
q13 0 41 12t56.5 30.5t52 40t28.5 41.5q11 46 -44 46t-159 -43l-26 79q19 7 52.5 15.5t84.5 19.5l10 42h-178l-29 84h674z" />
    <glyph glyph-name="glyph68" horiz-adv-x="468" 
d="M624 226q-22 6 -54 6q-56 0 -101 -48l-50 -203l-82 63l29 88q-63 -46 -117 -46q-31 0 -59.5 14.5t-49 37.5t-30.5 51.5t-3 57.5q7 28 24 53t41 43.5t54 29.5t63 11q25 0 43.5 -4.5t31 -16t21.5 -30t16 -46.5h2l39 157h-332l-29 84h524l29 -84h-100l-39 -158q47 30 103 30
q28 0 40 -5zM391 236q-13 29 -40.5 46.5t-52.5 17.5q-17 0 -35.5 -8t-34.5 -21.5t-28.5 -30.5t-16.5 -35q-6 -24 1.5 -39.5t22.5 -15.5q7 0 32 10t54.5 23.5t57 28.5t40.5 24z" />
    <glyph glyph-name="glyph69" horiz-adv-x="464" 
d="M616 256q-4 -19 -18.5 -38.5t-35 -35t-44.5 -25.5t-48 -10q-32 0 -57 10.5t-40 29t-20.5 44t2.5 55.5q6 24 21 44.5t37.5 36.5t50 25t59.5 9q25 0 45.5 -12t34 -32t17 -46.5t-3.5 -54.5zM621 80q-159 -80 -232 -80q-74 0 -142.5 54.5t-120.5 154.5q-20 35 -15 53
q1 6 6 12.5t11.5 12.5t12.5 10t11 4q3 0 10 -3t15 -6.5t15.5 -6.5t9.5 -3q11 0 15 18l36 144h-144l-29 84h531l29 -84h-301l-40 -160q-15 -62 -93 -107q54 -101 163 -101q21 0 54.5 8t71 21.5t72.5 30t61 33.5zM587 289q4 18 -11 30t-44 12q-49 0 -81.5 -24t-40.5 -57
q-10 -39 30 -39q18 0 42.5 7.5t46 18.5t38 25t20.5 27z" />
    <glyph glyph-name="glyph70" horiz-adv-x="281" 
d="M442 444h-113l-62 -250q-12 -46 -44 -46q-9 0 -28 15.5t-38 36.5t-32 43t-10 35q2 7 13.5 15.5t20.5 8.5h53l35 142h-130l-29 84h335z" />
    <glyph glyph-name="glyph71" horiz-adv-x="278" 
d="M429 165q-105 -81 -175 -81q-29 0 -54.5 16t-42.5 41t-24.5 54t-0.5 55q14 56 90 83v2q-85 30 -68 102l2 7h-47l-29 84h335l29 -84h-174q-16 -9 -25 -44q-9 -37 26 -56q17 3 30.5 5t24.5 2q4 0 9.5 -10t10 -22.5t7.5 -24.5t2 -15q-3 -12 -20 -12q-135 0 -152 -68
q-3 -14 12 -24.5t47 -10.5q77 0 211 97z" />
    <glyph glyph-name="glyph72" horiz-adv-x="623" 
d="M813 444h-304l-28 -112q-6 -24 -23 -24h-126q-58 0 -70 -51q-7 -27 20 -28l22 3q23 4 51 8.5t50 7.5l23 4q12 0 21 -2t16 -8t14 -17.5t14 -30.5q21 -56 15 -81q-6 -23 -22.5 -44.5t-39 -38.5t-49.5 -27t-54 -10q-38 0 -70.5 8.5t-62.5 28.5t-60 52t-64 80l41 28
q77 -117 189 -117q24 0 48 7t44.5 18.5t35 26t18.5 28.5q3 15 -20 15q-4 0 -23.5 -3.5t-43 -8t-44 -8t-26.5 -3.5q-21 0 -42.5 17.5t-37.5 43t-24 54t-2 51.5q19 77 108 77h102l14 56h-314l-29 84h704zM508 -262q-18 27 -36.5 51.5t-37 43.5t-39.5 30t-43 11t-70 -9
q-27 68 -31 94q31 3 52 3q72 0 108 -40q26 -29 60 -66.5t76 -85.5zM676 271l-94 -75l-57 76l94 75z" />
    <glyph glyph-name="glyph73" horiz-adv-x="348" 
d="M527 444h-418l-29 84h418zM514 168q-126 -94 -194 -94q-29 0 -55 13.5t-44 35t-26 47.5t-2 50q9 36 32 61h-59l-29 84h315l29 -84h-56q-26 0 -45.5 -2.5t-34.5 -8.5t-28 -16t-26 -25q-26 -28 -33 -55q-8 -30 27 -30q88 0 252 138z" />
    <glyph glyph-name="glyph74" horiz-adv-x="562" 
d="M726 444h-147l-14 -57q12 -11 22.5 -28t17.5 -36t9.5 -38.5t-1.5 -34.5q-13 -50 -48.5 -96.5t-83 -82t-101 -57t-102.5 -21.5q-32 0 -62.5 14t-53.5 35.5t-34.5 47.5t-4.5 51q9 38 48 64q-10 9 -19.5 23.5t-16.5 30t-10 31t0 27.5q9 36 45.5 61.5t85.5 25.5q11 0 21 -1.5
t21 -3.5l22 -81q-20 6 -58 6q-26 0 -46 -13.5t-26 -34.5q-6 -24 23 -45q9 5 32.5 10.5t44.5 5.5q12 0 15 -1l17 -88q-119 0 -134 -58q-9 -37 52 -37q23 0 52 7t57.5 18.5t54.5 26.5t44 32q-109 66 -90 145q10 39 42 69t81 36l12 47h-385l-29 84h618zM500 -261
q-6 27 -18 51.5t-27.5 43.5t-36 30t-42.5 11t-70 -9q-27 68 -30 94q30 3 51 3q72 0 108 -40q26 -29 60 -66.5t76 -85.5zM542 286q14 55 -18 55q-25 0 -49 -22.5t-31 -51.5q-12 -48 32 -91q8 7 18.5 21t20 30t17 32t10.5 27z" />
    <glyph glyph-name="glyph75" horiz-adv-x="370" 
d="M542 444h-433l-29 84h433zM554 284h-179q51 -55 29 -140q-3 -15 -14 -28.5t-25.5 -24t-32 -16.5t-33.5 -6q-125 0 -173 255l42 17q42 -178 112 -178q23 0 39.5 14.5t22.5 36.5q7 29 -5 62t-41 70l14 22h249z" />
    <glyph glyph-name="glyph76" horiz-adv-x="389" 
d="M524 201q-33 -19 -67 -19q-24 0 -81 25h-2q30 -47 18 -97q-5 -18 -26.5 -40t-51 -41.5t-64 -33.5t-65.5 -17l46 -122l-48 -25q-7 28 -17 60t-21 67q-4 8 -16.5 11.5t-26.5 7t-26 10t-16 21.5q-1 13 12 68q4 13 16 23t25 10q34 0 40 -54q28 1 58 11t56 25t44.5 32.5
t21.5 32.5q4 16 -13 16q-1 0 -16 -4t-34 -9.5t-38 -9.5t-26 -4q-20 0 -37.5 16t-30 40t-17.5 52t0 51q10 38 32.5 60.5t50.5 22.5h140l14 57h-248l-29 84h440l29 -84h-106l-28 -113q-6 -24 -23 -24h-164q-18 0 -34 -14.5t-21 -34.5q-7 -29 12 -29q-2 0 18.5 4t46 9.5
t47.5 9.5t23 4q11 0 18 -2.5t11.5 -5t8.5 -5t9 -2.5q19 0 42.5 5t48.5 14.5t49 22t43 27.5z" />
    <glyph glyph-name="glyph77" horiz-adv-x="386" 
d="M545 444h-436l-29 84h436zM525 195q-22 -2 -39.5 -3t-29.5 -1h-10q-22 -49 -66 -78t-95 -29q-111 0 -178 162l38 24q27 -58 54 -82t67 -24q22 0 44 8.5t40 22.5t31 32t17 37q6 22 -1.5 36t-20.5 14q-34 0 -98 -61l-46 83q59 42 103 42q24 0 44.5 -9t36.5 -24t26.5 -35.5
t14.5 -44.5q13 1 35.5 5.5t55.5 14.5z" />
    <glyph glyph-name="glyph78" horiz-adv-x="480" 
d="M642 444h-179l-30 -122q-3 -11 -6 -18t-14.5 -12.5t-34.5 -11.5t-64 -15q-42 -9 -68.5 -17.5t-43 -19.5t-25.5 -25.5t-14 -35.5q-16 -64 66 -64q76 0 209 82l23 -88q-20 -13 -44 -24.5t-49 -20.5t-48 -14t-39 -5q-47 0 -85 15.5t-61.5 42.5t-33 62t0.5 74q24 96 165 120
q49 8 67.5 15.5t22.5 23.5l14 58h-261l-29 84h532zM502 -229q-18 27 -36.5 51.5t-37 43.5t-39.5 30t-43 11t-70 -9q-27 68 -30 94q30 3 51 3q72 0 108 -40q26 -29 60 -66.5t76 -85.5z" />
    <glyph glyph-name="glyph79" horiz-adv-x="482" 
d="M645 444h-170q0 -46 -4 -60q-8 -32 -36 -69q80 -74 62 -145q-9 -34 -29 -62t-48.5 -48.5t-64.5 -32t-76 -11.5q-47 0 -84 18t-61 48t-32.5 68.5t1.5 79.5q33 132 219 132q52 0 63 45q0 2 1.5 11.5t3.5 25.5h-284l-29 84h539zM478 -246q-18 27 -36.5 51.5t-37 43.5
t-39.5 30t-43 11t-70 -9q-27 68 -31 94q31 3 52 3q72 0 108 -40q26 -29 60 -66.5t76 -85.5zM419 202q21 84 -60 84q-91 0 -134.5 -24t-57.5 -81q-12 -45 9.5 -70t66.5 -25q29 0 58 9.5t53.5 25.5t41.5 37t23 44z" />
    <glyph glyph-name="glyph80" horiz-adv-x="526" 
d="M688 444h-136l-28 -112q-6 -24 -23 -24h-168q-58 0 -70 -51q-7 -27 20 -28l11 2q12 2 29 4.5t37 5.5t38 5.5t29.5 4t12.5 1.5q12 0 21 -2t16 -8t14 -17.5t14 -30.5q21 -56 15 -81q-6 -23 -22.5 -44.5t-39 -38.5t-49.5 -27t-54 -10q-43 0 -77.5 8.5t-65.5 28t-61 52
t-64 80.5l41 28q77 -117 186 -117q24 0 48 7t44.5 18.5t35 26t18.5 28.5q3 15 -20 15q-4 0 -23 -3.5t-42.5 -8t-44 -8t-26.5 -3.5q-21 0 -42 17.5t-36.5 43t-23.5 54t-2 51.5q19 77 108 77h144l14 56h-357l-29 84h579zM518 -263q-18 27 -36.5 51.5t-37.5 43.5t-39.5 30
t-42.5 11t-70 -9q-27 68 -31 94q31 3 52 3q72 0 108 -40q26 -29 60 -66.5t76 -85.5z" />
    <glyph glyph-name="glyph81" horiz-adv-x="480" 
d="M642 444h-129l-29 -118q-6 -24 -23 -24h-163q-22 0 -43 -9t-38 -23.5t-29.5 -34t-17.5 -40.5q-10 -40 4 -64t61 -40q2 26 4 46.5t6 35.5q4 19 16 36.5t30 30.5t39.5 21t45.5 8q50 0 71.5 -20.5t28.5 -72.5q6 -39 1 -59q-6 -21 -22 -41t-38.5 -35.5t-50.5 -25t-57 -9.5
q-51 0 -92.5 22t-69 57.5t-38.5 80.5t1 91q6 27 23 50t40 39.5t52 26t61 9.5h126l15 62h-318l-29 84h533zM495 -249q-18 27 -36.5 51.5t-37 43.5t-39.5 30t-43 11t-70 -9q-27 68 -30 94q30 3 51 3q72 0 108 -40q26 -29 60 -66.5t76 -85.5zM433 167q7 26 -46 26
q-15 0 -32 -7.5t-32 -20.5t-26 -30t-16 -36q-2 -10 -0.5 -12t11.5 -2q22 0 45.5 7.5t43.5 19.5t34.5 26.5t17.5 28.5z" />
    <glyph glyph-name="glyph82" horiz-adv-x="430" 
d="M590 444h-108l-63 -252q-4 -18 -17.5 -35.5t-32 -31t-41 -21.5t-45.5 -8q-26 0 -54 16.5t-51.5 42t-36 54.5t-6.5 55l45 180h-71l-29 84h481zM390 444h-118l-55 -222q-12 -46 36 -46q29 0 55 20.5t34 55.5z" />
    <glyph glyph-name="glyph83" horiz-adv-x="222" 
d="M388 444h-279l-29 84h279zM404 281h-106q-51 0 -79 -21.5t-39 -66.5q-17 -66 42 -165l-43 -28q-28 59 -44 98t-23.5 67.5t-7 50t5.5 44.5q12 45 56.5 75t108.5 30h150z" />
    <glyph glyph-name="glyph84" horiz-adv-x="333" 
d="M467 149q-117 -86 -187 -86q-41 0 -74 23t-57 51.5t-37 53t-12 27.5q0 2 14 7t34 12.5t43.5 17.5t43.5 22q-101 69 -85 134q6 25 21 46.5t35.5 37.5t45 25t50.5 9q28 0 53.5 -17t42.5 -42.5t24.5 -56.5t0.5 -59q-24 -96 -203 -172q-2 -5 -3.5 -9t-2.5 -7q-8 -33 35 -33
q19 0 49 11t64.5 30t69.5 44t65 54zM359 403q12 50 -40 50q-29 0 -53 -21t-31 -50q-11 -45 42 -80q66 37 82 101z" />
    <glyph glyph-name="glyph85" horiz-adv-x="450" 
d="M610 444h-111l-34 -138q-6 -24 -23 -24h-170q-36 0 -64 -23.5t-38 -65.5q-6 -21 -2.5 -39t13 -31t24 -20.5t32.5 -7.5q25 0 48.5 11.5t25.5 20.5q1 5 -3 19t0 30q3 9 15 17.5t25 8.5q12 0 28.5 -10t30.5 -25t23.5 -31.5t6.5 -28.5q-8 -31 -50 -53l46 -134l-52 -23
l-36 140q-18 -12 -67 -12q-45 0 -81.5 18t-60 49t-31.5 73t4 90q27 107 151 107h133l20 82h-309l-29 84h506zM380 -277q-2 27 -12 51.5t-25 43.5t-35 30t-42 11t-70 -9q-27 68 -30 94q30 3 51 3q72 0 108 -40q26 -29 60 -66.5t76 -85.5z" />
    <glyph glyph-name="glyph132" horiz-adv-x="315" 
d="M478 444h-33l-29 84h33zM438 148q-101 -74 -187 -74q-30 0 -57.5 13.5t-47 35t-28 48t-2.5 52.5q17 67 113 90v2q-19 6 -36 17.5t-27 26.5t-14.5 32.5t0.5 35.5q11 43 50 72.5t90 29.5q22 0 40.5 -7.5t30 -21t15.5 -31t-1 -38.5q-9 -34 -44.5 -57t-77.5 -23
q-3 0 -5.5 0.5t-5.5 0.5q-3 -14 23 -20t77 -6l26 -83q-35 3 -46 3q-66 0 -105.5 -16.5t-46.5 -42.5q-9 -37 72 -37q19 0 45.5 8t56.5 22.5t61 33.5t58 41zM332 429q5 19 -6 31.5t-31 12.5t-39.5 -15t-25.5 -39q-4 -15 -2.5 -22.5t6.5 -11.5t12.5 -4.5t16.5 -0.5
q25 0 44.5 14.5t24.5 34.5z" />
    <glyph glyph-name="glyph133" horiz-adv-x="262" 
d="M423 444h-314l-29 84h314zM383 218h-133q-18 0 -23 -19l-9 -36q-6 -23 -37 -23q-10 0 -23 16t-24 38t-17 44.5t-3 36.5q2 9 12.5 18t20.5 9h257z" />
    <glyph glyph-name="glyph134" horiz-adv-x="234" 
d="M378 172q-79 -47 -119 -47q-23 0 -47.5 13t-43.5 33.5t-29 44.5t-4 47l45 181h-71l-29 84h289l29 -84h-126l-54 -217q-8 -32 21 -32q50 0 168 92z" />
    <glyph glyph-name="glyph89" horiz-adv-x="453" 
d="M616 220q-14 11 -43 11q-8 0 -24 -3.5t-33.5 -9t-34.5 -12.5t-25 -13l-50 -200l-80 63l26 88q-23 -19 -93 -19q-23 0 -47.5 13t-43.5 33.5t-29 44.5t-4 47l45 181h-71l-29 84h519l29 -84h-110l-39 -156q44 27 94 27q40 0 57 -8zM426 444h-154l-54 -217q-8 -32 21 -32
q11 0 30 5t39 13t39 18t31 21z" />
    <glyph glyph-name="glyph90" horiz-adv-x="300" 
d="M529 444h-420l-29 84h420zM469 208q-6 -24 -26 -46t-49.5 -38t-66 -25.5t-75.5 -9.5t-69 15t-48.5 39.5t-24.5 57t3 68.5q6 27 24 51t44 42t58.5 28.5t69.5 10.5q40 0 73.5 -17t55.5 -45t31 -62.5t0 -68.5zM415 272q6 24 -11.5 41.5t-50.5 17.5q-35 0 -58 -10l44 -133
q63 31 76 84zM248 301q-27 -11 -50 -36.5t-29 -48.5q-15 -63 60 -63q32 0 64 13z" />
    <glyph glyph-name="glyph91" horiz-adv-x="369" 
d="M529 444h-45l-29 84h45zM513 171h-190q-12 -42 -22 -56.5t-26 -14.5q-12 0 -29.5 15t-33.5 35.5t-26.5 41.5t-7.5 34q7 30 36 30h50l13 32q-150 37 -125 139q5 21 17 39t29 32t38.5 22t45.5 8q31 0 54 -13t35.5 -35.5t15 -52.5t-5.5 -63l-30 -109h183zM315 412
q8 30 0.5 45t-23.5 15q-8 0 -18 -5.5t-19.5 -14t-16.5 -19.5t-10 -23q-16 -64 63 -78z" />
    <glyph glyph-name="glyph92" horiz-adv-x="266" 
d="M417 174h-182l-11 -45q-6 -22 -32 -22q-11 0 -27 16t-30 37.5t-23.5 43.5t-6.5 34q5 22 30 22h29l46 184h-101l-29 84h318l29 -84h-125l-46 -186h182z" />
    <glyph glyph-name="glyph93" horiz-adv-x="278" 
d="M430 171q-98 -69 -164 -69q-33 0 -60 16.5t-45 45.5t-27.5 69t-8.5 87q15 2 38.5 8t46.5 14.5t40.5 19t20.5 22.5q7 28 -6 60h-155l-29 84h335l29 -84h-123q19 -107 13 -130q-7 -28 -93 -47q-44 -11 -51 -39q-11 -46 55 -46q16 0 40.5 7t53.5 19.5t59 29t57 35.5z" />
    <glyph glyph-name="glyph94" horiz-adv-x="427" 
d="M586 444h-100l-112 -451l-78 63l12 36q-50 -40 -98 -40q-32 0 -58 12t-44 34t-26.5 52t-5.5 65q27 4 51.5 11.5t43.5 16.5t31 19t15 19q13 53 -65 53h-186l-22 78h185q34 0 62.5 -15t47 -39.5t25 -55.5t-1.5 -62q-14 -58 -84 -78q-18 -5 -23 -25q-3 -11 6 -20t26 -9
q13 0 31 8t38 21.5t41 32.5t39 40l58 234h-490l-29 84h682z" />
    <glyph glyph-name="glyph95" horiz-adv-x="356" 
d="M518 444h-169l-44 -176q-12 -51 -89 -98q16 -42 93 -148l-45 -35l-116 207q-21 37 -27.5 58t-4.5 31q2 9 15 19.5t22 10.5q6 0 15 -4t18 -8.5t16.5 -8.5t10.5 -4q11 0 16 18l34 138h-154l-29 84h409zM348 -231q-18 27 -36.5 51.5t-37.5 43.5t-39.5 30t-42.5 11t-70 -9
q-27 68 -31 94q31 3 52 3q72 0 108 -40q26 -29 60 -66.5t76 -85.5z" />
    <glyph glyph-name="glyph96" horiz-adv-x="383" 
d="M551 444h-440l-29 84h440zM556 275q-21 9 -49 9q-18 0 -33 -5t-31 -17.5t-35 -34.5t-44 -55l-62 50q5 11 13 24t20 27q-12 32 -53 32q-35 0 -64.5 -27.5t-39.5 -67.5q-5 -21 -3.5 -40.5t12 -41t31.5 -46.5t52 -58l-54 -37q-134 160 -108 265q7 27 23.5 52t38 44t46.5 30
t50 11q58 0 100 -81q61 60 110 60q45 0 93 -67z" />
    <glyph glyph-name="glyph97" horiz-adv-x="596" 
d="M758 444h-179l-17 -69q49 -12 69 -56t6 -101q-13 -51 -55.5 -102t-102.5 -86l-56 64q29 18 56 41t48 46.5t34.5 46t17.5 40.5q7 25 -2.5 39t-26.5 14q-19 0 -41.5 -12t-46.5 -33.5t-47.5 -50.5t-42.5 -62l-63 50q6 11 14.5 24.5t19.5 27.5q-23 40 -61 40
q-35 0 -64.5 -27.5t-39.5 -67.5q-5 -21 -3.5 -40.5t12 -41t31.5 -46.5t52 -58l-54 -37q-134 160 -108 265q7 27 23.5 52t38 44t46.5 30t50 11q56 0 110 -86q46 54 92 62l19 79h-381l-29 84h652zM607 -225q-18 27 -36.5 51.5t-37 43.5t-39.5 30t-43 11t-70 -9q-27 68 -30 94
q30 3 51 3q72 0 108 -40q26 -29 60 -66.5t76 -85.5z" />
    <glyph glyph-name="glyph98" horiz-adv-x="552" 
d="M734 444h-627l-29 84h627zM646 202q-9 -35 -29 -65.5t-46.5 -53.5t-56.5 -36.5t-58 -13.5q-36 0 -58 18t-42 63q-62 -81 -138 -81q-32 0 -58.5 15t-43 39.5t-22 56.5t3.5 66q9 35 28.5 65t45.5 51.5t57 33.5t63 12q78 0 104 -74q68 74 149 74q28 0 51 -11t37.5 -32
t18.5 -53t-6 -74zM586 243q15 60 -36 60q-59 0 -166 -154q22 -36 65 -36q21 0 42.5 11t40.5 29t33.5 41.5t20.5 48.5zM370 267q-3 4 -10 8.5t-15.5 8t-17.5 6t-17 2.5q-22 0 -46 -11.5t-46 -29.5t-39 -40.5t-22 -44.5q-16 -63 47 -63q15 0 30.5 8.5t35 28t44 50.5t56.5 77z
" />
    <glyph glyph-name="glyph99" horiz-adv-x="276" 
d="M433 444h-324l-29 84h324zM412 160q-108 -70 -169 -70q-30 0 -57.5 16t-46.5 41t-27 56t-1 61q7 27 25.5 51t44 42t56 28.5t62.5 10.5t53 -7t36 -21t27 -36t27 -53zM417 257q-42 55 -115 55q-20 0 -38.5 -8t-34.5 -21.5t-27.5 -31.5t-16.5 -37q-14 -54 36 -54q10 0 34 8
t53 20.5t57 27.5t49 29z" />
    <glyph glyph-name="glyph100" horiz-adv-x="389" 
d="M546 444h-124q42 -59 28 -116q-8 -33 -29.5 -67.5t-53.5 -66.5t-72 -60t-85 -49l58 -130l-47 -25q-13 29 -23.5 59t-19.5 59q-5 19 -28 19q-25 0 -40.5 4.5t-22.5 17.5t-6 35t10 58q4 15 20 26.5t33 11.5t30 -45q5 -14 14 -14q32 0 109 70q-85 35 -117.5 69t-22.5 77
q10 38 46 67h-94l-29 84h437zM372 360q11 42 1 67t-39 25q-24 0 -45.5 -19t-29.5 -51q-19 -74 62 -119q36 34 51 97z" />
    <glyph glyph-name="glyph101" horiz-adv-x="388" 
d="M547 444h-185l-12 -47q16 -3 30.5 -15.5t25 -30t15.5 -38t0 -39.5q-35 -139 -211 -189l58 -130l-47 -25q-13 29 -23.5 59t-19.5 59q-5 19 -28 19q-25 0 -40.5 4.5t-22.5 17.5t-6 35t10 58q4 15 20 26.5t33 11.5t30 -45q5 -14 14 -14q13 0 41 12t56.5 30.5t52 40
t28.5 41.5q11 46 -44 46t-159 -43l-26 79q19 7 52.5 15.5t84.5 19.5l10 42h-178l-29 84h441z" />
    <glyph glyph-name="glyph102" horiz-adv-x="274" 
d="M485 444h-213l-2 -10l142 -166l-22 -91q-77 -59 -133 -59q-23 0 -47.5 13t-43 33.5t-28.5 44.5t-5 47l47 188h-70l-29 84h375zM255 374l-39 -154q-8 -32 21 -32q40 0 127 63z" />
    <glyph glyph-name="glyph103" horiz-adv-x="333" 
d="M490 205q-58 -30 -123 -30q-33 0 -79 50q-24 -28 -87 -71q12 -25 35.5 -63t58.5 -89l-48 -36l-112 218q-29 58 -20 94q3 14 18.5 24.5t28.5 10.5q4 0 11 -4.5t15 -10t13.5 -10t7.5 -4.5q5 0 8 12l37 148h-145l-29 84h385l29 -84h-148l-43 -175q26 -10 71 -10q39 0 138 35
z" />
    <glyph glyph-name="glyph104" horiz-adv-x="360" 
d="M564 444h-126l-28 -113q-6 -24 -23 -24h-132q-57 0 -67 -42q-6 -24 8 -35q8 5 25 10.5t36 10.5t38 8t31 3q93 0 154 -38l-10 -43q-28 21 -123 21q-29 0 -57.5 -8.5t-52.5 -24t-42 -36.5t-24 -46q-24 -98 152 -145l-29 -38q-56 13 -98.5 35t-70 49t-38 58.5t-2.5 63.5
q12 50 70 96q-9 10 -15.5 25t-10.5 31t-5 31.5t1 25.5q17 68 105 68h108l14 57h-245l-29 84h457z" />
    <glyph glyph-name="ch233" horiz-adv-x="670" 
d="M832 444h-298l-37 -149q9 6 23 13t29.5 13.5t30.5 10.5t24 4q25 0 46 -13.5t34 -37t16.5 -54t-5.5 -63.5q-3 -15 -13 -36.5t-23 -44t-28 -43.5t-29 -36l-68 62q16 19 34 43t33 47t26 41.5t14 27.5q3 12 -4.5 21.5t-18.5 9.5q-8 0 -29 -9t-44.5 -21t-45 -25t-30.5 -21
l-50 -203l-82 63l29 88q-63 -46 -117 -46q-31 0 -59.5 14.5t-49 37.5t-30.5 51.5t-3 57.5q7 28 24 53t41 43.5t54 29.5t63 11q25 0 43.5 -4.5t31 -16t21.5 -30t16 -46.5h2l39 157h-334l-29 84h724zM605 -265q-35 27 -63 51.5t-51 43.5t-44.5 30t-43.5 11t-70 -9
q-27 68 -30 94q30 3 51 3q72 0 108 -40q26 -29 60 -66.5t76 -85.5zM391 236q-13 29 -40.5 46.5t-52.5 17.5q-17 0 -35.5 -8t-34.5 -21.5t-28.5 -30.5t-16.5 -35q-6 -24 1.5 -39.5t22.5 -15.5q7 0 32 10t54.5 23.5t57 28.5t40.5 24z" />
    <glyph glyph-name="ch234" horiz-adv-x="724" 
d="M886 444h-100l-112 -451l-84 63q-133 -69 -224 -69q-124 0 -240 222q-20 35 -15 53q1 6 6 12.5t11.5 12.5t12.5 10t11 4q3 0 10 -3t15 -6.5t15.5 -6.5t9.5 -3q11 0 15 18l36 144h-144l-29 84h777zM758 -245q-18 27 -36.5 51.5t-37 43.5t-39.5 30t-43 11t-70 -9
q-27 68 -30 94q30 3 51 3q72 0 108 -40q26 -29 60 -66.5t76 -85.5zM656 278q-38 50 -108 50q-18 0 -36 -7t-33.5 -18.5t-26.5 -26t-15 -29.5q-9 -38 27 -38q9 0 36.5 8t58.5 19.5t59 23t38 18.5zM635 193q-14 -8 -36 -16.5t-44.5 -15.5t-42.5 -11.5t-31 -4.5q-27 0 -49.5 11
t-37 30.5t-20 44.5t2.5 54q6 24 22.5 45.5t40 38t50.5 26t54 9.5q19 0 32 -2t24.5 -7t21.5 -15t22 -26l19 -26h2l29 116h-349l-40 -160q-4 -18 -11 -32t-19 -27t-29 -25t-41 -26q56 -107 174 -107q18 0 49.5 7t66 18.5t69 25.5t59.5 29z" />
    <glyph glyph-name="glyph107" horiz-adv-x="488" 
d="M648 444h-100l-112 -451l-81 63l97 388h-123l-62 -250q-12 -46 -44 -46q-9 0 -28 15.5t-38 36.5t-32 43t-10 35q2 7 13.5 15.5t20.5 8.5h53l35 142h-128l-29 84h539zM549 -251q-18 27 -36.5 51.5t-37.5 43.5t-39.5 30t-42.5 11t-70 -9q-27 68 -31 94q31 3 52 3
q72 0 108 -40q26 -29 60 -66.5t76 -85.5z" />
    <glyph glyph-name="glyph108" horiz-adv-x="534" 
d="M696 444h-121l-112 -451l-81 63l26 93q-91 -65 -154 -65q-29 0 -54.5 16t-42.5 41t-24.5 54t-0.5 55q14 56 90 83v2q-85 30 -68 102l2 7h-47l-29 84h587zM565 -251q-18 27 -36.5 51.5t-37.5 43.5t-39.5 30t-42.5 11t-70 -9q-27 68 -31 94q31 3 52 3q72 0 108 -40
q26 -29 60 -66.5t76 -85.5zM486 444h-216q-16 -9 -25 -44q-9 -37 26 -56q17 3 30.5 5t24.5 2q4 0 9.5 -10t10 -22.5t7.5 -24.5t2 -15q-3 -12 -20 -12q-135 0 -152 -68q-3 -14 12 -24.5t47 -10.5q69 0 195 84z" />
    <glyph glyph-name="glyph109" horiz-adv-x="625" 
d="M813 444h-305l-28 -112q-6 -24 -23 -24h-125q-58 0 -70 -51q-7 -27 20 -28l22 3q23 4 51 8.5t50 7.5l23 4q12 0 21 -2t16 -8t14 -17.5t14 -30.5q21 -56 15 -81q-6 -23 -22.5 -44.5t-39 -38.5t-49.5 -27t-54 -10q-38 0 -70.5 8.5t-62.5 28.5t-60 52t-64 80l41 28
q77 -117 189 -117q24 0 48 7t44.5 18.5t35 26t18.5 28.5q3 15 -20 15q-4 0 -23.5 -3.5t-43 -8t-44 -8t-26.5 -3.5q-21 0 -42.5 17.5t-37.5 43t-24 54t-2 51.5q19 77 108 77h101l14 56h-313l-29 84h704zM530 -253q-18 27 -36.5 51.5t-37 43.5t-39.5 30t-43 11t-70 -9
q-27 68 -30 94q30 3 51 3q72 0 108 -40q26 -29 60 -66.5t76 -85.5zM676 271l-94 -75l-57 76l94 75z" />
    <glyph glyph-name="glyph110" horiz-adv-x="596" 
d="M757 444h-100l-112 -451l-80 63l30 97q-108 -79 -175 -79q-29 0 -55 13.5t-44 35t-26 47.5t-2 50q9 36 32 61h-59l-29 84h336l29 -84h-77q-26 0 -45.5 -2.5t-34.5 -8.5t-28 -16t-26 -25q-26 -28 -33 -55q-8 -30 27 -30q88 0 237 125l43 175h-456l-29 84h648zM660 -253
q-18 27 -36.5 51.5t-37 43.5t-39.5 30t-43 11t-70 -9q-27 68 -30 94q30 3 51 3q72 0 108 -40q26 -29 60 -66.5t76 -85.5z" />
    <glyph glyph-name="glyph111" horiz-adv-x="562" 
d="M726 444h-147l-14 -57q12 -11 22.5 -28t17.5 -36t9.5 -38.5t-1.5 -34.5q-13 -50 -48.5 -96.5t-83 -82t-101 -57t-102.5 -21.5q-32 0 -62.5 14t-53.5 35.5t-34.5 47.5t-4.5 51q9 38 48 64q-10 9 -19.5 23.5t-16.5 30t-10 31t0 27.5q9 36 45.5 61.5t85.5 25.5q11 0 21 -1.5
t21 -3.5l22 -81q-20 6 -58 6q-26 0 -46 -13.5t-26 -34.5q-6 -24 23 -45q9 5 32.5 10.5t44.5 5.5q12 0 15 -1l17 -88q-119 0 -134 -58q-9 -37 52 -37q23 0 52 7t57.5 18.5t54.5 26.5t44 32q-109 66 -90 145q10 39 42 69t81 36l12 47h-385l-29 84h618zM502 -255
q-3 27 -13.5 51.5t-26 43.5t-35 30t-41.5 11t-70 -9q-27 68 -31 94q31 3 52 3q72 0 108 -40q26 -29 60 -66.5t76 -85.5zM542 286q14 55 -18 55q-25 0 -49 -22.5t-31 -51.5q-12 -48 32 -91q8 7 18.5 21t20 30t17 32t10.5 27z" />
    <glyph glyph-name="glyph112" horiz-adv-x="590" 
d="M750 444h-100l-112 -451l-80 63l57 228h-137q51 -84 41 -127q-9 -33 -41 -55.5t-74 -22.5q-140 0 -179 244l40 19q37 -169 113 -169q24 0 42 12t22 29q10 40 -53 132l14 22h236l19 76h-449l-29 84h641zM656 -247q-18 27 -36.5 51.5t-37.5 43.5t-39.5 30t-42.5 11t-70 -9
q-27 68 -31 94q31 3 52 3q72 0 108 -40q26 -29 60 -66.5t76 -85.5z" />
    <glyph glyph-name="glyph113" horiz-adv-x="630" 
d="M792 444h-121l-112 -451l-81 63l39 141q-33 -15 -60 -15q-24 0 -81 25h-2q30 -47 18 -97q-5 -18 -26.5 -40t-51 -41.5t-64 -33.5t-65.5 -17l46 -122l-48 -25q-7 28 -17 60t-21 67q-4 8 -16.5 11.5t-26.5 7t-26 10t-16 21.5q-1 13 12 68q4 13 16 23t25 10q34 0 40 -54
q28 1 58 11t56 25t44.5 32.5t21.5 32.5q4 16 -13 16q-1 0 -16 -4t-34 -9.5t-38 -9.5t-26 -4q-20 0 -37.5 16t-30 40t-17.5 52t0 51q10 38 32.5 60.5t50.5 22.5h140l14 57h-248l-29 84h682zM681 -251q-18 27 -36.5 51.5t-37.5 43.5t-39.5 30t-42.5 11t-70 -9q-27 68 -31 94
q31 3 52 3q72 0 108 -40q26 -29 60 -66.5t76 -85.5zM582 444h-138l-28 -113q-6 -24 -23 -24h-164q-18 0 -34 -14.5t-21 -34.5q-7 -29 12 -29q-2 0 18.5 4t46 9.5t47.5 9.5t23 4q12 0 18.5 -2.5t11 -5t8.5 -5t11 -2.5q19 0 41.5 4.5t46.5 13t47 20.5t43 27z" />
    <glyph glyph-name="glyph160" horiz-adv-x="632" 
d="M793 444h-121l-112 -451l-77 65l35 136q-18 -2 -33 -3t-26 -1q-4 0 -7 0.5t-6 0.5q-22 -49 -66 -78t-95 -29q-111 0 -178 162l38 24q27 -58 54 -82t67 -24q22 0 44 8.5t40 22.5t31 32t17 37q6 22 -1.5 36t-20.5 14q-34 0 -98 -61l-46 83q59 42 103 42q24 0 44.5 -9
t36.5 -24t26.5 -35.5t14.5 -44.5q28 2 84 18l42 161h-474l-29 84h684zM671 -249q-18 27 -36.5 51.5t-37 43.5t-39.5 30t-43 11t-70 -9q-27 68 -30 94q30 3 51 3q72 0 108 -40q26 -29 60 -66.5t76 -85.5z" />
    <glyph glyph-name="glyph161" horiz-adv-x="480" 
d="M642 444h-179l-30 -122q-3 -11 -6 -18t-14.5 -12.5t-34.5 -11.5t-64 -15q-42 -9 -68.5 -17.5t-43 -19.5t-25.5 -25.5t-14 -35.5q-16 -64 66 -64q76 0 209 82l23 -88q-20 -13 -44 -24.5t-49 -20.5t-48 -14t-39 -5q-47 0 -85 15.5t-61.5 42.5t-33 62t0.5 74q24 96 165 120
q49 8 67.5 15.5t22.5 23.5l14 58h-261l-29 84h532zM507 -233q-18 27 -36.5 51.5t-37 43.5t-39.5 30t-43 11t-70 -9q-27 68 -30 94q30 3 51 3q72 0 108 -40q26 -29 60 -66.5t76 -85.5z" />
    <glyph glyph-name="glyph162" horiz-adv-x="484" 
d="M645 444h-170q0 -46 -4 -60q-8 -32 -36 -69q80 -74 62 -145q-9 -34 -29 -62t-48.5 -48.5t-64.5 -32t-76 -11.5q-47 0 -84 18t-61 48t-32.5 68.5t1.5 79.5q33 132 219 132q52 0 63 45q0 2 1.5 11.5t3.5 25.5h-284l-29 84h539zM493 -233q-18 27 -36.5 51.5t-37 43.5
t-39.5 30t-43 11t-70 -9q-27 68 -30 94q30 3 51 3q72 0 108 -40q26 -29 60 -66.5t76 -85.5zM419 202q21 84 -60 84q-91 0 -134.5 -24t-57.5 -81q-12 -45 9.5 -70t66.5 -25q29 0 58 9.5t53.5 25.5t41.5 37t23 44z" />
    <glyph glyph-name="glyph163" horiz-adv-x="526" 
d="M688 444h-136l-28 -112q-6 -24 -23 -24h-168q-58 0 -70 -51q-7 -27 20 -28l11 2q12 2 29 4.5t37 5.5t38 5.5t29.5 4t12.5 1.5q12 0 21 -2t16 -8t14 -17.5t14 -30.5q21 -56 15 -81q-6 -23 -22.5 -44.5t-39 -38.5t-49.5 -27t-54 -10q-43 0 -77.5 8.5t-65.5 28t-61 52
t-64 80.5l41 28q77 -117 186 -117q24 0 48 7t44.5 18.5t35 26t18.5 28.5q3 15 -20 15q-4 0 -23 -3.5t-42.5 -8t-44 -8t-26.5 -3.5q-21 0 -42 17.5t-36.5 43t-23.5 54t-2 51.5q19 77 108 77h144l14 56h-357l-29 84h579zM536 -253q-18 27 -36.5 51.5t-37 43.5t-39.5 30t-43 11
t-70 -9q-27 68 -30 94q30 3 51 3q72 0 108 -40q26 -29 60 -66.5t76 -85.5z" />
    <glyph glyph-name="glyph164" horiz-adv-x="478" 
d="M642 444h-129l-29 -118q-6 -24 -23 -24h-163q-22 0 -43 -9t-38 -23.5t-29.5 -34t-17.5 -40.5q-10 -40 4 -64t61 -40q2 26 4 46.5t6 35.5q4 19 16 36.5t30 30.5t39.5 21t45.5 8q50 0 71.5 -20.5t28.5 -72.5q6 -39 1 -59q-6 -21 -22 -41t-38.5 -35.5t-50.5 -25t-57 -9.5
q-51 0 -92.5 22t-69 57.5t-38.5 80.5t1 91q6 27 23 50t40 39.5t52 26t61 9.5h126l15 62h-318l-29 84h533zM507 -251q-18 27 -36.5 51.5t-37.5 43.5t-39.5 30t-42.5 11t-70 -9q-27 68 -31 94q31 3 52 3q72 0 108 -40q26 -29 60 -66.5t76 -85.5zM433 167q7 26 -46 26
q-15 0 -32 -7.5t-32 -20.5t-26 -30t-16 -36q-2 -10 -0.5 -12t11.5 -2q22 0 45.5 7.5t43.5 19.5t34.5 26.5t17.5 28.5z" />
    <glyph glyph-name="glyph165" horiz-adv-x="664" 
d="M826 444h-121l-112 -451l-81 63l97 388h-127l-63 -252q-4 -18 -17.5 -35.5t-32 -31t-41 -21.5t-45.5 -8q-26 0 -54 16.5t-51.5 42t-36 54.5t-6.5 55l45 180h-71l-29 84h717zM695 -241q-18 27 -36.5 51.5t-37 43.5t-39.5 30t-43 11t-70 -9q-27 68 -30 94q30 3 51 3
q72 0 108 -40q26 -29 60 -66.5t76 -85.5zM390 444h-118l-55 -222q-12 -46 36 -46q29 0 55 20.5t34 55.5z" />
    <glyph glyph-name="glyph166" horiz-adv-x="458" 
d="M618 444h-100l-112 -451l-80 63l57 225h-96q-85 0 -107 -88q-17 -66 42 -165l-43 -28q-28 59 -44 98t-23.5 67.5t-7 50t5.5 44.5q12 45 56.5 75t108.5 30h132l19 79h-317l-29 84h509zM538 -253q-18 27 -36.5 51.5t-37 43.5t-39.5 30t-43 11t-70 -9q-27 68 -30 94
q30 3 51 3q72 0 108 -40q26 -29 60 -66.5t76 -85.5z" />
    <glyph glyph-name="glyph167" horiz-adv-x="554" 
d="M714 444h-101l-112 -451l-80 63l25 77q-104 -71 -166 -71q-48 0 -89 32t-75 89q-7 14 -12.5 21.5t-4.5 11.5q1 3 13.5 7.5t32.5 12t43.5 17.5t45.5 23q-100 69 -84 134q6 25 21 46.5t35.5 37.5t45 25t50.5 9q28 0 53.5 -17t42.5 -42.5t24 -56.5t1 -59q-24 -96 -203 -172
q-3 -5 -4.5 -9t-1.5 -7q-9 -33 34 -33q19 0 48 10.5t60.5 27.5t62.5 38.5t54 43.5l48 192h-61l-29 84h254zM625 -249q-18 27 -36.5 51.5t-37 43.5t-39.5 30t-43 11t-70 -9q-27 68 -30 94q30 3 51 3q72 0 108 -40q26 -29 60 -66.5t76 -85.5zM359 402q12 50 -40 50
q-29 0 -53 -21t-32 -50q-11 -45 43 -80q66 37 82 101z" />
    <glyph glyph-name="glyph168" horiz-adv-x="450" 
d="M610 444h-111l-34 -138q-6 -24 -23 -24h-170q-36 0 -64 -23.5t-38 -65.5q-6 -21 -2.5 -39t13 -31t24 -20.5t32.5 -7.5q25 0 48.5 11.5t25.5 20.5q1 5 -3 19t0 30q3 9 15 17.5t25 8.5q12 0 28.5 -10t30.5 -25t23.5 -31.5t6.5 -28.5q-8 -31 -50 -53l46 -134l-52 -23
l-36 140q-18 -12 -67 -12q-45 0 -81.5 18t-60 49t-31.5 73t4 90q27 107 151 107h133l20 82h-309l-29 84h506zM444 -295q-18 27 -36.5 51.5t-37.5 43.5t-39.5 30t-42.5 11t-70 -9q-27 68 -31 94q31 3 52 3q72 0 108 -40q26 -29 60 -66.5t76 -85.5z" />
    <glyph glyph-name="glyph169" horiz-adv-x="536" 
d="M696 444h-100l-112 -451l-80 63l27 86q-100 -69 -180 -69q-30 0 -58 13.5t-47 35t-28 48t-2 52.5q17 67 112 90l1 2q-20 6 -36.5 17.5t-27 26.5t-14.5 32.5t1 35.5q10 43 49.5 72.5t90.5 29.5q22 0 40 -7.5t30 -21t16 -31t-1 -38.5q-9 -34 -44.5 -57t-77.5 -23
q-3 0 -5.5 0.5t-5.5 0.5q-3 -11 3.5 -14.5t19.5 -4.5t32.5 -1.5t44.5 -5.5l26 -83q-35 3 -46 3q-66 0 -106 -16.5t-46 -42.5q-9 -37 72 -37q18 0 43.5 8t54 21.5t58 31t55.5 36.5l49 198h-33l-29 84h225zM586 -245q-18 27 -36.5 51.5t-37 43.5t-39.5 30t-43 11t-70 -9
q-27 68 -30 94q30 3 51 3q72 0 108 -40q26 -29 60 -66.5t76 -85.5zM332 428q5 19 -6 31.5t-31 12.5q-22 0 -41 -16.5t-25 -39.5q-6 -24 3.5 -30.5t30.5 -6.5q25 0 44.5 14t24.5 35z" />
    <glyph glyph-name="glyph170" horiz-adv-x="456" 
d="M616 444h-100l-112 -451l-80 63l53 210h-115q-18 0 -23 -19l-9 -36q-6 -23 -37 -23q-10 0 -23 16t-24 38t-17 44.5t-3 36.5q2 9 12.5 18t20.5 9h242l23 94h-317l-29 84h509zM531 -251q-18 27 -36.5 51.5t-37.5 43.5t-39.5 30t-42.5 11t-70 -9q-27 68 -31 94q31 3 52 3
q72 0 108 -40q26 -29 60 -66.5t76 -85.5z" />
    <glyph glyph-name="glyph171" horiz-adv-x="458" 
d="M628 444h-110l-112 -451l-80 63l33 109q-47 -40 -100 -40q-23 0 -47.5 13t-43.5 33.5t-29 44.5t-4 47l45 181h-71l-29 84h519zM511 -249q-18 27 -36.5 51.5t-37 43.5t-39.5 30t-43 11t-70 -9q-27 68 -30 94q30 3 51 3q72 0 108 -40q26 -29 60 -66.5t76 -85.5zM426 444
h-154l-54 -217q-8 -32 21 -32q10 0 27 6t37.5 17t41 25.5t39.5 32.5z" />
    <glyph glyph-name="glyph172" horiz-adv-x="664" 
d="M825 444h-307l-32 -129q9 6 23 13t29.5 13.5t30.5 10.5t24 4q25 0 46 -13.5t34 -37t16.5 -54t-5.5 -63.5q-3 -15 -13 -36.5t-23 -44t-28 -43.5t-29 -36l-68 62q16 19 34 43t33 47t26 41.5t14 27.5q3 12 -4.5 21.5t-18.5 9.5q-8 0 -29 -9t-44.5 -21t-45 -25t-30.5 -21
l-52 -211l-80 63l33 109q-47 -40 -100 -40q-23 0 -47.5 13t-43.5 33.5t-29 44.5t-4 47l45 181h-67l-29 84h712zM529 -249q-18 27 -36.5 51.5t-37 43.5t-39.5 30t-43 11t-70 -9q-27 68 -30 94q30 3 51 3q72 0 108 -40q26 -29 60 -66.5t76 -85.5zM426 444h-154l-54 -217
q-8 -32 21 -32q10 0 27 6t37.5 17t41 25.5t39.5 32.5z" />
    <glyph glyph-name="glyph173" horiz-adv-x="520" 
d="M680 444h-100l-112 -451l-80 63l26 84q-83 -51 -162 -51q-39 0 -69 15t-48.5 39.5t-24.5 57t3 68.5q6 27 24 51t44 42t58.5 28.5t69.5 10.5q29 0 51 -4.5t39 -14t29.5 -26t22.5 -40.5h5l32 128h-374l-29 84h566zM596 -247q-18 27 -36.5 51.5t-37.5 43.5t-39.5 30
t-42.5 11t-70 -9q-27 68 -31 94q31 3 52 3q72 0 108 -40q26 -29 60 -66.5t76 -85.5zM415 272q6 24 -11.5 41.5t-50.5 17.5q-35 0 -58 -10l44 -133q63 31 76 84zM248 301q-27 -11 -50 -36.5t-29 -48.5q-15 -63 60 -63q32 0 64 13z" />
    <glyph glyph-name="glyph174" horiz-adv-x="592" 
d="M753 444h-101l-112 -451l-80 63l29 115h-166q-12 -42 -22 -56.5t-26 -14.5q-12 0 -29.5 15t-33.5 35.5t-26.5 41.5t-7.5 34q7 30 36 30h50l13 32q-150 37 -125 139q5 21 17 39t29 32t38.5 22t45.5 8q31 0 54 -13t35.5 -35.5t15.5 -52t-6 -63.5q-15 -61 -30 -109h162
l47 189h-41l-29 84h234zM650 -255q-18 27 -36.5 51.5t-37.5 43.5t-39.5 30t-42.5 11t-70 -9q-27 68 -31 94q31 3 52 3q72 0 108 -40q26 -29 60 -66.5t76 -85.5zM315 412q8 30 0.5 45t-23.5 15q-8 0 -18 -5.5t-19.5 -14t-16.5 -19.5t-10 -23q-16 -64 63 -78z" />
    <glyph glyph-name="glyph129" horiz-adv-x="492" 
d="M652 444h-100l-112 -451l-80 63l30 118h-155l-11 -45q-6 -22 -32 -22q-11 0 -27 16t-30 37.5t-23.5 43.5t-6.5 34q5 22 30 22h29l46 184h-100l-29 84h542zM559 -251q-18 27 -36.5 51.5t-37.5 43.5t-39.5 30t-42.5 11t-70 -9q-27 68 -31 94q31 3 52 3q72 0 108 -40
q26 -29 60 -66.5t76 -85.5zM414 258l46 186h-158l-46 -186h158z" />
    <glyph glyph-name="glyph130" horiz-adv-x="508" 
d="M668 444h-100l-112 -451l-80 63l28 92q-78 -46 -138 -46q-33 0 -60 16.5t-45 45.5t-27.5 69t-8.5 87q15 2 38.5 8t46.5 14.5t40.5 19t20.5 22.5q7 28 -6 60h-157l-29 84h560zM567 -251q-18 27 -36.5 51.5t-37.5 43.5t-39.5 30t-42.5 11t-70 -9q-27 68 -31 94q31 3 52 3
q72 0 108 -40q26 -29 60 -66.5t76 -85.5zM476 444h-154q19 -107 13 -130q-7 -28 -93 -47q-44 -11 -51 -39q-11 -46 55 -46q13 0 37 7t51 18t53 24.5t43 25.5z" />
    <glyph glyph-name="glyph177" horiz-adv-x="356" 
d="M518 444h-169l-44 -176q-12 -51 -89 -98q16 -42 93 -148l-45 -35l-116 207q-21 37 -27.5 58t-4.5 31q2 9 15 19.5t22 10.5q6 0 15 -4t18 -8.5t16.5 -8.5t10.5 -4q11 0 16 18l34 138h-154l-29 84h409zM353 -249q-18 27 -36.5 51.5t-37 43.5t-39.5 30t-43 11t-70 -9
q-27 68 -30 94q30 3 51 3q72 0 108 -40q26 -29 60 -66.5t76 -85.5z" />
    <glyph glyph-name="glyph178" horiz-adv-x="612" 
d="M772 444h-99l-112 -451l-80 63l64 233q-11 3 -22 3q-86 0 -159 -120l-62 50q5 11 13 24t20 27q-12 32 -53 32q-35 0 -64.5 -27.5t-39.5 -67.5q-5 -21 -3.5 -40.5t12 -41t31.5 -46.5t52 -58l-54 -37q-134 160 -108 265q7 27 23.5 52t38 44t46.5 30t50 11q58 0 100 -81
q61 60 110 60q18 0 42 -11.5t35 -26.5l28 114h-473l-29 84h664zM683 -251q-18 27 -36.5 51.5t-37.5 43.5t-39.5 30t-42.5 11t-70 -9q-27 68 -31 94q31 3 52 3q72 0 108 -40q26 -29 60 -66.5t76 -85.5z" />
    <glyph glyph-name="glyph179" horiz-adv-x="596" 
d="M758 444h-179l-17 -69q49 -12 69 -56t6 -101q-13 -51 -55.5 -102t-102.5 -86l-56 64q29 18 56 41t48 46.5t34.5 46t17.5 40.5q7 25 -2.5 39t-26.5 14q-19 0 -41.5 -12t-46.5 -33.5t-47.5 -50.5t-42.5 -62l-63 50q6 11 14.5 24.5t19.5 27.5q-23 40 -61 40
q-35 0 -64.5 -27.5t-39.5 -67.5q-5 -21 -3.5 -40.5t12 -41t31.5 -46.5t52 -58l-54 -37q-134 160 -108 265q7 27 23.5 52t38 44t46.5 30t50 11q56 0 110 -86q46 54 92 62l19 79h-381l-29 84h652zM635 -221q-18 27 -36.5 51.5t-37 43.5t-39.5 30t-43 11t-70 -9q-27 68 -30 94
q30 3 51 3q72 0 108 -40q26 -29 60 -66.5t76 -85.5z" />
    <glyph glyph-name="glyph180" horiz-adv-x="610" 
d="M771 444h-157l-21 -85q82 -41 53 -157q-9 -35 -29 -65.5t-46.5 -53.5t-56.5 -36.5t-58 -13.5q-36 0 -58 18t-42 63q-62 -81 -138 -81q-32 0 -58.5 15t-43 39.5t-22 56.5t3.5 66q9 35 28.5 65t45.5 51.5t57 33.5t63 12q78 0 104 -74q58 63 107 69l19 77h-415l-29 84h664z
M604 -223q-18 27 -36.5 51.5t-37.5 43.5t-39.5 30t-42.5 11t-70 -9q-27 68 -31 94q31 3 52 3q72 0 108 -40q26 -29 60 -66.5t76 -85.5zM586 243q15 60 -36 60q-59 0 -166 -154q22 -36 65 -36q21 0 42.5 11t40.5 29t33.5 41.5t20.5 48.5zM370 267q-3 4 -10 8.5t-15.5 8
t-17.5 6t-17 2.5q-22 0 -46 -11.5t-46 -29.5t-39 -40.5t-22 -44.5q-16 -63 47 -63q15 0 30.5 8.5t35 28t44 50.5t56.5 77z" />
    <glyph glyph-name="glyph181" horiz-adv-x="506" 
d="M666 444h-99l-112 -451l-80 63l28 92q-93 -58 -152 -58q-33 0 -62 16t-49 41t-28 56t-1 61q7 27 25.5 51t44.5 42t58.5 28.5t67.5 10.5q30 0 50 -6t34.5 -17t25.5 -28t24 -38l34 137h-366l-29 84h557zM582 -247q-18 27 -36.5 51.5t-37.5 43.5t-39.5 30t-42.5 11t-70 -9
q-27 68 -31 94q31 3 52 3q72 0 108 -40q26 -29 60 -66.5t76 -85.5zM430 257q-48 55 -128 55q-20 0 -38.5 -8t-34.5 -21.5t-27.5 -31.5t-16.5 -37q-14 -54 36 -54q13 0 37 7.5t52.5 19.5t59 27t57.5 31z" />
    <glyph glyph-name="glyph182" horiz-adv-x="628" 
d="M791 444h-121l-112 -451l-81 63l97 388h-152q42 -59 28 -116q-8 -33 -29.5 -67.5t-53.5 -66.5t-72 -60t-85 -49l58 -130l-47 -25q-13 29 -23.5 59t-19.5 59q-5 19 -28 19q-25 0 -40.5 4.5t-22.5 17.5t-6 35t10 58q4 15 20 26.5t33 11.5t30 -45q5 -14 14 -14q32 0 109 70
q-85 35 -117.5 69t-22.5 77q10 38 46 67h-94l-29 84h682zM645 -249q-18 27 -36.5 51.5t-37 43.5t-39.5 30t-43 11t-70 -9q-27 68 -30 94q30 3 51 3q72 0 108 -40q26 -29 60 -66.5t76 -85.5zM372 360q11 42 1 67t-39 25q-24 0 -45.5 -19t-29.5 -51q-19 -74 62 -119
q36 34 51 97z" />
    <glyph glyph-name="glyph183" horiz-adv-x="468" 
d="M627 444h-100l-112 -451l-80 63l32 105q-66 -43 -110 -43q-23 0 -47.5 13t-43 33.5t-28.5 44.5t-5 47l47 188h-71l-29 84h518zM539 -249q-18 27 -36.5 51.5t-37 43.5t-39.5 30t-43 11t-70 -9q-27 68 -30 94q30 3 51 3q72 0 108 -40q26 -29 60 -66.5t76 -85.5zM396 286
l39 158h-163l-2 -10zM255 374l-39 -154q-8 -32 21 -32q40 0 127 63z" />
    <glyph glyph-name="glyph184" horiz-adv-x="554" 
d="M715 444h-100l-112 -451l-80 63l40 138q-39 -19 -96 -19q-33 0 -79 50q-24 -28 -87 -71q12 -25 35.5 -63t58.5 -89l-48 -36l-112 218q-29 58 -20 94q3 14 18.5 24.5t28.5 10.5q4 0 11 -4.5t15 -10t13.5 -10t7.5 -4.5q5 0 8 12l37 148h-145l-29 84h606zM627 -249
q-18 27 -36.5 51.5t-37 43.5t-39.5 30t-43 11t-70 -9q-27 68 -30 94q30 3 51 3q72 0 108 -40q26 -29 60 -66.5t76 -85.5zM523 444h-177l-43 -175q26 -10 71 -10q6 0 23 3.5t36 9t34 10.5t18 8z" />
    <glyph glyph-name="glyph139" horiz-adv-x="432" 
d="M595 444h-161l-28 -113q-6 -24 -23 -24h-130q-57 0 -67 -42q-6 -24 8 -35q50 28 111 28q22 0 36.5 -2t25 -8.5t19 -19t18.5 -32.5q21 -44 14 -74q-5 -20 -16.5 -38.5t-27.5 -33t-33 -23.5t-32 -9l-34 79q72 21 85 75q2 7 -5 14.5t-18 7.5q-27 0 -55 -9t-51 -23.5t-40 -34
t-22 -40.5q-6 -26 0.5 -47t28 -38t58.5 -31.5t91 -28.5l-29 -38q-63 14 -110.5 35t-78 48t-43 58t-3.5 65q12 50 70 96q-9 10 -15.5 25t-10.5 31t-5 31.5t1 25.5q17 68 105 68h106l14 57h-244l-29 84h491zM353 -325q-1 27 -10 51.5t-23 43.5t-34 30t-42 11t-70 -9
q-27 68 -30 94q30 3 51 3q72 0 108 -40q26 -29 60 -66.5t76 -85.5z" />
    <glyph glyph-name="glyph151" horiz-adv-x="468" 
d="M627 237q-22 6 -54 6q-56 0 -101 -48l-53 -214l-82 63l32 99q-63 -46 -117 -46q-31 0 -59.5 14.5t-49.5 37.5t-30.5 51.5t-2.5 57.5q7 28 23.5 53t40.5 43.5t54.5 29.5t63.5 11q25 0 43.5 -4.5t31 -16t21.5 -30t16 -46.5h2l36 146h-332l-29 84h524l29 -84h-100l-36 -147
q47 30 103 30q28 0 40 -5zM184 39l-93 -75l-58 76l94 75zM394 247q-14 29 -41 46.5t-52 17.5q-17 0 -35.5 -8t-35 -21.5t-28.5 -30.5t-17 -35q-6 -24 2 -39.5t23 -15.5q7 0 32 10t54 23.5t57 28.5t41 24z" />
    <glyph glyph-name="glyph152" horiz-adv-x="464" 
d="M616 256q-4 -19 -18.5 -38.5t-35 -35t-44.5 -25.5t-48 -10q-32 0 -57 10.5t-40 29t-20.5 44t2.5 55.5q6 24 21 44.5t37.5 36.5t50 25t59.5 9q25 0 45.5 -12t34 -32t17 -46.5t-3.5 -54.5zM621 80q-159 -80 -232 -80q-74 0 -142.5 54.5t-120.5 154.5q-20 35 -15 53
q1 6 6 12.5t11.5 12.5t12.5 10t11 4q3 0 10 -3t15 -6.5t15.5 -6.5t9.5 -3q11 0 15 18l36 144h-144l-29 84h531l29 -84h-301l-40 -160q-15 -62 -93 -107q54 -101 163 -101q21 0 54.5 8t71 21.5t72.5 30t61 33.5zM182 37l-94 -75l-57 76l94 75zM587 289q4 18 -11 30t-44 12
q-49 0 -81.5 -24t-40.5 -57q-10 -39 30 -39q18 0 42.5 7.5t46 18.5t38 25t20.5 27z" />
    <glyph glyph-name="glyph153" horiz-adv-x="281" 
d="M442 444h-113l-55 -220q-11 -46 -43 -46q-9 0 -28 15.5t-38.5 36.5t-32.5 43t-10 35q2 7 13.5 15.5t20.5 8.5h53l28 112h-130l-29 84h335zM211 73l-94 -75l-57 76l94 75z" />
    <glyph glyph-name="glyph154" horiz-adv-x="364" 
d="M530 444h-421l-29 84h421zM520 284h-142q42 -55 30 -100q-8 -33 -41.5 -55.5t-72.5 -22.5q-64 0 -108 57t-61 160l40 19q27 -142 102 -142q52 0 64 46q7 30 -42 100l14 22h237zM455 33l-94 -75l-57 76l94 75z" />
    <glyph glyph-name="glyph155" horiz-adv-x="453" 
d="M616 220q-14 11 -43 11q-8 0 -24 -3.5t-33.5 -9t-34.5 -12.5t-25 -13l-50 -200l-80 63l26 88q-23 -19 -93 -19q-23 0 -47.5 13t-43.5 33.5t-29 44.5t-4 47l45 181h-71l-29 84h519l29 -84h-110l-39 -156q44 27 94 27q40 0 57 -8zM207 57l-94 -75l-57 76l94 75zM426 444
h-154l-54 -217q-8 -32 21 -32q11 0 30 5t39 13t39 18t31 21z" />
    <glyph glyph-name="glyph156" horiz-adv-x="278" 
d="M430 171q-98 -69 -164 -69q-33 0 -60 16.5t-45 45.5t-27.5 69t-8.5 87q15 2 38.5 8t46.5 14.5t40.5 19t20.5 22.5q7 28 -6 60h-155l-29 84h335l29 -84h-123q19 -107 13 -130q-7 -28 -93 -47q-44 -11 -51 -39q-11 -46 55 -46q16 0 40.5 7t53.5 19.5t59 29t57 35.5zM185 52
l-93 -75l-57 76l93 75z" />
    <glyph glyph-name="glyph157" horiz-adv-x="670" 
d="M832 444h-298l-37 -149q9 6 23 13t29.5 13.5t30.5 10.5t24 4q25 0 46 -13.5t34 -37t16.5 -54t-5.5 -63.5q-3 -15 -13 -36.5t-23 -44t-28 -43.5t-29 -36l-68 62q16 19 34 43t33 47t26 41.5t14 27.5q3 12 -4.5 21.5t-18.5 9.5q-8 0 -29 -9t-44.5 -21t-45 -25t-30.5 -21
l-50 -203l-82 63l29 86l-247 -132l-50 66l107 44q-39 24 -59 62t-10 77q7 28 24 53t41 43.5t54 29.5t63 11q25 0 43.5 -4.5t31 -16t21.5 -30t16 -46.5h2l39 157h-334l-29 84h724zM391 236q-13 29 -40.5 46.5t-52.5 17.5q-17 0 -35.5 -8t-34.5 -21.5t-28.5 -30.5t-16.5 -35
q-6 -24 1.5 -39.5t22.5 -15.5q59 0 184 86z" />
    <glyph glyph-name="glyph158" horiz-adv-x="682" 
d="M846 444h-309l-25 -102q8 6 22.5 13t30 13.5t30.5 10.5t24 4q25 0 45.5 -13.5t34 -37t16.5 -54t-5 -63.5q-4 -15 -13.5 -36.5t-23 -44t-28 -43.5t-28.5 -36l-68 62q15 19 33 43t33.5 47t26.5 41.5t13 27.5q3 12 -4 21.5t-18 9.5q-8 0 -29 -9t-44.5 -21t-45 -25t-30.5 -21
l-59 -238l-80 63l34 136l-229 -142l-53 62l257 149q-27 38 -86 38q-39 0 -100 -30l-35 78q73 36 126 36q18 0 33 -5t31 -17.5t35 -33t45 -51.5l42 168h-339l-29 84h740z" />
    <glyph glyph-name="glyph159" horiz-adv-x="730" 
d="M889 444h-103l-115 -464l-77 54l13 42l-448 -160l-53 66l168 54q-74 42 -147 179q-19 37 -15 53q2 6 6.5 12.5t11 12.5t12.5 10t11 4q3 0 10.5 -3t15.5 -6.5t15 -6.5t9 -3q11 0 16 18l34 138h-144l-29 84h780zM657 284q-37 50 -107 50q-18 0 -36.5 -7t-33.5 -18.5
t-26.5 -26t-14.5 -29.5q-10 -38 26 -38q9 0 36.5 8t59 19.5t59.5 23t37 18.5zM636 199q-14 -8 -35.5 -16.5t-44.5 -15.5t-43 -11.5t-31 -4.5q-27 0 -49 11t-37 30.5t-20 44.5t2 54q6 24 23 45.5t40.5 38t50.5 26t54 9.5q19 0 32 -2t24 -7t21 -15t22 -26l20 -26h2l27 110
h-349l-38 -154q-5 -18 -12 -32t-18.5 -27t-28.5 -25t-42 -26q29 -53 68 -73.5t104 -20.5q18 0 48.5 7t66 18.5t71.5 26t64 30.5z" />
    <glyph glyph-name="ch288" horiz-adv-x="488" 
d="M648 444h-100l-112 -451l-81 63l25 97l-261 -155l-51 68l331 152l56 226h-126l-56 -224q-11 -46 -43 -46q-9 0 -28 15.5t-38.5 36.5t-32.5 43t-10 35q2 7 13.5 15.5t20.5 8.5h53l29 116h-128l-29 84h539z" />
    <glyph glyph-name="ch289" horiz-adv-x="536" 
d="M697 444h-121l-112 -451l-81 63l25 92q-276 -154 -274 -154l-58 72l106 46q-15 12 -26 29t-18 36t-8.5 38t2.5 35q14 56 90 83v2q-85 30 -68 102l2 7h-47l-29 84h588zM487 444h-217q-16 -9 -25 -44q-9 -37 26 -56q17 3 30.5 5t24.5 2q4 0 9.5 -10t10 -22.5t7.5 -24.5
t2 -15q-3 -12 -20 -12q-135 0 -152 -68q-3 -14 12 -24.5t47 -10.5q68 0 196 84z" />
    <glyph glyph-name="ch290" horiz-adv-x="617" 
d="M802 444h-294l-28 -112q-6 -24 -23 -24h-125q-58 0 -70 -51q-7 -27 20 -28l22 3q23 4 51 8.5t50 7.5l23 4q12 0 21 -2t16 -8t14 -17.5t14 -30.5q21 -56 15 -81q-6 -23 -22.5 -44.5t-39 -38.5t-49.5 -27t-54 -10q-38 0 -70.5 8.5t-62.5 28.5t-60 52t-64 80l41 28
q77 -117 189 -117q24 0 48 7t44.5 18.5t35 26t18.5 28.5q3 15 -20 15q-4 0 -23.5 -3.5t-43 -8t-44 -8t-26.5 -3.5q-21 0 -42.5 17.5t-37.5 43t-24 54t-2 51.5q19 77 108 77h101l14 56h-313l-29 84h693zM426 -201l-43 -27l-50 110l-136 -86l-36 64l159 100q14 9 22 9
q7 0 18 -24zM676 271l-94 -75l-57 76l94 75z" />
    <glyph glyph-name="ch291" horiz-adv-x="596" 
d="M757 444h-100l-112 -451l-80 63l24 94l-310 -152l-62 66l126 50q-63 52 -47 116q9 36 31 61h-59l-29 84h326l29 -84h-67q-26 0 -45 -2.5t-34 -8.5t-28 -16t-27 -25q-26 -28 -33 -55q-7 -30 28 -30q88 0 236 125l41 165h-456l-29 84h648z" />
    <glyph glyph-name="ch292" horiz-adv-x="590" 
d="M750 444h-100l-112 -451l-80 63l15 57l-312 -144l-38 64l367 141l30 120h-139q32 -42 21 -86q-8 -35 -41 -56.5t-69 -21.5q-132 0 -164 203l39 19q6 -29 16 -53t22.5 -41.5t27.5 -27.5t30 -10q52 0 64 46q2 10 2 19t-4.5 18.5t-12.5 22t-21 30.5l15 22h236l16 66h-449
l-29 84h641z" />
    <glyph glyph-name="ch293" horiz-adv-x="676" 
d="M837 444h-100l-117 -471l-80 63l22 88l-126 -122l-55 57l210 157q-50 24 -72 24q-63 0 -133 -60h-2q9 -15 6 -32l-10 -40q-4 -19 -23.5 -39t-47 -37t-59.5 -29t-62 -15l45 -122l-47 -25q-8 28 -17.5 59.5t-21.5 66.5q-4 9 -17 12.5t-27 7.5t-25.5 10t-14.5 21q-8 37 0 67
q3 13 15 23t25 10q46 0 53 -53q35 1 64.5 11t52 25t36.5 32t18 33q1 6 -7 6q-1 0 -16 -4t-34 -9.5t-38 -9.5t-26 -4q-20 0 -37.5 16t-30 40t-17.5 52t0 51q10 38 32.5 60.5t50.5 22.5h120l14 57h-229l-29 84h728zM645 444h-221l-28 -113q-6 -24 -23 -24h-144
q-18 0 -34 -14.5t-21 -34.5q-7 -29 12 -29q-2 0 18.5 4t46 9.5t47.5 9.5t23 4q30 0 37 -13l63 34q19 11 40.5 16t39.5 5q26 0 51 -9t49 -24z" />
    <glyph glyph-name="ch294" horiz-adv-x="502" 
d="M661 444h-121l-112 -451l-81 63l34 134l-233 -143l-52 62l256 149q-27 38 -86 38q-40 0 -101 -32l-34 78q71 38 126 38q15 0 30 -5.5t31.5 -18.5t37 -35t48.5 -55l47 178h-342l-29 84h552z" />
    <glyph glyph-name="ch295" horiz-adv-x="516" 
d="M677 444h-104l-112 -451l-80 63l35 137l-129 -85l-60 52l198 119l1 2h-139q-85 0 -107 -88q-17 -66 42 -165l-43 -28q-28 59 -44 98t-23.5 67.5t-7 50t5.5 44.5q12 45 56.5 75t108.5 30h187l19 79h-374l-29 84h570z" />
    <glyph glyph-name="ch296" horiz-adv-x="554" 
d="M714 444h-101l-112 -451l-80 63l20 77l-299 -149l-43 78l99 40q-9 7 -26 25t-33 38t-27 38t-10 24q1 2 14.5 7t33.5 12.5t43.5 17.5t43.5 22q-31 21 -50 36.5t-28.5 29.5t-11.5 27.5t3 30.5q6 25 21 46.5t35.5 37.5t45 25t50.5 9q28 0 53.5 -15.5t43 -39.5t25.5 -53
t1 -57q-24 -96 -203 -172q-2 -5 -3.5 -9t-2.5 -7q-8 -33 35 -33q19 0 47.5 10.5t60.5 27.5t62.5 38.5t54.5 43.5l45 182h-61l-29 84h254zM359 403q12 49 -40 49q-29 0 -53 -21t-32 -50q-2 -11 -2 -19t5 -15.5t15 -16t27 -19.5q66 37 80 92z" />
    <glyph glyph-name="ch297" horiz-adv-x="450" 
d="M611 444h-132l-29 -116q-4 -16 -10 -21t-24 -5h-121q-35 0 -59 -15.5t-31 -42.5q-3 -12 0.5 -25t13 -24t25.5 -18.5t38 -7.5q14 0 24.5 3.5t12.5 11.5q-1 9 -2 17q-1 7 -1.5 12.5t0.5 7.5q6 27 43 27q10 0 25 -9t28 -22t22 -26t7 -22q-8 -30 -53 -47l60 -169l-52 -23
l-48 167l-219 -139l-58 59l182 91q-25 10 -48 30t-39.5 44.5t-24 50.5t-1.5 49q25 100 144 100h94l15 62h-283l-29 84h501z" />
    <glyph glyph-name="ch298" horiz-adv-x="536" 
d="M696 444h-100l-112 -451l-80 63l22 85l-270 -160l-55 65l90 41q-20 10 -36.5 25.5t-26 34t-13.5 38t1 37.5q17 67 112 90l1 2q-20 6 -36.5 17.5t-27 26.5t-14.5 32.5t1 35.5q10 43 49.5 72.5t90.5 29.5q22 0 40 -7.5t30 -21t16 -31t-1 -38.5q-9 -34 -44.5 -57t-77.5 -23
q-3 0 -5.5 0.5t-5.5 0.5q-3 -11 3.5 -14.5t19.5 -4.5t32.5 -1.5t44.5 -5.5l26 -83q-35 3 -46 3q-66 0 -106 -16.5t-46 -42.5q-9 -37 72 -37q18 0 43.5 8t54 21.5t58 31t55.5 36.5l49 198h-33l-29 84h225zM332 428q5 19 -6 31.5t-31 12.5q-22 0 -41 -16.5t-25 -39.5
q-6 -24 3.5 -30.5t30.5 -6.5q25 0 44.5 14t24.5 35z" />
    <glyph glyph-name="ch299" horiz-adv-x="456" 
d="M616 444h-100l-112 -451l-80 63l26 104l-230 -159l-48 64l299 160l12 51h-119q-18 0 -22 -19l-9 -36q-6 -23 -37 -23q-10 0 -23 16t-24 38t-17.5 44.5t-2.5 36.5q2 9 12 18t20 9h242l21 84h-317l-29 84h509z" />
    <glyph glyph-name="ch300" horiz-adv-x="465" 
d="M628 444h-110l-112 -451l-80 63l30 118l-228 -173l-50 66l220 126l-60 21q-64 22 -74 30q-28 21 -16 69l32 131h-71l-29 84h519zM426 444h-154l-37 -150q-6 -24 27 -36.5t110 -32.5z" />
    <glyph glyph-name="ch301" horiz-adv-x="663" 
d="M825 444h-307l-31 -127q8 6 23 13t30.5 13t29.5 9.5t22 3.5q25 0 46 -13.5t34 -37t16.5 -54t-5.5 -63.5q-3 -15 -13 -36.5t-23 -44t-28 -43.5t-29 -36l-68 62q16 19 34 43t33 47t26 41.5t14 27.5q3 12 -4.5 21.5t-18.5 9.5q-9 0 -29 -8.5t-43 -20.5t-44 -24.5t-31 -21.5
l-53 -212l-80 63l25 98l-223 -153l-50 66l211 129l-51 18q-64 22 -74 30q-28 21 -16 69l32 131h-71l-29 84h716zM426 444h-154l-37 -150q-2 -8 -1.5 -14t5.5 -10.5t15.5 -9t30.5 -10.5l62 -19l31 19z" />
    <glyph glyph-name="ch302" horiz-adv-x="520" 
d="M680 444h-100l-112 -451l-80 63l26 84q-2 0 -137 -82t-136 -81l-53 65l113 54q-27 7 -46.5 24t-31 41t-14.5 52t4 56q6 27 24 51t44 42t58.5 28.5t69.5 10.5q109 0 142 -85h5l32 128h-374l-29 84h566zM415 272q6 24 -11.5 41.5t-50.5 17.5q-35 0 -58 -10l44 -133
q63 31 76 84zM248 301q-27 -11 -50 -36.5t-29 -48.5q-15 -63 60 -63q32 0 64 13z" />
    <glyph glyph-name="glyph175" horiz-adv-x="592" 
d="M753 444h-101l-112 -451l-80 63l17 68l-247 -154l-58 59l319 159h-164q-12 -42 -21.5 -56.5t-25.5 -14.5q-12 0 -30 15t-34 35.5t-26.5 41.5t-7.5 34q8 30 37 30h50l11 26q-151 37 -126 137q5 21 17 39t29 32t38.5 22t45.5 8q32 0 55 -12t36 -33t16 -49t-5 -59
q-16 -64 -31 -112h162l43 172h-71l-29 84h264zM319 429q13 52 -25 52q-8 0 -17.5 -5.5t-19.5 -14t-17 -19.5t-10 -23q-16 -63 68 -76z" />
    <glyph glyph-name="glyph176" horiz-adv-x="492" 
d="M652 444h-100l-112 -451l-80 63l24 95l-212 -159l-59 59l286 163h-154l-11 -45q-6 -22 -32 -22q-11 0 -27 16t-30 37.5t-23.5 43.5t-6.5 34q5 22 30 22h29l36 144h-100l-29 84h542zM424 298l36 146h-158l-36 -146h158z" />
    <glyph glyph-name="ch305" horiz-adv-x="508" 
d="M668 444h-100l-112 -451l-80 63l23 92l-261 -154l-58 59l133 61q-44 22 -68 76.5t-20 129.5q15 2 38.5 8t46.5 14.5t40.5 19t20.5 22.5q7 28 -6 60h-157l-29 84h560zM476 444h-154q19 -107 13 -130q-7 -28 -93 -47q-44 -11 -51 -39q-11 -46 55 -46q13 0 37 7t51 18
t53 24.5t43 25.5z" />
    <glyph glyph-name="ch306" horiz-adv-x="612" 
d="M772 444h-99l-112 -451l-80 63l31 123l-175 -139l-58 59l254 149l13 46q-10 3 -21 3q-84 0 -150 -107l-63 50q5 10 11 19.5t13 18.5q-12 32 -53 32q-35 0 -64.5 -27.5t-39.5 -67.5q-20 -79 91 -191l-54 -37q-134 160 -106 270q6 27 22.5 52t38 44t47 30t50.5 11
q58 0 100 -81q60 60 109 60q18 0 42 -11.5t35 -26.5l27 109h-473l-29 84h664z" />
    <glyph glyph-name="ch307" horiz-adv-x="506" 
d="M666 444h-99l-112 -451l-80 63l28 91q-2 -2 -130 -78q-132 -77 -133 -77l-49 65l101 47q-21 11 -38.5 28.5t-28.5 39t-15 45.5t1 47q7 27 25.5 51t44.5 42t58.5 28.5t67.5 10.5q30 0 50 -6t34.5 -17t25.5 -28t24 -38l34 137h-366l-29 84h557zM430 257q-48 55 -128 55
q-20 0 -38.5 -8t-34.5 -21.5t-27.5 -31.5t-16.5 -37q-14 -54 36 -54q13 0 37 7.5t52.5 19.5t59 27t57.5 31z" />
    <glyph glyph-name="ch308" horiz-adv-x="632" 
d="M793 444h-121l-112 -451l-81 63l30 120l-302 -182l-59 61l273 158l-59 40q-65 -38 -117.5 -65.5t-92.5 -43.5l-55 62q12 4 36.5 14.5t51.5 23t51.5 25t35.5 20.5q-51 29 -66.5 55t-6.5 62q5 23 20 45t36 39t46 27.5t51 10.5q28 0 51 -17t36.5 -42.5t18.5 -56t-2 -56.5
q-9 -36 -51 -70q21 -14 119 -63l59 221h-73l-29 84h283zM399 411q4 17 -4 29t-24 12q-29 0 -54 -21t-33 -52q-8 -34 31 -62q12 4 25.5 15t25.5 24.5t21 28t12 26.5z" />
    <glyph glyph-name="ch309" horiz-adv-x="468" 
d="M627 444h-100l-112 -451l-80 63l29 114l-233 -174l-59 59l147 83q-21 9 -38.5 23.5t-29 31.5t-16 36t0.5 37l44 178h-71l-29 84h518zM398 296l37 148h-163l-2 -10zM257 384l-38 -154q-8 -32 21 -32q40 0 127 63z" />
    <glyph glyph-name="ch310" horiz-adv-x="554" 
d="M715 444h-100l-112 -451l-80 63l15 52l-121 -82l-49 56l195 111v1q-38 -19 -96 -19q-34 0 -79 50q-12 -14 -33.5 -31.5t-53.5 -39.5q12 -25 35.5 -63t58.5 -89l-48 -36l-112 218q-29 57 -20 94q4 14 19 24.5t28 10.5q4 0 11.5 -4.5t15 -10t13 -10t7.5 -4.5q5 0 8 12
l37 148h-145l-29 84h606zM523 444h-177l-43 -175q24 -10 71 -10q6 0 23 3.5t36 9t34 10.5t18 8z" />
    <glyph glyph-name="ch311" horiz-adv-x="500" 
d="M662 444h-150l-28 -112q-6 -24 -25 -25h-164q-57 0 -67 -42q-4 -16 4 -25q43 20 115 20q42 0 73.5 -20t51 -50.5t26 -68t-1.5 -71.5q-19 -77 -163 -163l-53 56q157 97 170 146q3 13 -3 21l-187 -110l-54 59l222 126q-6 19 -40 19q-41 0 -80.5 -13.5t-72.5 -36t-56 -51.5
t-31 -59q-33 -135 169 -236l-32 -35q-137 72 -189 147t-29 165q4 16 15 34.5t27.5 37t38 35.5t45.5 30q-38 58 -28 97q17 68 105 68h142l14 57h-320l-29 84h556z" />
    <glyph glyph-name="ch312" horiz-adv-x="410" 
d="M464 7q-35 -21 -84 -21q-32 0 -59 10t-45.5 26.5t-27 36t-3.5 39.5q4 17 24 28q94 52 97 65q2 9 -2.5 16t-10.5 7q-26 0 -55.5 -12.5t-56.5 -31t-45.5 -40t-23.5 -40.5q-7 -27 -3.5 -48t22 -39.5t53.5 -36.5t91 -39l-32 -44q-72 32 -118 59t-71 53.5t-31 54t2 60.5
q12 50 70 95q-9 11 -15.5 26.5t-10.5 31.5t-5 31t1 25q17 68 105 68h101l14 57h-236l-29 84h463l29 -84h-141l-28 -112q-6 -25 -23 -25h-125q-57 0 -67 -40q-6 -23 8 -35q58 32 146 32q16 0 32.5 -13t29 -31t19 -37t3.5 -31q-4 -18 -72 -57q-28 -17 -31 -27q-4 -18 20 -18
q7 0 19 2.5t24 6t22.5 7.5t15.5 8z" />
    <glyph glyph-name="glyph185" horiz-adv-x="564" 
d="M726 444h-147l-14 -57q12 -11 22.5 -28t17.5 -36t9.5 -38.5t-1.5 -34.5q-13 -50 -48.5 -96.5t-83 -82t-101 -57t-102.5 -21.5q-32 0 -62.5 14t-53.5 35.5t-34.5 47.5t-4.5 51q9 38 48 64q-10 9 -19.5 23.5t-16.5 30t-10 31t0 27.5q9 36 45.5 61.5t85.5 25.5q11 0 21 -1.5
t21 -3.5l22 -81q-20 6 -58 6q-26 0 -46 -13.5t-26 -34.5q-6 -24 23 -45q9 5 32.5 10.5t44.5 5.5q12 0 15 -1l17 -88q-119 0 -134 -58q-9 -37 52 -37q23 0 52 7t57.5 18.5t54.5 26.5t44 32q-109 66 -90 145q10 39 42 69t81 36l12 47h-385l-29 84h618zM448 -185l-43 -27
l-50 110l-136 -86l-36 64l159 100q14 9 22 9q7 0 18 -24zM542 286q14 55 -18 55q-25 0 -49 -22.5t-31 -51.5q-12 -48 32 -91q8 7 18.5 21t20 30t17 32t10.5 27z" />
    <glyph glyph-name="glyph186" horiz-adv-x="480" 
d="M642 444h-179l-30 -122q-3 -11 -6 -18t-14.5 -12.5t-34.5 -11.5t-64 -15q-42 -9 -68.5 -17.5t-43 -19.5t-25.5 -25.5t-14 -35.5q-16 -64 66 -64q76 0 209 82l23 -88q-20 -13 -44 -24.5t-49 -20.5t-48 -14t-39 -5q-47 0 -85 15.5t-61.5 42.5t-33 62t0.5 74q24 96 165 120
q49 8 67.5 15.5t22.5 23.5l14 58h-261l-29 84h532zM386 -169l-43 -27l-50 110l-133 -90l-39 68l159 100q14 9 22 9q7 0 18 -24z" />
    <glyph glyph-name="glyph187" horiz-adv-x="484" 
d="M645 444h-170q0 -46 -4 -60q-8 -32 -36 -69q80 -74 62 -145q-9 -34 -29 -62t-48.5 -48.5t-64.5 -32t-76 -11.5q-44 0 -80.5 19t-61 49.5t-34.5 69t0 76.5q33 132 219 132q52 0 63 45q0 2 1.5 11.5t3.5 25.5h-284l-29 84h539zM390 -185l-43 -27l-50 110l-136 -86l-36 64
l159 100q14 9 22 9q7 0 18 -24zM419 202q21 84 -60 84q-91 0 -134.5 -24t-57.5 -81q-5 -19 -1.5 -36t14 -30t26.5 -21t37 -8q29 0 58 9.5t53.5 25.5t41.5 37t23 44z" />
    <glyph glyph-name="glyph188" horiz-adv-x="526" 
d="M688 444h-136l-28 -112q-6 -24 -23 -24h-168q-58 0 -70 -51q-7 -27 20 -28l11 2q12 2 29 4.5t37 5.5t38 5.5t29.5 4t12.5 1.5q12 0 21 -2t16 -8t14 -17.5t14 -30.5q21 -56 15 -81q-6 -23 -22.5 -44.5t-39 -38.5t-49.5 -27t-54 -10q-43 0 -77.5 8.5t-65.5 28t-61 52
t-64 80.5l41 28q77 -117 186 -117q24 0 48 7t44.5 18.5t35 26t18.5 28.5q3 15 -20 15q-4 0 -23 -3.5t-42.5 -8t-44 -8t-26.5 -3.5q-21 0 -42 17.5t-36.5 43t-23.5 54t-2 51.5q19 77 108 77h144l14 56h-357l-29 84h579zM419 -197l-43 -27l-50 110l-136 -86l-36 64l159 100
q14 9 22 9q7 0 18 -24z" />
    <glyph glyph-name="glyph189" horiz-adv-x="480" 
d="M642 444h-129l-29 -118q-6 -24 -23 -24h-163q-22 0 -43 -9t-38 -23.5t-29.5 -34t-17.5 -40.5q-10 -40 4 -64t61 -40q2 26 4 46.5t6 35.5q4 19 16 36.5t30 30.5t39.5 21t45.5 8q50 0 71.5 -20.5t28.5 -72.5q6 -39 1 -59q-6 -21 -22 -41t-38.5 -35.5t-50.5 -25t-57 -9.5
q-51 0 -92.5 22t-69 57.5t-38.5 80.5t1 91q6 27 23 50t40 39.5t52 26t61 9.5h126l15 62h-318l-29 84h533zM401 -197l-43 -27l-50 110l-136 -86l-36 64l159 100q14 9 22 9q7 0 18 -24zM433 167q7 26 -46 26q-15 0 -32 -7.5t-32 -20.5t-26 -30t-16 -36q-2 -10 -0.5 -12
t11.5 -2q22 0 45.5 7.5t43.5 19.5t34.5 26.5t17.5 28.5z" />
    <glyph glyph-name="glyph190" horiz-adv-x="610" 
d="M771 444h-157l-21 -85q82 -41 53 -157q-9 -35 -29 -65.5t-46.5 -53.5t-56.5 -36.5t-58 -13.5q-36 0 -58 18t-42 63q-62 -81 -138 -81q-32 0 -58.5 15t-43 39.5t-22 56.5t3.5 66q9 35 28.5 65t45.5 51.5t57 33.5t63 12q78 0 104 -74q58 63 107 69l19 77h-415l-29 84h664z
M448 -185l-43 -27l-50 110l-136 -86l-36 64l159 100q14 9 22 9q7 0 18 -24zM586 243q15 60 -36 60q-59 0 -166 -154q22 -36 65 -36q21 0 42.5 11t40.5 29t33.5 41.5t20.5 48.5zM370 267q-3 4 -10 8.5t-15.5 8t-17.5 6t-17 2.5q-22 0 -46 -11.5t-46 -29.5t-39 -40.5
t-22 -44.5q-16 -63 47 -63q15 0 30.5 8.5t35 28t44 50.5t56.5 77z" />
    <glyph glyph-name="glyph191" horiz-adv-x="564" 
d="M726 444h-147l-14 -57q12 -11 22.5 -28t17.5 -36t9.5 -38.5t-1.5 -34.5q-13 -50 -48.5 -96.5t-83 -82t-101 -57t-102.5 -21.5q-32 0 -62.5 14t-53.5 35.5t-34.5 47.5t-4.5 51q9 38 48 64q-10 9 -19.5 23.5t-16.5 30t-10 31t0 27.5q9 36 45.5 61.5t85.5 25.5q11 0 21 -1.5
t21 -3.5l22 -81q-20 6 -58 6q-26 0 -46 -13.5t-26 -34.5q-6 -24 23 -45q9 5 32.5 10.5t44.5 5.5q12 0 15 -1l17 -88q-119 0 -134 -58q-9 -37 52 -37q23 0 52 7t57.5 18.5t54.5 26.5t44 32q-109 66 -90 145q10 39 42 69t81 36l12 47h-385l-29 84h618zM451 -307
q-6 -22 -21 -41.5t-36 -34.5t-46.5 -23.5t-50.5 -8.5q-113 0 -235 143l36 29q20 -27 42.5 -48.5t45 -36.5t43.5 -23t39 -8q21 0 43 7.5t41.5 19.5t33 26t16.5 28q9 37 -12 37q-22 0 -89 -59l-52 61q57 48 111 48q10 0 18 -2l-35 81l-137 -86l-36 64l159 100q14 9 22 9
q7 0 18 -24l67 -146l-23 -14q11 -8 21 -19q12 -17 17 -37.5t0 -41.5zM542 286q14 55 -18 55q-25 0 -49 -22.5t-31 -51.5q-12 -48 32 -91q8 7 18.5 21t20 30t17 32t10.5 27z" />
    <glyph glyph-name="glyph192" horiz-adv-x="479" 
d="M642 444h-179l-30 -122q-3 -11 -6 -18t-14.5 -12.5t-34.5 -11.5t-64 -15q-42 -9 -68.5 -17.5t-43 -19.5t-25.5 -25.5t-14 -35.5q-16 -64 66 -64q76 0 209 82l23 -88q-20 -13 -44 -24.5t-49 -20.5t-48 -14t-39 -5q-47 0 -85 15.5t-61.5 42.5t-33 62t0.5 74q24 96 165 120
q49 8 67.5 15.5t22.5 23.5l14 58h-261l-29 84h532zM393 -289q-5 -22 -20.5 -41.5t-36 -34.5t-46 -23.5t-50.5 -8.5q-113 0 -236 143l36 29q21 -27 43.5 -48.5t44.5 -36.5t43 -23t39 -8q21 0 43 7.5t41.5 19.5t33 26t17.5 28q9 37 -12 37q-22 0 -90 -59l-52 61q57 48 111 48
q12 0 24 -3l-41 92l-137 -86l-36 64l159 100q14 9 22 9q7 0 18 -24l67 -146l-31 -18q17 -10 29 -25q13 -17 18 -37.5t-1 -41.5z" />
    <glyph glyph-name="glyph193" horiz-adv-x="482" 
d="M645 444h-170q0 -46 -4 -60q-8 -32 -36 -69q80 -74 62 -145q-9 -34 -29 -62t-48.5 -48.5t-64.5 -32t-76 -11.5q-47 0 -84 18t-61 48t-32.5 68.5t1.5 79.5q33 132 219 132q52 0 63 45q0 2 1.5 11.5t3.5 25.5h-284l-29 84h539zM377 -289q-5 -22 -20.5 -41.5t-36 -34.5
t-46 -23.5t-50.5 -8.5q-113 0 -235 143l35 29q21 -27 43.5 -48.5t44.5 -36.5t43 -23t39 -8q21 0 43 7.5t41.5 19.5t33 26t17.5 28q9 37 -12 37q-22 0 -90 -59l-52 61q57 48 111 48q20 0 38 -8l-36 81l-137 -86l-36 64l159 100q14 9 22 9q7 0 18 -24l67 -146l-30 -18
q5 -4 9 -9q13 -17 18 -37.5t-1 -41.5zM419 202q21 84 -60 84q-91 0 -134.5 -24t-57.5 -81q-12 -45 9.5 -70t66.5 -25q29 0 58 9.5t53.5 25.5t41.5 37t23 44z" />
    <glyph glyph-name="glyph194" horiz-adv-x="525" 
d="M688 444h-136l-28 -112q-6 -24 -23 -24h-168q-58 0 -70 -51q-7 -27 20 -28l11 2q12 2 29 4.5t37 5.5t38 5.5t29.5 4t12.5 1.5q12 0 21 -2t16 -8t14 -17.5t14 -30.5q21 -56 15 -81q-6 -23 -22.5 -44.5t-39 -38.5t-49.5 -27t-54 -10q-43 0 -77.5 8.5t-65.5 28t-61 52
t-64 80.5l41 28q77 -117 186 -117q24 0 48 7t44.5 18.5t35 26t18.5 28.5q3 15 -20 15q-4 0 -23 -3.5t-42.5 -8t-44 -8t-26.5 -3.5q-21 0 -42 17.5t-36.5 43t-23.5 54t-2 51.5q19 77 108 77h144l14 56h-357l-29 84h579zM429 -307q-6 -22 -21 -41.5t-36 -34.5t-46.5 -23.5
t-50.5 -8.5q-113 0 -235 143l36 29q20 -27 42.5 -48.5t45 -36.5t43.5 -23t39 -8q21 0 43 7.5t41.5 19.5t33 26t16.5 28q9 37 -12 37q-22 0 -89 -59l-52 61q57 48 111 48q12 0 22 -3l-37 84l-136 -86l-36 64l159 100q14 9 22 9q7 0 18 -24l66 -146l-25 -15q11 -9 21 -20
q12 -17 17 -37.5t0 -41.5z" />
    <glyph glyph-name="glyph195" horiz-adv-x="479" 
d="M642 444h-129l-29 -118q-6 -24 -23 -24h-163q-22 0 -43 -9t-38 -23.5t-29.5 -34t-17.5 -40.5q-10 -40 4 -64t61 -40q2 26 4 46.5t6 35.5q4 19 16 36.5t30 30.5t39.5 21t45.5 8q50 0 71.5 -20.5t28.5 -72.5q6 -39 1 -59q-6 -21 -22 -41t-38.5 -35.5t-50.5 -25t-57 -9.5
q-51 0 -92.5 22t-69 57.5t-38.5 80.5t1 91q6 27 23 50t40 39.5t52 26t61 9.5h126l15 62h-318l-29 84h533zM404 -293q-5 -22 -20.5 -41.5t-36 -34.5t-46 -23.5t-50.5 -8.5q-113 0 -236 143l36 29q21 -27 43.5 -48.5t44.5 -36.5t43 -23t39 -8q21 0 43 7.5t41.5 19.5t33 26
t17.5 28q9 37 -12 37q-22 0 -90 -59l-52 61q57 48 111 48q10 0 19 -2l-33 75l-137 -86l-36 64l159 100q14 9 22 9q7 0 18 -24l67 -146l-20 -12q8 -7 15 -15q13 -17 18 -37.5t-1 -41.5zM433 167q7 26 -46 26q-15 0 -32 -7.5t-32 -20.5t-26 -30t-16 -36q-2 -10 -0.5 -12
t11.5 -2q22 0 45.5 7.5t43.5 19.5t34.5 26.5t17.5 28.5z" />
    <glyph glyph-name="glyph196" horiz-adv-x="606" 
d="M771 444h-157l-21 -85q82 -41 53 -157q-9 -35 -29 -65.5t-46.5 -53.5t-56.5 -36.5t-58 -13.5q-36 0 -58 18t-42 63q-62 -81 -138 -81q-32 0 -58.5 15t-43 39.5t-22 56.5t3.5 66q9 35 28.5 65t45.5 51.5t57 33.5t63 12q78 0 104 -74q58 63 107 69l19 77h-415l-29 84h664z
M480 -303q-6 -22 -21 -41.5t-36 -34.5t-46.5 -23.5t-50.5 -8.5q-113 0 -235 143l36 29q20 -27 42.5 -48.5t45 -36.5t43.5 -23t39 -8q21 0 43 7.5t41.5 19.5t33 26t16.5 28q9 37 -12 37q-22 0 -89 -59l-52 61q57 48 111 48h4l-38 85l-136 -86l-36 64l159 100q14 9 22 9
q3 -1 8 -6.5t10 -17.5l66 -146l-18 -11v-1q20 -11 32.5 -27.5t17.5 -37t0 -41.5zM370 267q-3 4 -10 8.5t-15.5 8t-17.5 6t-17 2.5q-22 0 -46 -11.5t-46 -29.5t-39 -40.5t-22 -44.5q-16 -63 47 -63q15 0 30.5 8.5t35 28t44 50.5t56.5 77zM586 243q15 60 -36 60
q-59 0 -166 -154q22 -36 65 -36q21 0 42.5 11t40.5 29t33.5 41.5t20.5 48.5z" />
    <glyph glyph-name="glyph197" horiz-adv-x="562" 
d="M726 444h-147l-14 -57q12 -11 22.5 -28t17.5 -36t9.5 -38.5t-1.5 -34.5q-13 -50 -48.5 -96.5t-83 -82t-101 -57t-102.5 -21.5q-32 0 -62.5 14t-53.5 35.5t-34.5 47.5t-4.5 51q9 38 48 64q-10 9 -19.5 23.5t-16.5 30t-10 31t0 27.5q9 36 45.5 61.5t85.5 25.5q11 0 21 -1.5
t21 -3.5l22 -81q-20 6 -58 6q-26 0 -46 -13.5t-26 -34.5q-6 -24 23 -45q9 5 32.5 10.5t44.5 5.5q12 0 15 -1l17 -88q-119 0 -134 -58q-9 -37 52 -37q23 0 52 7t57.5 18.5t54.5 26.5t44 32q-109 66 -90 145q10 39 42 69t81 36l12 47h-385l-29 84h618zM504 -397
q-30 47 -50.5 78.5t-37.5 50.5t-32.5 27t-33.5 8q-15 0 -31 -7t-31 -18t-26 -25.5t-15 -29.5q-9 -38 13 -38q3 0 15 7.5t25.5 18t26.5 21.5t20 19l34 -68q-55 -48 -105 -48q-22 0 -41 10t-32 26.5t-18.5 38t0.5 44.5q12 46 50 75.5t89 29.5q22 0 44 -9l-37 84l-136 -86
l-36 64l159 100q14 9 22 9q7 0 18 -24l66 -146l-26 -16q68 -44 144 -168zM542 286q14 55 -18 55q-25 0 -49 -22.5t-31 -51.5q-12 -48 32 -91q8 7 18.5 21t20 30t17 32t10.5 27z" />
    <glyph glyph-name="glyph198" horiz-adv-x="478" 
d="M642 444h-179l-30 -122q-3 -11 -6 -18t-14.5 -12.5t-34.5 -11.5t-64 -15q-42 -9 -68.5 -17.5t-43 -19.5t-25.5 -25.5t-14 -35.5q-16 -64 66 -64q76 0 209 82l23 -88q-20 -13 -44 -24.5t-49 -20.5t-48 -14t-39 -5q-47 0 -85 15.5t-61.5 42.5t-33 62t0.5 74q24 96 165 120
q49 8 67.5 15.5t22.5 23.5l14 58h-261l-29 84h532zM463 -385q-30 47 -50.5 78.5t-37.5 50.5t-32.5 27t-33.5 8q-15 0 -31 -7t-31 -18t-26 -25.5t-15 -29.5q-9 -38 13 -38q3 0 15 7.5t25.5 18t26.5 21.5t20 19l34 -68q-55 -48 -105 -48q-22 0 -41.5 10t-32 26.5t-18 38
t0.5 44.5q12 46 50 75.5t89 29.5q15 0 31 -4l-41 91l-135 -90l-37 68l159 100q14 9 22 9q7 0 18 -24l66 -146l-28 -17q78 -38 163 -179z" />
    <glyph glyph-name="glyph202" horiz-adv-x="484" 
d="M645 444h-170q0 -46 -4 -60q-8 -32 -36 -69q80 -74 62 -145q-9 -34 -29 -62t-48.5 -48.5t-64.5 -32t-76 -11.5q-47 0 -84 18t-61 48t-32.5 68.5t1.5 79.5q33 132 219 132q52 0 63 45q0 2 1.5 11.5t3.5 25.5h-284l-29 84h539zM464 -395q-29 47 -50 78.5t-37.5 50.5t-32 27
t-33.5 8q-15 0 -31.5 -7t-31 -18t-25.5 -25.5t-15 -29.5q-10 -38 12 -38q3 0 15 7.5t25.5 18t27 21.5t20.5 19l34 -68q-56 -48 -106 -48q-22 0 -41 10t-32 26.5t-18 38t1 44.5q11 46 49.5 75.5t89.5 29.5q15 0 31 -4l-41 91l-134 -92l-39 70l159 100q14 9 22 9q7 0 18 -24
l67 -146l-28 -17q77 -38 163 -179zM419 202q21 84 -60 84q-91 0 -134.5 -24t-57.5 -81q-12 -45 9.5 -70t66.5 -25q29 0 58 9.5t53.5 25.5t41.5 37t23 44z" />
    <glyph glyph-name="glyph203" horiz-adv-x="522" 
d="M688 444h-136l-28 -112q-6 -24 -23 -24h-168q-58 0 -70 -51q-7 -27 20 -28l11 2q12 2 29 4.5t37 5.5t38 5.5t29.5 4t12.5 1.5q12 0 21 -2t16 -8t14 -17.5t14 -30.5q21 -56 15 -81q-6 -23 -22.5 -44.5t-39 -38.5t-49.5 -27t-54 -10q-43 0 -77.5 8.5t-65.5 28t-61 52
t-64 80.5l41 28q77 -117 186 -117q24 0 48 7t44.5 18.5t35 26t18.5 28.5q3 15 -20 15q-4 0 -23 -3.5t-42.5 -8t-44 -8t-26.5 -3.5q-21 0 -42 17.5t-36.5 43t-23.5 54t-2 51.5q19 77 108 77h144l14 56h-357l-29 84h579zM502 -405q-30 47 -50.5 78.5t-37.5 50.5t-32.5 27
t-33.5 8q-15 0 -31 -7t-31 -18t-26 -25.5t-15 -29.5q-9 -38 13 -38q3 0 15 7.5t25.5 18t26.5 21.5t20 19l34 -68q-55 -48 -105 -48q-22 0 -41 10t-32 26.5t-18.5 38t0.5 44.5q12 46 50 75.5t89 29.5q16 0 34 -5l-35 78l-137 -86l-36 64l159 100q14 9 22 9q7 0 18 -24
l67 -146l-21 -12q70 -43 148 -170z" />
    <glyph glyph-name="glyph204" horiz-adv-x="476" 
d="M642 444h-129l-29 -118q-6 -24 -23 -24h-163q-22 0 -43 -9t-38 -23.5t-29.5 -34t-17.5 -40.5q-10 -40 4 -64t61 -40q2 26 4 46.5t6 35.5q4 19 16 36.5t30 30.5t39.5 21t45.5 8q50 0 71.5 -20.5t28.5 -72.5q6 -39 1 -59q-6 -21 -22 -41t-38.5 -35.5t-50.5 -25t-57 -9.5
q-51 0 -92.5 22t-69 57.5t-38.5 80.5t1 91q6 27 23 50t40 39.5t52 26t61 9.5h126l15 62h-318l-29 84h533zM468 -403q-29 47 -50 78.5t-37.5 50.5t-32 27t-33.5 8q-15 0 -31.5 -7t-31 -18t-25.5 -25.5t-15 -29.5q-10 -38 12 -38q3 0 15 7.5t25.5 18t27 21.5t20.5 19l34 -68
q-56 -48 -106 -48q-22 0 -41 10t-32 26.5t-18 38t1 44.5q11 46 49.5 75.5t89.5 29.5q19 0 38 -7l-37 84l-136 -86l-36 64l159 100q14 9 22 9q7 0 18 -24l66 -146l-25 -15q71 -43 149 -171zM433 167q7 26 -46 26q-15 0 -32 -7.5t-32 -20.5t-26 -30t-16 -36q-2 -10 -0.5 -12
t11.5 -2q22 0 45.5 7.5t43.5 19.5t34.5 26.5t17.5 28.5z" />
    <glyph glyph-name="glyph205" horiz-adv-x="606" 
d="M771 444h-157l-21 -85q82 -41 53 -157q-9 -35 -29 -65.5t-46.5 -53.5t-56.5 -36.5t-58 -13.5q-36 0 -58 18t-42 63q-62 -81 -138 -81q-32 0 -58.5 15t-43 39.5t-22 56.5t3.5 66q9 35 28.5 65t45.5 51.5t57 33.5t63 12q78 0 104 -74q58 63 107 69l19 77h-415l-29 84h664z
M536 -379q-29 47 -50 78.5t-37.5 50.5t-32 27t-33.5 8q-15 0 -31.5 -7t-31 -18t-25.5 -25.5t-15 -29.5q-10 -38 12 -38q3 0 15 7.5t25.5 18t27 21.5t20.5 19l34 -68q-56 -48 -106 -48q-22 0 -41 10t-32 26.5t-18 38t1 44.5q11 46 49.5 75.5t89.5 29.5q11 0 22 -2l-39 87
l-136 -86l-36 64l158 100q15 9 23 9q7 0 18 -24l66 -146l-23 -14q78 -37 165 -180zM370 267q-3 4 -10 8.5t-15.5 8t-17.5 6t-17 2.5q-22 0 -46 -11.5t-46 -29.5t-39 -40.5t-22 -44.5q-16 -63 47 -63q15 0 30.5 8.5t35 28t44 50.5t56.5 77zM586 243q15 60 -36 60
q-59 0 -166 -154q22 -36 65 -36q21 0 42.5 11t40.5 29t33.5 41.5t20.5 48.5z" />
    <glyph glyph-name="glyph206" horiz-adv-x="468" 
d="M624 226q-22 6 -54 6q-56 0 -101 -48l-50 -203l-82 63l29 86l-247 -134l-54 66l110 46q-18 12 -33 28t-24 34.5t-12.5 38t1.5 38.5q7 28 24 53t41 43.5t54 29.5t63 11q25 0 43.5 -4.5t31 -16t21.5 -30t16 -46.5h2l39 157h-332l-29 84h524l29 -84h-100l-39 -158
q47 30 103 30q28 0 40 -5zM391 236q-13 29 -40.5 46.5t-52.5 17.5q-17 0 -35.5 -8t-34.5 -21.5t-28.5 -30.5t-16.5 -35q-6 -24 1.5 -39.5t22.5 -15.5q12 0 34 8t48.5 20t53.5 27.5t48 30.5z" />
    <glyph glyph-name="glyph207" horiz-adv-x="492" 
d="M671 334l-35 -135q-14 -8 -35.5 -16.5t-44.5 -15.5t-43 -11.5t-31 -4.5q-27 0 -49 11t-37 30.5t-20 44.5t2 54q6 24 23 45.5t40.5 38t50.5 26t54 9.5q19 0 32 -2t24 -7t21 -15t22 -26l20 -26h6zM606 76l-447 -160l-53 66l168 54q-74 42 -147 179q-19 37 -15 53
q2 6 6.5 12.5t11 12.5t12.5 10t11 4q3 0 10.5 -3t15.5 -6.5t15 -6.5t9 -3q11 0 16 18l34 138h-144l-29 84h545l29 -84h-309l-38 -154q-5 -18 -12 -32t-18.5 -27t-28.5 -25t-42 -26q29 -53 68 -73.5t104 -20.5q18 0 48.5 7t66 18.5t71.5 26t64 30.5zM657 284q-37 50 -107 50
q-18 0 -36.5 -7t-33.5 -18.5t-26.5 -26t-14.5 -29.5q-10 -38 26 -38q9 0 36.5 8t59 19.5t59.5 23t37 18.5z" />
    <glyph glyph-name="glyph208" horiz-adv-x="281" 
d="M447 444h-118l-56 -224q-7 -29 -16.5 -37.5t-26.5 -8.5q-9 0 -28 15.5t-38.5 36.5t-32.5 43t-10 35q2 7 13.5 15.5t20.5 8.5h53l29 116h-130l-29 84h340zM401 220l-9 -36q-4 -16 -8 -28l-263 -158l-53 68z" />
    <glyph glyph-name="glyph209" horiz-adv-x="278" 
d="M411 148q-279 -154 -277 -154l-58 72l106 46q-15 12 -26 29t-18 36t-8.5 38t2.5 35q14 56 90 83v2q-85 30 -68 102l2 7h-47l-29 84h335l29 -84h-174q-16 -9 -25 -44q-9 -37 26 -56q17 3 30.5 5t24.5 2q4 0 9.5 -10t10 -22.5t7.5 -24.5t2 -15q-3 -12 -20 -12
q-135 0 -152 -68q-3 -14 12 -24.5t47 -10.5q70 0 192 84z" />
    <glyph glyph-name="glyph210" horiz-adv-x="348" 
d="M527 444h-418l-29 84h418zM505 156l-325 -158l-63 66l124 51q-61 53 -45 115q9 36 31 61h-59l-29 84h326l29 -84h-67q-26 0 -45 -2.5t-34 -8.5t-28 -16t-27 -25q-26 -28 -33 -55q-7 -30 28 -30q88 0 251 138z" />
    <glyph glyph-name="glyph211" horiz-adv-x="370" 
d="M537 444h-428l-29 84h428zM542 378l-21 -84h-140q32 -42 21 -86q-8 -35 -41 -56.5t-69 -21.5q-132 0 -164 203l39 19q6 -29 16 -53t22.5 -41.5t27.5 -27.5t30 -10q52 0 64 46q7 29 -36 90l15 22h236zM490 174l-15 -61l-314 -144l-38 64z" />
    <glyph glyph-name="glyph212" horiz-adv-x="423" 
d="M565 124l-129 -122l-55 57l204 154q-16 9 -32.5 18t-33.5 9q-63 0 -133 -60h-2q9 -15 6 -32l-10 -40q-4 -19 -23.5 -39t-47 -37t-59.5 -29t-62 -15l45 -122l-47 -25q-8 28 -17.5 59.5t-21.5 66.5q-4 9 -17 12.5t-27 7.5t-25.5 10t-14.5 21q-8 37 0 67q3 13 15 23t25 10
q46 0 53 -53q35 1 64.5 11t52 25t36.5 32t18 33q1 6 -7 6q-1 0 -16 -4t-34 -9.5t-38 -9.5t-26 -4q-20 0 -37.5 16t-30 40t-17.5 52t0 51q10 38 32.5 60.5t50.5 22.5h120l14 57h-229l-29 84h477l29 -84h-162l-28 -113q-6 -24 -23 -24h-144q-18 0 -34 -14.5t-21 -34.5
q-7 -29 12 -29q-2 0 18.5 4t46 9.5t47.5 9.5t23 4q30 0 37 -13l63 34q19 11 40.5 16t39.5 5q26 0 51 -9t49 -24z" />
    <glyph glyph-name="glyph213" horiz-adv-x="372" 
d="M525 195q-22 -2 -39.5 -3t-29.5 -1h-10q-22 -49 -66 -78t-95 -29q-111 0 -178 162l38 24q27 -58 54 -82t67 -24q22 0 44 8.5t40 22.5t31 32t17 37q6 22 -1.5 36t-20.5 14q-34 0 -98 -61l-46 83q59 42 103 42q24 0 44.5 -9t36.5 -24t26.5 -35.5t14.5 -44.5q13 1 35.5 5.5
t55.5 14.5zM536 444h-427l-29 84h427zM584 190l-9 -35q-4 -15 -7 -25l-264 -180l-58 59z" />
    <glyph glyph-name="glyph214" horiz-adv-x="430" 
d="M590 444h-108l-63 -252q-4 -18 -17.5 -35.5t-32 -31t-41 -21.5t-45.5 -8q-26 0 -54 16.5t-51.5 42t-36 54.5t-6.5 55l45 180h-71l-29 84h481zM390 444h-118l-55 -222q-12 -46 36 -46q29 0 55 20.5t34 55.5zM559 208l-8 -35q-4 -15 -8 -25l-263 -180l-59 59z" />
    <glyph glyph-name="glyph215" horiz-adv-x="240" 
d="M399 444h-290l-29 84h290zM392 195l-244 -148l-52 62l256 149q-27 38 -86 38q-40 0 -101 -32l-34 78q71 38 126 38q16 0 31.5 -5.5t32.5 -19t38 -37t49 -58.5z" />
    <glyph glyph-name="glyph216" horiz-adv-x="222" 
d="M404 281h-117q-85 0 -107 -88q-17 -66 42 -165l-43 -28q-28 59 -44 98t-23.5 67.5t-7 50t5.5 44.5q12 45 56.5 75t108.5 30h150zM388 444h-279l-29 84h279zM396 248l-8 -35q-4 -15 -8 -25l-143 -93l-40 55z" />
    <glyph glyph-name="glyph217" horiz-adv-x="333" 
d="M490 444q-7 0 -12 0.5t-9 0.5t-6 -0.5t-3 -0.5l-29 84h30zM445 133l-303 -149l-43 78l99 40q-9 7 -26 25t-33 38t-27 38t-10 24q1 2 14.5 7t33.5 12.5t43.5 17.5t43.5 22q-31 21 -50 36.5t-28.5 29.5t-11.5 27.5t3 30.5q6 25 21 46.5t35.5 37.5t45 25t50.5 9
q28 0 53.5 -15.5t43 -39.5t25.5 -53t1 -57q-24 -96 -203 -172q-2 -5 -3.5 -9t-2.5 -7q-8 -33 35 -33q18 0 47 10t60.5 27t63 38.5t55.5 44.5zM359 403q12 49 -40 49q-29 0 -53 -21t-32 -50q-2 -11 -2 -19t5 -15.5t15 -16t27 -19.5q66 37 80 92z" />
    <glyph glyph-name="glyph218" horiz-adv-x="315" 
d="M431 141l-275 -160l-55 65l90 41q-20 10 -36.5 25.5t-26 34t-13.5 38t1 37.5q17 67 112 90l1 2q-20 6 -36.5 17.5t-27 26.5t-14.5 32.5t1 35.5q10 43 49.5 72.5t90.5 29.5q22 0 40 -7.5t30 -21t16 -31t-1 -38.5q-9 -34 -44.5 -57t-77.5 -23q-3 0 -5.5 0.5t-5.5 0.5
q-3 -11 3.5 -14.5t19.5 -4.5t32.5 -1.5t44.5 -5.5l26 -83q-35 3 -46 3q-66 0 -106 -16.5t-46 -42.5q-9 -37 72 -37q17 0 42 7.5t54.5 21t59.5 31t56 37.5zM332 428q5 19 -6 31.5t-31 12.5q-22 0 -41 -16.5t-25 -39.5q-6 -24 3.5 -30.5t30.5 -6.5q25 0 44.5 14t24.5 35z
M505 444q-11 -1 -20 -1h-31q-7 0 -13 1l-29 84h64z" />
    <glyph glyph-name="glyph219" horiz-adv-x="222" 
d="M383 444h-274l-29 84h274zM383 276h-119q-18 0 -22 -19l-9 -36q-6 -23 -37 -23q-10 0 -23 16t-24 38t-17.5 44.5t-2.5 36.5q2 9 12 18t20 9h243zM356 161l-237 -161l-47 66l300 160z" />
    <glyph glyph-name="glyph220" horiz-adv-x="234" 
d="M117 89l181 104l-60 21q-64 22 -74 30q-28 21 -16 69l32 131h-71l-29 84h289l29 -84h-126l-37 -150q-2 -9 -1.5 -15t6 -10.5t16 -9t29.5 -9.5l89 -25l-1 -3l2 1l-6 -18l-8 -31l-5 -4l-6 -15l-156 -105q19 -41 12 -68q-2 -8 -10.5 -15.5t-16.5 -7.5q-17 0 -40 8t-44 20
t-34.5 25t-11.5 23q6 22 48 44z" />
    <glyph glyph-name="glyph221" horiz-adv-x="453" 
d="M614 218q-14 11 -43 11q-8 0 -23.5 -3.5t-33 -9t-34 -11.5t-24.5 -12l-50 -200l-80 63l25 98l-223 -153l-50 66l211 129l-51 18q-64 22 -74 30q-28 21 -16 69l32 131h-71l-29 84h519l29 -84h-110l-39 -157q48 26 92 26q40 0 57 -8zM426 444h-154l-37 -150q-2 -8 -1.5 -14
t5.5 -10.5t15.5 -9t30.5 -10.5l62 -19l31 19z" />
    <glyph glyph-name="glyph224" horiz-adv-x="300" 
d="M470 444h-356l-29 84h356zM414 140q-2 0 -137 -82t-136 -81l-53 65l113 54q-27 7 -46.5 24t-31 41t-14.5 52t4 56q6 27 24 51t44 42t58.5 28.5t69.5 10.5q109 0 142 -85h7zM415 272q6 24 -11.5 41.5t-50.5 17.5q-35 0 -58 -10l44 -133q63 31 76 84zM248 301
q-27 -11 -50 -36.5t-29 -48.5q-15 -63 60 -63q32 0 64 13z" />
    <glyph glyph-name="glyph225" horiz-adv-x="377" 
d="M529 444h-45l-29 84h45zM482 126l-251 -157l-59 59l318 160h-163q-12 -42 -21.5 -56.5t-25.5 -14.5q-12 0 -30 15t-34 35.5t-26.5 41.5t-7.5 34q8 30 37 30h50l11 25q-151 37 -126 139q6 21 18 39t29 32t38.5 22t45.5 8q31 0 53.5 -13t35.5 -35.5t15.5 -52.5t-5.5 -63
l-29 -102h163zM318 422q7 30 0 45t-23 15q-8 0 -18 -5.5t-19.5 -14t-17 -19.5t-10.5 -23q-16 -64 64 -78z" />
    <glyph glyph-name="glyph226" horiz-adv-x="278" 
d="M413 160l-241 -168l-59 59l305 163h-173l-11 -45q-6 -22 -32 -22q-11 0 -27 16t-30 37.5t-23.5 43.5t-6.5 34q5 22 30 22h29l36 144h-101l-29 84h333l29 -84h-140l-36 -146h182z" />
    <glyph glyph-name="glyph227" horiz-adv-x="278" 
d="M427 162l-287 -169l-59 59l133 62q-46 22 -69.5 76.5t-19.5 129.5q15 2 38.5 8t46.5 14.5t40.5 19t20.5 22.5q7 28 -6 60h-155l-29 84h335l29 -84h-123q19 -107 13 -130q-7 -28 -93 -47q-44 -11 -51 -39q-11 -46 55 -46q16 0 40 7t53 19.5t59 29t57 35.5z" />
    <glyph glyph-name="glyph228" horiz-adv-x="427" 
d="M586 444h-100l-112 -451l-78 63l14 56l-172 -138l-58 59l82 50q-87 36 -81 152q60 0 99 15.5t46 44.5q11 45 -69 45h-211l-2 72h205q28 0 53 -12.5t42 -33.5t24 -48.5t-1 -57.5q-14 -58 -84 -78q-18 -5 -23 -25q-3 -11 6 -20t26 -9q13 0 31 8t38 21.5t41 32.5t39 40
l53 214h-490l-29 84h682z" />
    <glyph glyph-name="glyph229" horiz-adv-x="383" 
d="M551 444h-440l-29 84h440zM531 181l-212 -152l-48 64l275 148zM556 275q-21 9 -49 9q-19 0 -34 -4.5t-30 -16t-31.5 -31t-38.5 -48.5l-62 50q11 23 24 39q-12 32 -53 32q-35 0 -64.5 -27.5t-39.5 -67.5q-5 -21 -3.5 -40.5t12 -41t31.5 -46.5t52 -58l-54 -37
q-134 160 -108 265q7 27 23.5 52t38 44t46.5 30t50 11q58 0 100 -81q61 60 110 60q15 0 26 -3.5t20.5 -11t18.5 -20.5t22 -32z" />
    <glyph glyph-name="glyph240" horiz-adv-x="276" 
d="M433 444h-324l-29 84h324zM410 151l-270 -159l-49 65l97 47q-21 11 -38 29t-27 39.5t-13.5 45t1.5 46.5q7 27 25.5 51t44 42t56 28.5t62.5 10.5t53 -7t36 -21t27 -36t27 -53zM417 257q-42 55 -115 55q-20 0 -38.5 -8t-34.5 -21.5t-27.5 -31.5t-16.5 -37q-14 -54 36 -54
q12 0 36 7.5t52.5 19t56 25t46.5 26.5z" />
    <glyph glyph-name="glyph241" horiz-adv-x="478" 
d="M642 444h-179l-30 -122q-3 -11 -6 -18t-14.5 -12.5t-34.5 -11.5t-64 -15q-42 -9 -68.5 -17.5t-43 -19.5t-25.5 -25.5t-14 -35.5q-16 -64 66 -64q76 0 209 82l23 -88q-12 -8 -25.5 -15t-29.5 -14l-65 -267l-75 49l19 62q-50 -36 -125 -36q-21 0 -41 12t-35.5 31.5t-22 44
t-0.5 50.5q13 54 67 84q-44 55 -26 129q24 96 165 120q49 8 67.5 15.5t22.5 23.5l14 58h-261l-29 84h532zM314 37q-14 -4 -33 -4q-46 0 -85 15q-29 -14 -53 -35.5t-28 -38.5q-8 -34 24 -34q14 0 36.5 7t47.5 18t47.5 25t38.5 28z" />
    <glyph glyph-name="glyph242" horiz-adv-x="245" 
d="M412 268l-23 -95l-255 -183l-55 74l130 68q-19 10 -35 24t-26.5 30.5t-14.5 34.5t0 35l47 188h-70l-29 84h301l29 -84h-139l-2 -10zM255 374l-39 -154q-8 -32 21 -32q40 0 127 63z" />
    <glyph glyph-name="glyph243" horiz-adv-x="345" 
d="M459 192q-19 -9 -42 -13t-50 -4q-34 0 -79 50q-12 -14 -33.5 -31.5t-53.5 -39.5q12 -25 35.5 -63t58.5 -89l-48 -36l-112 218q-29 57 -20 94q4 14 19 24.5t28 10.5q4 0 11.5 -4.5t15 -10t13 -10t7.5 -4.5q5 0 8 12l37 148h-145l-29 84h486l29 -84h-249l-43 -175
q24 -10 71 -10q6 0 23 3.5t36 9t34 10.5t18 8zM268 82l191 109l-21 -83l-121 -82zM463 194v-1l-4 -2v1z" />
    <glyph glyph-name="glyph244" horiz-adv-x="428" 
d="M593 444h-54l-29 84h54zM561 159l-50 17l-304 -182l-59 61l273 158l-59 40q-65 -38 -117.5 -65.5t-92.5 -43.5l-55 62q12 4 36.5 14.5t51.5 23t51.5 25t35.5 20.5q-51 29 -66.5 55t-6.5 62q5 23 20 45t36 39t46 27.5t51 10.5q28 0 51 -17t36.5 -42.5t18.5 -56t-2 -56.5
q-9 -36 -51 -70q27 -20 68 -41.5t98 -46.5zM399 411q4 17 -4 29t-24 12q-29 0 -54 -21t-33 -52q-8 -34 31 -62q12 4 25.5 15t25.5 24.5t21 28t12 26.5z" />
    <glyph glyph-name="glyph245" horiz-adv-x="605" 
d="M766 444h-100l-105 -423q-79 -14 -128 -38.5t-56 -51.5q-9 -36 54 -36q57 0 131 40l40 -71q-74 -33 -134 -33q-36 0 -64 11.5t-46.5 30.5t-26 44.5t-0.5 53.5q18 73 149 109l29 94q-42 16 -78.5 36t-67.5 43q-65 -38 -117.5 -65.5t-92.5 -43.5l-55 62q12 4 36.5 14.5
t51.5 23t51.5 25t35.5 20.5q-51 29 -66.5 55t-6.5 62q5 23 20 45t36 39t46 27.5t51 10.5q28 0 51 -17t36.5 -42.5t18.5 -56t-2 -56.5q-9 -36 -51 -70q30 -29 113 -63l55 221h-39l-29 84h231zM400 411q4 17 -4 29t-24 12q-29 0 -54 -21t-33 -52q-8 -34 31 -62q12 4 25.5 15
t25.5 24.5t21 28t12 26.5z" />
    <glyph glyph-name="glyph246" horiz-adv-x="378" 
d="M564 444h-126l-28 -113q-6 -24 -23 -24h-132q-57 0 -67 -42q-6 -24 8 -35q8 5 25 10.5t36 10.5t38 8t31 3q93 0 154 -38l-16 -66l-176 -159l-58 59l210 135q-39 9 -93 9q-27 0 -56 -10t-53.5 -26.5t-43 -37t-23.5 -41.5q-24 -98 152 -145l-29 -38q-56 13 -98.5 35t-70 49
t-38 58.5t-2.5 63.5q12 50 70 96q-9 10 -15.5 25t-10.5 31t-5 31.5t1 25.5q17 68 105 68h108l14 57h-245l-29 84h457z" />
    <glyph glyph-name="glyph247" horiz-adv-x="680" 
d="M850 444h-339l-24 -96q76 49 116 49q21 0 42 -14.5t36.5 -37.5t22 -52t-0.5 -57t-31 -50l-57 58q19 28 25 52q8 31 -17 31q-8 0 -29.5 -9t-47.5 -21.5t-49 -26t-35 -23.5l-16 -64q82 49 115 49q22 0 43 -14.5t36.5 -37.5t22.5 -50.5t1 -52.5q-13 -50 -76 -91l-57 58
q73 44 81 75q5 18 -7 29t-29 11q-10 0 -28.5 -6.5t-40.5 -16.5t-44.5 -22t-39.5 -22l-32 -130l-81 35l18 53q-82 -44 -130 -44q-22 0 -43.5 13.5t-37.5 33.5t-24.5 43t-3.5 43q11 42 60 71q-39 49 -27 96q10 42 53 67.5t100 25.5q41 0 66 -18.5t48 -67.5h4l32 131h-316
l-29 84h741zM383 277q-4 8 -16 16t-27 15t-30.5 11t-27.5 4q-83 0 -101 -73q-10 -38 48 -38q68 0 152 60zM361 190q-76 -42 -116 -42q-26 0 -51 13q-40 -20 -48 -50q-4 -17 5 -29t26 -12q63 0 171 67z" />
    <glyph glyph-name="glyph248" horiz-adv-x="670" 
d="M832 444h-298l-26 -103q79 40 110 40q61 0 85 -38t9 -96q-7 -28 -16 -49.5t-21 -41t-29.5 -39.5t-41.5 -44l-60 54q98 88 112 145q8 32 -21 32q-6 0 -12.5 -1t-22 -7.5t-43.5 -20.5t-76 -39l-62 -255l-50 41q-67 -44 -117 -44q-120 0 -114 76l-47 -24l-40 49l242 94
l41 -46l-94 -41q-28 -12 -35 -39q-6 -25 36 -25q11 0 19.5 1.5t19 8.5t26.5 20t42 37q12 43 20 70t11 39q-1 -1 -20 -6t-44 -11.5t-50 -12t-36 -5.5q-20 0 -42 11.5t-39.5 30t-26 41.5t-3.5 46q12 48 52.5 79t94.5 31q95 0 149 -68l28 110h-334l-29 84h724zM399 285
q-5 7 -21 15t-35.5 14.5t-39.5 10.5t-32 4q-30 0 -55.5 -17.5t-32.5 -44.5q-4 -17 5 -26.5t23 -9.5q15 0 46 8t62.5 18t55 18.5t24.5 9.5z" />
    <glyph glyph-name="glyph249" horiz-adv-x="746" 
d="M910 444h-321l-22 -91q46 18 88 18q28 0 50 -16.5t34.5 -43.5t16 -62.5t-6.5 -72.5q-17 -70 -99 -158l-67 59q50 55 78 96.5t36 73.5q7 27 -2 40.5t-30 13.5q-46 0 -121 -38l-67 -270l-80 63l57 226h-92q-33 0 -58 -20.5t-33 -51.5q-16 -64 50 -142l-34 -29
q-106 115 -84 205q7 27 16 38h-54l-29 84h342l19 78h-387l-29 84h800z" />
    <glyph glyph-name="glyph281" horiz-adv-x="670" 
d="M832 444h-298l-33 -133q9 6 23 13t29.5 13.5t30.5 10.5t24 4q25 0 46 -13.5t34 -37t16.5 -54t-5.5 -63.5q-3 -15 -13 -36.5t-23 -44t-28 -43.5t-29 -36l-68 62q16 19 34 43t33 47t26 41.5t14 27.5q3 12 -4.5 21.5t-18.5 9.5q-8 0 -29 -9t-44.5 -21t-45 -25t-30.5 -21
l-54 -219l-82 63l33 104q-61 -44 -94.5 -68t-54.5 -38q19 -41 12 -68q-2 -7 -10.5 -15t-16.5 -8q-17 0 -40 8t-44 20t-34.5 25t-11.5 23q4 16 48 44l71 45q-21 10 -39 26.5t-29.5 36t-16 41.5t0.5 43q7 28 24 53t41 43.5t54 29.5t63 11q25 0 43.5 -4.5t31 -16t21.5 -30
t16 -46.5h2l35 141h-334l-29 84h724zM395 252q-13 29 -40.5 46.5t-52.5 17.5q-17 0 -35.5 -8t-34.5 -21.5t-28.5 -30.5t-16.5 -35q-7 -26 1.5 -40.5t24.5 -14.5q58 0 182 86z" />
    <glyph glyph-name="glyph282" horiz-adv-x="688" 
d="M595 -96q-21 -82 -154 -155l-60 71q145 71 155 110t-31 39q-11 0 -31.5 -10.5t-43.5 -26.5t-46 -35.5t-39 -38.5l-58 55l27 29q-25 39 -62 39q-33 0 -64 -19t-38 -50q-17 -65 64 -120l-40 -27q-35 28 -58 50.5t-35 42.5t-14.5 39.5t2.5 40.5q13 51 54.5 82.5t102.5 31.5
q66 0 122 -75q9 11 26 23l20 12l-54 42l29 88q-64 -46 -118 -46q-31 0 -59 14.5t-49 37.5t-31 51.5t-2 57.5q7 28 23.5 53t40.5 43.5t54.5 29.5t63.5 11q25 0 43 -4.5t31 -16t22 -30t16 -46.5h2l36 147h-334l-29 84h724l29 -84h-298l-34 -139q8 6 22.5 13t30 13.5t30.5 10.5
t24 4q30 0 54 -10.5t39 -29.5t20.5 -45.5t-2.5 -57.5q-23 -93 -109 -164l-77 65q22 13 44 32t40.5 39t31.5 38t16 30q10 39 -27 39q-8 0 -31.5 -10.5t-50.5 -25t-50.5 -29t-32.5 -23.5l-42 -166q10 4 21 7q21 6 36 6q24 0 46 -12.5t38 -32.5t23 -44t1 -48zM394 246
q-14 29 -41 46.5t-52 17.5q-17 0 -35.5 -8t-35 -21.5t-28.5 -30.5t-17 -35q-6 -24 1.5 -39.5t22.5 -15.5q7 0 32 10t54.5 23.5t57.5 28.5t41 24z" />
    <glyph glyph-name="glyph283" horiz-adv-x="670" 
d="M832 444h-298l-32 -129q9 6 23 13t29.5 13.5t30.5 10.5t24 4q25 0 46 -13.5t34 -37t16.5 -54t-5.5 -63.5q-3 -15 -13 -36.5t-23 -44t-28 -43.5t-29 -36l-68 62q16 19 34 43t33 47t26 41.5t14 27.5q3 12 -4.5 21.5t-18.5 9.5q-8 0 -29 -9t-44.5 -21t-45 -25t-30.5 -21
l-55 -223l-65 52q-81 -62 -165 -62q-22 0 -45.5 11t-42.5 28.5t-28.5 40t-4.5 45.5q10 38 39 66l36 29q-36 40 -26 78q15 60 63 97.5t114 37.5q25 0 43.5 -4.5t31 -16t21.5 -30t16 -46.5h2l34 137h-334l-29 84h724zM396 256q-13 29 -40.5 46.5t-52.5 17.5q-37 0 -69 -23
t-41 -59q-11 -44 35 -44q9 0 32.5 7t50.5 17t51.5 20.5t33.5 17.5zM367 148q-60 -29 -100 -29q-13 0 -64 23q-9 0 -20.5 -8.5t-22 -20.5t-19 -25.5t-11.5 -23.5q-10 -43 36 -43q19 0 46.5 12t56.5 30.5t55.5 41t42.5 43.5z" />
    <glyph glyph-name="glyph284" horiz-adv-x="724" 
d="M886 444h-100l-117 -471l-77 83q1 4 3.5 11.5t6.5 18.5l-380 -90q0 -56 -2 -61q-2 -8 -10 -15.5t-16 -7.5q-14 0 -36 9t-41.5 22t-33 28t-10.5 26q8 35 48 44l131 29q-31 28 -59.5 70t-59.5 99q-19 35 -15 53q2 6 6.5 12.5t11 12.5t12.5 10t11 4q3 0 10.5 -3t15.5 -6.5
t15 -6.5t9 -3q11 0 16 18l28 114h-144l-29 84h777zM658 288q-37 50 -107 50q-19 0 -37 -6t-33 -16t-25.5 -23t-13.5 -26q-5 -22 2 -30t35 -8q10 0 35.5 7t54.5 16.5t54.5 19.5t34.5 16zM637 203q-13 -7 -32 -14t-39 -12t-38.5 -8.5t-31.5 -3.5q-27 0 -51.5 11.5t-40.5 31
t-22.5 45t0.5 52.5q5 22 21.5 42t39 35t50 23.5t54.5 8.5q19 0 32 -2t24 -7t21 -15t22 -26l20 -26h2l26 106h-349l-32 -130q-5 -18 -12 -32t-18.5 -27t-28.5 -25t-42 -26q54 -102 162 -107l251 56v3q1 2 2 4.5t2 5.5q1 6 3 15t5 22z" />
    <glyph glyph-name="glyph285" horiz-adv-x="653" 
d="M819 444h-238l-26 -104q-6 -25 -24 -25h-194q-54 0 -65 -44q-1 -6 6 -14t16 -8l20 4q20 4 44.5 8.5t46 8t24.5 3.5q23 -1 45.5 -13t39.5 -30t26 -39.5t4 -40.5q-5 -20 -22 -38t-40 -31.5t-50 -22t-52 -9.5l-16 -62q51 26 77 26q21 0 39.5 -14t31 -35.5t17.5 -47.5t-1 -50
q-3 -11 -11.5 -28.5t-20 -35.5t-23.5 -34.5t-21 -25.5l-61 47q12 12 26 29t26 34.5t21 33t11 24.5q4 17 -5.5 28t-26.5 11q-6 0 -20.5 -5.5t-30.5 -13t-30 -15.5t-19 -13l-40 -160l-70 44l23 80q-67 -44 -114 -44q-25 0 -46 9t-35 25t-20 37.5t1 46.5q11 45 50 74t87 29
q37 0 60 -17t44 -46l17 69q-135 39 -200 177l38 25q73 -132 192 -132q24 0 49 6t46 15.5t35 22.5t18 27q5 19 -21 19q-2 0 -24 -5.5t-48.5 -12.5t-48.5 -12.5t-26 -5.5q-22 0 -41.5 13.5t-32 34.5t-18 46t0.5 48q19 76 97 76h176l13 53h-399l-29 84h713zM272 -51
q-31 30 -66 30q-18 0 -35.5 -6.5t-33 -17t-26.5 -23.5t-14 -26q-3 -11 5 -19.5t20 -8.5q11 0 30.5 6.5t41.5 17t43 23t35 24.5zM691 283l-79 -64l-47 64l79 64z" />
    <glyph glyph-name="glyph286" horiz-adv-x="686" 
d="M852 444h-217l-24 -96q-6 -25 -24 -25h-206q-66 0 -75 -35q-3 -12 4.5 -21.5t18.5 -9.5l20 4q20 4 44.5 8.5t46 8t24.5 3.5q18 -1 41 -12t41 -28t28 -39t5 -44q-4 -17 -19 -32.5t-37 -27t-50.5 -19t-58.5 -8.5l-12 -49q37 15 72 15q23 0 40.5 -13.5t28 -35.5t13 -50.5
t-5.5 -58.5q-14 -57 -80 -127l-55 47q42 46 64.5 80t28.5 58q11 43 -26 43q-39 0 -98 -30l-55 -219l-63 51l46 183h-75q-27 0 -47 -16.5t-27 -42.5q-13 -51 42 -114l-29 -23q-86 93 -68 165q5 19 13 31h-43l-24 68h276l10 42l-55 20q-64 23 -105.5 69t-66.5 106l40 24
q59 -160 214 -160q24 0 48.5 6t45.5 15.5t35 21t17 23.5q2 8 -3 16.5t-16 8.5q-1 0 -12 -3.5t-27.5 -8t-35.5 -10.5t-36.5 -10.5t-30 -8t-16.5 -3.5q-22 0 -41.5 13.5t-32 34.5t-18 46t0.5 48q19 76 97 76h196l11 45h-441l-29 84h744zM737 291l-79 -64l-47 64l79 64z" />
    <glyph glyph-name="glyph287" horiz-adv-x="656" 
d="M820 444h-209l-24 -96q-6 -25 -24 -25h-170q-66 0 -75 -35q-3 -12 4.5 -21.5t18.5 -9.5l20 4q20 4 44.5 8.5t46 8t24.5 3.5q18 -1 41 -12t41 -28t28 -39t5 -44q-7 -28 -32 -48l-101 -406l-47 34q-64 -28 -133 -28q-70 0 -116 40t-83 125q-41 95 -39 103q3 12 13.5 23
t19.5 11q2 0 44 -17q5 9 12.5 26t15 37t14.5 42t11 40l4 15q2 7 3 14q-17 21 -29.5 46.5t-22.5 54.5l40 24q59 -160 214 -160q24 0 48.5 6t45.5 15.5t35 21t17 23.5q2 8 -3 16.5t-16 8.5q-1 0 -12 -3.5t-27.5 -8t-35.5 -10.5t-36.5 -10.5t-30 -8t-16.5 -3.5
q-22 0 -41.5 13.5t-32 34.5t-18 46t0.5 48q19 76 97 76h160l11 45h-416l-29 84h711zM422 -134h-4q-8 -9 -20.5 -17t-27 -15t-28 -11t-22.5 -4q-23 0 -44.5 10t-37.5 26t-24 36t-2 41q10 43 50 72.5t92 29.5q37 0 54 -8l43 -44l22 90q-39 -8 -83 -8q-76 0 -155 60l-16 -64
q-6 -27 -12.5 -47.5t-16.5 -38.5t-25 -36t-39 -41q8 -28 23 -50.5t34.5 -38.5t42 -25t46.5 -9q52 0 135 32zM435 -48q-23 18 -66 18q-32 0 -60 -19.5t-34 -45.5q-8 -30 19 -30q10 0 28 6.5t38 17.5t40 24.5t35 28.5zM713 291l-79 -64l-47 64l79 64z" />
    <glyph glyph-name="glyph288" horiz-adv-x="607" 
d="M651 269l-79 -64l-47 64l79 64zM768 444h-213l-26 -104q-6 -25 -25 -25h-168q-56 0 -69 -52q-9 -37 24 -37q37 4 68 8q27 3 49 5.5t26 2.5q14 0 23.5 -3t17 -9t14 -17t14.5 -28q20 -50 14 -76q-5 -20 -24.5 -45.5t-41.5 -39.5l-70 -282l-68 56l53 195q-14 -4 -38 -4
q-45 0 -75 18l-47 -188q-8 -33 -31 -33q-5 0 -17 8t-25.5 19.5t-25.5 24t-17 21.5q-9 16 -6 28q2 6 11 12.5t17 6.5h46l34 138q-24 17 -50 51.5t-52 88.5l38 25q76 -144 200 -144q24 0 45.5 7.5t38.5 19.5t29 28t17 33q4 19 -20 19q-2 0 -20.5 -4t-40 -9t-40.5 -9t-22 -4
q-24 0 -45 17.5t-37 43t-22.5 54t-1.5 50.5q20 80 103 80h154l13 53h-370l-29 84h661z" />
    <glyph glyph-name="glyph289" horiz-adv-x="608" 
d="M769 444h-202l-26 -104q-6 -25 -24 -25h-179q-54 0 -65 -44q-1 -6 6 -14t16 -8l20 4q20 4 44.5 8.5t46 8t24.5 3.5q23 -1 45.5 -13t39.5 -30t26 -39.5t4 -40.5q-11 -42 -66 -72l-82 -330l-71 32l18 52q-68 -36 -105 -36q-23 0 -45 12.5t-38.5 32t-25 43t-2.5 44.5
q11 46 71 65q-55 49 -45 89q6 23 21 35q-50 40 -77 97l39 26q67 -121 194 -121q24 0 49 6t46 15.5t35 22.5t18 27q5 19 -21 19q-2 0 -24 -5.5t-48.5 -12.5t-48.5 -12.5t-26 -5.5q-22 0 -41.5 13.5t-32 34.5t-18 46t0.5 48q19 76 97 76h161l13 53h-380l-29 84h658zM397 53
q-11 -2 -20.5 -3t-18.5 -1q-52 0 -110 23q-12 -10 -17 -30t11 -39q8 1 16.5 1.5t15.5 0.5q8 0 13.5 -0.5t11.5 -1.5q18 -50 15 -61q-2 -10 -14 -10h-51q-25 0 -47.5 -12t-26.5 -27q-7 -27 58 -27q52 0 130 53zM667 284l-79 -64l-47 64l79 64z" />
    <glyph glyph-name="glyph290" horiz-adv-x="631" 
d="M795 444h-685l-29 84h685zM756 156q-14 -11 -43 -25.5t-60 -27.5t-58.5 -22t-38.5 -9q-57 0 -102 52q-13 -11 -30 -20t-35 -16.5t-34.5 -11.5t-29.5 -4q-23 0 -47 15t-43.5 37.5t-30 47.5t-5.5 46q10 40 25 61h-59l-29 84h534l30 -84h-122q-68 -38 -82 -93
q-11 -44 50 -44q12 0 43.5 13t68.5 32t71 39t52 35zM336 279q-53 -44 -65 -93q-11 -44 31 -44q9 0 24.5 5t34.5 14t38.5 20.5t36.5 24.5q1 11 1 18t1 10q8 31 23 45h-125z" />
    <glyph glyph-name="glyph291" horiz-adv-x="870" 
d="M1033 444h-121l-112 -451l-81 63l25 91q-103 -75 -188 -75q-57 0 -102 52q-13 -11 -30 -20t-35 -16.5t-34.5 -11.5t-29.5 -4q-23 0 -47 15t-43.5 37.5t-30 47.5t-5.5 46q10 40 25 61h-59l-29 84h534l30 -84h-122q-65 -36 -78 -89q-12 -48 46 -48q87 0 227 112l50 190
h-713l-29 84h923zM336 279q-53 -44 -65 -93q-11 -44 31 -44q9 0 24.5 5t34.5 14t38.5 20.5t36.5 24.5q1 11 1 18t1 10q8 31 23 45h-125z" />
    <glyph glyph-name="glyph292" horiz-adv-x="596" 
d="M757 444h-100l-112 -451l-80 63l12 39l10 35l6 21l1 5l-260 -94q19 -41 12 -68q-2 -8 -10.5 -15.5t-16.5 -7.5q-17 0 -40 8t-44 19.5t-35 24.5t-11 24q7 28 48 44l97 37q-51 51 -37 107q9 36 31 61h-59l-29 84h316l29 -84h-57q-66 0 -110 -27t-55 -70q-3 -14 7.5 -24.5
t25.5 -10.5q101 0 227 110l42 170h-456l-29 84h648z" />
    <glyph glyph-name="glyph293" horiz-adv-x="595" 
d="M757 444h-100l-112 -451l-61 49q-74 -70 -164 -70q-29 0 -55.5 13.5t-44 35t-25.5 47.5t-2 50q8 32 34 53q-29 47 -19 87q6 23 22 43h-59l-30 84h306l30 -84h-67q-23 0 -46 -6t-42.5 -16.5t-33 -24.5t-17.5 -30q-5 -20 5 -31t24 -11q99 0 227 107l38 155h-456l-29 84h648
zM500 173q-83 -61 -162 -61q-31 0 -51 10q-25 -17 -31 -38q-11 -44 49 -44q87 0 184 97z" />
    <glyph glyph-name="glyph294" horiz-adv-x="573" 
d="M736 444h-164l-12 -47q12 -11 22 -28t17 -36t9 -38.5t-2 -34.5q-20 -82 -117 -150l-71 -283l-74 48l13 39q-46 -32 -106 -32q-28 0 -51 12.5t-38 32.5t-21 44t0 47q6 25 37 52q-58 55 -44 111q8 35 42 53q-59 52 -49 93q9 36 46 61.5t86 25.5q11 0 21 -1.5t20 -3.5
l22 -81q-19 6 -57 6q-25 0 -48.5 -12.5t-27.5 -28.5q-5 -19 19 -41q43 16 78 16q6 0 12 -0.5t12 -1.5l9 -76q-6 1 -12 1h-12q-42 0 -69 -14t-31 -32q-5 -18 16.5 -28.5t53.5 -10.5q48 0 95.5 16t81.5 47q-59 36 -78 66.5t-10 68.5q10 39 43 68.5t80 35.5l9 36h-378l-29 84
h628zM396 58q-52 -21 -102 -21q-11 0 -26 3q-24 0 -41.5 -17.5t-22.5 -35.5q-3 -14 9 -26.5t35 -12.5q59 0 134 56zM547 301q6 24 -0.5 40.5t-23.5 16.5q-26 0 -50 -22.5t-32 -52.5q-10 -42 36 -87q56 52 70 105z" />
    <glyph glyph-name="glyph295" horiz-adv-x="590" 
d="M750 444h-100l-112 -451l-80 63l21 81h-136q17 -26 9 -58q-9 -35 -41.5 -56.5t-68.5 -21.5q-121 0 -154 204l39 19q13 -66 37.5 -102t51.5 -36q52 0 63 46q4 15 -7 38q-112 9 -143 204l39 19q13 -66 37.5 -102t51.5 -36q52 0 64 46q6 25 -27 67l15 22h236l13 54h-449
l-29 84h641zM524 306h-140q17 -26 9 -58q-2 -10 -11 -27h121z" />
    <glyph glyph-name="glyph296" horiz-adv-x="590" 
d="M750 444h-100l-112 -451l-80 63l10 38l-195 -40q1 0 3 -10l4.5 -22.5t3.5 -23.5t1 -12q-2 -8 -10.5 -15.5t-16.5 -7.5q-19 0 -42.5 9.5t-43.5 23t-33 28.5t-10 26q5 20 44 30l316 81q6 20 12 44l24 99h-142q33 -42 22 -86q-9 -35 -42 -56.5t-69 -21.5q-132 0 -164 203
l40 19q6 -29 16 -53t22.5 -41.5t27.5 -27.5t30 -10q52 0 63 46q3 10 2.5 19t-5 18.5t-12.5 22t-20 30.5l14 22h236l14 56h-449l-29 84h641z" />
    <glyph glyph-name="glyph297" horiz-adv-x="589" 
d="M750 444h-100l-112 -451l-79 62q-79 -56 -157 -56q-22 0 -45.5 11t-42.5 28.5t-28.5 40t-4.5 45.5q10 40 39 68q-69 44 -91 182l39 19q13 -66 37.5 -102t51.5 -36q52 0 64 46q6 25 -27 67l15 22h236l13 54h-449l-29 84h641zM488 168q-33 20 -86 20q-60 0 -103.5 -25
t-55.5 -71q-10 -43 36 -43q19 0 48 10.5t59 27t57.5 36.5t43.5 38zM384 306q17 -29 9 -58l-1 -5q32 -5 61.5 -18.5t43.5 -25.5l13 53q6 22 16 54h-142z" />
    <glyph glyph-name="glyph298" horiz-adv-x="684" 
d="M845 444h-101l-114 -457l-43 38q-14 -12 -37 -25.5t-49 -25t-51 -19t-44 -7.5q-69 0 -107.5 24.5t-35.5 70.5l-91 -41l-51 62l376 140l52 -58l-159 -63q-15 -6 -27.5 -22t-15.5 -27q-10 -42 32 -42q16 0 41 11.5t52.5 30t54.5 41t44 44.5l32 128h-10q-85 0 -134 50l-3 -2
q0 -6 -1 -11t-2 -9q-5 -19 -19.5 -38t-36 -34.5t-47 -25t-51.5 -9.5q-30 0 -55 4t-47 14.5t-43.5 27.5t-44.5 43l33 35q57 -54 111 -54q22 0 45 8.5t42.5 21.5t33 29.5t17.5 32.5q8 34 -13 34q-30 0 -105 -73l-48 77q58 46 120 46q18 0 29 -1.5t21 -7t22.5 -16.5t33.5 -30
q6 -5 17 -10t24 -9t27 -6.5t24 -2.5q46 0 88 19l23 94h-545l-29 84h736z" />
    <glyph glyph-name="glyph299" horiz-adv-x="672" 
d="M832 444h-100l-114 -457l-77 63l13 41l-139 -22q23 -39 14 -75t-41 -58t-74 -22q-131 0 -205 198l41 24q47 -134 127 -134q31 0 53.5 16.5t27.5 37.5q10 40 -26 65l16 25l225 28l18 73h-8q-69 0 -118 50l-3 -2q0 -6 -1 -11t-2 -9q-5 -19 -19.5 -38t-36 -34.5t-47 -25
t-51.5 -9.5q-111 0 -195 89l33 35q57 -54 116 -54q22 0 45 8.5t42.5 21.5t33 29.5t17.5 32.5q8 34 -13 34q-30 0 -105 -73l-48 77q58 46 120 46q18 0 29 -1.5t21 -7t22.5 -16.5t33.5 -30q6 -5 17 -10t24 -9t27 -6.5t24 -2.5q29 0 68 19l23 94h-531l-29 84h723z" />
    <glyph glyph-name="glyph300" horiz-adv-x="422" 
d="M585 444h-130l-27 -109q-4 -16 -30 -18l-105 -8q-63 -5 -87.5 -13.5t-29.5 -28.5q-14 -57 74 -57q18 0 42 5t49.5 13t50 18t44.5 21l19 -83q-45 -29 -73 -32l-31 -126q-4 -16 -31 -18l-104 -8q-63 -5 -87.5 -13.5t-29.5 -28.5q-14 -57 74 -57q18 0 42 5t49.5 13t50 18
t44.5 21l19 -83q-12 -9 -31 -17t-42 -14t-47.5 -9.5t-48.5 -3.5q-45 0 -79.5 12.5t-57 33.5t-30 50t0.5 62q20 81 122 88l91 6q30 2 32 12l11 45h-11q-45 0 -80 12t-57.5 33.5t-30.5 50.5t0 62q20 81 122 88l91 6q30 2 32 12l10 40h-265l-29 84h475z" />
    <glyph glyph-name="glyph301" horiz-adv-x="443" 
d="M606 444h-136l-27 -109q-4 -16 -30 -18l-105 -8q-63 -5 -87.5 -13.5t-29.5 -28.5q-18 -71 70 -71q18 0 42.5 5t50 13t50 18t44.5 21l19 -83q-41 -28 -78 -34q0 -7 -1.5 -13.5t-2.5 -11.5q-9 -37 -21 -59q70 -69 59 -114q-7 -27 -27 -51t-48.5 -42t-63 -28.5t-70.5 -10.5
q-42 0 -77.5 14.5t-60 38.5t-34.5 55.5t-1 66.5q7 30 22 49t40 30.5t63.5 15.5t93.5 4q36 0 44 25l2 21h-11q-44 0 -78 12.5t-55.5 34t-30 50t-0.5 61.5q24 95 126 102l91 6q30 2 32 12l10 40h-282l-29 84h498zM349 -39q3 12 3.5 20t-7.5 12t-28 5.5t-58 1.5
q-78 0 -114.5 -16t-46.5 -54q-13 -54 84 -54q27 0 55 7.5t51.5 19.5t40 27.5t20.5 30.5z" />
    <glyph glyph-name="glyph302" horiz-adv-x="471" 
d="M634 444h-133l-25 -103q-7 -26 -27 -26h-161q-54 0 -65 -44q-6 -24 31 -24q-2 0 17.5 3.5t44.5 8t47 8t24 3.5q16 0 27.5 -2t19 -8t13 -16t10.5 -26q17 -53 9 -83q-6 -24 -35 -50t-65 -40l-32 -127q-4 -16 -30 -18l-105 -8q-63 -5 -87.5 -13.5t-29.5 -28.5
q-14 -56 74 -56q18 0 42 4.5t49.5 12.5t50 18t44.5 21l20 -82q-13 -9 -32 -17t-42 -14t-47 -9.5t-48 -3.5q-45 0 -80 12.5t-57.5 33.5t-30 49.5t0.5 61.5q20 81 122 88l91 6q30 2 32 12l12 47q-115 3 -198 132l34 27q20 -26 38.5 -43t37 -27.5t41 -14.5t50.5 -4q20 0 41.5 7
t39 17.5t30 22.5t15.5 23q5 20 -19 20q-3 0 -20 -3.5t-37.5 -8t-38 -8t-21.5 -3.5q-23 0 -44.5 14.5t-37 36.5t-22.5 47t-2 46q19 76 97 76h145l13 53h-317l-29 84h526z" />
    <glyph glyph-name="glyph303" horiz-adv-x="522" 
d="M684 444h-147l-25 -103q-7 -26 -27 -26h-161q-54 0 -65 -44q-6 -24 31 -24q-2 0 17.5 3.5t44.5 8t47 8t24 3.5q16 0 27.5 -2t19 -8t13 -16t10.5 -26q17 -53 9 -83q-5 -19 -22.5 -37t-42 -32.5t-53 -23t-55.5 -8.5q-6 0 -15 1t-17.5 2.5t-16 3t-10.5 1.5q-8 0 -18 -5
t-19.5 -13.5t-16 -18t-9.5 -18.5q-5 -21 24 -21q-5 0 13.5 3.5t42.5 7.5t46.5 7.5t26.5 3.5q17 0 28.5 -2t19 -8t13 -16.5t10.5 -26.5q16 -47 9 -72q-5 -23 -23 -44t-44.5 -37t-59 -25t-68.5 -9q-128 0 -219 180l36 25q69 -135 161 -135q27 0 54 6.5t50 17t38 23.5t18 26
q6 21 -17 21q-2 0 -19.5 -3.5t-38 -7.5t-39 -7.5t-23.5 -3.5q-24 0 -44.5 10.5t-34 27.5t-19 37.5t-0.5 40.5q4 18 20 41t31 33q-50 38 -78 86l34 27q20 -26 38.5 -43t37 -27.5t41 -14.5t50.5 -4q20 0 41.5 7t39 17.5t30 22.5t15.5 23q5 20 -19 20q-3 0 -20 -3.5t-37.5 -8
t-38 -8t-21.5 -3.5q-23 0 -44.5 14.5t-37 36.5t-22.5 47t-2 46q19 76 97 76h145l13 53h-355l-29 84h578z" />
    <glyph glyph-name="glyph304" horiz-adv-x="523" 
d="M684 444h-147l-24 -97q-6 -26 -26 -26h-161q-33 0 -45.5 -8t-18.5 -30q-6 -24 31 -24q-2 0 17.5 3.5t44.5 8t47 8t24 3.5q16 0 27.5 -2t19 -8t13 -16t10.5 -26q17 -53 9 -83q-2 -10 -11.5 -21.5t-22.5 -22t-28 -18.5t-29 -11l-15 -58q-14 -19 -36 -19h-131
q-28 0 -50.5 -18.5t-28.5 -41.5q-20 -80 66 -103q-2 28 3 49q5 18 17 34.5t27.5 29t34 20t36.5 7.5q22 0 41.5 -10t33.5 -26.5t20 -37t0 -41.5q-10 -43 -51.5 -71t-96.5 -28q-42 0 -80.5 18.5t-65 49t-38 69.5t-1.5 80q9 37 39 63.5t72 26.5h101l-37 9q-26 6 -46 15t-37 22
t-32 32t-32 45l34 27q20 -26 38.5 -43t37 -27.5t41 -14.5t50.5 -4q20 0 41 5.5t38 14t29 18.5t15 20q5 20 -19 20q-3 0 -20 -3.5t-37.5 -8t-38 -8t-21.5 -3.5q-23 0 -44.5 13.5t-37.5 34.5t-23.5 45t-1.5 45q18 76 96 76h145l12 47h-355l-29 84h578zM381 -122q7 26 -32 26
q-33 0 -57 -18t-32 -48q-1 -6 1.5 -7.5t7.5 -1.5q46 0 76 12.5t36 36.5z" />
    <glyph glyph-name="glyph305" horiz-adv-x="430" 
d="M589 444h-143l-23 -95q-5 -19 -36 -19h-131q-28 0 -50.5 -18.5t-28.5 -41.5q-20 -80 66 -103q-2 28 3 49q4 16 15.5 32.5t27 29.5t34 21t38.5 8q22 0 41.5 -10t33.5 -26.5t19.5 -37.5t0.5 -42q-15 -61 -89 -89l-25 -98q-4 -19 -36 -19h-131q-28 0 -50.5 -18.5
t-28.5 -41.5q-20 -80 66 -103q-2 28 3 49q5 18 17 34.5t27.5 29t34 20t36.5 7.5q22 0 41.5 -10t33.5 -26.5t20 -37t0 -41.5q-10 -43 -51.5 -71t-96.5 -28q-42 0 -80.5 18.5t-65 49t-38 69.5t-1.5 80q9 37 39 63.5t72 26.5h101q21 0 25 14l6 25q-45 10 -79 31.5t-56 50
t-29.5 62.5t1.5 69q10 39 40 66t72 27h101q20 0 24 14l7 30h-256l-29 84h479zM405 211q7 26 -32 26q-33 0 -57 -18t-32 -48q-1 -6 1.5 -7.5t7.5 -1.5q46 0 76 12.5t36 36.5zM324 -134q7 26 -32 26q-33 0 -57 -18t-32 -48q-1 -6 1.5 -7.5t7.5 -1.5q46 0 76 12.5t36 36.5z" />
    <glyph glyph-name="ch175_uni094D_ch175" horiz-adv-x="588" 
d="M751 444h-121l-112 -451l-81 63l57 226h-107q-15 0 -31 -8.5t-30.5 -22t-25.5 -31t-16 -36.5q-14 -58 35 -147l-38 -25q-86 135 -64 222q7 27 19 48h-70l-29 84h384l19 78h-431l-29 84h642z" />
    <glyph glyph-name="ch175_uni094D_ch175_uni094D.half" horiz-adv-x="360" 
d="M520 444h-411l-29 84h411zM578 366l-46 -84h-145q-15 0 -31 -8.5t-30.5 -22t-25.5 -31t-16 -36.5q-14 -58 35 -147l-38 -25q-86 135 -64 222q7 27 19 48h-70l-29 84h441z" />
    <glyph glyph-name="glyph85_glyph34" horiz-adv-x="450" 
d="M611 444h-132l-29 -116q-4 -16 -10 -21t-24 -5h-121q-33 0 -58.5 -19.5t-32.5 -49.5q-3 -12 3 -23.5t19.5 -20t32.5 -13.5t42 -5q15 0 18 13q-1 9 -2 17q-1 7 -1.5 12.5t0.5 7.5q6 27 43 27q10 0 25 -9t28 -22t22 -26t7 -22q-8 -30 -53 -47l60 -169l-52 -23l-51 175
q-16 -7 -42 -7q-39 0 -80 26l-33 -135q-5 -21 -28 -21q-15 0 -32 10t-31 23.5t-22.5 28t-5.5 23.5q7 28 32 28h34l27 103q-36 52 -24 98q25 100 144 100h94l15 62h-283l-29 84h501z" />
    <glyph glyph-name="glyph85_glyph35" horiz-adv-x="564" 
d="M727 444h-108l-29 -116q-4 -16 -10 -21t-24 -5h-121q-33 0 -58.5 -19.5t-32.5 -49.5q-3 -12 3 -23.5t19.5 -20t32.5 -13.5t42 -5q17 7 18 13q-1 9 -2 17q-1 7 -1.5 12.5t0.5 7.5q6 27 43 27q10 0 25 -9t28 -22t22 -26t7 -22q-8 -30 -53 -47l60 -169l-52 -23l-51 175
q-4 -1 -13.5 -3t-25.5 -4q-90 -98 -189 -98q-28 0 -50.5 6.5t-37 18t-20.5 27t-1 33.5q8 34 36 52q-84 28 -69 90q9 37 48.5 63t96.5 26q8 0 16 -0.5t16 -1.5q37 68 132 68h94l15 62h-427l-29 84h621zM369 120q-20 14 -38 32t-30.5 38t-18.5 41.5t-3 41.5q-33 -4 -57 -21
t-30 -41q-8 -32 30 -46q2 1 9 3.5t20 6.5l29 -54q-17 -8 -28 -13.5t-17.5 -11t-9.5 -11t-5 -14.5t4 -18t17 -9q12 0 30 6.5t35.5 17.5t34.5 24.5t28 27.5z" />
    <glyph glyph-name="glyph85_glyph49" horiz-adv-x="402" 
d="M564 444h-104l-25 -103q-6 -24 -23 -24h-154q-33 0 -46.5 -6t-18.5 -26q-8 -29 21 -38q54 26 123 26q24 0 32.5 -19.5t10.5 -38.5q-5 -19 -75 -28l-54 -7q-46 -6 -59 -59q-7 -27 7 -42t42 -15q40 0 67 26q-4 39 -3 46q7 25 35 25q9 0 23 -6.5t27.5 -16t22 -20t6.5 -18.5
q-8 -35 -58 -63l45 -136l-48 -25l-33 146q-21 -8 -41 -8q-37 0 -70.5 12.5t-58 32.5t-36.5 44t-6 48q12 46 58 71q-56 58 -43 107q16 68 104 68h130l12 47h-264l-29 84h454z" />
    <glyph glyph-name="glyph85_glyph50" horiz-adv-x="644" 
d="M807 444h-108l-29 -116q-4 -16 -10 -21t-24 -5h-121q-33 0 -58.5 -19.5t-32.5 -49.5q-3 -12 3 -23.5t19.5 -20t32.5 -13.5t42 -5q17 7 18 13q-1 9 -2 17q-1 7 -1.5 12.5t0.5 7.5q6 27 43 27q10 0 25 -9t28 -22t22 -26t7 -22q-8 -30 -53 -47l60 -169l-52 -23l-42 143
q-72 -74 -165 -74q-30 0 -55.5 8t-43 22t-25 33.5t-1.5 43.5q-19 -3 -36 -3q-39 0 -72 11.5t-56 31t-33 45.5t-3 55q10 39 48 67t89 28q20 0 35 -7.5t25 -19.5t13 -28t-1 -32q-6 -23 -28.5 -45.5t-49.5 -30.5l-1 -2q11 -13 33 -20t42 -7q10 0 13 1q22 38 73 49
q-24 46 -15 83q25 100 144 100h94l15 62h-506l-29 84h700zM503 99q-40 7 -82 43q-66 -24 -74 -57q-9 -36 40 -36q54 0 116 50zM249 253q3 15 -6 26.5t-24 11.5q-43 0 -54 -46q-10 -39 17 -52q23 8 43 26t24 34z" />
    <glyph glyph-name="glyph49_uni094D_ch179" horiz-adv-x="450" 
d="M612 444h-133l-29 -116q-4 -16 -10 -21t-24 -5h-121q-33 0 -58.5 -19.5t-32.5 -49.5q-3 -12 3 -23.5t19.5 -20t32.5 -13.5t42 -5q17 7 18 13q-1 9 -2 17q-1 7 -1.5 12.5t0.5 7.5q6 27 43 27q10 0 25 -9t28 -22t22 -26t7 -22q-8 -30 -53 -47l60 -169l-52 -23l-49 166
l-151 -48l13 -68q0 -1 -1 -6q-4 -17 -26 -17q-14 0 -37 8t-44.5 19.5t-36.5 24.5t-12 24q7 31 48 44l132 41l-1 1q-22 14 -41.5 33.5t-31.5 42t-17.5 45t-0.5 42.5q25 100 144 100h94l15 62h-283l-29 84h502z" />
    <glyph glyph-name="glyph85_glyph54" horiz-adv-x="476" 
d="M637 444h-108l-29 -116q-4 -16 -10 -21t-24 -5h-121q-33 0 -58.5 -19.5t-32.5 -49.5q-3 -12 3 -23.5t19.5 -20t32.5 -13.5t42 -5q15 0 18 13q-1 9 -2 17q-1 7 -1.5 12.5t0.5 7.5q6 27 43 27q10 0 25 -9t28 -22t22 -26t7 -22q-8 -30 -53 -47l60 -169l-52 -23l-51 175
q-20 -7 -41 -7h-7q-13 -18 -32.5 -34.5t-42 -28.5t-45.5 -19t-43 -7q-33 0 -60.5 10.5t-45.5 28t-25.5 40t-1.5 46.5q10 42 46.5 74t89.5 47q-1 11 3 27q25 100 144 100h94l15 62h-333l-29 84h527zM276 122q-20 14 -36.5 30.5t-28.5 36.5q-3 -2 -8 -4.5t-11 -7.5l53 -76
q16 8 31 21zM160 159q-41 -32 -46 -51q-9 -38 45 -38q29 0 51 13z" />
    <glyph glyph-name="glyph85_glyph55" horiz-adv-x="646" 
d="M807 444h-108l-29 -116q-4 -16 -10 -21t-24 -5h-121q-33 0 -58.5 -19.5t-32.5 -49.5q-3 -12 3 -23.5t19.5 -20t32.5 -13.5t42 -5q17 7 18 13q-1 9 -2 17q-1 7 -1.5 12.5t0.5 7.5q6 27 43 27q10 0 25 -9t28 -22t22 -26t7 -22q-8 -30 -53 -47l60 -169l-52 -23l-51 175
q0 -1 -220 -81q-2 -2 -3 -4q0 -2 1 -6.5t2.5 -10t2.5 -10t1 -5.5q-7 -28 -37 -28q-8 0 -27.5 7.5t-38.5 18t-33.5 22t-12.5 19.5q5 18 52 34l-4 31q-32 -16 -80 -16q-24 0 -43.5 9t-32.5 23.5t-18 32.5t0 37q10 42 45 70t80 28q28 0 46 -7t32.5 -27t28 -55.5t32.5 -93.5
l99 36q-21 15 -37 34t-26.5 39.5t-14.5 41t1 38.5q25 100 144 100h94l15 62h-503l-29 84h697zM249 128q-15 104 -47 104q-15 0 -30 -13.5t-20 -32.5q-8 -30 9.5 -48t55.5 -18q12 0 32 8z" />
    <glyph glyph-name="glyph85_glyph56" horiz-adv-x="594" 
d="M754 444h-100l-112 -451l-81 61h-77l-8 -30q-5 -24 -38 -24q-8 0 -21 13.5t-25 31.5t-19.5 36t-5.5 27q2 7 13.5 14t27.5 7h36l12 51q4 14 -17 14q-20 0 -38.5 -4.5t-35.5 -9.5l-31 -10q-14 -4 -26 -4q-20 0 -37 17.5t-28.5 42t-16.5 50.5t-1 43q17 68 105 68h140l14 57
h-276l-29 84h646zM470 444l-28 -112q-6 -25 -23 -25h-164q-57 0 -67 -42q-7 -25 24 -25l15 3q15 3 33.5 6l37 6t27.5 3q52 0 74 -34.5t9 -94.5h73q2 4 84 315h-95z" />
    <glyph glyph-name="glyph85_glyph62" horiz-adv-x="491" 
d="M651 444h-108l-29 -116q-4 -16 -10 -21t-24 -5h-121q-33 0 -58.5 -19.5t-32.5 -49.5q-3 -12 3 -23.5t19.5 -20t32.5 -13.5t42 -5q15 0 18 13q-1 9 -2 17q-1 7 -1.5 12.5t0.5 7.5q6 27 43 27q10 0 25 -9t28 -22t22 -26t7 -22q-8 -30 -53 -47l60 -169l-52 -23l-51 175
q-20 -7 -41 -7h-7q-13 -18 -32.5 -34.5t-42 -28.5t-45.5 -19t-43 -7q-33 0 -60.5 10.5t-45.5 28t-25.5 40t-1.5 46.5q10 42 46.5 74t89.5 47q-1 11 3 27q25 100 144 100h94l15 62h-347l-29 84h541zM290 122q-20 14 -36.5 30.5t-28.5 36.5q-35 -12 -62.5 -34t-34.5 -47
q-6 -25 9.5 -32.5t50.5 -7.5q8 0 15.5 1.5t18.5 7t26.5 16t41.5 29.5z" />
    <glyph glyph-name="glyph85_glyph57" horiz-adv-x="578" 
d="M738 444h-100l-112 -451l-78 63l6 19q-18 -12 -44 -23.5t-52.5 -20.5t-50.5 -15t-37 -6q-31 0 -59 14.5t-48.5 36.5t-30.5 48.5t-4 49.5q9 34 36 51q-51 61 -37 117q17 68 105 68h115l12 49h-249l-29 84h628zM546 444h-107l-26 -105q-6 -24 -23 -24h-127q-69 0 -79 -41
q-6 -25 22 -35q63 29 131 29h13q7 0 15 -1q23 -42 14 -75q-6 -25 -72 -25q-31 0 -58 7q-25 -8 -44 -23.5t-22 -28.5q-9 -36 64 -36q77 0 232 88z" />
    <glyph glyph-name="glyph49_uni0943" horiz-adv-x="426" 
d="M467 -176q-73 -34 -133 -34q-36 0 -65 11.5t-47 31t-25.5 45t-0.5 53.5q18 73 164 117l-15 57q-16 -7 -42 -7q-35 0 -67.5 18.5t-56 46.5t-35 60t-4.5 59q25 100 144 100h94l15 62h-283l-29 84h477l29 -84h-108l-29 -116q-4 -16 -10 -21t-24 -5h-121q-33 0 -58.5 -19.5
t-32.5 -49.5q-3 -12 2.5 -23t17 -20t28 -14.5t34.5 -5.5q15 0 23.5 5t9.5 9q-1 9 -2 17q-1 7 -1.5 12.5t0.5 7.5q6 27 43 27q10 0 25 -9t28 -22t22 -26t7 -22q-8 -30 -53 -47l55 -140q-53 -10 -89.5 -19.5t-60 -20t-35.5 -23t-16 -28.5q-9 -37 55 -37q55 0 130 41z" />
    <glyph glyph-name="ch179_uni094D_ch179" horiz-adv-x="550" 
d="M713 444h-121l-112 -451l-81 63l31 122l-163 -78q7 -38 -1 -71q-6 -23 -31 -23q-13 0 -33.5 10t-39.5 25t-31 31.5t-9 28.5q5 20 24 29l247 113q-35 53 -105 53q-33 0 -49 -4l-8 -20q-4 -12 -11 -24t-16.5 -20.5t-22.5 -8.5q-9 0 -18.5 15.5t-17.5 36t-12.5 40.5t-2.5 29
q11 44 89 44q44 0 74.5 -4.5t55.5 -18t49 -39t55 -68.5l50 190h-393l-42 84h616z" />
    <glyph glyph-name="glyph373" horiz-adv-x="278" 
d="M448 185l-181 -85q7 -38 -1 -71q-6 -23 -31 -23q-13 0 -33.5 10t-39.5 25t-31 31.5t-9 28.5q5 20 24 29l247 113q-35 53 -105 53q-33 0 -49 -4l-8 -20q-4 -12 -11 -24t-16.5 -20.5t-22.5 -8.5q-9 0 -18.5 15.5t-17.5 36t-12.5 40.5t-2.5 29q11 44 89 44q45 0 76 -4.5
t57 -19.5t51 -43t59 -76zM475 444h-365l-53 84h365z" />
    <glyph glyph-name="glyph53_uni094D_ch179" horiz-adv-x="661" 
d="M825 444h-307l-32 -129q9 6 23 13t29.5 13.5t30.5 10.5t24 4q25 0 46 -13.5t34 -37t16.5 -54t-5.5 -63.5q-3 -15 -13 -36.5t-23 -44t-28 -43.5t-29 -36l-68 62q16 19 34 43t33 47t26 41.5t14 27.5q3 12 -4.5 21.5t-18.5 9.5q-8 0 -29 -9t-44.5 -21t-45 -25t-30.5 -21
l-52 -211l-80 63l31 122l-148 -91q19 -41 12 -68q-2 -8 -10 -15.5t-16 -7.5q-15 0 -38.5 8t-44.5 19.5t-35.5 24.5t-12.5 24q5 17 48 44l87 53q-75 49 -59 114l40 161h-67l-29 84h712zM426 444h-154l-49 -197q-8 -32 21 -32q10 0 27 6t37.5 17t41 25.5t39.5 32.5z" />
    <glyph glyph-name="glyph134_ch175" horiz-adv-x="462" 
d="M622 444h-104l-112 -451l-80 63l39 155h-96q-49 0 -72.5 -17t-33.5 -56q-6 -23 8 -51l35 -60l-44 -28q-12 22 -27 46t-26 48t-16.5 48.5t0.5 48.5q15 62 92 91q-11 16 -17.5 26.5t-9 19t-1.5 17.5t4 21l19 79h-71l-29 84h513zM426 444h-154l-28 -115q-9 -34 20 -34h125z
" />
    <glyph glyph-name="glyph96_glyph105" horiz-adv-x="594" 
d="M758 444h-179l-11 -44q20 -7 36.5 -21.5t27.5 -33t15.5 -39t-0.5 -38.5q-12 -49 -57 -90q24 -44 15 -80q-21 -82 -154 -155l-61 70q146 70 156 111q10 38 -31 38q-13 0 -33.5 -10.5t-43.5 -26.5t-45 -35.5t-38 -37.5l-58 55l26 29q-33 40 -73 40q-14 0 -28 -5.5
t-26.5 -15.5t-22.5 -22.5t-13 -27.5q-16 -64 64 -119l-40 -27q-35 28 -58 50.5t-35 42.5t-14.5 39t2.5 40q14 54 58 85q-27 40 -15 85q13 52 55 83t102 31q65 0 121 -74q22 25 73 47l14 56h-381l-29 84h652zM589 294q9 38 -32 38q-12 0 -31 -8.5t-40 -22.5t-41 -31t-35 -34
l-58 55l4.5 4.5t9.5 10.5q-33 40 -73 40q-14 0 -28.5 -5.5t-27 -15.5t-22 -22.5t-13.5 -27.5q-4 -18 -2 -33q17 3 37 3q65 0 120 -74q9 10 25.5 21t37 20.5t41 15.5t36.5 6q12 0 25 -3q60 37 67 63z" />
    </font>
</defs>
</svg>
