<svg width="210" height="127" viewBox="0 0 210 127" fill="none" xmlns="http://www.w3.org/2000/svg">
<path d="M0 58.5585C0 52.4063 4.31261 47.0964 10.3341 45.8348L194.334 7.28238C202.411 5.59011 210 11.754 210 20.0061V114C210 121.18 204.18 127 197 127H13C5.8203 127 0 121.18 0 114V58.5585Z" fill="#FFF7E3"/>
<rect x="42" width="126" height="126" rx="30" fill="url(#paint0_linear_3077_53)"/>
<circle cx="104.5" cy="61.5" r="39.5" fill="url(#paint1_linear_3077_53)"/>
<path d="M116.458 56.7593H92.5415" stroke="url(#paint2_linear_3077_53)" stroke-width="3" stroke-linecap="round" stroke-linejoin="round"/>
<path d="M112.472 62.0739H96.5276" stroke="url(#paint3_linear_3077_53)" stroke-width="3" stroke-linecap="round" stroke-linejoin="round"/>
<path d="M113.801 67.3889H100.514" stroke="url(#paint4_linear_3077_53)" stroke-width="3" stroke-linecap="round" stroke-linejoin="round"/>
<path d="M109.815 72.7036H101.842" stroke="url(#paint5_linear_3077_53)" stroke-width="3" stroke-linecap="round" stroke-linejoin="round"/>
<path d="M103.171 78.0184H100.514" stroke="url(#paint6_linear_3077_53)" stroke-width="3" stroke-linecap="round" stroke-linejoin="round"/>
<path d="M119.875 45.75H89.125C86.2945 45.75 84 48.0445 84 50.875V91.875C84 94.7055 86.2945 97 89.125 97H119.875C122.705 97 125 94.7055 125 91.875V50.875C125 48.0445 122.705 45.75 119.875 45.75Z" stroke="url(#paint7_linear_3077_53)" stroke-width="3" stroke-linecap="round" stroke-linejoin="round"/>
<path d="M104.5 86.75H104.526" stroke="url(#paint8_linear_3077_53)" stroke-width="3" stroke-linecap="round" stroke-linejoin="round"/>
<defs>
<linearGradient id="paint0_linear_3077_53" x1="105" y1="5.09439e-06" x2="44.5085" y2="45.3996" gradientUnits="userSpaceOnUse">
<stop stop-color="#FFEDAB"/>
<stop offset="0.21875" stop-color="#FFF2CA"/>
<stop offset="1" stop-color="#FFECBC"/>
</linearGradient>
<linearGradient id="paint1_linear_3077_53" x1="132.5" y1="15.5" x2="104.5" y2="101" gradientUnits="userSpaceOnUse">
<stop stop-color="#FFD253"/>
<stop offset="1" stop-color="#FFE497" stop-opacity="0"/>
</linearGradient>
<linearGradient id="paint2_linear_3077_53" x1="104.5" y1="56.7593" x2="104.5" y2="57.7593" gradientUnits="userSpaceOnUse">
<stop stop-color="#FFCB12"/>
<stop offset="1" stop-color="#FF8832" stop-opacity="0.03"/>
</linearGradient>
<linearGradient id="paint3_linear_3077_53" x1="104.5" y1="62.0739" x2="104.5" y2="63.0739" gradientUnits="userSpaceOnUse">
<stop stop-color="#FFCB12"/>
<stop offset="1" stop-color="#FF8832" stop-opacity="0.03"/>
</linearGradient>
<linearGradient id="paint4_linear_3077_53" x1="107.157" y1="67.3889" x2="107.157" y2="68.3889" gradientUnits="userSpaceOnUse">
<stop stop-color="#FFCB12"/>
<stop offset="1" stop-color="#FF8832" stop-opacity="0.03"/>
</linearGradient>
<linearGradient id="paint5_linear_3077_53" x1="105.828" y1="72.7036" x2="105.828" y2="73.7036" gradientUnits="userSpaceOnUse">
<stop stop-color="#FFCB12"/>
<stop offset="1" stop-color="#FF8832" stop-opacity="0.03"/>
</linearGradient>
<linearGradient id="paint6_linear_3077_53" x1="101.842" y1="78.0184" x2="101.842" y2="79.0184" gradientUnits="userSpaceOnUse">
<stop stop-color="#FFCB12"/>
<stop offset="1" stop-color="#FF8832" stop-opacity="0.03"/>
</linearGradient>
<linearGradient id="paint7_linear_3077_53" x1="104.5" y1="45.75" x2="104.5" y2="97" gradientUnits="userSpaceOnUse">
<stop stop-color="#FFCB12"/>
<stop offset="1" stop-color="#FF8832" stop-opacity="0.03"/>
</linearGradient>
<linearGradient id="paint8_linear_3077_53" x1="104.513" y1="86.75" x2="104.513" y2="87.75" gradientUnits="userSpaceOnUse">
<stop stop-color="#FFCB12"/>
<stop offset="1" stop-color="#FF8832" stop-opacity="0.03"/>
</linearGradient>
</defs>
</svg>
