<?xml version="1.0" encoding="utf-8"?>
<!-- Generator: Adobe Illustrator 16.0.0, SVG Export Plug-In . SVG Version: 6.00 Build 0)  -->
<!DOCTYPE svg PUBLIC "-//W3C//DTD SVG 1.1//EN" "http://www.w3.org/Graphics/SVG/1.1/DTD/svg11.dtd">
<svg version="1.1" id="Layer_1" xmlns="http://www.w3.org/2000/svg" xmlns:xlink="http://www.w3.org/1999/xlink" x="0px" y="0px"
	 width="661.334px" height="55.333px" viewBox="0 0 661.334 55.333" enable-background="new 0 0 661.334 55.333"
	 xml:space="preserve">
<g>
	<path fill-rule="evenodd" clip-rule="evenodd" fill="#F7913A" d="M424.637,52.495l5.248-4.719l5.246,4.719
		c0.15,0.15,0.338,0.227,0.566,0.227c0.074,0,0.188-0.039,0.299-0.076c0.266-0.113,0.492-0.416,0.492-0.717V33.36
		c0-0.453-0.379-0.795-0.791-0.795h-11.625c-0.455,0-0.793,0.342-0.793,0.795v18.568c0,0.301,0.188,0.604,0.49,0.717
		S424.41,52.721,424.637,52.495L424.637,52.495z"/>
	<path fill-rule="evenodd" clip-rule="evenodd" fill="#FFFFFF" d="M424.637,20.526l5.248-4.717l5.246,4.717
		c0.15,0.151,0.338,0.227,0.566,0.227c0.074,0,0.188,0,0.299-0.038c0.266-0.113,0.492-0.415,0.492-0.754V1.43
		c0-0.453-0.379-0.792-0.791-0.792h-11.625c-0.455,0-0.793,0.339-0.793,0.792V19.96c0,0.339,0.188,0.604,0.49,0.754
		C424.072,20.828,424.41,20.753,424.637,20.526L424.637,20.526z"/>
	<path fill="#FFFFFF" d="M153.278,18.192h-7.51c-2.25,0-4.081-1.831-4.081-4.082V6.6c0-2.25,1.831-4.082,4.081-4.082h7.51
		c2.251,0,4.082,1.831,4.082,4.082v7.51C157.36,16.361,155.529,18.192,153.278,18.192z M145.768,3.511
		c-1.674,0-3.089,1.415-3.089,3.089v7.51c0,1.675,1.415,3.089,3.089,3.089h7.51c1.675,0,3.09-1.415,3.09-3.089V6.6
		c0-1.675-1.415-3.089-3.09-3.089H145.768z"/>
	<g>
		<path fill-rule="evenodd" clip-rule="evenodd" fill="#FFFFFF" d="M272.842,7.43c0.113,0.378,0.529,0.604,0.906,0.453l0,0
			l4.266-1.396c0.264-0.113,0.453-0.378,0.453-0.679V1.543c0-0.378-0.303-0.717-0.68-0.717c-0.416,0-0.719,0.339-0.719,0.717v2.604
			c-3.66-3.472-9.434-3.321-12.906,0.302c-3.473,3.661-3.32,9.435,0.34,12.908c3.623,3.472,9.398,3.321,12.869-0.302
			c2-2.114,2.869-4.982,2.416-7.813c-0.076-0.415-0.453-0.679-0.83-0.604c-0.379,0.076-0.643,0.415-0.604,0.83h0.037
			c0.717,4.265-2.152,8.266-6.416,9.02c-4.227,0.717-8.266-2.151-8.982-6.416c-0.717-4.227,2.113-8.265,6.379-8.982
			c2.604-0.453,5.283,0.453,7.057,2.416l-3.133,1.057C272.918,6.675,272.729,7.091,272.842,7.43L272.842,7.43L272.842,7.43z"/>
		<path fill="#FFFFFF" d="M270.77,20.124c-2.418,0-4.707-0.917-6.445-2.583c-3.752-3.561-3.91-9.513-0.348-13.268
			c1.789-1.866,4.201-2.894,6.791-2.894c2.227,0,4.352,0.776,6.045,2.198V1.543c0-0.536,0.438-0.972,0.975-0.972
			c0.506,0,0.934,0.445,0.934,0.972v4.265c0,0.396-0.238,0.755-0.607,0.914l-4.287,1.405c-0.092,0.038-0.207,0.06-0.322,0.06
			c-0.414,0-0.787-0.28-0.906-0.682c-0.076-0.227-0.053-0.491,0.064-0.719c0.119-0.229,0.316-0.395,0.559-0.467l2.746-0.926
			c-1.688-1.677-4.178-2.462-6.553-2.05c-1.984,0.333-3.719,1.419-4.883,3.056c-1.168,1.643-1.625,3.644-1.287,5.633
			c0.613,3.658,3.738,6.313,7.43,6.313c0.418,0,0.842-0.036,1.258-0.106c4.037-0.714,6.797-4.507,6.24-8.514h-0.014L278.1,9.492
			c-0.051-0.536,0.289-1,0.807-1.104c0.521-0.11,1.031,0.268,1.131,0.808c0.471,2.943-0.434,5.869-2.48,8.034
			C275.768,19.096,273.357,20.124,270.77,20.124z M270.768,1.89c-2.449,0-4.73,0.972-6.422,2.736
			c-3.367,3.549-3.219,9.178,0.332,12.546c1.643,1.575,3.807,2.442,6.092,2.442c2.449,0,4.727-0.972,6.416-2.736
			c1.938-2.047,2.795-4.816,2.35-7.596c-0.047-0.258-0.275-0.444-0.529-0.394c-0.223,0.044-0.375,0.218-0.398,0.438l0.035,0.099
			c0.732,4.36-2.238,8.538-6.623,9.314c-0.447,0.075-0.898,0.114-1.346,0.114c-3.941,0-7.277-2.834-7.934-6.739
			c-0.359-2.124,0.129-4.259,1.377-6.014c1.242-1.748,3.094-2.907,5.211-3.263c0.451-0.079,0.912-0.118,1.371-0.118
			c2.26,0,4.416,0.953,5.918,2.614l0.26,0.289l-3.502,1.181c-0.115,0.035-0.205,0.111-0.26,0.216
			c-0.055,0.106-0.066,0.226-0.031,0.33c0.072,0.244,0.346,0.386,0.568,0.297l4.281-1.402c0.158-0.068,0.277-0.247,0.277-0.437
			V1.543c0-0.246-0.197-0.462-0.424-0.462c-0.287,0-0.465,0.24-0.465,0.462v3.198l-0.43-0.409
			C275.232,2.757,273.057,1.89,270.768,1.89z"/>
	</g>
	<path fill-rule="evenodd" clip-rule="evenodd" fill="#FFFFFF" d="M222.383,18.866l-4.944-5.133
		c1.283-1.509,1.962-3.397,1.962-5.359c0-4.604-3.736-8.378-8.378-8.378c-4.604,0-8.34,3.774-8.34,8.378
		c0,4.604,3.736,8.34,8.34,8.34c1.736,0,3.397-0.49,4.793-1.51l4.981,5.171c0.227,0.226,0.491,0.339,0.792,0.339
		c0.265,0,0.566-0.113,0.755-0.301C222.76,19.998,222.798,19.319,222.383,18.866L222.383,18.866z M211.022,2.185
		c3.435,0,6.189,2.755,6.189,6.189c0,3.396-2.755,6.189-6.189,6.189c-3.396,0-6.151-2.792-6.151-6.189
		C204.871,4.94,207.626,2.185,211.022,2.185L211.022,2.185z"/>
	<g>
		<path fill-rule="evenodd" clip-rule="evenodd" fill="#FFFFFF" d="M309.943,2.373c-1.586-1.585-4.152-1.585-5.738,0l-10.49,10.492
			c-0.076,0.076-0.115,0.188-0.152,0.301l-0.754,5.775c-0.039,0.151,0.035,0.302,0.15,0.415c0.074,0.114,0.227,0.151,0.34,0.151
			c0.037,0,0.074,0,0.074,0l3.473-0.453c0.303-0.038,0.492-0.302,0.453-0.604c-0.037-0.303-0.303-0.491-0.605-0.453l-2.754,0.377
			l0.529-4.001l4.227,4.227c0.113,0.076,0.227,0.151,0.377,0.151s0.264-0.075,0.377-0.151l10.494-10.492
			c0.754-0.754,1.168-1.773,1.168-2.868C311.111,4.147,310.697,3.128,309.943,2.373L309.943,2.373z M304.432,3.657l1.736,1.773
			l-9.549,9.586l-1.773-1.774L304.432,3.657z M299.072,17.469l-1.734-1.736l9.584-9.549l1.738,1.699L299.072,17.469z M309.375,7.128
			l-4.188-4.189c0.527-0.453,1.17-0.68,1.887-0.68c0.793,0,1.547,0.302,2.113,0.868c0.564,0.566,0.867,1.321,0.867,2.113
			C310.055,5.958,309.83,6.6,309.375,7.128L309.375,7.128z"/>
		<path fill="#FFFFFF" d="M293.383,19.663h-0.084c-0.076,0-0.336-0.016-0.471-0.222c-0.15-0.142-0.221-0.347-0.172-0.539
			l0.752-5.756c0.043-0.144,0.09-0.287,0.195-0.392l10.49-10.492c0.797-0.796,1.855-1.235,2.98-1.235s2.182,0.439,2.979,1.235
			c0.783,0.784,1.215,1.841,1.215,2.979c0,1.138-0.432,2.195-1.215,2.979l-10.494,10.492c-0.141,0.098-0.289,0.196-0.486,0.196
			c-0.199,0-0.346-0.098-0.465-0.177l-4.025-4.023l-0.461,3.485l2.551-0.35c0.412-0.049,0.734,0.212,0.781,0.588
			c0.025,0.192-0.023,0.378-0.137,0.524c-0.109,0.141-0.27,0.23-0.451,0.253L293.383,19.663z M307.074,1.34
			c-1.043,0-2.021,0.406-2.76,1.144l-10.49,10.492c-0.053,0.052-0.086,0.156-0.113,0.24l-0.748,5.746
			c-0.033,0.133,0.063,0.242,0.105,0.283c0.057,0.082,0.152,0.107,0.23,0.107h0.064l3.461-0.452
			c0.104-0.013,0.188-0.059,0.246-0.135c0.061-0.08,0.088-0.184,0.074-0.294c-0.027-0.211-0.203-0.347-0.432-0.318l-2.955,0.405
			l0.598-4.517l4.449,4.45c0.076,0.047,0.164,0.105,0.268,0.105s0.189-0.058,0.289-0.125l10.471-10.473
			c0.725-0.724,1.123-1.704,1.123-2.758c0-1.054-0.398-2.033-1.123-2.758C309.096,1.746,308.115,1.34,307.074,1.34z M299.072,17.69
			l-1.955-1.957l9.803-9.768l1.961,1.917l-0.111,0.112L299.072,17.69z M297.559,15.734l1.514,1.515l9.365-9.364l-1.516-1.481
			L297.559,15.734z M296.619,15.237l-1.994-1.995l9.807-9.807l1.955,1.996L296.619,15.237z M295.066,13.242l1.553,1.553l9.33-9.367
			l-1.52-1.55L295.066,13.242z M309.383,7.357l-4.426-4.427l0.129-0.109c0.553-0.476,1.223-0.717,1.988-0.717
			c0.844,0,1.633,0.324,2.223,0.914c0.59,0.59,0.914,1.38,0.914,2.224c0,0.767-0.242,1.436-0.719,1.989L309.383,7.357z
			 M305.42,2.952l3.943,3.944c0.355-0.469,0.535-1.024,0.535-1.655c0-0.761-0.291-1.472-0.822-2.003
			c-0.529-0.53-1.24-0.822-2.002-0.822C306.445,2.416,305.889,2.596,305.42,2.952z"/>
	</g>
	<path fill-rule="evenodd" clip-rule="evenodd" fill="#FFFFFF" d="M236.913,20.526l5.247-4.717l5.246,4.717
		c0.151,0.151,0.339,0.227,0.566,0.227c0.075,0,0.188,0,0.302-0.038c0.302-0.113,0.491-0.415,0.491-0.754V1.43
		c0-0.453-0.34-0.792-0.792-0.792h-11.625c-0.415,0-0.793,0.339-0.793,0.792V19.96c0,0.339,0.227,0.604,0.491,0.754
		C236.347,20.828,236.725,20.753,236.913,20.526L236.913,20.526z M237.139,2.222h10.002v15.813l-4.454-3.887
		c-0.151-0.151-0.339-0.227-0.528-0.227c-0.227,0-0.416,0.076-0.566,0.227l-4.454,3.887V2.222L237.139,2.222z"/>
	<g>
		<path fill-rule="evenodd" clip-rule="evenodd" fill="#FFFFFF" d="M342.551,8.298l-1.359-0.226c-0.15-0.453-0.34-0.906-0.564-1.322
			l0.828-1.131c0.34-0.491,0.264-1.132-0.148-1.548l-1.209-1.245c-0.227-0.227-0.529-0.34-0.867-0.34
			c-0.229,0-0.494,0.075-0.682,0.226l-1.131,0.793c-0.453-0.227-0.906-0.416-1.398-0.566l-0.227-1.359
			c-0.111-0.566-0.602-0.982-1.17-0.982h-1.734c-0.605,0-1.096,0.416-1.209,0.982l-0.225,1.396
			c-0.455,0.151-0.906,0.339-1.322,0.566L329,2.751c-0.188-0.152-0.453-0.227-0.678-0.227c-0.34,0-0.643,0.113-0.869,0.34
			l-1.207,1.208c-0.414,0.416-0.49,1.095-0.152,1.548l0.832,1.169c-0.227,0.415-0.416,0.868-0.566,1.321l-1.32,0.226
			c-0.605,0.114-1.02,0.604-1.02,1.208v1.698c0,0.604,0.414,1.094,1.02,1.208l1.357,0.227c0.15,0.453,0.342,0.906,0.566,1.32
			l-0.793,1.132c-0.338,0.491-0.301,1.133,0.113,1.547l1.246,1.208c0.227,0.264,0.529,0.378,0.83,0.378
			c0.264,0,0.49-0.076,0.717-0.228l1.133-0.83c0.414,0.226,0.83,0.416,1.283,0.529l0.227,1.396c0.113,0.566,0.604,0.981,1.209,0.981
			h1.695c0.605,0,1.096-0.415,1.209-0.981l0.227-1.396c0.453-0.113,0.906-0.303,1.32-0.529l1.133,0.793
			c0.225,0.15,0.453,0.226,0.719,0.226c0.338,0,0.641-0.113,0.867-0.34l1.209-1.245c0.412-0.415,0.451-1.057,0.111-1.547
			l-0.791-1.132c0.225-0.415,0.414-0.868,0.564-1.321l1.359-0.227c0.564-0.113,1.02-0.604,1.02-1.208V9.506
			C343.57,8.902,343.154,8.412,342.551,8.298L342.551,8.298z M342.475,11.205c0,0.076-0.037,0.113-0.113,0.113l-1.697,0.301
			c-0.229,0.038-0.379,0.189-0.455,0.378c-0.15,0.604-0.377,1.207-0.715,1.736c-0.115,0.188-0.076,0.416,0.037,0.604l1.02,1.396
			c0,0.038,0,0.113-0.037,0.151l-1.209,1.208c-0.039,0.038-0.039,0.038-0.074,0.038c-0.039,0-0.039,0-0.076,0l-1.396-1.02
			c-0.191-0.151-0.416-0.151-0.604-0.038c-0.529,0.34-1.096,0.566-1.699,0.717c-0.227,0.039-0.377,0.227-0.416,0.453l-0.303,1.699
			c0,0.038-0.037,0.076-0.113,0.076h-1.695c-0.039,0-0.115-0.038-0.115-0.076l-0.264-1.699c-0.037-0.226-0.227-0.415-0.414-0.453
			c-0.605-0.15-1.17-0.377-1.664-0.679c-0.111-0.076-0.188-0.076-0.299-0.076c-0.113,0-0.227,0.038-0.303,0.114l-1.434,0.981
			c-0.037,0.038-0.037,0.038-0.076,0.038c0,0-0.037,0-0.074-0.038l-1.209-1.208c-0.037-0.038-0.037-0.113,0-0.151l0.982-1.396
			c0.15-0.188,0.15-0.415,0.037-0.604c-0.34-0.529-0.566-1.094-0.717-1.699c-0.076-0.227-0.227-0.377-0.453-0.415l-1.738-0.302
			c-0.035,0-0.074-0.038-0.074-0.113V9.544c0-0.076,0.039-0.114,0.074-0.114l1.738-0.263c0.189-0.038,0.377-0.227,0.414-0.416
			c0.152-0.604,0.379-1.208,0.719-1.736c0.111-0.189,0.076-0.415-0.037-0.604L327,5.015c-0.037-0.037-0.037-0.113,0-0.15
			l1.246-1.208c0-0.038,0.039-0.038,0.076-0.038h0.037l1.436,1.019c0.15,0.113,0.414,0.151,0.602,0.038
			c0.529-0.34,1.096-0.567,1.699-0.717c0.188-0.076,0.377-0.227,0.416-0.453l0.264-1.736c0.037-0.038,0.074-0.076,0.113-0.076h1.734
			c0.039,0,0.076,0.038,0.113,0.076l0.266,1.699c0.037,0.226,0.189,0.415,0.414,0.452c0.604,0.151,1.209,0.416,1.738,0.717
			c0.188,0.113,0.412,0.113,0.604-0.038l1.434-0.981c0-0.038,0.039-0.038,0.039-0.038c0.035,0,0.035,0,0.074,0.038l1.209,1.207
			c0.037,0.039,0.074,0.114,0.037,0.152l-1.02,1.396c-0.113,0.188-0.152,0.415-0.037,0.604c0.338,0.527,0.564,1.131,0.715,1.736
			c0.076,0.188,0.227,0.339,0.455,0.377l1.697,0.302c0.076,0,0.113,0.037,0.113,0.113V11.205L342.475,11.205z"/>
		<path fill="#FFFFFF" d="M334.623,20.154h-1.695c-0.617,0-1.131-0.417-1.252-1.015l-0.221-1.371
			c-0.391-0.1-0.775-0.259-1.244-0.513l-1.109,0.814c-0.242,0.161-0.477,0.236-0.742,0.236c-0.34,0-0.645-0.14-0.863-0.393
			l-1.242-1.205c-0.428-0.427-0.475-1.085-0.119-1.602l0.777-1.111c-0.209-0.388-0.396-0.83-0.549-1.28l-1.332-0.223
			c-0.621-0.116-1.055-0.63-1.055-1.25V9.544c0-0.629,0.424-1.131,1.055-1.25l1.295-0.222c0.156-0.463,0.34-0.894,0.549-1.28
			l-0.816-1.148c-0.346-0.463-0.277-1.167,0.156-1.602l1.207-1.208c0.23-0.23,0.541-0.352,0.9-0.352
			c0.254,0,0.523,0.091,0.703,0.236l1.109,0.775c0.387-0.209,0.818-0.393,1.281-0.548l0.221-1.371
			c0.121-0.6,0.635-1.018,1.252-1.018h1.734c0.586,0,1.096,0.427,1.211,1.016l0.223,1.334c0.451,0.139,0.895,0.319,1.357,0.549
			l1.109-0.778c0.18-0.144,0.449-0.234,0.707-0.234c0.357,0,0.666,0.122,0.896,0.352l1.209,1.246c0.438,0.441,0.502,1.1,0.154,1.602
			l-0.814,1.11c0.209,0.39,0.393,0.821,0.547,1.281l1.334,0.221c0.623,0.117,1.057,0.631,1.057,1.25v1.699
			c0,0.601-0.443,1.126-1.055,1.249l-1.336,0.223c-0.154,0.461-0.338,0.892-0.547,1.28l0.777,1.111
			c0.355,0.515,0.309,1.174-0.117,1.602l-1.209,1.245c-0.23,0.231-0.541,0.353-0.896,0.353c-0.27,0-0.506-0.074-0.742-0.233
			l-1.113-0.778c-0.426,0.23-0.867,0.407-1.279,0.513l-0.223,1.369C335.754,19.736,335.24,20.154,334.623,20.154z M330.205,17.155
			l0.023,0.013c0.482,0.263,0.875,0.425,1.273,0.525l0.027,0.006l0.004,0.028l0.227,1.396c0.111,0.556,0.592,0.945,1.168,0.945
			h1.695c0.576,0,1.055-0.389,1.166-0.947l0.232-1.423l0.025-0.006c0.422-0.105,0.875-0.287,1.311-0.525l0.023-0.013l1.154,0.808
			c0.223,0.148,0.443,0.218,0.695,0.218c0.332,0,0.623-0.113,0.836-0.328l1.209-1.245c0.396-0.398,0.439-1.013,0.107-1.493
			l-0.807-1.154l0.014-0.023c0.215-0.397,0.402-0.839,0.561-1.314l0.008-0.024l0.025-0.004l1.359-0.227
			c0.57-0.114,0.984-0.604,0.984-1.166V9.506c0-0.586-0.396-1.055-0.984-1.166l-1.385-0.23l-0.008-0.024
			c-0.156-0.473-0.346-0.916-0.561-1.315l-0.014-0.023l0.844-1.153c0.324-0.467,0.264-1.081-0.145-1.493l-1.209-1.245
			c-0.213-0.214-0.502-0.327-0.836-0.327c-0.238,0-0.49,0.083-0.656,0.217l-1.152,0.809l-0.023-0.011
			c-0.475-0.238-0.93-0.422-1.393-0.563l-0.025-0.007l-0.004-0.026l-0.227-1.359c-0.107-0.548-0.582-0.946-1.127-0.946h-1.734
			c-0.576,0-1.057,0.39-1.168,0.948l-0.229,1.42l-0.023,0.008c-0.479,0.158-0.922,0.348-1.316,0.563l-0.023,0.013l-1.154-0.807
			c-0.168-0.136-0.418-0.219-0.652-0.219c-0.336,0-0.625,0.113-0.84,0.328l-1.207,1.208c-0.404,0.406-0.469,1.061-0.148,1.492
			l0.848,1.192l-0.012,0.023c-0.215,0.395-0.406,0.837-0.564,1.313l-0.008,0.024l-1.346,0.23c-0.588,0.111-0.982,0.58-0.982,1.167
			v1.698c0,0.587,0.395,1.056,0.984,1.166l1.381,0.231l0.008,0.024c0.154,0.462,0.35,0.917,0.564,1.313L327.012,14l-0.014,0.021
			l-0.793,1.132c-0.332,0.482-0.289,1.096,0.107,1.493l1.246,1.207c0.203,0.237,0.486,0.367,0.801,0.367
			c0.248,0,0.467-0.07,0.693-0.22L330.205,17.155z M334.623,19.06h-1.695c-0.057,0-0.158-0.049-0.158-0.118l-0.264-1.692
			c-0.035-0.22-0.221-0.385-0.381-0.418c-0.623-0.155-1.188-0.385-1.678-0.685c-0.102-0.069-0.168-0.069-0.275-0.069
			c-0.109,0-0.209,0.037-0.273,0.102l-1.439,0.986c-0.037,0.038-0.047,0.045-0.1,0.045c-0.006,0-0.057-0.001-0.105-0.05
			l-1.209-1.208c-0.053-0.054-0.053-0.156,0-0.211l0.979-1.391c0.133-0.167,0.145-0.374,0.035-0.557
			c-0.324-0.505-0.561-1.065-0.721-1.71c-0.074-0.219-0.217-0.35-0.42-0.383l-1.738-0.302l0,0c-0.051,0-0.109-0.054-0.109-0.155
			V9.544c0-0.102,0.061-0.156,0.117-0.156l1.73-0.263c0.172-0.034,0.346-0.209,0.379-0.382c0.172-0.682,0.416-1.27,0.725-1.75
			c0.094-0.159,0.08-0.363-0.037-0.559l-1.02-1.394c-0.049-0.049-0.049-0.151,0.004-0.205l1.236-1.198
			c0.012-0.061,0.084-0.061,0.117-0.061h0.051l0.01,0.008l1.436,1.019c0.146,0.109,0.4,0.129,0.557,0.036
			c0.506-0.325,1.064-0.561,1.709-0.722c0.098-0.04,0.342-0.164,0.385-0.419l0.266-1.749l0.01-0.01
			c0.045-0.044,0.088-0.088,0.145-0.088h1.734c0.057,0,0.1,0.044,0.143,0.087l0.008,0.01l0.004,0.015l0.266,1.699
			c0.037,0.22,0.186,0.384,0.379,0.417c0.568,0.143,1.174,0.392,1.754,0.722c0.18,0.109,0.389,0.097,0.555-0.034l1.422-0.973
			c0.01-0.036,0.045-0.055,0.078-0.055c0.051,0,0.061,0.008,0.104,0.049l1.209,1.208c0.051,0.053,0.096,0.153,0.037,0.212
			l-1.016,1.391c-0.117,0.196-0.131,0.4-0.035,0.558c0.311,0.482,0.553,1.07,0.721,1.748c0.076,0.188,0.227,0.313,0.42,0.346
			l1.699,0.302l0,0c0.092,0,0.148,0.057,0.148,0.155v1.699c0,0.099-0.059,0.156-0.156,0.156l-1.689,0.301
			c-0.195,0.032-0.346,0.157-0.424,0.352c-0.166,0.669-0.408,1.258-0.719,1.743c-0.096,0.156-0.082,0.36,0.037,0.559l1.027,1.405
			v0.014c0,0.042,0,0.13-0.051,0.181l-1.209,1.208c-0.043,0.042-0.053,0.05-0.104,0.05h-0.09l-0.012-0.008l-1.396-1.02
			c-0.168-0.132-0.379-0.142-0.557-0.035c-0.506,0.324-1.064,0.561-1.711,0.721c-0.199,0.034-0.346,0.195-0.385,0.419l-0.303,1.699
			C334.779,19,334.725,19.06,334.623,19.06z M330.172,15.992c0.111,0,0.199,0,0.322,0.083c0.48,0.293,1.035,0.521,1.65,0.673
			c0.215,0.044,0.408,0.254,0.445,0.488l0.264,1.699c0.006,0.016,0.051,0.04,0.074,0.04h1.695c0.049,0,0.07-0.02,0.07-0.033
			l0.303-1.706c0.045-0.261,0.219-0.448,0.451-0.488c0.633-0.158,1.186-0.391,1.684-0.71c0.211-0.128,0.459-0.113,0.652,0.04
			l1.385,1.01h0.063c0.006,0,0.016,0,0.018,0c0.002-0.001,0.014-0.013,0.027-0.025l1.207-1.208c0.021-0.021,0.025-0.074,0.025-0.107
			l-1.012-1.385c-0.139-0.23-0.152-0.466-0.039-0.651c0.305-0.478,0.545-1.058,0.711-1.724c0.092-0.229,0.264-0.372,0.488-0.41
			l1.697-0.301c0.059,0,0.078-0.019,0.078-0.071V9.506c0-0.053-0.018-0.07-0.07-0.07l-1.705-0.302
			c-0.225-0.038-0.396-0.181-0.486-0.403c-0.168-0.674-0.408-1.254-0.713-1.729c-0.113-0.186-0.1-0.422,0.037-0.649l1.021-1.399
			c0.016-0.016-0.002-0.064-0.033-0.098l-1.209-1.206c-0.012-0.012-0.023-0.023-0.027-0.025c0,0-0.01,0-0.016,0v0.022l-0.016,0.008
			l-1.434,0.981c-0.189,0.148-0.441,0.162-0.648,0.039c-0.572-0.326-1.17-0.573-1.729-0.713c-0.227-0.038-0.402-0.229-0.445-0.486
			l-0.264-1.686c-0.025-0.026-0.055-0.053-0.072-0.053h-1.734c-0.02,0-0.049,0.028-0.074,0.053l-0.262,1.723
			c-0.051,0.298-0.326,0.439-0.441,0.486c-0.641,0.16-1.193,0.393-1.691,0.713c-0.082,0.049-0.18,0.075-0.285,0.075
			c-0.133,0-0.27-0.042-0.365-0.114l-1.424-1.01h-0.023c-0.014,0-0.033,0-0.039,0.003v0.018l-0.008,0.005l-1.246,1.208
			c-0.02,0.02-0.02,0.069,0,0.089l1.025,1.402c0.137,0.227,0.15,0.462,0.041,0.65c-0.307,0.474-0.547,1.054-0.715,1.725
			c-0.041,0.205-0.24,0.406-0.447,0.447l-1.74,0.264c-0.018,0-0.037,0.022-0.037,0.072v1.698c0,0.049,0.02,0.071,0.031,0.071
			l1.744,0.302c0.234,0.039,0.402,0.192,0.486,0.443c0.16,0.639,0.393,1.191,0.713,1.689c0.131,0.216,0.115,0.459-0.039,0.653
			l-0.98,1.395c-0.025,0.027-0.025,0.075-0.006,0.097l1.209,1.208c0.023,0.024,0.045,0.025,0.045,0.025c0.008,0,0.018,0,0.02,0
			c0.004-0.002,0.014-0.013,0.025-0.024l1.439-0.986C329.92,16.039,330.041,15.992,330.172,15.992z"/>
	</g>
	<g>
		<path fill-rule="evenodd" clip-rule="evenodd" fill="#FFFFFF" d="M333.795,6.147c-2.34,0-4.227,1.887-4.227,4.227
			c0,2.303,1.887,4.189,4.227,4.189c2.301,0,4.188-1.886,4.188-4.189C337.982,8.034,336.096,6.147,333.795,6.147L333.795,6.147z
			 M333.795,13.469c-1.736,0-3.133-1.396-3.133-3.095c0-1.736,1.396-3.132,3.133-3.132c1.699,0,3.094,1.396,3.094,3.132
			C336.889,12.072,335.494,13.469,333.795,13.469L333.795,13.469z"/>
		<path fill="#FFFFFF" d="M333.795,14.605c-2.354,0-4.27-1.898-4.27-4.231c0-2.354,1.916-4.27,4.27-4.27
			c2.332,0,4.23,1.915,4.23,4.27C338.025,12.707,336.127,14.605,333.795,14.605z M333.795,6.189c-2.307,0-4.184,1.877-4.184,4.185
			c0,2.286,1.877,4.146,4.184,4.146c2.285,0,4.145-1.86,4.145-4.146C337.939,8.067,336.08,6.189,333.795,6.189z M333.795,13.511
			c-1.752,0-3.176-1.407-3.176-3.137c0-1.75,1.424-3.175,3.176-3.175c1.729,0,3.137,1.424,3.137,3.175
			C336.932,12.104,335.523,13.511,333.795,13.511z M333.795,7.284c-1.705,0-3.09,1.386-3.09,3.09c0,1.683,1.385,3.052,3.09,3.052
			c1.682,0,3.051-1.369,3.051-3.052C336.846,8.67,335.477,7.284,333.795,7.284z"/>
	</g>
	<path fill-rule="evenodd" clip-rule="evenodd" fill="#FFFFFF" d="M146.146,10.374L146.146,10.374c0-0.415,0.34-0.792,0.755-0.792
		h5.247c0.415,0,0.754,0.377,0.754,0.792l0,0c0,0.415-0.34,0.755-0.754,0.755H146.9C146.485,11.129,146.146,10.789,146.146,10.374
		L146.146,10.374z"/>
	<path fill-rule="evenodd" clip-rule="evenodd" fill="#FFFFFF" d="M149.505,13.733L149.505,13.733c-0.416,0-0.755-0.339-0.755-0.755
		V7.732c0-0.416,0.339-0.754,0.755-0.754l0,0c0.453,0,0.792,0.339,0.792,0.754v5.246C150.297,13.394,149.958,13.733,149.505,13.733
		L149.505,13.733z"/>
	<path fill-rule="evenodd" clip-rule="evenodd" fill="#FFFFFF" d="M171.81,10.374L171.81,10.374c0-0.491,0.301-0.868,0.717-0.868
		h4.906c0.415,0,0.717,0.377,0.717,0.868l0,0c0,0.453-0.302,0.831-0.717,0.831h-4.906C172.111,11.205,171.81,10.827,171.81,10.374
		L171.81,10.374z"/>
	<path fill-rule="evenodd" clip-rule="evenodd" fill="#FFFFFF" d="M82.665,10.374l6.34-6.34c0.377-0.377,0.377-1.019,0-1.435
		c-0.415-0.377-1.056-0.377-1.434,0L81.23,8.94l-6.302-6.341c-0.415-0.377-1.057-0.377-1.435,0
		c-0.188,0.189-0.301,0.453-0.301,0.717c0,0.265,0.113,0.529,0.301,0.717l6.341,6.34l-6.341,6.303
		c-0.188,0.189-0.301,0.453-0.301,0.717c0,0.265,0.113,0.529,0.301,0.717c0.188,0.189,0.453,0.302,0.717,0.302
		c0.265,0,0.491-0.113,0.717-0.302l6.302-6.34l6.341,6.34c0.188,0.189,0.453,0.302,0.717,0.302c0.265,0,0.491-0.113,0.717-0.302
		c0.377-0.377,0.377-1.019,0-1.434L82.665,10.374z"/>
	<path fill-rule="evenodd" clip-rule="evenodd" fill="#FFFFFF" d="M57.681,19.055H41.64c-0.679,0-1.208-0.529-1.208-1.17
		c0-0.679,0.528-1.208,1.208-1.208h16.041c0.642,0,1.169,0.528,1.169,1.208C58.85,18.526,58.322,19.055,57.681,19.055L57.681,19.055
		z"/>
	<path fill-rule="evenodd" clip-rule="evenodd" fill="#FFFFFF" d="M57.681,11.544H41.64c-0.679,0-1.208-0.528-1.208-1.17
		c0-0.68,0.528-1.207,1.208-1.207h16.041c0.642,0,1.169,0.527,1.169,1.207C58.85,11.016,58.322,11.544,57.681,11.544L57.681,11.544z
		"/>
	<path fill-rule="evenodd" clip-rule="evenodd" fill="#FFFFFF" d="M57.681,4.034H41.64c-0.679,0-1.208-0.528-1.208-1.17
		c0-0.679,0.528-1.208,1.208-1.208h16.041c0.642,0,1.169,0.528,1.169,1.208C58.85,3.505,58.322,4.034,57.681,4.034L57.681,4.034z"/>
	<path fill-rule="evenodd" clip-rule="evenodd" fill="#FFFFFF" d="M38.093,2.939c0,0.906-0.717,1.622-1.585,1.622
		c-0.906,0-1.623-0.716-1.623-1.622c0-0.868,0.717-1.624,1.623-1.624C37.376,1.316,38.093,2.071,38.093,2.939L38.093,2.939z"/>
	<path fill-rule="evenodd" clip-rule="evenodd" fill="#FFFFFF" d="M38.093,10.374c0,0.868-0.717,1.585-1.585,1.585
		c-0.906,0-1.623-0.717-1.623-1.585c0-0.906,0.717-1.623,1.623-1.623C37.376,8.751,38.093,9.468,38.093,10.374L38.093,10.374z"/>
	<path fill-rule="evenodd" clip-rule="evenodd" fill="#FFFFFF" d="M38.093,17.771c0,0.906-0.717,1.623-1.585,1.623
		c-0.906,0-1.623-0.717-1.623-1.623c0-0.868,0.717-1.585,1.623-1.585C37.376,16.187,38.093,16.904,38.093,17.771L38.093,17.771z"/>
	<path fill-rule="evenodd" clip-rule="evenodd" fill="#FFFFFF" d="M20.807,19.055H1.824c-0.68,0-1.208-0.529-1.208-1.17
		c0-0.679,0.528-1.208,1.208-1.208h18.983c0.642,0,1.17,0.528,1.17,1.208C21.977,18.526,21.449,19.055,20.807,19.055L20.807,19.055z
		"/>
	<path fill-rule="evenodd" clip-rule="evenodd" fill="#FFFFFF" d="M20.807,4.034H1.333c-0.679,0-1.208-0.528-1.208-1.17
		c0-0.679,0.529-1.208,1.208-1.208h19.474c0.642,0,1.17,0.528,1.17,1.208C21.977,3.505,21.449,4.034,20.807,4.034L20.807,4.034z"/>
	<g>
		<path fill-rule="evenodd" clip-rule="evenodd" fill="#FEC574" d="M113.801,8.525c1.057-0.793,2.378-1.246,3.813-1.246
			c0.906,0,1.773,0.188,2.528,0.529c0.038-0.265,0.038-0.491,0.038-0.717c0-3.548-2.869-6.378-6.378-6.378s-6.378,2.83-6.378,6.378
			c0,0.226,0.038,0.453,0.038,0.679c0.793-0.302,1.661-0.491,2.529-0.491C111.424,7.279,112.745,7.732,113.801,8.525L113.801,8.525z
			"/>
		<path fill="#FFFFFF" d="M113.801,8.897l-0.179-0.134c-1.631-1.224-3.848-1.557-6.056-0.715l-0.404,0.154V7.77
			c0-0.105-0.009-0.21-0.018-0.315c-0.01-0.121-0.02-0.243-0.02-0.364c0-3.681,2.995-6.676,6.676-6.676s6.676,2.995,6.676,6.676
			c0,0.233,0,0.474-0.042,0.76l-0.056,0.392l-0.361-0.163c-0.729-0.329-1.56-0.502-2.405-0.502c-1.342,0-2.599,0.41-3.634,1.187
			L113.801,8.897z M109.99,6.981c1.396,0,2.709,0.406,3.812,1.176c1.103-0.77,2.417-1.176,3.813-1.176
			c0.784,0,1.559,0.137,2.265,0.398c0.003-0.097,0.003-0.191,0.003-0.289c0-3.353-2.728-6.08-6.081-6.08
			c-3.353,0-6.08,2.728-6.08,6.08c0,0.089,0.006,0.178,0.014,0.267C108.492,7.111,109.264,6.981,109.99,6.981z"/>
	</g>
	<g>
		<path fill-rule="evenodd" clip-rule="evenodd" fill="#00989E" d="M111.235,13.657c0-0.263,0.038-0.491,0.038-0.716
			c-2.038-0.906-3.548-2.831-3.812-5.171c-2.265,0.981-3.85,3.246-3.85,5.887c0,3.51,2.868,6.378,6.378,6.378
			c1.434,0,2.755-0.491,3.812-1.283C112.254,17.583,111.235,15.733,111.235,13.657L111.235,13.657z"/>
		<path fill="#FFFFFF" d="M109.99,20.333c-3.681,0-6.676-2.995-6.676-6.676c0-2.682,1.582-5.1,4.029-6.16l0.369-0.16l0.045,0.4
			c0.243,2.153,1.637,4.043,3.637,4.932l0.177,0.079v0.193c0,0.116-0.009,0.233-0.019,0.354c-0.009,0.115-0.019,0.234-0.019,0.362
			c0,1.883,0.915,3.699,2.448,4.858l0.315,0.238l-0.316,0.237C112.809,19.869,111.429,20.333,109.99,20.333z M107.224,8.211
			c-2.026,1.037-3.315,3.134-3.315,5.446c0,3.353,2.728,6.081,6.081,6.081c1.183,0,2.322-0.345,3.317-1.001
			c-1.49-1.273-2.369-3.144-2.369-5.08c0-0.145,0.011-0.28,0.021-0.41c0.003-0.041,0.006-0.081,0.009-0.12
			C108.999,12.181,107.6,10.336,107.224,8.211z"/>
	</g>
	<g>
		<path fill-rule="evenodd" clip-rule="evenodd" fill="#02666A" d="M111.273,12.941c0.226-1.812,1.169-3.359,2.528-4.416
			c-1.056-0.793-2.377-1.246-3.812-1.246c-0.868,0-1.736,0.188-2.529,0.491C107.725,10.11,109.235,12.035,111.273,12.941
			L111.273,12.941z"/>
		<path fill="#FFFFFF" d="M111.519,13.376l-0.367-0.163c-2.192-0.975-3.72-3.047-3.987-5.41l-0.026-0.229l0.216-0.083
			c2.396-0.912,4.832-0.551,6.625,0.796l0.312,0.234l-0.308,0.239c-1.349,1.049-2.207,2.546-2.416,4.217L111.519,13.376z
			 M107.788,7.968c0.294,1.929,1.512,3.621,3.253,4.53c0.284-1.536,1.077-2.916,2.27-3.954
			C111.774,7.541,109.794,7.273,107.788,7.968z"/>
	</g>
	<g>
		<path fill-rule="evenodd" clip-rule="evenodd" fill="#F2738E" d="M120.142,7.808c-0.264,2.302-1.736,4.227-3.811,5.133
			c0.037,0.226,0.037,0.453,0.037,0.716c0,2.076-1.019,3.926-2.566,5.095c1.057,0.792,2.378,1.283,3.813,1.283
			c3.51,0,6.378-2.868,6.378-6.378C123.992,11.016,122.407,8.789,120.142,7.808L120.142,7.808z"/>
		<path fill="#FFFFFF" d="M117.614,20.333c-1.439,0-2.819-0.464-3.991-1.343l-0.316-0.237l0.316-0.238
			c1.533-1.158,2.448-2.974,2.448-4.858c0-0.25,0-0.466-0.033-0.668L116,12.761l0.212-0.093c1.996-0.871,3.388-2.746,3.634-4.894
			l0.046-0.398l0.368,0.16c2.448,1.06,4.03,3.462,4.03,6.122C124.29,17.338,121.295,20.333,117.614,20.333z M114.296,18.737
			c0.996,0.656,2.135,1.001,3.318,1.001c3.353,0,6.08-2.728,6.08-6.081c0-2.291-1.289-4.374-3.316-5.409
			c-0.377,2.114-1.77,3.941-3.726,4.874c0.014,0.171,0.014,0.344,0.014,0.536C116.666,15.594,115.787,17.464,114.296,18.737z"/>
	</g>
	<g>
		<path fill-rule="evenodd" clip-rule="evenodd" fill="#FBA924" d="M113.801,8.525c1.396,1.056,2.34,2.604,2.529,4.416
			c2.075-0.906,3.547-2.831,3.811-5.133c-0.754-0.34-1.622-0.529-2.528-0.529C116.179,7.279,114.858,7.732,113.801,8.525
			L113.801,8.525z"/>
		<path fill="#FFFFFF" d="M116.077,13.376l-0.042-0.405c-0.174-1.669-1.031-3.164-2.413-4.209l-0.315-0.238l0.316-0.237
			c1.139-0.854,2.519-1.306,3.991-1.306c0.929,0,1.845,0.192,2.65,0.555l0.198,0.089l-0.024,0.216
			c-0.271,2.357-1.799,4.416-3.988,5.372L116.077,13.376z M114.297,8.542c1.221,1.036,2.015,2.417,2.273,3.956
			c1.737-0.896,2.953-2.579,3.247-4.504c-0.679-0.273-1.436-0.416-2.203-0.416C116.406,7.577,115.267,7.909,114.297,8.542z"/>
	</g>
	<g>
		<path fill-rule="evenodd" clip-rule="evenodd" fill="#EE203D" d="M116.368,13.657c0-0.263,0-0.491-0.037-0.716
			c-0.755,0.339-1.623,0.49-2.529,0.49c-0.868,0-1.736-0.189-2.528-0.49c0,0.226-0.038,0.453-0.038,0.716
			c0,2.076,1.019,3.926,2.566,5.095C115.349,17.583,116.368,15.733,116.368,13.657L116.368,13.657z"/>
		<path fill="#FFFFFF" d="M113.801,19.125l-0.18-0.136c-1.681-1.27-2.684-3.264-2.684-5.333c0-0.145,0.011-0.28,0.021-0.41
			c0.008-0.105,0.017-0.206,0.017-0.307v-0.432l0.404,0.153c1.762,0.67,3.558,0.577,4.83,0.007l0.353-0.158l0.063,0.381
			c0.042,0.25,0.042,0.488,0.042,0.765c0,2.069-1.004,4.063-2.685,5.333L113.801,19.125z M111.547,13.353
			c-0.008,0.097-0.014,0.197-0.014,0.304c0,1.809,0.844,3.555,2.268,4.717c1.425-1.162,2.269-2.908,2.269-4.717
			c0-0.102,0-0.198-0.002-0.291C114.809,13.817,113.176,13.883,111.547,13.353z"/>
	</g>
	<g>
		<path fill-rule="evenodd" clip-rule="evenodd" fill="#14499A" d="M113.801,8.525c-1.359,1.056-2.302,2.604-2.528,4.416
			c0.792,0.301,1.661,0.49,2.528,0.49c0.906,0,1.774-0.151,2.529-0.49C116.142,11.129,115.198,9.582,113.801,8.525L113.801,8.525z"
			/>
		<path fill="#FFFFFF" d="M113.801,13.729c-0.846,0-1.757-0.176-2.634-0.51l-0.218-0.083l0.029-0.232
			c0.228-1.829,1.166-3.468,2.641-4.614l0.18-0.14l0.182,0.138c1.515,1.146,2.454,2.787,2.646,4.622l0.022,0.214l-0.196,0.088
			C115.688,13.555,114.797,13.729,113.801,13.729z M111.602,12.744c1.606,0.554,3.215,0.478,4.406,0.01
			c-0.213-1.507-0.987-2.859-2.204-3.849C112.62,9.894,111.846,11.242,111.602,12.744z"/>
	</g>
	<path fill="#FFFFFF" d="M178.754,18.192h-7.549c-2.25,0-4.081-1.831-4.081-4.082V6.6c0-2.25,1.831-4.082,4.081-4.082h7.549
		c2.229,0,4.043,1.831,4.043,4.082v7.51C182.798,16.361,180.984,18.192,178.754,18.192z M171.206,3.511
		c-1.674,0-3.089,1.415-3.089,3.089v7.51c0,1.675,1.415,3.089,3.089,3.089h7.549c1.683,0,3.051-1.386,3.051-3.089V6.6
		c0-1.704-1.369-3.089-3.051-3.089H171.206z"/>
	<path fill="#F7913A" d="M153.278,50.159h-7.51c-2.25,0-4.081-1.83-4.081-4.08V38.53c0-2.23,1.831-4.045,4.081-4.045h7.51
		c2.251,0,4.082,1.814,4.082,4.045v7.549C157.36,48.329,155.529,50.159,153.278,50.159z M145.768,35.477
		c-1.703,0-3.089,1.369-3.089,3.053v7.549c0,1.674,1.415,3.088,3.089,3.088h7.51c1.675,0,3.09-1.414,3.09-3.088V38.53
		c0-1.684-1.386-3.053-3.09-3.053H145.768z"/>
	<g>
		<path fill-rule="evenodd" clip-rule="evenodd" fill="#F7913A" d="M272.842,39.397c0.113,0.379,0.529,0.568,0.906,0.453l0,0
			l4.266-1.434c0.264-0.074,0.453-0.34,0.453-0.68V33.51c0-0.416-0.303-0.717-0.68-0.717c-0.416,0-0.719,0.301-0.719,0.717v2.566
			c-3.66-3.473-9.434-3.322-12.906,0.34c-3.473,3.66-3.32,9.436,0.34,12.906c3.623,3.473,9.398,3.322,12.869-0.338
			c2-2.076,2.869-4.982,2.416-7.813c-0.076-0.379-0.453-0.643-0.83-0.566c-0.379,0.037-0.643,0.414-0.604,0.791h0.037
			c0.717,4.266-2.152,8.305-6.416,9.02c-4.227,0.719-8.266-2.148-8.982-6.375c-0.717-4.266,2.113-8.305,6.379-9.021
			c2.604-0.453,5.283,0.49,7.057,2.416l-3.133,1.057C272.918,38.606,272.729,39.02,272.842,39.397L272.842,39.397L272.842,39.397z"
			/>
		<path fill="#F7913A" d="M270.754,52.086c-2.41,0-4.693-0.916-6.43-2.58c-1.818-1.725-2.857-4.055-2.922-6.559
			c-0.066-2.506,0.848-4.889,2.574-6.707c1.791-1.889,4.209-2.928,6.809-2.928c2.219,0,4.338,0.775,6.027,2.193V33.51
			c0-0.555,0.418-0.973,0.975-0.973c0.523,0,0.934,0.428,0.934,0.973v4.227c0,0.445-0.256,0.816-0.639,0.924l-4.254,1.432
			c-0.553,0.166-1.084-0.131-1.23-0.623c-0.158-0.523,0.121-1.07,0.623-1.221l2.742-0.926c-1.41-1.377-3.316-2.16-5.291-2.16
			c-0.422,0-0.844,0.037-1.258,0.107c-4.096,0.689-6.863,4.604-6.17,8.729c0.615,3.635,3.738,6.273,7.426,6.273
			c0.42,0,0.846-0.037,1.262-0.107c1.994-0.334,3.738-1.426,4.91-3.074c1.131-1.59,1.598-3.514,1.33-5.439h-0.012l-0.061-0.229
			c-0.027-0.262,0.053-0.531,0.223-0.736c0.156-0.193,0.373-0.311,0.609-0.334c0.035-0.01,0.096-0.016,0.156-0.016
			c0.451,0,0.859,0.338,0.949,0.785c0.471,2.938-0.459,5.939-2.482,8.039C275.766,51.047,273.352,52.086,270.754,52.086z
			 M270.785,33.823c-2.459,0-4.746,0.982-6.438,2.77c-1.633,1.721-2.498,3.973-2.436,6.342s1.045,4.572,2.766,6.203
			c1.641,1.572,3.799,2.439,6.076,2.439c2.455,0,4.74-0.982,6.432-2.768c1.914-1.988,2.793-4.828,2.35-7.598
			c-0.047-0.229-0.289-0.406-0.527-0.355c-0.127,0.014-0.221,0.066-0.291,0.152c-0.059,0.07-0.096,0.16-0.107,0.25l0.033,0.096
			c0.357,2.131-0.135,4.273-1.385,6.031c-1.252,1.76-3.113,2.926-5.242,3.283c-0.443,0.074-0.896,0.113-1.346,0.113
			c-3.936,0-7.271-2.816-7.93-6.697c-0.74-4.402,2.215-8.582,6.588-9.316c0.441-0.076,0.893-0.115,1.344-0.115
			c2.25,0,4.416,0.951,5.943,2.609l0.266,0.289l-3.506,1.184c-0.238,0.072-0.365,0.334-0.289,0.588
			c0.063,0.211,0.266,0.305,0.438,0.305l0,0c0.051,0,0.102-0.008,0.15-0.021l4.258-1.432c0.172-0.049,0.279-0.223,0.279-0.438V33.51
			c0-0.268-0.178-0.463-0.424-0.463c-0.277,0-0.465,0.186-0.465,0.463v3.16l-0.43-0.408
			C275.234,34.688,273.066,33.823,270.785,33.823z"/>
	</g>
	<path fill-rule="evenodd" clip-rule="evenodd" fill="#F7913A" d="M222.383,50.833l-4.944-5.131c1.283-1.51,1.962-3.398,1.962-5.398
		c0-4.604-3.736-8.34-8.378-8.34c-4.604,0-8.34,3.736-8.34,8.34s3.736,8.379,8.34,8.379c1.736,0,3.397-0.529,4.793-1.51l4.981,5.17
		c0.227,0.189,0.491,0.34,0.792,0.34c0.265,0,0.566-0.113,0.755-0.34C222.76,51.928,222.798,51.249,222.383,50.833L222.383,50.833z
		 M211.022,34.114c3.435,0,6.189,2.793,6.189,6.189c0,3.434-2.755,6.189-6.189,6.189c-3.396,0-6.151-2.756-6.151-6.189
		C204.871,36.907,207.626,34.114,211.022,34.114L211.022,34.114z"/>
	<g>
		<path fill-rule="evenodd" clip-rule="evenodd" fill="#F7913A" d="M309.943,34.34c-1.586-1.586-4.152-1.586-5.738,0l-10.49,10.492
			c-0.076,0.074-0.115,0.188-0.152,0.301l-0.754,5.736c-0.039,0.152,0.035,0.342,0.15,0.453c0.074,0.076,0.227,0.152,0.34,0.152
			c0.037,0,0.074,0,0.074,0l3.473-0.492c0.303-0.037,0.492-0.301,0.453-0.566c-0.037-0.301-0.303-0.488-0.605-0.451l-2.754,0.377
			l0.529-4.039l4.227,4.229c0.113,0.113,0.227,0.15,0.377,0.15s0.264-0.037,0.377-0.15l10.494-10.492
			c0.754-0.756,1.168-1.775,1.168-2.869C311.111,36.114,310.697,35.094,309.943,34.34L309.943,34.34z M304.432,35.624l1.736,1.775
			l-9.549,9.547l-1.773-1.736L304.432,35.624z M299.072,49.436l-1.734-1.734l9.584-9.588l1.738,1.736L299.072,49.436z
			 M309.375,39.096l-4.188-4.227c0.527-0.416,1.17-0.68,1.887-0.68c0.793,0,1.547,0.303,2.113,0.867
			c0.564,0.566,0.867,1.32,0.867,2.113C310.055,37.887,309.83,38.567,309.375,39.096L309.375,39.096z"/>
		<path fill="#F7913A" d="M293.383,51.631h-0.084c-0.168,0-0.357-0.104-0.451-0.201c-0.162-0.154-0.24-0.402-0.191-0.6l0.752-5.719
			c0.043-0.143,0.092-0.287,0.197-0.391l10.488-10.492c0.797-0.795,1.855-1.234,2.98-1.234s2.182,0.439,2.979,1.234
			c0.783,0.783,1.215,1.828,1.215,2.941c0,1.137-0.432,2.193-1.215,2.979l-10.494,10.492c-0.135,0.137-0.285,0.197-0.486,0.197
			s-0.352-0.061-0.488-0.197l-4.002-4.004l-0.463,3.521l2.553-0.348c0.033-0.004,0.066-0.006,0.098-0.006
			c0.354,0,0.641,0.248,0.684,0.592c0.025,0.168-0.02,0.34-0.127,0.48c-0.111,0.145-0.275,0.236-0.463,0.26L293.383,51.631z
			 M307.074,33.307c-1.043,0-2.021,0.406-2.76,1.143l-10.49,10.492c-0.053,0.053-0.086,0.156-0.113,0.24l-0.748,5.707
			c-0.025,0.105,0.021,0.242,0.104,0.32c0.055,0.057,0.168,0.109,0.232,0.109h0.063l3.463-0.49c0.105-0.014,0.195-0.063,0.254-0.141
			c0.055-0.072,0.078-0.162,0.066-0.25c-0.027-0.213-0.215-0.34-0.434-0.318l-2.953,0.404l0.598-4.555l4.449,4.451
			c0.078,0.078,0.148,0.105,0.268,0.105s0.189-0.027,0.266-0.105l10.494-10.492c0.725-0.725,1.123-1.705,1.123-2.758
			c0-1.031-0.398-1.996-1.123-2.721C309.096,33.713,308.115,33.307,307.074,33.307z M299.072,49.657l-1.955-1.955l9.805-9.809
			l1.959,1.957L299.072,49.657z M297.559,47.702l1.514,1.514l9.367-9.365l-1.518-1.516L297.559,47.702z M296.619,47.165
			l-1.996-1.955l9.809-9.809l1.955,1.998L296.619,47.165z M295.066,45.208l1.551,1.518l9.33-9.328l-1.518-1.553L295.066,45.208z
			 M309.383,39.325l-0.119-0.119l-4.311-4.352l0.137-0.107c0.592-0.467,1.277-0.713,1.984-0.713c0.842,0,1.633,0.324,2.223,0.912
			c0.59,0.592,0.914,1.381,0.914,2.225c0,0.779-0.248,1.48-0.719,2.027L309.383,39.325z M305.424,34.887l3.939,3.975
			c0.35-0.467,0.535-1.049,0.535-1.691c0-0.76-0.291-1.473-0.822-2.004c-0.531-0.529-1.242-0.82-2.002-0.82
			C306.494,34.346,305.926,34.532,305.424,34.887z"/>
	</g>
	<path fill-rule="evenodd" clip-rule="evenodd" fill="#F7913A" d="M236.913,52.495l5.247-4.719l5.246,4.719
		c0.151,0.15,0.339,0.227,0.566,0.227c0.075,0,0.188-0.039,0.302-0.076c0.302-0.113,0.491-0.416,0.491-0.717V33.36
		c0-0.453-0.34-0.795-0.792-0.795h-11.625c-0.415,0-0.793,0.342-0.793,0.795v18.568c0,0.301,0.227,0.604,0.491,0.717
		C236.347,52.758,236.725,52.721,236.913,52.495L236.913,52.495z M237.139,34.153h10.002v15.85l-4.454-3.924
		c-0.151-0.152-0.339-0.227-0.528-0.227c-0.227,0-0.416,0.074-0.566,0.227l-4.454,3.924V34.153L237.139,34.153z"/>
	<g>
		<path fill-rule="evenodd" clip-rule="evenodd" fill="#F7913A" d="M342.551,40.266l-1.359-0.227
			c-0.15-0.492-0.34-0.906-0.564-1.357l0.828-1.135c0.34-0.451,0.264-1.131-0.148-1.547l-1.209-1.207
			c-0.227-0.227-0.529-0.34-0.867-0.34c-0.229,0-0.494,0.076-0.682,0.189l-1.131,0.828c-0.453-0.225-0.906-0.414-1.398-0.564
			l-0.227-1.359c-0.111-0.604-0.602-1.02-1.17-1.02h-1.734c-0.605,0-1.096,0.416-1.209,1.02l-0.225,1.396
			c-0.455,0.15-0.906,0.303-1.322,0.566L329,34.68c-0.188-0.15-0.453-0.227-0.678-0.227c-0.34,0-0.643,0.15-0.869,0.377
			l-1.207,1.209c-0.414,0.414-0.49,1.057-0.152,1.547l0.832,1.133c-0.227,0.451-0.416,0.904-0.566,1.357l-1.32,0.227
			c-0.605,0.076-1.02,0.604-1.02,1.17v1.736c0,0.604,0.414,1.094,1.02,1.209l1.357,0.225c0.15,0.453,0.342,0.906,0.566,1.322
			l-0.793,1.131c-0.338,0.453-0.301,1.135,0.113,1.549l1.246,1.207c0.227,0.227,0.529,0.34,0.83,0.34
			c0.264,0,0.49-0.076,0.717-0.227l1.133-0.793c0.414,0.227,0.83,0.377,1.283,0.529l0.227,1.359
			c0.113,0.602,0.604,1.018,1.209,1.018h1.695c0.605,0,1.096-0.416,1.209-1.018l0.227-1.359c0.453-0.152,0.906-0.34,1.32-0.568
			l1.133,0.832c0.225,0.15,0.453,0.227,0.719,0.227c0.338,0,0.641-0.152,0.867-0.377l1.209-1.207
			c0.412-0.416,0.451-1.059,0.111-1.549l-0.791-1.133c0.225-0.451,0.414-0.867,0.564-1.32l1.359-0.264
			c0.564-0.076,1.02-0.568,1.02-1.17v-1.736C343.57,40.87,343.154,40.342,342.551,40.266L342.551,40.266z M342.475,43.172
			c0,0.037-0.037,0.074-0.113,0.113l-1.697,0.264c-0.229,0.037-0.379,0.188-0.455,0.416c-0.15,0.604-0.377,1.168-0.715,1.697
			c-0.115,0.189-0.076,0.416,0.037,0.604l1.02,1.436c0,0.037,0,0.111-0.037,0.111l-1.209,1.246c-0.039,0-0.039,0.037-0.074,0.037
			c-0.039,0-0.039-0.037-0.076-0.037l-1.396-1.02c-0.191-0.113-0.416-0.113-0.604,0c-0.529,0.303-1.096,0.529-1.699,0.68
			c-0.227,0.076-0.377,0.266-0.416,0.453l-0.303,1.736c0,0.037-0.037,0.074-0.113,0.074h-1.695c-0.039,0-0.115-0.037-0.115-0.074
			l-0.264-1.736c-0.037-0.227-0.227-0.377-0.414-0.453c-0.605-0.15-1.17-0.377-1.664-0.68c-0.111-0.037-0.188-0.074-0.299-0.074
			c-0.113,0-0.227,0.037-0.303,0.113l-1.434,1.018c-0.037,0-0.037,0.037-0.076,0.037c0,0-0.037-0.037-0.074-0.037l-1.209-1.246
			c-0.037-0.037-0.037-0.074,0-0.111l0.982-1.436c0.15-0.15,0.15-0.414,0.037-0.602c-0.34-0.529-0.566-1.096-0.717-1.699
			c-0.076-0.189-0.227-0.34-0.453-0.379l-1.738-0.301c-0.035,0-0.074-0.076-0.074-0.113v-1.736c0-0.037,0.039-0.076,0.074-0.076
			l1.738-0.301c0.189-0.039,0.377-0.189,0.414-0.416c0.152-0.604,0.379-1.17,0.719-1.697c0.111-0.189,0.076-0.416-0.037-0.604
			L327,36.946c-0.037-0.039-0.037-0.115,0-0.152l1.246-1.207c0-0.037,0.039-0.037,0.076-0.037l0.037,0.037l1.436,1.018
			c0.15,0.113,0.414,0.113,0.602,0c0.529-0.301,1.096-0.564,1.699-0.717c0.188-0.037,0.377-0.227,0.416-0.453l0.264-1.697
			c0.037-0.076,0.074-0.113,0.113-0.113h1.734c0.039,0,0.076,0.037,0.113,0.113l0.266,1.697c0.037,0.227,0.189,0.379,0.414,0.453
			c0.604,0.152,1.209,0.377,1.738,0.717c0.188,0.113,0.412,0.076,0.604-0.037l1.434-1.018h0.039c0.035,0,0.035,0,0.074,0
			l1.209,1.244c0.037,0.037,0.074,0.076,0.037,0.113l-1.02,1.436c-0.113,0.188-0.152,0.414-0.037,0.602
			c0.338,0.529,0.564,1.096,0.715,1.699c0.076,0.227,0.227,0.377,0.455,0.414l1.697,0.303c0.076,0,0.113,0.037,0.113,0.076V43.172
			L342.475,43.172z"/>
		<path fill="#F7913A" d="M334.623,52.122h-1.695c-0.621,0-1.135-0.434-1.252-1.053l-0.223-1.336
			c-0.4-0.135-0.826-0.287-1.242-0.512L329.1,50c-0.24,0.16-0.477,0.234-0.74,0.234c-0.328,0-0.633-0.127-0.861-0.354l-1.244-1.207
			c-0.424-0.422-0.475-1.127-0.119-1.604l0.777-1.109c-0.211-0.395-0.396-0.826-0.549-1.281l-1.332-0.221
			c-0.631-0.119-1.055-0.623-1.055-1.25v-1.736c0-0.615,0.455-1.137,1.057-1.213l1.293-0.223c0.146-0.434,0.33-0.877,0.549-1.314
			l-0.816-1.111c-0.342-0.496-0.275-1.17,0.156-1.604l1.207-1.209c0.252-0.25,0.57-0.389,0.9-0.389c0.252,0,0.521,0.09,0.703,0.236
			l1.109,0.811c0.416-0.258,0.873-0.412,1.281-0.547l0.221-1.371c0.117-0.621,0.631-1.055,1.252-1.055h1.734
			c0.598,0,1.098,0.434,1.211,1.055l0.223,1.334c0.447,0.139,0.881,0.313,1.357,0.547l1.109-0.813
			c0.199-0.121,0.477-0.197,0.707-0.197c0.355,0,0.666,0.121,0.896,0.352l1.209,1.207c0.434,0.438,0.5,1.143,0.152,1.604
			l-0.813,1.113c0.225,0.451,0.404,0.852,0.549,1.314l1.332,0.223c0.602,0.076,1.057,0.598,1.057,1.213v1.736
			c0,0.609-0.455,1.131-1.057,1.211l-1.334,0.26c-0.16,0.477-0.365,0.912-0.547,1.279l0.777,1.111
			c0.355,0.516,0.309,1.174-0.117,1.604l-1.209,1.207c-0.254,0.252-0.572,0.391-0.896,0.391c-0.27,0-0.504-0.076-0.742-0.234
			l-1.113-0.816c-0.373,0.203-0.803,0.389-1.279,0.549l-0.223,1.334C335.756,51.688,335.242,52.122,334.623,52.122z M330.205,49.122
			l0.023,0.014c0.426,0.232,0.863,0.387,1.277,0.525l0.023,0.008l0.004,0.025l0.227,1.359c0.111,0.588,0.58,0.982,1.168,0.982h1.695
			c0.588,0,1.057-0.395,1.166-0.982l0.23-1.385l0.025-0.008c0.49-0.164,0.932-0.355,1.313-0.564l0.023-0.014l1.156,0.848
			c0.221,0.148,0.441,0.219,0.693,0.219c0.303,0,0.6-0.129,0.836-0.365l1.209-1.207c0.396-0.398,0.439-1.014,0.107-1.494
			l-0.805-1.152l0.01-0.023c0.197-0.395,0.4-0.826,0.563-1.314l0.008-0.023l0.025-0.006l1.359-0.264
			c0.563-0.076,0.984-0.561,0.984-1.127v-1.736c0-0.572-0.422-1.057-0.982-1.129l-1.387-0.23l-0.008-0.025
			c-0.146-0.477-0.33-0.885-0.563-1.352l-0.012-0.021l0.844-1.156c0.324-0.43,0.26-1.084-0.145-1.492l-1.209-1.207
			c-0.213-0.215-0.504-0.326-0.836-0.326c-0.217,0-0.477,0.07-0.66,0.182l-1.148,0.842l-0.023-0.012
			c-0.49-0.242-0.932-0.422-1.393-0.561l-0.025-0.008l-0.004-0.027l-0.227-1.359c-0.105-0.578-0.57-0.982-1.127-0.982h-1.734
			c-0.588,0-1.057,0.395-1.168,0.984l-0.229,1.42l-0.023,0.008c-0.418,0.139-0.891,0.295-1.314,0.563l-0.023,0.016l-0.023-0.018
			l-1.133-0.83c-0.168-0.135-0.418-0.217-0.652-0.217c-0.307,0-0.605,0.129-0.84,0.363l-1.207,1.209
			c-0.41,0.41-0.471,1.023-0.146,1.492l0.846,1.154l-0.012,0.023c-0.225,0.449-0.416,0.904-0.564,1.352l-0.008,0.023l-0.025,0.004
			l-1.32,0.227c-0.561,0.07-0.982,0.557-0.982,1.129v1.736c0,0.586,0.395,1.055,0.984,1.166l1.381,0.229l0.008,0.025
			c0.154,0.461,0.35,0.916,0.564,1.314l0.012,0.023l-0.014,0.021l-0.793,1.131c-0.334,0.445-0.285,1.102,0.107,1.494l1.246,1.207
			c0.211,0.211,0.496,0.328,0.801,0.328c0.246,0,0.467-0.07,0.693-0.219L330.205,49.122z M334.623,51.026h-1.695
			c-0.057,0-0.158-0.049-0.158-0.117l-0.264-1.73c-0.041-0.254-0.285-0.379-0.387-0.42c-0.619-0.152-1.182-0.383-1.672-0.684
			c-0.014-0.002-0.035-0.01-0.055-0.018c-0.078-0.027-0.139-0.049-0.221-0.049c-0.109,0-0.209,0.035-0.273,0.1l-1.449,1.031h-0.014
			c-0.02,0.018-0.039,0.037-0.076,0.037h-0.018l-0.014-0.014c-0.01-0.01-0.031-0.023-0.043-0.023h-0.018l-0.014-0.014l-1.209-1.246
			c-0.053-0.053-0.053-0.117,0-0.172l0.979-1.43c0.133-0.135,0.146-0.371,0.035-0.555c-0.324-0.506-0.561-1.064-0.721-1.711
			c-0.076-0.189-0.227-0.314-0.42-0.348l-1.738-0.301l0,0c-0.061,0-0.109-0.102-0.109-0.154v-1.736c0-0.061,0.059-0.119,0.117-0.119
			l1.73-0.301c0.162-0.033,0.344-0.164,0.379-0.381c0.164-0.652,0.402-1.211,0.725-1.713c0.094-0.16,0.08-0.363-0.037-0.559
			l-1.02-1.432c-0.049-0.051-0.049-0.152,0.004-0.207l1.236-1.195c0.014-0.061,0.084-0.061,0.117-0.061h0.018l0.049,0.049
			l1.43,1.014c0.135,0.102,0.389,0.1,0.555-0.002c0.619-0.352,1.178-0.586,1.711-0.721c0.184-0.037,0.352-0.221,0.385-0.42
			l0.268-1.709c0.018-0.033,0.066-0.137,0.152-0.137h1.734c0.084,0,0.135,0.104,0.15,0.137l0.004,0.012l0.266,1.697
			c0.033,0.203,0.166,0.348,0.387,0.42c0.682,0.172,1.27,0.416,1.748,0.721c0.154,0.094,0.361,0.078,0.559-0.037l1.441-1.023h0.145
			l0.012,0.014l1.209,1.244c0.035,0.033,0.105,0.104,0.037,0.172l-1.014,1.43c-0.119,0.195-0.133,0.398-0.037,0.555
			c0.324,0.508,0.561,1.068,0.721,1.711c0.074,0.221,0.215,0.35,0.42,0.383l1.699,0.303l0,0c0.1,0,0.148,0.063,0.148,0.119v1.736
			c0,0.072-0.078,0.121-0.137,0.15l-0.014,0.004l-1.697,0.264c-0.205,0.033-0.346,0.164-0.422,0.389
			c-0.158,0.639-0.395,1.197-0.719,1.705c-0.096,0.158-0.082,0.361,0.037,0.559l1.027,1.445v0.014c0,0.041,0,0.133-0.061,0.15
			l-1.211,1.25h-0.018l-0.01,0.006c-0.012,0.012-0.029,0.031-0.064,0.031c-0.037,0-0.057-0.02-0.07-0.031h-0.014l-0.018-0.016
			l-1.396-1.02c-0.17-0.098-0.387-0.102-0.557,0.002c-0.531,0.305-1.105,0.535-1.711,0.686c-0.193,0.064-0.346,0.23-0.385,0.42
			l-0.303,1.734C334.779,50.965,334.73,51.026,334.623,51.026z M330.172,47.922c0.096,0,0.166,0.025,0.25,0.055
			c0.02,0.008,0.039,0.014,0.063,0.021c0.49,0.299,1.045,0.525,1.66,0.68c0.121,0.049,0.396,0.189,0.445,0.486l0.264,1.736
			c0.006,0.016,0.051,0.039,0.074,0.039h1.695c0.049,0,0.07-0.02,0.07-0.031l0.303-1.744c0.047-0.221,0.221-0.41,0.445-0.486
			c0.6-0.15,1.168-0.377,1.691-0.676c0.193-0.117,0.443-0.119,0.646,0l1.391,1.016c0.025,0.004,0.041,0.02,0.051,0.027l0.01,0.008
			c0.012-0.014,0.027-0.029,0.053-0.035l1.219-1.248c0.004-0.01,0.006-0.029,0.006-0.055l-1.012-1.426
			c-0.139-0.229-0.152-0.465-0.039-0.65c0.32-0.5,0.553-1.051,0.711-1.686c0.084-0.254,0.254-0.408,0.488-0.447l1.691-0.262
			c0.08-0.043,0.084-0.068,0.084-0.072v-1.736c0-0.018-0.023-0.033-0.07-0.033l-1.705-0.305c-0.234-0.037-0.404-0.191-0.488-0.441
			c-0.158-0.639-0.391-1.191-0.711-1.691c-0.113-0.184-0.1-0.42,0.037-0.646l1.029-1.447c0-0.01-0.029-0.037-0.041-0.049
			l-1.195-1.23h-0.082l-1.424,1.01c-0.229,0.135-0.465,0.148-0.65,0.037c-0.469-0.301-1.051-0.541-1.727-0.711
			c-0.25-0.082-0.406-0.256-0.445-0.488l-0.264-1.691c-0.039-0.076-0.066-0.082-0.072-0.082h-1.734
			c-0.008,0-0.033,0.006-0.072,0.082l-0.264,1.691c-0.041,0.236-0.234,0.445-0.449,0.488c-0.523,0.133-1.076,0.365-1.686,0.713
			c-0.098,0.057-0.217,0.09-0.336,0.09c-0.123,0-0.232-0.033-0.313-0.094l-1.436-1.016l-0.029-0.029c-0.006,0-0.012,0-0.016,0v0.012
			l-0.014,0.012l-1.246,1.207c-0.021,0.021-0.02,0.07,0.002,0.094l1.023,1.438c0.135,0.223,0.148,0.465,0.041,0.65
			c-0.32,0.496-0.555,1.047-0.715,1.686c-0.041,0.254-0.254,0.408-0.447,0.447l-1.74,0.301c-0.018,0.002-0.037,0.021-0.037,0.035
			v1.736c0,0.02,0.023,0.064,0.035,0.07l1.74,0.301c0.225,0.039,0.396,0.184,0.486,0.406c0.16,0.641,0.393,1.193,0.713,1.691
			c0.131,0.219,0.113,0.498-0.043,0.654l-0.977,1.43c-0.025,0.027-0.025,0.037-0.006,0.057l1.199,1.236
			c0.025,0.004,0.047,0.018,0.063,0.029l0.002-0.002c0.01-0.008,0.025-0.023,0.051-0.027l1.424-1.012
			C329.918,47.967,330.039,47.922,330.172,47.922z"/>
	</g>
	<g>
		<path fill-rule="evenodd" clip-rule="evenodd" fill="#F7913A" d="M333.795,38.077c-2.34,0-4.227,1.889-4.227,4.227
			c0,2.34,1.887,4.227,4.227,4.227c2.301,0,4.188-1.887,4.188-4.227C337.982,39.965,336.096,38.077,333.795,38.077L333.795,38.077z
			 M333.795,45.436c-1.736,0-3.133-1.395-3.133-3.133c0-1.697,1.396-3.096,3.133-3.096c1.699,0,3.094,1.398,3.094,3.096
			C336.889,44.042,335.494,45.436,333.795,45.436L333.795,45.436z"/>
		<path fill="#F7913A" d="M333.795,46.573c-2.354,0-4.27-1.916-4.27-4.27s1.916-4.27,4.27-4.27c2.332,0,4.23,1.916,4.23,4.27
			S336.127,46.573,333.795,46.573z M333.795,38.12c-2.307,0-4.184,1.877-4.184,4.184s1.877,4.184,4.184,4.184
			c2.285,0,4.145-1.877,4.145-4.184S336.08,38.12,333.795,38.12z M333.795,45.479c-1.752,0-3.176-1.426-3.176-3.176
			c0-1.73,1.424-3.139,3.176-3.139c1.729,0,3.137,1.408,3.137,3.139C336.932,44.053,335.523,45.479,333.795,45.479z M333.795,39.25
			c-1.705,0-3.09,1.369-3.09,3.053c0,1.703,1.385,3.09,3.09,3.09c1.682,0,3.051-1.387,3.051-3.09
			C336.846,40.62,335.477,39.25,333.795,39.25z"/>
	</g>
	<path fill-rule="evenodd" clip-rule="evenodd" fill="#F7913A" d="M146.146,42.303L146.146,42.303c0-0.414,0.34-0.754,0.755-0.754
		h5.247c0.415,0,0.754,0.34,0.754,0.754l0,0c0,0.416-0.34,0.756-0.754,0.756H146.9C146.485,43.059,146.146,42.719,146.146,42.303
		L146.146,42.303z"/>
	<path fill-rule="evenodd" clip-rule="evenodd" fill="#F7913A" d="M149.505,45.663L149.505,45.663c-0.416,0-0.755-0.34-0.755-0.756
		V39.7c0-0.416,0.339-0.756,0.755-0.756l0,0c0.453,0,0.792,0.34,0.792,0.756v5.207C150.297,45.323,149.958,45.663,149.505,45.663
		L149.505,45.663z"/>
	<path fill-rule="evenodd" clip-rule="evenodd" fill="#F7913A" d="M171.81,42.303L171.81,42.303c0-0.453,0.301-0.83,0.717-0.83
		h4.906c0.415,0,0.717,0.377,0.717,0.83l0,0c0,0.453-0.302,0.832-0.717,0.832h-4.906C172.111,43.135,171.81,42.756,171.81,42.303
		L171.81,42.303z"/>
	<path fill-rule="evenodd" clip-rule="evenodd" fill="#F7913A" d="M82.665,42.303l6.34-6.34c0.377-0.377,0.377-1.02,0-1.396
		c-0.415-0.414-1.056-0.414-1.434,0L81.23,40.87l-6.302-6.303c-0.415-0.414-1.057-0.414-1.435,0
		c-0.188,0.188-0.301,0.453-0.301,0.717c0,0.227,0.113,0.492,0.301,0.68l6.341,6.34l-6.341,6.342
		c-0.188,0.188-0.301,0.451-0.301,0.717c0,0.225,0.113,0.49,0.301,0.678c0.188,0.229,0.453,0.303,0.717,0.303
		c0.265,0,0.491-0.074,0.717-0.303l6.302-6.303l6.341,6.303c0.188,0.229,0.453,0.303,0.717,0.303c0.265,0,0.491-0.074,0.717-0.303
		c0.377-0.377,0.377-1.018,0-1.395L82.665,42.303z"/>
	<path fill-rule="evenodd" clip-rule="evenodd" fill="#F7913A" d="M57.681,51.022H41.64c-0.679,0-1.208-0.529-1.208-1.207
		c0-0.643,0.528-1.207,1.208-1.207h16.041c0.642,0,1.169,0.564,1.169,1.207C58.85,50.493,58.322,51.022,57.681,51.022L57.681,51.022
		z"/>
	<path fill-rule="evenodd" clip-rule="evenodd" fill="#F7913A" d="M57.681,43.512H41.64c-0.679,0-1.208-0.529-1.208-1.209
		c0-0.641,0.528-1.207,1.208-1.207h16.041c0.642,0,1.169,0.566,1.169,1.207C58.85,42.983,58.322,43.512,57.681,43.512L57.681,43.512
		z"/>
	<path fill-rule="evenodd" clip-rule="evenodd" fill="#F7913A" d="M57.681,36H41.64c-0.679,0-1.208-0.529-1.208-1.207
		c0-0.641,0.528-1.207,1.208-1.207h16.041c0.642,0,1.169,0.566,1.169,1.207C58.85,35.471,58.322,36,57.681,36L57.681,36z"/>
	<path fill-rule="evenodd" clip-rule="evenodd" fill="#F7913A" d="M38.093,34.907c0,0.869-0.717,1.586-1.585,1.586
		c-0.906,0-1.623-0.717-1.623-1.586c0-0.906,0.717-1.623,1.623-1.623C37.376,33.284,38.093,34,38.093,34.907L38.093,34.907z"/>
	<path fill-rule="evenodd" clip-rule="evenodd" fill="#F7913A" d="M38.093,42.303c0,0.906-0.717,1.623-1.585,1.623
		c-0.906,0-1.623-0.717-1.623-1.623c0-0.867,0.717-1.584,1.623-1.584C37.376,40.719,38.093,41.436,38.093,42.303L38.093,42.303z"/>
	<path fill-rule="evenodd" clip-rule="evenodd" fill="#F7913A" d="M38.093,49.739c0,0.867-0.717,1.584-1.585,1.584
		c-0.906,0-1.623-0.717-1.623-1.584c0-0.906,0.717-1.623,1.623-1.623C37.376,48.116,38.093,48.833,38.093,49.739L38.093,49.739z"/>
	<path fill-rule="evenodd" clip-rule="evenodd" fill="#F7913A" d="M20.807,51.022H1.824c-0.68,0-1.208-0.529-1.208-1.207
		c0-0.643,0.528-1.207,1.208-1.207h18.983c0.642,0,1.17,0.564,1.17,1.207C21.977,50.493,21.449,51.022,20.807,51.022L20.807,51.022z
		"/>
	<path fill-rule="evenodd" clip-rule="evenodd" fill="#F7913A" d="M20.807,36H1.333c-0.679,0-1.208-0.529-1.208-1.207
		c0-0.641,0.529-1.207,1.208-1.207h19.474c0.642,0,1.17,0.566,1.17,1.207C21.977,35.471,21.449,36,20.807,36L20.807,36z"/>
	<g>
		<path fill-rule="evenodd" clip-rule="evenodd" fill="#FEC574" d="M113.801,40.491c1.057-0.791,2.378-1.283,3.813-1.283
			c0.906,0,1.773,0.189,2.528,0.529c0.038-0.227,0.038-0.49,0.038-0.717c0-3.51-2.869-6.379-6.378-6.379s-6.378,2.869-6.378,6.379
			c0,0.227,0.038,0.49,0.038,0.717c0.793-0.34,1.661-0.529,2.529-0.529C111.424,39.208,112.745,39.7,113.801,40.491L113.801,40.491z
			"/>
		<path fill="#FFFFFF" d="M113.801,40.862l-0.178-0.133c-1.729-1.295-4.023-1.584-6.045-0.719l-0.415,0.178v-0.451
			c0-0.107-0.009-0.221-0.018-0.336c-0.01-0.131-0.02-0.262-0.02-0.381c0-3.682,2.995-6.678,6.676-6.678s6.676,2.996,6.676,6.678
			c0,0.24,0,0.514-0.042,0.766l-0.064,0.381l-0.352-0.158c-0.73-0.33-1.563-0.504-2.406-0.504c-1.308,0-2.564,0.424-3.634,1.225
			L113.801,40.862z M109.99,38.909c1.365,0,2.678,0.42,3.812,1.215c1.134-0.795,2.448-1.215,3.813-1.215
			c0.783,0,1.558,0.137,2.266,0.398c0.002-0.098,0.002-0.195,0.002-0.287c0-3.354-2.728-6.082-6.081-6.082
			c-3.353,0-6.08,2.729-6.08,6.082c0,0.092,0.007,0.189,0.014,0.289C108.467,39.047,109.239,38.909,109.99,38.909z"/>
	</g>
	<g>
		<path fill-rule="evenodd" clip-rule="evenodd" fill="#00989E" d="M111.235,45.586c0-0.227,0.038-0.49,0.038-0.717
			c-2.038-0.867-3.548-2.83-3.812-5.133c-2.265,0.982-3.85,3.246-3.85,5.85c0,3.51,2.868,6.379,6.378,6.379
			c1.434,0,2.755-0.453,3.812-1.283C112.254,49.549,111.235,47.663,111.235,45.586L111.235,45.586z"/>
		<path fill="#FFFFFF" d="M109.99,52.262c-3.681,0-6.676-2.994-6.676-6.676c0-2.658,1.582-5.061,4.029-6.123l0.369-0.16l0.046,0.398
			c0.249,2.172,1.641,4.047,3.633,4.895l0.181,0.076v0.197c0,0.119-0.01,0.25-0.02,0.381c-0.009,0.115-0.018,0.229-0.018,0.336
			c0,1.92,0.914,3.734,2.444,4.855l0.316,0.23l-0.308,0.244C112.864,51.797,111.482,52.262,109.99,52.262z M107.225,40.176
			c-2.027,1.037-3.315,3.121-3.315,5.41c0,3.354,2.728,6.08,6.081,6.08c1.223,0,2.362-0.342,3.318-0.992
			c-1.491-1.242-2.371-3.115-2.371-5.088c0-0.121,0.01-0.252,0.02-0.381c0.003-0.049,0.007-0.098,0.011-0.146
			C109.004,44.149,107.604,42.317,107.225,40.176z"/>
	</g>
	<g>
		<path fill-rule="evenodd" clip-rule="evenodd" fill="#02666A" d="M111.273,44.87c0.226-1.773,1.169-3.357,2.528-4.379
			c-1.056-0.791-2.377-1.283-3.812-1.283c-0.868,0-1.736,0.189-2.529,0.529C107.725,42.04,109.235,44.002,111.273,44.87
			L111.273,44.87z"/>
		<path fill="#FFFFFF" d="M111.519,45.297l-0.362-0.154c-2.188-0.932-3.718-2.99-3.991-5.373l-0.025-0.221l0.204-0.086
			c2.214-0.951,4.74-0.631,6.636,0.789l0.318,0.238l-0.317,0.238c-1.321,0.992-2.2,2.516-2.412,4.178L111.519,45.297z
			 M107.786,39.924c0.296,1.949,1.516,3.633,3.254,4.51c0.288-1.531,1.094-2.93,2.266-3.928
			C111.688,39.442,109.642,39.208,107.786,39.924z"/>
	</g>
	<g>
		<path fill-rule="evenodd" clip-rule="evenodd" fill="#F2738E" d="M120.142,39.737c-0.264,2.303-1.736,4.266-3.811,5.133
			c0.037,0.227,0.037,0.49,0.037,0.717c0,2.076-1.019,3.963-2.566,5.096c1.057,0.83,2.378,1.283,3.813,1.283
			c3.51,0,6.378-2.869,6.378-6.379C123.992,42.983,122.407,40.719,120.142,39.737L120.142,39.737z"/>
		<path fill="#FFFFFF" d="M117.614,52.262c-1.492,0-2.875-0.465-3.996-1.346l-0.309-0.244l0.317-0.23
			c1.531-1.121,2.444-2.936,2.444-4.855c0-0.219,0-0.467-0.033-0.67l-0.038-0.23l0.217-0.092c1.988-0.83,3.379-2.705,3.63-4.893
			l0.046-0.398l0.369,0.16c2.447,1.061,4.029,3.465,4.029,6.123C124.29,49.268,121.295,52.262,117.614,52.262z M114.294,50.674
			c0.957,0.65,2.096,0.992,3.319,0.992c3.353,0,6.08-2.727,6.08-6.08c0-2.289-1.289-4.373-3.316-5.41
			c-0.379,2.15-1.772,3.979-3.727,4.877c0.014,0.182,0.014,0.365,0.014,0.533C116.666,47.559,115.786,49.432,114.294,50.674z"/>
	</g>
	<g>
		<path fill-rule="evenodd" clip-rule="evenodd" fill="#FBA924" d="M113.801,40.491c1.396,1.021,2.34,2.605,2.529,4.379
			c2.075-0.867,3.547-2.83,3.811-5.133c-0.754-0.34-1.622-0.529-2.528-0.529C116.179,39.208,114.858,39.7,113.801,40.491
			L113.801,40.491z"/>
		<path fill="#FFFFFF" d="M116.077,45.297l-0.042-0.396c-0.177-1.66-1.055-3.18-2.409-4.17l-0.325-0.238l0.322-0.24
			c1.174-0.879,2.554-1.344,3.991-1.344c0.927,0,1.843,0.193,2.65,0.557l0.198,0.09l-0.024,0.215
			c-0.275,2.4-1.805,4.459-3.992,5.373L116.077,45.297z M114.301,40.502c1.2,1,2.007,2.396,2.269,3.93
			c1.734-0.865,2.951-2.549,3.247-4.51c-0.68-0.273-1.437-0.418-2.203-0.418C116.435,39.504,115.298,39.848,114.301,40.502z"/>
	</g>
	<g>
		<path fill-rule="evenodd" clip-rule="evenodd" fill="#EE203D" d="M116.368,45.586c0-0.227,0-0.49-0.037-0.717
			c-0.755,0.34-1.623,0.529-2.529,0.529c-0.868,0-1.736-0.189-2.528-0.529c0,0.227-0.038,0.49-0.038,0.717
			c0,2.076,1.019,3.963,2.566,5.096C115.349,49.549,116.368,47.663,116.368,45.586L116.368,45.586z"/>
		<path fill="#FFFFFF" d="M113.801,51.051l-0.176-0.129c-1.683-1.232-2.688-3.227-2.688-5.336c0-0.121,0.01-0.252,0.02-0.381
			c0.009-0.115,0.018-0.23,0.018-0.336v-0.451l0.415,0.178c1.577,0.674,3.388,0.645,4.818,0.002l0.353-0.16l0.063,0.383
			c0.041,0.25,0.041,0.523,0.041,0.766c0,2.109-1.005,4.104-2.688,5.336L113.801,51.051z M111.547,45.297
			c-0.007,0.098-0.014,0.197-0.014,0.289c0,1.846,0.844,3.594,2.268,4.721c1.425-1.127,2.269-2.875,2.269-4.721
			c0-0.094,0-0.191-0.002-0.289C114.679,45.811,113.041,45.831,111.547,45.297z"/>
	</g>
	<g>
		<path fill-rule="evenodd" clip-rule="evenodd" fill="#14499A" d="M113.801,40.491c-1.359,1.021-2.302,2.605-2.528,4.379
			c0.792,0.34,1.661,0.529,2.528,0.529c0.906,0,1.774-0.189,2.529-0.529C116.142,43.096,115.198,41.512,113.801,40.491
			L113.801,40.491z"/>
		<path fill="#FFFFFF" d="M113.801,45.696c-0.887,0-1.801-0.191-2.646-0.553l-0.207-0.09l0.028-0.223
			c0.232-1.82,1.196-3.49,2.645-4.578l0.176-0.133l0.178,0.131c1.489,1.088,2.455,2.762,2.649,4.588l0.023,0.213l-0.197,0.09
			C115.645,45.504,114.728,45.696,113.801,45.696z M111.601,44.682c1.453,0.561,3.073,0.535,4.406,0.002
			c-0.217-1.502-1.008-2.873-2.204-3.818C112.639,41.811,111.849,43.182,111.601,44.682z"/>
	</g>
	<path fill="#F7913A" d="M178.754,50.159h-7.549c-2.25,0-4.081-1.83-4.081-4.08V38.53c0-2.23,1.831-4.045,4.081-4.045h7.549
		c2.229,0,4.043,1.814,4.043,4.045v7.549C182.798,48.329,180.984,50.159,178.754,50.159z M171.206,35.477
		c-1.703,0-3.089,1.369-3.089,3.053v7.549c0,1.674,1.415,3.088,3.089,3.088h7.549c1.683,0,3.051-1.385,3.051-3.088V38.53
		c0-1.684-1.369-3.053-3.051-3.053H171.206z"/>
	<path fill-rule="evenodd" clip-rule="evenodd" fill="#F7913A" d="M369.309,34.793l8.869,9.662c0.566,0.564,0.566,1.471,0,2.037
		s-1.473,0.566-2.039,0l-7.85-8.455l-7.85,8.455c-0.564,0.566-1.508,0.566-2.076,0c-0.264-0.264-0.416-0.604-0.416-0.98v-0.076
		c0-0.34,0.152-0.717,0.416-0.98l8.869-9.662c0.303-0.301,0.68-0.416,1.057-0.416C368.629,34.377,369.008,34.493,369.309,34.793
		L369.309,34.793z"/>
	<path fill-rule="evenodd" clip-rule="evenodd" fill="#F7913A" d="M400.633,46.493l8.871-9.662c0.564-0.566,0.564-1.473,0-2.037
		c-0.566-0.566-1.473-0.566-2.037,0l-7.854,8.453l-7.85-8.453c-0.564-0.566-1.508-0.566-2.076,0
		c-0.264,0.264-0.412,0.604-0.412,0.982v0.074c0,0.34,0.148,0.717,0.412,0.98l8.908,9.662c0.264,0.303,0.641,0.453,1.018,0.453
		C399.955,46.946,400.332,46.795,400.633,46.493L400.633,46.493z"/>
	<path fill-rule="evenodd" clip-rule="evenodd" fill="#FFFFFF" d="M369.309,6.147l8.869,9.699c0.566,0.566,0.566,1.472,0,2.038
		c-0.566,0.567-1.473,0.567-2.039,0l-7.85-8.454l-7.85,8.454c-0.564,0.567-1.508,0.567-2.076,0c-0.264-0.264-0.416-0.642-0.416-0.98
		v-0.076c0-0.377,0.152-0.718,0.416-0.982l8.869-9.699c0.303-0.264,0.68-0.415,1.057-0.415
		C368.629,5.732,369.008,5.883,369.309,6.147L369.309,6.147z"/>
	<path fill-rule="evenodd" clip-rule="evenodd" fill="#FFFFFF" d="M400.633,17.884l8.871-9.699c0.564-0.529,0.564-1.472,0-2.038
		c-0.566-0.565-1.473-0.565-2.037,0l-7.854,8.492l-7.85-8.492c-0.564-0.565-1.508-0.565-2.076,0
		c-0.264,0.302-0.412,0.642-0.412,0.981v0.075c0,0.377,0.148,0.717,0.412,0.981l8.908,9.699c0.264,0.264,0.641,0.416,1.018,0.416
		C399.955,18.3,400.332,18.148,400.633,17.884L400.633,17.884z"/>
	<path fill-rule="evenodd" clip-rule="evenodd" fill="#FFFFFF" d="M465.209,3.581h-2.49V1.958c0-0.339-0.266-0.603-0.604-0.603
		c-0.039,0-0.039,0.038-0.076,0.038c0,0,0-0.038-0.037-0.038h-5.924c-0.305,0-0.568,0.264-0.568,0.603v1.624h-2.492
		c-0.715,0-1.283,0.527-1.283,1.245v2.076h1.096v11.851c0,0.717,0.566,1.246,1.283,1.246h10c0.719,0,1.248-0.528,1.248-1.246V6.902
		h1.094V4.826C466.455,4.108,465.926,3.581,465.209,3.581L465.209,3.581z M456.643,2.524h4.904v1.057h-4.904V2.524z M464.191,18.752
		c0,0.076,0,0.113-0.078,0.113h-10c-0.076,0-0.113-0.038-0.113-0.113V6.902h10.191V18.752z M465.285,5.77h-12.381V4.826
		c0-0.076,0.039-0.113,0.113-0.113h12.191c0.076,0,0.076,0.037,0.076,0.113V5.77z"/>
	<rect x="461.209" y="8.261" fill-rule="evenodd" clip-rule="evenodd" fill="#FFFFFF" width="1.17" height="9.549"/>
	<rect x="458.527" y="8.261" fill-rule="evenodd" clip-rule="evenodd" fill="#FFFFFF" width="1.17" height="9.549"/>
	<rect x="455.848" y="8.261" fill-rule="evenodd" clip-rule="evenodd" fill="#FFFFFF" width="1.172" height="9.549"/>
	<path fill-rule="evenodd" clip-rule="evenodd" fill="#F7913A" d="M465.209,35.51h-2.49v-1.623c0-0.301-0.266-0.566-0.604-0.566
		c-0.039,0-0.039,0-0.076,0.039c0-0.039,0-0.039-0.037-0.039h-5.924c-0.305,0-0.568,0.266-0.568,0.566v1.623h-2.492
		c-0.715,0-1.283,0.566-1.283,1.283v2.076h1.096v11.813c0,0.717,0.566,1.283,1.283,1.283h10c0.719,0,1.248-0.566,1.248-1.283V38.87
		h1.094v-2.076C466.455,36.077,465.926,35.51,465.209,35.51L465.209,35.51z M456.643,34.493h4.904v1.018h-4.904V34.493z
		 M464.191,50.682c0,0.074,0,0.113-0.078,0.113h-10c-0.076,0-0.113-0.039-0.113-0.113V38.87h10.191V50.682z M465.285,37.7h-12.381
		v-0.906c0-0.076,0.039-0.113,0.113-0.113h12.191c0.076,0,0.076,0.037,0.076,0.113V37.7z"/>
	<rect x="461.209" y="40.229" fill-rule="evenodd" clip-rule="evenodd" fill="#F7913A" width="1.17" height="9.549"/>
	<rect x="458.527" y="40.229" fill-rule="evenodd" clip-rule="evenodd" fill="#F7913A" width="1.17" height="9.549"/>
	<rect x="455.848" y="40.229" fill-rule="evenodd" clip-rule="evenodd" fill="#F7913A" width="1.172" height="9.549"/>
	<path fill-rule="evenodd" clip-rule="evenodd" fill="#FFFFFF" d="M479.852,20.526l5.246-4.717l5.248,4.717
		c0.15,0.151,0.338,0.227,0.564,0.227c0.076,0,0.189,0,0.303-0.038c0.303-0.113,0.49-0.415,0.49-0.754v-9.171l-0.867-0.642
		l-0.754,0.566v7.321l-4.416-3.887c-0.189-0.151-0.379-0.227-0.568-0.227c-0.227,0-0.414,0.076-0.564,0.227l-4.455,3.887V2.222
		h0.039h9.965v4l0.754-2.302l0.867,2.642V1.43c0-0.453-0.338-0.792-0.793-0.792h-11.586c-0.451,0-0.793,0.339-0.793,0.792V19.96
		c0,0.339,0.189,0.604,0.453,0.754C479.324,20.828,479.664,20.753,479.852,20.526L479.852,20.526z"/>
	<path fill="#FFFFFF" d="M488.191,12.465c-0.072,0-0.146-0.022-0.207-0.067c-0.125-0.09-0.178-0.251-0.131-0.397l0.941-2.887
		l-2.471-1.772c-0.125-0.09-0.178-0.25-0.131-0.396s0.184-0.246,0.338-0.246h3.027l0.939-2.889c0.049-0.146,0.184-0.245,0.338-0.245
		l0,0c0.152,0,0.289,0.099,0.336,0.245l0.939,2.888h3.027c0.152,0,0.289,0.099,0.336,0.245c0.049,0.146-0.004,0.306-0.127,0.396
		l-2.436,1.772l0.938,2.889c0.049,0.146-0.004,0.306-0.129,0.396c-0.125,0.09-0.293,0.09-0.418-0.001l-2.467-1.808l-2.434,1.807
		C488.34,12.441,488.266,12.465,488.191,12.465z M490.836,9.793c0.072,0,0.146,0.023,0.209,0.069l1.793,1.313l-0.68-2.089
		c-0.047-0.146,0.004-0.306,0.129-0.396l1.762-1.283h-2.195c-0.154,0-0.291-0.099-0.338-0.245l-0.68-2.097l-0.684,2.097
		c-0.047,0.146-0.184,0.245-0.336,0.245h-2.184l1.785,1.281c0.127,0.09,0.18,0.251,0.131,0.398l-0.676,2.076l1.752-1.3
		C490.688,9.816,490.762,9.793,490.836,9.793z"/>
	<path fill-rule="evenodd" clip-rule="evenodd" fill="#F7913A" d="M479.852,52.495l5.246-4.719l5.248,4.719
		c0.15,0.15,0.338,0.227,0.564,0.227c0.076,0,0.189-0.039,0.303-0.076c0.303-0.113,0.49-0.416,0.49-0.717v-9.209l-0.867-0.605
		l-0.754,0.529v7.359l-4.416-3.924c-0.189-0.152-0.379-0.227-0.568-0.227c-0.227,0-0.414,0.074-0.564,0.227l-4.455,3.924v-15.85
		h0.039h9.965v4.037l0.754-2.34l0.867,2.68v-5.17c0-0.453-0.338-0.795-0.793-0.795h-11.586c-0.451,0-0.793,0.342-0.793,0.795v18.568
		c0,0.301,0.189,0.604,0.453,0.717C479.324,52.758,479.664,52.721,479.852,52.495L479.852,52.495z"/>
	<path fill="#F7913A" d="M488.191,44.395c-0.074,0-0.146-0.021-0.209-0.066c-0.123-0.092-0.176-0.252-0.129-0.396l0.941-2.889
		l-2.471-1.773c-0.125-0.09-0.178-0.25-0.131-0.396s0.184-0.246,0.338-0.246h3.027l0.939-2.887c0.049-0.146,0.184-0.246,0.338-0.246
		l0,0c0.152,0,0.289,0.1,0.336,0.246l0.939,2.887h3.027c0.152,0,0.289,0.1,0.336,0.246c0.049,0.145-0.004,0.305-0.127,0.395
		l-2.436,1.773l0.938,2.891c0.049,0.145-0.004,0.305-0.127,0.395c-0.125,0.092-0.293,0.092-0.416,0.002l-2.471-1.777l-2.436,1.775
		C488.338,44.374,488.264,44.395,488.191,44.395z M490.836,41.758c0.072,0,0.145,0.023,0.207,0.068l1.799,1.295l-0.684-2.105
		c-0.047-0.146,0.004-0.307,0.129-0.396l1.762-1.283h-2.195c-0.154,0-0.291-0.098-0.338-0.244l-0.68-2.098l-0.684,2.098
		c-0.047,0.146-0.184,0.244-0.336,0.244h-2.184l1.787,1.281c0.125,0.09,0.178,0.252,0.129,0.398l-0.682,2.094l1.76-1.283
		C490.689,41.782,490.762,41.758,490.836,41.758z"/>
	<path fill-rule="evenodd" clip-rule="evenodd" fill="#FFFFFF" d="M20.807,11.544H1.333c-0.679,0-1.208-0.528-1.208-1.17
		c0-0.68,0.529-1.207,1.208-1.207h19.474c0.642,0,1.17,0.527,1.17,1.207C21.977,11.016,21.449,11.544,20.807,11.544L20.807,11.544z"
		/>
	<path fill-rule="evenodd" clip-rule="evenodd" fill="#F7913A" d="M20.807,43.512H1.333c-0.679,0-1.208-0.529-1.208-1.209
		c0-0.641,0.529-1.207,1.208-1.207h19.474c0.642,0,1.17,0.566,1.17,1.207C21.977,42.983,21.449,43.512,20.807,43.512L20.807,43.512z
		"/>
	<path fill-rule="evenodd" clip-rule="evenodd" fill="#FFFFFF" d="M525.52,13.129h-19.549c-0.492,0-0.871-0.415-0.871-0.906
		c0-0.491,0.379-0.906,0.871-0.906h19.549c0.49,0,0.867,0.415,0.867,0.906C526.387,12.714,526.01,13.129,525.52,13.129
		L525.52,13.129z"/>
	<path fill="#FFFFFF" d="M505.742,19.394v-4.416h1.018v4.416H505.742z M507.705,19.394v-4.416h0.945l2.037,2.944v-2.944h0.906v4.416
		h-0.982l-2-2.906v2.906H507.705z M512.65,14.979h1.813c0.377,0,0.715,0,0.906,0.076c0.299,0.075,0.564,0.226,0.754,0.415
		c0.188,0.188,0.377,0.415,0.451,0.717c0.115,0.264,0.189,0.603,0.189,1.019c0,0.378-0.074,0.679-0.152,0.943
		c-0.15,0.34-0.301,0.604-0.527,0.793c-0.188,0.151-0.416,0.264-0.715,0.34c-0.191,0.075-0.492,0.113-0.871,0.113h-1.848V14.979z
		 M513.631,15.696v2.944h0.754c0.266,0,0.455,0,0.566-0.038c0.188-0.038,0.303-0.113,0.418-0.188
		c0.111-0.076,0.188-0.227,0.264-0.415c0.074-0.227,0.113-0.491,0.113-0.831s-0.039-0.604-0.113-0.792
		c-0.076-0.151-0.152-0.302-0.303-0.416c-0.113-0.113-0.266-0.15-0.453-0.188c-0.115-0.038-0.379-0.075-0.791-0.075H513.631z
		 M517.596,19.394v-4.416h3.621v0.717h-2.641v0.981h2.453v0.754h-2.453v1.208h2.756v0.754H517.596z M521.67,19.394l1.699-2.302
		l-1.547-2.114h1.17l0.941,1.321l0.982-1.321h1.17l-1.547,2.114l1.697,2.302h-1.207l-1.096-1.51l-1.055,1.51H521.67z"/>
	<path fill-rule="evenodd" clip-rule="evenodd" fill="#FFFFFF" d="M525.52,4.034h-19.549c-0.492,0-0.871-0.377-0.871-0.906
		c0-0.491,0.379-0.868,0.871-0.868h19.549c0.49,0,0.867,0.377,0.867,0.868C526.387,3.657,526.01,4.034,525.52,4.034L525.52,4.034z"
		/>
	<path fill-rule="evenodd" clip-rule="evenodd" fill="#FFFFFF" d="M525.52,8.6h-19.549c-0.492,0-0.871-0.415-0.871-0.905
		c0-0.491,0.379-0.906,0.871-0.906h19.549c0.49,0,0.867,0.415,0.867,0.906C526.387,8.185,526.01,8.6,525.52,8.6L525.52,8.6z"/>
	<path fill-rule="evenodd" clip-rule="evenodd" fill="#F7913A" d="M525.52,44.606h-19.549c-0.492,0-0.871-0.377-0.871-0.869
		c0-0.527,0.379-0.904,0.871-0.904h19.549c0.49,0,0.867,0.377,0.867,0.904C526.387,44.229,526.01,44.606,525.52,44.606
		L525.52,44.606z"/>
	<g>
		<path fill="#F7913A" d="M504.635,51.303V46.86h0.898v4.443H504.635z"/>
		<path fill="#F7913A" d="M506.74,51.303V46.86h0.873l1.822,2.967V46.86h0.834v4.443h-0.9l-1.795-2.898v2.898H506.74z"/>
		<path fill="#F7913A" d="M511.906,46.86h1.643c0.369,0,0.652,0.029,0.846,0.086c0.262,0.076,0.484,0.213,0.672,0.408
			c0.186,0.195,0.328,0.436,0.424,0.721c0.098,0.283,0.146,0.633,0.146,1.049c0,0.365-0.045,0.682-0.137,0.945
			c-0.111,0.324-0.27,0.586-0.477,0.785c-0.156,0.152-0.365,0.27-0.631,0.355c-0.199,0.063-0.463,0.094-0.795,0.094h-1.691V46.86z
			 M512.805,47.612v2.943h0.672c0.25,0,0.432-0.016,0.543-0.043c0.145-0.037,0.266-0.098,0.361-0.186
			c0.098-0.086,0.176-0.23,0.236-0.428c0.061-0.199,0.09-0.471,0.09-0.814s-0.029-0.607-0.09-0.791s-0.146-0.328-0.256-0.43
			c-0.109-0.104-0.248-0.174-0.416-0.209c-0.125-0.029-0.371-0.043-0.736-0.043H512.805z"/>
		<path fill="#F7913A" d="M517.088,51.303V46.86h3.299v0.752h-2.4v0.984h2.234v0.748h-2.234v1.211h2.486v0.748H517.088z"/>
		<path fill="#F7913A" d="M520.781,51.303l1.521-2.318l-1.379-2.125h1.051l0.893,1.428l0.873-1.428h1.041l-1.383,2.158l1.52,2.285
			h-1.084l-0.986-1.537l-0.988,1.537H520.781z"/>
	</g>
	<path fill-rule="evenodd" clip-rule="evenodd" fill="#F7913A" d="M525.52,35.549h-19.549c-0.492,0-0.871-0.416-0.871-0.906
		s0.379-0.906,0.871-0.906h19.549c0.49,0,0.867,0.416,0.867,0.906S526.01,35.549,525.52,35.549L525.52,35.549z"/>
	<path fill-rule="evenodd" clip-rule="evenodd" fill="#F7913A" d="M525.52,40.077h-19.549c-0.492,0-0.871-0.416-0.871-0.906
		c0-0.488,0.379-0.906,0.871-0.906h19.549c0.49,0,0.867,0.418,0.867,0.906C526.387,39.661,526.01,40.077,525.52,40.077
		L525.52,40.077z"/>
	<path fill="#FFFFFF" d="M534.012,19.394v-6.793h1.547v6.793H534.012z M536.992,19.394v-6.793h1.473l3.131,4.529v-4.529h1.396v6.793
		h-1.508l-3.057-4.491v4.491H536.992z M544.617,12.601h2.791c0.643,0,1.096,0.038,1.436,0.113c0.453,0.113,0.83,0.339,1.131,0.642
		c0.342,0.301,0.568,0.641,0.719,1.094c0.188,0.416,0.264,0.943,0.264,1.584c0,0.566-0.076,1.058-0.225,1.472
		c-0.189,0.491-0.455,0.869-0.832,1.17c-0.264,0.264-0.604,0.416-1.057,0.566c-0.34,0.076-0.793,0.151-1.359,0.151h-2.867V12.601z
		 M546.164,13.733v4.491h1.131c0.418,0,0.719,0,0.906-0.038c0.266-0.076,0.455-0.151,0.604-0.302
		c0.189-0.15,0.303-0.339,0.416-0.642c0.113-0.302,0.152-0.717,0.152-1.245s-0.039-0.943-0.152-1.208
		c-0.113-0.303-0.266-0.528-0.416-0.68c-0.188-0.151-0.414-0.265-0.715-0.302c-0.227-0.038-0.643-0.076-1.246-0.076H546.164z
		 M552.24,19.394v-6.793h5.623v1.132h-4.074v1.51h3.773v1.132h-3.773v1.849h4.188v1.17H552.24z M558.543,19.394l2.605-3.548
		l-2.379-3.245h1.773l1.512,2l1.471-2h1.773l-2.34,3.245l2.605,3.548h-1.85l-1.66-2.302l-1.701,2.302H558.543z"/>
	<path fill-rule="evenodd" clip-rule="evenodd" fill="#FFFFFF" d="M565.186,10.412h-31.326c-0.264,0-0.49-0.226-0.49-0.528
		c0-0.265,0.227-0.528,0.49-0.528h31.326c0.264,0,0.49,0.263,0.49,0.528C565.676,10.186,565.449,10.412,565.186,10.412
		L565.186,10.412z"/>
	<path fill-rule="evenodd" clip-rule="evenodd" fill="#FFFFFF" d="M565.186,3.278h-31.326c-0.264,0-0.49-0.226-0.49-0.49
		c0-0.302,0.227-0.528,0.49-0.528h31.326c0.264,0,0.49,0.227,0.49,0.528C565.676,3.052,565.449,3.278,565.186,3.278L565.186,3.278z"
		/>
	<path fill-rule="evenodd" clip-rule="evenodd" fill="#FFFFFF" d="M565.186,6.864h-31.326c-0.264,0-0.49-0.226-0.49-0.528
		c0-0.302,0.227-0.528,0.49-0.528h31.326c0.264,0,0.49,0.226,0.49,0.528C565.676,6.638,565.449,6.864,565.186,6.864L565.186,6.864z"
		/>
	<path fill="#F7913A" d="M534.012,50.87v-6.791h1.547v6.791H534.012z M536.992,50.87v-6.791h1.473l3.131,4.566v-4.566h1.396v6.791
		h-1.508l-3.057-4.451v4.451H536.992z M544.617,44.079h2.791c0.643,0,1.096,0.037,1.436,0.113c0.453,0.15,0.83,0.338,1.131,0.641
		c0.342,0.301,0.568,0.68,0.719,1.094c0.188,0.453,0.264,0.982,0.264,1.623c0,0.566-0.076,1.02-0.225,1.436
		c-0.189,0.488-0.455,0.906-0.832,1.207c-0.264,0.225-0.604,0.414-1.057,0.527c-0.34,0.113-0.793,0.15-1.359,0.15h-2.867V44.079z
		 M546.164,45.209v4.529h1.131c0.418,0,0.719-0.037,0.906-0.076c0.266-0.037,0.455-0.152,0.604-0.301
		c0.189-0.113,0.303-0.34,0.416-0.643c0.113-0.301,0.152-0.717,0.152-1.246c0-0.527-0.039-0.906-0.152-1.207
		c-0.113-0.264-0.266-0.49-0.416-0.641c-0.188-0.15-0.414-0.266-0.715-0.342c-0.227-0.037-0.643-0.074-1.246-0.074H546.164z
		 M552.24,50.87v-6.791h5.623v1.131h-4.074v1.51h3.773v1.17h-3.773v1.85h4.188v1.131H552.24z M558.543,50.87l2.605-3.545
		l-2.379-3.246h1.773l1.512,2.037l1.471-2.037h1.773l-2.34,3.246l2.605,3.545h-1.85l-1.66-2.301l-1.701,2.301H558.543z"/>
	<path fill-rule="evenodd" clip-rule="evenodd" fill="#F7913A" d="M565.186,41.926h-31.326c-0.264,0-0.49-0.264-0.49-0.529
		c0-0.301,0.227-0.527,0.49-0.527h31.326c0.264,0,0.49,0.227,0.49,0.527C565.676,41.663,565.449,41.926,565.186,41.926
		L565.186,41.926z"/>
	<path fill-rule="evenodd" clip-rule="evenodd" fill="#F7913A" d="M565.186,34.793h-31.326c-0.264,0-0.49-0.227-0.49-0.527
		c0-0.303,0.227-0.529,0.49-0.529h31.326c0.264,0,0.49,0.227,0.49,0.529C565.676,34.567,565.449,34.793,565.186,34.793
		L565.186,34.793z"/>
	<path fill-rule="evenodd" clip-rule="evenodd" fill="#F7913A" d="M565.186,38.342h-31.326c-0.264,0-0.49-0.229-0.49-0.529
		c0-0.266,0.227-0.529,0.49-0.529h31.326c0.264,0,0.49,0.264,0.49,0.529C565.676,38.114,565.449,38.342,565.186,38.342
		L565.186,38.342z"/>
	<path fill-rule="evenodd" clip-rule="evenodd" fill="#FFFFFF" d="M620.477,15.356c0,0.528-0.453,0.981-0.982,0.981
		c-0.527,0-0.98-0.453-0.98-0.981s0.453-0.981,0.98-0.981C620.023,14.375,620.477,14.828,620.477,15.356L620.477,15.356z
		 M622.59,8.751c0,1.435-0.98,2.643-2.303,3.02v1.245c0,0.453-0.377,0.793-0.793,0.793s-0.793-0.34-0.793-0.793v-1.925
		c0-0.452,0.377-0.792,0.793-0.792c0.869,0,1.549-0.717,1.549-1.547c0-0.868-0.68-1.584-1.549-1.584
		c-0.867,0-1.547,0.717-1.547,1.584c0,0.416-0.377,0.755-0.793,0.755c-0.414,0-0.791-0.339-0.791-0.755
		c0-1.736,1.396-3.132,3.131-3.132C621.193,5.619,622.59,7.015,622.59,8.751L622.59,8.751z M619.494,18.979
		c-4.643,0-8.414-3.736-8.414-8.378c0-4.68,3.771-8.416,8.414-8.416s8.416,3.736,8.416,8.416
		C627.91,15.243,624.137,18.979,619.494,18.979L619.494,18.979z M619.494,0.599c-5.508,0-9.965,4.492-9.965,10.002
		c0,5.51,4.457,9.964,9.965,9.964c5.512,0,9.965-4.454,9.965-9.964C629.459,5.09,625.006,0.599,619.494,0.599L619.494,0.599z"/>
	<g>
		<path fill-rule="evenodd" clip-rule="evenodd" fill="#FFFFFF" d="M599.379,16.375c-1.623-1.396-3.096-3.321-3.096-8.228
			c0-2.264-1.471-4.189-3.51-4.869V2.373c0-0.642-0.564-1.17-1.207-1.17h-0.83c-0.643,0-1.172,0.528-1.172,1.17v0.905
			c-2.037,0.68-3.545,2.604-3.545,4.869c0,4.907-1.473,6.832-3.057,8.228c-0.455,0.377-0.719,0.943-0.719,1.547
			c0,0.302,0.264,0.566,0.604,0.566h5.512c0.264,1.284,1.434,2.265,2.791,2.265c1.396,0,2.529-0.981,2.793-2.265h5.547
			c0.303,0,0.568-0.264,0.568-0.566C600.059,17.318,599.793,16.752,599.379,16.375L599.379,16.375z M591.15,19.583
			c-0.715,0-1.32-0.452-1.586-1.094h3.172C592.508,19.13,591.867,19.583,591.15,19.583L591.15,19.583z M583.641,17.318
			c0.037,0,0.037-0.038,0.076-0.076c2.453-2.113,3.473-4.831,3.473-9.096c0-2.151,1.773-3.962,3.961-3.962
			c2.189,0,3.963,1.812,3.963,3.962c0,4.265,1.057,6.982,3.473,9.096c0.039,0.038,0.076,0.076,0.076,0.076H583.641z"/>
		<path fill="#FFFFFF" d="M591.15,20.852c-1.367,0-2.563-0.947-2.871-2.265h-5.432c-0.389,0-0.703-0.298-0.703-0.665
			c0-0.635,0.275-1.227,0.754-1.624c1.568-1.382,3.021-3.328,3.021-8.152c0-2.224,1.422-4.2,3.545-4.939V2.373
			c0-0.7,0.57-1.269,1.271-1.269h0.83c0.707,0,1.307,0.581,1.307,1.269v0.834c2.102,0.732,3.51,2.708,3.51,4.939
			c0,4.851,1.471,6.785,3.061,8.153c0.447,0.408,0.715,1.014,0.715,1.623c0,0.354-0.313,0.665-0.668,0.665h-5.467
			C593.713,19.905,592.518,20.852,591.15,20.852z M590.736,1.302c-0.592,0-1.072,0.48-1.072,1.071V3.35l-0.068,0.023
			c-2.08,0.694-3.477,2.612-3.477,4.774c0,4.902-1.486,6.887-3.092,8.302c-0.436,0.362-0.684,0.898-0.684,1.473
			c0,0.257,0.225,0.467,0.504,0.467h5.592l0.018,0.079c0.26,1.266,1.393,2.186,2.693,2.186s2.436-0.919,2.695-2.186l0.016-0.079
			h5.629c0.25,0,0.469-0.218,0.469-0.467c0-0.554-0.242-1.105-0.646-1.474c-1.625-1.397-3.129-3.371-3.129-8.301
			c0-2.169-1.383-4.088-3.441-4.774l-0.068-0.023V2.373c0-0.581-0.508-1.071-1.107-1.071H590.736z M591.15,19.682
			c-0.729,0-1.389-0.454-1.678-1.155l-0.057-0.137h3.461l-0.047,0.132C592.586,19.205,591.896,19.682,591.15,19.682z
			 M589.719,18.587c0.285,0.549,0.832,0.896,1.432,0.896c0.613,0,1.186-0.362,1.438-0.896H589.719z M598.898,17.417h-15.258v-0.198
			c-0.021,0-0.039,0.012-0.047,0.021c0.016-0.023,0.029-0.046,0.053-0.069c2.414-2.081,3.443-4.778,3.443-9.025
			c0-2.24,1.82-4.062,4.061-4.062s4.063,1.822,4.063,4.062c0,4.215,1.027,6.913,3.438,9.021L598.898,17.417z M583.895,17.219h14.516
			c-2.379-2.132-3.396-4.857-3.396-9.072c0-2.13-1.732-3.863-3.863-3.863c-2.129,0-3.861,1.733-3.861,3.863
			C587.289,12.391,586.271,15.115,583.895,17.219z"/>
	</g>
	<path fill-rule="evenodd" clip-rule="evenodd" fill="#F7913A" d="M620.477,47.096c0,0.529-0.453,0.943-0.982,0.943
		c-0.527,0-0.98-0.414-0.98-0.943c0-0.566,0.453-0.98,0.98-0.98C620.023,46.116,620.477,46.53,620.477,47.096L620.477,47.096z
		 M622.59,40.454c0,1.436-0.98,2.682-2.303,3.02v1.283c0,0.416-0.377,0.756-0.793,0.756s-0.793-0.34-0.793-0.756v-1.961
		c0-0.416,0.377-0.793,0.793-0.793c0.869,0,1.549-0.68,1.549-1.549s-0.68-1.547-1.549-1.547c-0.867,0-1.547,0.678-1.547,1.547
		c0,0.416-0.377,0.795-0.793,0.795c-0.414,0-0.791-0.379-0.791-0.795c0-1.697,1.396-3.094,3.131-3.094
		C621.193,37.36,622.59,38.756,622.59,40.454L622.59,40.454z M619.494,50.719c-4.643,0-8.414-3.773-8.414-8.416
		s3.771-8.416,8.414-8.416s8.416,3.773,8.416,8.416S624.137,50.719,619.494,50.719L619.494,50.719z M619.494,32.34
		c-5.508,0-9.965,4.453-9.965,9.963s4.457,9.963,9.965,9.963c5.512,0,9.965-4.453,9.965-9.963S625.006,32.34,619.494,32.34
		L619.494,32.34z"/>
	<g>
		<path fill-rule="evenodd" clip-rule="evenodd" fill="#F7913A" d="M599.379,47.702c-1.623-1.398-3.096-3.322-3.096-8.229
			c0-2.264-1.471-4.189-3.51-4.869v-0.906c0-0.641-0.564-1.17-1.207-1.17h-0.83c-0.643,0-1.172,0.529-1.172,1.17v0.906
			c-2.037,0.68-3.545,2.605-3.545,4.869c0,4.906-1.473,6.83-3.057,8.229c-0.455,0.377-0.719,0.943-0.719,1.547
			c0,0.301,0.264,0.566,0.604,0.566h5.512c0.264,1.283,1.434,2.264,2.791,2.264c1.396,0,2.529-0.98,2.793-2.264h5.547
			c0.303,0,0.568-0.266,0.568-0.566C600.059,48.645,599.793,48.079,599.379,47.702L599.379,47.702z M591.15,50.909
			c-0.715,0-1.32-0.453-1.586-1.094h3.172C592.508,50.456,591.867,50.909,591.15,50.909L591.15,50.909z M583.641,48.645
			c0.037,0,0.037-0.037,0.076-0.076c2.453-2.076,3.473-4.832,3.473-9.096c0-2.15,1.773-3.924,3.961-3.924
			c2.189,0,3.963,1.773,3.963,3.924c0,4.264,1.057,6.982,3.473,9.096c0.039,0.039,0.076,0.076,0.076,0.076H583.641z"/>
		<path fill="#F7913A" d="M591.15,52.178c-1.367,0-2.563-0.947-2.871-2.264h-5.432c-0.389,0-0.703-0.299-0.703-0.666
			c0-0.635,0.275-1.227,0.754-1.623c1.461-1.289,3.021-3.092,3.021-8.152c0-2.225,1.422-4.201,3.545-4.941v-0.834
			c0-0.701,0.57-1.27,1.271-1.27h0.83c0.707,0,1.307,0.582,1.307,1.27v0.834c2.102,0.732,3.51,2.709,3.51,4.941
			c0,4.848,1.471,6.783,3.061,8.152c0.447,0.408,0.715,1.014,0.715,1.623c0,0.354-0.313,0.666-0.668,0.666h-5.467
			C593.713,51.231,592.518,52.178,591.15,52.178z M590.736,32.627c-0.592,0-1.072,0.479-1.072,1.07v0.977l-0.068,0.023
			c-2.08,0.693-3.477,2.613-3.477,4.775c0,4.898-1.486,6.885-3.092,8.303c-0.436,0.361-0.684,0.896-0.684,1.473
			c0,0.252,0.23,0.467,0.504,0.467h5.592l0.018,0.08c0.26,1.266,1.393,2.184,2.693,2.184s2.436-0.918,2.695-2.184l0.016-0.08h5.629
			c0.244,0,0.469-0.223,0.469-0.467c0-0.555-0.242-1.105-0.646-1.475c-1.625-1.398-3.129-3.373-3.129-8.301
			c0-2.17-1.383-4.09-3.441-4.775l-0.068-0.023v-0.977c0-0.58-0.508-1.07-1.107-1.07H590.736z M591.15,51.008
			c-0.729,0-1.387-0.455-1.678-1.156l-0.057-0.137h3.461l-0.047,0.133C592.586,50.53,591.895,51.008,591.15,51.008z M589.719,49.915
			c0.285,0.547,0.832,0.895,1.432,0.895c0.613,0,1.184-0.361,1.438-0.895H589.719z M598.9,48.745h-15.26v-0.199
			c-0.021,0-0.039,0.012-0.047,0.021c0.016-0.023,0.029-0.045,0.053-0.068c2.416-2.045,3.443-4.742,3.443-9.025
			c0-2.219,1.82-4.023,4.061-4.023s4.063,1.805,4.063,4.023c0,4.215,1.027,6.912,3.438,9.021L598.9,48.745z M583.895,48.545h14.516
			c-2.379-2.131-3.396-4.855-3.396-9.072c0-2.109-1.732-3.824-3.863-3.824c-2.129,0-3.861,1.715-3.861,3.824
			C587.289,43.752,586.271,46.477,583.895,48.545z"/>
	</g>
	<path fill-rule="evenodd" clip-rule="evenodd" fill="#FFFFFF" d="M643.611,20.526l5.246-4.717l5.209,4.717
		c0.189,0.151,0.377,0.227,0.566,0.227c0.111,0,0.188,0,0.301-0.038c0.303-0.113,0.492-0.415,0.492-0.754V3.09
		c0.035-1.358-0.492-2.453-1.813-2.453h-12.984h0.152h-0.039c-0.113,0-0.227,0-0.34,0l0,0c-1.885,0-3.055,1.509-3.055,3.396v4.642
		h4.906V19.96c0,0.339,0.188,0.604,0.49,0.754C643.047,20.828,643.385,20.753,643.611,20.526L643.611,20.526z M643.271,2.222
		L643.271,2.222h1.283h0.074h8.078c1.059,0.038,1.133,0.453,1.133,1.321v14.492l-4.455-3.887c-0.148-0.151-0.34-0.227-0.564-0.227
		c-0.227,0-0.416,0.076-0.566,0.227l-4.453,3.887V8.676V8.072V4.034c0-0.68-0.189-1.283-0.49-1.812H643.271z M638.742,3.92v3.51
		h3.473V3.92C642.215,1.392,638.742,1.731,638.742,3.92L638.742,3.92z"/>
	<path fill-rule="evenodd" clip-rule="evenodd" fill="#FFFFFF" d="M646.254,4.524h5.17c0.453,0,0.83,0.377,0.83,0.83l0,0
		c0,0.416-0.377,0.792-0.83,0.792h-5.17c-0.453,0-0.793-0.377-0.793-0.792l0,0C645.461,4.902,645.801,4.524,646.254,4.524
		L646.254,4.524z"/>
	<path fill-rule="evenodd" clip-rule="evenodd" fill="#FFFFFF" d="M646.254,7.619h5.17c0.453,0,0.83,0.377,0.83,0.792l0,0
		c0,0.453-0.377,0.83-0.83,0.83h-5.17c-0.453,0-0.793-0.377-0.793-0.83l0,0C645.461,7.997,645.801,7.619,646.254,7.619
		L646.254,7.619z"/>
	<path fill-rule="evenodd" clip-rule="evenodd" fill="#FFFFFF" d="M646.254,10.714h5.17c0.453,0,0.83,0.339,0.83,0.792l0,0
		c0,0.453-0.377,0.792-0.83,0.792h-5.17c-0.453,0-0.793-0.339-0.793-0.792l0,0C645.461,11.053,645.801,10.714,646.254,10.714
		L646.254,10.714z"/>
	<path fill-rule="evenodd" clip-rule="evenodd" fill="#F7913A" d="M643.611,50.909l5.246-4.719l5.209,4.719
		c0.189,0.152,0.377,0.227,0.566,0.227c0.111,0,0.188-0.037,0.301-0.074c0.303-0.115,0.492-0.379,0.492-0.719V33.471
		c0.035-1.396-0.492-2.49-1.813-2.49h-12.984l0.152,0.037h-0.039c-0.113-0.037-0.227-0.037-0.34-0.037l0,0
		c-1.885,0-3.055,1.547-3.055,3.436v4.643h4.906v11.283c0,0.34,0.188,0.604,0.49,0.719
		C643.047,51.174,643.385,51.135,643.611,50.909L643.611,50.909z M643.271,32.604L643.271,32.604h1.283h0.074l8.078-0.039
		c1.059,0.076,1.133,0.492,1.133,1.359v14.494l-4.455-3.889c-0.148-0.188-0.34-0.264-0.564-0.264c-0.227,0-0.416,0.076-0.566,0.264
		l-4.453,3.889v-9.359v-0.605v-4.037c0-0.68-0.189-1.283-0.49-1.813H643.271z M638.742,34.303v3.51h3.473v-3.51
		C642.215,31.774,638.742,32.075,638.742,34.303L638.742,34.303z"/>
	<path fill-rule="evenodd" clip-rule="evenodd" fill="#F7913A" d="M646.254,34.907h5.17c0.453,0,0.83,0.377,0.83,0.793l0,0
		c0,0.453-0.377,0.83-0.83,0.83h-5.17c-0.453,0-0.793-0.377-0.793-0.83l0,0C645.461,35.284,645.801,34.907,646.254,34.907
		L646.254,34.907z"/>
	<path fill-rule="evenodd" clip-rule="evenodd" fill="#F7913A" d="M646.254,38h5.17c0.453,0,0.83,0.342,0.83,0.793l0,0
		c0,0.453-0.377,0.791-0.83,0.791h-5.17c-0.453,0-0.793-0.338-0.793-0.791l0,0C645.461,38.342,645.801,38,646.254,38L646.254,38z"/>
	<path fill-rule="evenodd" clip-rule="evenodd" fill="#F7913A" d="M646.254,41.096h5.17c0.453,0,0.83,0.34,0.83,0.793l0,0
		c0,0.451-0.377,0.793-0.83,0.793h-5.17c-0.453,0-0.793-0.342-0.793-0.793l0,0C645.461,41.436,645.801,41.096,646.254,41.096
		L646.254,41.096z"/>
</g>
</svg>
