<svg width="117" height="89" viewBox="0 0 117 89" fill="none" xmlns="http://www.w3.org/2000/svg">
<rect width="117" height="89" rx="11" fill="url(#paint0_linear_4423_138)"/>
<path opacity="0.5" fill-rule="evenodd" clip-rule="evenodd" d="M42.4322 54.1482C34.5106 41.0428 33.6312 25.668 38.7169 12.4998C52.7401 14.1175 65.9444 22.0424 73.866 35.1478C81.7876 48.2531 82.667 63.6279 77.5813 76.7962C63.5581 75.1784 50.3538 67.2535 42.4322 54.1482Z" fill="url(#paint1_linear_4423_138)"/>
<path d="M58.9814 33.8401L70.4615 41.2201L58.9814 48.6002V33.8401Z" stroke="white" stroke-width="2" stroke-linecap="round" stroke-linejoin="round"/>
<path d="M51.667 58.1668V28.5556L79.0004 24V53.6112" stroke="white" stroke-width="2" stroke-linecap="round" stroke-linejoin="round"/>
<path d="M44.8334 64.9999C48.6073 64.9999 51.6667 61.9405 51.6667 58.1665C51.6667 54.3926 48.6073 51.3332 44.8334 51.3332C41.0594 51.3332 38 54.3926 38 58.1665C38 61.9405 41.0594 64.9999 44.8334 64.9999Z" stroke="white" stroke-width="2" stroke-linecap="round" stroke-linejoin="round"/>
<path d="M72.1664 60.4444C75.9403 60.4444 78.9997 57.385 78.9997 53.6111C78.9997 49.8371 75.9403 46.7777 72.1664 46.7777C68.3924 46.7777 65.333 49.8371 65.333 53.6111C65.333 57.385 68.3924 60.4444 72.1664 60.4444Z" stroke="white" stroke-width="2" stroke-linecap="round" stroke-linejoin="round"/>
<defs>
<linearGradient id="paint0_linear_4423_138" x1="90" y1="2.06977" x2="23.1017" y2="27.2607" gradientUnits="userSpaceOnUse">
<stop stop-color="#FFDB5E"/>
<stop offset="1" stop-color="#FFC52F"/>
</linearGradient>
<linearGradient id="paint1_linear_4423_138" x1="40.247" y1="15.0312" x2="76.0512" y2="74.2648" gradientUnits="userSpaceOnUse">
<stop stop-color="#FFCB12"/>
<stop offset="1" stop-color="#FF003D" stop-opacity="0.03"/>
</linearGradient>
</defs>
</svg>
