<svg width="50" height="51" viewBox="0 0 50 51" fill="none" xmlns="http://www.w3.org/2000/svg">
<circle cx="25" cy="25.9375" r="24.5" fill="#FFF7E4" stroke="#FFE8B4"/>
<path fill-rule="evenodd" clip-rule="evenodd" d="M18.9522 14.9268V20.288H14.7271V14.9268C14.7271 13.76 15.6729 12.8142 16.8396 12.8142C18.0064 12.8142 18.9522 13.76 18.9522 14.9268ZM19.2096 21.5362V39.6836C19.2096 40.2448 19.8926 40.5209 20.2826 40.1174L26.9679 33.2C27.4586 32.6922 28.2724 32.6922 28.7631 33.2L35.4484 40.1174C35.8384 40.5209 36.5213 40.2448 36.5213 39.6836V14.0625C36.5213 12.6837 35.4036 11.5659 34.0247 11.5659H18.6859H16.8396H16.6157L16.6247 11.5727C14.8687 11.6835 13.4788 13.1428 13.4788 14.9268V20.288V21.5362H14.7271H18.9522H19.2096ZM20.4579 14.5169C20.4579 13.9076 20.2864 13.3194 19.9741 12.8142H34.0247C34.7142 12.8142 35.273 13.3731 35.273 14.0625V38.1397L29.6607 32.3325C28.6793 31.317 27.0517 31.317 26.0703 32.3325L20.4579 38.1397V21.3472V14.5169Z" fill="#F7913A"/>
<path d="M23.6711 19.3994H32.437" stroke="#F7913A" stroke-width="1.56036" stroke-linecap="round"/>
<path d="M23.6711 23.6758H32.437" stroke="#F7913A" stroke-width="1.56036" stroke-linecap="round"/>
<path d="M23.6711 27.9536H32.437" stroke="#F7913A" stroke-width="1.56036" stroke-linecap="round"/>
</svg>
