<svg width="15" height="15" viewBox="0 0 15 15" fill="none" xmlns="http://www.w3.org/2000/svg">
<circle cx="7.5" cy="7.5" r="7.2" stroke="white" stroke-width="0.6"/>
<path d="M7.56475 8.22388L4.39406 11.3946C4.30753 11.4811 4.19876 11.5254 4.06775 11.5274C3.93675 11.5294 3.82598 11.4851 3.73544 11.3946C3.64489 11.304 3.59961 11.1942 3.59961 11.0652C3.59961 10.9362 3.64489 10.8265 3.73544 10.7359L6.90611 7.56524L3.73544 4.39455C3.6489 4.30802 3.60462 4.19925 3.60262 4.06824C3.60061 3.93724 3.64489 3.82647 3.73544 3.73593C3.82598 3.64537 3.93575 3.6001 4.06475 3.6001C4.19375 3.6001 4.30352 3.64537 4.39406 3.73593L7.56475 6.9066L10.7354 3.73593C10.822 3.64938 10.9307 3.60511 11.0617 3.60311C11.1927 3.6011 11.3035 3.64537 11.3941 3.73593C11.4846 3.82647 11.5299 3.93624 11.5299 4.06524C11.5299 4.19424 11.4846 4.30401 11.3941 4.39455L8.22339 7.56524L11.3941 10.7359C11.4806 10.8225 11.5249 10.9312 11.5269 11.0622C11.5289 11.1932 11.4846 11.304 11.3941 11.3946C11.3035 11.4851 11.1937 11.5304 11.0647 11.5304C10.9357 11.5304 10.826 11.4851 10.7354 11.3946L7.56475 8.22388Z" fill="white"/>
</svg>
