<?xml version="1.0" encoding="UTF-8"?>
<svg id="Layer_1" data-name="Layer 1" xmlns="http://www.w3.org/2000/svg" xmlns:xlink="http://www.w3.org/1999/xlink" viewBox="0 0 361 60">
  <defs>
    <linearGradient id="linear-gradient" x1="8.11" y1="38.43" x2="38.09" y2="31.97" gradientTransform="translate(0 62) scale(1 -1)" gradientUnits="userSpaceOnUse">
      <stop offset="0" stop-color="#ffdb5e"/>
      <stop offset="1" stop-color="#ffc52f"/>
    </linearGradient>
    <linearGradient id="linear-gradient-2" x1="32.67" y1="34.68" x2="19.76" y2="24.17" gradientTransform="translate(0 62) scale(1 -1)" gradientUnits="userSpaceOnUse">
      <stop offset="0" stop-color="#8ef2ce"/>
      <stop offset="1" stop-color="#ffc52f"/>
    </linearGradient>
    <linearGradient id="linear-gradient-3" x1="43.54" y1="34.68" x2="56.46" y2="24.17" gradientTransform="translate(0 62) scale(1 -1)" gradientUnits="userSpaceOnUse">
      <stop offset="0" stop-color="#ce61ea"/>
      <stop offset="1" stop-color="#ffc52f"/>
    </linearGradient>
  </defs>
  <g>
    <path d="M25.67,30c0-10.86,4.82-20.51,12.3-26.64,7.47,6.13,12.3,15.78,12.3,26.64s-4.82,20.51-12.3,26.64c-7.47-6.13-12.3-15.78-12.3-26.64Z" fill="url(#linear-gradient)" fill-rule="evenodd"/>
    <path d="M13.63,40.51c-5.55-9.19-6.17-19.97-2.61-29.2,9.83,1.13,19.09,6.69,24.65,15.88,5.55,9.19,6.17,19.97,2.61,29.2-9.83-1.13-19.09-6.69-24.65-15.88Z" fill="url(#linear-gradient-2)" fill-opacity=".6" fill-rule="evenodd"/>
    <path d="M62.59,40.51c5.55-9.19,6.17-19.97,2.61-29.2-9.83,1.13-19.09,6.69-24.65,15.88-5.55,9.19-6.17,19.97-2.6,29.2,9.83-1.13,19.09-6.69,24.65-15.88Z" fill="url(#linear-gradient-3)" fill-opacity=".6" fill-rule="evenodd"/>
  </g>
  <g>
    <g>
      <path d="M88.96,12.07c-.04-.43-.22-.76-.55-1-.32-.24-.76-.36-1.32-.36-.38,0-.69,.05-.95,.16-.26,.1-.46,.25-.6,.43-.13,.18-.2,.39-.2,.63,0,.2,.03,.37,.12,.51,.09,.15,.22,.27,.38,.38,.16,.1,.34,.19,.55,.27,.21,.07,.43,.14,.67,.19l.98,.23c.48,.11,.91,.25,1.31,.43,.4,.18,.74,.4,1.03,.66,.29,.26,.52,.56,.68,.92,.16,.35,.25,.75,.25,1.21,0,.67-.17,1.25-.51,1.74-.33,.49-.82,.86-1.45,1.13-.63,.27-1.39,.4-2.28,.4s-1.65-.13-2.3-.4c-.65-.27-1.16-.67-1.52-1.2-.36-.53-.55-1.19-.57-1.98h2.23c.02,.37,.13,.67,.31,.92,.19,.24,.44,.42,.75,.55,.32,.12,.67,.18,1.07,.18s.73-.06,1.02-.17c.29-.11,.52-.27,.68-.47,.16-.2,.24-.43,.24-.7,0-.25-.07-.45-.22-.62-.14-.17-.35-.31-.63-.43-.27-.12-.61-.22-1.01-.32l-1.19-.3c-.92-.22-1.65-.57-2.18-1.05-.53-.48-.8-1.12-.79-1.92,0-.66,.17-1.24,.53-1.73,.36-.49,.85-.88,1.48-1.16,.62-.28,1.33-.42,2.13-.42s1.52,.14,2.12,.42c.61,.28,1.08,.66,1.42,1.16,.34,.49,.51,1.07,.52,1.72h-2.21Z" fill="#3d1e1c"/>
      <path d="M94.44,19.84l-2.23-8.18h2.3l1.27,5.5h.07l1.32-5.5h2.25l1.34,5.47h.07l1.25-5.47h2.29l-2.22,8.18h-2.4l-1.41-5.15h-.1l-1.41,5.15h-2.4Z" fill="#3d1e1c"/>
      <path d="M107.92,19.99c-.52,0-.99-.09-1.39-.27-.41-.18-.73-.46-.97-.81-.23-.36-.35-.81-.35-1.35,0-.45,.08-.84,.25-1.15,.17-.31,.39-.56,.68-.75s.61-.33,.98-.43c.37-.1,.76-.16,1.16-.2,.48-.05,.86-.1,1.15-.14,.29-.05,.5-.11,.63-.2,.13-.09,.2-.22,.2-.39v-.03c0-.34-.11-.6-.32-.78-.21-.18-.51-.28-.9-.28-.41,0-.73,.09-.97,.27-.24,.18-.4,.4-.48,.67l-2.1-.17c.11-.5,.32-.93,.63-1.29,.31-.37,.72-.65,1.21-.84,.5-.2,1.07-.3,1.73-.3,.46,0,.89,.05,1.31,.16,.42,.11,.79,.27,1.11,.5,.33,.22,.58,.51,.77,.86,.19,.35,.28,.77,.28,1.25v5.52h-2.15v-1.13h-.06c-.13,.26-.31,.48-.53,.68-.22,.19-.49,.34-.79,.45-.31,.11-.67,.16-1.07,.16Zm.65-1.57c.33,0,.63-.07,.89-.2,.25-.13,.46-.32,.6-.54,.15-.23,.22-.48,.22-.77v-.87c-.07,.05-.17,.09-.29,.13-.12,.04-.26,.07-.41,.1-.15,.03-.31,.06-.46,.08-.15,.02-.29,.04-.42,.06-.27,.04-.5,.1-.7,.19-.2,.09-.35,.2-.46,.35-.11,.14-.17,.32-.17,.53,0,.31,.11,.55,.33,.71,.23,.16,.51,.24,.86,.24Z" fill="#3d1e1c"/>
      <path d="M114.29,19.84V11.66h2.16v1.44h.1c.17-.48,.46-.86,.85-1.13,.4-.28,.87-.42,1.43-.42s1.04,.14,1.43,.42c.39,.28,.66,.65,.79,1.13h.09c.17-.47,.47-.84,.91-1.12,.44-.28,.96-.43,1.56-.43,.76,0,1.38,.24,1.86,.73,.48,.48,.72,1.17,.72,2.06v5.5h-2.26v-5.06c0-.45-.12-.8-.36-1.02-.24-.23-.54-.34-.91-.34-.41,0-.73,.13-.96,.39-.23,.26-.35,.6-.35,1.03v5h-2.2v-5.1c0-.4-.12-.72-.35-.96-.23-.24-.53-.36-.9-.36-.25,0-.48,.06-.68,.19-.2,.12-.36,.3-.47,.53-.12,.22-.18,.49-.18,.79v4.91h-2.27Z" fill="#3d1e1c"/>
      <path d="M127.97,19.84V11.66h2.27v8.18h-2.27Zm1.14-9.24c-.34,0-.63-.11-.87-.34-.24-.23-.36-.5-.36-.82s.12-.58,.36-.8c.24-.23,.53-.34,.87-.34s.62,.11,.86,.34c.24,.22,.36,.49,.36,.8s-.12,.59-.36,.82c-.24,.22-.53,.34-.86,.34Z" fill="#3d1e1c"/>
    </g>
    <g>
      <path d="M82.69,46.87V29.7h6.77c1.3,0,2.4,.23,3.32,.7,.92,.46,1.62,1.11,2.1,1.95,.49,.84,.73,1.82,.73,2.96s-.25,2.12-.74,2.94c-.49,.82-1.2,1.44-2.14,1.88-.93,.44-2.05,.65-3.37,.65h-4.53v-2.92h3.95c.69,0,1.27-.09,1.73-.28,.46-.19,.8-.47,1.02-.85,.23-.38,.34-.85,.34-1.42s-.11-1.05-.34-1.44c-.22-.39-.57-.69-1.03-.89-.46-.21-1.04-.31-1.73-.31h-2.45v14.2h-3.63Zm9.27-7.81l4.27,7.81h-4.01l-4.17-7.81h3.91Z" fill="#3d1e1c"/>
      <path d="M101.78,47.11c-.82,0-1.55-.14-2.2-.43-.64-.29-1.15-.72-1.53-1.28-.37-.57-.55-1.28-.55-2.13,0-.72,.13-1.32,.39-1.8,.26-.49,.62-.88,1.07-1.17,.45-.3,.97-.52,1.54-.67,.58-.15,1.19-.26,1.83-.32,.75-.08,1.35-.15,1.81-.22,.46-.07,.79-.18,1-.32,.21-.14,.31-.35,.31-.62v-.05c0-.53-.17-.94-.5-1.23-.33-.29-.8-.44-1.41-.44-.64,0-1.15,.14-1.53,.43-.38,.28-.63,.63-.75,1.06l-3.3-.27c.17-.78,.5-1.46,.99-2.03,.49-.58,1.13-1.02,1.9-1.32,.78-.31,1.69-.47,2.72-.47,.72,0,1.4,.08,2.05,.25,.66,.17,1.24,.43,1.75,.78,.51,.35,.92,.8,1.22,1.36,.3,.55,.44,1.2,.44,1.97v8.68h-3.39v-1.79h-.1c-.21,.4-.48,.76-.83,1.06-.35,.3-.76,.54-1.25,.71-.49,.17-1.05,.25-1.68,.25Zm1.02-2.46c.53,0,.99-.1,1.39-.31,.4-.21,.72-.5,.95-.85s.34-.76,.34-1.22v-1.37c-.11,.07-.27,.14-.46,.2-.19,.06-.41,.11-.65,.16-.24,.04-.48,.09-.72,.13-.24,.03-.46,.06-.65,.09-.42,.06-.79,.16-1.1,.29-.31,.13-.56,.32-.73,.54-.17,.22-.26,.5-.26,.84,0,.49,.18,.86,.53,1.11,.36,.25,.81,.38,1.36,.38Z" fill="#3d1e1c"/>
      <path d="M111.8,46.87v-12.87h3.4v2.27h.15c.27-.75,.71-1.35,1.34-1.79,.63-.44,1.37-.65,2.25-.65s1.64,.22,2.25,.66c.62,.44,1.03,1.03,1.24,1.78h.13c.26-.74,.74-1.33,1.43-1.77,.69-.45,1.51-.67,2.46-.67,1.2,0,2.18,.38,2.92,1.15,.75,.76,1.13,1.84,1.13,3.24v8.66h-3.56v-7.95c0-.72-.19-1.25-.57-1.61s-.86-.54-1.42-.54c-.65,0-1.15,.21-1.52,.62-.36,.41-.54,.95-.54,1.62v7.86h-3.46v-8.03c0-.63-.18-1.13-.54-1.51-.36-.37-.83-.56-1.42-.56-.4,0-.75,.1-1.07,.3-.31,.2-.56,.47-.75,.83-.18,.35-.28,.77-.28,1.24v7.73h-3.57Z" fill="#3d1e1c"/>
      <path d="M144.04,37.66l-3.27,.2c-.06-.28-.18-.53-.36-.75-.18-.23-.43-.41-.73-.54-.3-.14-.65-.21-1.06-.21-.55,0-1.02,.12-1.4,.35-.38,.23-.57,.54-.57,.92,0,.31,.12,.57,.37,.78,.25,.21,.67,.38,1.27,.51l2.33,.47c1.25,.26,2.18,.67,2.8,1.24,.61,.57,.92,1.32,.92,2.25,0,.84-.25,1.58-.75,2.22-.49,.64-1.17,1.13-2.03,1.49-.85,.35-1.84,.53-2.96,.53-1.7,0-3.06-.35-4.07-1.06-1.01-.72-1.6-1.69-1.77-2.92l3.51-.18c.11,.52,.36,.92,.77,1.19,.41,.27,.93,.4,1.57,.4s1.13-.12,1.51-.36c.39-.25,.58-.56,.59-.95,0-.32-.14-.59-.41-.8-.27-.21-.68-.37-1.24-.49l-2.23-.44c-1.26-.25-2.19-.69-2.81-1.31-.61-.62-.91-1.41-.91-2.37,0-.83,.22-1.54,.67-2.14,.45-.6,1.09-1.06,1.9-1.38,.82-.32,1.78-.49,2.88-.49,1.63,0,2.91,.34,3.84,1.03,.94,.69,1.49,1.62,1.64,2.81Z" fill="#3d1e1c"/>
      <path d="M154.84,41.39v-7.39h3.57v12.87h-3.43v-2.34h-.13c-.29,.75-.77,1.36-1.45,1.82-.67,.46-1.49,.69-2.46,.69-.86,0-1.62-.2-2.27-.59-.65-.39-1.16-.95-1.53-1.67-.36-.72-.55-1.58-.55-2.59v-8.2h3.57v7.56c0,.76,.21,1.36,.61,1.8,.4,.44,.94,.66,1.62,.66,.43,0,.83-.1,1.21-.29,.37-.2,.68-.5,.91-.89,.24-.39,.35-.87,.34-1.45Z" fill="#3d1e1c"/>
      <path d="M164.5,43.16v-4.28h.53l4.12-4.89h4.1l-5.54,6.47h-.85l-2.36,2.7Zm-3.24,3.7V29.7h3.57v17.17h-3.57Zm8.05,0l-3.79-5.61,2.38-2.52,5.59,8.13h-4.18Z" fill="#3d1e1c"/>
      <path d="M178.57,39.42v7.44h-3.57V29.7h3.47v6.56h.15c.29-.76,.76-1.36,1.41-1.79,.65-.44,1.46-.65,2.44-.65,.89,0,1.67,.2,2.34,.59,.67,.39,1.19,.94,1.56,1.67,.37,.72,.56,1.58,.55,2.59v8.2h-3.57v-7.56c0-.79-.2-1.41-.6-1.85-.4-.44-.97-.66-1.69-.66-.49,0-.92,.1-1.29,.31-.37,.21-.66,.51-.87,.91-.21,.39-.31,.86-.32,1.42Z" fill="#3d1e1c"/>
      <path d="M194.47,47.08c-.98,0-1.86-.25-2.66-.75-.79-.51-1.41-1.25-1.88-2.24-.46-.99-.69-2.2-.69-3.64s.24-2.7,.71-3.68c.47-.98,1.11-1.72,1.89-2.2,.79-.49,1.66-.74,2.61-.74,.72,0,1.32,.12,1.8,.37,.49,.24,.88,.54,1.17,.91,.3,.36,.53,.71,.69,1.06h.11v-6.45h3.56v17.17h-3.52v-2.06h-.15c-.17,.36-.41,.71-.71,1.06-.3,.35-.69,.63-1.18,.86-.48,.23-1.07,.34-1.76,.34Zm1.13-2.84c.57,0,1.06-.16,1.46-.47,.4-.32,.71-.76,.92-1.33,.22-.57,.33-1.24,.33-2s-.11-1.43-.32-1.99c-.21-.56-.52-1-.92-1.31-.4-.31-.89-.46-1.47-.46s-1.08,.16-1.48,.48c-.4,.32-.71,.76-.91,1.32-.21,.56-.31,1.22-.31,1.96s.1,1.41,.31,1.99c.21,.57,.52,1.02,.91,1.34,.4,.32,.9,.48,1.48,.48Z" fill="#3d1e1c"/>
      <path d="M208.4,47.11c-.82,0-1.55-.14-2.2-.43-.64-.29-1.15-.72-1.52-1.28-.37-.57-.55-1.28-.55-2.13,0-.72,.13-1.32,.39-1.8s.62-.88,1.07-1.17c.45-.3,.97-.52,1.54-.67,.58-.15,1.19-.26,1.83-.32,.75-.08,1.35-.15,1.81-.22,.46-.07,.79-.18,1-.32,.21-.14,.31-.35,.31-.62v-.05c0-.53-.17-.94-.5-1.23-.33-.29-.8-.44-1.41-.44-.64,0-1.15,.14-1.53,.43-.38,.28-.63,.63-.75,1.06l-3.3-.27c.17-.78,.5-1.46,.99-2.03,.49-.58,1.13-1.02,1.9-1.32,.78-.31,1.69-.47,2.72-.47,.72,0,1.4,.08,2.05,.25,.66,.17,1.24,.43,1.75,.78,.51,.35,.92,.8,1.22,1.36,.3,.55,.44,1.2,.44,1.97v8.68h-3.39v-1.79h-.1c-.21,.4-.48,.76-.83,1.06-.35,.3-.76,.54-1.25,.71-.49,.17-1.05,.25-1.69,.25Zm1.02-2.46c.52,0,.99-.1,1.39-.31,.4-.21,.72-.5,.95-.85,.23-.36,.34-.76,.34-1.22v-1.37c-.11,.07-.27,.14-.46,.2-.19,.06-.41,.11-.64,.16-.24,.04-.48,.09-.72,.13-.24,.03-.46,.06-.65,.09-.42,.06-.79,.16-1.1,.29-.31,.13-.56,.32-.73,.54-.17,.22-.26,.5-.26,.84,0,.49,.18,.86,.53,1.11,.36,.25,.81,.38,1.36,.38Z" fill="#3d1e1c"/>
      <path d="M229.14,37.66l-3.27,.2c-.06-.28-.18-.53-.36-.75-.19-.23-.43-.41-.73-.54-.3-.14-.65-.21-1.06-.21-.55,0-1.02,.12-1.4,.35-.38,.23-.57,.54-.57,.92,0,.31,.12,.57,.37,.78,.25,.21,.67,.38,1.27,.51l2.33,.47c1.25,.26,2.18,.67,2.8,1.24,.61,.57,.92,1.32,.92,2.25,0,.84-.25,1.58-.75,2.22-.49,.64-1.17,1.13-2.03,1.49-.86,.35-1.84,.53-2.96,.53-1.7,0-3.06-.35-4.07-1.06-1.01-.72-1.59-1.69-1.77-2.92l3.51-.18c.11,.52,.36,.92,.77,1.19,.41,.27,.93,.4,1.57,.4s1.13-.12,1.51-.36c.39-.25,.58-.56,.59-.95,0-.32-.14-.59-.41-.8-.27-.21-.68-.37-1.24-.49l-2.23-.44c-1.26-.25-2.19-.69-2.81-1.31-.61-.62-.91-1.41-.91-2.37,0-.83,.22-1.54,.67-2.14,.45-.6,1.09-1.06,1.9-1.38,.82-.32,1.78-.49,2.88-.49,1.63,0,2.9,.34,3.84,1.03,.94,.69,1.49,1.62,1.64,2.81Z" fill="#3d1e1c"/>
      <path d="M244.08,29.7h3.59v11.97c0,1.11-.25,2.07-.75,2.88-.49,.82-1.18,1.44-2.05,1.89-.88,.44-1.9,.66-3.06,.66-1.03,0-1.97-.18-2.82-.54-.84-.37-1.5-.93-1.99-1.68-.49-.75-.73-1.7-.73-2.84h3.61c.01,.45,.1,.84,.28,1.17,.18,.32,.42,.56,.73,.74,.31,.17,.68,.25,1.11,.25,.45,0,.82-.09,1.13-.28,.31-.2,.55-.48,.71-.85,.16-.37,.24-.84,.24-1.38v-11.97Z" fill="#3d1e1c"/>
      <path d="M250.6,46.87v-12.87h3.57v12.87h-3.57Zm1.79-14.53c-.53,0-.99-.18-1.37-.53-.37-.36-.56-.79-.56-1.28s.19-.91,.56-1.27c.38-.36,.84-.54,1.37-.54s.98,.18,1.36,.54c.38,.35,.57,.77,.57,1.27s-.19,.92-.57,1.28c-.37,.35-.83,.53-1.36,.53Z" fill="#3d1e1c"/>
      <path d="M262.56,29.7h4.47l4.73,11.53h.2l4.73-11.53h4.47v17.17h-3.52v-11.17h-.14l-4.44,11.09h-2.4l-4.44-11.13h-.14v11.21h-3.52V29.7Z" fill="#3d1e1c"/>
      <path d="M287.76,47.11c-.82,0-1.55-.14-2.2-.43-.64-.29-1.15-.72-1.53-1.28-.37-.57-.55-1.28-.55-2.13,0-.72,.13-1.32,.39-1.8,.26-.49,.62-.88,1.07-1.17,.45-.3,.97-.52,1.54-.67,.58-.15,1.19-.26,1.83-.32,.75-.08,1.35-.15,1.81-.22,.46-.07,.79-.18,1-.32,.21-.14,.31-.35,.31-.62v-.05c0-.53-.17-.94-.5-1.23-.33-.29-.8-.44-1.41-.44-.64,0-1.15,.14-1.53,.43-.38,.28-.63,.63-.75,1.06l-3.3-.27c.17-.78,.5-1.46,.99-2.03,.49-.58,1.13-1.02,1.9-1.32,.78-.31,1.69-.47,2.72-.47,.72,0,1.4,.08,2.05,.25,.66,.17,1.24,.43,1.75,.78,.51,.35,.92,.8,1.22,1.36,.3,.55,.44,1.2,.44,1.97v8.68h-3.39v-1.79h-.1c-.21,.4-.48,.76-.83,1.06-.35,.3-.76,.54-1.25,.71-.49,.17-1.05,.25-1.68,.25Zm1.02-2.46c.52,0,.99-.1,1.39-.31,.4-.21,.72-.5,.95-.85,.23-.36,.34-.76,.34-1.22v-1.37c-.11,.07-.27,.14-.46,.2-.19,.06-.4,.11-.65,.16-.24,.04-.48,.09-.72,.13-.24,.03-.46,.06-.65,.09-.42,.06-.78,.16-1.1,.29-.31,.13-.56,.32-.73,.54-.17,.22-.26,.5-.26,.84,0,.49,.18,.86,.53,1.11,.36,.25,.81,.38,1.36,.38Z" fill="#3d1e1c"/>
      <path d="M301.35,39.42v7.44h-3.57V29.7h3.47v6.56h.15c.29-.76,.76-1.36,1.41-1.79,.65-.44,1.46-.65,2.44-.65,.89,0,1.67,.2,2.34,.59,.67,.39,1.19,.94,1.56,1.67,.37,.72,.56,1.58,.55,2.59v8.2h-3.57v-7.56c0-.79-.2-1.41-.6-1.85-.4-.44-.97-.66-1.69-.66-.49,0-.92,.1-1.29,.31-.37,.21-.66,.51-.87,.91-.21,.39-.31,.86-.32,1.42Z" fill="#3d1e1c"/>
      <path d="M316.18,47.11c-.82,0-1.55-.14-2.2-.43-.64-.29-1.15-.72-1.53-1.28-.37-.57-.55-1.28-.55-2.13,0-.72,.13-1.32,.39-1.8,.26-.49,.62-.88,1.07-1.17,.45-.3,.97-.52,1.54-.67,.58-.15,1.19-.26,1.83-.32,.75-.08,1.35-.15,1.81-.22,.46-.07,.79-.18,1-.32,.21-.14,.31-.35,.31-.62v-.05c0-.53-.17-.94-.5-1.23-.33-.29-.8-.44-1.41-.44-.64,0-1.15,.14-1.53,.43-.38,.28-.63,.63-.75,1.06l-3.3-.27c.17-.78,.5-1.46,.99-2.03,.49-.58,1.13-1.02,1.9-1.32,.78-.31,1.69-.47,2.72-.47,.71,0,1.4,.08,2.05,.25,.66,.17,1.24,.43,1.75,.78,.51,.35,.92,.8,1.22,1.36,.3,.55,.44,1.2,.44,1.97v8.68h-3.39v-1.79h-.1c-.21,.4-.48,.76-.83,1.06-.35,.3-.76,.54-1.25,.71-.49,.17-1.05,.25-1.68,.25Zm1.02-2.46c.52,0,.99-.1,1.39-.31,.4-.21,.72-.5,.95-.85,.23-.36,.34-.76,.34-1.22v-1.37c-.11,.07-.27,.14-.46,.2-.19,.06-.4,.11-.64,.16-.24,.04-.48,.09-.72,.13-.24,.03-.46,.06-.65,.09-.42,.06-.79,.16-1.1,.29-.31,.13-.56,.32-.73,.54-.17,.22-.26,.5-.26,.84,0,.49,.18,.86,.53,1.11,.36,.25,.81,.38,1.36,.38Z" fill="#3d1e1c"/>
      <path d="M326.2,46.87v-12.87h3.46v2.25h.13c.23-.8,.63-1.4,1.18-1.81,.55-.41,1.19-.62,1.91-.62,.18,0,.37,.01,.58,.03,.21,.02,.39,.05,.54,.09v3.17c-.17-.05-.4-.1-.7-.13-.3-.04-.57-.06-.81-.06-.52,0-.99,.11-1.41,.34-.41,.22-.73,.54-.97,.94-.24,.4-.35,.87-.35,1.39v7.28h-3.57Z" fill="#3d1e1c"/>
      <path d="M339.16,47.11c-.82,0-1.55-.14-2.2-.43-.64-.29-1.15-.72-1.52-1.28-.37-.57-.55-1.28-.55-2.13,0-.72,.13-1.32,.39-1.8,.26-.49,.62-.88,1.07-1.17,.45-.3,.97-.52,1.54-.67,.58-.15,1.19-.26,1.83-.32,.75-.08,1.35-.15,1.81-.22,.46-.07,.79-.18,1-.32,.21-.14,.31-.35,.31-.62v-.05c0-.53-.17-.94-.5-1.23-.33-.29-.8-.44-1.41-.44-.64,0-1.15,.14-1.53,.43-.38,.28-.63,.63-.75,1.06l-3.3-.27c.17-.78,.5-1.46,.99-2.03,.49-.58,1.13-1.02,1.9-1.32,.78-.31,1.69-.47,2.72-.47,.72,0,1.4,.08,2.05,.25,.66,.17,1.24,.43,1.75,.78,.51,.35,.92,.8,1.22,1.36,.3,.55,.44,1.2,.44,1.97v8.68h-3.39v-1.79h-.1c-.21,.4-.48,.76-.83,1.06-.35,.3-.76,.54-1.25,.71-.49,.17-1.05,.25-1.69,.25Zm1.02-2.46c.52,0,.99-.1,1.39-.31,.4-.21,.72-.5,.95-.85,.23-.36,.34-.76,.34-1.22v-1.37c-.11,.07-.27,.14-.46,.2-.19,.06-.4,.11-.64,.16-.24,.04-.48,.09-.72,.13-.24,.03-.46,.06-.65,.09-.42,.06-.79,.16-1.1,.29-.31,.13-.56,.32-.73,.54-.17,.22-.26,.5-.26,.84,0,.49,.18,.86,.53,1.11,.36,.25,.81,.38,1.36,.38Z" fill="#3d1e1c"/>
      <path d="M349.18,33.99h3.57v13.51c0,.99-.2,1.8-.59,2.41-.39,.61-.95,1.06-1.68,1.35-.73,.29-1.6,.43-2.61,.43-.12,0-.24,0-.35,0-.12,0-.24,0-.37,0v-2.79c.1,0,.18,0,.25,0,.07,0,.14,0,.22,0,.57,0,.98-.12,1.21-.37,.24-.24,.35-.6,.35-1.09v-13.45Zm1.78-1.66c-.52,0-.98-.18-1.36-.53-.38-.36-.57-.79-.57-1.28s.19-.91,.57-1.27c.38-.36,.83-.54,1.36-.54s.99,.18,1.37,.54c.38,.35,.57,.77,.57,1.27s-.19,.92-.57,1.28c-.37,.35-.83,.53-1.37,.53Z" fill="#3d1e1c"/>
    </g>
  </g>
</svg>