<svg width="206" height="58" viewBox="0 0 206 58" fill="none" xmlns="http://www.w3.org/2000/svg">
<rect width="205.683" height="57.3793" rx="10" fill="#232222"/>
<path d="M64.8359 19.6812C64.3197 19.9181 63.7547 20.1255 63.1411 20.3032C62.5317 20.4767 61.9414 20.5635 61.3701 20.5635C60.6338 20.5635 59.9588 20.4619 59.3452 20.2588C58.7316 20.0557 58.209 19.751 57.7773 19.3447C57.3415 18.9342 57.005 18.4222 56.7681 17.8086C56.5311 17.1908 56.4126 16.4692 56.4126 15.644C56.4126 14.1333 56.8527 12.9421 57.7329 12.0703C58.6174 11.1943 59.8298 10.7563 61.3701 10.7563C61.9076 10.7563 62.4556 10.8219 63.0142 10.9531C63.577 11.0801 64.1821 11.298 64.8296 11.6069V13.0986H64.7153C64.5841 12.9971 64.3937 12.8638 64.144 12.6987C63.8944 12.5337 63.6489 12.3962 63.4077 12.2861C63.1157 12.1549 62.7835 12.047 62.4111 11.9624C62.043 11.8735 61.624 11.8291 61.1543 11.8291C60.0964 11.8291 59.2585 12.1698 58.6406 12.8511C58.027 13.5282 57.7202 14.4465 57.7202 15.606C57.7202 16.8289 58.0418 17.7811 58.6851 18.4624C59.3283 19.1395 60.2043 19.478 61.313 19.478C61.7192 19.478 62.1234 19.4378 62.5254 19.3574C62.9316 19.277 63.2871 19.1733 63.5918 19.0464V16.7295H61.0591V15.625H64.8359V19.6812ZM72.8721 16.958H67.6479C67.6479 17.3939 67.7135 17.7747 67.8447 18.1006C67.9759 18.4222 68.1558 18.6867 68.3843 18.894C68.6043 19.0972 68.8646 19.2495 69.165 19.3511C69.4697 19.4526 69.804 19.5034 70.168 19.5034C70.6504 19.5034 71.1349 19.4082 71.6216 19.2178C72.1125 19.0231 72.4616 18.8327 72.6689 18.6465H72.7324V19.9478C72.3304 20.117 71.9199 20.2588 71.501 20.373C71.082 20.4873 70.6419 20.5444 70.1807 20.5444C69.0042 20.5444 68.0859 20.2271 67.4258 19.5923C66.7656 18.9533 66.4355 18.0477 66.4355 16.8755C66.4355 15.716 66.7508 14.7956 67.3813 14.1143C68.0161 13.4329 68.8498 13.0923 69.8823 13.0923C70.8387 13.0923 71.575 13.3716 72.0913 13.9302C72.6118 14.4888 72.8721 15.2822 72.8721 16.3105V16.958ZM71.7104 16.0439C71.7062 15.4176 71.5475 14.9331 71.2344 14.5903C70.9255 14.2476 70.4536 14.0762 69.8188 14.0762C69.1799 14.0762 68.6699 14.2645 68.2891 14.6411C67.9124 15.0177 67.6987 15.4854 67.6479 16.0439H71.7104ZM78.3628 20.3159C78.1385 20.3752 77.8931 20.4238 77.6265 20.4619C77.3641 20.5 77.1292 20.519 76.9219 20.519C76.1982 20.519 75.6481 20.3244 75.2715 19.9351C74.8949 19.5457 74.7065 18.9215 74.7065 18.0625V14.292H73.9004V13.2891H74.7065V11.2515H75.8999V13.2891H78.3628V14.292H75.8999V17.5229C75.8999 17.8953 75.9084 18.1873 75.9253 18.3989C75.9422 18.6063 76.0015 18.8009 76.103 18.9829C76.1961 19.1522 76.3231 19.277 76.4839 19.3574C76.6489 19.4336 76.8986 19.4717 77.2329 19.4717C77.4276 19.4717 77.6307 19.4442 77.8423 19.3892C78.0539 19.3299 78.2062 19.2812 78.2993 19.2432H78.3628V20.3159ZM85.6626 12.1021H84.3169V10.8643H85.6626V12.1021ZM85.5864 20.3794H84.3931V13.2891H85.5864V20.3794ZM91.6294 20.3159C91.4051 20.3752 91.1597 20.4238 90.8931 20.4619C90.6307 20.5 90.3958 20.519 90.1885 20.519C89.4648 20.519 88.9147 20.3244 88.5381 19.9351C88.1615 19.5457 87.9731 18.9215 87.9731 18.0625V14.292H87.167V13.2891H87.9731V11.2515H89.1665V13.2891H91.6294V14.292H89.1665V17.5229C89.1665 17.8953 89.175 18.1873 89.1919 18.3989C89.2088 18.6063 89.2681 18.8009 89.3696 18.9829C89.4627 19.1522 89.5897 19.277 89.7505 19.3574C89.9155 19.4336 90.1652 19.4717 90.4995 19.4717C90.6942 19.4717 90.8973 19.4442 91.1089 19.3892C91.3205 19.3299 91.4728 19.2812 91.5659 19.2432H91.6294V20.3159ZM103.69 16.8374C103.69 17.9927 103.394 18.9046 102.801 19.5732C102.209 20.2419 101.415 20.5762 100.421 20.5762C99.418 20.5762 98.6203 20.2419 98.0278 19.5732C97.4396 18.9046 97.1455 17.9927 97.1455 16.8374C97.1455 15.6821 97.4396 14.7702 98.0278 14.1016C98.6203 13.4287 99.418 13.0923 100.421 13.0923C101.415 13.0923 102.209 13.4287 102.801 14.1016C103.394 14.7702 103.69 15.6821 103.69 16.8374ZM102.458 16.8374C102.458 15.9191 102.279 15.2378 101.919 14.7935C101.559 14.3449 101.06 14.1206 100.421 14.1206C99.7734 14.1206 99.2699 14.3449 98.9102 14.7935C98.5547 15.2378 98.377 15.9191 98.377 16.8374C98.377 17.7261 98.5568 18.401 98.9165 18.8623C99.2762 19.3193 99.7777 19.5479 100.421 19.5479C101.056 19.5479 101.553 19.3215 101.913 18.8687C102.277 18.4116 102.458 17.7345 102.458 16.8374ZM111.472 20.3794H110.279V16.3423C110.279 16.0164 110.26 15.7118 110.222 15.4282C110.184 15.1405 110.114 14.9162 110.012 14.7554C109.906 14.5776 109.754 14.4465 109.555 14.3618C109.356 14.2729 109.098 14.2285 108.781 14.2285C108.455 14.2285 108.114 14.3089 107.759 14.4697C107.403 14.6305 107.063 14.8358 106.737 15.0854V20.3794H105.543V13.2891H106.737V14.0762C107.109 13.7673 107.494 13.526 107.892 13.3525C108.29 13.179 108.698 13.0923 109.117 13.0923C109.883 13.0923 110.467 13.3229 110.869 13.7842C111.271 14.2454 111.472 14.9098 111.472 15.7773V20.3794Z" fill="white"/>
<path d="M66.7646 40.3052C65.9704 40.6698 65.1012 40.9888 64.1572 41.2622C63.2197 41.5291 62.3115 41.6626 61.4326 41.6626C60.2998 41.6626 59.2614 41.5063 58.3174 41.1938C57.3734 40.8813 56.5693 40.4126 55.9053 39.7876C55.2347 39.1561 54.7171 38.3683 54.3525 37.4243C53.988 36.4738 53.8057 35.3638 53.8057 34.0942C53.8057 31.77 54.4827 29.9373 55.8369 28.5962C57.1976 27.2485 59.0628 26.5747 61.4326 26.5747C62.2594 26.5747 63.1025 26.6756 63.9619 26.8774C64.8278 27.0728 65.7588 27.408 66.7549 27.8833V30.1782H66.5791C66.3773 30.022 66.0843 29.8169 65.7002 29.563C65.3161 29.3091 64.9385 29.0975 64.5674 28.9282C64.1182 28.7264 63.6071 28.5604 63.0342 28.4302C62.4678 28.2935 61.8232 28.2251 61.1006 28.2251C59.473 28.2251 58.1839 28.7492 57.2334 29.7974C56.2894 30.839 55.8174 32.2518 55.8174 34.0356C55.8174 35.9172 56.3122 37.382 57.3018 38.4302C58.2913 39.4718 59.639 39.9927 61.3447 39.9927C61.9697 39.9927 62.5915 39.9308 63.21 39.8071C63.835 39.6834 64.3818 39.5239 64.8506 39.3286V35.7642H60.9541V34.0649H66.7646V40.3052ZM79.2939 35.9302C79.2939 37.7075 78.8382 39.1105 77.9268 40.1392C77.0153 41.1678 75.7946 41.6821 74.2646 41.6821C72.7217 41.6821 71.4945 41.1678 70.583 40.1392C69.6781 39.1105 69.2256 37.7075 69.2256 35.9302C69.2256 34.1528 69.6781 32.7498 70.583 31.7212C71.4945 30.686 72.7217 30.1685 74.2646 30.1685C75.7946 30.1685 77.0153 30.686 77.9268 31.7212C78.8382 32.7498 79.2939 34.1528 79.2939 35.9302ZM77.3994 35.9302C77.3994 34.5174 77.1227 33.4692 76.5693 32.7856C76.016 32.0955 75.2477 31.7505 74.2646 31.7505C73.2686 31.7505 72.4938 32.0955 71.9404 32.7856C71.3936 33.4692 71.1201 34.5174 71.1201 35.9302C71.1201 37.2974 71.3968 38.3358 71.9502 39.0454C72.5036 39.7485 73.2751 40.1001 74.2646 40.1001C75.2412 40.1001 76.0062 39.7518 76.5596 39.0552C77.1195 38.3521 77.3994 37.3104 77.3994 35.9302ZM91.4424 35.9302C91.4424 37.7075 90.9867 39.1105 90.0752 40.1392C89.1637 41.1678 87.943 41.6821 86.4131 41.6821C84.8701 41.6821 83.6429 41.1678 82.7314 40.1392C81.8265 39.1105 81.374 37.7075 81.374 35.9302C81.374 34.1528 81.8265 32.7498 82.7314 31.7212C83.6429 30.686 84.8701 30.1685 86.4131 30.1685C87.943 30.1685 89.1637 30.686 90.0752 31.7212C90.9867 32.7498 91.4424 34.1528 91.4424 35.9302ZM89.5479 35.9302C89.5479 34.5174 89.2712 33.4692 88.7178 32.7856C88.1644 32.0955 87.3962 31.7505 86.4131 31.7505C85.417 31.7505 84.6423 32.0955 84.0889 32.7856C83.542 33.4692 83.2686 34.5174 83.2686 35.9302C83.2686 37.2974 83.5452 38.3358 84.0986 39.0454C84.652 39.7485 85.4235 40.1001 86.4131 40.1001C87.3896 40.1001 88.1546 39.7518 88.708 39.0552C89.2679 38.3521 89.5479 37.3104 89.5479 35.9302ZM103.142 40.1392C103.142 41.9881 102.722 43.3455 101.882 44.2114C101.042 45.0773 99.7497 45.5103 98.0049 45.5103C97.4255 45.5103 96.859 45.4679 96.3057 45.3833C95.7588 45.3052 95.2184 45.1912 94.6846 45.0415V43.1665H94.7822C95.0817 43.2837 95.557 43.4269 96.208 43.5962C96.859 43.772 97.5101 43.8599 98.1611 43.8599C98.7861 43.8599 99.3037 43.785 99.7139 43.6353C100.124 43.4855 100.443 43.2772 100.671 43.0103C100.899 42.7563 101.062 42.4504 101.159 42.0923C101.257 41.7342 101.306 41.3338 101.306 40.8911V39.895C100.752 40.3377 100.222 40.6698 99.7139 40.8911C99.2126 41.106 98.5713 41.2134 97.79 41.2134C96.488 41.2134 95.4528 40.7446 94.6846 39.8071C93.9229 38.8631 93.542 37.535 93.542 35.8228C93.542 34.8853 93.6722 34.078 93.9326 33.4009C94.1995 32.7173 94.5609 32.1281 95.0166 31.6333C95.4398 31.1711 95.9541 30.813 96.5596 30.5591C97.165 30.2987 97.7673 30.1685 98.3662 30.1685C98.9977 30.1685 99.5251 30.2336 99.9482 30.3638C100.378 30.4875 100.83 30.6795 101.306 30.9399L101.423 30.4712H103.142V40.1392ZM101.306 38.3813V32.4341C100.817 32.2127 100.362 32.0565 99.9385 31.9653C99.5218 31.8677 99.1051 31.8188 98.6885 31.8188C97.6794 31.8188 96.8851 32.1574 96.3057 32.8345C95.7262 33.5116 95.4365 34.4946 95.4365 35.7837C95.4365 37.0076 95.6514 37.9354 96.0811 38.5669C96.5107 39.1984 97.2236 39.5142 98.2197 39.5142C98.7536 39.5142 99.2874 39.4132 99.8213 39.2114C100.362 39.0031 100.856 38.7264 101.306 38.3813ZM108.61 41.3794H106.774V26.1841H108.61V41.3794ZM121.374 36.1157H113.337C113.337 36.7863 113.438 37.3722 113.64 37.8735C113.841 38.3683 114.118 38.7752 114.47 39.0942C114.808 39.4067 115.209 39.6411 115.671 39.7974C116.14 39.9536 116.654 40.0317 117.214 40.0317C117.956 40.0317 118.701 39.8853 119.45 39.5923C120.205 39.2928 120.743 38.9998 121.062 38.7134H121.159V40.7153C120.541 40.9757 119.909 41.1938 119.265 41.3696C118.62 41.5454 117.943 41.6333 117.233 41.6333C115.424 41.6333 114.011 41.145 112.995 40.1685C111.979 39.1854 111.472 37.7922 111.472 35.9888C111.472 34.2049 111.957 32.7889 112.927 31.7407C113.903 30.6925 115.186 30.1685 116.774 30.1685C118.246 30.1685 119.379 30.5981 120.173 31.4575C120.974 32.3169 121.374 33.5376 121.374 35.1196V36.1157ZM119.587 34.7095C119.58 33.7459 119.336 33.0005 118.854 32.4731C118.379 31.9458 117.653 31.6821 116.677 31.6821C115.694 31.6821 114.909 31.9718 114.323 32.5513C113.744 33.1307 113.415 33.8501 113.337 34.7095H119.587ZM140.847 31.2329C140.847 31.8774 140.733 32.4764 140.505 33.0298C140.284 33.5767 139.971 34.0519 139.567 34.4556C139.066 34.9569 138.474 35.3345 137.79 35.5884C137.106 35.8358 136.244 35.9595 135.202 35.9595H133.269V41.3794H131.335V26.8384H135.28C136.153 26.8384 136.892 26.9132 137.497 27.063C138.103 27.2062 138.64 27.4341 139.108 27.7466C139.662 28.1177 140.088 28.5799 140.388 29.1333C140.694 29.6867 140.847 30.3866 140.847 31.2329ZM138.835 31.2817C138.835 30.7804 138.747 30.3442 138.571 29.9731C138.396 29.6021 138.129 29.2993 137.771 29.0649C137.458 28.8631 137.1 28.7199 136.696 28.6353C136.299 28.5441 135.795 28.4985 135.183 28.4985H133.269V34.3091H134.899C135.681 34.3091 136.315 34.2407 136.804 34.104C137.292 33.9608 137.689 33.7362 137.995 33.4302C138.301 33.1177 138.516 32.7889 138.64 32.4438C138.77 32.0988 138.835 31.7114 138.835 31.2817ZM145.114 41.3794H143.278V26.1841H145.114V41.3794ZM157.224 41.3794H155.397V40.2173C155.235 40.328 155.013 40.4842 154.733 40.686C154.46 40.8813 154.193 41.0376 153.933 41.1548C153.627 41.3045 153.275 41.4282 152.878 41.5259C152.481 41.63 152.015 41.6821 151.481 41.6821C150.498 41.6821 149.665 41.3566 148.981 40.7056C148.298 40.0545 147.956 39.2244 147.956 38.2153C147.956 37.3885 148.132 36.7212 148.483 36.2134C148.841 35.6991 149.349 35.2954 150.007 35.0024C150.671 34.7095 151.468 34.5109 152.399 34.4067C153.33 34.3026 154.33 34.2244 155.397 34.1724V33.8892C155.397 33.4725 155.323 33.1274 155.173 32.854C155.03 32.5806 154.821 32.3657 154.548 32.2095C154.287 32.0597 153.975 31.9588 153.61 31.9067C153.246 31.8547 152.865 31.8286 152.468 31.8286C151.986 31.8286 151.449 31.8937 150.856 32.0239C150.264 32.1476 149.652 32.3299 149.021 32.5708H148.923V30.7056C149.281 30.6079 149.799 30.5005 150.476 30.3833C151.153 30.2661 151.82 30.2075 152.478 30.2075C153.246 30.2075 153.913 30.2726 154.479 30.4028C155.052 30.5265 155.547 30.7414 155.964 31.0474C156.374 31.3468 156.687 31.7342 156.901 32.2095C157.116 32.6847 157.224 33.2739 157.224 33.9771V41.3794ZM155.397 38.6938V35.6567C154.838 35.6893 154.177 35.7381 153.415 35.8032C152.66 35.8683 152.061 35.9627 151.618 36.0864C151.091 36.2362 150.664 36.4705 150.339 36.7896C150.013 37.1021 149.851 37.535 149.851 38.0884C149.851 38.7134 150.039 39.1854 150.417 39.5044C150.795 39.8169 151.371 39.9731 152.146 39.9731C152.79 39.9731 153.379 39.8494 153.913 39.6021C154.447 39.3481 154.942 39.0454 155.397 38.6938ZM170.036 30.4712L163.669 45.4028H161.706L163.737 40.8521L159.392 30.4712H161.384L164.733 38.5571L168.112 30.4712H170.036Z" fill="white"/>
<path fill-rule="evenodd" clip-rule="evenodd" d="M14.0997 44.0074L29.4091 28.7341L14.0997 13.4313C13.7227 14.0398 13.4619 15.0253 13.4619 16.445V28.734V40.993C13.4619 42.4129 13.7227 43.3983 14.0997 44.0074Z" fill="#2A9A84"/>
<path fill-rule="evenodd" clip-rule="evenodd" d="M15.9553 12.3589L30.8586 27.2843L35.8751 22.2416L20.2465 13.7787C18.478 12.8226 17.3763 12.3589 16.1006 12.3589C16.0422 12.3589 15.9843 12.3589 15.9553 12.3589Z" fill="#36B39B"/>
<path fill-rule="evenodd" clip-rule="evenodd" d="M37.759 23.256L32.3081 28.734L37.759 34.1826L41.0644 32.3854C42.282 31.7184 44.1379 30.5013 44.1379 28.734C44.1379 26.9368 42.282 25.7197 41.0643 25.0527L37.759 23.256Z" fill="#F3AB4B"/>
<path fill-rule="evenodd" clip-rule="evenodd" d="M35.8751 35.196L30.8586 30.1539L15.9553 45.0797C15.9843 45.0797 16.0422 45.0797 16.1006 45.0797C17.3762 45.0797 18.478 44.6154 20.2465 43.659L35.8751 35.196Z" fill="#E1584B"/>
</svg>
