<svg width="2000" height="975" viewBox="0 0 2000 975" fill="none" xmlns="http://www.w3.org/2000/svg">
<path d="M2059.11 84.1777C2042.66 79.8162 2025.62 89.8052 2019.94 105.847C1986.38 200.611 1846.94 486.159 1399.36 420.958C789.434 332.112 156.534 -169.868 -503.344 220.07C-512.497 225.479 -518.16 235.567 -517.981 246.197L-516.802 316.325C-516.321 344.937 -475.191 360.587 -453.325 342.128C-359.624 263.029 -154.896 138.075 193.244 151.874C698.66 171.907 1068.87 630.281 1700.1 623.753C2256.4 618 2256.03 241.78 2248.1 152.525C2247.07 140.889 2238.6 131.769 2227.31 128.775L2059.11 84.1777Z" fill="url(#paint0_linear_2719_2769)" fill-opacity="0.2"/>
<path d="M2063.38 128.68C2047.01 124.044 2029.8 133.745 2023.85 149.689C1988.71 243.875 1844.49 527.041 1398.06 454.326C789.72 355.243 165.335 -157.299 -500.992 221.491C-510.234 226.745 -516.066 236.737 -516.066 247.368V317.506C-516.066 346.122 -475.204 362.462 -453.03 344.373C-358.013 266.859 -151.214 145.365 196.648 165.013C701.651 193.536 1064.11 658.066 1695.37 662.146C2251.67 665.733 2257.63 289.563 2251.2 200.187C2250.36 188.534 2242.05 179.273 2230.81 176.09L2063.38 128.68Z" fill="url(#paint1_linear_2719_2769)" fill-opacity="0.2"/>
<path d="M2002.78 124.232C1994.65 150.751 1982.53 176.01 1968.7 200.064C1954.74 224.08 1938.36 246.694 1919.91 267.424C1883.09 308.952 1837.91 343.159 1787.48 366.319C1737.08 389.634 1682.12 401.997 1626.9 405.999C1571.59 409.763 1515.89 406.022 1461.28 396.515C1351.86 377.444 1245.64 343.256 1141.27 305.349C1036.83 267.272 934.072 224.539 830.654 183.23C727.117 142.266 622.75 102.718 515.919 70.4317L475.742 58.7282C462.313 54.9417 448.751 51.6273 435.267 48.0516L415.016 42.7844L394.605 38.1406C380.974 35.1196 367.422 31.796 353.745 29.0318C299.045 17.8188 243.744 9.67732 188.154 4.36423L146.355 1.74208C139.382 1.40285 132.431 0.669379 125.449 0.66021L104.511 0.394333L83.5723 0.128421L73.103 6.3973e-05C69.6165 -0.00452022 66.1343 0.238463 62.6431 0.3439L20.7986 2.01712C-34.9514 5.10228 -90.3718 13.1934 -144.83 25.314C-199.265 37.5538 -252.742 54.1394 -304.433 75.0984C-330.361 85.3807 -355.748 96.9879 -380.778 109.264C-405.826 121.523 -430.2 135.133 -454.524 148.606C-455.169 148.961 -455.579 149.631 -455.601 150.366L-464.829 486.53C-464.895 488.972 -461.815 490.093 -460.284 488.189L-395.471 407.654L-379.266 387.52C-376.567 384.215 -373.836 380.704 -371.175 377.568C-368.43 374.391 -365.489 371.292 -362.52 368.244C-350.575 356.078 -337.595 344.865 -324.203 334.229C-310.797 323.58 -296.695 313.839 -282.427 304.368C-267.967 295.186 -253.292 286.333 -238.182 278.261C-208.002 262.037 -176.718 247.813 -144.596 235.894C-80.3562 211.95 -13.0098 196.767 55.0559 188.869C89.0979 184.867 123.351 182.648 157.635 182.277C191.906 181.823 226.228 182.68 260.421 185.403C328.835 189.731 396.126 204.047 461.557 224.144C526.92 244.654 590.22 271.54 652.032 301.429C775.605 361.611 893.748 432.812 1015.9 497.165C1138 561.284 1264.73 618.995 1398.47 655.701C1465.19 674.193 1533.33 687.675 1602.13 695.693C1670.9 703.844 1740.39 706.205 1809.6 701.923C1878.72 697.518 1947.9 685.709 2013.31 661.779C2078.54 637.987 2139.8 601.02 2187.85 550.466C2211.93 525.34 2232.7 497.078 2249.54 466.69C2266.06 436.122 2279.26 403.804 2288.35 370.334C2297.51 336.906 2303.13 302.543 2305.05 267.988C2306.09 250.714 2306.33 233.391 2305.43 216.104C2304.81 198.743 2301.7 181.653 2299.56 164.609C2299.49 164.021 2299.07 163.528 2298.5 163.353L2016.42 76.2307C2015.99 76.0962 2015.52 76.3495 2015.41 76.7899L2002.78 124.232ZM2004.11 124.589L2016.8 77.7917C2016.86 77.5812 2016.64 77.4053 2016.44 77.5104C2016.25 77.6152 2016.28 77.8976 2016.49 77.9628L2296.8 166.036C2297.03 166.108 2297.21 165.835 2297.06 165.651C2296.9 165.467 2296.61 165.598 2296.64 165.836C2298.76 182.701 2301.43 199.403 2301.86 216.278C2302.54 233.427 2302.09 250.618 2300.86 267.735C2298.54 301.984 2292.55 335.957 2283.1 368.886C2273.73 401.851 2260.31 433.546 2243.7 463.416C2226.76 493.113 2205.99 520.558 2182.07 544.873C2134.32 593.791 2073.93 629.149 2009.64 651.639C1945.28 674.509 1877.12 685.7 1808.85 689.481C1774.68 691.366 1740.4 691.494 1706.16 690.197L1654.85 687.056C1646.29 686.713 1637.79 685.603 1629.27 684.723L1603.72 681.986C1535.67 673.969 1468.28 660.551 1402.24 642.159C1269.9 605.655 1144.24 548.284 1022.69 484.247C900.781 420.559 782.308 349.683 657.773 289.538C595.471 259.663 531.488 232.721 465.259 212.189C399.013 191.982 330.438 178.192 261.195 174.241C226.681 171.747 192.035 171.133 157.438 171.839C122.833 172.467 88.2546 174.96 53.9011 179.247C-14.7922 187.727 -82.7295 203.566 -147.483 228.238C-179.866 240.533 -211.356 255.115 -241.737 271.742C-256.948 280.026 -271.724 289.089 -286.276 298.491C-300.644 308.182 -314.833 318.148 -328.331 329.044C-341.824 339.937 -354.891 351.392 -366.996 363.912C-370.01 367.061 -372.984 370.233 -375.843 373.594C-378.73 377.055 -381.254 380.369 -383.971 383.761L-400.025 404.019L-462.775 483.122C-463.513 484.053 -463.124 485.433 -462.008 485.84C-460.889 486.249 -459.699 485.438 -459.67 484.247L-451.48 151.508C-451.473 151.228 -451.842 151.12 -451.988 151.36C-452.133 151.6 -451.866 151.877 -451.621 151.741C-439.756 145.155 -427.876 138.567 -415.901 132.254C-403.718 125.58 -391.279 119.4 -378.835 113.234C-353.856 101.1 -328.533 89.6394 -302.678 79.4992C-251.134 58.8291 -197.863 42.5368 -143.67 30.5629C-89.4507 18.6669 -34.2322 11.4193 21.1743 8.80633L62.7576 7.54567C66.2168 7.47232 69.6851 7.26144 73.1489 7.3027L83.5493 7.53192L104.35 7.99492L125.142 8.45791C132.079 8.53126 138.983 9.33349 145.902 9.73232L187.398 12.735C242.571 18.534 297.427 27.1248 351.684 38.7732C405.835 50.8892 459.578 64.8802 512.616 81.3237C618.847 113.775 722.773 153.497 826.095 194.728C929.618 235.476 1032.75 277.651 1137.7 315.264C1190.21 333.986 1243.29 351.172 1296.98 366.309C1350.67 381.446 1405.08 394.122 1460.22 403.02C1515.34 411.936 1571.55 415.053 1627.26 410.588C1682.91 405.967 1738.06 392.591 1788.66 368.854C1839.34 345.309 1884.65 310.689 1921.47 268.799C1939.94 247.881 1956.29 225.102 1970.2 200.925C1983.98 176.702 1996.02 151.37 2004.11 124.589Z" fill="url(#paint2_linear_2719_2769)" fill-opacity="0.2"/>
<path d="M-516.664 974.325C-515.408 974.479 -514.265 973.588 -514.106 972.332C-487.269 759.556 -367.259 553.108 -192.755 419.683C-36.7207 300.38 161.598 234.262 380.768 228.472C570.528 223.429 763.674 264.064 939.116 345.905C1072.33 408.044 1197.56 494.497 1318.67 578.104C1400.97 634.925 1486.08 693.676 1573.13 744.437C1692.86 814.259 1808.85 861.412 1917.89 884.58C2046.53 911.92 2165.69 905.725 2272.1 866.179C2273.29 865.739 2273.89 864.417 2273.44 863.233C2273 862.047 2271.66 861.452 2270.48 861.893C2024.75 953.176 1757.02 846.359 1575.43 740.471C1488.54 689.798 1403.51 631.097 1321.27 574.322C1200.01 490.61 1074.61 404.042 941.049 341.747C764.975 259.608 571.169 218.836 380.644 223.883C160.508 229.705 -38.7321 296.144 -195.54 416.034C-371.012 550.192 -491.672 757.796 -518.656 971.772C-518.814 973.028 -517.921 974.17 -516.664 974.325Z" fill="url(#paint3_linear_2719_2769)" fill-opacity="0.2"/>
<path d="M-526.695 940.872C-525.445 941.066 -524.276 940.211 -524.077 938.963C-490.833 729.568 -365.636 529.313 -188.814 402.91C-30.9888 290.088 168.067 230.191 386.825 229.691C387.21 229.691 387.622 229.691 388.012 229.691C575.366 229.691 768.352 273.177 946.24 355.477C1072.76 414.109 1192.71 493.246 1308.71 569.783C1395.94 627.338 1486.15 686.85 1578.34 737.084C1759.38 835.73 2025.7 932.385 2267.73 833.777C2268.9 833.299 2269.47 831.954 2268.99 830.782C2268.51 829.609 2267.16 829.055 2265.98 829.534C2025.62 927.458 1760.69 831.222 1580.53 733.059C1488.51 682.917 1398.39 623.46 1311.23 565.956C1195.1 489.326 1075 410.093 948.165 351.314C769.305 268.565 575.201 224.809 386.811 225.107C167.101 225.607 -32.8718 285.802 -191.481 399.183C-369.278 526.287 -495.171 727.669 -528.604 938.259C-528.802 939.508 -527.945 940.678 -526.695 940.872Z" fill="url(#paint4_linear_2719_2769)" fill-opacity="0.2"/>
<path d="M-536.729 907.414C-535.485 907.649 -534.286 906.833 -534.047 905.59C-494.427 699.597 -364.031 505.546 -184.879 386.141C-25.3266 279.797 174.486 226.129 392.881 230.911C580.786 235.49 769.359 280.622 953.369 365.053C1072.71 419.986 1186.81 491.875 1297.15 561.394C1389.83 619.788 1485.66 680.171 1583.54 729.74C1763.17 820.696 2026.69 906.775 2263.37 801.366C2264.53 800.851 2265.06 799.488 2264.54 798.333C2264.02 797.179 2262.65 796.67 2261.49 797.185C2026.45 901.864 1764.34 816.161 1585.6 725.651C1487.91 676.183 1392.18 615.859 1299.58 557.521C1189.12 487.919 1074.89 415.947 955.275 360.886C770.701 276.193 581.519 230.92 392.977 226.327C173.743 221.518 -27.0722 275.455 -187.422 382.327C-367.578 502.402 -498.703 697.558 -538.551 904.738C-538.79 905.981 -537.972 907.179 -536.729 907.414Z" fill="url(#paint5_linear_2719_2769)" fill-opacity="0.2"/>
<path d="M-546.763 873.966C-545.528 874.241 -544.304 873.462 -544.024 872.228C-497.401 666.677 -365.17 483.49 -180.943 369.367C-19.7131 269.491 180.832 222.036 398.925 232.126C583.975 241.312 772.911 289.254 960.485 374.621C1072.11 425.647 1179.72 490.353 1283.78 552.928C1382.5 612.284 1484.58 673.666 1588.74 722.387C1766.95 805.727 2027.68 881.283 2259.02 768.946C2260.16 768.393 2260.64 767.015 2260.08 765.879C2259.53 764.742 2258.14 764.278 2257 764.831C2027.28 876.367 1767.99 801.155 1590.69 718.238C1486.73 669.623 1384.76 608.305 1286.14 549.008C1181.97 486.365 1074.25 421.59 962.386 370.458C774.28 284.848 584.782 236.774 399.145 227.551C180.044 217.438 -21.3306 265.109 -183.358 365.48C-368.623 480.243 -501.604 664.482 -548.499 871.228C-548.78 872.464 -548 873.691 -546.763 873.966Z" fill="url(#paint6_linear_2719_2769)" fill-opacity="0.2"/>
<path d="M-556.799 840.504C-555.573 840.82 -554.322 840.083 -554.001 838.858C-500.96 636.814 -363.661 459.678 -177.012 352.594C-13.4499 258.764 187.805 217.534 404.978 233.336C585.698 246.488 774.991 297.244 967.6 384.192C1070.91 431.084 1171.32 488.68 1268.42 544.383C1373.83 604.848 1482.82 667.377 1593.95 715.025C1770.73 790.812 2028.62 855.9 2254.67 736.518C2255.78 735.928 2256.22 734.533 2255.63 733.417C2255.03 732.298 2253.63 731.881 2252.51 732.473C2028.05 851.012 1771.61 786.209 1595.76 710.812C1484.87 663.269 1375.99 600.809 1270.69 540.404C1173.5 484.651 1073 427 969.493 380.016C776.384 292.843 586.564 241.959 405.308 228.765C187.201 212.886 -14.948 254.331 -179.298 348.619C-366.999 456.308 -505.09 634.473 -558.444 837.706C-558.766 838.933 -558.028 840.187 -556.799 840.504Z" fill="url(#paint7_linear_2719_2769)" fill-opacity="0.2"/>
<path d="M-566.839 807.043C-565.625 807.403 -564.35 806.709 -563.987 805.497C-504.547 606.968 -362.189 435.873 -173.085 335.816C-7.85547 248.395 194.119 213.376 411.03 234.546C587.613 251.787 777.268 305.354 974.725 393.76C1069.04 436.255 1161.44 486.833 1250.8 535.746C1363.64 597.504 1480.31 661.362 1599.16 707.667C1774.51 775.977 2029.59 830.657 2250.32 704.095C2251.42 703.466 2251.8 702.059 2251.17 700.964C2250.54 699.869 2249.12 699.502 2248.03 700.132C2028.87 825.769 1775.25 771.341 1600.83 703.399C1482.26 657.204 1365.71 593.415 1253.01 531.726C1163.57 482.771 1071.09 432.152 976.604 389.579C778.688 300.971 588.557 247.276 411.484 229.989C193.693 208.723 -9.19775 243.921 -175.225 331.768C-365.41 432.393 -508.594 604.498 -568.381 804.196C-568.744 805.408 -568.052 806.684 -566.839 807.043Z" fill="url(#paint8_linear_2719_2769)" fill-opacity="0.2"/>
<path d="M-576.866 773.588C-575.666 773.988 -574.369 773.339 -573.964 772.14C-508.182 577.158 -360.75 412.1 -169.154 319.042C-2.33911 238.021 200.369 209.232 417.087 235.761C591.247 257.091 775.98 311.904 981.85 403.341C1066.42 441.16 1149.93 484.802 1230.7 526.999C1351.78 590.275 1476.98 655.696 1604.39 700.323C1778.31 761.232 2030.56 805.555 2245.98 671.679C2247.06 671.011 2247.4 669.588 2246.73 668.515C2246.05 667.441 2244.62 667.125 2243.55 667.793C2029.67 800.695 1778.88 756.565 1605.9 695.991C1478.8 651.478 1353.75 586.131 1232.81 522.938C1151.99 480.708 1068.42 437.034 983.714 399.151C777.41 307.531 592.255 252.599 417.642 231.213C200.066 204.57 -3.55322 233.51 -171.161 314.921C-363.856 408.51 -512.14 574.543 -578.311 770.689C-578.716 771.889 -578.067 773.188 -576.866 773.588Z" fill="url(#paint9_linear_2719_2769)" fill-opacity="0.2"/>
<path d="M-586.904 740.129C-585.715 740.574 -584.391 739.969 -583.944 738.782C-511.85 547.352 -359.355 388.33 -165.232 302.264C5.486 226.569 203.443 204.607 423.139 236.976C593.775 262.115 773.57 318.02 988.978 412.908C1062.96 445.744 1136.55 482.51 1207.72 518.06C1337.98 583.133 1472.68 650.42 1609.61 692.956C1723.69 728.388 1833.32 743.465 1935.5 737.776C2051.01 731.345 2154 698.191 2241.65 639.228C2242.7 638.522 2242.98 637.098 2242.27 636.052C2241.56 635.007 2240.12 634.744 2239.07 635.449C2030.49 775.751 1782.51 741.854 1610.97 688.578C1474.39 646.156 1339.86 578.952 1209.77 513.957C1138.55 478.379 1064.91 441.596 990.825 408.709C775.032 313.651 594.861 257.637 423.808 232.433C203.232 199.931 4.43204 222.022 -167.084 298.069C-362.335 384.632 -515.723 544.599 -588.247 737.176C-588.694 738.362 -588.091 739.685 -586.904 740.129Z" fill="url(#paint10_linear_2719_2769)" fill-opacity="0.2"/>
<path d="M1861.68 720.186C2005.15 720.186 2133.99 681.927 2237.32 606.795C2238.34 606.051 2238.56 604.617 2237.81 603.596C2237.07 602.574 2235.63 602.353 2234.6 603.098C2075.89 718.492 1856.33 746.223 1616.04 681.161C1468.89 641.32 1323.82 571.874 1183.53 504.72C1123.02 475.757 1060.46 445.804 997.935 418.28C771.21 319.198 596.043 262.257 429.975 233.661C209.412 195.681 9.90674 211.684 -163.011 281.227C-360.84 360.782 -519.33 514.684 -598.172 703.682C-598.659 704.849 -598.104 706.189 -596.936 706.673C-595.766 707.159 -594.425 706.602 -593.937 705.433C-515.562 517.565 -357.997 364.577 -161.297 285.481C10.8186 216.255 209.49 200.348 429.196 238.186C594.888 266.722 769.726 323.557 996.093 422.48C1058.54 449.98 1121.08 479.91 1181.55 508.864C1322.03 576.11 1467.29 645.643 1614.84 685.594C1700.3 708.73 1783.18 720.186 1861.68 720.186Z" fill="url(#paint11_linear_2719_2769)" fill-opacity="0.2"/>
<path d="M1830.98 703.298C1986.08 703.298 2124.55 659.556 2232.98 574.357C2233.98 573.575 2234.14 572.133 2233.36 571.141C2232.57 570.149 2231.13 569.982 2230.14 570.765C2075.61 692.161 1859.43 728.742 1621.09 673.758C1462.15 637.084 1305.33 564.897 1153.66 495.08C1105.11 472.732 1054.9 449.618 1005.04 427.839C827.478 350.865 635.665 274.213 436.137 234.881C215.501 191.386 15.2906 201.315 -158.937 264.375C-359.396 336.937 -522.992 484.765 -608.103 670.177C-608.631 671.328 -608.122 672.688 -606.969 673.213C-605.817 673.737 -604.458 673.227 -603.93 672.077C-519.327 487.787 -356.693 340.829 -157.384 268.694C16.0464 205.922 215.442 196.057 435.253 239.382C634.36 278.632 825.897 355.175 1003.21 432.047C1053.03 453.803 1103.21 476.903 1151.75 499.242C1303.63 569.156 1460.66 641.448 1620.06 678.223C1692.77 694.996 1763.46 703.298 1830.98 703.298Z" fill="url(#paint12_linear_2719_2769)" fill-opacity="0.2"/>
<path d="M1799.65 687.882C1966.9 687.882 2115.36 638.051 2228.66 541.911C2229.62 541.093 2229.73 539.648 2228.91 538.686C2228.09 537.724 2226.64 537.611 2225.68 538.43C2075.38 665.947 1862.58 711.384 1626.15 666.354C1453.94 633.564 1283.95 557.929 1119.57 484.779C1084.42 469.138 1048.07 452.969 1012.15 437.406C822.727 355.945 636.61 279.256 442.3 236.114C221.463 187.086 20.5371 190.937 -154.864 247.538C-357.995 313.098 -526.684 454.869 -618.023 636.684C-618.591 637.816 -618.131 639.193 -616.998 639.758C-615.863 640.325 -614.485 639.863 -613.916 638.73C-523.122 458.003 -355.419 317.085 -153.453 251.902C21.1785 195.544 221.284 191.734 441.31 240.588C635.231 283.647 821.128 360.249 1010.34 441.619C1046.23 457.168 1082.56 473.332 1117.71 488.969C1282.33 562.22 1452.56 637.969 1625.3 670.861C1685.11 682.248 1743.45 687.882 1799.65 687.882Z" fill="url(#paint13_linear_2719_2769)" fill-opacity="0.2"/>
<path d="M1767.83 673.987C1947.72 673.987 2106.49 617.418 2224.32 509.46C2225.25 508.606 2225.31 507.158 2224.45 506.23C2223.6 505.3 2222.15 505.244 2221.21 506.098C2075.22 639.838 1865.8 694.118 1631.21 658.955C1444 630.896 1259.27 550.874 1080.63 473.479C1060.19 464.622 1039.73 455.77 1019.26 446.978L1003.58 440.285C823.547 363.449 637.388 283.996 448.467 237.342C227.295 182.731 25.6818 180.498 -150.796 230.705C-356.638 289.263 -530.426 424.97 -627.96 603.194C-628.567 604.304 -628.155 605.696 -627.044 606.3C-625.931 606.906 -624.539 606.494 -623.93 605.382C-526.978 428.232 -354.208 293.342 -149.545 235.115C26.1537 185.133 226.983 187.37 447.358 241.794C635.927 288.355 821.911 367.74 1001.78 444.498L1017.45 451.191C1037.92 459.978 1058.36 468.835 1078.8 477.687C1257.71 555.197 1442.72 635.342 1630.52 663.489C1677.4 670.512 1723.26 673.987 1767.83 673.987Z" fill="url(#paint14_linear_2719_2769)" fill-opacity="0.2"/>
<path d="M1735.67 661.646C1928.67 661.646 2098.01 597.671 2219.99 477.009C2220.89 476.12 2220.89 474.669 2220 473.773C2219.11 472.877 2217.66 472.876 2216.76 473.766C2075.14 613.838 1869.08 676.979 1636.26 651.556C1431.93 629.264 1230.58 543.512 1035.86 460.579L1026.37 456.54C1002.12 446.281 977.9 435.943 953.676 425.606C791.686 356.495 624.175 285.027 454.624 238.575C232.133 178.55 29.8101 170.234 -146.713 213.871C-355.309 265.429 -534.195 395.063 -637.878 569.712C-638.524 570.799 -638.162 572.202 -637.073 572.845C-635.983 573.488 -634.578 573.125 -633.932 572.037C-530.876 398.449 -353.025 269.591 -145.618 218.322C30.1539 174.873 231.698 183.175 453.424 242.999C622.663 289.368 790.027 360.772 951.88 429.824C976.103 440.161 1000.33 450.498 1024.58 460.758L1034.08 464.796C1229.1 547.853 1430.77 633.742 1635.77 656.109C1669.66 659.817 1703.01 661.646 1735.67 661.646Z" fill="url(#paint15_linear_2719_2769)" fill-opacity="0.2"/>
<path d="M1700.25 650.759C1787.72 650.759 1873.29 637.515 1950.67 611.793C2055.14 577.051 2144.28 520.795 2215.66 444.554C2216.53 443.631 2216.47 442.181 2215.55 441.32C2214.62 440.457 2213.17 440.51 2212.31 441.434C2077.06 585.809 1869.12 659.688 1641.31 644.162C1436.6 630.212 1236.98 551.979 1033.48 466.098C991.191 448.344 948.325 429.874 906.874 412.005C762.015 349.573 612.217 285.013 460.787 239.804C237.892 174.016 34.873 159.627 -142.645 197.038C-354.028 241.585 -538.013 365.159 -647.801 536.226C-648.485 537.291 -648.17 538.709 -647.102 539.389C-646.035 540.068 -644.619 539.754 -643.935 538.689C-534.807 368.648 -351.88 245.821 -141.692 201.521C35.0654 164.275 237.333 178.628 459.49 244.196C610.659 289.332 760.334 353.836 905.069 416.218C946.529 434.082 989.4 452.561 1031.71 470.325C1235.58 556.361 1435.59 634.737 1641 648.737C1660.8 650.085 1680.58 650.759 1700.25 650.759Z" fill="url(#paint16_linear_2719_2769)" fill-opacity="0.2"/>
<path d="M1669.57 641.673C1887.88 641.673 2084.17 558.747 2211.33 412.091C2212.16 411.136 2212.06 409.691 2211.1 408.866C2210.14 408.04 2208.69 408.149 2207.86 409.105C2077.1 559.913 1872.57 642.896 1646.36 636.777C1439.31 631.207 1232.85 556.059 1040.59 475.675C982.834 451.612 924.491 426.019 868.072 401.273C737.778 344.113 603.049 285.013 466.945 241.042C240.431 168.419 42.3686 148.524 -138.563 180.214C-352.784 217.737 -541.871 335.247 -657.722 502.755C-658.441 503.794 -658.177 505.218 -657.136 505.934C-656.094 506.651 -654.669 506.387 -653.949 505.346C-538.785 338.853 -350.789 222.042 -137.783 184.729C42.4053 153.163 239.748 173.008 465.543 245.401C601.422 289.295 736.041 348.353 866.235 405.463C922.677 430.222 981.043 455.825 1038.82 479.897C1231.49 560.45 1438.43 635.764 1646.24 641.357C1654.03 641.568 1661.83 641.673 1669.57 641.673Z" fill="url(#paint17_linear_2719_2769)" fill-opacity="0.2"/>
<path d="M1637.91 634.068C1642.44 634.068 1646.95 634.036 1651.48 633.971C1877.62 630.674 2079.95 538.002 2207 379.621C2207.79 378.636 2207.63 377.196 2206.65 376.408C2205.66 375.619 2204.21 375.783 2203.42 376.77C2077.22 534.075 1876.17 626.108 1651.42 629.387C1433.58 632.509 1224.12 558.291 1047.7 485.233C976.498 455.802 904.84 423.63 835.542 392.517C717.802 339.652 596.052 284.99 473.107 242.27C246.039 163.66 47.3032 137.851 -134.485 163.381C-351.573 193.871 -545.761 305.312 -667.648 469.272C-668.403 470.288 -668.187 471.723 -667.168 472.475C-666.15 473.227 -664.715 473.011 -663.96 471.995C-542.796 309.02 -349.722 198.24 -133.848 167.924C47.2068 142.491 245.241 168.236 471.604 246.607C594.353 289.258 716.019 343.879 833.668 396.703C902.998 427.829 974.683 460.015 1045.95 489.468C1219.13 561.193 1424.35 634.068 1637.91 634.068Z" fill="url(#paint18_linear_2719_2769)" fill-opacity="0.2"/>
<path d="M1604.91 628.035C1622.36 628.035 1639.61 627.554 1656.72 626.586C1881.49 613.935 2080.34 512.126 2202.67 347.157C2203.43 346.141 2203.21 344.706 2202.19 343.957C2201.17 343.207 2199.74 343.427 2198.98 344.443C2077.46 508.307 1879.87 609.434 1656.46 622.011C1481.59 631.849 1290.43 591.435 1054.8 494.8C971.802 460.767 888.639 422.393 808.208 385.288C701.33 335.976 590.815 284.99 479.256 243.503C251.569 158.833 52.1323 127.115 -130.416 146.562C-350.395 169.987 -549.69 275.372 -677.578 435.803C-678.366 436.791 -678.199 438.23 -677.209 439.016C-676.217 439.802 -674.776 439.636 -673.987 438.646C-546.855 279.171 -348.693 174.415 -129.93 151.118C51.9396 131.755 250.648 163.381 477.666 247.803C589.061 289.226 699.493 340.175 806.292 389.451C886.765 426.578 969.983 464.966 1053.07 499.04C1266.31 586.488 1443.36 628.035 1604.91 628.035Z" fill="url(#paint19_linear_2719_2769)" fill-opacity="0.2"/>
<defs>
<linearGradient id="paint0_linear_2719_2769" x1="120.496" y1="86.3752" x2="707.926" y2="932.819" gradientUnits="userSpaceOnUse">
<stop stop-color="#FFEDD1"/>
<stop offset="1" stop-color="#FFE5A0"/>
</linearGradient>
<linearGradient id="paint1_linear_2719_2769" x1="122.774" y1="97.2966" x2="750.316" y2="957.732" gradientUnits="userSpaceOnUse">
<stop stop-color="#FFEDD1"/>
<stop offset="1" stop-color="#FFE5A0"/>
</linearGradient>
<linearGradient id="paint2_linear_2719_2769" x1="174.431" y1="16.3726" x2="971.002" y2="914.443" gradientUnits="userSpaceOnUse">
<stop stop-color="#FFEDD1"/>
<stop offset="1" stop-color="#FFE5A0"/>
</linearGradient>
<linearGradient id="paint3_linear_2719_2769" x1="125.643" y1="240.934" x2="979.942" y2="1150.89" gradientUnits="userSpaceOnUse">
<stop stop-color="#FFDB5E"/>
<stop offset="1" stop-color="#FFC52F"/>
</linearGradient>
<linearGradient id="paint4_linear_2719_2769" x1="116.923" y1="241.759" x2="927.841" y2="1149.58" gradientUnits="userSpaceOnUse">
<stop stop-color="#FFDB5E"/>
<stop offset="1" stop-color="#FFC52F"/>
</linearGradient>
<linearGradient id="paint5_linear_2719_2769" x1="108.203" y1="241.887" x2="874.864" y2="1145.17" gradientUnits="userSpaceOnUse">
<stop stop-color="#FFDB5E"/>
<stop offset="1" stop-color="#FFC52F"/>
</linearGradient>
<linearGradient id="paint6_linear_2719_2769" x1="99.4794" y1="241.295" x2="821.242" y2="1137.51" gradientUnits="userSpaceOnUse">
<stop stop-color="#FFDB5E"/>
<stop offset="1" stop-color="#FFC52F"/>
</linearGradient>
<linearGradient id="paint7_linear_2719_2769" x1="90.7587" y1="239.771" x2="767.486" y2="1126.36" gradientUnits="userSpaceOnUse">
<stop stop-color="#FFDB5E"/>
<stop offset="1" stop-color="#FFC52F"/>
</linearGradient>
<linearGradient id="paint8_linear_2719_2769" x1="82.046" y1="237.532" x2="713.568" y2="1111.83" gradientUnits="userSpaceOnUse">
<stop stop-color="#FFDB5E"/>
<stop offset="1" stop-color="#FFC52F"/>
</linearGradient>
<linearGradient id="paint9_linear_2719_2769" x1="73.3393" y1="234.446" x2="659.927" y2="1093.82" gradientUnits="userSpaceOnUse">
<stop stop-color="#FFDB5E"/>
<stop offset="1" stop-color="#FFC52F"/>
</linearGradient>
<linearGradient id="paint10_linear_2719_2769" x1="64.6253" y1="230.067" x2="607.497" y2="1072.21" gradientUnits="userSpaceOnUse">
<stop stop-color="#FFDB5E"/>
<stop offset="1" stop-color="#FFC52F"/>
</linearGradient>
<linearGradient id="paint11_linear_2719_2769" x1="55.9226" y1="225.382" x2="574.165" y2="1057.07" gradientUnits="userSpaceOnUse">
<stop stop-color="#FFDB5E"/>
<stop offset="1" stop-color="#FFC52F"/>
</linearGradient>
<linearGradient id="paint12_linear_2719_2769" x1="47.2137" y1="219.814" x2="547.899" y2="1043.76" gradientUnits="userSpaceOnUse">
<stop stop-color="#FFDB5E"/>
<stop offset="1" stop-color="#FFC52F"/>
</linearGradient>
<linearGradient id="paint13_linear_2719_2769" x1="38.5157" y1="213.307" x2="525.259" y2="1030.96" gradientUnits="userSpaceOnUse">
<stop stop-color="#FFDB5E"/>
<stop offset="1" stop-color="#FFC52F"/>
</linearGradient>
<linearGradient id="paint14_linear_2719_2769" x1="29.8039" y1="205.794" x2="506.421" y2="1018.95" gradientUnits="userSpaceOnUse">
<stop stop-color="#FFDB5E"/>
<stop offset="1" stop-color="#FFC52F"/>
</linearGradient>
<linearGradient id="paint15_linear_2719_2769" x1="21.1081" y1="197.417" x2="491.261" y2="1007.98" gradientUnits="userSpaceOnUse">
<stop stop-color="#FFDB5E"/>
<stop offset="1" stop-color="#FFC52F"/>
</linearGradient>
<linearGradient id="paint16_linear_2719_2769" x1="12.4086" y1="187.778" x2="480.212" y2="998.049" gradientUnits="userSpaceOnUse">
<stop stop-color="#FFDB5E"/>
<stop offset="1" stop-color="#FFC52F"/>
</linearGradient>
<linearGradient id="paint17_linear_2719_2769" x1="3.71525" y1="176.716" x2="474.058" y2="989.504" gradientUnits="userSpaceOnUse">
<stop stop-color="#FFDB5E"/>
<stop offset="1" stop-color="#FFC52F"/>
</linearGradient>
<linearGradient id="paint18_linear_2719_2769" x1="-4.98661" y1="165.049" x2="471.056" y2="982.151" gradientUnits="userSpaceOnUse">
<stop stop-color="#FFDB5E"/>
<stop offset="1" stop-color="#FFC52F"/>
</linearGradient>
<linearGradient id="paint19_linear_2719_2769" x1="-13.6848" y1="152.356" x2="471.994" y2="975.923" gradientUnits="userSpaceOnUse">
<stop stop-color="#FFDB5E"/>
<stop offset="1" stop-color="#FFC52F"/>
</linearGradient>
</defs>
</svg>
