<svg width="319" height="60" viewBox="0 0 319 60" fill="none" xmlns="http://www.w3.org/2000/svg">
<path d="M118.623 19.8159C118.242 20.0488 117.702 20.2605 117.014 20.451C116.686 20.5251 116.39 20.5781 116.136 20.6204C115.882 20.6628 115.606 20.6733 115.321 20.6733C114.876 20.6733 114.41 20.5251 113.913 20.2181C113.616 20.0488 113.203 19.7206 112.674 19.2442C112.431 19.6782 112.102 20.0805 111.69 20.451L110.737 21.2768C111.372 22.1766 112.092 23.0764 112.907 23.9762L114.516 25.6489L113.394 26.6863L108.641 20.3981L107.836 19.096C107.529 18.482 107.381 18.0162 107.381 17.688C107.381 17.4234 107.487 17.1905 107.688 17.0105C107.9 16.8305 108.154 16.7141 108.461 16.6823C108.694 16.6823 109.054 16.8623 109.54 17.2222L110.027 17.5186L110.144 17.3704V17.1693V12.9136H105.973L104.533 10.5H115.606L117.046 12.9136H112.79V18.0268C113.034 18.1009 113.394 18.1856 113.849 18.2597H114.918C115.331 18.2597 115.829 18.1856 116.379 18.0479C116.94 17.8997 117.681 17.6351 118.623 17.254V19.8159ZM126.066 21.4567C124.562 22.5683 123.25 23.1188 122.128 23.1188C120.815 23.1188 119.608 22.5789 118.528 21.4991C117.438 20.4087 116.898 19.2865 116.898 18.1221C116.898 17.0846 117.343 16.1954 118.232 15.4437C119.132 14.6921 120.243 14.3216 121.588 14.3216C122.085 14.3216 122.519 14.3745 122.879 14.4698C123.281 14.5227 123.61 14.6392 123.853 14.8086C124.107 14.9779 124.446 15.2532 124.859 15.6343L126.066 16.8517V12.9136H115.543L114.114 10.5H130.12L131.56 12.9136H128.712V25.8818L125.981 24.0821L126.066 21.4567ZM120.804 21.1074C121.397 21.1074 122.244 20.8321 123.345 20.2711C124.329 19.7947 125.229 19.2548 126.066 18.662V18.3232C124.848 17.2646 123.504 16.7353 122.032 16.7353C121.27 16.7353 120.635 17.0211 120.127 17.5716C119.629 18.1326 119.375 18.789 119.375 19.5512C119.375 20.0382 119.502 20.4087 119.777 20.6945C120.042 20.9698 120.381 21.1074 120.804 21.1074ZM134.778 25.8818L132.026 24.0609L132.227 12.9136H130.12L128.691 10.5H136.821L138.261 12.9136H134.778V25.8818ZM142.263 20.7051V21.9966C142.263 22.4201 142.009 22.6318 141.511 22.6318C141.13 22.6318 140.452 22.1342 139.5 21.1285C138.536 20.1229 138.06 19.3924 138.06 18.916C138.06 18.4926 138.303 18.2914 138.78 18.2914H139.616V12.9136H136.737L135.297 10.5H150.89L152.32 12.9136H149.451V25.8818L146.719 24.0715L146.857 20.7051H142.263ZM146.857 12.9136H142.263V18.2914H146.857V12.9136ZM158.936 12.9136H155.453V25.8818L152.701 24.0609L152.902 12.9136H150.859L149.419 10.5H153.473C153.473 9.24019 153.166 8.20274 152.542 7.39819C151.917 6.58304 151.187 6.18077 150.34 6.18077C149.726 6.18077 149.228 6.36073 148.847 6.72067C148.456 7.07001 148.265 7.53581 148.265 8.10746L148.329 9.02847L146.772 9.20843C146.486 8.91202 146.254 8.56267 146.074 8.12864C145.883 7.6946 145.798 7.3135 145.798 6.99591C145.798 6.18077 146.148 5.48207 146.857 4.88924C147.566 4.29641 148.424 4 149.419 4C150.785 4 151.928 4.5399 152.87 5.6197C153.812 6.68891 154.416 8.31919 154.68 10.5H157.496L158.936 12.9136Z" fill="#3D1E1C"/>
<path d="M85.6897 49.3198L83.5513 47.5519L90.2524 43.0209L88.2304 41.8988L85.4992 43.6138C84.2817 44.3654 83.4666 44.8312 83.0431 45.0112L81 43.2221C81.307 43.1056 81.614 42.9786 81.9316 42.8198C82.2492 42.6716 82.6726 42.4599 83.2125 42.1846C84.2712 41.6236 85.0016 41.1789 85.4251 40.8296C84.2923 40.2685 83.5301 39.7498 83.1172 39.2417C82.7044 38.7441 82.4927 38.1513 82.4927 37.4632C82.4927 36.5739 82.8314 35.7694 83.4984 35.0389C84.1759 34.3085 85.0122 33.9379 86.0285 33.9379C86.9918 33.9379 87.934 34.4567 88.855 35.4835C89.7654 36.5104 90.2312 37.5479 90.2312 38.5853C90.2841 38.9876 90.2206 39.3899 90.0407 39.8027C89.8607 40.2262 89.6066 40.5967 89.2784 40.9143C89.8713 41.306 90.7182 41.74 91.8086 42.2481C92.6555 42.6504 93.6082 43.0527 94.688 43.455V44.5771L93.1318 44.0902L85.6897 49.3198ZM86.4625 40.0039C86.8648 39.8768 87.2565 39.5063 87.6376 38.9135C88.0293 38.3207 88.2198 37.7808 88.2198 37.3044C88.2198 36.955 88.114 36.6798 87.9022 36.4681C87.7329 36.2457 87.4682 36.1293 87.1294 36.1293C86.5895 36.1293 86.1132 36.3304 85.7109 36.7327C85.5203 36.9444 85.3827 37.1667 85.2874 37.3891C85.1922 37.622 85.1392 37.8972 85.1392 38.2254C85.1392 38.5853 85.2557 38.9135 85.4674 39.1887C85.6897 39.464 86.0179 39.7392 86.4625 40.0039ZM97.2181 49.3198L94.4551 47.5095L94.6563 36.3516H92.5602L91.1205 33.9379H99.2613L100.701 36.3516H97.2181V49.3198ZM107.307 36.3516H103.835V49.3198L101.072 47.5095L101.273 36.3516H99.2295L97.7898 33.9379H101.844C101.844 32.6888 101.537 31.6513 100.913 30.8362C100.288 30.0316 99.5577 29.6293 98.7108 29.6293C98.0968 29.6293 97.5992 29.8093 97.2181 30.1587C96.837 30.5186 96.6465 30.9844 96.6465 31.556L96.6994 32.477L95.1432 32.6464C94.8574 32.3606 94.6245 32.0007 94.4445 31.5666C94.2646 31.1326 94.1693 30.7621 94.1693 30.4339C94.1693 29.6293 94.5186 28.9306 95.2279 28.3378C95.9372 27.7344 96.7947 27.438 97.7898 27.438C99.1554 27.438 100.299 27.9779 101.241 29.0577C102.183 30.1375 102.786 31.7678 103.051 33.9379H105.867L107.307 36.3516ZM111.647 36.3516L110.218 33.9379H121.979L123.409 36.3516H118.549V41.4224C118.549 41.92 118.38 42.4175 118.052 42.8939C117.713 43.3703 117.258 43.8255 116.686 44.2489C117.205 45.0535 118.444 46.4721 120.423 48.5046L119.386 49.5209L114.558 43.5503C113.521 42.2799 113.002 41.4648 113.002 41.0731C112.96 40.9143 113.045 40.7343 113.235 40.512C113.426 40.2897 113.627 40.1627 113.839 40.1203C114.103 40.1203 114.378 40.1944 114.643 40.3215L115.765 40.8402C115.977 40.8402 116.083 40.6708 116.083 40.3215V36.3516H111.647ZM126.944 49.3198L124.192 47.5095L124.393 36.3516H122.286L120.857 33.9379H128.987L130.427 36.3516H126.944V49.3198ZM134.429 44.1537V45.4452C134.429 45.8686 134.175 46.0804 133.677 46.0804C133.296 46.0804 132.619 45.5722 131.666 44.5665C130.702 43.5714 130.226 42.8304 130.226 42.354C130.226 41.9411 130.47 41.7294 130.946 41.7294H131.782V36.3516H128.903L127.463 33.9379H143.046L144.486 36.3516H141.617V49.3198L138.886 47.5201L139.023 44.1537H134.429ZM139.023 36.3516H134.429V41.7294H139.023V36.3516ZM154.987 43.5714C154.596 43.7832 154.214 43.9314 153.833 44.0055C153.452 44.0796 152.965 44.1219 152.362 44.1219C151.928 44.1219 151.451 43.9631 150.954 43.6561C150.668 43.4867 150.255 43.1586 149.726 42.6822C149.472 43.1268 149.133 43.5291 148.72 43.889L147.736 44.7253C148.371 45.6146 149.101 46.525 149.927 47.4248L151.536 49.0869L150.414 50.1243L145.64 43.8467L144.835 42.5446C144.528 41.9306 144.369 41.4648 144.369 41.126C144.369 40.8613 144.475 40.639 144.687 40.4485C144.899 40.2685 145.163 40.1627 145.47 40.1203C145.693 40.1203 146.063 40.3003 146.561 40.6708L147.048 40.9566L147.196 40.8084V40.6073V36.3516H143.025L141.585 33.9379H159.01L160.45 36.3516H157.57V49.3515L154.839 47.5413L154.987 43.5714ZM154.987 36.3516H149.832V41.4648C150.086 41.5495 150.446 41.6236 150.912 41.7082H151.991C152.298 41.7082 152.849 41.5918 153.643 41.3695C154.437 41.1472 154.892 40.9566 154.987 40.8084V36.3516ZM154.521 50.6748C155.39 49.7538 156.332 49.2986 157.369 49.2986C158.237 49.2986 159.021 49.6479 159.741 50.3466C160.46 51.0453 160.82 51.8075 160.82 52.6333C160.82 53.3743 160.492 54.0836 159.825 54.7399C159.169 55.4069 158.28 55.735 157.168 55.735C155.982 55.735 154.723 55.3751 153.399 54.6446C152.309 54.0306 150.965 53.0249 149.377 51.6276L150.213 50.7912C151.229 51.8287 152.267 52.6438 153.346 53.2367C154.416 53.8295 155.284 54.1259 155.929 54.1259C156.798 54.1259 157.56 53.8507 158.216 53.3108C158.883 52.7603 159.211 52.2416 159.211 51.7546C159.211 51.0347 159.021 50.6748 158.64 50.6748C158.481 50.6748 158.184 50.8548 157.74 51.2147C157.306 51.564 156.872 51.9769 156.448 52.4321L154.521 50.6748ZM171.745 44.9265C170.496 44.9265 169.469 44.5348 168.654 43.7514C167.839 42.9786 167.437 42.0258 167.437 40.9143C167.437 40.025 167.818 39.2522 168.569 38.5853C169.332 37.9184 170.295 37.5902 171.459 37.5902C172.359 37.5902 173.206 38.0031 173.99 38.8182C174.773 39.6439 175.165 40.6179 175.165 41.7718C175.165 42.3752 174.879 43.0209 174.307 43.709C173.619 44.5242 172.762 44.9265 171.745 44.9265ZM173.069 33.9379L174.508 36.3516H165.849V40.9778C165.849 41.6871 165.711 42.2587 165.425 42.6822C165.129 43.095 164.631 43.5608 163.922 44.0584C165.425 45.9957 167.236 46.9696 169.363 46.9696C170.168 46.9696 171.258 46.7155 172.635 46.2074C174.021 45.6993 175.175 45.0641 176.117 44.2913L176.583 46.8532C175.218 47.6154 174.043 48.1976 173.058 48.5787C172.073 48.9598 171.205 49.1504 170.454 49.1504C169.247 49.1504 167.945 48.7375 166.547 47.9118C164.78 46.8849 163.065 45.297 161.392 43.1268C160.863 42.4069 160.587 41.8988 160.587 41.5918C160.587 41.3801 160.693 41.1366 160.905 40.8719C161.117 40.6073 161.307 40.4697 161.487 40.4697C161.614 40.4697 161.964 40.5967 162.514 40.8402L163.065 41.0096C163.276 41.0096 163.382 40.8402 163.382 40.5014V36.3516H159.243L157.803 33.9379H173.069ZM174.074 40.819C174.074 40.4697 173.905 40.1838 173.556 39.9509C173.217 39.718 172.762 39.6016 172.211 39.6016C171.311 39.6016 170.581 39.8345 170.02 40.3003C169.522 40.7661 169.279 41.3166 169.279 41.9517C169.279 42.2799 169.363 42.5551 169.543 42.7669C169.734 42.9786 170.02 43.0845 170.422 43.0845C170.803 43.0845 171.184 43.0315 171.565 42.9151C171.936 42.7986 172.338 42.5975 172.783 42.3328C173.64 41.8141 174.074 41.306 174.074 40.819ZM177.271 49.3198L174.508 47.5095L174.709 36.3516H172.613L171.174 33.9379H179.314L180.744 36.3516H177.271V49.3198ZM190.409 40.3532C190.409 40.8084 190.25 41.0413 189.922 41.0413H185.031C184.364 41.0413 183.792 41.2742 183.337 41.7294C182.935 42.174 182.734 42.7986 182.734 43.6032C182.734 44.4818 183.051 45.2017 183.676 45.7628C184.216 46.1968 184.777 46.4191 185.38 46.4191C185.878 46.4191 186.312 46.3133 186.704 46.091C187.085 45.8686 187.275 45.6675 187.275 45.4981C187.275 45.3711 187.201 45.17 187.042 44.9265C186.905 44.6195 186.841 44.3442 186.841 44.0902C186.841 43.9419 186.926 43.7726 187.106 43.6032C187.275 43.4338 187.508 43.3385 187.794 43.3385C188.228 43.3385 188.884 43.6667 189.742 44.3231C190.61 44.9688 191.044 45.5511 191.044 46.0698C191.044 46.6309 190.695 47.139 189.985 47.5942L192.24 51.4582L190.928 52.1039L188.884 48.0918C188.768 48.1659 188.514 48.2505 188.112 48.3458L187.042 48.4305C185.391 48.4305 183.898 47.8165 182.554 46.5779C181.22 45.3393 180.542 43.7514 180.542 41.8247C180.542 39.771 181.739 38.7441 184.11 38.7441H187.932V36.3516H179.05L177.61 33.9379H192.166L193.595 36.3516H190.409V40.3532ZM196.824 49.3198L194.061 47.5095L194.262 36.3516H192.166L190.726 33.9379H198.857L200.296 36.3516H196.824V49.3198ZM210.713 43.5714C210.322 43.7832 209.94 43.9314 209.559 44.0055C209.178 44.0796 208.691 44.1219 208.088 44.1219C207.654 44.1219 207.177 43.9631 206.68 43.6561C206.394 43.4867 205.981 43.1586 205.441 42.6822C205.198 43.1268 204.859 43.5291 204.436 43.889L203.462 44.7253C204.097 45.6146 204.827 46.525 205.642 47.4248L207.262 49.0869L206.14 50.1243L201.366 43.8467L200.561 42.5446C200.254 41.9306 200.095 41.4648 200.095 41.126C200.095 40.8613 200.201 40.639 200.413 40.4485C200.625 40.2685 200.889 40.1627 201.186 40.1203C201.419 40.1203 201.789 40.3003 202.287 40.6708L202.774 40.9566L202.911 40.8084V40.6073V36.3516H198.751L197.311 33.9379H214.736L216.176 36.3516H213.296V49.3515L210.565 47.5413L210.713 43.5714ZM210.713 36.3516H205.558V41.4648C205.812 41.5495 206.172 41.6236 206.638 41.7082H207.717C208.024 41.7082 208.575 41.5918 209.369 41.3695C210.163 41.1472 210.607 40.9566 210.713 40.8084V36.3516ZM229.313 40.9884C230.001 41.7929 230.52 42.5128 230.869 43.1374C231.208 43.7726 231.378 44.2701 231.378 44.6406C231.378 45.2123 231.166 45.7099 230.721 46.1333C230.181 46.6309 229.493 46.8849 228.646 46.8849C225.968 46.8849 223.671 44.5454 221.755 39.8662L222.76 39.284C223.576 41.0625 224.391 42.354 225.195 43.1692C225.873 43.8467 226.54 44.1748 227.217 44.1748C227.62 44.1748 227.979 44.0584 228.286 43.8149C228.604 43.582 228.763 43.3068 228.763 42.9998C228.763 42.534 228.593 42.047 228.244 41.5177C227.905 40.9884 227.249 40.2156 226.296 39.1993L226.55 38.5747H233.4V36.3516H220.431L218.992 33.9379H237.422L238.862 36.3516H235.983V49.3198L233.251 47.5095L233.4 40.9884H229.313ZM245.468 36.3516H241.996V49.3198L239.233 47.5095L239.434 36.3516H237.391L235.951 33.9379H240.005C240.005 32.6888 239.698 31.6513 239.074 30.8362C238.449 30.0316 237.719 29.6293 236.872 29.6293C236.258 29.6293 235.76 29.8093 235.379 30.1587C234.998 30.5186 234.808 30.9844 234.808 31.556L234.861 32.477L233.304 32.6464C233.019 32.3606 232.786 32.0007 232.606 31.5666C232.426 31.1326 232.33 30.7621 232.33 30.4339C232.33 29.6293 232.69 28.9306 233.4 28.3378C234.109 27.7344 234.956 27.438 235.951 27.438C237.317 27.438 238.47 27.9779 239.402 29.0577C240.344 30.1375 240.948 31.7678 241.212 33.9379H244.039L245.468 36.3516ZM255.366 44.1537V45.4452C255.366 45.8686 255.112 46.0804 254.614 46.0804C254.233 46.0804 253.566 45.5722 252.603 44.5665C251.64 43.5714 251.163 42.8304 251.163 42.354C251.163 41.9411 251.407 41.7294 251.883 41.7294H252.72V36.3516H249.84L248.4 33.9379H263.994L265.423 36.3516H262.554V49.3198L259.823 47.5201L259.961 44.1537H255.366ZM259.961 36.3516H255.366V41.7294H259.961V36.3516ZM273.31 39.6333C273.31 40.0991 273.119 40.3215 272.759 40.3215H269.065C267.985 40.3215 267.445 40.7237 267.445 41.5283C267.445 41.9941 267.604 42.3328 267.932 42.534C268.218 42.3646 268.673 42.1846 269.308 42.0047C269.943 41.8247 270.483 41.7294 270.917 41.7294C271.722 41.7294 272.325 41.8459 272.728 42.0682C273.13 42.2799 273.627 42.7669 274.231 43.5185C274.358 43.709 274.485 43.8996 274.601 44.0902C274.654 44.2066 274.76 44.4077 274.919 44.7042C275.067 45.0112 275.141 45.3182 275.141 45.6463C275.141 46.4085 274.908 47.0966 274.442 47.7107C273.977 48.3247 273.416 48.6317 272.759 48.6317L271.203 46.3662C271.817 46.1756 272.293 45.8792 272.632 45.4981C272.96 45.117 273.13 44.683 273.13 44.2066C273.13 44.1113 273.066 43.9843 272.918 43.8361C272.77 43.6773 272.569 43.5926 272.304 43.5714C271.245 43.5714 270.303 43.889 269.478 44.5242C268.662 45.1594 268.25 45.8686 268.25 46.6414C268.25 47.6048 268.694 48.4093 269.583 49.0445C270.473 49.6903 272.082 50.2831 274.4 50.8124L273.828 51.9028C271.097 51.3311 269.033 50.4842 267.614 49.3727C266.27 48.3564 265.603 47.2343 265.603 45.9851C265.603 45.0323 266.037 44.1113 266.926 43.2327C266.535 42.841 266.164 42.3117 265.804 41.613C265.434 40.9249 265.254 40.385 265.254 39.9827C265.254 38.6806 266.101 38.0242 267.784 38.0242H270.833V36.3516H263.814L262.374 33.9379H276.782L278.222 36.3516H273.31V39.6333ZM281.419 49.3198L278.656 47.5095L278.857 36.3516H276.761L275.321 33.9379H283.451L284.891 36.3516H281.419V49.3198ZM283.346 36.3516L281.906 33.9379H293.667L295.096 36.3516H290.237V41.4224C290.237 41.92 290.078 42.4175 289.74 42.8939C289.401 43.3703 288.946 43.8255 288.374 44.2489C288.893 45.0535 290.131 46.4721 292.111 48.5046L291.073 49.5209L286.246 43.5503C285.209 42.2799 284.69 41.4648 284.69 41.0731C284.658 40.9143 284.732 40.7343 284.923 40.512C285.113 40.2897 285.315 40.1627 285.526 40.1203C285.791 40.1203 286.066 40.1944 286.331 40.3215L287.453 40.8402C287.665 40.8402 287.771 40.6708 287.771 40.3215V36.3516H283.346ZM298.643 49.3198L295.88 47.5095L296.081 36.3516H293.985L292.545 33.9379H300.675L302.115 36.3516H298.643V49.3198ZM309.451 40.9884C310.139 41.7929 310.658 42.5128 310.997 43.1374C311.346 43.7726 311.516 44.2701 311.516 44.6406C311.516 45.2123 311.304 45.7099 310.859 46.1333C310.319 46.6309 309.631 46.8849 308.784 46.8849C306.106 46.8849 303.809 44.5454 301.882 39.8662L302.898 39.284C303.713 41.0625 304.529 42.354 305.333 43.1692C306.011 43.8467 306.678 44.1748 307.355 44.1748C307.757 44.1748 308.107 44.0584 308.424 43.8149C308.742 43.582 308.901 43.3068 308.901 42.9998C308.901 42.534 308.731 42.047 308.382 41.5177C308.043 40.9884 307.387 40.2156 306.434 39.1993L306.688 38.5747H313.527V36.3516H300.569L299.13 33.9379H317.56L319 36.3516H316.121V49.3198L313.389 47.5095L313.527 40.9884H309.451Z" fill="#3D1E1C"/>
<path fill-rule="evenodd" clip-rule="evenodd" d="M25.667 26.6403C25.667 15.7802 30.4879 6.12633 37.9625 0C45.4371 6.12633 50.258 15.7802 50.258 26.6403C50.258 37.5003 45.4371 47.1542 37.9625 53.2806C30.4879 47.1542 25.667 37.5003 25.667 26.6403Z" fill="url(#paint0_linear_7210_140)"/>
<path fill-rule="evenodd" clip-rule="evenodd" d="M13.6252 37.1545C8.07082 27.9654 7.45421 17.1852 11.0201 7.95207C20.8527 9.08634 30.1111 14.643 35.6655 23.832C41.2199 33.0211 41.8365 43.8013 38.2706 53.0345C28.4379 51.9002 19.1796 46.3435 13.6252 37.1545Z" fill="url(#paint1_linear_7210_140)" fill-opacity="0.6"/>
<path fill-rule="evenodd" clip-rule="evenodd" d="M62.5901 37.1545C68.1445 27.9654 68.7611 17.1852 65.1952 7.95207C55.3626 9.08634 46.1042 14.643 40.5498 23.832C34.9955 33.0211 34.3788 43.8013 37.9448 53.0345C47.7774 51.9002 57.0358 46.3435 62.5901 37.1545Z" fill="url(#paint2_linear_7210_140)" fill-opacity="0.6"/>
<defs>
<linearGradient id="paint0_linear_7210_140" x1="13.2855" y1="-3.83712" x2="43.2737" y2="2.6211" gradientUnits="userSpaceOnUse">
<stop stop-color="#FFDB5E"/>
<stop offset="1" stop-color="#FFC52F"/>
</linearGradient>
<linearGradient id="paint1_linear_7210_140" x1="17.5878" y1="5.41369" x2="4.67" y2="15.9203" gradientUnits="userSpaceOnUse">
<stop stop-color="#8EF2CE"/>
<stop offset="1" stop-color="#FFC52F"/>
</linearGradient>
<linearGradient id="paint2_linear_7210_140" x1="58.6275" y1="5.41369" x2="71.5453" y2="15.9203" gradientUnits="userSpaceOnUse">
<stop stop-color="#CE61EA"/>
<stop offset="1" stop-color="#FFC52F"/>
</linearGradient>
</defs>
</svg>
