<svg width="206" height="57" viewBox="0 0 206 57" fill="none" xmlns="http://www.w3.org/2000/svg">
<rect width="206" height="57" rx="10" fill="#232222"/>
<path d="M68.7561 21H67.4167L66.49 18.3657H62.4021L61.4753 21H60.1995L63.6399 11.5483H65.3157L68.7561 21ZM66.1028 17.2866L64.446 12.6465L62.783 17.2866H66.1028ZM75.9099 13.9097L73.0408 21H71.8411L68.991 13.9097H70.2859L72.4822 19.5527L74.6594 13.9097H75.9099ZM82.7273 21H81.5403V20.2446C81.4345 20.3166 81.2906 20.4181 81.1086 20.5493C80.9309 20.6763 80.7574 20.7778 80.5881 20.854C80.3892 20.9513 80.1607 21.0317 79.9026 21.0952C79.6444 21.1629 79.3419 21.1968 78.9949 21.1968C78.3559 21.1968 77.8142 20.9852 77.3699 20.562C76.9255 20.1388 76.7034 19.5993 76.7034 18.9434C76.7034 18.4059 76.8176 17.9722 77.0461 17.6421C77.2789 17.3078 77.609 17.0454 78.0364 16.855C78.468 16.6646 78.9864 16.5355 79.5916 16.4678C80.1967 16.4001 80.8463 16.3493 81.5403 16.3154V16.1313C81.5403 15.8605 81.4916 15.6362 81.3943 15.4585C81.3012 15.2808 81.1658 15.1411 80.988 15.0396C80.8188 14.9422 80.6156 14.8766 80.3787 14.8428C80.1417 14.8089 79.8941 14.792 79.636 14.792C79.3228 14.792 78.9737 14.8343 78.5886 14.9189C78.2035 14.9993 77.8057 15.1178 77.3953 15.2744H77.3318V14.062C77.5645 13.9985 77.901 13.9287 78.3411 13.8525C78.7812 13.7764 79.2149 13.7383 79.6423 13.7383C80.1417 13.7383 80.5754 13.7806 80.9436 13.8652C81.316 13.9456 81.6376 14.0853 81.9084 14.2842C82.175 14.4788 82.3782 14.7306 82.5178 15.0396C82.6575 15.3485 82.7273 15.7314 82.7273 16.1885V21ZM81.5403 19.2544V17.2803C81.1764 17.3014 80.7468 17.3332 80.2517 17.3755C79.7608 17.4178 79.3715 17.4792 79.0837 17.5596C78.741 17.6569 78.4638 17.8092 78.2522 18.0166C78.0406 18.2197 77.9348 18.5011 77.9348 18.8608C77.9348 19.2671 78.0575 19.5739 78.303 19.7812C78.5484 19.9844 78.9229 20.0859 79.4265 20.0859C79.8455 20.0859 80.2284 20.0055 80.5754 19.8447C80.9224 19.6797 81.2441 19.4829 81.5403 19.2544ZM86.3074 12.7227H84.9617V11.4849H86.3074V12.7227ZM86.2312 21H85.0378V13.9097H86.2312V21ZM89.7986 21H88.6052V11.123H89.7986V21ZM97.6697 21H96.4827V20.2446C96.3769 20.3166 96.233 20.4181 96.051 20.5493C95.8733 20.6763 95.6998 20.7778 95.5305 20.854C95.3316 20.9513 95.1031 21.0317 94.845 21.0952C94.5868 21.1629 94.2843 21.1968 93.9373 21.1968C93.2983 21.1968 92.7566 20.9852 92.3123 20.562C91.8679 20.1388 91.6458 19.5993 91.6458 18.9434C91.6458 18.4059 91.76 17.9722 91.9885 17.6421C92.2213 17.3078 92.5514 17.0454 92.9788 16.855C93.4104 16.6646 93.9288 16.5355 94.5339 16.4678C95.1391 16.4001 95.7887 16.3493 96.4827 16.3154V16.1313C96.4827 15.8605 96.434 15.6362 96.3367 15.4585C96.2436 15.2808 96.1082 15.1411 95.9304 15.0396C95.7611 14.9422 95.558 14.8766 95.321 14.8428C95.0841 14.8089 94.8365 14.792 94.5784 14.792C94.2652 14.792 93.9161 14.8343 93.531 14.9189C93.1459 14.9993 92.7481 15.1178 92.3376 15.2744H92.2742V14.062C92.5069 13.9985 92.8433 13.9287 93.2834 13.8525C93.7236 13.7764 94.1573 13.7383 94.5847 13.7383C95.0841 13.7383 95.5178 13.7806 95.886 13.8652C96.2584 13.9456 96.58 14.0853 96.8508 14.2842C97.1174 14.4788 97.3206 14.7306 97.4602 15.0396C97.5999 15.3485 97.6697 15.7314 97.6697 16.1885V21ZM96.4827 19.2544V17.2803C96.1187 17.3014 95.6892 17.3332 95.1941 17.3755C94.7032 17.4178 94.3139 17.4792 94.0261 17.5596C93.6833 17.6569 93.4062 17.8092 93.1946 18.0166C92.983 18.2197 92.8772 18.5011 92.8772 18.8608C92.8772 19.2671 92.9999 19.5739 93.2454 19.7812C93.4908 19.9844 93.8653 20.0859 94.3689 20.0859C94.7878 20.0859 95.1708 20.0055 95.5178 19.8447C95.8648 19.6797 96.1864 19.4829 96.4827 19.2544ZM106.207 17.4009C106.207 17.9933 106.123 18.5265 105.953 19.0005C105.788 19.4744 105.564 19.8722 105.281 20.1938C104.98 20.5282 104.65 20.7799 104.29 20.9492C103.931 21.1143 103.535 21.1968 103.103 21.1968C102.701 21.1968 102.35 21.1481 102.05 21.0508C101.749 20.9577 101.453 20.8307 101.161 20.6699L101.085 21H99.9675V11.123H101.161V14.6523C101.495 14.3773 101.851 14.153 102.227 13.9795C102.604 13.8018 103.027 13.7129 103.497 13.7129C104.335 13.7129 104.995 14.0345 105.477 14.6777C105.964 15.321 106.207 16.2287 106.207 17.4009ZM104.976 17.4326C104.976 16.5863 104.836 15.9451 104.557 15.5093C104.278 15.0692 103.827 14.8491 103.205 14.8491C102.858 14.8491 102.507 14.9253 102.151 15.0776C101.796 15.2257 101.466 15.4183 101.161 15.6553V19.7178C101.499 19.8701 101.789 19.9759 102.031 20.0352C102.276 20.0944 102.553 20.124 102.862 20.124C103.522 20.124 104.038 19.9082 104.411 19.4766C104.788 19.0407 104.976 18.3594 104.976 17.4326ZM109.273 21H108.08V11.123H109.273V21ZM117.57 17.5786H112.345C112.345 18.0145 112.411 18.3953 112.542 18.7212C112.673 19.0428 112.853 19.3073 113.082 19.5146C113.302 19.7178 113.562 19.8701 113.863 19.9717C114.167 20.0732 114.502 20.124 114.865 20.124C115.348 20.124 115.832 20.0288 116.319 19.8384C116.81 19.6437 117.159 19.4533 117.366 19.2671H117.43V20.5684C117.028 20.7376 116.617 20.8794 116.198 20.9937C115.78 21.1079 115.339 21.165 114.878 21.165C113.702 21.165 112.783 20.8477 112.123 20.2129C111.463 19.5739 111.133 18.6683 111.133 17.4961C111.133 16.3366 111.448 15.4162 112.079 14.7349C112.714 14.0535 113.547 13.7129 114.58 13.7129C115.536 13.7129 116.273 13.9922 116.789 14.5508C117.309 15.1094 117.57 15.9028 117.57 16.9312V17.5786ZM116.408 16.6646C116.404 16.0382 116.245 15.5537 115.932 15.2109C115.623 14.8682 115.151 14.6968 114.516 14.6968C113.877 14.6968 113.367 14.8851 112.987 15.2617C112.61 15.6383 112.396 16.106 112.345 16.6646H116.408ZM129.992 17.458C129.992 18.6133 129.696 19.5252 129.103 20.1938C128.511 20.8625 127.717 21.1968 126.723 21.1968C125.72 21.1968 124.922 20.8625 124.33 20.1938C123.742 19.5252 123.448 18.6133 123.448 17.458C123.448 16.3027 123.742 15.3908 124.33 14.7222C124.922 14.0493 125.72 13.7129 126.723 13.7129C127.717 13.7129 128.511 14.0493 129.103 14.7222C129.696 15.3908 129.992 16.3027 129.992 17.458ZM128.76 17.458C128.76 16.5397 128.581 15.8584 128.221 15.4141C127.861 14.9655 127.362 14.7412 126.723 14.7412C126.075 14.7412 125.572 14.9655 125.212 15.4141C124.857 15.8584 124.679 16.5397 124.679 17.458C124.679 18.3467 124.859 19.0216 125.219 19.4829C125.578 19.9399 126.08 20.1685 126.723 20.1685C127.358 20.1685 127.855 19.9421 128.215 19.4893C128.579 19.0322 128.76 18.3551 128.76 17.458ZM137.774 21H136.581V16.9629C136.581 16.637 136.562 16.3324 136.524 16.0488C136.486 15.7611 136.416 15.5368 136.314 15.376C136.208 15.1982 136.056 15.0671 135.857 14.9824C135.658 14.8936 135.4 14.8491 135.083 14.8491C134.757 14.8491 134.416 14.9295 134.061 15.0903C133.705 15.2511 133.365 15.4564 133.039 15.7061V21H131.845V13.9097H133.039V14.6968C133.411 14.3879 133.796 14.1466 134.194 13.9731C134.592 13.7996 135 13.7129 135.419 13.7129C136.185 13.7129 136.769 13.9435 137.171 14.4048C137.573 14.866 137.774 15.5304 137.774 16.3979V21ZM148.324 20.9365C148.1 20.9958 147.854 21.0444 147.588 21.0825C147.325 21.1206 147.09 21.1396 146.883 21.1396C146.159 21.1396 145.609 20.945 145.233 20.5557C144.856 20.1663 144.668 19.5422 144.668 18.6831V14.9126H143.862V13.9097H144.668V11.8721H145.861V13.9097H148.324V14.9126H145.861V18.1436C145.861 18.516 145.87 18.8079 145.886 19.0195C145.903 19.2269 145.963 19.4215 146.064 19.6035C146.157 19.7728 146.284 19.8976 146.445 19.978C146.61 20.0542 146.86 20.0923 147.194 20.0923C147.389 20.0923 147.592 20.0648 147.803 20.0098C148.015 19.9505 148.167 19.9019 148.26 19.8638H148.324V20.9365ZM155.7 21H154.507V16.9629C154.507 16.637 154.488 16.3324 154.449 16.0488C154.411 15.7611 154.342 15.5368 154.24 15.376C154.134 15.1982 153.982 15.0671 153.783 14.9824C153.584 14.8936 153.326 14.8491 153.009 14.8491C152.683 14.8491 152.342 14.9295 151.987 15.0903C151.631 15.2511 151.29 15.4564 150.965 15.7061V21H149.771V11.123H150.965V14.6968C151.337 14.3879 151.722 14.1466 152.12 13.9731C152.518 13.7996 152.926 13.7129 153.345 13.7129C154.111 13.7129 154.695 13.9435 155.097 14.4048C155.499 14.866 155.7 15.5304 155.7 16.3979V21ZM163.933 17.5786H158.709C158.709 18.0145 158.774 18.3953 158.906 18.7212C159.037 19.0428 159.217 19.3073 159.445 19.5146C159.665 19.7178 159.925 19.8701 160.226 19.9717C160.531 20.0732 160.865 20.124 161.229 20.124C161.711 20.124 162.196 20.0288 162.682 19.8384C163.173 19.6437 163.522 19.4533 163.73 19.2671H163.793V20.5684C163.391 20.7376 162.981 20.8794 162.562 20.9937C162.143 21.1079 161.703 21.165 161.241 21.165C160.065 21.165 159.147 20.8477 158.487 20.2129C157.826 19.5739 157.496 18.6683 157.496 17.4961C157.496 16.3366 157.812 15.4162 158.442 14.7349C159.077 14.0535 159.911 13.7129 160.943 13.7129C161.899 13.7129 162.636 13.9922 163.152 14.5508C163.673 15.1094 163.933 15.9028 163.933 16.9312V17.5786ZM162.771 16.6646C162.767 16.0382 162.608 15.5537 162.295 15.2109C161.986 14.8682 161.514 14.6968 160.88 14.6968C160.241 14.6968 159.731 14.8851 159.35 15.2617C158.973 15.6383 158.76 16.106 158.709 16.6646H162.771Z" fill="white"/>
<path d="M70.7974 41.0688H68.7368L67.311 37.0161H61.022L59.5962 41.0688H57.6333L62.9263 26.5278H65.5044L70.7974 41.0688ZM66.7153 35.356L64.1665 28.2173L61.6079 35.356H66.7153ZM82.4575 35.4829C82.4575 36.3683 82.3306 37.1789 82.0767 37.9146C81.8228 38.6437 81.4647 39.2622 81.0024 39.77C80.5728 40.2518 80.0649 40.6261 79.479 40.8931C78.8996 41.1535 78.2843 41.2837 77.6333 41.2837C77.0669 41.2837 76.5526 41.2218 76.0903 41.0981C75.6346 40.9744 75.1691 40.7824 74.6938 40.522V45.0923H72.8579V30.1606H74.6938V31.3032C75.1821 30.8931 75.729 30.5513 76.3345 30.2778C76.9465 29.9979 77.5975 29.8579 78.2876 29.8579C79.6027 29.8579 80.6248 30.356 81.354 31.3521C82.0897 32.3416 82.4575 33.7186 82.4575 35.4829ZM80.563 35.5317C80.563 34.2166 80.3384 33.2336 79.8892 32.5825C79.4399 31.9315 78.7498 31.606 77.8188 31.606C77.2915 31.606 76.7609 31.7199 76.2271 31.9478C75.6932 32.1756 75.1821 32.4751 74.6938 32.8462V39.0278C75.2147 39.2622 75.6606 39.4217 76.0317 39.5063C76.4093 39.591 76.8358 39.6333 77.311 39.6333C78.3332 39.6333 79.1307 39.2882 79.7036 38.5981C80.2765 37.908 80.563 36.8859 80.563 35.5317ZM94.9185 35.4829C94.9185 36.3683 94.7915 37.1789 94.5376 37.9146C94.2837 38.6437 93.9256 39.2622 93.4634 39.77C93.0337 40.2518 92.5259 40.6261 91.9399 40.8931C91.3605 41.1535 90.7453 41.2837 90.0942 41.2837C89.5278 41.2837 89.0135 41.2218 88.5513 41.0981C88.0955 40.9744 87.63 40.7824 87.1548 40.522V45.0923H85.3188V30.1606H87.1548V31.3032C87.6431 30.8931 88.1899 30.5513 88.7954 30.2778C89.4074 29.9979 90.0584 29.8579 90.7485 29.8579C92.0636 29.8579 93.0858 30.356 93.8149 31.3521C94.5506 32.3416 94.9185 33.7186 94.9185 35.4829ZM93.0239 35.5317C93.0239 34.2166 92.7993 33.2336 92.3501 32.5825C91.9009 31.9315 91.2108 31.606 90.2798 31.606C89.7524 31.606 89.2218 31.7199 88.688 31.9478C88.1541 32.1756 87.6431 32.4751 87.1548 32.8462V39.0278C87.6756 39.2622 88.1216 39.4217 88.4927 39.5063C88.8703 39.591 89.2967 39.6333 89.772 39.6333C90.7941 39.6333 91.5916 39.2882 92.1646 38.5981C92.7375 37.908 93.0239 36.8859 93.0239 35.5317ZM115.524 36.9185C115.524 37.4849 115.39 38.0448 115.124 38.5981C114.863 39.1515 114.495 39.6203 114.02 40.0044C113.499 40.4211 112.89 40.7466 112.194 40.981C111.504 41.2153 110.67 41.3325 109.694 41.3325C108.646 41.3325 107.702 41.2349 106.862 41.0396C106.028 40.8442 105.179 40.5545 104.313 40.1704V37.7485H104.45C105.185 38.3605 106.035 38.8325 106.999 39.1646C107.962 39.4966 108.867 39.6626 109.713 39.6626C110.911 39.6626 111.842 39.438 112.506 38.9888C113.177 38.5396 113.512 37.9406 113.512 37.1919C113.512 36.5474 113.353 36.0721 113.034 35.7661C112.721 35.4601 112.243 35.2225 111.598 35.0532C111.11 34.923 110.579 34.8156 110.006 34.731C109.44 34.6463 108.838 34.5389 108.2 34.4087C106.911 34.1353 105.954 33.6698 105.329 33.0122C104.71 32.3481 104.401 31.4855 104.401 30.4243C104.401 29.2069 104.915 28.2108 105.944 27.436C106.972 26.6548 108.278 26.2642 109.86 26.2642C110.882 26.2642 111.819 26.3618 112.672 26.5571C113.525 26.7524 114.28 26.9933 114.938 27.2798V29.5649H114.801C114.248 29.0962 113.519 28.7088 112.614 28.4028C111.715 28.0903 110.794 27.9341 109.85 27.9341C108.815 27.9341 107.982 28.1489 107.35 28.5786C106.725 29.0083 106.413 29.5617 106.413 30.2388C106.413 30.8442 106.569 31.3195 106.881 31.6646C107.194 32.0096 107.744 32.2733 108.532 32.4556C108.948 32.5467 109.541 32.6574 110.309 32.7876C111.077 32.9178 111.728 33.0513 112.262 33.188C113.343 33.4744 114.157 33.9074 114.704 34.4868C115.25 35.0662 115.524 35.8768 115.524 36.9185ZM124.147 40.9712C123.802 41.0623 123.424 41.1372 123.014 41.1958C122.611 41.2544 122.249 41.2837 121.93 41.2837C120.817 41.2837 119.971 40.9842 119.391 40.3853C118.812 39.7863 118.522 38.826 118.522 37.5044V31.7036H117.282V30.1606H118.522V27.0259H120.358V30.1606H124.147V31.7036H120.358V36.6743C120.358 37.2472 120.371 37.6965 120.397 38.022C120.423 38.341 120.514 38.6405 120.67 38.9204C120.814 39.1808 121.009 39.3729 121.256 39.4966C121.51 39.6138 121.894 39.6724 122.409 39.6724C122.708 39.6724 123.021 39.63 123.346 39.5454C123.672 39.4543 123.906 39.3794 124.049 39.3208H124.147V40.9712ZM135.67 35.6196C135.67 37.397 135.215 38.8 134.303 39.8286C133.392 40.8573 132.171 41.3716 130.641 41.3716C129.098 41.3716 127.871 40.8573 126.959 39.8286C126.055 38.8 125.602 37.397 125.602 35.6196C125.602 33.8423 126.055 32.4393 126.959 31.4106C127.871 30.3755 129.098 29.8579 130.641 29.8579C132.171 29.8579 133.392 30.3755 134.303 31.4106C135.215 32.4393 135.67 33.8423 135.67 35.6196ZM133.776 35.6196C133.776 34.2069 133.499 33.1587 132.946 32.4751C132.392 31.785 131.624 31.4399 130.641 31.4399C129.645 31.4399 128.87 31.785 128.317 32.4751C127.77 33.1587 127.497 34.2069 127.497 35.6196C127.497 36.9868 127.773 38.0252 128.327 38.7349C128.88 39.438 129.652 39.7896 130.641 39.7896C131.618 39.7896 132.383 39.4412 132.936 38.7446C133.496 38.0415 133.776 36.9998 133.776 35.6196ZM145.329 32.1626H145.231C144.958 32.0975 144.691 32.0519 144.43 32.0259C144.176 31.9933 143.874 31.9771 143.522 31.9771C142.956 31.9771 142.409 32.104 141.881 32.3579C141.354 32.6053 140.846 32.9276 140.358 33.3247V41.0688H138.522V30.1606H140.358V31.772C141.087 31.186 141.728 30.7726 142.282 30.5317C142.842 30.2843 143.411 30.1606 143.991 30.1606C144.31 30.1606 144.541 30.1704 144.684 30.1899C144.827 30.203 145.042 30.2323 145.329 30.2778V32.1626ZM156.188 35.8052H148.151C148.151 36.4757 148.252 37.0617 148.454 37.563C148.655 38.0578 148.932 38.4647 149.284 38.7837C149.622 39.0962 150.023 39.3306 150.485 39.4868C150.954 39.6431 151.468 39.7212 152.028 39.7212C152.77 39.7212 153.515 39.5747 154.264 39.2817C155.019 38.9823 155.556 38.6893 155.875 38.4028H155.973V40.4048C155.355 40.6652 154.723 40.8833 154.079 41.0591C153.434 41.2349 152.757 41.3228 152.047 41.3228C150.237 41.3228 148.825 40.8345 147.809 39.8579C146.793 38.8748 146.286 37.4816 146.286 35.6782C146.286 33.8944 146.771 32.4784 147.741 31.4302C148.717 30.382 150 29.8579 151.588 29.8579C153.06 29.8579 154.193 30.2876 154.987 31.147C155.788 32.0063 156.188 33.2271 156.188 34.8091V35.8052ZM154.401 34.3989C154.394 33.4354 154.15 32.6899 153.668 32.1626C153.193 31.6353 152.467 31.3716 151.491 31.3716C150.508 31.3716 149.723 31.6613 149.137 32.2407C148.558 32.8201 148.229 33.5396 148.151 34.3989H154.401Z" fill="white"/>
<path d="M40.4102 30.4701C40.3555 24.9687 44.8964 22.3302 45.0994 22.1969C42.5474 18.4655 38.5714 17.9535 37.1563 17.8952C33.7754 17.5518 30.556 19.8867 28.8408 19.8867C27.1291 19.8867 24.479 17.9455 21.6754 17.9949C17.9872 18.0497 14.5877 20.1401 12.6898 23.4416C8.85952 30.0861 11.7099 39.9333 15.4422 45.326C17.2669 47.962 19.4429 50.928 22.2978 50.8194C25.0493 50.7109 26.0874 49.0398 29.4137 49.0398C32.7399 49.0398 33.6739 50.8194 36.5843 50.7638C39.5433 50.71 41.4192 48.0776 43.2288 45.4311C45.3236 42.3688 46.1861 39.4036 46.2373 39.2535C46.1728 39.2235 40.4693 37.0387 40.4102 30.4701Z" fill="#D3D3D3"/>
<path d="M34.9416 14.3262C36.4556 12.4883 37.4813 9.93443 37.2024 7.39209C35.0175 7.48037 32.3728 8.84423 30.8041 10.6804C29.3988 12.3099 28.17 14.9044 28.4993 17.4008C30.9366 17.5897 33.4224 16.1605 34.9416 14.3262Z" fill="#D3D3D3"/>
</svg>
