<svg width="14" height="19" viewBox="0 0 14 19" fill="none" xmlns="http://www.w3.org/2000/svg">
<path fill-rule="evenodd" clip-rule="evenodd" d="M12.95 1.07937C12.7858 0.65435 12.3552 0.39402 11.9025 0.446232C8.00444 0.89591 4.33456 3.09912 2.13465 6.73859C-0.0652579 10.3781 -0.310233 14.6515 1.10347 18.3119C1.26761 18.737 1.6983 18.9973 2.15092 18.9451C6.04903 18.4954 9.7189 16.2922 11.9188 12.6527C14.1187 9.01323 14.3637 4.73981 12.95 1.07937ZM11.3444 2.55266C12.2391 5.47823 11.9268 8.77326 10.2072 11.6181C8.48761 14.463 5.71533 16.271 2.70909 16.8386C1.81434 13.9131 2.12667 10.618 3.84626 7.77319C5.56585 4.92834 8.33814 3.12026 11.3444 2.55266Z" fill="url(#paint0_linear_2907_275)"/>
<defs>
<linearGradient id="paint0_linear_2907_275" x1="12.0171" y1="1.43964" x2="2.03631" y2="17.9517" gradientUnits="userSpaceOnUse">
<stop stop-color="#FFCB12"/>
<stop offset="1" stop-color="#FF8832" stop-opacity="0.03"/>
</linearGradient>
</defs>
</svg>
