<svg width="361" height="60" viewBox="0 0 361 60" fill="none" xmlns="http://www.w3.org/2000/svg">
<path fill-rule="evenodd" clip-rule="evenodd" d="M25.667 26.6403C25.667 15.7802 30.4879 6.12633 37.9625 0C45.4371 6.12633 50.258 15.7802 50.258 26.6403C50.258 37.5003 45.4371 47.1542 37.9625 53.2806C30.4879 47.1542 25.667 37.5003 25.667 26.6403Z" fill="url(#paint0_linear_2907_83)"/>
<path fill-rule="evenodd" clip-rule="evenodd" d="M13.6252 37.1545C8.07082 27.9654 7.45421 17.1852 11.0201 7.95207C20.8527 9.08634 30.1111 14.643 35.6655 23.832C41.2199 33.0211 41.8365 43.8013 38.2706 53.0345C28.4379 51.9002 19.1796 46.3435 13.6252 37.1545Z" fill="url(#paint1_linear_2907_83)" fill-opacity="0.6"/>
<path fill-rule="evenodd" clip-rule="evenodd" d="M62.5901 37.1545C68.1445 27.9654 68.7611 17.1852 65.1952 7.95207C55.3626 9.08634 46.1042 14.643 40.5498 23.832C34.9955 33.0211 34.3788 43.8013 37.9448 53.0345C47.7774 51.9002 57.0358 46.3435 62.5901 37.1545Z" fill="url(#paint2_linear_2907_83)" fill-opacity="0.6"/>
<path d="M102.866 17.2283C102.823 16.7986 102.641 16.4648 102.317 16.2269C101.994 15.989 101.556 15.87 101.002 15.87C100.625 15.87 100.307 15.9233 100.048 16.0298C99.789 16.1328 99.5902 16.2766 99.4517 16.4613C99.3167 16.6459 99.2493 16.8554 99.2493 17.0898C99.2422 17.2851 99.283 17.4556 99.3718 17.6012C99.4641 17.7468 99.5902 17.8728 99.75 17.9794C99.9098 18.0824 100.094 18.1729 100.304 18.251C100.513 18.3256 100.737 18.3895 100.975 18.4428L101.955 18.6772C102.431 18.7837 102.868 18.9257 103.266 19.1033C103.663 19.2809 104.008 19.4993 104.299 19.7585C104.59 20.0177 104.816 20.3231 104.975 20.6747C105.139 21.0262 105.222 21.4293 105.226 21.8838C105.222 22.5515 105.052 23.1303 104.714 23.6204C104.381 24.1069 103.898 24.4851 103.266 24.7549C102.637 25.0213 101.879 25.1544 100.991 25.1544C100.11 25.1544 99.3434 25.0195 98.69 24.7496C98.0401 24.4797 97.5323 24.0802 97.1665 23.5511C96.8043 23.0184 96.6143 22.3597 96.5966 21.5749H98.8284C98.8533 21.9407 98.9581 22.2461 99.1427 22.4911C99.3309 22.7326 99.5813 22.9155 99.8938 23.0397C100.21 23.1605 100.567 23.2208 100.964 23.2208C101.355 23.2208 101.694 23.164 101.982 23.0504C102.273 22.9368 102.499 22.7787 102.658 22.5763C102.818 22.3739 102.898 22.1413 102.898 21.8785C102.898 21.6335 102.825 21.4275 102.68 21.2606C102.538 21.0937 102.328 20.9517 102.051 20.8345C101.778 20.7173 101.442 20.6108 101.044 20.5149L99.8565 20.2166C98.9368 19.9929 98.2105 19.6431 97.6779 19.1672C97.1452 18.6914 96.8806 18.0504 96.8842 17.2443C96.8806 16.5838 97.0564 16.0067 97.4115 15.5131C97.7702 15.0195 98.262 14.6342 98.887 14.3572C99.512 14.0802 100.222 13.9417 101.018 13.9417C101.827 13.9417 102.534 14.0802 103.138 14.3572C103.745 14.6342 104.217 15.0195 104.555 15.5131C104.892 16.0067 105.066 16.5784 105.077 17.2283H102.866Z" fill="#3D1E1C"/>
<path d="M108.349 25L106.122 16.8181H108.418L109.686 22.3153H109.76L111.081 16.8181H113.334L114.677 22.2833H114.746L115.992 16.8181H118.283L116.062 25H113.659L112.253 19.8544H112.152L110.746 25H108.349Z" fill="#3D1E1C"/>
<path d="M121.826 25.1544C121.304 25.1544 120.839 25.0639 120.431 24.8828C120.023 24.6981 119.699 24.4265 119.461 24.0678C119.227 23.7056 119.11 23.2546 119.11 22.7148C119.11 22.2603 119.193 21.8785 119.36 21.5696C119.527 21.2606 119.754 21.012 120.042 20.8238C120.33 20.6356 120.656 20.4936 121.022 20.3977C121.391 20.3018 121.779 20.2343 122.183 20.1953C122.659 20.1456 123.043 20.0994 123.334 20.0568C123.625 20.0106 123.836 19.9431 123.968 19.8544C124.099 19.7656 124.165 19.6342 124.165 19.4602V19.4282C124.165 19.0909 124.058 18.8299 123.845 18.6452C123.636 18.4605 123.338 18.3682 122.95 18.3682C122.542 18.3682 122.217 18.4588 121.976 18.6399C121.734 18.8174 121.574 19.0412 121.496 19.311L119.398 19.1406C119.504 18.6434 119.714 18.2137 120.026 17.8515C120.339 17.4858 120.742 17.2052 121.235 17.0099C121.732 16.811 122.308 16.7116 122.961 16.7116C123.416 16.7116 123.851 16.7649 124.266 16.8714C124.685 16.978 125.056 17.1431 125.379 17.3668C125.706 17.5905 125.964 17.8782 126.152 18.2297C126.34 18.5777 126.434 18.995 126.434 19.4815V25H124.282V23.8654H124.218C124.087 24.1211 123.911 24.3466 123.691 24.5419C123.471 24.7336 123.206 24.8846 122.897 24.9946C122.588 25.1012 122.231 25.1544 121.826 25.1544ZM122.476 23.5884C122.81 23.5884 123.105 23.5227 123.361 23.3913C123.616 23.2564 123.817 23.0753 123.963 22.848C124.108 22.6207 124.181 22.3632 124.181 22.0756V21.2074C124.11 21.2535 124.012 21.2961 123.888 21.3352C123.767 21.3707 123.63 21.4044 123.478 21.4364C123.325 21.4648 123.172 21.4914 123.02 21.5163C122.867 21.5376 122.728 21.5571 122.604 21.5749C122.338 21.614 122.105 21.6761 121.906 21.7613C121.708 21.8466 121.553 21.962 121.443 22.1076C121.333 22.2496 121.278 22.4272 121.278 22.6402C121.278 22.9492 121.39 23.1853 121.613 23.3487C121.841 23.5085 122.128 23.5884 122.476 23.5884Z" fill="#3D1E1C"/>
<path d="M128.195 25V16.8181H130.357V18.2617H130.453C130.624 17.7823 130.908 17.4041 131.305 17.1271C131.703 16.8501 132.179 16.7116 132.733 16.7116C133.294 16.7116 133.772 16.8519 134.166 17.1324C134.56 17.4094 134.823 17.7858 134.954 18.2617H135.039C135.206 17.7929 135.508 17.4183 135.945 17.1378C136.385 16.8537 136.906 16.7116 137.506 16.7116C138.269 16.7116 138.889 16.9549 139.365 17.4414C139.844 17.9243 140.084 18.6097 140.084 19.4975V25H137.82V19.9449C137.82 19.4904 137.699 19.1495 137.458 18.9222C137.216 18.6949 136.914 18.5813 136.552 18.5813C136.14 18.5813 135.819 18.7127 135.588 18.9755C135.357 19.2347 135.242 19.5774 135.242 20.0035V25H133.042V19.897C133.042 19.4957 132.926 19.1761 132.696 18.9382C132.468 18.7003 132.168 18.5813 131.795 18.5813C131.543 18.5813 131.316 18.6452 131.114 18.773C130.915 18.8973 130.757 19.0731 130.64 19.3004C130.522 19.5241 130.464 19.7869 130.464 20.0887V25H128.195Z" fill="#3D1E1C"/>
<path d="M141.876 25V16.8181H144.145V25H141.876ZM143.016 15.7635C142.679 15.7635 142.389 15.6516 142.148 15.4279C141.91 15.2006 141.791 14.9289 141.791 14.6129C141.791 14.3004 141.91 14.0323 142.148 13.8086C142.389 13.5813 142.679 13.4677 143.016 13.4677C143.353 13.4677 143.641 13.5813 143.879 13.8086C144.121 14.0323 144.241 14.3004 144.241 14.6129C144.241 14.9289 144.121 15.2006 143.879 15.4279C143.641 15.6516 143.353 15.7635 143.016 15.7635Z" fill="#3D1E1C"/>
<path d="M74.5803 45.9999V27.8181H81.7536C83.1267 27.8181 84.2985 28.0637 85.2692 28.555C86.2457 29.0403 86.9885 29.7298 87.4975 30.6235C88.0124 31.5113 88.2699 32.5559 88.2699 33.7574C88.2699 34.9648 88.0095 36.0035 87.4886 36.8735C86.9678 37.7376 86.2132 38.4005 85.2248 38.8622C84.2423 39.3238 83.0527 39.5546 81.6559 39.5546H76.853V36.4651H81.0345C81.7684 36.4651 82.378 36.3645 82.8633 36.1633C83.3486 35.9621 83.7096 35.6602 83.9464 35.2578C84.189 34.8553 84.3104 34.3552 84.3104 33.7574C84.3104 33.1537 84.189 32.6447 83.9464 32.2304C83.7096 31.8161 83.3456 31.5024 82.8544 31.2894C82.3691 31.0704 81.7565 30.9609 81.0167 30.9609H78.4244V45.9999H74.5803ZM84.3992 37.7258L88.918 45.9999H84.6744L80.2532 37.7258H84.3992Z" fill="#3D1E1C"/>
<path d="M94.804 46.2574C93.934 46.2574 93.1586 46.1065 92.478 45.8046C91.7974 45.4969 91.2588 45.0441 90.8622 44.4463C90.4716 43.8426 90.2763 43.091 90.2763 42.1914C90.2763 41.4338 90.4154 40.7975 90.6935 40.2826C90.9717 39.7677 91.3505 39.3534 91.8299 39.0397C92.3093 38.726 92.8538 38.4893 93.4634 38.3295C94.079 38.1697 94.7241 38.0572 95.3988 37.9921C96.1919 37.9093 96.8311 37.8323 97.3164 37.7613C97.8017 37.6844 98.1539 37.5719 98.3729 37.424C98.5919 37.276 98.7014 37.057 98.7014 36.767V36.7137C98.7014 36.1515 98.5238 35.7164 98.1687 35.4087C97.8195 35.1009 97.3223 34.947 96.6772 34.947C95.9966 34.947 95.455 35.098 95.0526 35.3998C94.6501 35.6957 94.3838 36.0686 94.2536 36.5184L90.7557 36.2343C90.9332 35.4057 91.2824 34.6896 91.8033 34.0859C92.3241 33.4763 92.9959 33.0087 93.8185 32.6832C94.6471 32.3517 95.6059 32.186 96.695 32.186C97.4525 32.186 98.1776 32.2748 98.87 32.4524C99.5684 32.6299 100.187 32.9051 100.726 33.278C101.27 33.6509 101.699 34.1303 102.013 34.7162C102.326 35.2962 102.483 35.9917 102.483 36.8025V45.9999H98.8967V44.109H98.7901C98.5711 44.5351 98.2782 44.9109 97.9112 45.2365C97.5443 45.5561 97.1033 45.8076 96.5884 45.9911C96.0735 46.1686 95.4787 46.2574 94.804 46.2574ZM95.8871 43.6473C96.4434 43.6473 96.9347 43.5378 97.3608 43.3188C97.7869 43.0939 98.1213 42.7921 98.364 42.4133C98.6067 42.0345 98.728 41.6054 98.728 41.126V39.6789C98.6096 39.7559 98.4469 39.8269 98.2397 39.892C98.0385 39.9512 97.8106 40.0074 97.5561 40.0607C97.3016 40.108 97.0471 40.1524 96.7926 40.1938C96.5381 40.2293 96.3073 40.2619 96.1001 40.2915C95.6563 40.3566 95.2686 40.4602 94.9372 40.6022C94.6057 40.7443 94.3483 40.9366 94.1648 41.1793C93.9813 41.416 93.8896 41.7119 93.8896 42.0671C93.8896 42.582 94.076 42.9756 94.4489 43.2478C94.8277 43.5141 95.3071 43.6473 95.8871 43.6473Z" fill="#3D1E1C"/>
<path d="M105.417 45.9999V32.3636H109.022V34.7695H109.182C109.466 33.9705 109.939 33.3401 110.602 32.8785C111.265 32.4168 112.058 32.186 112.981 32.186C113.916 32.186 114.713 32.4198 115.369 32.8874C116.026 33.349 116.464 33.9764 116.683 34.7695H116.825C117.104 33.9882 117.607 33.3638 118.335 32.8963C119.069 32.4228 119.936 32.186 120.936 32.186C122.208 32.186 123.241 32.5914 124.034 33.4023C124.833 34.2072 125.233 35.3495 125.233 36.8291V45.9999H121.46V37.5749C121.46 36.8173 121.258 36.2491 120.856 35.8703C120.454 35.4915 119.95 35.3021 119.347 35.3021C118.66 35.3021 118.125 35.5211 117.74 35.9591C117.355 36.3912 117.163 36.9623 117.163 37.6725V45.9999H113.496V37.495C113.496 36.8262 113.304 36.2935 112.919 35.897C112.54 35.5004 112.04 35.3021 111.419 35.3021C110.999 35.3021 110.62 35.4087 110.282 35.6217C109.951 35.8289 109.688 36.1219 109.492 36.5007C109.297 36.8735 109.199 37.3115 109.199 37.8146V45.9999H105.417Z" fill="#3D1E1C"/>
<path d="M139.566 36.2521L136.104 36.4651C136.045 36.1692 135.917 35.9029 135.722 35.6661C135.527 35.4235 135.269 35.2311 134.95 35.0891C134.636 34.9411 134.26 34.8671 133.822 34.8671C133.236 34.8671 132.742 34.9914 132.339 35.24C131.937 35.4827 131.736 35.8082 131.736 36.2166C131.736 36.5421 131.866 36.8173 132.126 37.0422C132.387 37.2671 132.834 37.4476 133.467 37.5838L135.935 38.0809C137.261 38.3532 138.249 38.7911 138.9 39.3948C139.551 39.9985 139.877 40.7916 139.877 41.7741C139.877 42.6678 139.613 43.452 139.087 44.1267C138.566 44.8014 137.85 45.3282 136.938 45.707C136.033 46.0798 134.988 46.2663 133.804 46.2663C131.999 46.2663 130.561 45.8905 129.49 45.1388C128.424 44.3812 127.8 43.3514 127.616 42.0493L131.336 41.854C131.449 42.4044 131.721 42.8246 132.153 43.1146C132.585 43.3987 133.138 43.5408 133.813 43.5408C134.476 43.5408 135.009 43.4135 135.411 43.159C135.82 42.8986 136.027 42.5642 136.033 42.1558C136.027 41.8126 135.882 41.5314 135.598 41.3124C135.314 41.0875 134.876 40.9159 134.284 40.7975L131.922 40.327C130.591 40.0607 129.599 39.599 128.948 38.9421C128.303 38.2851 127.98 37.4476 127.98 36.4296C127.98 35.5537 128.217 34.7991 128.691 34.1658C129.17 33.5325 129.842 33.0442 130.706 32.7009C131.576 32.3577 132.594 32.186 133.76 32.186C135.482 32.186 136.838 32.55 137.826 33.278C138.82 34.006 139.4 34.9973 139.566 36.2521Z" fill="#3D1E1C"/>
<path d="M151.003 40.1938V32.3636H154.785V45.9999H151.154V43.523H151.012C150.704 44.322 150.192 44.9642 149.476 45.4495C148.766 45.9348 147.899 46.1775 146.875 46.1775C145.963 46.1775 145.161 45.9704 144.469 45.5561C143.776 45.1418 143.235 44.5529 142.844 43.7894C142.459 43.0259 142.264 42.1115 142.258 41.0461V32.3636H146.04V40.3714C146.046 41.1763 146.262 41.8126 146.688 42.2801C147.114 42.7477 147.686 42.9815 148.402 42.9815C148.857 42.9815 149.284 42.8779 149.68 42.6708C150.077 42.4577 150.396 42.144 150.639 41.7297C150.888 41.3154 151.009 40.8034 151.003 40.1938Z" fill="#3D1E1C"/>
<path d="M161.237 42.0759L161.246 37.5394H161.796L166.164 32.3636H170.505L164.637 39.2173H163.74L161.237 42.0759ZM157.81 45.9999V27.8181H161.592V45.9999H157.81ZM166.333 45.9999L162.32 40.0607L164.841 37.3884L170.763 45.9999H166.333Z" fill="#3D1E1C"/>
<path d="M176.143 38.1164V45.9999H172.361V27.8181H176.036V34.7695H176.196C176.504 33.9646 177.001 33.3342 177.688 32.8785C178.374 32.4168 179.235 32.186 180.271 32.186C181.218 32.186 182.044 32.3932 182.748 32.8075C183.458 33.2159 184.009 33.8048 184.399 34.5742C184.796 35.3377 184.991 36.2521 184.985 37.3174V45.9999H181.203V37.9921C181.209 37.1517 180.996 36.4977 180.564 36.0301C180.138 35.5626 179.54 35.3288 178.771 35.3288C178.256 35.3288 177.8 35.4383 177.403 35.6573C177.013 35.8762 176.705 36.1959 176.48 36.6161C176.261 37.0304 176.149 37.5305 176.143 38.1164Z" fill="#3D1E1C"/>
<path d="M192.986 46.2219C191.95 46.2219 191.012 45.9556 190.172 45.4229C189.337 44.8843 188.675 44.0942 188.183 43.0525C187.698 42.0049 187.455 40.7206 187.455 39.1995C187.455 37.637 187.707 36.3379 188.21 35.3021C188.713 34.2605 189.382 33.4822 190.216 32.9673C191.057 32.4464 191.977 32.186 192.977 32.186C193.741 32.186 194.377 32.3162 194.886 32.5766C195.401 32.8311 195.815 33.1508 196.129 33.5355C196.449 33.9142 196.691 34.2871 196.857 34.6541H196.972V27.8181H200.745V45.9999H197.017V43.816H196.857C196.679 44.1948 196.428 44.5706 196.102 44.9435C195.783 45.3104 195.366 45.6152 194.851 45.8579C194.342 46.1006 193.72 46.2219 192.986 46.2219ZM194.185 43.2123C194.794 43.2123 195.309 43.0466 195.729 42.7151C196.156 42.3778 196.481 41.9073 196.706 41.3036C196.937 40.6999 197.052 39.9926 197.052 39.1818C197.052 38.3709 196.94 37.6666 196.715 37.0688C196.49 36.4711 196.165 36.0094 195.738 35.6839C195.312 35.3584 194.794 35.1956 194.185 35.1956C193.563 35.1956 193.04 35.3643 192.613 35.7016C192.187 36.039 191.865 36.5066 191.646 37.1043C191.427 37.7021 191.317 38.3946 191.317 39.1818C191.317 39.9749 191.427 40.6762 191.646 41.2858C191.871 41.8895 192.193 42.363 192.613 42.7063C193.04 43.0436 193.563 43.2123 194.185 43.2123Z" fill="#3D1E1C"/>
<path d="M207.743 46.2574C206.873 46.2574 206.098 46.1065 205.417 45.8046C204.737 45.4969 204.198 45.0441 203.802 44.4463C203.411 43.8426 203.216 43.091 203.216 42.1914C203.216 41.4338 203.355 40.7975 203.633 40.2826C203.911 39.7677 204.29 39.3534 204.769 39.0397C205.249 38.726 205.793 38.4893 206.403 38.3295C207.018 38.1697 207.664 38.0572 208.338 37.9921C209.131 37.9093 209.771 37.8323 210.256 37.7613C210.741 37.6844 211.093 37.5719 211.312 37.424C211.531 37.276 211.641 37.057 211.641 36.767V36.7137C211.641 36.1515 211.463 35.7164 211.108 35.4087C210.759 35.1009 210.262 34.947 209.617 34.947C208.936 34.947 208.394 35.098 207.992 35.3998C207.59 35.6957 207.323 36.0686 207.193 36.5184L203.695 36.2343C203.873 35.4057 204.222 34.6896 204.743 34.0859C205.264 33.4763 205.935 33.0087 206.758 32.6832C207.587 32.3517 208.545 32.186 209.634 32.186C210.392 32.186 211.117 32.2748 211.809 32.4524C212.508 32.6299 213.126 32.9051 213.665 33.278C214.209 33.6509 214.639 34.1303 214.952 34.7162C215.266 35.2962 215.423 35.9917 215.423 36.8025V45.9999H211.836V44.109H211.73C211.511 44.5351 211.218 44.9109 210.851 45.2365C210.484 45.5561 210.043 45.8076 209.528 45.9911C209.013 46.1686 208.418 46.2574 207.743 46.2574ZM208.827 43.6473C209.383 43.6473 209.874 43.5378 210.3 43.3188C210.726 43.0939 211.061 42.7921 211.303 42.4133C211.546 42.0345 211.667 41.6054 211.667 41.126V39.6789C211.549 39.7559 211.386 39.8269 211.179 39.892C210.978 39.9512 210.75 40.0074 210.496 40.0607C210.241 40.108 209.987 40.1524 209.732 40.1938C209.478 40.2293 209.247 40.2619 209.04 40.2915C208.596 40.3566 208.208 40.4602 207.877 40.6022C207.545 40.7443 207.288 40.9366 207.104 41.1793C206.921 41.416 206.829 41.7119 206.829 42.0671C206.829 42.582 207.015 42.9756 207.388 43.2478C207.767 43.5141 208.247 43.6473 208.827 43.6473Z" fill="#3D1E1C"/>
<path d="M229.703 36.2521L226.24 36.4651C226.181 36.1692 226.054 35.9029 225.859 35.6661C225.663 35.4235 225.406 35.2311 225.086 35.0891C224.773 34.9411 224.397 34.8671 223.959 34.8671C223.373 34.8671 222.879 34.9914 222.476 35.24C222.074 35.4827 221.873 35.8082 221.873 36.2166C221.873 36.5421 222.003 36.8173 222.263 37.0422C222.524 37.2671 222.97 37.4476 223.604 37.5838L226.072 38.0809C227.397 38.3532 228.386 38.7911 229.037 39.3948C229.688 39.9985 230.013 40.7916 230.013 41.7741C230.013 42.6678 229.75 43.452 229.223 44.1267C228.703 44.8014 227.986 45.3282 227.075 45.707C226.169 46.0798 225.125 46.2663 223.941 46.2663C222.136 46.2663 220.698 45.8905 219.626 45.1388C218.561 44.3812 217.937 43.3514 217.753 42.0493L221.473 41.854C221.585 42.4044 221.858 42.8246 222.29 43.1146C222.722 43.3987 223.275 43.5408 223.95 43.5408C224.613 43.5408 225.145 43.4135 225.548 43.159C225.956 42.8986 226.163 42.5642 226.169 42.1558C226.163 41.8126 226.018 41.5314 225.734 41.3124C225.45 41.0875 225.012 40.9159 224.42 40.7975L222.059 40.327C220.727 40.0607 219.736 39.599 219.085 38.9421C218.44 38.2851 218.117 37.4476 218.117 36.4296C218.117 35.5537 218.354 34.7991 218.827 34.1658C219.307 33.5325 219.979 33.0442 220.843 32.7009C221.713 32.3577 222.731 32.186 223.897 32.186C225.619 32.186 226.974 32.55 227.963 33.278C228.957 34.006 229.537 34.9973 229.703 36.2521Z" fill="#3D1E1C"/>
<path d="M245.532 27.8181H249.332V40.4957C249.332 41.6676 249.068 42.6855 248.542 43.5497C248.021 44.4138 247.296 45.0796 246.366 45.5472C245.437 46.0147 244.357 46.2485 243.126 46.2485C242.031 46.2485 241.037 46.0562 240.143 45.6715C239.255 45.2808 238.551 44.689 238.03 43.8959C237.509 43.0969 237.252 42.0937 237.258 40.8863H241.084C241.096 41.3657 241.194 41.7771 241.377 42.1203C241.567 42.4577 241.824 42.7181 242.15 42.9016C242.481 43.0791 242.872 43.1679 243.321 43.1679C243.795 43.1679 244.194 43.0673 244.52 42.8661C244.851 42.6589 245.103 42.3571 245.275 41.9605C245.446 41.564 245.532 41.0757 245.532 40.4957V27.8181Z" fill="#3D1E1C"/>
<path d="M252.439 45.9999V32.3636H256.221V45.9999H252.439ZM254.339 30.6058C253.777 30.6058 253.294 30.4193 252.892 30.0465C252.495 29.6677 252.297 29.2149 252.297 28.6882C252.297 28.1673 252.495 27.7205 252.892 27.3476C253.294 26.9688 253.777 26.7794 254.339 26.7794C254.901 26.7794 255.38 26.9688 255.777 27.3476C256.179 27.7205 256.381 28.1673 256.381 28.6882C256.381 29.2149 256.179 29.6677 255.777 30.0465C255.38 30.4193 254.901 30.6058 254.339 30.6058Z" fill="#3D1E1C"/>
<path d="M265.108 27.8181H269.848L274.855 40.034H275.069L280.076 27.8181H284.816V45.9999H281.088V34.1658H280.937L276.232 45.9112H273.692L268.987 34.1214H268.836V45.9999H265.108V27.8181Z" fill="#3D1E1C"/>
<path d="M291.801 46.2574C290.931 46.2574 290.156 46.1065 289.475 45.8046C288.794 45.4969 288.256 45.0441 287.859 44.4463C287.469 43.8426 287.273 43.091 287.273 42.1914C287.273 41.4338 287.412 40.7975 287.691 40.2826C287.969 39.7677 288.348 39.3534 288.827 39.0397C289.306 38.726 289.851 38.4893 290.46 38.3295C291.076 38.1697 291.721 38.0572 292.396 37.9921C293.189 37.9093 293.828 37.8323 294.313 37.7613C294.799 37.6844 295.151 37.5719 295.37 37.424C295.589 37.276 295.698 37.057 295.698 36.767V36.7137C295.698 36.1515 295.521 35.7164 295.166 35.4087C294.817 35.1009 294.319 34.947 293.674 34.947C292.994 34.947 292.452 35.098 292.05 35.3998C291.647 35.6957 291.381 36.0686 291.251 36.5184L287.753 36.2343C287.93 35.4057 288.28 34.6896 288.8 34.0859C289.321 33.4763 289.993 33.0087 290.816 32.6832C291.644 32.3517 292.603 32.186 293.692 32.186C294.45 32.186 295.175 32.2748 295.867 32.4524C296.565 32.6299 297.184 32.9051 297.723 33.278C298.267 33.6509 298.696 34.1303 299.01 34.7162C299.324 35.2962 299.48 35.9917 299.48 36.8025V45.9999H295.894V44.109H295.787C295.568 44.5351 295.275 44.9109 294.908 45.2365C294.541 45.5561 294.1 45.8076 293.585 45.9911C293.071 46.1686 292.476 46.2574 291.801 46.2574ZM292.884 43.6473C293.44 43.6473 293.932 43.5378 294.358 43.3188C294.784 43.0939 295.118 42.7921 295.361 42.4133C295.604 42.0345 295.725 41.6054 295.725 41.126V39.6789C295.607 39.7559 295.444 39.8269 295.237 39.892C295.036 39.9512 294.808 40.0074 294.553 40.0607C294.299 40.108 294.044 40.1524 293.79 40.1938C293.535 40.2293 293.304 40.2619 293.097 40.2915C292.653 40.3566 292.266 40.4602 291.934 40.6022C291.603 40.7443 291.345 40.9366 291.162 41.1793C290.978 41.416 290.887 41.7119 290.887 42.0671C290.887 42.582 291.073 42.9756 291.446 43.2478C291.825 43.5141 292.304 43.6473 292.884 43.6473Z" fill="#3D1E1C"/>
<path d="M306.196 38.1164V45.9999H302.415V27.8181H306.09V34.7695H306.25C306.558 33.9646 307.055 33.3342 307.741 32.8785C308.428 32.4168 309.289 32.186 310.325 32.186C311.272 32.186 312.097 32.3932 312.802 32.8075C313.512 33.2159 314.062 33.8048 314.453 34.5742C314.849 35.3377 315.045 36.2521 315.039 37.3174V45.9999H311.257V37.9921C311.263 37.1517 311.05 36.4977 310.618 36.0301C310.191 35.5626 309.594 35.3288 308.824 35.3288C308.309 35.3288 307.854 35.4383 307.457 35.6573C307.066 35.8762 306.759 36.1959 306.534 36.6161C306.315 37.0304 306.202 37.5305 306.196 38.1164Z" fill="#3D1E1C"/>
<path d="M321.904 46.2574C321.034 46.2574 320.258 46.1065 319.578 45.8046C318.897 45.4969 318.358 45.0441 317.962 44.4463C317.571 43.8426 317.376 43.091 317.376 42.1914C317.376 41.4338 317.515 40.7975 317.793 40.2826C318.071 39.7677 318.45 39.3534 318.93 39.0397C319.409 38.726 319.953 38.4893 320.563 38.3295C321.179 38.1697 321.824 38.0572 322.498 37.9921C323.291 37.9093 323.931 37.8323 324.416 37.7613C324.901 37.6844 325.253 37.5719 325.472 37.424C325.691 37.276 325.801 37.057 325.801 36.767V36.7137C325.801 36.1515 325.623 35.7164 325.268 35.4087C324.919 35.1009 324.422 34.947 323.777 34.947C323.096 34.947 322.555 35.098 322.152 35.3998C321.75 35.6957 321.483 36.0686 321.353 36.5184L317.855 36.2343C318.033 35.4057 318.382 34.6896 318.903 34.0859C319.424 33.4763 320.095 33.0087 320.918 32.6832C321.747 32.3517 322.706 32.186 323.795 32.186C324.552 32.186 325.277 32.2748 325.97 32.4524C326.668 32.6299 327.287 32.9051 327.825 33.278C328.37 33.6509 328.799 34.1303 329.112 34.7162C329.426 35.2962 329.583 35.9917 329.583 36.8025V45.9999H325.996V44.109H325.89C325.671 44.5351 325.378 44.9109 325.011 45.2365C324.644 45.5561 324.203 45.8076 323.688 45.9911C323.173 46.1686 322.578 46.2574 321.904 46.2574ZM322.987 43.6473C323.543 43.6473 324.034 43.5378 324.46 43.3188C324.887 43.0939 325.221 42.7921 325.464 42.4133C325.706 42.0345 325.828 41.6054 325.828 41.126V39.6789C325.709 39.7559 325.546 39.8269 325.339 39.892C325.138 39.9512 324.91 40.0074 324.656 40.0607C324.401 40.108 324.147 40.1524 323.892 40.1938C323.638 40.2293 323.407 40.2619 323.2 40.2915C322.756 40.3566 322.368 40.4602 322.037 40.6022C321.705 40.7443 321.448 40.9366 321.264 41.1793C321.081 41.416 320.989 41.7119 320.989 42.0671C320.989 42.582 321.176 42.9756 321.548 43.2478C321.927 43.5141 322.407 43.6473 322.987 43.6473Z" fill="#3D1E1C"/>
<path d="M332.517 45.9999V32.3636H336.184V34.7428H336.326C336.574 33.8965 336.991 33.2573 337.577 32.8252C338.163 32.3873 338.838 32.1683 339.602 32.1683C339.791 32.1683 339.995 32.1801 340.214 32.2038C340.433 32.2275 340.625 32.26 340.791 32.3014V35.6573C340.614 35.604 340.368 35.5566 340.054 35.5152C339.741 35.4738 339.454 35.4531 339.193 35.4531C338.637 35.4531 338.14 35.5744 337.702 35.8171C337.27 36.0538 336.926 36.3852 336.672 36.8114C336.423 37.2375 336.299 37.7288 336.299 38.2851V45.9999H332.517Z" fill="#3D1E1C"/>
<path d="M346.244 46.2574C345.374 46.2574 344.599 46.1065 343.918 45.8046C343.238 45.4969 342.699 45.0441 342.303 44.4463C341.912 43.8426 341.717 43.091 341.717 42.1914C341.717 41.4338 341.856 40.7975 342.134 40.2826C342.412 39.7677 342.791 39.3534 343.27 39.0397C343.75 38.726 344.294 38.4893 344.904 38.3295C345.519 38.1697 346.165 38.0572 346.839 37.9921C347.632 37.9093 348.272 37.8323 348.757 37.7613C349.242 37.6844 349.594 37.5719 349.813 37.424C350.032 37.276 350.142 37.057 350.142 36.767V36.7137C350.142 36.1515 349.964 35.7164 349.609 35.4087C349.26 35.1009 348.763 34.947 348.118 34.947C347.437 34.947 346.895 35.098 346.493 35.3998C346.091 35.6957 345.824 36.0686 345.694 36.5184L342.196 36.2343C342.374 35.4057 342.723 34.6896 343.244 34.0859C343.765 33.4763 344.436 33.0087 345.259 32.6832C346.088 32.3517 347.046 32.186 348.135 32.186C348.893 32.186 349.618 32.2748 350.31 32.4524C351.009 32.6299 351.627 32.9051 352.166 33.278C352.71 33.6509 353.14 34.1303 353.453 34.7162C353.767 35.2962 353.924 35.9917 353.924 36.8025V45.9999H350.337V44.109H350.231C350.012 44.5351 349.719 44.9109 349.352 45.2365C348.985 45.5561 348.544 45.8076 348.029 45.9911C347.514 46.1686 346.919 46.2574 346.244 46.2574ZM347.328 43.6473C347.884 43.6473 348.375 43.5378 348.801 43.3188C349.227 43.0939 349.562 42.7921 349.804 42.4133C350.047 42.0345 350.168 41.6054 350.168 41.126V39.6789C350.05 39.7559 349.887 39.8269 349.68 39.892C349.479 39.9512 349.251 40.0074 348.997 40.0607C348.742 40.108 348.488 40.1524 348.233 40.1938C347.979 40.2293 347.748 40.2619 347.541 40.2915C347.097 40.3566 346.709 40.4602 346.378 40.6022C346.046 40.7443 345.789 40.9366 345.605 41.1793C345.422 41.416 345.33 41.7119 345.33 42.0671C345.33 42.582 345.516 42.9756 345.889 43.2478C346.268 43.5141 346.747 43.6473 347.328 43.6473Z" fill="#3D1E1C"/>
<path d="M356.858 32.3636H360.64V46.6747C360.64 47.7282 360.433 48.5804 360.018 49.2315C359.604 49.8825 359.009 50.359 358.234 50.6608C357.465 50.9627 356.544 51.1136 355.473 51.1136C355.343 51.1136 355.218 51.1106 355.1 51.1047C354.976 51.1047 354.846 51.1017 354.709 51.0958V48.1395C354.81 48.1454 354.899 48.1484 354.976 48.1484C355.047 48.1543 355.124 48.1573 355.207 48.1573C355.816 48.1573 356.242 48.0271 356.485 47.7666C356.734 47.5121 356.858 47.1274 356.858 46.6125V32.3636ZM358.74 30.6058C358.184 30.6058 357.704 30.4193 357.302 30.0465C356.899 29.6677 356.698 29.2149 356.698 28.6882C356.698 28.1673 356.899 27.7205 357.302 27.3476C357.704 26.9688 358.184 26.7794 358.74 26.7794C359.308 26.7794 359.79 26.9688 360.187 27.3476C360.59 27.7205 360.791 28.1673 360.791 28.6882C360.791 29.2149 360.59 29.6677 360.187 30.0465C359.79 30.4193 359.308 30.6058 358.74 30.6058Z" fill="#3D1E1C"/>
<defs>
<linearGradient id="paint0_linear_2907_83" x1="13.2855" y1="-3.83712" x2="43.2737" y2="2.6211" gradientUnits="userSpaceOnUse">
<stop stop-color="#FFDB5E"/>
<stop offset="1" stop-color="#FFC52F"/>
</linearGradient>
<linearGradient id="paint1_linear_2907_83" x1="17.5878" y1="5.41369" x2="4.67" y2="15.9203" gradientUnits="userSpaceOnUse">
<stop stop-color="#8EF2CE"/>
<stop offset="1" stop-color="#FFC52F"/>
</linearGradient>
<linearGradient id="paint2_linear_2907_83" x1="58.6275" y1="5.41369" x2="71.5453" y2="15.9203" gradientUnits="userSpaceOnUse">
<stop stop-color="#CE61EA"/>
<stop offset="1" stop-color="#FFC52F"/>
</linearGradient>
</defs>
</svg>
