<?xml version="1.0" encoding="utf-8"?>
<!-- Generator: Adobe Illustrator 24.3.0, SVG Export Plug-In . SVG Version: 6.00 Build 0)  -->
<svg version="1.0" id="Layer_1" xmlns="http://www.w3.org/2000/svg" xmlns:xlink="http://www.w3.org/1999/xlink" x="0px" y="0px"
	 width="30px" height="30px" viewBox="0 0 30 30" style="enable-background:new 0 0 30 30;" xml:space="preserve">
<style type="text/css">
	.st0{fill:#FEF6EC;}
	.st1{fill:none;stroke:#FEC053;stroke-miterlimit:10;}
	.st2{display:none;}
	.st3{display:inline;fill:none;stroke:#FEC053;stroke-miterlimit:10;}
	.st4{display:inline;fill:#FFFFFF;stroke:#FEC053;stroke-miterlimit:10;}
	.st5{display:inline;fill:#FEC053;}
	.st6{display:inline;}
	.st7{fill:none;stroke:#FFFFFF;stroke-width:0.84;stroke-miterlimit:10;}
	.st8{fill:none;stroke:#FFFFFF;stroke-width:1.0247;stroke-miterlimit:10;}
	.st9{fill:#FEC053;}
	.st10{fill:#FFFFFF;stroke:#FEC053;stroke-miterlimit:10;}
	.st11{display:inline;fill:none;stroke:#D9D8D6;stroke-miterlimit:10;}
	.st12{fill:none;stroke:#D9D8D6;stroke-miterlimit:10;}
	.st13{fill:#D9D8D6;}
	.st14{display:inline;fill:none;stroke:#FFFFFF;stroke-miterlimit:10;}
	.st15{fill:#FFFFFF;stroke:#FFFFFF;stroke-miterlimit:10;}
	.st16{fill:#FFFFFF;}
	.st17{fill:none;stroke:#FFFFFF;stroke-miterlimit:10;}
	.st18{display:inline;fill:none;stroke:#FFFFFF;stroke-width:1.0098;stroke-miterlimit:10;}
	.st19{display:inline;fill:#FFFFFF;}
	.st20{fill:none;stroke:#FFFFFF;stroke-width:0.8563;stroke-miterlimit:10;}
</style>
<g>
	<circle class="st0" cx="15" cy="15" r="13.1"/>
	<polygon class="st1" points="20.2,15.3 11.9,10.1 11.5,19.9 	"/>
</g>
<g class="st2">
	<circle class="st3" cx="15" cy="15" r="13.1"/>
	<polygon class="st3" points="18.2,15.3 10.9,10.7 10.6,19.3 	"/>
	<rect x="19.1" y="9.5" class="st4" width="0.3" height="11.1"/>
</g>
<g class="st2">
	<circle class="st5" cx="15" cy="15" r="13.1"/>
	<g class="st6">
		<rect x="16.3" y="11.3" class="st7" width="0.8" height="7.8"/>
		<rect x="13.1" y="11.4" class="st8" width="0.5" height="7.5"/>
	</g>
</g>
<g class="st2">
	<circle class="st3" cx="15" cy="15" r="13.1"/>
	<polygon class="st3" points="11.8,14.7 19.1,19.3 19.4,10.7 	"/>
	<rect x="10.6" y="9.4" class="st3" width="0.3" height="11.1"/>
</g>
<g class="st2">
	<circle class="st3" cx="15" cy="15" r="13.1"/>
	<g class="st6">
		<path class="st9" d="M22.4,16.4c-0.1,0.4-0.2,0.8-0.3,1.2c-0.7,1.4-1.8,2.2-3.3,2.5c-0.2,0-0.4,0-0.6,0c-2.9,0-5.8,0-8.7,0
			c-0.1,0-0.1,0-0.2,0c0,0.1,0.1,0.1,0.1,0.1c0.4,0.4,0.9,0.9,1.3,1.3c0.1,0.1,0.2,0.2,0.2,0.3c0,0.2-0.1,0.4-0.2,0.5
			c-0.2,0.1-0.4,0.1-0.5-0.1c-0.1-0.1-0.3-0.3-0.4-0.4c-0.6-0.6-1.2-1.2-1.9-1.9c-0.3-0.3-0.3-0.5,0-0.8c0.7-0.7,1.5-1.5,2.2-2.2
			c0.1-0.1,0.2-0.2,0.4-0.2s0.3,0.1,0.4,0.2c0.1,0.2,0.1,0.3,0,0.5c0,0.1-0.1,0.1-0.1,0.1c-0.4,0.4-0.8,0.8-1.3,1.3l-0.1,0.1h0.1
			c2.9,0,5.9,0,8.8,0c1.6,0,2.8-1,3.2-2.6c0.1-0.2,0.1-0.5,0.1-0.7c0-0.6,0-1.1,0-1.7c0-0.3,0.1-0.5,0.3-0.5c0.2-0.1,0.4,0,0.6,0.3
			C22.4,14.7,22.4,15.6,22.4,16.4z"/>
		<path class="st9" d="M22.4,10.5c0,0.1-0.1,0.2-0.2,0.3c-0.7,0.7-1.4,1.4-2.2,2.2c-0.1,0.1-0.2,0.2-0.3,0.2c-0.2,0-0.4-0.1-0.5-0.3
			s-0.1-0.4,0.1-0.6c0.4-0.4,0.9-0.9,1.3-1.3l0.1-0.1h-0.1c-2.9,0-5.8,0-8.7,0c-1.6,0-2.9,1-3.2,2.6c-0.1,0.2-0.1,0.5-0.1,0.7
			c0,0.6,0,1.2,0,1.7c0,0.3-0.2,0.5-0.5,0.5s-0.5-0.2-0.5-0.5c0-0.6,0-1.3,0-1.9c0-1,0.4-1.9,1-2.6c0.7-0.8,1.7-1.3,2.8-1.4
			c0.2,0,0.3,0,0.5,0c2.9,0,5.8,0,8.7,0c0.1,0,0.1,0,0.2,0c0-0.1-0.1-0.1-0.1-0.1c-0.4-0.4-0.9-0.9-1.3-1.3
			c-0.3-0.3-0.3-0.7,0.1-0.9c0.1,0,0.2,0,0.3,0c0.1,0,0.2,0.1,0.3,0.2c0.7,0.7,1.4,1.4,2.2,2.2c0.1,0.1,0.1,0.2,0.2,0.3
			C22.4,10.3,22.4,10.4,22.4,10.5z"/>
	</g>
</g>
<g class="st2">
	<circle class="st3" cx="15" cy="15" r="13.1"/>
	<g class="st6">
		<line class="st1" x1="19.8" y1="10.2" x2="10.2" y2="19.8"/>
		<path class="st10" d="M10.2,10.2c9.5,9.5,9.5,9.5,9.5,9.5"/>
	</g>
</g>
<g class="st2">
	<circle class="st11" cx="15" cy="15" r="13.1"/>
	<polygon class="st11" points="20.2,15.3 11.9,10.1 11.5,19.9 	"/>
</g>
<g class="st2">
	<circle class="st11" cx="15" cy="15" r="13.1"/>
	<polygon class="st11" points="18.2,15.3 10.9,10.7 10.6,19.3 	"/>
	<rect x="19.1" y="9.5" class="st11" width="0.3" height="11.1"/>
</g>
<g class="st2">
	<circle class="st11" cx="15" cy="15" r="13.1"/>
	<g class="st6">
		<rect x="16.9" y="9.5" class="st12" width="0.3" height="11.1"/>
		<rect x="12.9" y="9.5" class="st12" width="0.3" height="11.1"/>
	</g>
</g>
<g class="st2">
	<circle class="st11" cx="15" cy="15" r="13.1"/>
	<polygon class="st11" points="11.8,14.7 19.1,19.3 19.4,10.7 	"/>
	<rect x="10.6" y="9.4" class="st11" width="0.3" height="11.1"/>
</g>
<g class="st2">
	<circle class="st11" cx="15" cy="15" r="13.1"/>
	<g class="st6">
		<path class="st13" d="M22.4,16.4c-0.1,0.4-0.2,0.8-0.3,1.2c-0.7,1.4-1.8,2.2-3.3,2.5c-0.2,0-0.4,0-0.6,0c-2.9,0-5.8,0-8.7,0
			c-0.1,0-0.1,0-0.2,0c0,0.1,0.1,0.1,0.1,0.1c0.4,0.4,0.9,0.9,1.3,1.3c0.1,0.1,0.2,0.2,0.2,0.3c0,0.2-0.1,0.4-0.2,0.5
			c-0.2,0.1-0.4,0.1-0.5-0.1c-0.1-0.1-0.3-0.3-0.4-0.4c-0.6-0.6-1.2-1.2-1.9-1.9c-0.3-0.3-0.3-0.5,0-0.8c0.7-0.7,1.5-1.5,2.2-2.2
			c0.1-0.1,0.2-0.2,0.4-0.2s0.3,0.1,0.4,0.2c0.1,0.2,0.1,0.3,0,0.5c0,0.1-0.1,0.1-0.1,0.1c-0.4,0.4-0.8,0.8-1.3,1.3l-0.1,0.1h0.1
			c2.9,0,5.9,0,8.8,0c1.6,0,2.8-1,3.2-2.6c0.1-0.2,0.1-0.5,0.1-0.7c0-0.6,0-1.1,0-1.7c0-0.3,0.1-0.5,0.3-0.5c0.2-0.1,0.4,0,0.6,0.3
			C22.4,14.7,22.4,15.6,22.4,16.4z"/>
		<path class="st13" d="M22.4,10.5c0,0.1-0.1,0.2-0.2,0.3c-0.7,0.7-1.4,1.4-2.2,2.2c-0.1,0.1-0.2,0.2-0.3,0.2
			c-0.2,0-0.4-0.1-0.5-0.3s-0.1-0.4,0.1-0.6c0.4-0.4,0.9-0.9,1.3-1.3l0.1-0.1h-0.1c-2.9,0-5.8,0-8.7,0c-1.6,0-2.9,1-3.2,2.6
			c-0.1,0.2-0.1,0.5-0.1,0.7c0,0.6,0,1.2,0,1.7c0,0.3-0.2,0.5-0.5,0.5s-0.5-0.2-0.5-0.5c0-0.6,0-1.3,0-1.9c0-1,0.4-1.9,1-2.6
			c0.7-0.8,1.7-1.3,2.8-1.4c0.2,0,0.3,0,0.5,0c2.9,0,5.8,0,8.7,0c0.1,0,0.1,0,0.2,0c0-0.1-0.1-0.1-0.1-0.1c-0.4-0.4-0.9-0.9-1.3-1.3
			c-0.3-0.3-0.3-0.7,0.1-0.9c0.1,0,0.2,0,0.3,0c0.1,0,0.2,0.1,0.3,0.2c0.7,0.7,1.4,1.4,2.2,2.2c0.1,0.1,0.1,0.2,0.2,0.3
			C22.4,10.3,22.4,10.4,22.4,10.5z"/>
	</g>
</g>
<g class="st2">
	<circle class="st11" cx="15" cy="15" r="13.1"/>
	<g class="st6">
		<line class="st12" x1="19.8" y1="10.2" x2="10.2" y2="19.8"/>
		<path class="st12" d="M10.2,10.2c9.5,9.5,9.5,9.5,9.5,9.5"/>
	</g>
</g>
<g class="st2">
	<circle class="st14" cx="15" cy="15" r="13.1"/>
	<polygon class="st14" points="20.2,15.3 11.9,10.1 11.5,19.9 	"/>
</g>
<g class="st2">
	<circle class="st14" cx="15" cy="15" r="13.1"/>
	<polygon class="st14" points="18.2,15.3 10.9,10.7 10.6,19.3 	"/>
	<rect x="19.1" y="9.5" class="st14" width="0.3" height="11.1"/>
</g>
<g class="st2">
	<circle class="st14" cx="15" cy="15" r="13.1"/>
	<g class="st6">
		<rect x="16.9" y="9.5" class="st15" width="0.3" height="11.1"/>
		<rect x="12.9" y="9.5" class="st15" width="0.3" height="11.1"/>
	</g>
</g>
<g class="st2">
	<circle class="st14" cx="15" cy="15" r="13.1"/>
	<polygon class="st14" points="11.8,14.7 19.1,19.3 19.4,10.7 	"/>
	<rect x="10.6" y="9.4" class="st14" width="0.3" height="11.1"/>
</g>
<g class="st2">
	<circle class="st14" cx="15" cy="15" r="13.1"/>
	<g class="st6">
		<path class="st16" d="M22.4,16.4c-0.1,0.4-0.2,0.8-0.3,1.2c-0.7,1.4-1.8,2.2-3.3,2.5c-0.2,0-0.4,0-0.6,0c-2.9,0-5.8,0-8.7,0
			c-0.1,0-0.1,0-0.2,0c0,0.1,0.1,0.1,0.1,0.1c0.4,0.4,0.9,0.9,1.3,1.3c0.1,0.1,0.2,0.2,0.2,0.3c0,0.2-0.1,0.4-0.2,0.5
			c-0.2,0.1-0.4,0.1-0.5-0.1c-0.1-0.1-0.3-0.3-0.4-0.4c-0.6-0.6-1.2-1.2-1.9-1.9c-0.3-0.3-0.3-0.5,0-0.8c0.7-0.7,1.5-1.5,2.2-2.2
			c0.1-0.1,0.2-0.2,0.4-0.2s0.3,0.1,0.4,0.2c0.1,0.2,0.1,0.3,0,0.5c0,0.1-0.1,0.1-0.1,0.1c-0.4,0.4-0.8,0.8-1.3,1.3l-0.1,0.1h0.1
			c2.9,0,5.9,0,8.8,0c1.6,0,2.8-1,3.2-2.6c0.1-0.2,0.1-0.5,0.1-0.7c0-0.6,0-1.1,0-1.7c0-0.3,0.1-0.5,0.3-0.5c0.2-0.1,0.4,0,0.6,0.3
			C22.4,14.7,22.4,15.6,22.4,16.4z"/>
		<path class="st16" d="M22.4,10.5c0,0.1-0.1,0.2-0.2,0.3c-0.7,0.7-1.4,1.4-2.2,2.2c-0.1,0.1-0.2,0.2-0.3,0.2
			c-0.2,0-0.4-0.1-0.5-0.3s-0.1-0.4,0.1-0.6c0.4-0.4,0.9-0.9,1.3-1.3l0.1-0.1h-0.1c-2.9,0-5.8,0-8.7,0c-1.6,0-2.9,1-3.2,2.6
			c-0.1,0.2-0.1,0.5-0.1,0.7c0,0.6,0,1.2,0,1.7c0,0.3-0.2,0.5-0.5,0.5s-0.5-0.2-0.5-0.5c0-0.6,0-1.3,0-1.9c0-1,0.4-1.9,1-2.6
			c0.7-0.8,1.7-1.3,2.8-1.4c0.2,0,0.3,0,0.5,0c2.9,0,5.8,0,8.7,0c0.1,0,0.1,0,0.2,0c0-0.1-0.1-0.1-0.1-0.1c-0.4-0.4-0.9-0.9-1.3-1.3
			c-0.3-0.3-0.3-0.7,0.1-0.9c0.1,0,0.2,0,0.3,0c0.1,0,0.2,0.1,0.3,0.2c0.7,0.7,1.4,1.4,2.2,2.2c0.1,0.1,0.1,0.2,0.2,0.3
			C22.4,10.3,22.4,10.4,22.4,10.5z"/>
	</g>
</g>
<g class="st2">
	<circle class="st14" cx="15" cy="15" r="13.1"/>
	<g class="st6">
		<line class="st17" x1="19.8" y1="10.2" x2="10.2" y2="19.8"/>
		<path class="st15" d="M10.2,10.2c9.5,9.5,9.5,9.5,9.5,9.5"/>
	</g>
</g>
<g class="st2">
	<ellipse class="st18" cx="15" cy="15" rx="13.1" ry="13"/>
	<polyline class="st18" points="20,13.7 15,18.7 10,13.7 	"/>
	<line class="st18" x1="15" y1="7.8" x2="15" y2="18.7"/>
	<line class="st18" x1="10.3" y1="20.4" x2="19.9" y2="20.4"/>
</g>
<g class="st2">
	<ellipse class="st14" cx="15" cy="15" rx="13.2" ry="13.1"/>
	<path class="st19" d="M16.4,9.4c0,0.6-0.4,1.1-1.1,1.1c-0.6,0-1-0.5-1-1.1s0.5-1.1,1.1-1.1C15.9,8.3,16.4,8.8,16.4,9.4z M14.4,21.7
		v-9.6h1.7v9.6H14.4z"/>
</g>
<g class="st2">
	<ellipse class="st14" cx="15" cy="15" rx="13.2" ry="13.1"/>
	<g class="st6">
		<polyline class="st20" points="19.7,15.6 19.7,19.6 10.3,19.6 10.3,10.4 14.4,10.4 		"/>
		<polyline class="st20" points="15.3,10.4 19.7,10.4 19.7,14.7 		"/>
		<line class="st20" x1="19.7" y1="10.4" x2="15" y2="15"/>
	</g>
</g>
</svg>
