<svg width="13" height="13" viewBox="0 0 13 13" fill="none" xmlns="http://www.w3.org/2000/svg">
<path d="M3.3001 0.900391H8.9001C10.4001 0.900391 11.6001 2.10039 11.6001 3.60039V9.20039C11.6001 10.7004 10.4001 11.9004 8.9001 11.9004H3.3001C1.8001 11.9004 0.600098 10.7004 0.600098 9.20039V3.60039C0.700098 2.10039 1.9001 0.900391 3.3001 0.900391Z" stroke="#FEFEFE"/>
<path d="M3.69995 6.50039C3.69995 6.10039 3.89995 5.90039 4.19995 5.90039H8.19995C8.49995 5.90039 8.79996 6.10039 8.79996 6.50039C8.79996 6.80039 8.49995 7.00039 8.19995 7.00039H4.19995C3.89995 7.00039 3.69995 6.80039 3.69995 6.50039Z" fill="#FEFEFE"/>
<path d="M6.19985 9.00039C5.79985 9.00039 5.59985 8.70039 5.59985 8.40039V4.40039C5.59985 4.10039 5.79985 3.90039 6.19985 3.90039C6.49985 3.90039 6.69985 4.10039 6.69985 4.40039V8.40039C6.69985 8.70039 6.49985 9.00039 6.19985 9.00039Z" fill="#FEFEFE"/>
</svg>
