<svg width="36" height="36" viewBox="0 0 36 36" fill="none" xmlns="http://www.w3.org/2000/svg">
<circle cx="17.8989" cy="17.8989" r="16.8989" stroke="url(#paint0_linear_2907_217)" stroke-width="2" stroke-linecap="round" stroke-linejoin="round"/>
<path d="M25.4496 11.0746C24.761 11.5604 23.9986 11.9319 23.1916 12.1749C22.7586 11.6769 22.183 11.324 21.5428 11.1638C20.9026 11.0036 20.2286 11.0439 19.612 11.2792C18.9954 11.5145 18.466 11.9335 18.0954 12.4796C17.7247 13.0256 17.5307 13.6723 17.5395 14.3322V15.0513C16.2758 15.084 15.0236 14.8038 13.8944 14.2354C12.7652 13.6671 11.7941 12.8283 11.0676 11.7937C11.0676 11.7937 8.19119 18.2657 14.6631 21.1421C13.1821 22.1473 11.4179 22.6514 9.62939 22.5803C16.1013 26.1758 24.0114 22.5803 24.0114 14.3106C24.0114 14.1093 23.9898 13.9079 23.9539 13.7137C24.6878 12.99 25.2057 12.0761 25.4496 11.0746V11.0746Z" stroke="#FFCA1F" stroke-width="1.5" stroke-linecap="round" stroke-linejoin="round"/>
<defs>
<linearGradient id="paint0_linear_2907_217" x1="17.8989" y1="1" x2="17.8989" y2="34.7978" gradientUnits="userSpaceOnUse">
<stop stop-color="#FFCB12"/>
<stop offset="1" stop-color="#FF8832" stop-opacity="0.03"/>
</linearGradient>
</defs>
</svg>
