<svg width="80" height="80" viewBox="0 0 80 80" fill="none" xmlns="http://www.w3.org/2000/svg">
<rect width="80" height="80" rx="19" fill="url(#paint0_linear_3649_556)"/>
<circle cx="39.6826" cy="39.0476" r="25.0794" fill="url(#paint1_linear_3649_556)"/>
<path d="M43.1746 60.9524V41.6931L60.9523 38.7302V57.9894" stroke="url(#paint2_linear_3649_556)" stroke-width="2" stroke-linecap="round" stroke-linejoin="round"/>
<path d="M38.7301 65.3968C41.1847 65.3968 43.1745 63.407 43.1745 60.9524C43.1745 58.4978 41.1847 56.5079 38.7301 56.5079C36.2755 56.5079 34.2856 58.4978 34.2856 60.9524C34.2856 63.407 36.2755 65.3968 38.7301 65.3968Z" stroke="url(#paint3_linear_3649_556)" stroke-width="2" stroke-linecap="round" stroke-linejoin="round"/>
<path d="M56.5079 62.4339C58.9625 62.4339 60.9524 60.444 60.9524 57.9894C60.9524 55.5348 58.9625 53.545 56.5079 53.545C54.0533 53.545 52.0635 55.5348 52.0635 57.9894C52.0635 60.444 54.0533 62.4339 56.5079 62.4339Z" stroke="url(#paint4_linear_3649_556)" stroke-width="2" stroke-linecap="round" stroke-linejoin="round"/>
<path d="M28.9949 40.4233V28.5009L40.0002 26.6667V38.5891" stroke="url(#paint5_linear_3649_556)" stroke-width="2" stroke-linecap="round" stroke-linejoin="round"/>
<path d="M26.2433 43.1746C27.7628 43.1746 28.9946 41.9428 28.9946 40.4233C28.9946 38.9037 27.7628 37.6719 26.2433 37.6719C24.7238 37.6719 23.4919 38.9037 23.4919 40.4233C23.4919 41.9428 24.7238 43.1746 26.2433 43.1746Z" stroke="url(#paint6_linear_3649_556)" stroke-width="2" stroke-linecap="round" stroke-linejoin="round"/>
<path d="M37.2486 41.3404C38.7682 41.3404 40 40.1086 40 38.5891C40 37.0696 38.7682 35.8378 37.2486 35.8378C35.7291 35.8378 34.4973 37.0696 34.4973 38.5891C34.4973 40.1086 35.7291 41.3404 37.2486 41.3404Z" stroke="url(#paint7_linear_3649_556)" stroke-width="2" stroke-linecap="round" stroke-linejoin="round"/>
<defs>
<linearGradient id="paint0_linear_3649_556" x1="40" y1="3.23454e-06" x2="1.59269" y2="28.8251" gradientUnits="userSpaceOnUse">
<stop stop-color="#FFEDAB"/>
<stop offset="0.21875" stop-color="#FFF2CA"/>
<stop offset="1" stop-color="#FFECBC"/>
</linearGradient>
<linearGradient id="paint1_linear_3649_556" x1="57.4604" y1="9.84128" x2="39.6826" y2="64.127" gradientUnits="userSpaceOnUse">
<stop stop-color="#FFD253"/>
<stop offset="1" stop-color="#FFE497" stop-opacity="0"/>
</linearGradient>
<linearGradient id="paint2_linear_3649_556" x1="52.0634" y1="38.7302" x2="52.0634" y2="60.9524" gradientUnits="userSpaceOnUse">
<stop stop-color="#FFCB12"/>
<stop offset="1" stop-color="#FF8832" stop-opacity="0.03"/>
</linearGradient>
<linearGradient id="paint3_linear_3649_556" x1="38.7301" y1="56.5079" x2="38.7301" y2="65.3968" gradientUnits="userSpaceOnUse">
<stop stop-color="#FFCB12"/>
<stop offset="1" stop-color="#FF8832" stop-opacity="0.03"/>
</linearGradient>
<linearGradient id="paint4_linear_3649_556" x1="56.5079" y1="53.545" x2="56.5079" y2="62.4339" gradientUnits="userSpaceOnUse">
<stop stop-color="#FFCB12"/>
<stop offset="1" stop-color="#FF8832" stop-opacity="0.03"/>
</linearGradient>
<linearGradient id="paint5_linear_3649_556" x1="34.4975" y1="26.6667" x2="34.4975" y2="40.4233" gradientUnits="userSpaceOnUse">
<stop stop-color="#FFCB12"/>
<stop offset="1" stop-color="#FF8832" stop-opacity="0.03"/>
</linearGradient>
<linearGradient id="paint6_linear_3649_556" x1="26.2433" y1="37.6719" x2="26.2433" y2="43.1746" gradientUnits="userSpaceOnUse">
<stop stop-color="#FFCB12"/>
<stop offset="1" stop-color="#FF8832" stop-opacity="0.03"/>
</linearGradient>
<linearGradient id="paint7_linear_3649_556" x1="37.2486" y1="35.8378" x2="37.2486" y2="41.3404" gradientUnits="userSpaceOnUse">
<stop stop-color="#FFCB12"/>
<stop offset="1" stop-color="#FF8832" stop-opacity="0.03"/>
</linearGradient>
</defs>
</svg>
