<svg width="126" height="126" viewBox="0 0 126 126" fill="none" xmlns="http://www.w3.org/2000/svg">
<rect width="126" height="126" rx="30" fill="url(#paint0_linear_2719_2881)"/>
<circle cx="62.5" cy="61.5" r="39.5" fill="url(#paint1_linear_2719_2881)"/>
<path d="M68 96V65.6667L96 61V91.3333" stroke="url(#paint2_linear_2719_2881)" stroke-width="3" stroke-linecap="round" stroke-linejoin="round"/>
<path d="M61 103C64.866 103 68 99.866 68 96C68 92.134 64.866 89 61 89C57.134 89 54 92.134 54 96C54 99.866 57.134 103 61 103Z" stroke="url(#paint3_linear_2719_2881)" stroke-width="3" stroke-linecap="round" stroke-linejoin="round"/>
<path d="M89 98.3333C92.866 98.3333 96 95.1993 96 91.3333C96 87.4673 92.866 84.3333 89 84.3333C85.134 84.3333 82 87.4673 82 91.3333C82 95.1993 85.134 98.3333 89 98.3333Z" stroke="url(#paint4_linear_2719_2881)" stroke-width="3" stroke-linecap="round" stroke-linejoin="round"/>
<path d="M43 49L61 46" stroke="url(#paint5_linear_2719_2881)" stroke-width="3" stroke-linecap="round" stroke-linejoin="round"/>
<path d="M43 57L61 54" stroke="url(#paint6_linear_2719_2881)" stroke-width="3" stroke-linecap="round" stroke-linejoin="round"/>
<path d="M43 65L61 62" stroke="url(#paint7_linear_2719_2881)" stroke-width="3" stroke-linecap="round" stroke-linejoin="round"/>
<defs>
<linearGradient id="paint0_linear_2719_2881" x1="63" y1="5.09439e-06" x2="2.50848" y2="45.3996" gradientUnits="userSpaceOnUse">
<stop stop-color="#FFEDAB"/>
<stop offset="0.21875" stop-color="#FFF2CA"/>
<stop offset="1" stop-color="#FFECBC"/>
</linearGradient>
<linearGradient id="paint1_linear_2719_2881" x1="90.5" y1="15.5" x2="62.5" y2="101" gradientUnits="userSpaceOnUse">
<stop stop-color="#FFD253"/>
<stop offset="1" stop-color="#FFE497" stop-opacity="0"/>
</linearGradient>
<linearGradient id="paint2_linear_2719_2881" x1="82" y1="61" x2="82" y2="96" gradientUnits="userSpaceOnUse">
<stop stop-color="#FFCB12"/>
<stop offset="1" stop-color="#FF8832" stop-opacity="0.03"/>
</linearGradient>
<linearGradient id="paint3_linear_2719_2881" x1="61" y1="89" x2="61" y2="103" gradientUnits="userSpaceOnUse">
<stop stop-color="#FFCB12"/>
<stop offset="1" stop-color="#FF8832" stop-opacity="0.03"/>
</linearGradient>
<linearGradient id="paint4_linear_2719_2881" x1="89" y1="84.3333" x2="89" y2="98.3333" gradientUnits="userSpaceOnUse">
<stop stop-color="#FFCB12"/>
<stop offset="1" stop-color="#FF8832" stop-opacity="0.03"/>
</linearGradient>
<linearGradient id="paint5_linear_2719_2881" x1="52" y1="46" x2="52" y2="68.5" gradientUnits="userSpaceOnUse">
<stop stop-color="#FFCB12"/>
<stop offset="1" stop-color="#FF8832" stop-opacity="0.03"/>
</linearGradient>
<linearGradient id="paint6_linear_2719_2881" x1="52" y1="54" x2="52" y2="76.5" gradientUnits="userSpaceOnUse">
<stop stop-color="#FFCB12"/>
<stop offset="1" stop-color="#FF8832" stop-opacity="0.03"/>
</linearGradient>
<linearGradient id="paint7_linear_2719_2881" x1="52" y1="62" x2="52" y2="84.5" gradientUnits="userSpaceOnUse">
<stop stop-color="#FFCB12"/>
<stop offset="1" stop-color="#FF8832" stop-opacity="0.03"/>
</linearGradient>
</defs>
</svg>
