<svg width="30" height="30" viewBox="0 0 30 30" fill="none" xmlns="http://www.w3.org/2000/svg">
<rect x="0.5" y="0.5" width="29" height="29" rx="14.5" stroke="white"/>
<mask id="mask0_7870_467" style="mask-type:alpha" maskUnits="userSpaceOnUse" x="5" y="5" width="20" height="20">
<rect x="5" y="5" width="20" height="20" fill="#D9D9D9"/>
</mask>
<g mask="url(#mask0_7870_467)">
<path d="M14.7113 13.6218H14.0863C13.9429 13.6218 13.8242 13.5748 13.7303 13.4809C13.6365 13.3872 13.5897 13.2686 13.5897 13.1253C13.5897 12.9818 13.6365 12.8631 13.7303 12.7691C13.8242 12.675 13.9429 12.628 14.0863 12.628H14.9518C15.1652 12.628 15.3441 12.7002 15.4884 12.8447C15.6329 12.989 15.7051 13.1679 15.7051 13.3814V16.8749C15.7051 17.0184 15.6581 17.1371 15.5643 17.2309C15.4705 17.3248 15.352 17.3718 15.2086 17.3718C15.0652 17.3718 14.9464 17.3248 14.8524 17.2309C14.7584 17.1371 14.7113 17.0184 14.7113 16.8749V13.6218ZM10.3236 20.4966L11.4005 21.5736C11.5244 21.6975 11.5856 21.8425 11.584 22.0086C11.5824 22.1748 11.5218 22.3225 11.4022 22.4518C11.2718 22.5811 11.1227 22.6479 10.9551 22.6522C10.7873 22.6564 10.6388 22.5939 10.5095 22.4647L8.44384 20.3989C8.36578 20.3209 8.31078 20.2384 8.27884 20.1511C8.24675 20.0638 8.23071 19.9702 8.23071 19.8705C8.23071 19.7708 8.24675 19.6777 8.27884 19.5911C8.31078 19.5046 8.36578 19.4224 8.44384 19.3445L10.5095 17.2786C10.6335 17.1548 10.7806 17.0936 10.9509 17.0953C11.1213 17.0968 11.2718 17.1623 11.4022 17.2916C11.5218 17.4209 11.5837 17.5673 11.588 17.7307C11.5923 17.8942 11.5298 18.0405 11.4005 18.1697L10.3236 19.2468H19.0384C19.1131 19.2468 19.1745 19.2227 19.2226 19.1745C19.2706 19.1264 19.2947 19.065 19.2947 18.9903V16.5384C19.2947 16.3614 19.3546 16.2129 19.4745 16.093C19.5943 15.9733 19.7429 15.9134 19.9201 15.9134C20.0972 15.9134 20.2456 15.9733 20.3653 16.093C20.4849 16.2129 20.5447 16.3614 20.5447 16.5384V18.9903C20.5447 19.4045 20.3972 19.7591 20.1022 20.0541C19.8072 20.3491 19.4526 20.4966 19.0384 20.4966H10.3236ZM19.6761 10.753H10.9613C10.8866 10.753 10.8252 10.7771 10.7772 10.8253C10.7291 10.8734 10.7051 10.9348 10.7051 11.0095V13.4614C10.7051 13.6384 10.6452 13.7869 10.5253 13.9068C10.4054 14.0265 10.2569 14.0864 10.0797 14.0864C9.90259 14.0864 9.75419 14.0265 9.63446 13.9068C9.51488 13.7869 9.45509 13.6384 9.45509 13.4614V11.0095C9.45509 10.5953 9.60259 10.2407 9.89759 9.94573C10.1926 9.65073 10.5472 9.50323 10.9613 9.50323H19.6761L18.5993 8.42615C18.4754 8.30226 18.4142 8.15726 18.4157 7.99115C18.4174 7.82504 18.478 7.67733 18.5976 7.54802C18.728 7.41872 18.877 7.35191 19.0447 7.34761C19.2125 7.34344 19.361 7.40594 19.4903 7.53511L21.5559 9.60094C21.634 9.67886 21.689 9.76143 21.7209 9.84865C21.753 9.93601 21.769 10.0296 21.769 10.1293C21.769 10.229 21.753 10.3221 21.7209 10.4086C21.689 10.4952 21.634 10.5774 21.5559 10.6553L19.4903 12.7211C19.3663 12.845 19.2191 12.9061 19.0488 12.9045C18.8784 12.903 18.728 12.8375 18.5976 12.7082C18.478 12.5789 18.4161 12.4325 18.4118 12.2691C18.4075 12.1056 18.47 11.9593 18.5993 11.8301L19.6761 10.753Z" fill="#FF8B24"/>
</g>
</svg>
