<?xml version="1.0" encoding="utf-8"?>
<!-- Generator: Adobe Illustrator 22.0.0, SVG Export Plug-In . SVG Version: 6.00 Build 0)  -->
<svg version="1.0" id="Layer_1" xmlns="http://www.w3.org/2000/svg" xmlns:xlink="http://www.w3.org/1999/xlink" x="0px" y="0px"
	 width="30px" height="30px" viewBox="0 0 30 30" style="enable-background:new 0 0 30 30;" xml:space="preserve">
<style type="text/css">
	.st0{display:none;}
	.st1{display:inline;fill:none;stroke:#FEC053;stroke-miterlimit:10;}
	.st2{display:inline;fill:#FFFFFF;stroke:#FEC053;stroke-miterlimit:10;}
	.st3{display:inline;}
	.st4{fill:#FFFFFF;stroke:#FEC053;stroke-miterlimit:10;}
	.st5{fill:none;stroke:#FEC053;stroke-miterlimit:10;}
	.st6{fill:#FEC053;}
	.st7{display:inline;fill:none;stroke:#D9D8D6;stroke-miterlimit:10;}
	.st8{fill:none;stroke:#D9D8D6;stroke-miterlimit:10;}
	.st9{fill:#D9D8D6;}
	.st10{display:inline;fill:none;stroke:#FFFFFF;stroke-miterlimit:10;}
	.st11{fill:#FFFFFF;stroke:#FFFFFF;stroke-miterlimit:10;}
	.st12{fill:#FFFFFF;}
</style>
<g class="st0">
	<circle class="st1" cx="15" cy="15" r="13.1"/>
	<polygon class="st1" points="20.2,15.3 11.9,10.1 11.5,19.9 	"/>
</g>
<g class="st0">
	<circle class="st1" cx="15" cy="15" r="13.1"/>
	<polygon class="st1" points="18.2,15.3 10.9,10.7 10.6,19.3 	"/>
	<rect x="19.1" y="9.5" class="st2" width="0.3" height="11.1"/>
</g>
<g class="st0">
	<circle class="st1" cx="15" cy="15" r="13.1"/>
	<g class="st3">
		<rect x="16.9" y="9.5" class="st4" width="0.3" height="11.1"/>
		<rect x="12.9" y="9.5" class="st4" width="0.3" height="11.1"/>
	</g>
</g>
<g class="st0">
	<circle class="st1" cx="15" cy="15" r="13.1"/>
	<polygon class="st1" points="11.8,14.7 19.1,19.3 19.4,10.7 	"/>
	<rect x="10.6" y="9.5" transform="matrix(-1 -1.224647e-16 1.224647e-16 -1 21.4583 30)" class="st1" width="0.3" height="11.1"/>
</g>
<g>
	<circle class="st5" cx="15" cy="15" r="13.1"/>
	<g>
		<path class="st6" d="M22.4,16.4c-0.1,0.4-0.2,0.8-0.3,1.2c-0.7,1.4-1.8,2.2-3.3,2.5c-0.2,0-0.4,0-0.6,0c-2.9,0-5.8,0-8.7,0
			c-0.1,0-0.1,0-0.2,0c0,0.1,0.1,0.1,0.1,0.1c0.4,0.4,0.9,0.9,1.3,1.3c0.1,0.1,0.2,0.2,0.2,0.3c0,0.2-0.1,0.4-0.2,0.5
			c-0.2,0.1-0.4,0.1-0.5-0.1c-0.1-0.1-0.3-0.3-0.4-0.4c-0.6-0.6-1.2-1.2-1.9-1.9c-0.3-0.3-0.3-0.5,0-0.8c0.7-0.7,1.5-1.5,2.2-2.2
			c0.1-0.1,0.2-0.2,0.4-0.2c0.2,0,0.3,0.1,0.4,0.2c0.1,0.2,0.1,0.3,0,0.5c0,0.1-0.1,0.1-0.1,0.1c-0.4,0.4-0.8,0.8-1.3,1.3
			c0,0-0.1,0.1-0.1,0.1c0,0,0.1,0,0.1,0c2.9,0,5.9,0,8.8,0c1.6,0,2.8-1,3.2-2.6c0.1-0.2,0.1-0.5,0.1-0.7c0-0.6,0-1.1,0-1.7
			c0-0.3,0.1-0.5,0.3-0.5c0.2-0.1,0.4,0,0.6,0.3C22.4,14.7,22.4,15.6,22.4,16.4z"/>
		<path class="st6" d="M22.4,10.5c0,0.1-0.1,0.2-0.2,0.3c-0.7,0.7-1.4,1.4-2.2,2.2c-0.1,0.1-0.2,0.2-0.3,0.2c-0.2,0-0.4-0.1-0.5-0.3
			c-0.1-0.2-0.1-0.4,0.1-0.6c0.4-0.4,0.9-0.9,1.3-1.3c0,0,0.1-0.1,0.1-0.1c0,0-0.1,0-0.1,0c-2.9,0-5.8,0-8.7,0c-1.6,0-2.9,1-3.2,2.6
			c-0.1,0.2-0.1,0.5-0.1,0.7c0,0.6,0,1.2,0,1.7c0,0.3-0.2,0.5-0.5,0.5c-0.3,0-0.5-0.2-0.5-0.5c0-0.6,0-1.3,0-1.9c0-1,0.4-1.9,1-2.6
			c0.7-0.8,1.7-1.3,2.8-1.4c0.2,0,0.3,0,0.5,0c2.9,0,5.8,0,8.7,0c0.1,0,0.1,0,0.2,0c0-0.1-0.1-0.1-0.1-0.1c-0.4-0.4-0.9-0.9-1.3-1.3
			c-0.3-0.3-0.3-0.7,0.1-0.9c0.1,0,0.2,0,0.3,0c0.1,0,0.2,0.1,0.3,0.2c0.7,0.7,1.4,1.4,2.2,2.2c0.1,0.1,0.1,0.2,0.2,0.3
			C22.4,10.3,22.4,10.4,22.4,10.5z"/>
	</g>
</g>
<g class="st0">
	<circle class="st1" cx="15" cy="15" r="13.1"/>
	<g class="st3">
		<line class="st4" x1="19.8" y1="10.2" x2="10.2" y2="19.8"/>
		<path class="st4" d="M10.2,10.2c9.5,9.5,9.5,9.5,9.5,9.5"/>
	</g>
</g>
<g class="st0">
	<circle class="st7" cx="15" cy="15" r="13.1"/>
	<polygon class="st7" points="20.2,15.3 11.9,10.1 11.5,19.9 	"/>
</g>
<g class="st0">
	<circle class="st7" cx="15" cy="15" r="13.1"/>
	<polygon class="st7" points="18.2,15.3 10.9,10.7 10.6,19.3 	"/>
	<rect x="19.1" y="9.5" class="st7" width="0.3" height="11.1"/>
</g>
<g class="st0">
	<circle class="st7" cx="15" cy="15" r="13.1"/>
	<g class="st3">
		<rect x="16.9" y="9.5" class="st8" width="0.3" height="11.1"/>
		<rect x="12.9" y="9.5" class="st8" width="0.3" height="11.1"/>
	</g>
</g>
<g class="st0">
	<circle class="st7" cx="15" cy="15" r="13.1"/>
	<polygon class="st7" points="11.8,14.7 19.1,19.3 19.4,10.7 	"/>
	<rect x="10.6" y="9.5" transform="matrix(-1 -1.224647e-16 1.224647e-16 -1 21.4583 30)" class="st7" width="0.3" height="11.1"/>
</g>
<g class="st0">
	<circle class="st7" cx="15" cy="15" r="13.1"/>
	<g class="st3">
		<path class="st9" d="M22.4,16.4c-0.1,0.4-0.2,0.8-0.3,1.2c-0.7,1.4-1.8,2.2-3.3,2.5c-0.2,0-0.4,0-0.6,0c-2.9,0-5.8,0-8.7,0
			c-0.1,0-0.1,0-0.2,0c0,0.1,0.1,0.1,0.1,0.1c0.4,0.4,0.9,0.9,1.3,1.3c0.1,0.1,0.2,0.2,0.2,0.3c0,0.2-0.1,0.4-0.2,0.5
			c-0.2,0.1-0.4,0.1-0.5-0.1c-0.1-0.1-0.3-0.3-0.4-0.4c-0.6-0.6-1.2-1.2-1.9-1.9c-0.3-0.3-0.3-0.5,0-0.8c0.7-0.7,1.5-1.5,2.2-2.2
			c0.1-0.1,0.2-0.2,0.4-0.2c0.2,0,0.3,0.1,0.4,0.2c0.1,0.2,0.1,0.3,0,0.5c0,0.1-0.1,0.1-0.1,0.1c-0.4,0.4-0.8,0.8-1.3,1.3
			c0,0-0.1,0.1-0.1,0.1c0,0,0.1,0,0.1,0c2.9,0,5.9,0,8.8,0c1.6,0,2.8-1,3.2-2.6c0.1-0.2,0.1-0.5,0.1-0.7c0-0.6,0-1.1,0-1.7
			c0-0.3,0.1-0.5,0.3-0.5c0.2-0.1,0.4,0,0.6,0.3C22.4,14.7,22.4,15.6,22.4,16.4z"/>
		<path class="st9" d="M22.4,10.5c0,0.1-0.1,0.2-0.2,0.3c-0.7,0.7-1.4,1.4-2.2,2.2c-0.1,0.1-0.2,0.2-0.3,0.2c-0.2,0-0.4-0.1-0.5-0.3
			c-0.1-0.2-0.1-0.4,0.1-0.6c0.4-0.4,0.9-0.9,1.3-1.3c0,0,0.1-0.1,0.1-0.1c0,0-0.1,0-0.1,0c-2.9,0-5.8,0-8.7,0c-1.6,0-2.9,1-3.2,2.6
			c-0.1,0.2-0.1,0.5-0.1,0.7c0,0.6,0,1.2,0,1.7c0,0.3-0.2,0.5-0.5,0.5c-0.3,0-0.5-0.2-0.5-0.5c0-0.6,0-1.3,0-1.9c0-1,0.4-1.9,1-2.6
			c0.7-0.8,1.7-1.3,2.8-1.4c0.2,0,0.3,0,0.5,0c2.9,0,5.8,0,8.7,0c0.1,0,0.1,0,0.2,0c0-0.1-0.1-0.1-0.1-0.1c-0.4-0.4-0.9-0.9-1.3-1.3
			c-0.3-0.3-0.3-0.7,0.1-0.9c0.1,0,0.2,0,0.3,0c0.1,0,0.2,0.1,0.3,0.2c0.7,0.7,1.4,1.4,2.2,2.2c0.1,0.1,0.1,0.2,0.2,0.3
			C22.4,10.3,22.4,10.4,22.4,10.5z"/>
	</g>
</g>
<g class="st0">
	<circle class="st7" cx="15" cy="15" r="13.1"/>
	<g class="st3">
		<line class="st8" x1="19.8" y1="10.2" x2="10.2" y2="19.8"/>
		<path class="st8" d="M10.2,10.2c9.5,9.5,9.5,9.5,9.5,9.5"/>
	</g>
</g>
<g class="st0">
	<circle class="st10" cx="15" cy="15" r="13.1"/>
	<polygon class="st10" points="20.2,15.3 11.9,10.1 11.5,19.9 	"/>
</g>
<g class="st0">
	<circle class="st10" cx="15" cy="15" r="13.1"/>
	<polygon class="st10" points="18.2,15.3 10.9,10.7 10.6,19.3 	"/>
	<rect x="19.1" y="9.5" class="st10" width="0.3" height="11.1"/>
</g>
<g class="st0">
	<circle class="st10" cx="15" cy="15" r="13.1"/>
	<g class="st3">
		<rect x="16.9" y="9.5" class="st11" width="0.3" height="11.1"/>
		<rect x="12.9" y="9.5" class="st11" width="0.3" height="11.1"/>
	</g>
</g>
<g class="st0">
	<circle class="st10" cx="15" cy="15" r="13.1"/>
	<polygon class="st10" points="11.8,14.7 19.1,19.3 19.4,10.7 	"/>
	<rect x="10.6" y="9.5" transform="matrix(-1 -1.224647e-16 1.224647e-16 -1 21.4583 30)" class="st10" width="0.3" height="11.1"/>
</g>
<g class="st0">
	<circle class="st10" cx="15" cy="15" r="13.1"/>
	<g class="st3">
		<path class="st12" d="M22.4,16.4c-0.1,0.4-0.2,0.8-0.3,1.2c-0.7,1.4-1.8,2.2-3.3,2.5c-0.2,0-0.4,0-0.6,0c-2.9,0-5.8,0-8.7,0
			c-0.1,0-0.1,0-0.2,0c0,0.1,0.1,0.1,0.1,0.1c0.4,0.4,0.9,0.9,1.3,1.3c0.1,0.1,0.2,0.2,0.2,0.3c0,0.2-0.1,0.4-0.2,0.5
			c-0.2,0.1-0.4,0.1-0.5-0.1c-0.1-0.1-0.3-0.3-0.4-0.4c-0.6-0.6-1.2-1.2-1.9-1.9c-0.3-0.3-0.3-0.5,0-0.8c0.7-0.7,1.5-1.5,2.2-2.2
			c0.1-0.1,0.2-0.2,0.4-0.2c0.2,0,0.3,0.1,0.4,0.2c0.1,0.2,0.1,0.3,0,0.5c0,0.1-0.1,0.1-0.1,0.1c-0.4,0.4-0.8,0.8-1.3,1.3
			c0,0-0.1,0.1-0.1,0.1c0,0,0.1,0,0.1,0c2.9,0,5.9,0,8.8,0c1.6,0,2.8-1,3.2-2.6c0.1-0.2,0.1-0.5,0.1-0.7c0-0.6,0-1.1,0-1.7
			c0-0.3,0.1-0.5,0.3-0.5c0.2-0.1,0.4,0,0.6,0.3C22.4,14.7,22.4,15.6,22.4,16.4z"/>
		<path class="st12" d="M22.4,10.5c0,0.1-0.1,0.2-0.2,0.3c-0.7,0.7-1.4,1.4-2.2,2.2c-0.1,0.1-0.2,0.2-0.3,0.2
			c-0.2,0-0.4-0.1-0.5-0.3c-0.1-0.2-0.1-0.4,0.1-0.6c0.4-0.4,0.9-0.9,1.3-1.3c0,0,0.1-0.1,0.1-0.1c0,0-0.1,0-0.1,0
			c-2.9,0-5.8,0-8.7,0c-1.6,0-2.9,1-3.2,2.6c-0.1,0.2-0.1,0.5-0.1,0.7c0,0.6,0,1.2,0,1.7c0,0.3-0.2,0.5-0.5,0.5
			c-0.3,0-0.5-0.2-0.5-0.5c0-0.6,0-1.3,0-1.9c0-1,0.4-1.9,1-2.6c0.7-0.8,1.7-1.3,2.8-1.4c0.2,0,0.3,0,0.5,0c2.9,0,5.8,0,8.7,0
			c0.1,0,0.1,0,0.2,0c0-0.1-0.1-0.1-0.1-0.1c-0.4-0.4-0.9-0.9-1.3-1.3c-0.3-0.3-0.3-0.7,0.1-0.9c0.1,0,0.2,0,0.3,0
			c0.1,0,0.2,0.1,0.3,0.2c0.7,0.7,1.4,1.4,2.2,2.2c0.1,0.1,0.1,0.2,0.2,0.3C22.4,10.3,22.4,10.4,22.4,10.5z"/>
	</g>
</g>
<g class="st0">
	<circle class="st10" cx="15" cy="15" r="13.1"/>
	<g class="st3">
		<line class="st11" x1="19.8" y1="10.2" x2="10.2" y2="19.8"/>
		<path class="st11" d="M10.2,10.2c9.5,9.5,9.5,9.5,9.5,9.5"/>
	</g>
</g>
</svg>
